<svg version="1.1" viewBox="0.0 0.0 960.0 540.0" fill="none" stroke="none" stroke-linecap="square" stroke-miterlimit="10" xmlns:xlink="http://www.w3.org/1999/xlink" xmlns="http://www.w3.org/2000/svg"><clipPath id="g36cfd3642ec_0_103.0"><path d="m0 0l960.0 0l0 540.0l-960.0 0l0 -540.0z" clip-rule="nonzero"/></clipPath><g clip-path="url(#g36cfd3642ec_0_103.0)"><path fill="#ffffff" d="m0 0l960.0 0l0 540.0l-960.0 0z" fill-rule="evenodd"/><g filter="url(#shadowFilter-g36cfd3642ec_0_103.1)"><use xlink:href="#g36cfd3642ec_0_103.1" transform="matrix(1.0 0.0 0.0 1.0 -15.276019947506562 -10.696384514435719)"/></g><defs><filter id="shadowFilter-g36cfd3642ec_0_103.1" filterUnits="userSpaceOnUse"><feGaussianBlur in="SourceAlpha" stdDeviation="0.0" result="blur"/><feComponentTransfer in="blur" color-interpolation-filters="sRGB"><feFuncR type="linear" slope="0" intercept="0.007843138"/><feFuncG type="linear" slope="0" intercept="0.95686275"/><feFuncB type="linear" slope="0" intercept="0.8352941"/><feFuncA type="linear" slope="1.0" intercept="0"/></feComponentTransfer></filter></defs><g id="g36cfd3642ec_0_103.1"><path fill="#013a3b" d="m139.1482 131.308l0 0c0 -11.9188385 9.66214 -21.580963 21.580963 -21.580963l269.15305 0c5.723633 0 11.21283 2.2737045 15.26004 6.320915c4.0472107 4.0472183 6.320923 9.536423 6.320923 15.260048l0 299.45227c0 11.918823 -9.66214 21.580963 -21.580963 21.580963l-269.15305 0c-11.918823 0 -21.580963 -9.66214 -21.580963 -21.580963z" fill-rule="evenodd"/></g><path fill="#000000" fill-opacity="0.0" d="m170.10349 178.09831l228.8819 0l0 52.220474l-228.8819 0z" fill-rule="evenodd"/><path fill="#d0fdf2" d="m174.19724 219.47328l0 -30.171875l18.53125 0l0 3.375l-14.90625 0l0 9.984375l14.640625 0l0 3.375l-14.640625 0l0 13.4375l-3.625 0zm24.310837 0l0 -3.109375l4.90625 0l0 -15.15625l-4.390625 0l0 -3.109375l7.75 0l0 2.84375l0.515625 0q0.828125 -1.765625 2.34375 -2.609375q1.53125 -0.84375 3.4375 -0.84375q3.1875 0 5.1875 2.125q2.0 2.109375 2.140625 6.15625l-3.53125 0.515625q0 -2.96875 -1.421875 -4.28125q-1.421875 -1.3125 -3.5 -1.3125q-2.625 0 -3.90625 1.921875q-1.265625 1.90625 -1.265625 4.703125l0 9.046875l5.4375 0l0 3.109375l-13.703125 0zm37.529587 0.609375q-2.84375 0 -5.28125 -1.296875q-2.4375 -1.296875 -3.953125 -3.75q-1.5 -2.453125 -1.5 -5.984375l0 -0.53125q0 -3.484375 1.5 -5.953125q1.515625 -2.484375 3.953125 -3.78125q2.4375 -1.296875 5.28125 -1.296875q2.84375 0 5.28125 1.296875q2.4375 1.296875 3.9375 3.78125q1.515625 2.46875 1.515625 5.953125l0 0.53125q0 3.53125 -1.515625 5.984375q-1.5 2.453125 -3.9375 3.75q-2.4375 1.296875 -5.28125 1.296875zm0 -3.1875q2.0625 0 3.703125 -0.953125q1.640625 -0.953125 2.609375 -2.71875q0.96875 -1.765625 0.96875 -4.171875l0 -0.53125q0 -2.3125 -0.96875 -4.078125q-0.96875 -1.78125 -2.625 -2.765625q-1.65625 -0.984375 -3.6875 -0.984375q-2.03125 0 -3.6875 0.984375q-1.65625 0.984375 -2.625 2.765625q-0.96875 1.765625 -0.96875 4.078125l0 0.53125q0 2.40625 0.96875 4.171875q0.96875 1.765625 2.625 2.71875q1.65625 0.953125 3.6875 0.953125zm15.248337 2.578125l0 -21.375l3.375 0l0 2.328125l0.515625 0q0.546875 -1.515625 1.6249847 -2.21875q1.078125 -0.71875 2.546875 -0.71875q1.546875 0 2.5625 0.828125q1.015625 0.8125 1.40625 2.109375l0.515625 0q1.46875 -2.9375 4.65625 -2.9375q2.40625 0 3.71875 1.53125q1.328125 1.53125 1.328125 3.984375l0 16.46875l-3.375 0l0 -15.34375q0 -1.5 -0.6875 -2.46875q-0.6875 -0.96875 -2.1875 -0.96875q-1.421875 0 -2.3125 1.078125q-0.875 1.0625 -0.875 3.21875l0 14.484375l-3.375 0l0 -15.515625q0 -1.421875 -0.78125 -2.34375q-0.765625 -0.921875 -2.0625 -0.921875q-1.546875 0 -2.3906097 1.125q-0.828125 1.109375 -0.828125 2.921875l0 14.734375l-3.375 0z" fill-rule="nonzero"/><path fill="#000000" fill-opacity="0.0" d="m142.72357 258.60562l260.75592 0l0 150.14172l-260.75592 0z" fill-rule="evenodd"/><path fill="#02f4d5" d="m169.67068 277.47455l9.09375 0l-3.46875 -3.453125l2.875 0l4.625 4.515625l-4.625 4.515625l-2.875 0l3.46875 -3.46875l-9.09375 0l0 -2.109375z" fill-rule="nonzero"/><path fill="#d0fdf2" d="m218.28967 273.28705q2.421875 0 3.71875 1.28125q1.3125 1.28125 1.3125 3.796875q0 2.796875 -1.296875 4.1875q-1.28125 1.375 -3.734375 1.375l-3.71875 0l0 -10.640625l3.71875 0zm0.09375 9.453125q1.59375 0 2.5625 -1.046875q0.96875 -1.046875 0.96875 -3.140625q0 -2.109375 -0.890625 -3.09375q-0.875 -0.984375 -2.59375 -0.984375l-2.453125 0l0 8.265625l2.40625 0zm9.667389 -6.6875q1.65625 0 2.578125 1.1875q0.921875 1.1875 0.921875 3.0625l0 0.15625l-5.78125 0l0 0.09375q0 1.09375 0.640625 1.765625q0.640625 0.671875 1.765625 0.671875q0.84375 0 1.34375 -0.390625q0.5 -0.390625 0.65625 -1.125l1.25 0q-0.265625 1.28125 -1.140625 1.96875q-0.859375 0.671875 -2.15625 0.671875q-1.21875 0 -2.0625 -0.546875q-0.828125 -0.5625 -1.234375 -1.53125q-0.40625 -0.984375 -0.40625 -2.015625q0 -1.703125 1.03125 -2.828125q1.03125 -1.140625 2.59375 -1.140625zm-2.28125 3.28125l4.421875 0q-0.046875 -0.9375 -0.671875 -1.546875q-0.625 -0.625 -1.5625 -0.625q-0.875 0 -1.5 0.59375q-0.609375 0.578125 -0.6875 1.578125zm8.850037 -5.421875l0 2.3125l1.53125 0l0 1.109375l-1.53125 0l0 4.828125q0 0.578125 0.375 0.609375q0.390625 0.03125 0.796875 0.03125l0.359375 0l0 1.125l-1.046875 0q-1.046875 0 -1.40625 -0.375q-0.34375 -0.375 -0.34375 -1.234375l0 -4.984375l-1.328125 0l0 -1.109375l1.328125 0l0 -2.3125l1.265625 0zm5.9499817 2.140625q1.65625 0 2.578125 1.1875q0.921875 1.1875 0.921875 3.0625l0 0.15625l-5.78125 0l0 0.09375q0 1.09375 0.640625 1.765625q0.640625 0.671875 1.765625 0.671875q0.84375 0 1.34375 -0.390625q0.5 -0.390625 0.65625 -1.125l1.25 0q-0.265625 1.28125 -1.140625 1.96875q-0.859375 0.671875 -2.15625 0.671875q-1.21875 0 -2.0625 -0.546875q-0.828125 -0.5625 -1.234375 -1.53125q-0.40625 -0.984375 -0.40625 -2.015625q0 -1.703125 1.03125 -2.828125q1.03125 -1.140625 2.59375 -1.140625zm-2.28125 3.28125l4.421875 0q-0.046875 -0.9375 -0.671875 -1.546875q-0.625 -0.625 -1.5625 -0.625q-0.875 0 -1.5 0.59375q-0.609375 0.578125 -0.6875 1.578125zm10.303162 -3.28125q1.40625 0 2.28125 0.671875q0.890625 0.65625 1.046875 1.96875l-1.3125 0q-0.15625 -0.75 -0.65625 -1.140625q-0.5 -0.390625 -1.25 -0.390625q-1.1875 0 -1.796875 0.796875q-0.609375 0.78125 -0.609375 2.21875q0 1.28125 0.609375 2.046875q0.609375 0.765625 1.640625 0.765625q0.921875 0 1.453125 -0.5q0.546875 -0.5 0.671875 -1.375l1.296875 0q-0.21875 1.4375 -1.09375 2.21875q-0.875 0.78125 -2.3125 0.78125q-1.6875 0 -2.65625 -1.0625q-0.953125 -1.0625 -0.953125 -2.875q0 -1.890625 0.96875 -3.0q0.984375 -1.125 2.671875 -1.125zm6.5531616 -2.140625l0 2.3125l1.53125 0l0 1.109375l-1.53125 0l0 4.828125q0 0.578125 0.375 0.609375q0.390625 0.03125 0.796875 0.03125l0.359375 0l0 1.125l-1.046875 0q-1.046875 0 -1.40625 -0.375q-0.34375 -0.375 -0.34375 -1.234375l0 -4.984375l-1.328125 0l0 -1.109375l1.328125 0l0 -2.3125l1.265625 0zm4.272705 -0.625l0 1.546875l-1.265625 0l0 -1.546875l1.265625 0zm0 2.9375l0 7.703125l-1.265625 0l0 -7.703125l1.265625 0zm5.2960815 -0.171875q1.75 0 2.734375 1.125q1.0 1.125 1.0 2.90625q0 1.796875 -1.015625 2.921875q-1.015625 1.109375 -2.71875 1.109375q-1.671875 0 -2.71875 -1.09375q-1.03125 -1.109375 -1.03125 -2.9375q0 -1.828125 1.015625 -2.921875q1.015625 -1.109375 2.734375 -1.109375zm-2.40625 4.03125q0 1.328125 0.671875 2.125q0.6875 0.78125 1.734375 0.78125q1.046875 0 1.71875 -0.796875q0.6875 -0.796875 0.6875 -2.109375q0 -1.3125 -0.6875 -2.109375q-0.671875 -0.8125 -1.734375 -0.8125q-1.015625 0 -1.703125 0.796875q-0.6875 0.78125 -0.6875 2.125zm11.371948 -4.03125q1.390625 0 2.015625 0.71875q0.640625 0.703125 0.640625 2.03125l0 5.125l-1.28125 0l0 -5.265625q0 -0.65625 -0.421875 -1.078125q-0.40625 -0.421875 -1.15625 -0.421875q-1.0625 0 -1.671875 0.65625q-0.59375 0.65625 -0.59375 1.703125l0 4.40625l-1.265625 0l0 -7.703125l1.1875 0l0 1.21875l0.03125 0q0.421875 -0.71875 1.03125 -1.046875q0.625 -0.34375 1.484375 -0.34375zm8.649506 3.140625l0 1.1875l-4.296875 0l0 -1.1875l4.296875 0zm4.347809 -6.03125q0.15625 0 0.40625 0.046875q0.265625 0.03125 0.421875 0.078125l0 1.09375q-0.140625 -0.046875 -0.359375 -0.0625q-0.203125 -0.03125 -0.34375 -0.03125q-0.53125 0 -0.75 0.21875q-0.21875 0.21875 -0.21875 0.609375l0 1.109375l1.484375 0l0 1.109375l-1.484375 0l0 6.59375l-1.265625 0l0 -6.59375l-1.296875 0l0 -1.109375l1.296875 0l0 -1.203125q0 -0.859375 0.53125 -1.359375q0.53125 -0.5 1.578125 -0.5zm5.098236 2.890625q1.75 0 2.734375 1.125q1.0 1.125 1.0 2.90625q0 1.796875 -1.015625 2.921875q-1.015625 1.109375 -2.71875 1.109375q-1.671875 0 -2.71875 -1.09375q-1.03125 -1.109375 -1.03125 -2.9375q0 -1.828125 1.015625 -2.921875q1.015625 -1.109375 2.734375 -1.109375zm-2.40625 4.03125q0 1.328125 0.671875 2.125q0.6875 0.78125 1.734375 0.78125q1.046875 0 1.71875 -0.796875q0.6875 -0.796875 0.6875 -2.109375q0 -1.3125 -0.6875 -2.109375q-0.671875 -0.8125 -1.734375 -0.8125q-1.015625 0 -1.703125 0.796875q-0.6875 0.78125 -0.6875 2.125zm10.856323 -4.03125q1.40625 0 2.28125 0.671875q0.890625 0.65625 1.046875 1.96875l-1.3125 0q-0.15625 -0.75 -0.65625 -1.140625q-0.5 -0.390625 -1.25 -0.390625q-1.1875 0 -1.796875 0.796875q-0.609375 0.78125 -0.609375 2.21875q0 1.28125 0.609375 2.046875q0.609375 0.765625 1.640625 0.765625q0.921875 0 1.453125 -0.5q0.546875 -0.5 0.671875 -1.375l1.296875 0q-0.21875 1.4375 -1.09375 2.21875q-0.875 0.78125 -2.3125 0.78125q-1.6875 0 -2.65625 -1.0625q-0.953125 -1.0625 -0.953125 -2.875q0 -1.890625 0.96875 -3.0q0.984375 -1.125 2.671875 -1.125zm6.0531616 0.171875l0 5.25q0 0.65625 0.421875 1.09375q0.421875 0.421875 1.15625 0.421875q1.09375 0 1.671875 -0.65625q0.59375 -0.671875 0.59375 -1.703125l0 -4.40625l1.28125 0l0 7.703125l-1.203125 0l0 -1.21875l-0.03125 0q-0.421875 0.734375 -1.0625 1.078125q-0.625 0.328125 -1.4375 0.328125q-1.359375 0 -2.015625 -0.6875q-0.640625 -0.703125 -0.640625 -2.0625l0 -5.140625l1.265625 0zm9.587006 -0.171875q1.5625 0 2.3125 0.609375q0.765625 0.59375 0.828125 1.796875l-1.265625 0l0 -0.015625q-0.046875 -0.609375 -0.53125 -0.9375q-0.484375 -0.34375 -1.25 -0.34375q-0.765625 0 -1.203125 0.265625q-0.4375 0.25 -0.4375 0.71875q0 0.421875 0.390625 0.6875q0.390625 0.265625 1.171875 0.4375l1.1875 0.265625q1.125 0.25 1.703125 0.765625q0.59375 0.515625 0.59375 1.375q0 1.140625 -0.890625 1.796875q-0.875 0.640625 -2.390625 0.640625q-1.484375 0 -2.359375 -0.65625q-0.859375 -0.671875 -0.921875 -1.96875l1.28125 0q0.015625 0.734375 0.5625 1.125q0.546875 0.375 1.5 0.375q0.921875 0 1.390625 -0.28125q0.46875 -0.296875 0.46875 -0.875q0 -0.515625 -0.46875 -0.8125q-0.46875 -0.296875 -1.921875 -0.59375q-1.453125 -0.28125 -2.046875 -0.796875q-0.59375 -0.53125 -0.59375 -1.390625q0 -1.015625 0.8125 -1.59375q0.828125 -0.59375 2.078125 -0.59375zm8.09375 0q1.65625 0 2.578125 1.1875q0.921875 1.1875 0.921875 3.0625l0 0.15625l-5.78125 0l0 0.09375q0 1.09375 0.640625 1.765625q0.640625 0.671875 1.765625 0.671875q0.84375 0 1.34375 -0.390625q0.5 -0.390625 0.65625 -1.125l1.25 0q-0.265625 1.28125 -1.140625 1.96875q-0.859375 0.671875 -2.15625 0.671875q-1.21875 0 -2.0625 -0.546875q-0.828125 -0.5625 -1.234375 -1.53125q-0.40625 -0.984375 -0.40625 -2.015625q0 -1.703125 1.03125 -2.828125q1.03125 -1.140625 2.59375 -1.140625zm-2.28125 3.28125l4.421875 0q-0.046875 -0.9375 -0.671875 -1.546875q-0.625 -0.625 -1.5625 -0.625q-0.875 0 -1.5 0.59375q-0.609375 0.578125 -0.6875 1.578125zm13.975037 -6.046875l0 10.640625l-1.265625 0l0 -1.046875l-0.03125 0q-0.296875 0.609375 -0.953125 0.921875q-0.65625 0.3125 -1.515625 0.3125q-1.609375 0 -2.578125 -1.125q-0.96875 -1.125 -0.96875 -2.9375q0 -1.78125 0.9375 -2.890625q0.9375 -1.109375 2.578125 -1.109375q0.75 0 1.4375 0.3125q0.6875 0.296875 1.0625 0.875l0.03125 0l0 -3.953125l1.265625 0zm-5.96875 6.84375q0 1.25 0.640625 2.0625q0.65625 0.796875 1.75 0.796875q1.125 0 1.734375 -0.796875q0.609375 -0.8125 0.609375 -2.109375q0 -1.3125 -0.640625 -2.109375q-0.625 -0.8125 -1.796875 -0.8125q-1.09375 0 -1.703125 0.796875q-0.59375 0.796875 -0.59375 2.171875z" fill-rule="nonzero"/><path fill="#02f4d5" d="m169.67068 313.10016l9.09375 0l-3.46875 -3.453125l2.875 0l4.625 4.515625l-4.625 4.515625l-2.875 0l3.46875 -3.46875l-9.09375 0l0 -2.109375z" fill-rule="nonzero"/><path fill="#d0fdf2" d="m219.02405 308.91266l4.15625 10.640625l-1.578125 0l-1.15625 -3.203125l-4.5 0l-1.1875 3.203125l-1.46875 0l4.15625 -10.640625l1.578125 0zm-0.828125 1.28125l-1.796875 4.96875l3.59375 0l-1.765625 -4.96875l-0.03125 0zm7.158493 -1.28125l0 10.640625l-1.265625 0l0 -10.640625l1.265625 0zm5.1710663 2.765625q1.65625 0 2.578125 1.1875q0.921875 1.1875 0.921875 3.0625l0 0.15625l-5.78125 0l0 0.09375q0 1.09375 0.640625 1.765625q0.640625 0.671875 1.765625 0.671875q0.84375 0 1.34375 -0.390625q0.5 -0.390625 0.65625 -1.125l1.25 0q-0.265625 1.28125 -1.140625 1.96875q-0.859375 0.671875 -2.15625 0.671875q-1.21875 0 -2.0625 -0.546875q-0.828125 -0.5625 -1.234375 -1.53125q-0.40625 -0.984375 -0.40625 -2.015625q0 -1.703125 1.03125 -2.828125q1.03125 -1.140625 2.59375 -1.140625zm-2.28125 3.28125l4.421875 0q-0.046875 -0.9375 -0.671875 -1.546875q-0.625 -0.625 -1.5625 -0.625q-0.875 0 -1.5 0.59375q-0.609375 0.578125 -0.6875 1.578125zm10.928162 -3.296875q0.03125 0 0.0625 0q0.046875 0 0.109375 0.015625l0 1.328125q-1.4375 0 -2.125 0.765625q-0.671875 0.75 -0.671875 2.328125l0 3.453125l-1.265625 0l0 -7.703125l1.203125 0l0 1.625l0.015625 0q0.453125 -0.921875 1.09375 -1.359375q0.65625 -0.453125 1.578125 -0.453125zm2.9586182 -2.125l0 2.3125l1.53125 0l0 1.109375l-1.53125 0l0 4.828125q0 0.578125 0.375 0.609375q0.390625 0.03125 0.796875 0.03125l0.359375 0l0 1.125l-1.046875 0q-1.046875 0 -1.40625 -0.375q-0.34375 -0.375 -0.34375 -1.234375l0 -4.984375l-1.328125 0l0 -1.109375l1.328125 0l0 -2.3125l1.265625 0zm10.211029 2.140625q0.796875 0 1.390625 0.34375q0.59375 0.34375 0.90625 0.9375l0.015625 0l0 -1.109375l1.1875 0l0 7.125q0 1.8125 -0.875 2.75q-0.859375 0.953125 -2.6875 0.953125q-1.328125 0 -2.234375 -0.578125q-0.90625 -0.578125 -0.953125 -1.6875l1.265625 0q0.015625 0.59375 0.609375 0.921875q0.609375 0.34375 1.375 0.34375q1.125 0 1.71875 -0.75q0.59375 -0.734375 0.59375 -2.203125l0 -0.484375l-0.015625 0q-0.3125 0.640625 -0.953125 1.03125q-0.640625 0.375 -1.46875 0.375q-1.5625 0 -2.5 -1.078125q-0.9375 -1.078125 -0.9375 -2.828125q0 -1.765625 0.9375 -2.90625q0.9375 -1.15625 2.625 -1.15625zm-2.21875 3.90625q0 1.375 0.578125 2.15625q0.578125 0.78125 1.59375 0.78125q1.0625 0 1.671875 -0.8125q0.625 -0.8125 0.625 -2.171875q0 -1.234375 -0.578125 -1.984375q-0.5625 -0.765625 -1.625 -0.765625q-1.0625 0 -1.671875 0.765625q-0.59375 0.765625 -0.59375 2.03125zm10.840698 -3.90625q1.65625 0 2.578125 1.1875q0.921875 1.1875 0.921875 3.0625l0 0.15625l-5.78125 0l0 0.09375q0 1.09375 0.640625 1.765625q0.640625 0.671875 1.765625 0.671875q0.84375 0 1.34375 -0.390625q0.5 -0.390625 0.65625 -1.125l1.25 0q-0.265625 1.28125 -1.140625 1.96875q-0.859375 0.671875 -2.15625 0.671875q-1.21875 0 -2.0625 -0.546875q-0.828125 -0.5625 -1.234375 -1.53125q-0.40625 -0.984375 -0.40625 -2.015625q0 -1.703125 1.03125 -2.828125q1.03125 -1.140625 2.59375 -1.140625zm-2.28125 3.28125l4.421875 0q-0.046875 -0.9375 -0.671875 -1.546875q-0.625 -0.625 -1.5625 -0.625q-0.875 0 -1.5 0.59375q-0.609375 0.578125 -0.6875 1.578125zm10.818787 -3.28125q1.390625 0 2.015625 0.71875q0.640625 0.703125 0.640625 2.03125l0 5.125l-1.28125 0l0 -5.265625q0 -0.65625 -0.421875 -1.078125q-0.40625 -0.421875 -1.15625 -0.421875q-1.0625 0 -1.671875 0.65625q-0.59375 0.65625 -0.59375 1.703125l0 4.40625l-1.265625 0l0 -7.703125l1.1875 0l0 1.21875l0.03125 0q0.421875 -0.71875 1.03125 -1.046875q0.625 -0.34375 1.484375 -0.34375zm7.7588806 0q1.65625 0 2.578125 1.1875q0.921875 1.1875 0.921875 3.0625l0 0.15625l-5.78125 0l0 0.09375q0 1.09375 0.640625 1.765625q0.640625 0.671875 1.765625 0.671875q0.84375 0 1.34375 -0.390625q0.5 -0.390625 0.65625 -1.125l1.25 0q-0.265625 1.28125 -1.140625 1.96875q-0.859375 0.671875 -2.15625 0.671875q-1.21875 0 -2.0625 -0.546875q-0.828125 -0.5625 -1.234375 -1.53125q-0.40625 -0.984375 -0.40625 -2.015625q0 -1.703125 1.03125 -2.828125q1.03125 -1.140625 2.59375 -1.140625zm-2.28125 3.28125l4.421875 0q-0.046875 -0.9375 -0.671875 -1.546875q-0.625 -0.625 -1.5625 -0.625q-0.875 0 -1.5 0.59375q-0.609375 0.578125 -0.6875 1.578125zm10.928162 -3.296875q0.03125 0 0.0625 0q0.046875 0 0.109375 0.015625l0 1.328125q-1.4375 0 -2.125 0.765625q-0.671875 0.75 -0.671875 2.328125l0 3.453125l-1.265625 0l0 -7.703125l1.203125 0l0 1.625l0.015625 0q0.453125 -0.921875 1.09375 -1.359375q0.65625 -0.453125 1.578125 -0.453125zm3.919464 0.015625q1.5625 0 2.21875 0.5625q0.671875 0.546875 0.671875 1.484375q0 4.015625 0 4.453125q0 0.4375 0.390625 0.4375q0.09375 0 0.1875 -0.015625q0.109375 -0.03125 0.203125 -0.0625l0 0.984375q-0.171875 0.109375 -0.40625 0.15625q-0.234375 0.0625 -0.5 0.0625q-0.515625 0 -0.796875 -0.296875q-0.28125 -0.296875 -0.28125 -0.90625q-0.5 0.59375 -1.1875 0.90625q-0.671875 0.296875 -1.515625 0.296875q-1.203125 0 -1.890625 -0.5625q-0.671875 -0.578125 -0.671875 -1.609375q0 -1.03125 0.65625 -1.640625q0.671875 -0.609375 3.125 -0.921875q0.828125 -0.109375 1.125 -0.3125q0.296875 -0.21875 0.296875 -0.640625q0 -0.640625 -0.421875 -0.953125q-0.40625 -0.3125 -1.296875 -0.3125q-0.9375 0 -1.40625 0.359375q-0.46875 0.34375 -0.5 1.09375l-1.265625 0q0.046875 -1.28125 0.890625 -1.921875q0.84375 -0.640625 2.375 -0.640625zm-2.234375 5.796875q0 0.546875 0.390625 0.84375q0.390625 0.296875 1.109375 0.296875q1.0625 0 1.703125 -0.53125q0.640625 -0.53125 0.640625 -1.1875l0 -1.328125q-0.3125 0.234375 -0.828125 0.3125q-0.515625 0.078125 -1.359375 0.1875q-0.84375 0.125 -1.25 0.46875q-0.40625 0.328125 -0.40625 0.9375zm8.850037 -7.9375l0 2.3125l1.53125 0l0 1.109375l-1.53125 0l0 4.828125q0 0.578125 0.375 0.609375q0.390625 0.03125 0.796875 0.03125l0.359375 0l0 1.125l-1.046875 0q-1.046875 0 -1.40625 -0.375q-0.34375 -0.375 -0.34375 -1.234375l0 -4.984375l-1.328125 0l0 -1.109375l1.328125 0l0 -2.3125l1.265625 0zm4.272705 -0.625l0 1.546875l-1.265625 0l0 -1.546875l1.265625 0zm0 2.9375l0 7.703125l-1.265625 0l0 -7.703125l1.265625 0zm5.2960815 -0.171875q1.75 0 2.734375 1.125q1.0 1.125 1.0 2.90625q0 1.796875 -1.015625 2.921875q-1.015625 1.109375 -2.71875 1.109375q-1.671875 0 -2.71875 -1.09375q-1.03125 -1.109375 -1.03125 -2.9375q0 -1.828125 1.015625 -2.921875q1.015625 -1.109375 2.734375 -1.109375zm-2.40625 4.03125q0 1.328125 0.671875 2.125q0.6875 0.78125 1.734375 0.78125q1.046875 0 1.71875 -0.796875q0.6875 -0.796875 0.6875 -2.109375q0 -1.3125 -0.6875 -2.109375q-0.671875 -0.8125 -1.734375 -0.8125q-1.015625 0 -1.703125 0.796875q-0.6875 0.78125 -0.6875 2.125zm11.371948 -4.03125q1.390625 0 2.015625 0.71875q0.640625 0.703125 0.640625 2.03125l0 5.125l-1.28125 0l0 -5.265625q0 -0.65625 -0.421875 -1.078125q-0.40625 -0.421875 -1.15625 -0.421875q-1.0625 0 -1.671875 0.65625q-0.59375 0.65625 -0.59375 1.703125l0 4.40625l-1.265625 0l0 -7.703125l1.1875 0l0 1.21875l0.03125 0q0.421875 -0.71875 1.03125 -1.046875q0.625 -0.34375 1.484375 -0.34375z" fill-rule="nonzero"/><path fill="#02f4d5" d="m169.67068 348.72577l9.09375 0l-3.46875 -3.453125l2.875 0l4.625 4.515625l-4.625 4.515625l-2.875 0l3.46875 -3.46875l-9.09375 0l0 -2.109375z" fill-rule="nonzero"/><path fill="#d0fdf2" d="m219.28967 344.53827q1.46875 0 2.328125 0.796875q0.875 0.796875 0.875 2.34375q0 1.5625 -0.875 2.359375q-0.859375 0.78125 -2.21875 0.78125l-3.421875 0l0 4.359375l-1.40625 0l0 -10.640625l4.71875 0zm-0.390625 5.09375q1.015625 0 1.59375 -0.46875q0.578125 -0.484375 0.578125 -1.484375q0 -0.984375 -0.578125 -1.46875q-0.5625 -0.484375 -1.671875 -0.484375l-2.84375 0l0 3.90625l2.921875 0zm7.813263 -2.328125q1.75 0 2.734375 1.125q1.0 1.125 1.0 2.90625q0 1.796875 -1.015625 2.921875q-1.015625 1.109375 -2.71875 1.109375q-1.671875 0 -2.71875 -1.09375q-1.03125 -1.109375 -1.03125 -2.9375q0 -1.828125 1.015625 -2.921875q1.015625 -1.109375 2.734375 -1.109375zm-2.40625 4.03125q0 1.328125 0.671875 2.125q0.6875 0.78125 1.734375 0.78125q1.046875 0 1.71875 -0.796875q0.6875 -0.796875 0.6875 -2.109375q0 -1.3125 -0.6875 -2.109375q-0.671875 -0.8125 -1.734375 -0.8125q-1.015625 0 -1.703125 0.796875q-0.6875 0.78125 -0.6875 2.125zm10.200073 -4.03125q1.5625 0 2.3125 0.609375q0.765625 0.59375 0.828125 1.796875l-1.265625 0l0 -0.015625q-0.046875 -0.609375 -0.53125 -0.9375q-0.484375 -0.34375 -1.25 -0.34375q-0.765625 0 -1.203125 0.265625q-0.4375 0.25 -0.4375 0.71875q0 0.421875 0.390625 0.6875q0.390625 0.265625 1.171875 0.4375l1.1875 0.265625q1.125 0.25 1.703125 0.765625q0.59375 0.515625 0.59375 1.375q0 1.140625 -0.890625 1.796875q-0.875 0.640625 -2.390625 0.640625q-1.484375 0 -2.359375 -0.65625q-0.859375 -0.671875 -0.921875 -1.96875l1.28125 0q0.015625 0.734375 0.5625 1.125q0.546875 0.375 1.5 0.375q0.921875 0 1.390625 -0.28125q0.46875 -0.296875 0.46875 -0.875q0 -0.515625 -0.46875 -0.8125q-0.46875 -0.296875 -1.921875 -0.59375q-1.453125 -0.28125 -2.046875 -0.796875q-0.59375 -0.53125 -0.59375 -1.390625q0 -1.015625 0.8125 -1.59375q0.828125 -0.59375 2.078125 -0.59375zm6.65625 -2.140625l0 2.3125l1.53125 0l0 1.109375l-1.53125 0l0 4.828125q0 0.578125 0.375 0.609375q0.390625 0.03125 0.796875 0.03125l0.359375 0l0 1.125l-1.046875 0q-1.046875 0 -1.40625 -0.375q-0.34375 -0.375 -0.34375 -1.234375l0 -4.984375l-1.328125 0l0 -1.109375l1.328125 0l0 -2.3125l1.265625 0zm7.0227203 5.28125l0 1.1875l-4.296875 0l0 -1.1875l4.296875 0zm3.0196686 -5.90625l0 3.984375l0.03125 0q0.296875 -0.59375 0.921875 -0.90625q0.640625 -0.3125 1.53125 -0.3125q1.65625 0 2.609375 1.140625q0.953125 1.125 0.953125 2.90625q0 1.796875 -0.953125 2.90625q-0.953125 1.109375 -2.5625 1.109375q-0.734375 0 -1.421875 -0.296875q-0.6875 -0.3125 -1.078125 -0.921875l-0.03125 0l0 1.03125l-1.265625 0l0 -10.640625l1.265625 0zm-0.046875 6.78125q0 1.34375 0.640625 2.140625q0.65625 0.78125 1.796875 0.78125q1.09375 0 1.6875 -0.78125q0.609375 -0.796875 0.609375 -2.203125q0 -1.234375 -0.640625 -2.03125q-0.625 -0.8125 -1.75 -0.8125q-1.109375 0 -1.734375 0.8125q-0.609375 0.8125 -0.609375 2.09375zm11.414154 -4.03125q0.03125 0 0.0625 0q0.046875 0 0.109375 0.015625l0 1.328125q-1.4375 0 -2.125 0.765625q-0.671875 0.75 -0.671875 2.328125l0 3.453125l-1.265625 0l0 -7.703125l1.203125 0l0 1.625l0.015625 0q0.453125 -0.921875 1.09375 -1.359375q0.65625 -0.453125 1.578125 -0.453125zm4.0537415 0.015625q1.65625 0 2.578125 1.1875q0.921875 1.1875 0.921875 3.0625l0 0.15625l-5.78125 0l0 0.09375q0 1.09375 0.640625 1.765625q0.640625 0.671875 1.765625 0.671875q0.84375 0 1.34375 -0.390625q0.5 -0.390625 0.65625 -1.125l1.25 0q-0.265625 1.28125 -1.140625 1.96875q-0.859375 0.671875 -2.15625 0.671875q-1.21875 0 -2.0625 -0.546875q-0.828125 -0.5625 -1.234375 -1.53125q-0.40625 -0.984375 -0.40625 -2.015625q0 -1.703125 1.03125 -2.828125q1.03125 -1.140625 2.59375 -1.140625zm-2.28125 3.28125l4.421875 0q-0.046875 -0.9375 -0.671875 -1.546875q-0.625 -0.625 -1.5625 -0.625q-0.875 0 -1.5 0.59375q-0.609375 0.578125 -0.6875 1.578125zm10.240662 -3.28125q1.5625 0 2.21875 0.5625q0.671875 0.546875 0.671875 1.484375q0 4.015625 0 4.453125q0 0.4375 0.390625 0.4375q0.09375 0 0.1875 -0.015625q0.109375 -0.03125 0.203125 -0.0625l0 0.984375q-0.171875 0.109375 -0.40625 0.15625q-0.234375 0.0625 -0.5 0.0625q-0.515625 0 -0.796875 -0.296875q-0.28125 -0.296875 -0.28125 -0.90625q-0.5 0.59375 -1.1875 0.90625q-0.671875 0.296875 -1.515625 0.296875q-1.203125 0 -1.890625 -0.5625q-0.671875 -0.578125 -0.671875 -1.609375q0 -1.03125 0.65625 -1.640625q0.671875 -0.609375 3.125 -0.921875q0.828125 -0.109375 1.125 -0.3125q0.296875 -0.21875 0.296875 -0.640625q0 -0.640625 -0.421875 -0.953125q-0.40625 -0.3125 -1.296875 -0.3125q-0.9375 0 -1.40625 0.359375q-0.46875 0.34375 -0.5 1.09375l-1.265625 0q0.046875 -1.28125 0.890625 -1.921875q0.84375 -0.640625 2.375 -0.640625zm-2.234375 5.796875q0 0.546875 0.390625 0.84375q0.390625 0.296875 1.109375 0.296875q1.0625 0 1.703125 -0.53125q0.640625 -0.53125 0.640625 -1.1875l0 -1.328125q-0.3125 0.234375 -0.828125 0.3125q-0.515625 0.078125 -1.359375 0.1875q-0.84375 0.125 -1.25 0.46875q-0.40625 0.328125 -0.40625 0.9375zm10.303162 -5.796875q1.40625 0 2.28125 0.671875q0.890625 0.65625 1.046875 1.96875l-1.3125 0q-0.15625 -0.75 -0.65625 -1.140625q-0.5 -0.390625 -1.25 -0.390625q-1.1875 0 -1.796875 0.796875q-0.609375 0.78125 -0.609375 2.21875q0 1.28125 0.609375 2.046875q0.609375 0.765625 1.640625 0.765625q0.921875 0 1.453125 -0.5q0.546875 -0.5 0.671875 -1.375l1.296875 0q-0.21875 1.4375 -1.09375 2.21875q-0.875 0.78125 -2.3125 0.78125q-1.6875 0 -2.65625 -1.0625q-0.953125 -1.0625 -0.953125 -2.875q0 -1.890625 0.96875 -3.0q0.984375 -1.125 2.671875 -1.125zm6.0531616 -2.765625l0 4.0625l0.03125 0q0.28125 -0.609375 0.9375 -0.953125q0.65625 -0.34375 1.5 -0.34375q1.390625 0 2.015625 0.71875q0.640625 0.703125 0.640625 2.03125l0 5.125l-1.28125 0l0 -5.265625q0 -0.65625 -0.421875 -1.078125q-0.40625 -0.421875 -1.15625 -0.421875q-1.0625 0 -1.671875 0.65625q-0.59375 0.65625 -0.59375 1.703125l0 4.40625l-1.265625 0l0 -10.640625l1.265625 0zm15.009705 2.75q0.03125 0 0.0625 0q0.046875 0 0.109375 0.015625l0 1.328125q-1.4375 0 -2.125 0.765625q-0.671875 0.75 -0.671875 2.328125l0 3.453125l-1.265625 0l0 -7.703125l1.203125 0l0 1.625l0.015625 0q0.453125 -0.921875 1.09375 -1.359375q0.65625 -0.453125 1.578125 -0.453125zm4.0537415 0.015625q1.65625 0 2.578125 1.1875q0.921875 1.1875 0.921875 3.0625l0 0.15625l-5.78125 0l0 0.09375q0 1.09375 0.640625 1.765625q0.640625 0.671875 1.765625 0.671875q0.84375 0 1.34375 -0.390625q0.5 -0.390625 0.65625 -1.125l1.25 0q-0.265625 1.28125 -1.140625 1.96875q-0.859375 0.671875 -2.15625 0.671875q-1.21875 0 -2.0625 -0.546875q-0.828125 -0.5625 -1.234375 -1.53125q-0.40625 -0.984375 -0.40625 -2.015625q0 -1.703125 1.03125 -2.828125q1.03125 -1.140625 2.59375 -1.140625zm-2.28125 3.28125l4.421875 0q-0.046875 -0.9375 -0.671875 -1.546875q-0.625 -0.625 -1.5625 -0.625q-0.875 0 -1.5 0.59375q-0.609375 0.578125 -0.6875 1.578125zm9.646912 -3.28125q1.5625 0 2.3125 0.609375q0.765625 0.59375 0.828125 1.796875l-1.265625 0l0 -0.015625q-0.046875 -0.609375 -0.53125 -0.9375q-0.484375 -0.34375 -1.25 -0.34375q-0.765625 0 -1.203125 0.265625q-0.4375 0.25 -0.4375 0.71875q0 0.421875 0.390625 0.6875q0.390625 0.265625 1.171875 0.4375l1.1875 0.265625q1.125 0.25 1.703125 0.765625q0.59375 0.515625 0.59375 1.375q0 1.140625 -0.890625 1.796875q-0.875 0.640625 -2.390625 0.640625q-1.484375 0 -2.359375 -0.65625q-0.859375 -0.671875 -0.921875 -1.96875l1.28125 0q0.015625 0.734375 0.5625 1.125q0.546875 0.375 1.5 0.375q0.921875 0 1.390625 -0.28125q0.46875 -0.296875 0.46875 -0.875q0 -0.515625 -0.46875 -0.8125q-0.46875 -0.296875 -1.921875 -0.59375q-1.453125 -0.28125 -2.046875 -0.796875q-0.59375 -0.53125 -0.59375 -1.390625q0 -1.015625 0.8125 -1.59375q0.828125 -0.59375 2.078125 -0.59375zm8.6875 0q1.65625 0 2.609375 1.140625q0.953125 1.125 0.953125 2.90625q0 1.796875 -0.953125 2.90625q-0.953125 1.109375 -2.5625 1.109375q-0.734375 0 -1.421875 -0.296875q-0.6875 -0.3125 -1.078125 -0.921875l-0.03125 0l0 3.984375l-1.265625 0l0 -10.65625l1.265625 0l0 1.046875l0.03125 0q0.296875 -0.59375 0.9375 -0.90625q0.640625 -0.3125 1.515625 -0.3125zm-2.53125 4.015625q0 1.34375 0.640625 2.140625q0.65625 0.78125 1.796875 0.78125q1.09375 0 1.6875 -0.78125q0.609375 -0.796875 0.609375 -2.203125q0 -1.234375 -0.640625 -2.03125q-0.625 -0.8125 -1.75 -0.8125q-1.109375 0 -1.734375 0.8125q-0.609375 0.8125 -0.609375 2.09375zm10.898529 -4.015625q1.75 0 2.734375 1.125q1.0 1.125 1.0 2.90625q0 1.796875 -1.015625 2.921875q-1.015625 1.109375 -2.71875 1.109375q-1.671875 0 -2.71875 -1.09375q-1.03125 -1.109375 -1.03125 -2.9375q0 -1.828125 1.015625 -2.921875q1.015625 -1.109375 2.734375 -1.109375zm-2.40625 4.03125q0 1.328125 0.671875 2.125q0.6875 0.78125 1.734375 0.78125q1.046875 0 1.71875 -0.796875q0.6875 -0.796875 0.6875 -2.109375q0 -1.3125 -0.6875 -2.109375q-0.671875 -0.8125 -1.734375 -0.8125q-1.015625 0 -1.703125 0.796875q-0.6875 0.78125 -0.6875 2.125zm11.371948 -4.03125q1.390625 0 2.015625 0.71875q0.640625 0.703125 0.640625 2.03125l0 5.125l-1.28125 0l0 -5.265625q0 -0.65625 -0.421875 -1.078125q-0.40625 -0.421875 -1.15625 -0.421875q-1.0625 0 -1.671875 0.65625q-0.59375 0.65625 -0.59375 1.703125l0 4.40625l-1.265625 0l0 -7.703125l1.1875 0l0 1.21875l0.03125 0q0.421875 -0.71875 1.03125 -1.046875q0.625 -0.34375 1.484375 -0.34375zm7.1182556 0q1.5625 0 2.3125 0.609375q0.765625 0.59375 0.828125 1.796875l-1.265625 0l0 -0.015625q-0.046875 -0.609375 -0.53125 -0.9375q-0.484375 -0.34375 -1.25 -0.34375q-0.765625 0 -1.203125 0.265625q-0.4375 0.25 -0.4375 0.71875q0 0.421875 0.390625 0.6875q0.390625 0.265625 1.171875 0.4375l1.1875 0.265625q1.125 0.25 1.703125 0.765625q0.59375 0.515625 0.59375 1.375q0 1.140625 -0.890625 1.796875q-0.875 0.640625 -2.390625 0.640625q-1.484375 0 -2.359375 -0.65625q-0.859375 -0.671875 -0.921875 -1.96875l1.28125 0q0.015625 0.734375 0.5625 1.125q0.546875 0.375 1.5 0.375q0.921875 0 1.390625 -0.28125q0.46875 -0.296875 0.46875 -0.875q0 -0.515625 -0.46875 -0.8125q-0.46875 -0.296875 -1.921875 -0.59375q-1.453125 -0.28125 -2.046875 -0.796875q-0.59375 -0.53125 -0.59375 -1.390625q0 -1.015625 0.8125 -1.59375q0.828125 -0.59375 2.078125 -0.59375zm8.09375 0q1.65625 0 2.578125 1.1875q0.921875 1.1875 0.921875 3.0625l0 0.15625l-5.78125 0l0 0.09375q0 1.09375 0.640625 1.765625q0.640625 0.671875 1.765625 0.671875q0.84375 0 1.34375 -0.390625q0.5 -0.390625 0.65625 -1.125l1.25 0q-0.265625 1.28125 -1.140625 1.96875q-0.859375 0.671875 -2.15625 0.671875q-1.21875 0 -2.0625 -0.546875q-0.828125 -0.5625 -1.234375 -1.53125q-0.40625 -0.984375 -0.40625 -2.015625q0 -1.703125 1.03125 -2.828125q1.03125 -1.140625 2.59375 -1.140625zm-2.28125 3.28125l4.421875 0q-0.046875 -0.9375 -0.671875 -1.546875q-0.625 -0.625 -1.5625 -0.625q-0.875 0 -1.5 0.59375q-0.609375 0.578125 -0.6875 1.578125z" fill-rule="nonzero"/><path fill="#02f4d5" d="m169.67068 384.3514l9.09375 0l-3.46875 -3.453125l2.875 0l4.625 4.515625l-4.625 4.515625l-2.875 0l3.46875 -3.46875l-9.09375 0l0 -2.109375z" fill-rule="nonzero"/><path fill="#d0fdf2" d="m219.63342 380.1639q1.390625 0 2.28125 0.734375q0.890625 0.734375 0.890625 2.046875q0 1.046875 -0.46875 1.75q-0.453125 0.6875 -1.375 0.953125l0 0.03125q0.796875 0.15625 1.171875 0.75q0.390625 0.59375 0.453125 2.03125q0.03125 0.9375 0.171875 1.46875q0.140625 0.53125 0.421875 0.875l-1.578125 0q-0.140625 -0.171875 -0.1875 -0.34375q-0.03125 -0.171875 -0.0625 -0.46875l-0.0625 -1.171875q-0.015625 -0.828125 -0.359375 -1.671875q-0.328125 -0.859375 -1.453125 -0.890625l-3.5 0l0 4.546875l-1.40625 0l0 -10.640625l5.0625 0zm-0.625 4.90625q1.171875 0 1.765625 -0.453125q0.609375 -0.46875 0.609375 -1.453125q0 -0.859375 -0.484375 -1.328125q-0.46875 -0.484375 -1.34375 -0.484375l-3.578125 0l0 3.71875l3.03125 0zm8.75853 -2.140625q1.65625 0 2.578125 1.1875q0.921875 1.1875 0.921875 3.0625l0 0.15625l-5.78125 0l0 0.09375q0 1.09375 0.640625 1.765625q0.640625 0.671875 1.765625 0.671875q0.84375 0 1.34375 -0.390625q0.5 -0.390625 0.65625 -1.125l1.25 0q-0.265625 1.28125 -1.140625 1.96875q-0.859375 0.671875 -2.15625 0.671875q-1.21875 0 -2.0625 -0.546875q-0.828125 -0.5625 -1.234375 -1.53125q-0.40625 -0.984375 -0.40625 -2.015625q0 -1.703125 1.03125 -2.828125q1.03125 -1.140625 2.59375 -1.140625zm-2.28125 3.28125l4.421875 0q-0.046875 -0.9375 -0.671875 -1.546875q-0.625 -0.625 -1.5625 -0.625q-0.875 0 -1.5 0.59375q-0.609375 0.578125 -0.6875 1.578125zm10.240662 -3.28125q1.5625 0 2.21875 0.5625q0.671875 0.546875 0.671875 1.484375q0 4.015625 0 4.453125q0 0.4375 0.390625 0.4375q0.09375 0 0.1875 -0.015625q0.109375 -0.03125 0.203125 -0.0625l0 0.984375q-0.171875 0.109375 -0.40625 0.15625q-0.234375 0.0625 -0.5 0.0625q-0.515625 0 -0.796875 -0.296875q-0.28125 -0.296875 -0.28125 -0.90625q-0.5 0.59375 -1.1875 0.90625q-0.671875 0.296875 -1.515625 0.296875q-1.203125 0 -1.890625 -0.5625q-0.671875 -0.578125 -0.671875 -1.609375q0 -1.03125 0.65625 -1.640625q0.671875 -0.609375 3.125 -0.921875q0.828125 -0.109375 1.125 -0.3125q0.296875 -0.21875 0.296875 -0.640625q0 -0.640625 -0.421875 -0.953125q-0.40625 -0.3125 -1.296875 -0.3125q-0.9375 0 -1.40625 0.359375q-0.46875 0.34375 -0.5 1.09375l-1.265625 0q0.046875 -1.28125 0.890625 -1.921875q0.84375 -0.640625 2.375 -0.640625zm-2.234375 5.796875q0 0.546875 0.390625 0.84375q0.390625 0.296875 1.109375 0.296875q1.0625 0 1.703125 -0.53125q0.640625 -0.53125 0.640625 -1.1875l0 -1.328125q-0.3125 0.234375 -0.828125 0.3125q-0.515625 0.078125 -1.359375 0.1875q-0.84375 0.125 -1.25 0.46875q-0.40625 0.328125 -0.40625 0.9375zm10.303162 -5.796875q1.40625 0 2.28125 0.671875q0.890625 0.65625 1.046875 1.96875l-1.3125 0q-0.15625 -0.75 -0.65625 -1.140625q-0.5 -0.390625 -1.25 -0.390625q-1.1875 0 -1.796875 0.796875q-0.609375 0.78125 -0.609375 2.21875q0 1.28125 0.609375 2.046875q0.609375 0.765625 1.640625 0.765625q0.921875 0 1.453125 -0.5q0.546875 -0.5 0.671875 -1.375l1.296875 0q-0.21875 1.4375 -1.09375 2.21875q-0.875 0.78125 -2.3125 0.78125q-1.6875 0 -2.65625 -1.0625q-0.953125 -1.0625 -0.953125 -2.875q0 -1.890625 0.96875 -3.0q0.984375 -1.125 2.671875 -1.125zm6.5531616 -2.140625l0 2.3125l1.53125 0l0 1.109375l-1.53125 0l0 4.828125q0 0.578125 0.375 0.609375q0.390625 0.03125 0.796875 0.03125l0.359375 0l0 1.125l-1.046875 0q-1.046875 0 -1.40625 -0.375q-0.34375 -0.375 -0.34375 -1.234375l0 -4.984375l-1.328125 0l0 -1.109375l1.328125 0l0 -2.3125l1.265625 0zm4.2727203 -0.625l0 1.546875l-1.265625 0l0 -1.546875l1.265625 0zm0 2.9375l0 7.703125l-1.265625 0l0 -7.703125l1.265625 0zm2.639801 0l2.15625 6.421875l0.03125 0l2.109375 -6.421875l1.3125 0l-2.8125 7.703125l-1.34375 0l-2.8593597 -7.703125l1.4062347 0zm9.984375 -0.171875q1.65625 0 2.578125 1.1875q0.921875 1.1875 0.921875 3.0625l0 0.15625l-5.78125 0l0 0.09375q0 1.09375 0.640625 1.765625q0.640625 0.671875 1.765625 0.671875q0.84375 0 1.34375 -0.390625q0.5 -0.390625 0.65625 -1.125l1.25 0q-0.265625 1.28125 -1.140625 1.96875q-0.859375 0.671875 -2.15625 0.671875q-1.21875 0 -2.0625 -0.546875q-0.828125 -0.5625 -1.234375 -1.53125q-0.40625 -0.984375 -0.40625 -2.015625q0 -1.703125 1.03125 -2.828125q1.03125 -1.140625 2.59375 -1.140625zm-2.28125 3.28125l4.421875 0q-0.046875 -0.9375 -0.671875 -1.546875q-0.625 -0.625 -1.5625 -0.625q-0.875 0 -1.5 0.59375q-0.609375 0.578125 -0.6875 1.578125zm14.444611 -3.28125q1.40625 0 2.28125 0.671875q0.890625 0.65625 1.046875 1.96875l-1.3125 0q-0.15625 -0.75 -0.65625 -1.140625q-0.5 -0.390625 -1.25 -0.390625q-1.1875 0 -1.796875 0.796875q-0.609375 0.78125 -0.609375 2.21875q0 1.28125 0.609375 2.046875q0.609375 0.765625 1.640625 0.765625q0.921875 0 1.453125 -0.5q0.546875 -0.5 0.671875 -1.375l1.296875 0q-0.21875 1.4375 -1.09375 2.21875q-0.875 0.78125 -2.3125 0.78125q-1.6875 0 -2.65625 -1.0625q-0.953125 -1.0625 -0.953125 -2.875q0 -1.890625 0.96875 -3.0q0.984375 -1.125 2.671875 -1.125zm8.115662 0q1.75 0 2.734375 1.125q1.0 1.125 1.0 2.90625q0 1.796875 -1.015625 2.921875q-1.015625 1.109375 -2.71875 1.109375q-1.671875 0 -2.71875 -1.09375q-1.03125 -1.109375 -1.03125 -2.9375q0 -1.828125 1.015625 -2.921875q1.015625 -1.109375 2.734375 -1.109375zm-2.40625 4.03125q0 1.328125 0.671875 2.125q0.6875 0.78125 1.734375 0.78125q1.046875 0 1.71875 -0.796875q0.6875 -0.796875 0.6875 -2.109375q0 -1.3125 -0.6875 -2.109375q-0.671875 -0.8125 -1.734375 -0.8125q-1.015625 0 -1.703125 0.796875q-0.6875 0.78125 -0.6875 2.125zm11.356323 -4.03125q0.84375 0 1.375 0.34375q0.53125 0.328125 0.734375 0.953125q0.390625 -0.609375 1.015625 -0.953125q0.640625 -0.34375 1.40625 -0.34375q1.3125 0 1.9375 0.59375q0.625 0.578125 0.625 1.578125l0 5.703125l-1.265625 0l0 -5.109375q0 -0.828125 -0.359375 -1.234375q-0.34375 -0.421875 -1.140625 -0.421875q-0.9375 0 -1.46875 0.5625q-0.53125 0.546875 -0.53125 1.359375l0 4.84375l-1.28125 0l0 -5.109375q0 -0.828125 -0.359375 -1.234375q-0.34375 -0.421875 -1.078125 -0.421875q-0.609375 0 -1.078125 0.296875q-0.453125 0.28125 -0.71875 0.796875q-0.265625 0.5 -0.265625 0.84375l0 4.828125l-1.265625 0l0 -7.703125l1.1875 0l0 1.125l0.03125 0q0.4375 -0.65625 1.046875 -0.96875q0.625 -0.328125 1.453125 -0.328125zm12.793549 0q1.65625 0 2.609375 1.140625q0.953125 1.125 0.953125 2.90625q0 1.796875 -0.953125 2.90625q-0.953125 1.109375 -2.5625 1.109375q-0.734375 0 -1.421875 -0.296875q-0.6875 -0.3125 -1.078125 -0.921875l-0.03125 0l0 3.984375l-1.265625 0l0 -10.65625l1.265625 0l0 1.046875l0.03125 0q0.296875 -0.59375 0.9375 -0.90625q0.640625 -0.3125 1.515625 -0.3125zm-2.53125 4.015625q0 1.34375 0.640625 2.140625q0.65625 0.78125 1.796875 0.78125q1.09375 0 1.6875 -0.78125q0.609375 -0.796875 0.609375 -2.203125q0 -1.234375 -0.640625 -2.03125q-0.625 -0.8125 -1.75 -0.8125q-1.109375 0 -1.734375 0.8125q-0.609375 0.8125 -0.609375 2.09375zm8.914154 -6.78125l0 10.640625l-1.265625 0l0 -10.640625l1.265625 0zm3.3117065 0l0 1.546875l-1.265625 0l0 -1.546875l1.265625 0zm0 2.9375l0 7.703125l-1.265625 0l0 -7.703125l1.265625 0zm5.124176 -0.171875q1.5625 0 2.21875 0.5625q0.671875 0.546875 0.671875 1.484375q0 4.015625 0 4.453125q0 0.4375 0.390625 0.4375q0.09375 0 0.1875 -0.015625q0.109375 -0.03125 0.203125 -0.0625l0 0.984375q-0.171875 0.109375 -0.40625 0.15625q-0.234375 0.0625 -0.5 0.0625q-0.515625 0 -0.796875 -0.296875q-0.28125 -0.296875 -0.28125 -0.90625q-0.5 0.59375 -1.1875 0.90625q-0.671875 0.296875 -1.515625 0.296875q-1.203125 0 -1.890625 -0.5625q-0.671875 -0.578125 -0.671875 -1.609375q0 -1.03125 0.65625 -1.640625q0.671875 -0.609375 3.125 -0.921875q0.828125 -0.109375 1.125 -0.3125q0.296875 -0.21875 0.296875 -0.640625q0 -0.640625 -0.421875 -0.953125q-0.40625 -0.3125 -1.296875 -0.3125q-0.9375 0 -1.40625 0.359375q-0.46875 0.34375 -0.5 1.09375l-1.265625 0q0.046875 -1.28125 0.890625 -1.921875q0.84375 -0.640625 2.375 -0.640625zm-2.234375 5.796875q0 0.546875 0.390625 0.84375q0.390625 0.296875 1.109375 0.296875q1.0625 0 1.703125 -0.53125q0.640625 -0.53125 0.640625 -1.1875l0 -1.328125q-0.3125 0.234375 -0.828125 0.3125q-0.515625 0.078125 -1.359375 0.1875q-0.84375 0.125 -1.25 0.46875q-0.40625 0.328125 -0.40625 0.9375zm10.818787 -5.796875q1.390625 0 2.015625 0.71875q0.640625 0.703125 0.640625 2.03125l0 5.125l-1.28125 0l0 -5.265625q0 -0.65625 -0.421875 -1.078125q-0.40625 -0.421875 -1.15625 -0.421875q-1.0625 0 -1.671875 0.65625q-0.59375 0.65625 -0.59375 1.703125l0 4.40625l-1.265625 0l0 -7.703125l1.1875 0l0 1.21875l0.03125 0q0.421875 -0.71875 1.03125 -1.046875q0.625 -0.34375 1.484375 -0.34375zm7.774536 0q1.40625 0 2.28125 0.671875q0.890625 0.65625 1.046875 1.96875l-1.3125 0q-0.15625 -0.75 -0.65625 -1.140625q-0.5 -0.390625 -1.25 -0.390625q-1.1875 0 -1.796875 0.796875q-0.609375 0.78125 -0.609375 2.21875q0 1.28125 0.609375 2.046875q0.609375 0.765625 1.640625 0.765625q0.921875 0 1.453125 -0.5q0.546875 -0.5 0.671875 -1.375l1.296875 0q-0.21875 1.4375 -1.09375 2.21875q-0.875 0.78125 -2.3125 0.78125q-1.6875 0 -2.65625 -1.0625q-0.953125 -1.0625 -0.953125 -2.875q0 -1.890625 0.96875 -3.0q0.984375 -1.125 2.671875 -1.125zm7.9906616 0q1.65625 0 2.578125 1.1875q0.921875 1.1875 0.921875 3.0625l0 0.15625l-5.78125 0l0 0.09375q0 1.09375 0.640625 1.765625q0.640625 0.671875 1.765625 0.671875q0.84375 0 1.34375 -0.390625q0.5 -0.390625 0.65625 -1.125l1.25 0q-0.265625 1.28125 -1.140625 1.96875q-0.859375 0.671875 -2.15625 0.671875q-1.21875 0 -2.0625 -0.546875q-0.828125 -0.5625 -1.234375 -1.53125q-0.40625 -0.984375 -0.40625 -2.015625q0 -1.703125 1.03125 -2.828125q1.03125 -1.140625 2.59375 -1.140625zm-2.28125 3.28125l4.421875 0q-0.046875 -0.9375 -0.671875 -1.546875q-0.625 -0.625 -1.5625 -0.625q-0.875 0 -1.5 0.59375q-0.609375 0.578125 -0.6875 1.578125z" fill-rule="nonzero"/><g filter="url(#shadowFilter-g36cfd3642ec_0_103.2)"><use xlink:href="#g36cfd3642ec_0_103.2" transform="matrix(1.0 0.0 0.0 1.0 -15.276019947506562 -10.696384514435719)"/></g><defs><filter id="shadowFilter-g36cfd3642ec_0_103.2" filterUnits="userSpaceOnUse"><feGaussianBlur in="SourceAlpha" stdDeviation="0.0" result="blur"/><feComponentTransfer in="blur" color-interpolation-filters="sRGB"><feFuncR type="linear" slope="0" intercept="0.007843138"/><feFuncG type="linear" slope="0" intercept="0.95686275"/><feFuncB type="linear" slope="0" intercept="0.8352941"/><feFuncA type="linear" slope="1.0" intercept="0"/></feComponentTransfer></filter></defs><g id="g36cfd3642ec_0_103.2"><path fill="#013a3b" d="m508.53702 131.308l0 0c0 -11.9188385 9.66214 -21.580963 21.580963 -21.580963l269.153 0c5.723633 0 11.21283 2.2737045 15.260071 6.320915c4.047241 4.0472183 6.320923 9.536423 6.320923 15.260048l0 299.45227c0 11.918823 -9.662109 21.580963 -21.580994 21.580963l-269.153 0c-11.918823 0 -21.580963 -9.66214 -21.580963 -21.580963z" fill-rule="evenodd"/></g><path fill="#000000" fill-opacity="0.0" d="m538.0956 178.09831l228.8819 0l0 52.220474l-228.8819 0z" fill-rule="evenodd"/><path fill="#d0fdf2" d="m549.4706 219.47328l0 -26.796875l-8.796875 0l0 -3.375l21.203125 0l0 3.375l-8.78125 0l0 26.796875l-3.625 0zm28.185852 0.609375q-2.84375 0 -5.28125 -1.296875q-2.4375 -1.296875 -3.953125 -3.75q-1.5 -2.453125 -1.5 -5.984375l0 -0.53125q0 -3.484375 1.5 -5.953125q1.515625 -2.484375 3.953125 -3.78125q2.4375 -1.296875 5.28125 -1.296875q2.84375 0 5.28125 1.296875q2.4375 1.296875 3.9375 3.78125q1.515625 2.46875 1.515625 5.953125l0 0.53125q0 3.53125 -1.515625 5.984375q-1.5 2.453125 -3.9375 3.75q-2.4375 1.296875 -5.28125 1.296875zm0 -3.1875q2.0625 0 3.703125 -0.953125q1.640625 -0.953125 2.609375 -2.71875q0.96875 -1.765625 0.96875 -4.171875l0 -0.53125q0 -2.3125 -0.96875 -4.078125q-0.96875 -1.78125 -2.625 -2.765625q-1.65625 -0.984375 -3.6875 -0.984375q-2.03125 0 -3.6875 0.984375q-1.65625 0.984375 -2.625 2.765625q-0.96875 1.765625 -0.96875 4.078125l0 0.53125q0 2.40625 0.96875 4.171875q0.96875 1.765625 2.625 2.71875q1.65625 0.953125 3.6875 0.953125z" fill-rule="nonzero"/><path fill="#000000" fill-opacity="0.0" d="m510.71567 258.60562l280.37796 0l0 146.48819l-280.37796 0z" fill-rule="evenodd"/><path fill="#02f4d5" d="m537.6628 277.47455l9.09375 0l-3.46875 -3.453125l2.875 0l4.625 4.515625l-4.625 4.515625l-2.875 0l3.46875 -3.46875l-9.09375 0l0 -2.109375z" fill-rule="nonzero"/><path fill="#d0fdf2" d="m587.28174 273.28705q1.46875 0 2.328125 0.796875q0.875 0.796875 0.875 2.34375q0 1.5625 -0.875 2.359375q-0.859375 0.78125 -2.21875 0.78125l-3.421875 0l0 4.359375l-1.40625 0l0 -10.640625l4.71875 0zm-0.390625 5.09375q1.015625 0 1.59375 -0.46875q0.578125 -0.484375 0.578125 -1.484375q0 -0.984375 -0.578125 -1.46875q-0.5625 -0.484375 -1.671875 -0.484375l-2.84375 0l0 3.90625l2.921875 0zm8.656738 -2.34375q0.03125 0 0.0625 0q0.046875 0 0.109375 0.015625l0 1.328125q-1.4375 0 -2.125 0.765625q-0.671875 0.75 -0.671875 2.328125l0 3.453125l-1.265625 0l0 -7.703125l1.203125 0l0 1.625l0.015625 0q0.453125 -0.921875 1.09375 -1.359375q0.65625 -0.453125 1.578125 -0.453125zm4.053711 0.015625q1.65625 0 2.578125 1.1875q0.921875 1.1875 0.921875 3.0625l0 0.15625l-5.78125 0l0 0.09375q0 1.09375 0.640625 1.765625q0.640625 0.671875 1.765625 0.671875q0.84375 0 1.34375 -0.390625q0.5 -0.390625 0.65625 -1.125l1.25 0q-0.265625 1.28125 -1.140625 1.96875q-0.859375 0.671875 -2.15625 0.671875q-1.21875 0 -2.0625 -0.546875q-0.828125 -0.5625 -1.234375 -1.53125q-0.40625 -0.984375 -0.40625 -2.015625q0 -1.703125 1.03125 -2.828125q1.03125 -1.140625 2.59375 -1.140625zm-2.28125 3.28125l4.421875 0q-0.046875 -0.9375 -0.671875 -1.546875q-0.625 -0.625 -1.5625 -0.625q-0.875 0 -1.5 0.59375q-0.609375 0.578125 -0.6875 1.578125zm7.7562866 -3.109375l2.15625 6.421875l0.03125 0l2.109375 -6.421875l1.3125 0l-2.8125 7.703125l-1.34375 0l-2.859375 -7.703125l1.40625 0zm9.984375 -0.171875q1.65625 0 2.578125 1.1875q0.921875 1.1875 0.921875 3.0625l0 0.15625l-5.78125 0l0 0.09375q0 1.09375 0.640625 1.765625q0.640625 0.671875 1.765625 0.671875q0.84375 0 1.34375 -0.390625q0.5 -0.390625 0.65625 -1.125l1.25 0q-0.265625 1.28125 -1.140625 1.96875q-0.859375 0.671875 -2.15625 0.671875q-1.21875 0 -2.0625 -0.546875q-0.828125 -0.5625 -1.234375 -1.53125q-0.40625 -0.984375 -0.40625 -2.015625q0 -1.703125 1.03125 -2.828125q1.03125 -1.140625 2.59375 -1.140625zm-2.28125 3.28125l4.421875 0q-0.046875 -0.9375 -0.671875 -1.546875q-0.625 -0.625 -1.5625 -0.625q-0.875 0 -1.5 0.59375q-0.609375 0.578125 -0.6875 1.578125zm10.818787 -3.28125q1.390625 0 2.015625 0.71875q0.640625 0.703125 0.640625 2.03125l0 5.125l-1.28125 0l0 -5.265625q0 -0.65625 -0.421875 -1.078125q-0.40625 -0.421875 -1.15625 -0.421875q-1.0625 0 -1.671875 0.65625q-0.59375 0.65625 -0.59375 1.703125l0 4.40625l-1.265625 0l0 -7.703125l1.1875 0l0 1.21875l0.03125 0q0.421875 -0.71875 1.03125 -1.046875q0.625 -0.34375 1.484375 -0.34375zm6.321411 -2.140625l0 2.3125l1.53125 0l0 1.109375l-1.53125 0l0 4.828125q0 0.578125 0.375 0.609375q0.390625 0.03125 0.796875 0.03125l0.359375 0l0 1.125l-1.046875 0q-1.046875 0 -1.40625 -0.375q-0.34375 -0.375 -0.34375 -1.234375l0 -4.984375l-1.328125 0l0 -1.109375l1.328125 0l0 -2.3125l1.265625 0zm4.272705 -0.625l0 1.546875l-1.265625 0l0 -1.546875l1.265625 0zm0 2.9375l0 7.703125l-1.265625 0l0 -7.703125l1.265625 0zm5.2960815 -0.171875q1.75 0 2.734375 1.125q1.0 1.125 1.0 2.90625q0 1.796875 -1.015625 2.921875q-1.015625 1.109375 -2.71875 1.109375q-1.671875 0 -2.71875 -1.09375q-1.03125 -1.109375 -1.03125 -2.9375q0 -1.828125 1.015625 -2.921875q1.015625 -1.109375 2.734375 -1.109375zm-2.40625 4.03125q0 1.328125 0.671875 2.125q0.6875 0.78125 1.734375 0.78125q1.046875 0 1.71875 -0.796875q0.6875 -0.796875 0.6875 -2.109375q0 -1.3125 -0.6875 -2.109375q-0.671875 -0.8125 -1.734375 -0.8125q-1.015625 0 -1.703125 0.796875q-0.6875 0.78125 -0.6875 2.125zm11.371948 -4.03125q1.390625 0 2.015625 0.71875q0.640625 0.703125 0.640625 2.03125l0 5.125l-1.28125 0l0 -5.265625q0 -0.65625 -0.421875 -1.078125q-0.40625 -0.421875 -1.15625 -0.421875q-1.0625 0 -1.671875 0.65625q-0.59375 0.65625 -0.59375 1.703125l0 4.40625l-1.265625 0l0 -7.703125l1.1875 0l0 1.21875l0.03125 0q0.421875 -0.71875 1.03125 -1.046875q0.625 -0.34375 1.484375 -0.34375zm8.649536 3.140625l0 1.1875l-4.296875 0l0 -1.1875l4.296875 0zm4.3477783 -6.03125q0.15625 0 0.40625 0.046875q0.265625 0.03125 0.421875 0.078125l0 1.09375q-0.140625 -0.046875 -0.359375 -0.0625q-0.203125 -0.03125 -0.34375 -0.03125q-0.53125 0 -0.75 0.21875q-0.21875 0.21875 -0.21875 0.609375l0 1.109375l1.484375 0l0 1.109375l-1.484375 0l0 6.59375l-1.265625 0l0 -6.59375l-1.296875 0l0 -1.109375l1.296875 0l0 -1.203125q0 -0.859375 0.53125 -1.359375q0.53125 -0.5 1.578125 -0.5zm3.125 0.125l0 1.546875l-1.265625 0l0 -1.546875l1.265625 0zm0 2.9375l0 7.703125l-1.265625 0l0 -7.703125l1.265625 0zm5.800598 -0.1875q0.03125 0 0.0625 0q0.046875 0 0.109375 0.015625l0 1.328125q-1.4375 0 -2.125 0.765625q-0.671875 0.75 -0.671875 2.328125l0 3.453125l-1.265625 0l0 -7.703125l1.203125 0l0 1.625l0.015625 0q0.453125 -0.921875 1.09375 -1.359375q0.65625 -0.453125 1.578125 -0.453125zm3.6826172 0.015625q1.5625 0 2.3125 0.609375q0.765625 0.59375 0.828125 1.796875l-1.265625 0l0 -0.015625q-0.046875 -0.609375 -0.53125 -0.9375q-0.484375 -0.34375 -1.25 -0.34375q-0.765625 0 -1.203125 0.265625q-0.4375 0.25 -0.4375 0.71875q0 0.421875 0.390625 0.6875q0.390625 0.265625 1.171875 0.4375l1.1875 0.265625q1.125 0.25 1.703125 0.765625q0.59375 0.515625 0.59375 1.375q0 1.140625 -0.890625 1.796875q-0.875 0.640625 -2.390625 0.640625q-1.484375 0 -2.359375 -0.65625q-0.859375 -0.671875 -0.921875 -1.96875l1.28125 0q0.015625 0.734375 0.5625 1.125q0.546875 0.375 1.5 0.375q0.921875 0 1.390625 -0.28125q0.46875 -0.296875 0.46875 -0.875q0 -0.515625 -0.46875 -0.8125q-0.46875 -0.296875 -1.921875 -0.59375q-1.453125 -0.28125 -2.046875 -0.796875q-0.59375 -0.53125 -0.59375 -1.390625q0 -1.015625 0.8125 -1.59375q0.828125 -0.59375 2.078125 -0.59375zm6.65625 -2.140625l0 2.3125l1.53125 0l0 1.109375l-1.53125 0l0 4.828125q0 0.578125 0.375 0.609375q0.390625 0.03125 0.796875 0.03125l0.359375 0l0 1.125l-1.046875 0q-1.046875 0 -1.40625 -0.375q-0.34375 -0.375 -0.34375 -1.234375l0 -4.984375l-1.328125 0l0 -1.109375l1.328125 0l0 -2.3125l1.265625 0z" fill-rule="nonzero"/><path fill="#02f4d5" d="m537.6628 311.8919l9.09375 0l-3.46875 -3.453125l2.875 0l4.625 4.515625l-4.625 4.515625l-2.875 0l3.46875 -3.46875l-9.09375 0l0 -2.109375z" fill-rule="nonzero"/><path fill="#d0fdf2" d="m587.0161 307.7044l4.15625 10.640625l-1.578125 0l-1.15625 -3.203125l-4.5 0l-1.1875 3.203125l-1.46875 0l4.15625 -10.640625l1.578125 0zm-0.828125 1.28125l-1.796875 4.96875l3.59375 0l-1.765625 -4.96875l-0.03125 0zm7.1585083 -1.28125l0 10.640625l-1.265625 0l0 -10.640625l1.265625 0zm5.1710815 2.765625q1.65625 0 2.578125 1.1875q0.921875 1.1875 0.921875 3.0625l0 0.15625l-5.78125 0l0 0.09375q0 1.09375 0.640625 1.765625q0.640625 0.671875 1.765625 0.671875q0.84375 0 1.34375 -0.390625q0.5 -0.390625 0.65625 -1.125l1.25 0q-0.265625 1.28125 -1.140625 1.96875q-0.859375 0.671875 -2.15625 0.671875q-1.21875 0 -2.0625 -0.546875q-0.828125 -0.5625 -1.234375 -1.53125q-0.40625 -0.984375 -0.40625 -2.015625q0 -1.703125 1.03125 -2.828125q1.03125 -1.140625 2.59375 -1.140625zm-2.28125 3.28125l4.421875 0q-0.046875 -0.9375 -0.671875 -1.546875q-0.625 -0.625 -1.5625 -0.625q-0.875 0 -1.5 0.59375q-0.609375 0.578125 -0.6875 1.578125zm10.928162 -3.296875q0.03125 0 0.0625 0q0.046875 0 0.109375 0.015625l0 1.328125q-1.4375 0 -2.125 0.765625q-0.671875 0.75 -0.671875 2.328125l0 3.453125l-1.265625 0l0 -7.703125l1.203125 0l0 1.625l0.015625 0q0.453125 -0.921875 1.09375 -1.359375q0.65625 -0.453125 1.578125 -0.453125zm2.9586182 -2.125l0 2.3125l1.53125 0l0 1.109375l-1.53125 0l0 4.828125q0 0.578125 0.375 0.609375q0.390625 0.03125 0.796875 0.03125l0.359375 0l0 1.125l-1.046875 0q-1.046875 0 -1.40625 -0.375q-0.34375 -0.375 -0.34375 -1.234375l0 -4.984375l-1.328125 0l0 -1.109375l1.328125 0l0 -2.3125l1.265625 0zm10.273499 2.140625q1.65625 0 2.578125 1.1875q0.921875 1.1875 0.921875 3.0625l0 0.15625l-5.78125 0l0 0.09375q0 1.09375 0.640625 1.765625q0.640625 0.671875 1.765625 0.671875q0.84375 0 1.34375 -0.390625q0.5 -0.390625 0.65625 -1.125l1.25 0q-0.265625 1.28125 -1.140625 1.96875q-0.859375 0.671875 -2.15625 0.671875q-1.21875 0 -2.0625 -0.546875q-0.828125 -0.5625 -1.234375 -1.53125q-0.40625 -0.984375 -0.40625 -2.015625q0 -1.703125 1.03125 -2.828125q1.03125 -1.140625 2.59375 -1.140625zm-2.28125 3.28125l4.421875 0q-0.046875 -0.9375 -0.671875 -1.546875q-0.625 -0.625 -1.5625 -0.625q-0.875 0 -1.5 0.59375q-0.609375 0.578125 -0.6875 1.578125zm8.428162 -6.046875l0 10.640625l-1.265625 0l0 -10.640625l1.265625 0zm3.3117065 0l0 1.546875l-1.265625 0l0 -1.546875l1.265625 0zm0 2.9375l0 7.703125l-1.265625 0l0 -7.703125l1.265625 0zm5.6867065 -0.171875q0.84375 0 1.375 0.34375q0.53125 0.328125 0.734375 0.953125q0.390625 -0.609375 1.015625 -0.953125q0.640625 -0.34375 1.40625 -0.34375q1.3125 0 1.9375 0.59375q0.625 0.578125 0.625 1.578125l0 5.703125l-1.265625 0l0 -5.109375q0 -0.828125 -0.359375 -1.234375q-0.34375 -0.421875 -1.140625 -0.421875q-0.9375 0 -1.46875 0.5625q-0.53125 0.546875 -0.53125 1.359375l0 4.84375l-1.28125 0l0 -5.109375q0 -0.828125 -0.359375 -1.234375q-0.34375 -0.421875 -1.078125 -0.421875q-0.609375 0 -1.078125 0.296875q-0.453125 0.28125 -0.71875 0.796875q-0.265625 0.5 -0.265625 0.84375l0 4.828125l-1.265625 0l0 -7.703125l1.1875 0l0 1.125l0.03125 0q0.4375 -0.65625 1.046875 -0.96875q0.625 -0.328125 1.453125 -0.328125zm10.340454 -2.765625l0 1.546875l-1.265625 0l0 -1.546875l1.265625 0zm0 2.9375l0 7.703125l-1.265625 0l0 -7.703125l1.265625 0zm5.7023315 -0.171875q1.390625 0 2.015625 0.71875q0.640625 0.703125 0.640625 2.03125l0 5.125l-1.28125 0l0 -5.265625q0 -0.65625 -0.421875 -1.078125q-0.40625 -0.421875 -1.15625 -0.421875q-1.0625 0 -1.671875 0.65625q-0.59375 0.65625 -0.59375 1.703125l0 4.40625l-1.265625 0l0 -7.703125l1.1875 0l0 1.21875l0.03125 0q0.421875 -0.71875 1.03125 -1.046875q0.625 -0.34375 1.484375 -0.34375zm7.711975 0q1.5625 0 2.21875 0.5625q0.671875 0.546875 0.671875 1.484375q0 4.015625 0 4.453125q0 0.4375 0.390625 0.4375q0.09375 0 0.1875 -0.015625q0.109375 -0.03125 0.203125 -0.0625l0 0.984375q-0.171875 0.109375 -0.40625 0.15625q-0.234375 0.0625 -0.5 0.0625q-0.515625 0 -0.796875 -0.296875q-0.28125 -0.296875 -0.28125 -0.90625q-0.5 0.59375 -1.1875 0.90625q-0.671875 0.296875 -1.515625 0.296875q-1.203125 0 -1.890625 -0.5625q-0.671875 -0.578125 -0.671875 -1.609375q0 -1.03125 0.65625 -1.640625q0.671875 -0.609375 3.125 -0.921875q0.828125 -0.109375 1.125 -0.3125q0.296875 -0.21875 0.296875 -0.640625q0 -0.640625 -0.421875 -0.953125q-0.40625 -0.3125 -1.296875 -0.3125q-0.9375 0 -1.40625 0.359375q-0.46875 0.34375 -0.5 1.09375l-1.265625 0q0.046875 -1.28125 0.890625 -1.921875q0.84375 -0.640625 2.375 -0.640625zm-2.234375 5.796875q0 0.546875 0.390625 0.84375q0.390625 0.296875 1.109375 0.296875q1.0625 0 1.703125 -0.53125q0.640625 -0.53125 0.640625 -1.1875l0 -1.328125q-0.3125 0.234375 -0.828125 0.3125q-0.515625 0.078125 -1.359375 0.1875q-0.84375 0.125 -1.25 0.46875q-0.40625 0.328125 -0.40625 0.9375zm8.850037 -7.9375l0 2.3125l1.53125 0l0 1.109375l-1.53125 0l0 4.828125q0 0.578125 0.375 0.609375q0.390625 0.03125 0.796875 0.03125l0.359375 0l0 1.125l-1.046875 0q-1.046875 0 -1.40625 -0.375q-0.34375 -0.375 -0.34375 -1.234375l0 -4.984375l-1.328125 0l0 -1.109375l1.328125 0l0 -2.3125l1.265625 0zm4.272766 -0.625l0 1.546875l-1.265625 0l0 -1.546875l1.265625 0zm0 2.9375l0 7.703125l-1.265625 0l0 -7.703125l1.265625 0zm5.2960205 -0.171875q1.75 0 2.734375 1.125q1.0 1.125 1.0 2.90625q0 1.796875 -1.015625 2.921875q-1.015625 1.109375 -2.71875 1.109375q-1.671875 0 -2.71875 -1.09375q-1.03125 -1.109375 -1.03125 -2.9375q0 -1.828125 1.015625 -2.921875q1.015625 -1.109375 2.734375 -1.109375zm-2.40625 4.03125q0 1.328125 0.671875 2.125q0.6875 0.78125 1.734375 0.78125q1.046875 0 1.71875 -0.796875q0.6875 -0.796875 0.6875 -2.109375q0 -1.3125 -0.6875 -2.109375q-0.671875 -0.8125 -1.734375 -0.8125q-1.015625 0 -1.703125 0.796875q-0.6875 0.78125 -0.6875 2.125zm11.371948 -4.03125q1.390625 0 2.015625 0.71875q0.640625 0.703125 0.640625 2.03125l0 5.125l-1.28125 0l0 -5.265625q0 -0.65625 -0.421875 -1.078125q-0.40625 -0.421875 -1.15625 -0.421875q-1.0625 0 -1.671875 0.65625q-0.59375 0.65625 -0.59375 1.703125l0 4.40625l-1.265625 0l0 -7.703125l1.1875 0l0 1.21875l0.03125 0q0.421875 -0.71875 1.03125 -1.046875q0.625 -0.34375 1.484375 -0.34375z" fill-rule="nonzero"/><path fill="#02f4d5" d="m537.6628 346.30923l9.09375 0l-3.46875 -3.453125l2.875 0l4.625 4.515625l-4.625 4.515625l-2.875 0l3.46875 -3.46875l-9.09375 0l0 -2.109375z" fill-rule="nonzero"/><path fill="#d0fdf2" d="m587.28174 342.12173q1.46875 0 2.328125 0.796875q0.875 0.796875 0.875 2.34375q0 1.5625 -0.875 2.359375q-0.859375 0.78125 -2.21875 0.78125l-3.421875 0l0 4.359375l-1.40625 0l0 -10.640625l4.71875 0zm-0.390625 5.09375q1.015625 0 1.59375 -0.46875q0.578125 -0.484375 0.578125 -1.484375q0 -0.984375 -0.578125 -1.46875q-0.5625 -0.484375 -1.671875 -0.484375l-2.84375 0l0 3.90625l2.921875 0zm8.656738 -2.34375q0.03125 0 0.0625 0q0.046875 0 0.109375 0.015625l0 1.328125q-1.4375 0 -2.125 0.765625q-0.671875 0.75 -0.671875 2.328125l0 3.453125l-1.265625 0l0 -7.703125l1.203125 0l0 1.625l0.015625 0q0.453125 -0.921875 1.09375 -1.359375q0.65625 -0.453125 1.578125 -0.453125zm4.053711 0.015625q1.65625 0 2.578125 1.1875q0.921875 1.1875 0.921875 3.0625l0 0.15625l-5.78125 0l0 0.09375q0 1.09375 0.640625 1.765625q0.640625 0.671875 1.765625 0.671875q0.84375 0 1.34375 -0.390625q0.5 -0.390625 0.65625 -1.125l1.25 0q-0.265625 1.28125 -1.140625 1.96875q-0.859375 0.671875 -2.15625 0.671875q-1.21875 0 -2.0625 -0.546875q-0.828125 -0.5625 -1.234375 -1.53125q-0.40625 -0.984375 -0.40625 -2.015625q0 -1.703125 1.03125 -2.828125q1.03125 -1.140625 2.59375 -1.140625zm-2.28125 3.28125l4.421875 0q-0.046875 -0.9375 -0.671875 -1.546875q-0.625 -0.625 -1.5625 -0.625q-0.875 0 -1.5 0.59375q-0.609375 0.578125 -0.6875 1.578125zm11.178162 -0.140625l0 1.1875l-4.296875 0l0 -1.1875l4.296875 0zm3.0197144 -5.90625l0 3.984375l0.03125 0q0.296875 -0.59375 0.921875 -0.90625q0.640625 -0.3125 1.53125 -0.3125q1.65625 0 2.609375 1.140625q0.953125 1.125 0.953125 2.90625q0 1.796875 -0.953125 2.90625q-0.953125 1.109375 -2.5625 1.109375q-0.734375 0 -1.421875 -0.296875q-0.6875 -0.3125 -1.078125 -0.921875l-0.03125 0l0 1.03125l-1.265625 0l0 -10.640625l1.265625 0zm-0.046875 6.78125q0 1.34375 0.640625 2.140625q0.65625 0.78125 1.796875 0.78125q1.09375 0 1.6875 -0.78125q0.609375 -0.796875 0.609375 -2.203125q0 -1.234375 -0.640625 -2.03125q-0.625 -0.8125 -1.75 -0.8125q-1.109375 0 -1.734375 0.8125q-0.609375 0.8125 -0.609375 2.09375zm11.414124 -4.03125q0.03125 0 0.0625 0q0.046875 0 0.109375 0.015625l0 1.328125q-1.4375 0 -2.125 0.765625q-0.671875 0.75 -0.671875 2.328125l0 3.453125l-1.265625 0l0 -7.703125l1.203125 0l0 1.625l0.015625 0q0.453125 -0.921875 1.09375 -1.359375q0.65625 -0.453125 1.578125 -0.453125zm4.053772 0.015625q1.65625 0 2.578125 1.1875q0.921875 1.1875 0.921875 3.0625l0 0.15625l-5.78125 0l0 0.09375q0 1.09375 0.640625 1.765625q0.640625 0.671875 1.765625 0.671875q0.84375 0 1.34375 -0.390625q0.5 -0.390625 0.65625 -1.125l1.25 0q-0.265625 1.28125 -1.140625 1.96875q-0.859375 0.671875 -2.15625 0.671875q-1.21875 0 -2.0625 -0.546875q-0.828125 -0.5625 -1.234375 -1.53125q-0.40625 -0.984375 -0.40625 -2.015625q0 -1.703125 1.03125 -2.828125q1.03125 -1.140625 2.59375 -1.140625zm-2.28125 3.28125l4.421875 0q-0.046875 -0.9375 -0.671875 -1.546875q-0.625 -0.625 -1.5625 -0.625q-0.875 0 -1.5 0.59375q-0.609375 0.578125 -0.6875 1.578125zm10.240662 -3.28125q1.5625 0 2.21875 0.5625q0.671875 0.546875 0.671875 1.484375q0 4.015625 0 4.453125q0 0.4375 0.390625 0.4375q0.09375 0 0.1875 -0.015625q0.109375 -0.03125 0.203125 -0.0625l0 0.984375q-0.171875 0.109375 -0.40625 0.15625q-0.234375 0.0625 -0.5 0.0625q-0.515625 0 -0.796875 -0.296875q-0.28125 -0.296875 -0.28125 -0.90625q-0.5 0.59375 -1.1875 0.90625q-0.671875 0.296875 -1.515625 0.296875q-1.203125 0 -1.890625 -0.5625q-0.671875 -0.578125 -0.671875 -1.609375q0 -1.03125 0.65625 -1.640625q0.671875 -0.609375 3.125 -0.921875q0.828125 -0.109375 1.125 -0.3125q0.296875 -0.21875 0.296875 -0.640625q0 -0.640625 -0.421875 -0.953125q-0.40625 -0.3125 -1.296875 -0.3125q-0.9375 0 -1.40625 0.359375q-0.46875 0.34375 -0.5 1.09375l-1.265625 0q0.046875 -1.28125 0.890625 -1.921875q0.84375 -0.640625 2.375 -0.640625zm-2.234375 5.796875q0 0.546875 0.390625 0.84375q0.390625 0.296875 1.109375 0.296875q1.0625 0 1.703125 -0.53125q0.640625 -0.53125 0.640625 -1.1875l0 -1.328125q-0.3125 0.234375 -0.828125 0.3125q-0.515625 0.078125 -1.359375 0.1875q-0.84375 0.125 -1.25 0.46875q-0.40625 0.328125 -0.40625 0.9375zm10.303162 -5.796875q1.40625 0 2.28125 0.671875q0.890625 0.65625 1.046875 1.96875l-1.3125 0q-0.15625 -0.75 -0.65625 -1.140625q-0.5 -0.390625 -1.25 -0.390625q-1.1875 0 -1.796875 0.796875q-0.609375 0.78125 -0.609375 2.21875q0 1.28125 0.609375 2.046875q0.609375 0.765625 1.640625 0.765625q0.921875 0 1.453125 -0.5q0.546875 -0.5 0.671875 -1.375l1.296875 0q-0.21875 1.4375 -1.09375 2.21875q-0.875 0.78125 -2.3125 0.78125q-1.6875 0 -2.65625 -1.0625q-0.953125 -1.0625 -0.953125 -2.875q0 -1.890625 0.96875 -3.0q0.984375 -1.125 2.671875 -1.125zm6.0531616 -2.765625l0 4.0625l0.03125 0q0.28125 -0.609375 0.9375 -0.953125q0.65625 -0.34375 1.5 -0.34375q1.390625 0 2.015625 0.71875q0.640625 0.703125 0.640625 2.03125l0 5.125l-1.28125 0l0 -5.265625q0 -0.65625 -0.421875 -1.078125q-0.40625 -0.421875 -1.15625 -0.421875q-1.0625 0 -1.671875 0.65625q-0.59375 0.65625 -0.59375 1.703125l0 4.40625l-1.265625 0l0 -10.640625l1.265625 0zm14.384705 2.765625q1.40625 0 2.28125 0.671875q0.890625 0.65625 1.046875 1.96875l-1.3125 0q-0.15625 -0.75 -0.65625 -1.140625q-0.5 -0.390625 -1.25 -0.390625q-1.1875 0 -1.796875 0.796875q-0.609375 0.78125 -0.609375 2.21875q0 1.28125 0.609375 2.046875q0.609375 0.765625 1.640625 0.765625q0.921875 0 1.453125 -0.5q0.546875 -0.5 0.671875 -1.375l1.296875 0q-0.21875 1.4375 -1.09375 2.21875q-0.875 0.78125 -2.3125 0.78125q-1.6875 0 -2.65625 -1.0625q-0.953125 -1.0625 -0.953125 -2.875q0 -1.890625 0.96875 -3.0q0.984375 -1.125 2.671875 -1.125zm8.115662 0q1.75 0 2.734375 1.125q1.0 1.125 1.0 2.90625q0 1.796875 -1.015625 2.921875q-1.015625 1.109375 -2.71875 1.109375q-1.671875 0 -2.71875 -1.09375q-1.03125 -1.109375 -1.03125 -2.9375q0 -1.828125 1.015625 -2.921875q1.015625 -1.109375 2.734375 -1.109375zm-2.40625 4.03125q0 1.328125 0.671875 2.125q0.6875 0.78125 1.734375 0.78125q1.046875 0 1.71875 -0.796875q0.6875 -0.796875 0.6875 -2.109375q0 -1.3125 -0.6875 -2.109375q-0.671875 -0.8125 -1.734375 -0.8125q-1.015625 0 -1.703125 0.796875q-0.6875 0.78125 -0.6875 2.125zm11.371948 -4.03125q1.390625 0 2.015625 0.71875q0.640625 0.703125 0.640625 2.03125l0 5.125l-1.28125 0l0 -5.265625q0 -0.65625 -0.421875 -1.078125q-0.40625 -0.421875 -1.15625 -0.421875q-1.0625 0 -1.671875 0.65625q-0.59375 0.65625 -0.59375 1.703125l0 4.40625l-1.265625 0l0 -7.703125l1.1875 0l0 1.21875l0.03125 0q0.421875 -0.71875 1.03125 -1.046875q0.625 -0.34375 1.484375 -0.34375zm6.321411 -2.140625l0 2.3125l1.53125 0l0 1.109375l-1.53125 0l0 4.828125q0 0.578125 0.375 0.609375q0.390625 0.03125 0.796875 0.03125l0.359375 0l0 1.125l-1.046875 0q-1.046875 0 -1.40625 -0.375q-0.34375 -0.375 -0.34375 -1.234375l0 -4.984375l-1.328125 0l0 -1.109375l1.328125 0l0 -2.3125l1.265625 0zm6.085205 2.140625q1.5625 0 2.21875 0.5625q0.671875 0.546875 0.671875 1.484375q0 4.015625 0 4.453125q0 0.4375 0.390625 0.4375q0.09375 0 0.1875 -0.015625q0.109375 -0.03125 0.203125 -0.0625l0 0.984375q-0.171875 0.109375 -0.40625 0.15625q-0.234375 0.0625 -0.5 0.0625q-0.515625 0 -0.796875 -0.296875q-0.28125 -0.296875 -0.28125 -0.90625q-0.5 0.59375 -1.1875 0.90625q-0.671875 0.296875 -1.515625 0.296875q-1.203125 0 -1.890625 -0.5625q-0.671875 -0.578125 -0.671875 -1.609375q0 -1.03125 0.65625 -1.640625q0.671875 -0.609375 3.125 -0.921875q0.828125 -0.109375 1.125 -0.3125q0.296875 -0.21875 0.296875 -0.640625q0 -0.640625 -0.421875 -0.953125q-0.40625 -0.3125 -1.296875 -0.3125q-0.9375 0 -1.40625 0.359375q-0.46875 0.34375 -0.5 1.09375l-1.265625 0q0.046875 -1.28125 0.890625 -1.921875q0.84375 -0.640625 2.375 -0.640625zm-2.234375 5.796875q0 0.546875 0.390625 0.84375q0.390625 0.296875 1.109375 0.296875q1.0625 0 1.703125 -0.53125q0.640625 -0.53125 0.640625 -1.1875l0 -1.328125q-0.3125 0.234375 -0.828125 0.3125q-0.515625 0.078125 -1.359375 0.1875q-0.84375 0.125 -1.25 0.46875q-0.40625 0.328125 -0.40625 0.9375zm8.428162 -8.5625l0 1.546875l-1.265625 0l0 -1.546875l1.265625 0zm0 2.9375l0 7.703125l-1.265625 0l0 -7.703125l1.265625 0zm5.7023315 -0.171875q1.390625 0 2.015625 0.71875q0.640625 0.703125 0.640625 2.03125l0 5.125l-1.28125 0l0 -5.265625q0 -0.65625 -0.421875 -1.078125q-0.40625 -0.421875 -1.15625 -0.421875q-1.0625 0 -1.671875 0.65625q-0.59375 0.65625 -0.59375 1.703125l0 4.40625l-1.265625 0l0 -7.703125l1.1875 0l0 1.21875l0.03125 0q0.421875 -0.71875 1.03125 -1.046875q0.625 -0.34375 1.484375 -0.34375zm8.274475 0q0.84375 0 1.375 0.34375q0.53125 0.328125 0.734375 0.953125q0.390625 -0.609375 1.015625 -0.953125q0.640625 -0.34375 1.40625 -0.34375q1.3125 0 1.9375 0.59375q0.625 0.578125 0.625 1.578125l0 5.703125l-1.265625 0l0 -5.109375q0 -0.828125 -0.359375 -1.234375q-0.34375 -0.421875 -1.140625 -0.421875q-0.9375 0 -1.46875 0.5625q-0.53125 0.546875 -0.53125 1.359375l0 4.84375l-1.28125 0l0 -5.109375q0 -0.828125 -0.359375 -1.234375q-0.34375 -0.421875 -1.078125 -0.421875q-0.609375 0 -1.078125 0.296875q-0.453125 0.28125 -0.71875 0.796875q-0.265625 0.5 -0.265625 0.84375l0 4.828125l-1.265625 0l0 -7.703125l1.1875 0l0 1.125l0.03125 0q0.4375 -0.65625 1.046875 -0.96875q0.625 -0.328125 1.453125 -0.328125zm12.199829 0q1.65625 0 2.578125 1.1875q0.921875 1.1875 0.921875 3.0625l0 0.15625l-5.78125 0l0 0.09375q0 1.09375 0.640625 1.765625q0.640625 0.671875 1.765625 0.671875q0.84375 0 1.34375 -0.390625q0.5 -0.390625 0.65625 -1.125l1.25 0q-0.265625 1.28125 -1.140625 1.96875q-0.859375 0.671875 -2.15625 0.671875q-1.21875 0 -2.0625 -0.546875q-0.828125 -0.5625 -1.234375 -1.53125q-0.40625 -0.984375 -0.40625 -2.015625q0 -1.703125 1.03125 -2.828125q1.03125 -1.140625 2.59375 -1.140625zm-2.28125 3.28125l4.421875 0q-0.046875 -0.9375 -0.671875 -1.546875q-0.625 -0.625 -1.5625 -0.625q-0.875 0 -1.5 0.59375q-0.609375 0.578125 -0.6875 1.578125zm10.818787 -3.28125q1.390625 0 2.015625 0.71875q0.640625 0.703125 0.640625 2.03125l0 5.125l-1.28125 0l0 -5.265625q0 -0.65625 -0.421875 -1.078125q-0.40625 -0.421875 -1.15625 -0.421875q-1.0625 0 -1.671875 0.65625q-0.59375 0.65625 -0.59375 1.703125l0 4.40625l-1.265625 0l0 -7.703125l1.1875 0l0 1.21875l0.03125 0q0.421875 -0.71875 1.03125 -1.046875q0.625 -0.34375 1.484375 -0.34375zm6.321411 -2.140625l0 2.3125l1.53125 0l0 1.109375l-1.53125 0l0 4.828125q0 0.578125 0.375 0.609375q0.390625 0.03125 0.796875 0.03125l0.359375 0l0 1.125l-1.046875 0q-1.046875 0 -1.40625 -0.375q-0.34375 -0.375 -0.34375 -1.234375l0 -4.984375l-1.328125 0l0 -1.109375l1.328125 0l0 -2.3125l1.265625 0z" fill-rule="nonzero"/><path fill="#02f4d5" d="m537.6628 380.72662l9.09375 0l-3.46875 -3.453125l2.875 0l4.625 4.515625l-4.625 4.515625l-2.875 0l3.46875 -3.46875l-9.09375 0l0 -2.109375z" fill-rule="nonzero"/><path fill="#d0fdf2" d="m587.28174 376.53912q1.46875 0 2.328125 0.796875q0.875 0.796875 0.875 2.34375q0 1.5625 -0.875 2.359375q-0.859375 0.78125 -2.21875 0.78125l-3.421875 0l0 4.359375l-1.40625 0l0 -10.640625l4.71875 0zm-0.390625 5.09375q1.015625 0 1.59375 -0.46875q0.578125 -0.484375 0.578125 -1.484375q0 -0.984375 -0.578125 -1.46875q-0.5625 -0.484375 -1.671875 -0.484375l-2.84375 0l0 3.90625l2.921875 0zm8.656738 -2.34375q0.03125 0 0.0625 0q0.046875 0 0.109375 0.015625l0 1.328125q-1.4375 0 -2.125 0.765625q-0.671875 0.75 -0.671875 2.328125l0 3.453125l-1.265625 0l0 -7.703125l1.203125 0l0 1.625l0.015625 0q0.453125 -0.921875 1.09375 -1.359375q0.65625 -0.453125 1.578125 -0.453125zm4.178711 0.015625q1.75 0 2.734375 1.125q1.0 1.125 1.0 2.90625q0 1.796875 -1.015625 2.921875q-1.015625 1.109375 -2.71875 1.109375q-1.671875 0 -2.71875 -1.09375q-1.03125 -1.109375 -1.03125 -2.9375q0 -1.828125 1.015625 -2.921875q1.015625 -1.109375 2.734375 -1.109375zm-2.40625 4.03125q0 1.328125 0.671875 2.125q0.6875 0.78125 1.734375 0.78125q1.046875 0 1.71875 -0.796875q0.6875 -0.796875 0.6875 -2.109375q0 -1.3125 -0.6875 -2.109375q-0.671875 -0.8125 -1.734375 -0.8125q-1.015625 0 -1.703125 0.796875q-0.6875 0.78125 -0.6875 2.125zm10.793823 -4.03125q1.5625 0 2.21875 0.5625q0.671875 0.546875 0.671875 1.484375q0 4.015625 0 4.453125q0 0.4375 0.390625 0.4375q0.09375 0 0.1875 -0.015625q0.109375 -0.03125 0.203125 -0.0625l0 0.984375q-0.171875 0.109375 -0.40625 0.15625q-0.234375 0.0625 -0.5 0.0625q-0.515625 0 -0.796875 -0.296875q-0.28125 -0.296875 -0.28125 -0.90625q-0.5 0.59375 -1.1875 0.90625q-0.671875 0.296875 -1.515625 0.296875q-1.203125 0 -1.890625 -0.5625q-0.671875 -0.578125 -0.671875 -1.609375q0 -1.03125 0.65625 -1.640625q0.671875 -0.609375 3.125 -0.921875q0.828125 -0.109375 1.125 -0.3125q0.296875 -0.21875 0.296875 -0.640625q0 -0.640625 -0.421875 -0.953125q-0.40625 -0.3125 -1.296875 -0.3125q-0.9375 0 -1.40625 0.359375q-0.46875 0.34375 -0.5 1.09375l-1.265625 0q0.046875 -1.28125 0.890625 -1.921875q0.84375 -0.640625 2.375 -0.640625zm-2.234375 5.796875q0 0.546875 0.390625 0.84375q0.390625 0.296875 1.109375 0.296875q1.0625 0 1.703125 -0.53125q0.640625 -0.53125 0.640625 -1.1875l0 -1.328125q-0.3125 0.234375 -0.828125 0.3125q-0.515625 0.078125 -1.359375 0.1875q-0.84375 0.125 -1.25 0.46875q-0.40625 0.328125 -0.40625 0.9375zm10.303162 -5.796875q1.40625 0 2.28125 0.671875q0.890625 0.65625 1.046875 1.96875l-1.3125 0q-0.15625 -0.75 -0.65625 -1.140625q-0.5 -0.390625 -1.25 -0.390625q-1.1875 0 -1.796875 0.796875q-0.609375 0.78125 -0.609375 2.21875q0 1.28125 0.609375 2.046875q0.609375 0.765625 1.640625 0.765625q0.921875 0 1.453125 -0.5q0.546875 -0.5 0.671875 -1.375l1.296875 0q-0.21875 1.4375 -1.09375 2.21875q-0.875 0.78125 -2.3125 0.78125q-1.6875 0 -2.65625 -1.0625q-0.953125 -1.0625 -0.953125 -2.875q0 -1.890625 0.96875 -3.0q0.984375 -1.125 2.671875 -1.125zm6.5531616 -2.140625l0 2.3125l1.53125 0l0 1.109375l-1.53125 0l0 4.828125q0 0.578125 0.375 0.609375q0.390625 0.03125 0.796875 0.03125l0.359375 0l0 1.125l-1.046875 0q-1.046875 0 -1.40625 -0.375q-0.34375 -0.375 -0.34375 -1.234375l0 -4.984375l-1.328125 0l0 -1.109375l1.328125 0l0 -2.3125l1.265625 0zm4.272766 -0.625l0 1.546875l-1.265625 0l0 -1.546875l1.265625 0zm0 2.9375l0 7.703125l-1.265625 0l0 -7.703125l1.265625 0zm2.6397705 0l2.15625 6.421875l0.03125 0l2.109375 -6.421875l1.3125 0l-2.8125 7.703125l-1.34375 0l-2.859375 -7.703125l1.40625 0zm9.984436 -0.171875q1.65625 0 2.578125 1.1875q0.921875 1.1875 0.921875 3.0625l0 0.15625l-5.781311 0l0 0.09375q0 1.09375 0.640625 1.765625q0.640625 0.671875 1.765686 0.671875q0.84375 0 1.34375 -0.390625q0.5 -0.390625 0.65625 -1.125l1.25 0q-0.265625 1.28125 -1.140625 1.96875q-0.859375 0.671875 -2.15625 0.671875q-1.218811 0 -2.062561 -0.546875q-0.828125 -0.5625 -1.234375 -1.53125q-0.40625 -0.984375 -0.40625 -2.015625q0 -1.703125 1.03125 -2.828125q1.03125 -1.140625 2.593811 -1.140625zm-2.281311 3.28125l4.421936 0q-0.046875 -0.9375 -0.671875 -1.546875q-0.625 -0.625 -1.5625 -0.625q-0.87506104 0 -1.500061 0.59375q-0.609375 0.578125 -0.6875 1.578125zm13.788391 -3.28125q1.5625 0 2.3125 0.609375q0.765625 0.59375 0.828125 1.796875l-1.265625 0l0 -0.015625q-0.046875 -0.609375 -0.53125 -0.9375q-0.484375 -0.34375 -1.25 -0.34375q-0.765625 0 -1.203125 0.265625q-0.4375 0.25 -0.4375 0.71875q0 0.421875 0.390625 0.6875q0.390625 0.265625 1.171875 0.4375l1.1875 0.265625q1.125 0.25 1.703125 0.765625q0.59375 0.515625 0.59375 1.375q0 1.140625 -0.890625 1.796875q-0.875 0.640625 -2.390625 0.640625q-1.484375 0 -2.359375 -0.65625q-0.859375 -0.671875 -0.921875 -1.96875l1.28125 0q0.015625 0.734375 0.5625 1.125q0.546875 0.375 1.5 0.375q0.921875 0 1.390625 -0.28125q0.46875 -0.296875 0.46875 -0.875q0 -0.515625 -0.46875 -0.8125q-0.46875 -0.296875 -1.921875 -0.59375q-1.453125 -0.28125 -2.046875 -0.796875q-0.59375 -0.53125 -0.59375 -1.390625q0 -1.015625 0.8125 -1.59375q0.828125 -0.59375 2.078125 -0.59375zm8.09375 0q1.65625 0 2.578125 1.1875q0.921875 1.1875 0.921875 3.0625l0 0.15625l-5.78125 0l0 0.09375q0 1.09375 0.640625 1.765625q0.640625 0.671875 1.765625 0.671875q0.84375 0 1.34375 -0.390625q0.5 -0.390625 0.65625 -1.125l1.25 0q-0.265625 1.28125 -1.140625 1.96875q-0.859375 0.671875 -2.15625 0.671875q-1.21875 0 -2.0625 -0.546875q-0.828125 -0.5625 -1.234375 -1.53125q-0.40625 -0.984375 -0.40625 -2.015625q0 -1.703125 1.03125 -2.828125q1.03125 -1.140625 2.59375 -1.140625zm-2.28125 3.28125l4.421875 0q-0.046875 -0.9375 -0.671875 -1.546875q-0.625 -0.625 -1.5625 -0.625q-0.875 0 -1.5 0.59375q-0.609375 0.578125 -0.6875 1.578125zm10.303162 -3.28125q1.40625 0 2.28125 0.671875q0.890625 0.65625 1.046875 1.96875l-1.3125 0q-0.15625 -0.75 -0.65625 -1.140625q-0.5 -0.390625 -1.25 -0.390625q-1.1875 0 -1.796875 0.796875q-0.609375 0.78125 -0.609375 2.21875q0 1.28125 0.609375 2.046875q0.609375 0.765625 1.640625 0.765625q0.921875 0 1.453125 -0.5q0.546875 -0.5 0.671875 -1.375l1.296875 0q-0.21875 1.4375 -1.09375 2.21875q-0.875 0.78125 -2.3125 0.78125q-1.6875 0 -2.65625 -1.0625q-0.953125 -1.0625 -0.953125 -2.875q0 -1.890625 0.96875 -3.0q0.984375 -1.125 2.671875 -1.125zm6.0531616 0.171875l0 5.25q0 0.65625 0.421875 1.09375q0.421875 0.421875 1.15625 0.421875q1.09375 0 1.671875 -0.65625q0.59375 -0.671875 0.59375 -1.703125l0 -4.40625l1.28125 0l0 7.703125l-1.203125 0l0 -1.21875l-0.03125 0q-0.421875 0.734375 -1.0625 1.078125q-0.625 0.328125 -1.4375 0.328125q-1.359375 0 -2.015625 -0.6875q-0.640625 -0.703125 -0.640625 -2.0625l0 -5.140625l1.265625 0zm10.868286 -0.1875q0.03125 0 0.0625 0q0.046875 0 0.109375 0.015625l0 1.328125q-1.4375 0 -2.125 0.765625q-0.671875 0.75 -0.671875 2.328125l0 3.453125l-1.265625 0l0 -7.703125l1.203125 0l0 1.625l0.015625 0q0.453125 -0.921875 1.09375 -1.359375q0.65625 -0.453125 1.578125 -0.453125zm2.4638672 -2.75l0 1.546875l-1.265625 0l0 -1.546875l1.265625 0zm0 2.9375l0 7.703125l-1.265625 0l0 -7.703125l1.265625 0zm3.7335815 -2.3125l0 2.3125l1.53125 0l0 1.109375l-1.53125 0l0 4.828125q0 0.578125 0.375 0.609375q0.390625 0.03125 0.796875 0.03125l0.359375 0l0 1.125l-1.046875 0q-1.046875 0 -1.40625 -0.375q-0.34375 -0.375 -0.34375 -1.234375l0 -4.984375l-1.328125 0l0 -1.109375l1.328125 0l0 -2.3125l1.265625 0zm3.522705 2.3125l2.25 6.296875l0.03125 0l2.15625 -6.296875l1.359375 0l-3.28125 8.53125q-0.515625 1.328125 -1.0 1.796875q-0.46875 0.46875 -1.3125 0.46875q-0.234375 0 -0.453125 -0.03125q-0.21875 -0.03125 -0.4375 -0.109375l0 -1.15625q0.1875 0.046875 0.375 0.109375q0.1875 0.0625 0.375 0.0625q0.765625 0 1.0625 -0.78125q0.3125 -0.765625 0.5 -1.234375l-3.0625 -7.65625l1.4375 0zm12.313293 -2.9375l0 3.984375l0.03125 0q0.296875 -0.59375 0.921875 -0.90625q0.640625 -0.3125 1.53125 -0.3125q1.65625 0 2.609375 1.140625q0.953125 1.125 0.953125 2.90625q0 1.796875 -0.953125 2.90625q-0.953125 1.109375 -2.5625 1.109375q-0.734375 0 -1.421875 -0.296875q-0.6875 -0.3125 -1.078125 -0.921875l-0.03125 0l0 1.03125l-1.265625 0l0 -10.640625l1.265625 0zm-0.046875 6.78125q0 1.34375 0.640625 2.140625q0.65625 0.78125 1.796875 0.78125q1.09375 0 1.6875 -0.78125q0.609375 -0.796875 0.609375 -2.203125q0 -1.234375 -0.640625 -2.03125q-0.625 -0.8125 -1.75 -0.8125q-1.109375 0 -1.734375 0.8125q-0.609375 0.8125 -0.609375 2.09375zm8.164185 -3.84375l2.25 6.296875l0.03125 0l2.15625 -6.296875l1.359375 0l-3.28125 8.53125q-0.515625 1.328125 -1.0 1.796875q-0.46875 0.46875 -1.3125 0.46875q-0.234375 0 -0.453125 -0.03125q-0.21875 -0.03125 -0.4375 -0.109375l0 -1.15625q0.1875 0.046875 0.375 0.109375q0.1875 0.0625 0.375 0.0625q0.765625 0 1.0625 -0.78125q0.3125 -0.765625 0.5 -1.234375l-3.0625 -7.65625l1.4375 0zm17.891418 -2.9375l0 10.640625l-1.265625 0l0 -1.046875l-0.03125 0q-0.296875 0.609375 -0.953125 0.921875q-0.65625 0.3125 -1.515625 0.3125q-1.609375 0 -2.578125 -1.125q-0.96875 -1.125 -0.96875 -2.9375q0 -1.78125 0.9375 -2.890625q0.9375 -1.109375 2.578125 -1.109375q0.75 0 1.4375 0.3125q0.6875 0.296875 1.0625 0.875l0.03125 0l0 -3.953125l1.265625 0zm-5.96875 6.84375q0 1.25 0.640625 2.0625q0.65625 0.796875 1.75 0.796875q1.125 0 1.734375 -0.796875q0.609375 -0.8125 0.609375 -2.109375q0 -1.3125 -0.640625 -2.109375q-0.625 -0.8125 -1.796875 -0.8125q-1.09375 0 -1.703125 0.796875q-0.59375 0.796875 -0.59375 2.171875zm11.11731 -4.078125q1.65625 0 2.578125 1.1875q0.921875 1.1875 0.921875 3.0625l0 0.15625l-5.78125 0l0 0.09375q0 1.09375 0.640625 1.765625q0.640625 0.671875 1.765625 0.671875q0.84375 0 1.34375 -0.390625q0.5 -0.390625 0.65625 -1.125l1.25 0q-0.265625 1.28125 -1.140625 1.96875q-0.859375 0.671875 -2.15625 0.671875q-1.21875 0 -2.0625 -0.546875q-0.828125 -0.5625 -1.234375 -1.53125q-0.40625 -0.984375 -0.40625 -2.015625q0 -1.703125 1.03125 -2.828125q1.03125 -1.140625 2.59375 -1.140625zm-2.28125 3.28125l4.421875 0q-0.046875 -0.9375 -0.671875 -1.546875q-0.625 -0.625 -1.5625 -0.625q-0.875 0 -1.5 0.59375q-0.609375 0.578125 -0.6875 1.578125zm9.646912 -3.28125q1.5625 0 2.3125 0.609375q0.765625 0.59375 0.828125 1.796875l-1.265625 0l0 -0.015625q-0.046875 -0.609375 -0.53125 -0.9375q-0.484375 -0.34375 -1.25 -0.34375q-0.765625 0 -1.203125 0.265625q-0.4375 0.25 -0.4375 0.71875q0 0.421875 0.390625 0.6875q0.390625 0.265625 1.171875 0.4375l1.1875 0.265625q1.125 0.25 1.703125 0.765625q0.59375 0.515625 0.59375 1.375q0 1.140625 -0.890625 1.796875q-0.875 0.640625 -2.390625 0.640625q-1.484375 0 -2.359375 -0.65625q-0.859375 -0.671875 -0.921875 -1.96875l1.28125 0q0.015625 0.734375 0.5625 1.125q0.546875 0.375 1.5 0.375q0.921875 0 1.390625 -0.28125q0.46875 -0.296875 0.46875 -0.875q0 -0.515625 -0.46875 -0.8125q-0.46875 -0.296875 -1.921875 -0.59375q-1.453125 -0.28125 -2.046875 -0.796875q-0.59375 -0.53125 -0.59375 -1.390625q0 -1.015625 0.8125 -1.59375q0.828125 -0.59375 2.078125 -0.59375zm6.234375 -2.765625l0 1.546875l-1.265625 0l0 -1.546875l1.265625 0zm0 2.9375l0 7.703125l-1.265625 0l0 -7.703125l1.265625 0zm5.1085205 -0.171875q0.796875 0 1.390625 0.34375q0.59375 0.34375 0.90625 0.9375l0.015625 0l0 -1.109375l1.1875 0l0 7.125q0 1.8125 -0.875 2.75q-0.859375 0.953125 -2.6875 0.953125q-1.328125 0 -2.234375 -0.578125q-0.90625 -0.578125 -0.953125 -1.6875l1.265625 0q0.015625 0.59375 0.609375 0.921875q0.609375 0.34375 1.375 0.34375q1.125 0 1.71875 -0.75q0.59375 -0.734375 0.59375 -2.203125l0 -0.484375l-0.015625 0q-0.3125 0.640625 -0.953125 1.03125q-0.640625 0.375 -1.46875 0.375q-1.5625 0 -2.5 -1.078125q-0.9375 -1.078125 -0.9375 -2.828125q0 -1.765625 0.9375 -2.90625q0.9375 -1.15625 2.625 -1.15625zm-2.21875 3.90625q0 1.375 0.578125 2.15625q0.578125 0.78125 1.59375 0.78125q1.0625 0 1.671875 -0.8125q0.625 -0.8125 0.625 -2.171875q0 -1.234375 -0.578125 -1.984375q-0.5625 -0.765625 -1.625 -0.765625q-1.0625 0 -1.671875 0.765625q-0.59375 0.765625 -0.59375 2.03125zm11.371948 -3.90625q1.390625 0 2.015625 0.71875q0.640625 0.703125 0.640625 2.03125l0 5.125l-1.28125 0l0 -5.265625q0 -0.65625 -0.421875 -1.078125q-0.40625 -0.421875 -1.15625 -0.421875q-1.0625 0 -1.671875 0.65625q-0.59375 0.65625 -0.59375 1.703125l0 4.40625l-1.265625 0l0 -7.703125l1.1875 0l0 1.21875l0.03125 0q0.421875 -0.71875 1.03125 -1.046875q0.625 -0.34375 1.484375 -0.34375z" fill-rule="nonzero"/></g></svg>
