<svg version="1.1" viewBox="0.0 0.0 960.0 540.0" fill="none" stroke="none" stroke-linecap="square" stroke-miterlimit="10" xmlns:xlink="http://www.w3.org/1999/xlink" xmlns="http://www.w3.org/2000/svg"><clipPath id="g2d7ced72013_0_120.0"><path d="m0 0l960.0 0l0 540.0l-960.0 0l0 -540.0z" clip-rule="nonzero"/></clipPath><g clip-path="url(#g2d7ced72013_0_120.0)"><path fill="#ffffff" d="m0 0l960.0 0l0 540.0l-960.0 0z" fill-rule="evenodd"/><path fill="#000000" fill-opacity="0.0" d="m48.0 48.0l472.62994 0l0 29.102364l-472.62994 0z" fill-rule="evenodd"/><path fill="#02f4d5" d="m283.9453 214.64699l0 0c0 -16.603333 13.459656 -30.063004 30.062988 -30.063004l85.7323 0l0 0c7.9732056 0 15.619843 3.1673431 21.257751 8.805252c5.6378784 5.637909 8.805237 13.284546 8.805237 21.257751l0 0l0 0c0 16.603333 -13.459656 30.062988 -30.062988 30.062988l-85.7323 0c-16.603333 0 -30.062988 -13.459656 -30.062988 -30.062988z" fill-rule="evenodd"/><path fill="#02f4d5" d="m299.26816 205.76509l115.212585 0l0 17.763779l-115.212585 0z" fill-rule="evenodd"/><path fill="#005a4c" d="m328.88168 209.45824l4.078125 10.46875l-1.53125 0l-1.140625 -3.15625l-4.4375 0l-1.171875 3.15625l-1.421875 0l4.078125 -10.46875l1.546875 0zm-0.8125 1.265625l-1.765625 4.875l3.53125 0l-1.734375 -4.875l-0.03125 0zm9.4496155 1.453125q1.625 0 2.5625 1.125q0.9375 1.109375 0.9375 2.859375q0 1.765625 -0.9375 2.859375q-0.921875 1.078125 -2.53125 1.078125q-0.703125 0 -1.390625 -0.28125q-0.671875 -0.296875 -1.0625 -0.90625l-0.03125 0l0 3.921875l-1.234375 0l0 -10.484375l1.234375 0l0 1.03125l0.03125 0q0.296875 -0.59375 0.921875 -0.890625q0.640625 -0.3125 1.5 -0.3125zm-2.484375 3.953125q0 1.328125 0.625 2.109375q0.640625 0.765625 1.765625 0.765625q1.078125 0 1.671875 -0.765625q0.59375 -0.78125 0.59375 -2.15625q0 -1.234375 -0.625 -2.015625q-0.625 -0.796875 -1.734375 -0.796875q-1.09375 0 -1.703125 0.8125q-0.59375 0.796875 -0.59375 2.046875zm11.172211 -3.953125q1.625 0 2.5625 1.125q0.9375 1.109375 0.9375 2.859375q0 1.765625 -0.9375 2.859375q-0.921875 1.078125 -2.53125 1.078125q-0.703125 0 -1.390625 -0.28125q-0.671875 -0.296875 -1.0625 -0.90625l-0.03125 0l0 3.921875l-1.234375 0l0 -10.484375l1.234375 0l0 1.03125l0.03125 0q0.296875 -0.59375 0.921875 -0.890625q0.640625 -0.3125 1.5 -0.3125zm-2.484375 3.953125q0 1.328125 0.625 2.109375q0.640625 0.765625 1.765625 0.765625q1.078125 0 1.671875 -0.765625q0.59375 -0.78125 0.59375 -2.15625q0 -1.234375 -0.625 -2.015625q-0.625 -0.796875 -1.734375 -0.796875q-1.09375 0 -1.703125 0.8125q-0.59375 0.796875 -0.59375 2.046875zm12.031586 -6.671875l4.078125 10.46875l-1.53125 0l-1.140625 -3.15625l-4.4375 0l-1.171875 3.15625l-1.421875 0l4.078125 -10.46875l1.546875 0zm-0.8125 1.265625l-1.765625 4.875l3.53125 0l-1.734375 -4.875l-0.03125 0zm9.480896 1.453125q0.046875 0 0.078125 0q0.046875 0 0.09375 0l0 1.3125q-1.390625 0 -2.0625 0.75q-0.671875 0.75 -0.671875 2.296875l0 3.390625l-1.25 0l0 -7.578125l1.171875 0l0 1.59375l0.03125 0q0.4375 -0.90625 1.078125 -1.328125q0.640625 -0.4375 1.53125 -0.4375zm4.7712708 0q0.828125 0 1.34375 0.34375q0.53125 0.328125 0.734375 0.9375q0.390625 -0.609375 1.0 -0.9375q0.625 -0.34375 1.375 -0.34375q1.28125 0 1.890625 0.578125q0.625 0.578125 0.625 1.5625l0 5.609375l-1.25 0l0 -5.03125q0 -0.8125 -0.34375 -1.21875q-0.34375 -0.40625 -1.109375 -0.40625q-0.9375 0 -1.46875 0.546875q-0.515625 0.546875 -0.515625 1.34375l0 4.765625l-1.25 0l0 -5.03125q0 -0.8125 -0.34375 -1.21875q-0.34375 -0.40625 -1.078125 -0.40625q-0.59375 0 -1.046875 0.296875q-0.453125 0.28125 -0.71875 0.78125q-0.25 0.484375 -0.25 0.828125l0 4.75l-1.25 0l0 -7.578125l1.171875 0l0 1.109375l0.03125 0q0.421875 -0.640625 1.03125 -0.953125q0.609375 -0.328125 1.421875 -0.328125zm12.111542 0q1.71875 0 2.703125 1.109375q0.984375 1.109375 0.984375 2.859375q0 1.765625 -1.015625 2.859375q-1.0 1.09375 -2.671875 1.09375q-1.640625 0 -2.65625 -1.0625q-1.015625 -1.078125 -1.015625 -2.890625q0 -1.796875 0.984375 -2.875q1.0 -1.09375 2.6875 -1.09375zm-2.359375 3.96875q0 1.3125 0.65625 2.09375q0.671875 0.765625 1.703125 0.765625q1.03125 0 1.6875 -0.78125q0.671875 -0.78125 0.671875 -2.078125q0 -1.296875 -0.671875 -2.078125q-0.65625 -0.796875 -1.703125 -0.796875q-1.0 0 -1.671875 0.78125q-0.671875 0.765625 -0.671875 2.09375zm11.275269 -3.96875q0.046875 0 0.078125 0q0.046875 0 0.09375 0l0 1.3125q-1.390625 0 -2.0625 0.75q-0.671875 0.75 -0.671875 2.296875l0 3.390625l-1.25 0l0 -7.578125l1.171875 0l0 1.59375l0.03125 0q0.4375 -0.90625 1.078125 -1.328125q0.640625 -0.4375 1.53125 -0.4375z" fill-rule="nonzero"/><path fill="#013a3b" d="m603.31366 368.68896l0 0c0 -16.603333 13.459656 -30.062988 30.062988 -30.062988l174.89764 0c7.9732056 0 15.619812 3.1673584 21.257751 8.805267c5.6378784 5.6378784 8.805237 13.284546 8.805237 21.25772l0 0l0 0c0 16.603333 -13.459656 30.063019 -30.062988 30.063019l-174.89764 0l0 0c-16.603333 0 -30.062988 -13.459686 -30.062988 -30.063019z" fill-rule="evenodd"/><path fill="#013a3b" d="m631.2769 359.8071l179.08661 0l0 17.763763l-179.08661 0z" fill-rule="evenodd"/><path fill="#d0fdf2" d="m646.43207 366.21896q1.546875 0 2.1875 0.5625q0.65625 0.546875 0.65625 1.46875q0 3.9375 0 4.375q0 0.421875 0.390625 0.421875q0.09375 0 0.1875 -0.015625q0.109375 -0.03125 0.203125 -0.0625l0 0.96875q-0.171875 0.109375 -0.40625 0.15625q-0.21875 0.046875 -0.484375 0.046875q-0.515625 0 -0.796875 -0.28125q-0.265625 -0.296875 -0.265625 -0.890625q-0.5 0.59375 -1.171875 0.890625q-0.671875 0.28125 -1.5 0.28125q-1.171875 0 -1.84375 -0.546875q-0.65625 -0.5625 -0.65625 -1.578125q0 -1.015625 0.640625 -1.609375q0.65625 -0.609375 3.078125 -0.90625q0.8125 -0.109375 1.09375 -0.3125q0.296875 -0.203125 0.296875 -0.625q0 -0.625 -0.40625 -0.9375q-0.40625 -0.3125 -1.28125 -0.3125q-0.921875 0 -1.390625 0.359375q-0.453125 0.34375 -0.5 1.078125l-1.234375 0q0.046875 -1.25 0.875 -1.890625q0.84375 -0.640625 2.328125 -0.640625zm-2.1875 5.703125q0 0.53125 0.390625 0.828125q0.390625 0.296875 1.078125 0.296875q1.046875 0 1.671875 -0.515625q0.640625 -0.53125 0.640625 -1.171875l0 -1.3125q-0.3125 0.234375 -0.8125 0.3125q-0.5 0.078125 -1.328125 0.1875q-0.84375 0.125 -1.25 0.453125q-0.390625 0.328125 -0.390625 0.921875zm8.278259 -8.421875l0 10.46875l-1.234375 0l0 -10.46875l1.234375 0zm3.2561035 0l0 10.46875l-1.234375 0l0 -10.46875l1.234375 0zm5.2092896 2.71875q1.71875 0 2.703125 1.109375q0.984375 1.109375 0.984375 2.859375q0 1.765625 -1.015625 2.859375q-1.0 1.09375 -2.671875 1.09375q-1.640625 0 -2.65625 -1.0625q-1.015625 -1.078125 -1.015625 -2.890625q0 -1.796875 0.984375 -2.875q1.0 -1.09375 2.6875 -1.09375zm-2.359375 3.96875q0 1.3125 0.65625 2.09375q0.671875 0.765625 1.703125 0.765625q1.03125 0 1.6875 -0.78125q0.671875 -0.78125 0.671875 -2.078125q0 -1.296875 -0.671875 -2.078125q-0.65625 -0.796875 -1.703125 -0.796875q-1.0 0 -1.671875 0.78125q-0.671875 0.765625 -0.671875 2.09375zm8.197144 -3.796875l1.71875 6.203125l0.03125 0l1.515625 -6.203125l1.359375 0l1.59375 6.15625l0 0.046875l0.03125 0l1.6875 -6.203125l1.296875 0l-2.40625 7.5625l-0.015625 0.015625l-1.3125 0l-1.53125 -5.984375l-0.015625 -0.046875l-0.03125 0l-1.515625 6.03125l-1.34375 0l-2.4375 -7.578125l1.375 0zm15.278564 -2.890625q1.4375 0 2.28125 0.78125q0.859375 0.78125 0.859375 2.3125q0 1.546875 -0.859375 2.328125q-0.84375 0.765625 -2.1875 0.765625l-3.359375 0l0 4.28125l-1.390625 0l0 -10.46875l4.65625 0zm-0.390625 5.015625q1.0 0 1.5625 -0.46875q0.578125 -0.46875 0.578125 -1.453125q0 -0.96875 -0.5625 -1.4375q-0.5625 -0.46875 -1.65625 -0.46875l-2.796875 0l0 3.828125l2.875 0zm8.499756 -2.296875q0.046875 0 0.078125 0q0.046875 0 0.09375 0l0 1.3125q-1.390625 0 -2.0625 0.75q-0.671875 0.75 -0.671875 2.296875l0 3.390625l-1.25 0l0 -7.578125l1.171875 0l0 1.59375l0.03125 0q0.4375 -0.90625 1.078125 -1.328125q0.640625 -0.4375 1.53125 -0.4375zm2.4275513 -2.71875l0 1.53125l-1.234375 0l0 -1.53125l1.234375 0zm0 2.890625l0 7.578125l-1.234375 0l0 -7.578125l1.234375 0zm2.5998535 0l2.125 6.3125l0.03125 0l2.0625 -6.3125l1.3125 0l-2.78125 7.578125l-1.328125 0l-2.8125 -7.578125l1.390625 0zm7.984375 -2.890625l0 1.53125l-1.234375 0l0 -1.53125l1.234375 0zm0 2.890625l0 7.578125l-1.234375 0l0 -7.578125l1.234375 0zm3.2561646 -2.890625l0 10.46875l-1.234375 0l0 -10.46875l1.234375 0zm5.0999146 2.71875q1.625 0 2.515625 1.171875q0.90625 1.171875 0.90625 3.015625l0 0.15625l-5.671875 0l0 0.078125q0 1.09375 0.625 1.75q0.640625 0.65625 1.734375 0.65625q0.828125 0 1.3125 -0.390625q0.5 -0.390625 0.65625 -1.09375l1.234375 0q-0.25 1.265625 -1.109375 1.921875q-0.84375 0.65625 -2.125 0.65625q-1.203125 0 -2.03125 -0.53125q-0.828125 -0.546875 -1.21875 -1.5q-0.390625 -0.96875 -0.390625 -1.96875q0 -1.6875 1.0 -2.796875q1.015625 -1.125 2.5625 -1.125zm-2.25 3.234375l4.359375 0q-0.0625 -0.921875 -0.671875 -1.53125q-0.609375 -0.609375 -1.53125 -0.609375q-0.859375 0 -1.46875 0.578125q-0.609375 0.578125 -0.6875 1.5625zm10.043884 -3.234375q0.796875 0 1.375 0.34375q0.578125 0.34375 0.90625 0.921875l0.015625 0l0 -1.09375l1.15625 0l0 7.015625q0 1.78125 -0.859375 2.703125q-0.859375 0.9375 -2.640625 0.9375q-1.3125 0 -2.203125 -0.578125q-0.890625 -0.5625 -0.9375 -1.640625l1.234375 0q0.03125 0.578125 0.625 0.890625q0.59375 0.328125 1.34375 0.328125q1.09375 0 1.6875 -0.734375q0.59375 -0.71875 0.59375 -2.15625l0 -0.46875l-0.03125 0q-0.296875 0.625 -0.9375 1.0q-0.625 0.359375 -1.4375 0.359375q-1.53125 0 -2.453125 -1.046875q-0.921875 -1.0625 -0.921875 -2.78125q0 -1.734375 0.921875 -2.859375q0.921875 -1.140625 2.5625 -1.140625zm-2.171875 3.84375q0 1.359375 0.5625 2.125q0.578125 0.765625 1.578125 0.765625q1.03125 0 1.640625 -0.796875q0.609375 -0.796875 0.609375 -2.125q0 -1.21875 -0.5625 -1.96875q-0.5625 -0.75 -1.59375 -0.75q-1.046875 0 -1.640625 0.75q-0.59375 0.75 -0.59375 2.0zm10.665894 -3.84375q1.625 0 2.515625 1.171875q0.90625 1.171875 0.90625 3.015625l0 0.15625l-5.671875 0l0 0.078125q0 1.09375 0.625 1.75q0.640625 0.65625 1.734375 0.65625q0.828125 0 1.3125 -0.390625q0.5 -0.390625 0.65625 -1.09375l1.234375 0q-0.25 1.265625 -1.109375 1.921875q-0.84375 0.65625 -2.125 0.65625q-1.203125 0 -2.03125 -0.53125q-0.828125 -0.546875 -1.21875 -1.5q-0.390625 -0.96875 -0.390625 -1.96875q0 -1.6875 1.0 -2.796875q1.015625 -1.125 2.5625 -1.125zm-2.25 3.234375l4.359375 0q-0.0625 -0.921875 -0.671875 -1.53125q-0.609375 -0.609375 -1.53125 -0.609375q-0.859375 0 -1.46875 0.578125q-0.609375 0.578125 -0.6875 1.5625zm14.387634 -5.953125l0 1.1875l-5.828125 0l0 3.3125l5.4375 0l0 1.171875l-5.4375 0l0 3.625l5.890625 0l0 1.171875l-7.28125 0l0 -10.46875l7.21875 0zm4.0463867 2.71875q1.53125 0 2.265625 0.59375q0.75 0.59375 0.828125 1.78125l-1.25 0l0 -0.015625q-0.046875 -0.609375 -0.53125 -0.9375q-0.46875 -0.328125 -1.21875 -0.328125q-0.75 0 -1.1875 0.265625q-0.421875 0.25 -0.421875 0.703125q0 0.40625 0.375 0.671875q0.390625 0.265625 1.15625 0.4375l1.171875 0.265625q1.109375 0.234375 1.671875 0.75q0.578125 0.5 0.578125 1.34375q0 1.125 -0.875 1.765625q-0.859375 0.625 -2.34375 0.625q-1.453125 0 -2.3125 -0.640625q-0.84375 -0.65625 -0.90625 -1.921875l1.25 0q0.015625 0.703125 0.546875 1.09375q0.546875 0.375 1.484375 0.375q0.90625 0 1.359375 -0.28125q0.46875 -0.296875 0.46875 -0.84375q0 -0.515625 -0.46875 -0.8125q-0.453125 -0.296875 -1.875 -0.578125q-1.4375 -0.28125 -2.03125 -0.796875q-0.578125 -0.515625 -0.578125 -1.359375q0 -1.0 0.8125 -1.578125q0.8125 -0.578125 2.03125 -0.578125zm7.96875 0q1.390625 0 2.25 0.65625q0.875 0.65625 1.03125 1.953125l-1.296875 0q-0.140625 -0.734375 -0.640625 -1.125q-0.484375 -0.390625 -1.234375 -0.390625q-1.15625 0 -1.765625 0.78125q-0.59375 0.765625 -0.59375 2.1875q0 1.25 0.59375 2.015625q0.59375 0.75 1.625 0.75q0.90625 0 1.421875 -0.484375q0.53125 -0.5 0.65625 -1.359375l1.265625 0q-0.203125 1.40625 -1.0625 2.171875q-0.859375 0.765625 -2.265625 0.765625q-1.65625 0 -2.609375 -1.03125q-0.9375 -1.046875 -0.9375 -2.828125q0 -1.859375 0.953125 -2.953125q0.953125 -1.109375 2.609375 -1.109375zm7.8095093 0q1.546875 0 2.1875 0.5625q0.65625 0.546875 0.65625 1.46875q0 3.9375 0 4.375q0 0.421875 0.390625 0.421875q0.09375 0 0.1875 -0.015625q0.109375 -0.03125 0.203125 -0.0625l0 0.96875q-0.171875 0.109375 -0.40625 0.15625q-0.21875 0.046875 -0.484375 0.046875q-0.515625 0 -0.796875 -0.28125q-0.265625 -0.296875 -0.265625 -0.890625q-0.5 0.59375 -1.171875 0.890625q-0.671875 0.28125 -1.5 0.28125q-1.171875 0 -1.84375 -0.546875q-0.65625 -0.5625 -0.65625 -1.578125q0 -1.015625 0.640625 -1.609375q0.65625 -0.609375 3.078125 -0.90625q0.8125 -0.109375 1.09375 -0.3125q0.296875 -0.203125 0.296875 -0.625q0 -0.625 -0.40625 -0.9375q-0.40625 -0.3125 -1.28125 -0.3125q-0.921875 0 -1.390625 0.359375q-0.453125 0.34375 -0.5 1.078125l-1.234375 0q0.046875 -1.25 0.875 -1.890625q0.84375 -0.640625 2.328125 -0.640625zm-2.1875 5.703125q0 0.53125 0.390625 0.828125q0.390625 0.296875 1.078125 0.296875q1.046875 0 1.671875 -0.515625q0.640625 -0.53125 0.640625 -1.171875l0 -1.3125q-0.3125 0.234375 -0.8125 0.3125q-0.5 0.078125 -1.328125 0.1875q-0.84375 0.125 -1.25 0.453125q-0.390625 0.328125 -0.390625 0.921875zm8.278259 -8.421875l0 10.46875l-1.234375 0l0 -10.46875l1.234375 0zm5.0373535 2.71875q1.546875 0 2.1875 0.5625q0.65625 0.546875 0.65625 1.46875q0 3.9375 0 4.375q0 0.421875 0.390625 0.421875q0.09375 0 0.1875 -0.015625q0.109375 -0.03125 0.203125 -0.0625l0 0.96875q-0.171875 0.109375 -0.40625 0.15625q-0.21875 0.046875 -0.484375 0.046875q-0.515625 0 -0.796875 -0.28125q-0.265625 -0.296875 -0.265625 -0.890625q-0.5 0.59375 -1.171875 0.890625q-0.671875 0.28125 -1.5 0.28125q-1.171875 0 -1.84375 -0.546875q-0.65625 -0.5625 -0.65625 -1.578125q0 -1.015625 0.640625 -1.609375q0.65625 -0.609375 3.078125 -0.90625q0.8125 -0.109375 1.09375 -0.3125q0.296875 -0.203125 0.296875 -0.625q0 -0.625 -0.40625 -0.9375q-0.40625 -0.3125 -1.28125 -0.3125q-0.921875 0 -1.390625 0.359375q-0.453125 0.34375 -0.5 1.078125l-1.234375 0q0.046875 -1.25 0.875 -1.890625q0.84375 -0.640625 2.328125 -0.640625zm-2.1875 5.703125q0 0.53125 0.390625 0.828125q0.390625 0.296875 1.078125 0.296875q1.046875 0 1.671875 -0.515625q0.640625 -0.53125 0.640625 -1.171875l0 -1.3125q-0.3125 0.234375 -0.8125 0.3125q-0.5 0.078125 -1.328125 0.1875q-0.84375 0.125 -1.25 0.453125q-0.390625 0.328125 -0.390625 0.921875zm8.700134 -7.796875l0 2.265625l1.5 0l0 1.109375l-1.5 0l0 4.734375q0 0.5625 0.375 0.59375q0.375 0.03125 0.78125 0.03125l0.34375 0l0 1.109375l-1.015625 0q-1.03125 0 -1.390625 -0.359375q-0.34375 -0.375 -0.34375 -1.234375l0 -4.875l-1.296875 0l0 -1.109375l1.296875 0l0 -2.265625l1.25 0zm4.194031 -0.625l0 1.53125l-1.234375 0l0 -1.53125l1.234375 0zm0 2.890625l0 7.578125l-1.234375 0l0 -7.578125l1.234375 0zm5.2092285 -0.171875q1.71875 0 2.703125 1.109375q0.984375 1.109375 0.984375 2.859375q0 1.765625 -1.015625 2.859375q-1.0 1.09375 -2.671875 1.09375q-1.640625 0 -2.65625 -1.0625q-1.015625 -1.078125 -1.015625 -2.890625q0 -1.796875 0.984375 -2.875q1.0 -1.09375 2.6875 -1.09375zm-2.359375 3.96875q0 1.3125 0.65625 2.09375q0.671875 0.765625 1.703125 0.765625q1.03125 0 1.6875 -0.78125q0.671875 -0.78125 0.671875 -2.078125q0 -1.296875 -0.671875 -2.078125q-0.65625 -0.796875 -1.703125 -0.796875q-1.0 0 -1.671875 0.78125q-0.671875 0.765625 -0.671875 2.09375zm11.181519 -3.96875q1.359375 0 1.984375 0.703125q0.625 0.703125 0.625 2.0l0 5.046875l-1.25 0l0 -5.171875q0 -0.640625 -0.421875 -1.0625q-0.40625 -0.421875 -1.125 -0.421875q-1.0625 0 -1.65625 0.65625q-0.578125 0.640625 -0.578125 1.671875l0 4.328125l-1.25 0l0 -7.578125l1.171875 0l0 1.203125l0.03125 0q0.421875 -0.703125 1.015625 -1.03125q0.609375 -0.34375 1.453125 -0.34375z" fill-rule="nonzero"/><path fill="#013a3b" d="m327.40988 290.43896l0 0c0 -16.603333 13.459656 -30.062988 30.062988 -30.062988l145.41733 0c7.9732056 0 15.619873 3.1673584 21.257751 8.805267c5.6378784 5.6378784 8.805237 13.284546 8.805237 21.25772l0 0l0 0c0 16.603333 -13.459656 30.063019 -30.062988 30.063019l-145.41733 0c-16.603333 0 -30.062988 -13.459686 -30.062988 -30.063019z" fill-rule="evenodd"/><path fill="#013a3b" d="m352.38608 272.65945l155.59055 0l0 35.55905l-155.59055 0z" fill-rule="evenodd"/><path fill="#d0fdf2" d="m366.36472 285.2502q1.4375 0 2.28125 0.78125q0.859375 0.78125 0.859375 2.3125q0 1.546875 -0.859375 2.328125q-0.84375 0.765625 -2.1875 0.765625l-3.359375 0l0 4.28125l-1.390625 0l0 -10.46875l4.65625 0zm-0.390625 5.015625q1.0 0 1.5625 -0.46875q0.578125 -0.46875 0.578125 -1.453125q0 -0.96875 -0.5625 -1.4375q-0.5625 -0.46875 -1.65625 -0.46875l-2.796875 0l0 3.828125l2.875 0zm8.499756 -2.296875q0.046875 0 0.078125 0q0.046875 0 0.09375 0l0 1.3125q-1.390625 0 -2.0625 0.75q-0.671875 0.75 -0.671875 2.296875l0 3.390625l-1.25 0l0 -7.578125l1.171875 0l0 1.59375l0.03125 0q0.4375 -0.90625 1.078125 -1.328125q0.640625 -0.4375 1.53125 -0.4375zm2.4275208 -2.71875l0 1.53125l-1.234375 0l0 -1.53125l1.234375 0zm0 2.890625l0 7.578125l-1.234375 0l0 -7.578125l1.234375 0zm2.599884 0l2.125 6.3125l0.03125 0l2.0625 -6.3125l1.3125 0l-2.78125 7.578125l-1.328125 0l-2.8125 -7.578125l1.390625 0zm7.984375 -2.890625l0 1.53125l-1.234375 0l0 -1.53125l1.234375 0zm0 2.890625l0 7.578125l-1.234375 0l0 -7.578125l1.234375 0zm3.2561646 -2.890625l0 10.46875l-1.234375 0l0 -10.46875l1.234375 0zm5.099884 2.71875q1.625 0 2.515625 1.171875q0.90625 1.171875 0.90625 3.015625l0 0.15625l-5.671875 0l0 0.078125q0 1.09375 0.625 1.75q0.640625 0.65625 1.734375 0.65625q0.828125 0 1.3125 -0.390625q0.5 -0.390625 0.65625 -1.09375l1.234375 0q-0.25 1.265625 -1.109375 1.921875q-0.84375 0.65625 -2.125 0.65625q-1.203125 0 -2.03125 -0.53125q-0.828125 -0.546875 -1.21875 -1.5q-0.390625 -0.96875 -0.390625 -1.96875q0 -1.6875 1.0 -2.796875q1.015625 -1.125 2.5625 -1.125zm-2.25 3.234375l4.359375 0q-0.0625 -0.921875 -0.671875 -1.53125q-0.609375 -0.609375 -1.53125 -0.609375q-0.859375 0 -1.46875 0.578125q-0.609375 0.578125 -0.6875 1.5625zm10.043884 -3.234375q0.796875 0 1.375 0.34375q0.578125 0.34375 0.90625 0.921875l0.015625 0l0 -1.09375l1.15625 0l0 7.015625q0 1.78125 -0.859375 2.703125q-0.859375 0.9375 -2.640625 0.9375q-1.3125 0 -2.203125 -0.578125q-0.890625 -0.5625 -0.9375 -1.640625l1.234375 0q0.03125 0.578125 0.625 0.890625q0.59375 0.328125 1.34375 0.328125q1.09375 0 1.6875 -0.734375q0.59375 -0.71875 0.59375 -2.15625l0 -0.46875l-0.03125 0q-0.296875 0.625 -0.9375 1.0q-0.625 0.359375 -1.4375 0.359375q-1.53125 0 -2.453125 -1.046875q-0.921875 -1.0625 -0.921875 -2.78125q0 -1.734375 0.921875 -2.859375q0.921875 -1.140625 2.5625 -1.140625zm-2.171875 3.84375q0 1.359375 0.5625 2.125q0.578125 0.765625 1.578125 0.765625q1.03125 0 1.640625 -0.796875q0.609375 -0.796875 0.609375 -2.125q0 -1.21875 -0.5625 -1.96875q-0.5625 -0.75 -1.59375 -0.75q-1.046875 0 -1.640625 0.75q-0.59375 0.75 -0.59375 2.0zm10.665894 -3.84375q1.625 0 2.515625 1.171875q0.90625 1.171875 0.90625 3.015625l0 0.15625l-5.671875 0l0 0.078125q0 1.09375 0.625 1.75q0.640625 0.65625 1.734375 0.65625q0.828125 0 1.3125 -0.390625q0.5 -0.390625 0.65625 -1.09375l1.234375 0q-0.25 1.265625 -1.109375 1.921875q-0.84375 0.65625 -2.125 0.65625q-1.203125 0 -2.03125 -0.53125q-0.828125 -0.546875 -1.21875 -1.5q-0.390625 -0.96875 -0.390625 -1.96875q0 -1.6875 1.0 -2.796875q1.015625 -1.125 2.5625 -1.125zm-2.25 3.234375l4.359375 0q-0.0625 -0.921875 -0.671875 -1.53125q-0.609375 -0.609375 -1.53125 -0.609375q-0.859375 0 -1.46875 0.578125q-0.609375 0.578125 -0.6875 1.5625zm13.731384 -5.953125l0 10.46875l-1.234375 0l0 -1.015625l-0.03125 0q-0.296875 0.578125 -0.9375 0.890625q-0.640625 0.296875 -1.484375 0.296875q-1.59375 0 -2.546875 -1.09375q-0.9375 -1.109375 -0.9375 -2.890625q0 -1.75 0.921875 -2.84375q0.921875 -1.09375 2.53125 -1.09375q0.734375 0 1.40625 0.296875q0.671875 0.296875 1.046875 0.890625l0.03125 0l0 -3.90625l1.234375 0zm-5.859375 6.734375q0 1.234375 0.625 2.03125q0.640625 0.78125 1.71875 0.78125q1.109375 0 1.703125 -0.78125q0.609375 -0.796875 0.609375 -2.078125q0 -1.296875 -0.625 -2.078125q-0.609375 -0.796875 -1.78125 -0.796875q-1.0625 0 -1.65625 0.78125q-0.59375 0.78125 -0.59375 2.140625zm16.494202 -6.984375q1.75 0 2.90625 0.90625q1.171875 0.90625 1.40625 2.5l-1.390625 0q-0.234375 -1.078125 -1.015625 -1.65625q-0.765625 -0.578125 -1.921875 -0.578125q-1.65625 0 -2.59375 1.1875q-0.9375 1.171875 -0.9375 3.0625q0 2.0 0.921875 3.1875q0.921875 1.1875 2.625 1.1875q1.28125 0 2.09375 -0.8125q0.828125 -0.8125 0.9375 -2.203125l1.390625 0q-0.234375 2.03125 -1.421875 3.109375q-1.171875 1.078125 -3.109375 1.078125q-2.25 0 -3.546875 -1.484375q-1.296875 -1.5 -1.296875 -3.96875q0 -2.4375 1.34375 -3.96875q1.34375 -1.546875 3.609375 -1.546875zm9.209259 2.96875q1.71875 0 2.703125 1.109375q0.984375 1.109375 0.984375 2.859375q0 1.765625 -1.015625 2.859375q-1.0 1.09375 -2.671875 1.09375q-1.640625 0 -2.65625 -1.0625q-1.015625 -1.078125 -1.015625 -2.890625q0 -1.796875 0.984375 -2.875q1.0 -1.09375 2.6875 -1.09375zm-2.359375 3.96875q0 1.3125 0.65625 2.09375q0.671875 0.765625 1.703125 0.765625q1.03125 0 1.6875 -0.78125q0.671875 -0.78125 0.671875 -2.078125q0 -1.296875 -0.671875 -2.078125q-0.65625 -0.796875 -1.703125 -0.796875q-1.0 0 -1.671875 0.78125q-0.671875 0.765625 -0.671875 2.09375zm11.181519 -3.96875q1.359375 0 1.984375 0.703125q0.625 0.703125 0.625 2.0l0 5.046875l-1.25 0l0 -5.171875q0 -0.640625 -0.421875 -1.0625q-0.40625 -0.421875 -1.125 -0.421875q-1.0625 0 -1.65625 0.65625q-0.578125 0.640625 -0.578125 1.671875l0 4.328125l-1.25 0l0 -7.578125l1.171875 0l0 1.203125l0.03125 0q0.421875 -0.703125 1.015625 -1.03125q0.609375 -0.34375 1.453125 -0.34375zm6.213623 -2.09375l0 2.265625l1.5 0l0 1.109375l-1.5 0l0 4.734375q0 0.5625 0.375 0.59375q0.375 0.03125 0.78125 0.03125l0.34375 0l0 1.109375l-1.015625 0q-1.03125 0 -1.390625 -0.359375q-0.34375 -0.375 -0.34375 -1.234375l0 -4.875l-1.296875 0l0 -1.109375l1.296875 0l0 -2.265625l1.25 0zm5.9752197 2.09375q1.546875 0 2.1875 0.5625q0.65625 0.546875 0.65625 1.46875q0 3.9375 0 4.375q0 0.421875 0.390625 0.421875q0.09375 0 0.1875 -0.015625q0.109375 -0.03125 0.203125 -0.0625l0 0.96875q-0.171875 0.109375 -0.40625 0.15625q-0.21875 0.046875 -0.484375 0.046875q-0.515625 0 -0.796875 -0.28125q-0.265625 -0.296875 -0.265625 -0.890625q-0.5 0.59375 -1.171875 0.890625q-0.671875 0.28125 -1.5 0.28125q-1.171875 0 -1.84375 -0.546875q-0.65625 -0.5625 -0.65625 -1.578125q0 -1.015625 0.640625 -1.609375q0.65625 -0.609375 3.078125 -0.90625q0.8125 -0.109375 1.09375 -0.3125q0.296875 -0.203125 0.296875 -0.625q0 -0.625 -0.40625 -0.9375q-0.40625 -0.3125 -1.28125 -0.3125q-0.921875 0 -1.390625 0.359375q-0.453125 0.34375 -0.5 1.078125l-1.234375 0q0.046875 -1.25 0.875 -1.890625q0.84375 -0.640625 2.328125 -0.640625zm-2.1875 5.703125q0 0.53125 0.390625 0.828125q0.390625 0.296875 1.078125 0.296875q1.046875 0 1.671875 -0.515625q0.640625 -0.53125 0.640625 -1.171875l0 -1.3125q-0.3125 0.234375 -0.8125 0.3125q-0.5 0.078125 -1.328125 0.1875q-0.84375 0.125 -1.25 0.453125q-0.390625 0.328125 -0.390625 0.921875zm8.278259 -8.421875l0 1.53125l-1.234375 0l0 -1.53125l1.234375 0zm0 2.890625l0 7.578125l-1.234375 0l0 -7.578125l1.234375 0zm5.6155396 -0.171875q1.359375 0 1.984375 0.703125q0.625 0.703125 0.625 2.0l0 5.046875l-1.25 0l0 -5.171875q0 -0.640625 -0.421875 -1.0625q-0.40625 -0.421875 -1.125 -0.421875q-1.0625 0 -1.65625 0.65625q-0.578125 0.640625 -0.578125 1.671875l0 4.328125l-1.25 0l0 -7.578125l1.171875 0l0 1.203125l0.03125 0q0.421875 -0.703125 1.015625 -1.03125q0.609375 -0.34375 1.453125 -0.34375zm7.635498 0q1.625 0 2.515625 1.171875q0.90625 1.171875 0.90625 3.015625l0 0.15625l-5.671875 0l0 0.078125q0 1.09375 0.625 1.75q0.640625 0.65625 1.734375 0.65625q0.828125 0 1.3125 -0.390625q0.5 -0.390625 0.65625 -1.09375l1.234375 0q-0.25 1.265625 -1.109375 1.921875q-0.84375 0.65625 -2.125 0.65625q-1.203125 0 -2.03125 -0.53125q-0.828125 -0.546875 -1.21875 -1.5q-0.39065552 -0.96875 -0.39065552 -1.96875q0 -1.6875 1.0000305 -2.796875q1.015625 -1.125 2.5625 -1.125zm-2.25 3.234375l4.359375 0q-0.0625 -0.921875 -0.671875 -1.53125q-0.609375 -0.609375 -1.53125 -0.609375q-0.859375 0 -1.46875 0.578125q-0.609375 0.578125 -0.6875 1.5625zm10.731384 -3.234375q0.046875 0 0.078125 0q0.046875 0 0.09375 0l0 1.3125q-1.390625 0 -2.0625 0.75q-0.671875 0.75 -0.671875 2.296875l0 3.390625l-1.25 0l0 -7.578125l1.171875 0l0 1.59375l0.03125 0q0.4375 -0.90625 1.078125 -1.328125q0.640625 -0.4375 1.53125 -0.4375zm3.6306458 0q1.53125 0 2.265625 0.59375q0.75 0.59375 0.828125 1.78125l-1.25 0l0 -0.015625q-0.046875 -0.609375 -0.53125 -0.9375q-0.46875 -0.328125 -1.21875 -0.328125q-0.75 0 -1.1875 0.265625q-0.421875 0.25 -0.421875 0.703125q0 0.40625 0.375 0.671875q0.390625 0.265625 1.15625 0.4375l1.171875 0.265625q1.109375 0.234375 1.671875 0.75q0.578125 0.5 0.578125 1.34375q0 1.125 -0.875 1.765625q-0.859375 0.625 -2.34375 0.625q-1.453125 0 -2.3125 -0.640625q-0.84375 -0.65625 -0.90625 -1.921875l1.25 0q0.015625 0.703125 0.546875 1.09375q0.546875 0.375 1.484375 0.375q0.90625 0 1.359375 -0.28125q0.46875 -0.296875 0.46875 -0.84375q0 -0.515625 -0.46875 -0.8125q-0.453125 -0.296875 -1.875 -0.578125q-1.4375 -0.28125 -2.03125 -0.796875q-0.578125 -0.515625 -0.578125 -1.359375q0 -1.0 0.8125 -1.578125q0.8125 -0.578125 2.03125 -0.578125z" fill-rule="nonzero"/><path fill="#013a3b" d="m121.66273 214.64699l0 0c0 -16.603333 13.459663 -30.063004 30.062996 -30.063004l85.732285 0l0 0c7.9732056 0 15.619843 3.1673431 21.257751 8.805252c5.637909 5.637909 8.805237 13.284546 8.805237 21.257751l0 0l0 0c0 16.603333 -13.459656 30.062988 -30.062988 30.062988l-85.732285 0c-16.603333 0 -30.062996 -13.459656 -30.062996 -30.062988z" fill-rule="evenodd"/><path fill="#000000" fill-opacity="0.0" d="m136.99081 205.76509l115.2126 0l0 17.763779l-115.2126 0z" fill-rule="evenodd"/><path fill="#d0fdf2" d="m167.89413 209.20824q1.75 0 2.765625 0.84375q1.03125 0.84375 1.09375 2.46875l-1.3125 0q-0.125 -1.0625 -0.78125 -1.59375q-0.640625 -0.546875 -1.828125 -0.546875q-1.109375 0 -1.734375 0.46875q-0.609375 0.46875 -0.609375 1.328125q0 0.609375 0.53125 1.0q0.53125 0.390625 2.84375 0.859375q1.671875 0.34375 2.5 1.0625q0.828125 0.703125 0.828125 1.953125q0 1.46875 -1.203125 2.296875q-1.1875 0.828125 -2.890625 0.828125q-1.890625 0 -3.09375 -0.953125q-1.203125 -0.953125 -1.21875 -2.734375l1.3125 0q0.015625 1.1875 0.859375 1.859375q0.84375 0.65625 2.1875 0.65625q1.265625 0 1.953125 -0.484375q0.703125 -0.5 0.703125 -1.421875q0 -0.75 -0.640625 -1.1875q-0.625 -0.453125 -2.3125 -0.78125q-2.21875 -0.421875 -2.984375 -1.09375q-0.765625 -0.671875 -0.765625 -1.765625q0 -1.40625 1.0625 -2.234375q1.078125 -0.828125 2.734375 -0.828125zm8.934006 2.96875q1.625 0 2.515625 1.171875q0.90625 1.171875 0.90625 3.015625l0 0.15625l-5.671875 0l0 0.078125q0 1.09375 0.625 1.75q0.640625 0.65625 1.734375 0.65625q0.828125 0 1.3125 -0.390625q0.5 -0.390625 0.65625 -1.09375l1.234375 0q-0.25 1.265625 -1.109375 1.921875q-0.84375 0.65625 -2.125 0.65625q-1.203125 0 -2.03125 -0.53125q-0.828125 -0.546875 -1.21875 -1.5q-0.390625 -0.96875 -0.390625 -1.96875q0 -1.6875 1.0 -2.796875q1.015625 -1.125 2.5625 -1.125zm-2.25 3.234375l4.359375 0q-0.0625 -0.921875 -0.671875 -1.53125q-0.609375 -0.609375 -1.53125 -0.609375q-0.859375 0 -1.46875 0.578125q-0.609375 0.578125 -0.6875 1.5625zm10.122009 -3.234375q1.390625 0 2.25 0.65625q0.875 0.65625 1.03125 1.953125l-1.296875 0q-0.140625 -0.734375 -0.640625 -1.125q-0.484375 -0.390625 -1.234375 -0.390625q-1.15625 0 -1.765625 0.78125q-0.59375 0.765625 -0.59375 2.1875q0 1.25 0.59375 2.015625q0.59375 0.75 1.625 0.75q0.90625 0 1.421875 -0.484375q0.53125 -0.5 0.65625 -1.359375l1.265625 0q-0.203125 1.40625 -1.0625 2.171875q-0.859375 0.765625 -2.265625 0.765625q-1.65625 0 -2.609375 -1.03125q-0.9375 -1.046875 -0.9375 -2.828125q0 -1.859375 0.953125 -2.953125q0.953125 -1.109375 2.609375 -1.109375zm7.8720093 0q1.390625 0 2.25 0.65625q0.875 0.65625 1.03125 1.953125l-1.296875 0q-0.140625 -0.734375 -0.640625 -1.125q-0.484375 -0.390625 -1.234375 -0.390625q-1.15625 0 -1.765625 0.78125q-0.59375 0.765625 -0.59375 2.1875q0 1.25 0.59375 2.015625q0.59375 0.75 1.625 0.75q0.90625 0 1.421875 -0.484375q0.53125 -0.5 0.65625 -1.359375l1.265625 0q-0.203125 1.40625 -1.0625 2.171875q-0.859375 0.765625 -2.265625 0.765625q-1.65625 0 -2.609375 -1.03125q-0.9375 -1.046875 -0.9375 -2.828125q0 -1.859375 0.953125 -2.953125q0.953125 -1.109375 2.609375 -1.109375zm7.9813843 0q1.71875 0 2.703125 1.109375q0.984375 1.109375 0.984375 2.859375q0 1.765625 -1.015625 2.859375q-1.0 1.09375 -2.671875 1.09375q-1.640625 0 -2.65625 -1.0625q-1.015625 -1.078125 -1.015625 -2.890625q0 -1.796875 0.984375 -2.875q1.0 -1.09375 2.6875 -1.09375zm-2.359375 3.96875q0 1.3125 0.65625 2.09375q0.671875 0.765625 1.703125 0.765625q1.03125 0 1.6875 -0.78125q0.671875 -0.78125 0.671875 -2.078125q0 -1.296875 -0.671875 -2.078125q-0.65625 -0.796875 -1.703125 -0.796875q-1.0 0 -1.671875 0.78125q-0.671875 0.765625 -0.671875 2.09375zm11.165894 -3.96875q0.828125 0 1.34375 0.34375q0.53125 0.328125 0.734375 0.9375q0.390625 -0.609375 1.0 -0.9375q0.625 -0.34375 1.375 -0.34375q1.28125 0 1.890625 0.578125q0.625 0.578125 0.625 1.5625l0 5.609375l-1.25 0l0 -5.03125q0 -0.8125 -0.34375 -1.21875q-0.34375 -0.40625 -1.109375 -0.40625q-0.9375 0 -1.46875 0.546875q-0.515625 0.546875 -0.515625 1.34375l0 4.765625l-1.25 0l0 -5.03125q0 -0.8125 -0.34375 -1.21875q-0.34375 -0.40625 -1.078125 -0.40625q-0.59375 0 -1.046875 0.296875q-0.453125 0.28125 -0.71875 0.78125q-0.25 0.484375 -0.25 0.828125l0 4.75l-1.25 0l0 -7.578125l1.171875 0l0 1.109375l0.03125 0q0.421875 -0.640625 1.03125 -0.953125q0.609375 -0.328125 1.421875 -0.328125zm12.580307 0q1.625 0 2.5625 1.125q0.9375 1.109375 0.9375 2.859375q0 1.765625 -0.9375 2.859375q-0.921875 1.078125 -2.53125 1.078125q-0.703125 0 -1.390625 -0.28125q-0.671875 -0.296875 -1.0625 -0.90625l-0.03125 0l0 3.921875l-1.234375 0l0 -10.484375l1.234375 0l0 1.03125l0.03125 0q0.296875 -0.59375 0.921875 -0.890625q0.640625 -0.3125 1.5 -0.3125zm-2.484375 3.953125q0 1.328125 0.625 2.109375q0.640625 0.765625 1.765625 0.765625q1.078125 0 1.671875 -0.765625q0.59375 -0.78125 0.59375 -2.15625q0 -1.234375 -0.625 -2.015625q-0.625 -0.796875 -1.734375 -0.796875q-1.09375 0 -1.703125 0.8125q-0.59375 0.796875 -0.59375 2.046875z" fill-rule="nonzero"/><path fill="#eefdf9" d="m446.2279 213.52887l0 0c0 -16.603333 13.459656 -30.062988 30.062988 -30.062988l169.7008 0c7.9732056 0 15.619812 3.1673431 21.257751 8.805252c5.6378784 5.6378937 8.805237 13.284531 8.805237 21.257736l0 0l0 0c0 16.603333 -13.459656 30.062988 -30.062988 30.062988l-169.7008 0l0 0c-16.603333 0 -30.062988 -13.459656 -30.062988 -30.062988z" fill-rule="evenodd"/><path stroke="#013a3b" stroke-width="1.0" stroke-linejoin="round" stroke-linecap="butt" stroke-dasharray="4.0,3.0" d="m446.2279 213.52887l0 0c0 -16.603333 13.459656 -30.062988 30.062988 -30.062988l169.7008 0c7.9732056 0 15.619812 3.1673431 21.257751 8.805252c5.6378784 5.6378937 8.805237 13.284531 8.805237 21.257736l0 0l0 0c0 16.603333 -13.459656 30.062988 -30.062988 30.062988l-169.7008 0l0 0c-16.603333 0 -30.062988 -13.459656 -30.062988 -30.062988z" fill-rule="evenodd"/><path fill="#eefdf9" d="m479.80795 195.74869l162.67715 0l0 35.55905l-162.67715 0z" fill-rule="evenodd"/><path fill="#005a4c" d="m485.84875 211.05821q0.046875 0 0.078125 0q0.046875 0 0.09375 0l0 1.3125q-1.390625 0 -2.0625 0.75q-0.671875 0.75 -0.671875 2.296875l0 3.390625l-1.25 0l0 -7.578125l1.171875 0l0 1.59375l0.03125 0q0.4375 -0.90625 1.078125 -1.328125q0.640625 -0.4375 1.53125 -0.4375zm4.0062866 0q1.625 0 2.515625 1.171875q0.90625 1.171875 0.90625 3.015625l0 0.15625l-5.671875 0l0 0.078125q0 1.09375 0.625 1.75q0.640625 0.65625 1.734375 0.65625q0.828125 0 1.3125 -0.390625q0.5 -0.390625 0.65625 -1.09375l1.234375 0q-0.25 1.265625 -1.109375 1.921875q-0.84375 0.65625 -2.125 0.65625q-1.203125 0 -2.03125 -0.53125q-0.828125 -0.546875 -1.21875 -1.5q-0.390625 -0.96875 -0.390625 -1.96875q0 -1.6875 1.0 -2.796875q1.015625 -1.125 2.5625 -1.125zm-2.25 3.234375l4.359375 0q-0.0625 -0.921875 -0.671875 -1.53125q-0.609375 -0.609375 -1.53125 -0.609375q-0.859375 0 -1.46875 0.578125q-0.609375 0.578125 -0.6875 1.5625zm10.059509 -3.234375q1.546875 0 2.1875 0.5625q0.65625 0.546875 0.65625 1.46875q0 3.9375 0 4.375q0 0.421875 0.390625 0.421875q0.09375 0 0.1875 -0.015625q0.109375 -0.03125 0.203125 -0.0625l0 0.96875q-0.171875 0.109375 -0.40625 0.15625q-0.21875 0.046875 -0.484375 0.046875q-0.515625 0 -0.796875 -0.28125q-0.265625 -0.296875 -0.265625 -0.890625q-0.5 0.59375 -1.171875 0.890625q-0.671875 0.28125 -1.5 0.28125q-1.171875 0 -1.84375 -0.546875q-0.65625 -0.5625 -0.65625 -1.578125q0 -1.015625 0.640625 -1.609375q0.65625 -0.609375 3.078125 -0.90625q0.8125 -0.109375 1.09375 -0.3125q0.296875 -0.203125 0.296875 -0.625q0 -0.625 -0.40625 -0.9375q-0.40625 -0.3125 -1.28125 -0.3125q-0.921875 0 -1.390625 0.359375q-0.453125 0.34375 -0.5 1.078125l-1.234375 0q0.046875 -1.25 0.875 -1.890625q0.84375 -0.640625 2.328125 -0.640625zm-2.1875 5.703125q0 0.53125 0.390625 0.828125q0.390625 0.296875 1.078125 0.296875q1.046875 0 1.671875 -0.515625q0.640625 -0.53125 0.640625 -1.171875l0 -1.3125q-0.3125 0.234375 -0.8125 0.3125q-0.5 0.078125 -1.328125 0.1875q-0.84375 0.125 -1.25 0.453125q-0.390625 0.328125 -0.390625 0.921875zm13.731384 -8.421875l0 10.46875l-1.234375 0l0 -1.015625l-0.03125 0q-0.296875 0.578125 -0.9375 0.890625q-0.640625 0.296875 -1.484375 0.296875q-1.59375 0 -2.546875 -1.09375q-0.9375 -1.109375 -0.9375 -2.890625q0 -1.75 0.921875 -2.84375q0.921875 -1.09375 2.53125 -1.09375q0.734375 0 1.40625 0.296875q0.671875 0.296875 1.046875 0.890625l0.03125 0l0 -3.90625l1.234375 0zm-5.859375 6.734375q0 1.234375 0.625 2.03125q0.640625 0.78125 1.71875 0.78125q1.109375 0 1.703125 -0.78125q0.609375 -0.796875 0.609375 -2.078125q0 -1.296875 -0.625 -2.078125q-0.609375 -0.796875 -1.78125 -0.796875q-1.0625 0 -1.65625 0.78125q-0.59375 0.78125 -0.59375 2.140625zm12.406616 -6.984375q1.53125 0 2.65625 0.71875q1.140625 0.703125 1.75 1.984375q0.609375 1.265625 0.609375 2.78125q0 1.53125 -0.609375 2.8125q-0.609375 1.265625 -1.75 1.96875q-1.140625 0.703125 -2.65625 0.703125q-1.5 0 -2.640625 -0.703125q-1.1250305 -0.703125 -1.7500305 -1.96875q-0.609375 -1.265625 -0.609375 -2.8125q0 -2.375 1.3594055 -3.921875q1.359375 -1.5625 3.640625 -1.5625zm-3.609375 5.484375q0 1.171875 0.421875 2.1875q0.421875 1.0 1.25 1.5625q0.828125 0.5625 1.9375 0.5625q1.6875 0 2.65625 -1.203125q0.96875 -1.21875 0.96875 -3.109375q0 -1.859375 -0.96875 -3.078125q-0.953125 -1.234375 -2.671875 -1.234375q-1.671875 0 -2.640625 1.234375q-0.953125 1.234375 -0.953125 3.078125zm13.791565 -2.515625q1.359375 0 1.984375 0.703125q0.625 0.703125 0.625 2.0l0 5.046875l-1.25 0l0 -5.171875q0 -0.640625 -0.421875 -1.0625q-0.40625 -0.421875 -1.125 -0.421875q-1.0625 0 -1.65625 0.65625q-0.578125 0.640625 -0.578125 1.671875l0 4.328125l-1.25 0l0 -7.578125l1.171875 0l0 1.203125l0.03125 0q0.421875 -0.703125 1.015625 -1.03125q0.609375 -0.34375 1.453125 -0.34375zm5.791687 -2.71875l0 10.46875l-1.234375 0l0 -10.46875l1.234375 0zm2.5374146 2.890625l2.203125 6.203125l0.03125 0l2.125 -6.203125l1.328125 0l-3.21875 8.390625q-0.515625 1.3125 -0.984375 1.765625q-0.46875 0.453125 -1.296875 0.453125q-0.234375 0 -0.453125 -0.03125q-0.203125 -0.015625 -0.40625 -0.09375l0 -1.140625q0.171875 0.046875 0.34375 0.109375q0.1875 0.0625 0.375 0.0625q0.765625 0 1.0625 -0.765625q0.296875 -0.75 0.484375 -1.21875l-3.015625 -7.53125l1.421875 0zm11.9375 -2.890625q1.359375 0 2.234375 0.734375q0.875 0.71875 0.875 2.015625q0 1.03125 -0.453125 1.71875q-0.453125 0.671875 -1.375 0.921875l0 0.03125q0.796875 0.15625 1.171875 0.75q0.375 0.578125 0.4375 2.0q0.03125 0.90625 0.171875 1.4375q0.140625 0.515625 0.40625 0.859375l-1.546875 0q-0.140625 -0.171875 -0.1875 -0.34375q-0.03125 -0.171875 -0.0625 -0.453125l-0.0625 -1.15625q-0.015625 -0.8125 -0.34375 -1.640625q-0.328125 -0.84375 -1.4375 -0.875l-3.4375 0l0 4.46875l-1.390625 0l0 -10.46875l5.0 0zm-0.625 4.828125q1.15625 0 1.75 -0.453125q0.59375 -0.453125 0.59375 -1.40625q0 -0.84375 -0.484375 -1.3125q-0.46875 -0.46875 -1.328125 -0.46875l-3.515625 0l0 3.640625l2.984375 0zm8.727905 -2.109375q1.71875 0 2.703125 1.109375q0.984375 1.109375 0.984375 2.859375q0 1.765625 -1.015625 2.859375q-1.0 1.09375 -2.671875 1.09375q-1.640625 0 -2.65625 -1.0625q-1.015625 -1.078125 -1.015625 -2.890625q0 -1.796875 0.984375 -2.875q1.0 -1.09375 2.6875 -1.09375zm-2.359375 3.96875q0 1.3125 0.65625 2.09375q0.671875 0.765625 1.703125 0.765625q1.03125 0 1.6875 -0.78125q0.671875 -0.78125 0.671875 -2.078125q0 -1.296875 -0.671875 -2.078125q-0.65625 -0.796875 -1.703125 -0.796875q-1.0 0 -1.671875 0.78125q-0.671875 0.765625 -0.671875 2.09375zm10.775269 -3.96875q1.71875 0 2.703125 1.109375q0.984375 1.109375 0.984375 2.859375q0 1.765625 -1.015625 2.859375q-1.0 1.09375 -2.671875 1.09375q-1.640625 0 -2.65625 -1.0625q-1.015625 -1.078125 -1.015625 -2.890625q0 -1.796875 0.984375 -2.875q1.0 -1.09375 2.6875 -1.09375zm-2.359375 3.96875q0 1.3125 0.65625 2.09375q0.671875 0.765625 1.703125 0.765625q1.03125 0 1.6875 -0.78125q0.671875 -0.78125 0.671875 -2.078125q0 -1.296875 -0.671875 -2.078125q-0.65625 -0.796875 -1.703125 -0.796875q-1.0 0 -1.671875 0.78125q-0.671875 0.765625 -0.671875 2.09375zm9.244019 -6.0625l0 2.265625l1.5 0l0 1.109375l-1.5 0l0 4.734375q0 0.5625 0.375 0.59375q0.375 0.03125 0.78125 0.03125l0.34375 0l0 1.109375l-1.015625 0q-1.03125 0 -1.390625 -0.359375q-0.34375 -0.375 -0.34375 -1.234375l0 -4.875l-1.296875 0l0 -1.109375l1.296875 0l0 -2.265625l1.25 0zm9.959595 -0.625l0 1.1875l-5.484375 0l0 3.3125l4.8125 0l0 1.171875l-4.8125 0l0 4.796875l-1.390625 0l0 -10.46875l6.875 0zm2.6502686 0l0 1.53125l-1.234375 0l0 -1.53125l1.234375 0zm0 2.890625l0 7.578125l-1.234375 0l0 -7.578125l1.234375 0zm3.2561646 -2.890625l0 10.46875l-1.234375 0l0 -10.46875l1.234375 0zm5.0999146 2.71875q1.625 0 2.515625 1.171875q0.90625 1.171875 0.90625 3.015625l0 0.15625l-5.671875 0l0 0.078125q0 1.09375 0.625 1.75q0.640625 0.65625 1.734375 0.65625q0.828125 0 1.3125 -0.390625q0.5 -0.390625 0.65625 -1.09375l1.234375 0q-0.25 1.265625 -1.109375 1.921875q-0.84375 0.65625 -2.125 0.65625q-1.203125 0 -2.03125 -0.53125q-0.828125 -0.546875 -1.21875 -1.5q-0.390625 -0.96875 -0.390625 -1.96875q0 -1.6875 1.0 -2.796875q1.015625 -1.125 2.5625 -1.125zm-2.25 3.234375l4.359375 0q-0.0625 -0.921875 -0.671875 -1.53125q-0.609375 -0.609375 -1.53125 -0.609375q-0.859375 0 -1.46875 0.578125q-0.609375 0.578125 -0.6875 1.5625zm9.481384 -3.234375q1.53125 0 2.265625 0.59375q0.75 0.59375 0.828125 1.78125l-1.25 0l0 -0.015625q-0.046875 -0.609375 -0.53125 -0.9375q-0.46875 -0.328125 -1.21875 -0.328125q-0.75 0 -1.1875 0.265625q-0.421875 0.25 -0.421875 0.703125q0 0.40625 0.375 0.671875q0.390625 0.265625 1.15625 0.4375l1.171875 0.265625q1.109375 0.234375 1.671875 0.75q0.578125 0.5 0.578125 1.34375q0 1.125 -0.875 1.765625q-0.859375 0.625 -2.34375 0.625q-1.453125 0 -2.3125 -0.640625q-0.84375 -0.65625 -0.90625 -1.921875l1.25 0q0.015625 0.703125 0.546875 1.09375q0.546875 0.375 1.484375 0.375q0.90625 0 1.359375 -0.28125q0.46875 -0.296875 0.46875 -0.84375q0 -0.515625 -0.46875 -0.8125q-0.453125 -0.296875 -1.875 -0.578125q-1.4375 -0.28125 -2.03125 -0.796875q-0.578125 -0.515625 -0.578125 -1.359375q0 -1.0 0.8125 -1.578125q0.8125 -0.578125 2.03125 -0.578125zm5.40625 0.171875l2.203125 6.203125l0.03125 0l2.125 -6.203125l1.328125 0l-3.21875 8.390625q-0.515625 1.3125 -0.984375 1.765625q-0.46875 0.453125 -1.296875 0.453125q-0.234375 0 -0.453125 -0.03125q-0.203125 -0.015625 -0.40625 -0.09375l0 -1.140625q0.171875 0.046875 0.34375 0.109375q0.1875 0.0625 0.375 0.0625q0.765625 0 1.0625 -0.765625q0.296875 -0.75 0.484375 -1.21875l-3.015625 -7.53125l1.421875 0zm9.25 -0.171875q1.53125 0 2.265625 0.59375q0.75 0.59375 0.828125 1.78125l-1.25 0l0 -0.015625q-0.046875 -0.609375 -0.53125 -0.9375q-0.46875 -0.328125 -1.21875 -0.328125q-0.75 0 -1.1875 0.265625q-0.421875 0.25 -0.421875 0.703125q0 0.40625 0.375 0.671875q0.390625 0.265625 1.15625 0.4375l1.171875 0.265625q1.109375 0.234375 1.671875 0.75q0.578125 0.5 0.578125 1.34375q0 1.125 -0.875 1.765625q-0.859375 0.625 -2.34375 0.625q-1.453125 0 -2.3125 -0.640625q-0.84375 -0.65625 -0.90625 -1.921875l1.25 0q0.015625 0.703125 0.546875 1.09375q0.546875 0.375 1.484375 0.375q0.90625 0 1.359375 -0.28125q0.46875 -0.296875 0.46875 -0.84375q0 -0.515625 -0.46875 -0.8125q-0.453125 -0.296875 -1.875 -0.578125q-1.4375 -0.28125 -2.03125 -0.796875q-0.578125 -0.515625 -0.578125 -1.359375q0 -1.0 0.8125 -1.578125q0.8125 -0.578125 2.03125 -0.578125zm6.546875 -2.09375l0 2.265625l1.5 0l0 1.109375l-1.5 0l0 4.734375q0 0.5625 0.375 0.59375q0.375 0.03125 0.78125 0.03125l0.34375 0l0 1.109375l-1.015625 0q-1.03125 0 -1.390625 -0.359375q-0.34375 -0.375 -0.34375 -1.234375l0 -4.875l-1.296875 0l0 -1.109375l1.296875 0l0 -2.265625l1.25 0zm5.8587036 2.09375q1.625 0 2.515625 1.171875q0.90625 1.171875 0.90625 3.015625l0 0.15625l-5.671875 0l0 0.078125q0 1.09375 0.625 1.75q0.640625 0.65625 1.734375 0.65625q0.828125 0 1.3125 -0.390625q0.5 -0.390625 0.65625 -1.09375l1.234375 0q-0.25 1.265625 -1.109375 1.921875q-0.84375 0.65625 -2.125 0.65625q-1.203125 0 -2.03125 -0.53125q-0.828125 -0.546875 -1.21875 -1.5q-0.390625 -0.96875 -0.390625 -1.96875q0 -1.6875 1.0 -2.796875q1.015625 -1.125 2.5625 -1.125zm-2.25 3.234375l4.359375 0q-0.0625 -0.921875 -0.671875 -1.53125q-0.609375 -0.609375 -1.53125 -0.609375q-0.859375 0 -1.46875 0.578125q-0.609375 0.578125 -0.6875 1.5625zm10.622009 -3.234375q0.828125 0 1.34375 0.34375q0.53125 0.328125 0.734375 0.9375q0.390625 -0.609375 1.0 -0.9375q0.625 -0.34375 1.375 -0.34375q1.28125 0 1.890625 0.578125q0.625 0.578125 0.625 1.5625l0 5.609375l-1.25 0l0 -5.03125q0 -0.8125 -0.34375 -1.21875q-0.34375 -0.40625 -1.109375 -0.40625q-0.9375 0 -1.46875 0.546875q-0.515625 0.546875 -0.515625 1.34375l0 4.765625l-1.25 0l0 -5.03125q0 -0.8125 -0.34375 -1.21875q-0.34375 -0.40625 -1.078125 -0.40625q-0.59375 0 -1.046875 0.296875q-0.453125 0.28125 -0.71875 0.78125q-0.25 0.484375 -0.25 0.828125l0 4.75l-1.25 0l0 -7.578125l1.171875 0l0 1.109375l0.03125 0q0.421875 -0.640625 1.03125 -0.953125q0.609375 -0.328125 1.421875 -0.328125z" fill-rule="nonzero"/><path fill="#eefdf9" d="m445.49606 366.23227l0 0c0 -16.603333 13.459656 -30.062988 30.062988 -30.062988l73.44882 0l0 0c7.9732056 0 15.619812 3.1673584 21.257751 8.805267c5.6378784 5.637909 8.805237 13.284546 8.805237 21.25772l0 0l0 0c0 16.603333 -13.459656 30.063019 -30.062988 30.063019l-73.44882 0c-16.603333 0 -30.062988 -13.459686 -30.062988 -30.063019z" fill-rule="evenodd"/><path stroke="#013a3b" stroke-width="1.0" stroke-linejoin="round" stroke-linecap="butt" stroke-dasharray="4.0,3.0" d="m445.49606 366.23227l0 0c0 -16.603333 13.459656 -30.062988 30.062988 -30.062988l73.44882 0l0 0c7.9732056 0 15.619812 3.1673584 21.257751 8.805267c5.6378784 5.637909 8.805237 13.284546 8.805237 21.25772l0 0l0 0c0 16.603333 -13.459656 30.063019 -30.062988 30.063019l-73.44882 0c-16.603333 0 -30.062988 -13.459686 -30.062988 -30.063019z" fill-rule="evenodd"/><path fill="#eefdf9" d="m463.7567 357.3504l97.03937 0l0 17.763763l-97.03937 0z" fill-rule="evenodd"/><path fill="#005a4c" d="m490.0569 360.79355q1.75 0 2.765625 0.84375q1.03125 0.84375 1.09375 2.46875l-1.3125 0q-0.125 -1.0625 -0.78125 -1.59375q-0.640625 -0.546875 -1.828125 -0.546875q-1.109375 0 -1.734375 0.46875q-0.609375 0.46875 -0.609375 1.328125q0 0.609375 0.53125 1.0q0.53125 0.390625 2.84375 0.859375q1.671875 0.34375 2.5 1.0625q0.828125 0.703125 0.828125 1.953125q0 1.46875 -1.203125 2.296875q-1.1875 0.828125 -2.890625 0.828125q-1.890625 0 -3.09375 -0.953125q-1.203125 -0.953125 -1.21875 -2.734375l1.3125 0q0.015625 1.1875 0.859375 1.859375q0.84375 0.65625 2.1875 0.65625q1.265625 0 1.953125 -0.484375q0.703125 -0.5 0.703125 -1.421875q0 -0.75 -0.640625 -1.1875q-0.625 -0.453125 -2.3125 -0.78125q-2.21875 -0.421875 -2.984375 -1.09375q-0.765625 -0.671875 -0.765625 -1.765625q0 -1.40625 1.0625 -2.234375q1.078125 -0.828125 2.734375 -0.828125zm13.199646 0.25l0 1.1875l-5.828125 0l0 3.3125l5.4375 0l0 1.171875l-5.4375 0l0 3.625l5.890625 0l0 1.171875l-7.28125 0l0 -10.46875l7.21875 0zm3.1244812 0l0 9.296875l5.546875 0l0 1.171875l-6.9375 0l0 -10.46875l1.390625 0zm7.8698425 0l0 1.53125l-1.234375 0l0 -1.53125l1.234375 0zm0 2.890625l0 7.578125l-1.234375 0l0 -7.578125l1.234375 0zm5.6155396 -0.171875q1.359375 0 1.984375 0.703125q0.625 0.703125 0.625 2.0l0 5.046875l-1.25 0l0 -5.171875q0 -0.640625 -0.421875 -1.0625q-0.40625 -0.421875 -1.125 -0.421875q-1.0625 0 -1.65625 0.65625q-0.578125 0.640625 -0.578125 1.671875l0 4.328125l-1.25 0l0 -7.578125l1.171875 0l0 1.203125l0.03125 0q0.421875 -0.703125 1.015625 -1.03125q0.609375 -0.34375 1.453125 -0.34375zm5.729248 0.171875l0 5.171875q0 0.640625 0.40625 1.0625q0.40625 0.421875 1.140625 0.421875q1.0625 0 1.640625 -0.65625q0.59375 -0.65625 0.59375 -1.671875l0 -4.328125l1.25 0l0 7.578125l-1.171875 0l0 -1.203125l-0.03125 0q-0.421875 0.71875 -1.046875 1.046875q-0.625 0.328125 -1.421875 0.328125q-1.328125 0 -1.96875 -0.671875q-0.640625 -0.6875 -0.640625 -2.03125l0 -5.046875l1.25 0zm7.901123 0l1.8125 2.640625l0 0l1.890625 -2.640625l1.5 0l-2.609375 3.484375l2.921875 4.09375l-1.59375 0l-2.109375 -3.140625l-2.109375 3.140625l-1.515625 0l2.859375 -3.984375l-2.640625 -3.59375l1.59375 0z" fill-rule="nonzero"/><path fill="#02f4d5" d="m121.66273 366.23227l0 0c0 -16.603333 13.459663 -30.062988 30.062996 -30.062988l239.46455 0c7.9732056 0 15.619843 3.1673584 21.257751 8.805267c5.637909 5.637909 8.805267 13.284546 8.805267 21.25772l0 0l0 0c0 16.603333 -13.459686 30.063019 -30.063019 30.063019l-239.46455 0c-16.603333 0 -30.062996 -13.459686 -30.062996 -30.063019z" fill-rule="evenodd"/><path fill="#02f4d5" d="m150.18242 357.34973l242.55116 0l0 17.763794l-242.55116 0z" fill-rule="evenodd"/><path fill="#005a4c" d="m160.80884 360.79288q1.53125 0 2.65625 0.71875q1.140625 0.703125 1.75 1.984375q0.609375 1.265625 0.609375 2.78125q0 1.53125 -0.609375 2.8125q-0.609375 1.265625 -1.75 1.96875q-1.140625 0.703125 -2.65625 0.703125q-1.5 0 -2.640625 -0.703125q-1.125 -0.703125 -1.75 -1.96875q-0.609375 -1.265625 -0.609375 -2.8125q0 -2.375 1.359375 -3.921875q1.359375 -1.5625 3.640625 -1.5625zm-3.609375 5.484375q0 1.171875 0.421875 2.1875q0.421875 1.0 1.25 1.5625q0.828125 0.5625 1.9375 0.5625q1.6875 0 2.65625 -1.203125q0.96875 -1.21875 0.96875 -3.109375q0 -1.859375 -0.96875 -3.078125q-0.953125 -1.234375 -2.671875 -1.234375q-1.671875 0 -2.640625 1.234375q-0.953125 1.234375 -0.953125 3.078125zm14.979065 -5.234375q1.4375 0 2.28125 0.78125q0.859375 0.78125 0.859375 2.3125q0 1.546875 -0.859375 2.328125q-0.84375 0.765625 -2.1875 0.765625l-3.359375 0l0 4.28125l-1.390625 0l0 -10.46875l4.65625 0zm-0.390625 5.015625q1.0 0 1.5625 -0.46875q0.578125 -0.46875 0.578125 -1.453125q0 -0.96875 -0.5625 -1.4375q-0.5625 -0.46875 -1.65625 -0.46875l-2.796875 0l0 3.828125l2.875 0zm8.568771 -5.015625l4.078125 10.46875l-1.53125 0l-1.140625 -3.15625l-4.4375 0l-1.171875 3.15625l-1.421875 0l4.078125 -10.46875l1.546875 0zm-0.8125 1.265625l-1.765625 4.875l3.53125 0l-1.734375 -4.875l-0.03125 0zm9.918381 -1.515625l-4.328125 10.96875l-1.078125 0l4.34375 -10.96875l1.0625 0zm2.2712708 0.25l0 5.21875l5.3125 -5.21875l1.796875 0l-4.40625 4.234375l4.578125 6.234375l-1.75 0l-3.78125 -5.28125l-1.75 1.609375l0 3.671875l-1.390625 0l0 -10.46875l1.390625 0zm8.245651 2.890625l2.203125 6.203125l0.03125 0l2.125 -6.203125l1.328125 0l-3.21875 8.390625q-0.515625 1.3125 -0.984375 1.765625q-0.46875 0.453125 -1.296875 0.453125q-0.234375 0 -0.453125 -0.03125q-0.203125 -0.015625 -0.40625 -0.09375l0 -1.140625q0.171875 0.046875 0.34375 0.109375q0.1875 0.0625 0.375 0.0625q0.765625 0 1.0625 -0.765625q0.296875 -0.75 0.484375 -1.21875l-3.015625 -7.53125l1.421875 0zm7.390625 0l2.125 6.3125l0.03125 0l2.0625 -6.3125l1.3125 0l-2.78125 7.578125l-1.328125 0l-2.8125 -7.578125l1.390625 0zm9.828125 -0.171875q1.625 0 2.515625 1.171875q0.90625 1.171875 0.90625 3.015625l0 0.15625l-5.671875 0l0 0.078125q0 1.09375 0.625 1.75q0.640625 0.65625 1.734375 0.65625q0.828125 0 1.3125 -0.390625q0.5 -0.390625 0.65625 -1.09375l1.234375 0q-0.25 1.265625 -1.109375 1.921875q-0.84375 0.65625 -2.125 0.65625q-1.203125 0 -2.03125 -0.53125q-0.828125 -0.546875 -1.21875 -1.5q-0.390625 -0.96875 -0.390625 -1.96875q0 -1.6875 1.0 -2.796875q1.015625 -1.125 2.5625 -1.125zm-2.25 3.234375l4.359375 0q-0.0625 -0.921875 -0.671875 -1.53125q-0.609375 -0.609375 -1.53125 -0.609375q-0.859375 0 -1.46875 0.578125q-0.609375 0.578125 -0.6875 1.5625zm10.731384 -3.234375q0.046875 0 0.078125 0q0.046875 0 0.09375 0l0 1.3125q-1.390625 0 -2.0625 0.75q-0.671875 0.75 -0.671875 2.296875l0 3.390625l-1.25 0l0 -7.578125l1.171875 0l0 1.59375l0.03125 0q0.4375 -0.90625 1.078125 -1.328125q0.640625 -0.4375 1.53125 -0.4375zm4.7868958 0q1.359375 0 1.984375 0.703125q0.625 0.703125 0.625 2.0l0 5.046875l-1.25 0l0 -5.171875q0 -0.640625 -0.421875 -1.0625q-0.40625 -0.421875 -1.125 -0.421875q-1.0625 0 -1.65625 0.65625q-0.578125 0.640625 -0.578125 1.671875l0 4.328125l-1.25 0l0 -7.578125l1.171875 0l0 1.203125l0.03125 0q0.421875 -0.703125 1.015625 -1.03125q0.609375 -0.34375 1.453125 -0.34375zm7.744858 0q1.71875 0 2.703125 1.109375q0.984375 1.109375 0.984375 2.859375q0 1.765625 -1.015625 2.859375q-1.0 1.09375 -2.671875 1.09375q-1.640625 0 -2.65625 -1.0625q-1.015625 -1.078125 -1.015625 -2.890625q0 -1.796875 0.984375 -2.875q1.0 -1.09375 2.6875 -1.09375zm-2.359375 3.96875q0 1.3125 0.65625 2.09375q0.671875 0.765625 1.703125 0.765625q1.03125 0 1.6875 -0.78125q0.671875 -0.78125 0.671875 -2.078125q0 -1.296875 -0.671875 -2.078125q-0.65625 -0.796875 -1.703125 -0.796875q-1.0 0 -1.671875 0.78125q-0.671875 0.765625 -0.671875 2.09375zm16.17537 -6.6875l4.0781097 10.46875l-1.5312347 0l-1.140625 -3.15625l-4.4375 0l-1.171875 3.15625l-1.421875 0l4.078125 -10.46875l1.546875 0zm-0.8125 1.265625l-1.765625 4.875l3.53125 0l-1.734375 -4.875l-0.03125 0zm12.480881 -1.265625l0 10.46875l-1.234375 0l0 -1.015625l-0.03125 0q-0.296875 0.578125 -0.9375 0.890625q-0.640625 0.296875 -1.484375 0.296875q-1.59375 0 -2.546875 -1.09375q-0.9375 -1.109375 -0.9375 -2.890625q0 -1.75 0.921875 -2.84375q0.921875 -1.09375 2.53125 -1.09375q0.734375 0 1.40625 0.296875q0.671875 0.296875 1.046875 0.890625l0.03125 0l0 -3.90625l1.234375 0zm-5.859375 6.734375q0 1.234375 0.625 2.03125q0.640625 0.78125 1.71875 0.78125q1.109375 0 1.703125 -0.78125q0.609375 -0.796875 0.609375 -2.078125q0 -1.296875 -0.625 -2.078125q-0.609375 -0.796875 -1.78125 -0.796875q-1.0625 0 -1.65625 0.78125q-0.59375 0.78125 -0.59375 2.140625zm11.437836 -4.015625q0.828125 0 1.34375 0.34375q0.53125 0.328125 0.734375 0.9375q0.390625 -0.609375 1.0 -0.9375q0.625 -0.34375 1.375 -0.34375q1.28125 0 1.890625 0.578125q0.625 0.578125 0.625 1.5625l0 5.609375l-1.25 0l0 -5.03125q0 -0.8125 -0.34375 -1.21875q-0.34375 -0.40625 -1.109375 -0.40625q-0.9375 0 -1.46875 0.546875q-0.515625 0.546875 -0.515625 1.34375l0 4.765625l-1.25 0l0 -5.03125q0 -0.8125 -0.34375 -1.21875q-0.34375 -0.40625 -1.078125 -0.40625q-0.59375 0 -1.046875 0.296875q-0.453125 0.28125 -0.71875 0.78125q-0.25 0.484375 -0.25 0.828125l0 4.75l-1.25 0l0 -7.578125l1.171875 0l0 1.109375l0.03125 0q0.421875 -0.640625 1.03125 -0.953125q0.609375 -0.328125 1.421875 -0.328125zm10.158417 -2.71875l0 1.53125l-1.234375 0l0 -1.53125l1.234375 0zm0 2.890625l0 7.578125l-1.234375 0l0 -7.578125l1.234375 0zm4.4592896 -0.171875q1.53125 0 2.265625 0.59375q0.75 0.59375 0.828125 1.78125l-1.25 0l0 -0.015625q-0.046875 -0.609375 -0.53125 -0.9375q-0.46875 -0.328125 -1.21875 -0.328125q-0.75 0 -1.1875 0.265625q-0.421875 0.25 -0.421875 0.703125q0 0.40625 0.375 0.671875q0.390625 0.265625 1.15625 0.4375l1.171875 0.265625q1.109375 0.234375 1.671875 0.75q0.578125 0.5 0.578125 1.34375q0 1.125 -0.875 1.765625q-0.859375 0.625 -2.34375 0.625q-1.453125 0 -2.3125 -0.640625q-0.84375 -0.65625 -0.90625 -1.921875l1.25 0q0.015625 0.703125 0.546875 1.09375q0.546875 0.375 1.484375 0.375q0.90625 0 1.359375 -0.28125q0.46875 -0.296875 0.46875 -0.84375q0 -0.515625 -0.46875 -0.8125q-0.453125 -0.296875 -1.875 -0.578125q-1.4375 -0.28125 -2.03125 -0.796875q-0.578125 -0.515625 -0.578125 -1.359375q0 -1.0 0.8125 -1.578125q0.8125 -0.578125 2.03125 -0.578125zm7.328125 0q1.53125 0 2.265625 0.59375q0.75 0.59375 0.828125 1.78125l-1.25 0l0 -0.015625q-0.046875 -0.609375 -0.53125 -0.9375q-0.46875 -0.328125 -1.21875 -0.328125q-0.75 0 -1.1875 0.265625q-0.421875 0.25 -0.421875 0.703125q0 0.40625 0.375 0.671875q0.390625 0.265625 1.15625 0.4375l1.171875 0.265625q1.109375 0.234375 1.671875 0.75q0.578125 0.5 0.578125 1.34375q0 1.125 -0.875 1.765625q-0.859375 0.625 -2.34375 0.625q-1.453125 0 -2.3125 -0.640625q-0.84375 -0.65625 -0.90625 -1.921875l1.25 0q0.015625 0.703125 0.546875 1.09375q0.546875 0.375 1.484375 0.375q0.90625 0 1.359375 -0.28125q0.46875 -0.296875 0.46875 -0.84375q0 -0.515625 -0.46875 -0.8125q-0.453125 -0.296875 -1.875 -0.578125q-1.4375 -0.28125 -2.03125 -0.796875q-0.578125 -0.515625 -0.578125 -1.359375q0 -1.0 0.8125 -1.578125q0.8125 -0.578125 2.03125 -0.578125zm6.125 -2.71875l0 1.53125l-1.234375 0l0 -1.53125l1.234375 0zm0 2.890625l0 7.578125l-1.234375 0l0 -7.578125l1.234375 0zm5.209259 -0.171875q1.71875 0 2.703125 1.109375q0.984375 1.109375 0.984375 2.859375q0 1.765625 -1.015625 2.859375q-1.0 1.09375 -2.671875 1.09375q-1.640625 0 -2.65625 -1.0625q-1.015625 -1.078125 -1.015625 -2.890625q0 -1.796875 0.984375 -2.875q1.0 -1.09375 2.6875 -1.09375zm-2.359375 3.96875q0 1.3125 0.65625 2.09375q0.671875 0.765625 1.703125 0.765625q1.03125 0 1.6875 -0.78125q0.671875 -0.78125 0.671875 -2.078125q0 -1.296875 -0.671875 -2.078125q-0.65625 -0.796875 -1.703125 -0.796875q-1.0 0 -1.671875 0.78125q-0.671875 0.765625 -0.671875 2.09375zm11.181519 -3.96875q1.359375 0 1.984375 0.703125q0.625 0.703125 0.625 2.0l0 5.046875l-1.25 0l0 -5.171875q0 -0.640625 -0.421875 -1.0625q-0.40625 -0.421875 -1.125 -0.421875q-1.0625 0 -1.65625 0.65625q-0.578125 0.640625 -0.578125 1.671875l0 4.328125l-1.25 0l0 -7.578125l1.171875 0l0 1.203125l0.03125 0q0.421875 -0.703125 1.015625 -1.03125q0.609375 -0.34375 1.453125 -0.34375zm11.7074585 0q1.390625 0 2.25 0.65625q0.875 0.65625 1.03125 1.953125l-1.296875 0q-0.140625 -0.734375 -0.640625 -1.125q-0.484375 -0.390625 -1.234375 -0.390625q-1.15625 0 -1.765625 0.78125q-0.59375 0.765625 -0.59375 2.1875q0 1.25 0.59375 2.015625q0.59375 0.75 1.625 0.75q0.90625 0 1.421875 -0.484375q0.53125 -0.5 0.65625 -1.359375l1.265625 0q-0.203125 1.40625 -1.0625 2.171875q-0.859375 0.765625 -2.265625 0.765625q-1.65625 0 -2.609375 -1.03125q-0.9375 -1.046875 -0.9375 -2.828125q0 -1.859375 0.953125 -2.953125q0.953125 -1.109375 2.609375 -1.109375zm7.9813843 0q1.71875 0 2.703125 1.109375q0.984375 1.109375 0.984375 2.859375q0 1.765625 -1.015625 2.859375q-1.0 1.09375 -2.671875 1.09375q-1.640625 0 -2.65625 -1.0625q-1.015625 -1.078125 -1.015625 -2.890625q0 -1.796875 0.984375 -2.875q1.0 -1.09375 2.6875 -1.09375zm-2.359375 3.96875q0 1.3125 0.65625 2.09375q0.671875 0.765625 1.703125 0.765625q1.03125 0 1.6875 -0.78125q0.671875 -0.78125 0.671875 -2.078125q0 -1.296875 -0.671875 -2.078125q-0.65625 -0.796875 -1.703125 -0.796875q-1.0 0 -1.671875 0.78125q-0.671875 0.765625 -0.671875 2.09375zm11.181519 -3.96875q1.359375 0 1.984375 0.703125q0.625 0.703125 0.625 2.0l0 5.046875l-1.25 0l0 -5.171875q0 -0.640625 -0.421875 -1.0625q-0.40625 -0.421875 -1.125 -0.421875q-1.0625 0 -1.65625 0.65625q-0.578125 0.640625 -0.578125 1.671875l0 4.328125l-1.25 0l0 -7.578125l1.171875 0l0 1.203125l0.03125 0q0.421875 -0.703125 1.015625 -1.03125q0.609375 -0.34375 1.453125 -0.34375zm6.213623 -2.09375l0 2.265625l1.5 0l0 1.109375l-1.5 0l0 4.734375q0 0.5625 0.375 0.59375q0.375 0.03125 0.78125 0.03125l0.34375 0l0 1.109375l-1.015625 0q-1.03125 0 -1.390625 -0.359375q-0.34375 -0.375 -0.34375 -1.234375l0 -4.875l-1.296875 0l0 -1.109375l1.296875 0l0 -2.265625l1.25 0zm6.6470947 2.09375q0.046875 0 0.078125 0q0.046875 0 0.09375 0l0 1.3125q-1.390625 0 -2.0625 0.75q-0.671875 0.75 -0.671875 2.296875l0 3.390625l-1.25 0l0 -7.578125l1.171875 0l0 1.59375l0.03125 0q0.4375 -0.90625 1.078125 -1.328125q0.640625 -0.4375 1.53125 -0.4375zm4.115692 0q1.71875 0 2.703125 1.109375q0.984375 1.109375 0.984375 2.859375q0 1.765625 -1.015625 2.859375q-1.0 1.09375 -2.671875 1.09375q-1.640625 0 -2.65625 -1.0625q-1.015625 -1.078125 -1.015625 -2.890625q0 -1.796875 0.984375 -2.875q1.0 -1.09375 2.6875 -1.09375zm-2.359375 3.96875q0 1.3125 0.65625 2.09375q0.671875 0.765625 1.703125 0.765625q1.03125 0 1.6875 -0.78125q0.671875 -0.78125 0.671875 -2.078125q0 -1.296875 -0.671875 -2.078125q-0.65625 -0.796875 -1.703125 -0.796875q-1.0 0 -1.671875 0.78125q-0.671875 0.765625 -0.671875 2.09375zm8.822144 -6.6875l0 10.46875l-1.234375 0l0 -10.46875l1.234375 0zm3.256134 0l0 10.46875l-1.234375 0l0 -10.46875l1.234375 0zm5.0999146 2.71875q1.625 0 2.515625 1.171875q0.90625 1.171875 0.90625 3.015625l0 0.15625l-5.671875 0l0 0.078125q0 1.09375 0.625 1.75q0.640625 0.65625 1.734375 0.65625q0.828125 0 1.3125 -0.390625q0.5 -0.390625 0.65625 -1.09375l1.234375 0q-0.25 1.265625 -1.109375 1.921875q-0.84375 0.65625 -2.125 0.65625q-1.203125 0 -2.03125 -0.53125q-0.828125 -0.546875 -1.21875 -1.5q-0.390625 -0.96875 -0.390625 -1.96875q0 -1.6875 1.0 -2.796875q1.015625 -1.125 2.5625 -1.125zm-2.25 3.234375l4.359375 0q-0.0625 -0.921875 -0.671875 -1.53125q-0.609375 -0.609375 -1.53125 -0.609375q-0.859375 0 -1.46875 0.578125q-0.609375 0.578125 -0.6875 1.5625zm10.731384 -3.234375q0.046875 0 0.078125 0q0.046875 0 0.09375 0l0 1.3125q-1.390625 0 -2.0625 0.75q-0.671875 0.75 -0.671875 2.296875l0 3.390625l-1.25 0l0 -7.578125l1.171875 0l0 1.59375l0.03125 0q0.4375 -0.90625 1.078125 -1.328125q0.640625 -0.4375 1.53125 -0.4375zm3.6306458 0q1.53125 0 2.265625 0.59375q0.75 0.59375 0.828125 1.78125l-1.25 0l0 -0.015625q-0.046875 -0.609375 -0.53125 -0.9375q-0.46875 -0.328125 -1.21875 -0.328125q-0.75 0 -1.1875 0.265625q-0.421875 0.25 -0.421875 0.703125q0 0.40625 0.375 0.671875q0.390625 0.265625 1.15625 0.4375l1.171875 0.265625q1.109375 0.234375 1.671875 0.75q0.578125 0.5 0.578125 1.34375q0 1.125 -0.875 1.765625q-0.859375 0.625 -2.34375 0.625q-1.453125 0 -2.3125 -0.640625q-0.84375 -0.65625 -0.90625 -1.921875l1.25 0q0.015625 0.703125 0.546875 1.09375q0.546875 0.375 1.484375 0.375q0.90625 0 1.359375 -0.28125q0.46875 -0.296875 0.46875 -0.84375q0 -0.515625 -0.46875 -0.8125q-0.453125 -0.296875 -1.875 -0.578125q-1.4375 -0.28125 -2.03125 -0.796875q-0.578125 -0.515625 -0.578125 -1.359375q0 -1.0 0.8125 -1.578125q0.8125 -0.578125 2.03125 -0.578125z" fill-rule="nonzero"/><path fill="#eefdf9" d="m121.66273 290.43964l0 0c0 -15.864044 12.860359 -28.724426 28.724419 -28.724426l134.55118 0c7.6181946 0 14.924347 3.0263367 20.311218 8.413208c5.3868713 5.3868713 8.4131775 12.693024 8.4131775 20.311218l0 0l0 0c0 15.864044 -12.860352 28.724396 -28.724396 28.724396l-134.55118 0c-15.864059 0 -28.724419 -12.860352 -28.724419 -28.724396z" fill-rule="evenodd"/><path stroke="#013a3b" stroke-width="1.0" stroke-linejoin="round" stroke-linecap="butt" stroke-dasharray="4.0,3.0" d="m121.66273 290.43964l0 0c0 -15.864044 12.860359 -28.724426 28.724419 -28.724426l134.55118 0c7.6181946 0 14.924347 3.0263367 20.311218 8.413208c5.3868713 5.3868713 8.4131775 12.693024 8.4131775 20.311218l0 0l0 0c0 15.864044 -12.860352 28.724396 -28.724396 28.724396l-134.55118 0c-15.864059 0 -28.724419 -12.860352 -28.724419 -28.724396z" fill-rule="evenodd"/><path fill="#eefdf9" d="m136.3268 281.55774l162.67717 0l0 17.763794l-162.67717 0z" fill-rule="evenodd"/><path fill="#005a4c" d="m163.5933 285.2509l0 9.296875l5.546875 0l0 1.171875l-6.9375 0l0 -10.46875l1.390625 0zm7.869858 0l0 1.53125l-1.234375 0l0 -1.53125l1.234375 0zm0 2.890625l0 7.578125l-1.234375 0l0 -7.578125l1.234375 0zm5.6155243 -0.171875q1.359375 0 1.984375 0.703125q0.625 0.703125 0.625 2.0l0 5.046875l-1.25 0l0 -5.171875q0 -0.640625 -0.421875 -1.0625q-0.40625 -0.421875 -1.125 -0.421875q-1.0625 0 -1.65625 0.65625q-0.578125 0.640625 -0.578125 1.671875l0 4.328125l-1.25 0l0 -7.578125l1.171875 0l0 1.203125l0.03125 0q0.421875 -0.703125 1.015625 -1.03125q0.609375 -0.34375 1.453125 -0.34375zm5.729233 0.171875l0 5.171875q0 0.640625 0.40625 1.0625q0.40625 0.421875 1.140625 0.421875q1.0625 0 1.640625 -0.65625q0.59375 -0.65625 0.59375 -1.671875l0 -4.328125l1.25 0l0 7.578125l-1.171875 0l0 -1.203125l-0.03125 0q-0.421875 0.71875 -1.046875 1.046875q-0.625 0.328125 -1.421875 0.328125q-1.328125 0 -1.96875 -0.671875q-0.640625 -0.6875 -0.640625 -2.03125l0 -5.046875l1.25 0zm7.901108 0l1.8125 2.640625l0 0l1.890625 -2.640625l1.5 0l-2.609375 3.484375l2.921875 4.09375l-1.59375 0l-2.109375 -3.140625l-2.109375 3.140625l-1.515625 0l2.859375 -3.984375l-2.640625 -3.59375l1.59375 0zm13.821136 -0.171875q1.390625 0 2.25 0.65625q0.875 0.65625 1.03125 1.953125l-1.296875 0q-0.140625 -0.734375 -0.640625 -1.125q-0.484375 -0.390625 -1.234375 -0.390625q-1.15625 0 -1.765625 0.78125q-0.59375 0.765625 -0.59375 2.1875q0 1.25 0.59375 2.015625q0.59375 0.75 1.625 0.75q0.90625 0 1.421875 -0.484375q0.53125 -0.5 0.65625 -1.359375l1.265625 0q-0.203125 1.40625 -1.0625 2.171875q-0.859375 0.765625 -2.265625 0.765625q-1.65625 0 -2.609375 -1.03125q-0.9375 -1.046875 -0.9375 -2.828125q0 -1.859375 0.953125 -2.953125q0.953125 -1.109375 2.609375 -1.109375zm7.8095093 0q1.546875 0 2.1875 0.5625q0.65625 0.546875 0.65625 1.46875q0 3.9375 0 4.375q0 0.421875 0.390625 0.421875q0.09375 0 0.1875 -0.015625q0.109375 -0.03125 0.203125 -0.0625l0 0.96875q-0.171875 0.109375 -0.40625 0.15625q-0.21875 0.046875 -0.484375 0.046875q-0.515625 0 -0.796875 -0.28125q-0.265625 -0.296875 -0.265625 -0.890625q-0.5 0.59375 -1.171875 0.890625q-0.671875 0.28125 -1.5 0.28125q-1.171875 0 -1.84375 -0.546875q-0.65625 -0.5625 -0.65625 -1.578125q0 -1.015625 0.640625 -1.609375q0.65625 -0.609375 3.078125 -0.90625q0.8125 -0.109375 1.09375 -0.3125q0.296875 -0.203125 0.296875 -0.625q0 -0.625 -0.40625 -0.9375q-0.40625 -0.3125 -1.28125 -0.3125q-0.921875 0 -1.390625 0.359375q-0.453125 0.34375 -0.5 1.078125l-1.234375 0q0.046875 -1.25 0.875 -1.890625q0.84375 -0.640625 2.328125 -0.640625zm-2.1875 5.703125q0 0.53125 0.390625 0.828125q0.390625 0.296875 1.078125 0.296875q1.046875 0 1.671875 -0.515625q0.640625 -0.53125 0.640625 -1.171875l0 -1.3125q-0.3125 0.234375 -0.8125 0.3125q-0.5 0.078125 -1.328125 0.1875q-0.84375 0.125 -1.25 0.453125q-0.390625 0.328125 -0.390625 0.921875zm10.700134 -5.703125q1.625 0 2.5625 1.125q0.9375 1.109375 0.9375 2.859375q0 1.765625 -0.9375 2.859375q-0.921875 1.078125 -2.53125 1.078125q-0.703125 0 -1.390625 -0.28125q-0.671875 -0.296875 -1.0625 -0.90625l-0.03125 0l0 3.921875l-1.234375 0l0 -10.484375l1.234375 0l0 1.03125l0.03125 0q0.296875 -0.59375 0.921875 -0.890625q0.640625 -0.3125 1.5 -0.3125zm-2.484375 3.953125q0 1.328125 0.625 2.109375q0.640625 0.765625 1.765625 0.765625q1.078125 0 1.671875 -0.765625q0.59375 -0.78125 0.59375 -2.15625q0 -1.234375 -0.625 -2.015625q-0.625 -0.796875 -1.734375 -0.796875q-1.09375 0 -1.703125 0.8125q-0.59375 0.796875 -0.59375 2.046875zm10.531586 -3.953125q1.546875 0 2.1875 0.5625q0.65625 0.546875 0.65625 1.46875q0 3.9375 0 4.375q0 0.421875 0.390625 0.421875q0.09375 0 0.1875 -0.015625q0.109375 -0.03125 0.203125 -0.0625l0 0.96875q-0.171875 0.109375 -0.40625 0.15625q-0.21875 0.046875 -0.484375 0.046875q-0.515625 0 -0.796875 -0.28125q-0.265625 -0.296875 -0.265625 -0.890625q-0.5 0.59375 -1.171875 0.890625q-0.671875 0.28125 -1.5 0.28125q-1.171875 0 -1.84375 -0.546875q-0.65625 -0.5625 -0.65625 -1.578125q0 -1.015625 0.640625 -1.609375q0.65625 -0.609375 3.078125 -0.90625q0.8125 -0.109375 1.09375 -0.3125q0.296875 -0.203125 0.296875 -0.625q0 -0.625 -0.40625 -0.9375q-0.40625 -0.3125 -1.28125 -0.3125q-0.921875 0 -1.390625 0.359375q-0.453125 0.34375 -0.5 1.078125l-1.234375 0q0.046875 -1.25 0.875 -1.890625q0.84375 -0.640625 2.328125 -0.640625zm-2.1875 5.703125q0 0.53125 0.390625 0.828125q0.390625 0.296875 1.078125 0.296875q1.046875 0 1.671875 -0.515625q0.640625 -0.53125 0.640625 -1.171875l0 -1.3125q-0.3125 0.234375 -0.8125 0.3125q-0.5 0.078125 -1.328125 0.1875q-0.84375 0.125 -1.25 0.453125q-0.390625 0.328125 -0.390625 0.921875zm8.247009 -8.421875l0 3.921875l0.03125 0q0.296875 -0.59375 0.921875 -0.890625q0.625 -0.3125 1.5 -0.3125q1.625 0 2.5625 1.125q0.9375 1.109375 0.9375 2.859375q0 1.765625 -0.9375 2.859375q-0.921875 1.078125 -2.53125 1.078125q-0.703125 0 -1.390625 -0.28125q-0.671875 -0.296875 -1.0625 -0.90625l-0.03125 0l0 1.015625l-1.234375 0l0 -10.46875l1.234375 0zm-0.03125 6.671875q0 1.328125 0.625 2.109375q0.640625 0.765625 1.765625 0.765625q1.078125 0 1.671875 -0.765625q0.59375 -0.78125 0.59375 -2.15625q0 -1.234375 -0.625 -2.015625q-0.625 -0.796875 -1.734375 -0.796875q-1.09375 0 -1.703125 0.8125q-0.59375 0.796875 -0.59375 2.046875zm8.750336 -6.671875l0 1.53125l-1.234375 0l0 -1.53125l1.234375 0zm0 2.890625l0 7.578125l-1.234375 0l0 -7.578125l1.234375 0zm3.2561493 -2.890625l0 10.46875l-1.234375 0l0 -10.46875l1.234375 0zm3.2561493 0l0 1.53125l-1.234375 0l0 -1.53125l1.234375 0zm0 2.890625l0 7.578125l-1.234375 0l0 -7.578125l1.234375 0zm3.6780243 -2.265625l0 2.265625l1.5 0l0 1.109375l-1.5 0l0 4.734375q0 0.5625 0.375 0.59375q0.375 0.03125 0.78125 0.03125l0.34375 0l0 1.109375l-1.015625 0q-1.03125 0 -1.390625 -0.359375q-0.34375 -0.375 -0.34375 -1.234375l0 -4.875l-1.296875 0l0 -1.109375l1.296875 0l0 -2.265625l1.25 0zm4.1940002 -0.625l0 1.53125l-1.234375 0l0 -1.53125l1.234375 0zm0 2.890625l0 7.578125l-1.234375 0l0 -7.578125l1.234375 0zm5.099884 -0.171875q1.625 0 2.515625 1.171875q0.90625 1.171875 0.90625 3.015625l0 0.15625l-5.671875 0l0 0.078125q0 1.09375 0.625 1.75q0.640625 0.65625 1.734375 0.65625q0.828125 0 1.3125 -0.390625q0.5 -0.390625 0.65625 -1.09375l1.234375 0q-0.25 1.265625 -1.109375 1.921875q-0.84375 0.65625 -2.125 0.65625q-1.203125 0 -2.03125 -0.53125q-0.828125 -0.546875 -1.21875 -1.5q-0.390625 -0.96875 -0.390625 -1.96875q0 -1.6875 1.0 -2.796875q1.015625 -1.125 2.5625 -1.125zm-2.25 3.234375l4.359375 0q-0.0625 -0.921875 -0.671875 -1.53125q-0.609375 -0.609375 -1.53125 -0.609375q-0.859375 0 -1.46875 0.578125q-0.609375 0.578125 -0.6875 1.5625zm9.481384 -3.234375q1.53125 0 2.265625 0.59375q0.75 0.59375 0.828125 1.78125l-1.25 0l0 -0.015625q-0.046875 -0.609375 -0.53125 -0.9375q-0.46875 -0.328125 -1.21875 -0.328125q-0.75 0 -1.1875 0.265625q-0.421875 0.25 -0.421875 0.703125q0 0.40625 0.375 0.671875q0.390625 0.265625 1.15625 0.4375l1.171875 0.265625q1.109375 0.234375 1.671875 0.75q0.578125 0.5 0.578125 1.34375q0 1.125 -0.875 1.765625q-0.859375 0.625 -2.34375 0.625q-1.453125 0 -2.3125 -0.640625q-0.84375 -0.65625 -0.90625 -1.921875l1.25 0q0.015625 0.703125 0.546875 1.09375q0.546875 0.375 1.484375 0.375q0.90625 0 1.359375 -0.28125q0.46875 -0.296875 0.46875 -0.84375q0 -0.515625 -0.46875 -0.8125q-0.453125 -0.296875 -1.875 -0.578125q-1.4375 -0.28125 -2.03125 -0.796875q-0.578125 -0.515625 -0.578125 -1.359375q0 -1.0 0.8125 -1.578125q0.8125 -0.578125 2.03125 -0.578125z" fill-rule="nonzero"/><path fill="#02f4d5" d="m546.7004 291.10892l0 0c0 -16.603333 13.459656 -30.062988 30.062988 -30.062988l102.55115 0l0 0c7.9732056 0 15.619873 3.1673584 21.257751 8.805237c5.6378784 5.637909 8.805237 13.284546 8.805237 21.257751l0 0l0 0c0 16.603333 -13.459656 30.062988 -30.062988 30.062988l-102.55115 0c-16.603333 0 -30.062988 -13.459656 -30.062988 -30.062988z" fill-rule="evenodd"/><path fill="#02f4d5" d="m567.3565 282.22702l121.385864 0l0 17.763794l-121.385864 0z" fill-rule="evenodd"/><path fill="#005a4c" d="m577.9134 285.92017l0 5.21875l5.3125 -5.21875l1.796875 0l-4.40625 4.234375l4.578125 6.234375l-1.75 0l-3.78125 -5.28125l-1.75 1.609375l0 3.671875l-1.390625 0l0 -10.46875l1.390625 0zm11.275574 2.71875q1.546875 0 2.1875 0.5625q0.65625 0.546875 0.65625 1.46875q0 3.9375 0 4.375q0 0.421875 0.390625 0.421875q0.09375 0 0.1875 -0.015625q0.109375 -0.03125 0.203125 -0.0625l0 0.96875q-0.171875 0.109375 -0.40625 0.15625q-0.21875 0.046875 -0.484375 0.046875q-0.515625 0 -0.796875 -0.28125q-0.265625 -0.296875 -0.265625 -0.890625q-0.5 0.59375 -1.171875 0.890625q-0.671875 0.28125 -1.5 0.28125q-1.171875 0 -1.84375 -0.546875q-0.65625 -0.5625 -0.65625 -1.578125q0 -1.015625 0.640625 -1.609375q0.65625 -0.609375 3.078125 -0.90625q0.8125 -0.109375 1.09375 -0.3125q0.296875 -0.203125 0.296875 -0.625q0 -0.625 -0.40625 -0.9375q-0.40625 -0.3125 -1.28125 -0.3125q-0.921875 0 -1.390625 0.359375q-0.453125 0.34375 -0.5 1.078125l-1.234375 0q0.046875 -1.25 0.875 -1.890625q0.84375 -0.640625 2.328125 -0.640625zm-2.1875 5.703125q0 0.53125 0.390625 0.828125q0.390625 0.296875 1.078125 0.296875q1.046875 0 1.671875 -0.515625q0.640625 -0.53125 0.640625 -1.171875l0 -1.3125q-0.3125 0.234375 -0.8125 0.3125q-0.5 0.078125 -1.328125 0.1875q-0.84375 0.125 -1.25 0.453125q-0.390625 0.328125 -0.390625 0.921875zm8.700134 -7.796875l0 2.265625l1.5 0l0 1.109375l-1.5 0l0 4.734375q0 0.5625 0.375 0.59375q0.375 0.03125 0.78125 0.03125l0.34375 0l0 1.109375l-1.015625 0q-1.03125 0 -1.390625 -0.359375q-0.34375 -0.375 -0.34375 -1.234375l0 -4.875l-1.296875 0l0 -1.109375l1.296875 0l0 -2.265625l1.25 0zm5.9752197 2.09375q1.546875 0 2.1875 0.5625q0.65625 0.546875 0.65625 1.46875q0 3.9375 0 4.375q0 0.421875 0.390625 0.421875q0.09375 0 0.1875 -0.015625q0.109375 -0.03125 0.203125 -0.0625l0 0.96875q-0.171875 0.109375 -0.40625 0.15625q-0.21875 0.046875 -0.484375 0.046875q-0.515625 0 -0.796875 -0.28125q-0.265625 -0.296875 -0.265625 -0.890625q-0.5 0.59375 -1.171875 0.890625q-0.671875 0.28125 -1.5 0.28125q-1.171875 0 -1.84375 -0.546875q-0.65625 -0.5625 -0.65625 -1.578125q0 -1.015625 0.640625 -1.609375q0.65625 -0.609375 3.078125 -0.90625q0.8125 -0.109375 1.09375 -0.3125q0.296875 -0.203125 0.296875 -0.625q0 -0.625 -0.40625 -0.9375q-0.40625 -0.3125 -1.28125 -0.3125q-0.921875 0 -1.390625 0.359375q-0.453125 0.34375 -0.5 1.078125l-1.234375 0q0.046875 -1.25 0.875 -1.890625q0.84375 -0.640625 2.328125 -0.640625zm-2.1875 5.703125q0 0.53125 0.390625 0.828125q0.390625 0.296875 1.078125 0.296875q1.046875 0 1.671875 -0.515625q0.640625 -0.53125 0.640625 -1.171875l0 -1.3125q-0.3125 0.234375 -0.8125 0.3125q-0.5 0.078125 -1.328125 0.1875q-0.84375 0.125 -1.25 0.453125q-0.390625 0.328125 -0.390625 0.921875zm15.678406 -8.671875q1.75 0 2.90625 0.90625q1.171875 0.90625 1.40625 2.5l-1.390625 0q-0.234375 -1.078125 -1.015625 -1.65625q-0.765625 -0.578125 -1.921875 -0.578125q-1.65625 0 -2.59375 1.1875q-0.9375 1.171875 -0.9375 3.0625q0 2.0 0.921875 3.1875q0.921875 1.1875 2.625 1.1875q1.28125 0 2.09375 -0.8125q0.828125 -0.8125 0.9375 -2.203125l1.390625 0q-0.234375 2.03125 -1.421875 3.109375q-1.171875 1.078125 -3.109375 1.078125q-2.25 0 -3.546875 -1.484375q-1.296875 -1.5 -1.296875 -3.96875q0 -2.4375 1.34375 -3.96875q1.34375 -1.546875 3.609375 -1.546875zm9.2092285 2.96875q1.71875 0 2.703125 1.109375q0.984375 1.109375 0.984375 2.859375q0 1.765625 -1.015625 2.859375q-1.0 1.09375 -2.671875 1.09375q-1.640625 0 -2.65625 -1.0625q-1.015625 -1.078125 -1.015625 -2.890625q0 -1.796875 0.984375 -2.875q1.0 -1.09375 2.6875 -1.09375zm-2.359375 3.96875q0 1.3125 0.65625 2.09375q0.671875 0.765625 1.703125 0.765625q1.03125 0 1.6875 -0.78125q0.671875 -0.78125 0.671875 -2.078125q0 -1.296875 -0.671875 -2.078125q-0.65625 -0.796875 -1.703125 -0.796875q-1.0 0 -1.671875 0.78125q-0.671875 0.765625 -0.671875 2.09375zm11.181519 -3.96875q1.359375 0 1.984375 0.703125q0.625 0.703125 0.625 2.0l0 5.046875l-1.25 0l0 -5.171875q0 -0.640625 -0.421875 -1.0625q-0.40625 -0.421875 -1.125 -0.421875q-1.0625 0 -1.65625 0.65625q-0.578125 0.640625 -0.578125 1.671875l0 4.328125l-1.25 0l0 -7.578125l1.171875 0l0 1.203125l0.03125 0q0.421875 -0.703125 1.015625 -1.03125q0.609375 -0.34375 1.453125 -0.34375zm6.213623 -2.09375l0 2.265625l1.5 0l0 1.109375l-1.5 0l0 4.734375q0 0.5625 0.375 0.59375q0.375 0.03125 0.78125 0.03125l0.34375 0l0 1.109375l-1.015625 0q-1.03125 0 -1.390625 -0.359375q-0.34375 -0.375 -0.34375 -1.234375l0 -4.875l-1.296875 0l0 -1.109375l1.296875 0l0 -2.265625l1.25 0zm5.9752197 2.09375q1.546875 0 2.1875 0.5625q0.65625 0.546875 0.65625 1.46875q0 3.9375 0 4.375q0 0.421875 0.390625 0.421875q0.09375 0 0.1875 -0.015625q0.109375 -0.03125 0.203125 -0.0625l0 0.96875q-0.171875 0.109375 -0.40625 0.15625q-0.21875 0.046875 -0.484375 0.046875q-0.515625 0 -0.796875 -0.28125q-0.265625 -0.296875 -0.265625 -0.890625q-0.5 0.59375 -1.171875 0.890625q-0.671875 0.28125 -1.5 0.28125q-1.171875 0 -1.84375 -0.546875q-0.65625 -0.5625 -0.65625 -1.578125q0 -1.015625 0.640625 -1.609375q0.65625 -0.609375 3.078125 -0.90625q0.8125 -0.109375 1.09375 -0.3125q0.296875 -0.203125 0.296875 -0.625q0 -0.625 -0.40625 -0.9375q-0.40625 -0.3125 -1.28125 -0.3125q-0.921875 0 -1.390625 0.359375q-0.453125 0.34375 -0.5 1.078125l-1.234375 0q0.046875 -1.25 0.875 -1.890625q0.84375 -0.640625 2.328125 -0.640625zm-2.1875 5.703125q0 0.53125 0.390625 0.828125q0.390625 0.296875 1.078125 0.296875q1.046875 0 1.671875 -0.515625q0.640625 -0.53125 0.640625 -1.171875l0 -1.3125q-0.3125 0.234375 -0.8125 0.3125q-0.5 0.078125 -1.328125 0.1875q-0.84375 0.125 -1.25 0.453125q-0.390625 0.328125 -0.390625 0.921875zm8.278259 -8.421875l0 1.53125l-1.234375 0l0 -1.53125l1.234375 0zm0 2.890625l0 7.578125l-1.234375 0l0 -7.578125l1.234375 0zm5.6155396 -0.171875q1.359375 0 1.984375 0.703125q0.625 0.703125 0.625 2.0l0 5.046875l-1.25 0l0 -5.171875q0 -0.640625 -0.421875 -1.0625q-0.40625 -0.421875 -1.125 -0.421875q-1.0625 0 -1.65625 0.65625q-0.578125 0.640625 -0.578125 1.671875l0 4.328125l-1.25 0l0 -7.578125l1.171875 0l0 1.203125l0.03125 0q0.421875 -0.703125 1.015625 -1.03125q0.609375 -0.34375 1.453125 -0.34375zm7.635498 0q1.625 0 2.515625 1.171875q0.90625 1.171875 0.90625 3.015625l0 0.15625l-5.671875 0l0 0.078125q0 1.09375 0.625 1.75q0.640625 0.65625 1.734375 0.65625q0.828125 0 1.3125 -0.390625q0.5 -0.390625 0.65625 -1.09375l1.234375 0q-0.25 1.265625 -1.109375 1.921875q-0.84375 0.65625 -2.125 0.65625q-1.203125 0 -2.03125 -0.53125q-0.828125 -0.546875 -1.21875 -1.5q-0.390625 -0.96875 -0.390625 -1.96875q0 -1.6875 1.0 -2.796875q1.015625 -1.125 2.5625 -1.125zm-2.25 3.234375l4.359375 0q-0.0625 -0.921875 -0.671875 -1.53125q-0.609375 -0.609375 -1.53125 -0.609375q-0.859375 0 -1.46875 0.578125q-0.609375 0.578125 -0.6875 1.5625zm10.731384 -3.234375q0.046875 0 0.078125 0q0.046875 0 0.09375 0l0 1.3125q-1.390625 0 -2.0625 0.75q-0.671875 0.75 -0.671875 2.296875l0 3.390625l-1.25 0l0 -7.578125l1.171875 0l0 1.59375l0.03125 0q0.4375 -0.90625 1.078125 -1.328125q0.640625 -0.4375 1.53125 -0.4375zm3.6306152 0q1.53125 0 2.265625 0.59375q0.75 0.59375 0.828125 1.78125l-1.25 0l0 -0.015625q-0.046875 -0.609375 -0.53125 -0.9375q-0.46875 -0.328125 -1.21875 -0.328125q-0.75 0 -1.1875 0.265625q-0.421875 0.25 -0.421875 0.703125q0 0.40625 0.375 0.671875q0.390625 0.265625 1.15625 0.4375l1.171875 0.265625q1.109375 0.234375 1.671875 0.75q0.578125 0.5 0.578125 1.34375q0 1.125 -0.875 1.765625q-0.859375 0.625 -2.34375 0.625q-1.453125 0 -2.3125 -0.640625q-0.84375 -0.65625 -0.90625 -1.921875l1.25 0q0.015625 0.703125 0.546875 1.09375q0.546875 0.375 1.484375 0.375q0.90625 0 1.359375 -0.28125q0.46875 -0.296875 0.46875 -0.84375q0 -0.515625 -0.46875 -0.8125q-0.453125 -0.296875 -1.875 -0.578125q-1.4375 -0.28125 -2.03125 -0.796875q-0.578125 -0.515625 -0.578125 -1.359375q0 -1.0 0.8125 -1.578125q0.8125 -0.578125 2.03125 -0.578125z" fill-rule="nonzero"/><path fill="#eefdf9" d="m723.1247 290.43964l0 0c0 -16.603333 13.459656 -30.062988 30.062988 -30.062988l55.08661 0l0 0c7.9732056 0 15.619812 3.167328 21.257751 8.805237c5.6378784 5.637909 8.805237 13.284546 8.805237 21.257751l0 0l0 0c0 16.603333 -13.459656 30.062988 -30.062988 30.062988l-55.08661 0l0 0c-16.603333 0 -30.062988 -13.459656 -30.062988 -30.062988z" fill-rule="evenodd"/><path stroke="#013a3b" stroke-width="1.0" stroke-linejoin="round" stroke-linecap="butt" stroke-dasharray="4.0,3.0" d="m723.1247 290.43964l0 0c0 -16.603333 13.459656 -30.062988 30.062988 -30.062988l55.08661 0l0 0c7.9732056 0 15.619812 3.167328 21.257751 8.805237c5.6378784 5.637909 8.805237 13.284546 8.805237 21.257751l0 0l0 0c0 16.603333 -13.459656 30.062988 -30.062988 30.062988l-55.08661 0l0 0c-16.603333 0 -30.062988 -13.459656 -30.062988 -30.062988z" fill-rule="evenodd"/><path fill="#eefdf9" d="m741.2008 281.55774l79.055115 0l0 17.763794l-79.055115 0z" fill-rule="evenodd"/><path fill="#005a4c" d="m764.07635 287.96964q0.796875 0 1.375 0.34375q0.578125 0.34375 0.90625 0.921875l0.015625 0l0 -1.09375l1.15625 0l0 7.015625q0 1.78125 -0.859375 2.703125q-0.859375 0.9375 -2.640625 0.9375q-1.3125 0 -2.203125 -0.578125q-0.890625 -0.5625 -0.9375 -1.640625l1.234375 0q0.03125 0.578125 0.625 0.890625q0.59375 0.328125 1.34375 0.328125q1.09375 0 1.6875 -0.734375q0.59375 -0.71875 0.59375 -2.15625l0 -0.46875l-0.03125 0q-0.296875 0.625 -0.9375 1.0q-0.625 0.359375 -1.4375 0.359375q-1.53125 0 -2.453125 -1.046875q-0.921875 -1.0625 -0.921875 -2.78125q0 -1.734375 0.921875 -2.859375q0.921875 -1.140625 2.5625 -1.140625zm-2.171875 3.84375q0 1.359375 0.5625 2.125q0.578125 0.765625 1.578125 0.765625q1.03125 0 1.640625 -0.796875q0.609375 -0.796875 0.609375 -2.125q0 -1.21875 -0.5625 -1.96875q-0.5625 -0.75 -1.59375 -0.75q-1.046875 0 -1.640625 0.75q-0.59375 0.75 -0.59375 2.0zm8.072144 -6.5625l2.984375 9.078125l0.03125 0l3.015625 -9.078125l1.453125 0l-3.71875 10.46875l-1.59375 0l-3.6875 -10.46875l1.515625 0zm9.788513 0l0 1.53125l-1.234375 0l0 -1.53125l1.234375 0zm0 2.890625l0 7.578125l-1.234375 0l0 -7.578125l1.234375 0zm4.4592896 -0.171875q1.53125 0 2.265625 0.59375q0.75 0.59375 0.828125 1.78125l-1.25 0l0 -0.015625q-0.046875 -0.609375 -0.53125 -0.9375q-0.46875 -0.328125 -1.21875 -0.328125q-0.75 0 -1.1875 0.265625q-0.421875 0.25 -0.421875 0.703125q0 0.40625 0.375 0.671875q0.390625 0.265625 1.15625 0.4375l1.171875 0.265625q1.109375 0.234375 1.671875 0.75q0.578125 0.5 0.578125 1.34375q0 1.125 -0.875 1.765625q-0.859375 0.625 -2.34375 0.625q-1.453125 0 -2.3125 -0.640625q-0.84375 -0.65625 -0.90625 -1.921875l1.25 0q0.015625 0.703125 0.546875 1.09375q0.546875 0.375 1.484375 0.375q0.90625 0 1.359375 -0.28125q0.46875 -0.296875 0.46875 -0.84375q0 -0.515625 -0.46875 -0.8125q-0.453125 -0.296875 -1.875 -0.578125q-1.4375 -0.28125 -2.03125 -0.796875q-0.578125 -0.515625 -0.578125 -1.359375q0 -1.0 0.8125 -1.578125q0.8125 -0.578125 2.03125 -0.578125zm8.078125 0q1.71875 0 2.703125 1.109375q0.984375 1.109375 0.984375 2.859375q0 1.765625 -1.015625 2.859375q-1.0 1.09375 -2.671875 1.09375q-1.640625 0 -2.65625 -1.0625q-1.015625 -1.078125 -1.015625 -2.890625q0 -1.796875 0.984375 -2.875q1.0 -1.09375 2.6875 -1.09375zm-2.359375 3.96875q0 1.3125 0.65625 2.09375q0.671875 0.765625 1.703125 0.765625q1.03125 0 1.6875 -0.78125q0.671875 -0.78125 0.671875 -2.078125q0 -1.296875 -0.671875 -2.078125q-0.65625 -0.796875 -1.703125 -0.796875q-1.0 0 -1.671875 0.78125q-0.671875 0.765625 -0.671875 2.09375zm11.275269 -3.96875q0.046875 0 0.078125 0q0.046875 0 0.09375 0l0 1.3125q-1.390625 0 -2.0625 0.75q-0.671875 0.75 -0.671875 2.296875l0 3.390625l-1.25 0l0 -7.578125l1.171875 0l0 1.59375l0.03125 0q0.4375 -0.90625 1.078125 -1.328125q0.640625 -0.4375 1.53125 -0.4375z" fill-rule="nonzero"/><path fill="#013a3b" d="m692.479 213.52887l0 0c0 -16.603333 13.459656 -30.062988 30.062988 -30.062988l85.7323 0l0 0c7.9732056 0 15.619812 3.1673431 21.257751 8.805252c5.6378784 5.6378937 8.805237 13.284531 8.805237 21.257736l0 0l0 0c0 16.603333 -13.459656 30.062988 -30.062988 30.062988l-85.7323 0c-16.603333 0 -30.062988 -13.459656 -30.062988 -30.062988z" fill-rule="evenodd"/><path fill="#013a3b" d="m707.80164 204.64699l115.21265 0l0 17.763779l-115.21265 0z" fill-rule="evenodd"/><path fill="#d0fdf2" d="m737.11957 208.34012l0 1.1875l-5.484375 0l0 3.3125l4.8125 0l0 1.171875l-4.8125 0l0 4.796875l-1.390625 0l0 -10.46875l6.875 0zm2.6502686 0l0 1.53125l-1.234375 0l0 -1.53125l1.234375 0zm0 2.890625l0 7.578125l-1.234375 0l0 -7.578125l1.234375 0zm5.7092285 -0.171875q0.046875 0 0.078125 0q0.046875 0 0.09375 0l0 1.3125q-1.390625 0 -2.0625 0.75q-0.671875 0.75 -0.671875 2.296875l0 3.390625l-1.25 0l0 -7.578125l1.171875 0l0 1.59375l0.03125 0q0.4375 -0.90625 1.078125 -1.328125q0.640625 -0.4375 1.53125 -0.4375zm4.0063477 0q1.625 0 2.515625 1.171875q0.90625 1.171875 0.90625 3.015625l0 0.15625l-5.671875 0l0 0.078125q0 1.09375 0.625 1.75q0.640625 0.65625 1.734375 0.65625q0.828125 0 1.3125 -0.390625q0.5 -0.390625 0.65625 -1.09375l1.234375 0q-0.25 1.265625 -1.109375 1.921875q-0.84375 0.65625 -2.125 0.65625q-1.203125 0 -2.03125 -0.53125q-0.828125 -0.546875 -1.21875 -1.5q-0.390625 -0.96875 -0.390625 -1.96875q0 -1.6875 1.0 -2.796875q1.015625 -1.125 2.5625 -1.125zm-2.25 3.234375l4.359375 0q-0.0625 -0.921875 -0.671875 -1.53125q-0.609375 -0.609375 -1.53125 -0.609375q-0.859375 0 -1.46875 0.578125q-0.609375 0.578125 -0.6875 1.5625zm10.122009 -3.234375q1.390625 0 2.25 0.65625q0.875 0.65625 1.03125 1.953125l-1.296875 0q-0.140625 -0.734375 -0.640625 -1.125q-0.484375 -0.390625 -1.234375 -0.390625q-1.15625 0 -1.765625 0.78125q-0.59375 0.765625 -0.59375 2.1875q0 1.25 0.59375 2.015625q0.59375 0.75 1.625 0.75q0.90625 0 1.421875 -0.484375q0.53125 -0.5 0.65625 -1.359375l1.265625 0q-0.203125 1.40625 -1.0625 2.171875q-0.859375 0.765625 -2.265625 0.765625q-1.65625 0 -2.609375 -1.03125q-0.9375 -1.046875 -0.9375 -2.828125q0 -1.859375 0.953125 -2.953125q0.953125 -1.109375 2.609375 -1.109375zm8.481384 0q0.046875 0 0.078125 0q0.046875 0 0.09375 0l0 1.3125q-1.390625 0 -2.0625 0.75q-0.671875 0.75 -0.671875 2.296875l0 3.390625l-1.25 0l0 -7.578125l1.171875 0l0 1.59375l0.03125 0q0.4375 -0.90625 1.078125 -1.328125q0.640625 -0.4375 1.53125 -0.4375zm3.8578491 0q1.546875 0 2.1875 0.5625q0.65625 0.546875 0.65625 1.46875q0 3.9375 0 4.375q0 0.421875 0.390625 0.421875q0.09375 0 0.1875 -0.015625q0.109375 -0.03125 0.203125 -0.0625l0 0.96875q-0.171875 0.109375 -0.40625 0.15625q-0.21875 0.046875 -0.484375 0.046875q-0.515625 0 -0.796875 -0.28125q-0.265625 -0.296875 -0.265625 -0.890625q-0.5 0.59375 -1.171875 0.890625q-0.671875 0.28125 -1.5 0.28125q-1.171875 0 -1.84375 -0.546875q-0.65625 -0.5625 -0.65625 -1.578125q0 -1.015625 0.640625 -1.609375q0.65625 -0.609375 3.078125 -0.90625q0.8125 -0.109375 1.09375 -0.3125q0.296875 -0.203125 0.296875 -0.625q0 -0.625 -0.40625 -0.9375q-0.40625 -0.3125 -1.28125 -0.3125q-0.921875 0 -1.390625 0.359375q-0.453125 0.34375 -0.5 1.078125l-1.234375 0q0.046875 -1.25 0.875 -1.890625q0.84375 -0.640625 2.328125 -0.640625zm-2.1875 5.703125q0 0.53125 0.390625 0.828125q0.390625 0.296875 1.078125 0.296875q1.046875 0 1.671875 -0.515625q0.640625 -0.53125 0.640625 -1.171875l0 -1.3125q-0.3125 0.234375 -0.8125 0.3125q-0.5 0.078125 -1.328125 0.1875q-0.84375 0.125 -1.25 0.453125q-0.390625 0.328125 -0.390625 0.921875zm10.122009 -5.703125q1.390625 0 2.25 0.65625q0.875 0.65625 1.03125 1.953125l-1.296875 0q-0.140625 -0.734375 -0.640625 -1.125q-0.484375 -0.390625 -1.234375 -0.390625q-1.15625 0 -1.765625 0.78125q-0.59375 0.765625 -0.59375 2.1875q0 1.25 0.59375 2.015625q0.59375 0.75 1.625 0.75q0.90625 0 1.421875 -0.484375q0.53125 -0.5 0.65625 -1.359375l1.265625 0q-0.203125 1.40625 -1.0625 2.171875q-0.859375 0.765625 -2.265625 0.765625q-1.65625 0 -2.609375 -1.03125q-0.9375 -1.046875 -0.9375 -2.828125q0 -1.859375 0.953125 -2.953125q0.953125 -1.109375 2.609375 -1.109375zm6.0282593 -2.71875l0 6.203125l3.46875 -3.3125l1.671875 0l-3.015625 2.75l3.234375 4.828125l-1.578125 0l-2.609375 -3.953125l-1.171875 1.078125l0 2.875l-1.234375 0l0 -10.46875l1.234375 0zm9.393677 2.71875q1.625 0 2.515625 1.171875q0.90625 1.171875 0.90625 3.015625l0 0.15625l-5.671875 0l0 0.078125q0 1.09375 0.625 1.75q0.640625 0.65625 1.734375 0.65625q0.828125 0 1.3125 -0.390625q0.5 -0.390625 0.65625 -1.09375l1.234375 0q-0.25 1.265625 -1.109375 1.921875q-0.84375 0.65625 -2.125 0.65625q-1.203125 0 -2.03125 -0.53125q-0.828125 -0.546875 -1.21875 -1.5q-0.390625 -0.96875 -0.390625 -1.96875q0 -1.6875 1.0 -2.796875q1.015625 -1.125 2.5625 -1.125zm-2.25 3.234375l4.359375 0q-0.0625 -0.921875 -0.671875 -1.53125q-0.609375 -0.609375 -1.53125 -0.609375q-0.859375 0 -1.46875 0.578125q-0.609375 0.578125 -0.6875 1.5625zm10.731384 -3.234375q0.046875 0 0.078125 0q0.046875 0 0.09375 0l0 1.3125q-1.390625 0 -2.0625 0.75q-0.671875 0.75 -0.671875 2.296875l0 3.390625l-1.25 0l0 -7.578125l1.171875 0l0 1.59375l0.03125 0q0.4375 -0.90625 1.078125 -1.328125q0.640625 -0.4375 1.53125 -0.4375z" fill-rule="nonzero"/><path fill="#000000" fill-opacity="0.0" d="m48.0 60.121212l708.0 0l0 48.47244l-708.0 0z" fill-rule="evenodd"/><path fill="#013a3b" d="m60.796875 99.08371q-3.59375 0 -6.046875 -1.34375q-2.4375 -1.34375 -3.703125 -3.65625q-1.25 -2.328125 -1.25 -5.25l0 -1.1875l3.359375 0l0 0.953125q0 3.640625 2.03125 5.5q2.046875 1.859375 5.609375 1.859375q3.125 0 4.703125 -1.390625q1.578125 -1.40625 1.578125 -3.640625l0 -0.25q0 -2.203125 -1.625 -3.359375q-1.609375 -1.15625 -5.25 -1.671875q-4.203125 -0.609375 -6.703125 -2.390625q-2.5 -1.78125 -2.5 -5.375l0 -0.484375q0 -2.1875 1.171875 -3.84375q1.1875 -1.671875 3.265625 -2.625q2.078125 -0.96875 4.796875 -0.96875q3.171875 0 5.390625 1.171875q2.21875 1.15625 3.390625 3.0625q1.1875 1.890625 1.1875 4.171875l0 1.671875l-3.359375 0l0 -1.4375q0 -1.84375 -0.921875 -3.0625q-0.921875 -1.21875 -2.453125 -1.828125q-1.515625 -0.625 -3.265625 -0.625q-1.515625 0 -2.859375 0.515625q-1.34375 0.515625 -2.171875 1.5q-0.8125 0.984375 -0.8125 2.421875l0 0.234375q0 2.328125 1.875 3.390625q1.890625 1.0625 5.640625 1.609375q4.40625 0.640625 6.484375 2.5625q2.078125 1.921875 2.078125 5.125l0 0.484375q0 3.640625 -2.46875 5.90625q-2.453125 2.25 -7.171875 2.25zm22.839355 0q-2.59375 0 -4.703125 -1.171875q-2.09375 -1.1875 -3.34375 -3.4375q-1.234375 -2.265625 -1.234375 -5.546875l0 -0.640625q0 -3.25 1.234375 -5.53125q1.25 -2.28125 3.34375 -3.453125q2.109375 -1.1875 4.625 -1.1875q2.046875 0 3.703125 0.90625q1.65625 0.90625 2.625 2.78125l0.46875 0l0 -3.125l3.125 0l0 15.765625q0 1.203125 1.078125 1.203125l1.0 0l0 2.875l-2.125 0q-1.234375 0 -2.15625 -0.796875q-0.921875 -0.796875 -0.921875 -2.5625l-0.46875 0q-0.96875 1.953125 -2.671875 2.9375q-1.6875 0.984375 -3.578125 0.984375zm0.328125 -2.96875q2.796875 0 4.59375 -2.0q1.796875 -2.0 1.796875 -5.28125l0 -0.46875q0 -2.125 -0.84375 -3.765625q-0.828125 -1.640625 -2.28125 -2.578125q-1.4375 -0.9375 -3.265625 -0.9375q-1.84375 0 -3.28125 0.90625q-1.4375 0.890625 -2.28125 2.515625q-0.84375 1.609375 -0.84375 3.78125l0 0.640625q0 3.359375 1.796875 5.28125q1.8125 1.90625 4.609375 1.90625zm14.91748 2.40625l0 -19.84375l3.125 0l0 2.15625l0.46875 0q0.53125 -1.390625 1.53125 -2.046875q1.0 -0.671875 2.359375 -0.671875q1.4375 0 2.375 0.765625q0.9375 0.765625 1.296875 1.953125l0.484375 0q1.359375 -2.71875 4.3125 -2.71875q2.25 0 3.46875 1.421875q1.21875 1.421875 1.21875 3.703125l0 15.28125l-3.125 0l0 -14.234375q0 -1.40625 -0.640625 -2.296875q-0.640625 -0.90625 -2.03125 -0.90625q-1.328125 0 -2.15625 1.0q-0.8125 1.0 -0.8125 3.0l0 13.4375l-3.109375 0l0 -14.40625q0 -1.3125 -0.734375 -2.171875q-0.71875 -0.859375 -1.90625 -0.859375q-1.453125 0 -2.234375 1.046875q-0.765625 1.03125 -0.765625 2.703125l0 13.6875l-3.125 0zm25.32373 8.0l0 -27.84375l3.109375 0l0 3.125l0.484375 0q1.046875 -1.796875 2.875 -2.734375q1.84375 -0.953125 4.0 -0.953125q2.453125 0 4.53125 1.1875q2.078125 1.171875 3.328125 3.4375q1.265625 2.265625 1.265625 5.46875l0 0.796875q0 3.234375 -1.25 5.484375q-1.234375 2.234375 -3.328125 3.421875q-2.09375 1.171875 -4.625 1.171875q-1.921875 0 -3.84375 -0.890625q-1.90625 -0.90625 -2.953125 -2.71875l-0.484375 0l0 11.046875l-3.109375 0zm9.75 -10.40625q2.84375 0 4.734375 -1.90625q1.90625 -1.921875 1.90625 -5.203125l0 -0.796875q0 -2.125 -0.875 -3.71875q-0.875 -1.609375 -2.375 -2.5q-1.5 -0.90625 -3.390625 -0.90625q-1.828125 0 -3.328125 0.9375q-1.5 0.9375 -2.40625 2.578125q-0.90625 1.640625 -0.90625 3.765625l0 0.46875q0 2.203125 0.875 3.84375q0.890625 1.640625 2.40625 2.546875q1.53125 0.890625 3.359375 0.890625zm15.44873 2.40625l0 -2.875l7.203125 0l0 -22.25l-6.96875 0l0 -2.875l10.078125 0l0 25.125l7.203125 0l0 2.875l-17.515625 0zm33.308105 0.5625q-2.828125 0 -5.015625 -1.296875q-2.171875 -1.3125 -3.421875 -3.609375q-1.234375 -2.296875 -1.234375 -5.34375l0 -0.953125q0 -2.796875 1.28125 -5.0q1.28125 -2.203125 3.5 -3.484375q2.21875 -1.28125 4.984375 -1.28125q2.4375 0 4.21875 0.890625q1.78125 0.875 2.921875 2.234375q1.140625 1.359375 1.671875 2.90625q0.546875 1.53125 0.546875 2.859375l0 2.5625l-16.0 0q0.109375 2.90625 1.84375 4.734375q1.75 1.8125 4.796875 1.8125q2.828125 0 4.234375 -1.1875q1.40625 -1.203125 1.921875 -2.890625l2.953125 0.796875q-0.828125 2.765625 -3.09375 4.515625q-2.265625 1.734375 -6.109375 1.734375zm-6.46875 -12.40625l12.796875 0q-0.078125 -1.71875 -0.984375 -2.96875q-0.890625 -1.265625 -2.296875 -1.9375q-1.40625 -0.6875 -2.953125 -0.6875q-2.640625 0 -4.453125 1.609375q-1.796875 1.59375 -2.109375 3.984375zm53.67871 11.84375l0 -24.875l-8.15625 0l0 -3.125l19.671875 0l0 3.125l-8.15625 0l0 24.875l-3.359375 0zm26.35498 -22.953125q-1.125 0 -1.96875 -0.84375q-0.828125 -0.84375 -0.828125 -1.96875q0 -1.15625 0.828125 -1.96875q0.84375 -0.828125 1.96875 -0.828125q1.15625 0 1.96875 0.828125q0.828125 0.8125 0.828125 1.96875q0 1.125 -0.828125 1.96875q-0.8125 0.84375 -1.96875 0.84375zm-8.484375 22.953125l0 -2.875l6.96875 0l0 -14.078125l-6.234375 0l0 -2.890625l9.359375 0l0 16.96875l6.46875 0l0 2.875l-16.5625 0zm32.651855 0q-1.359375 0 -2.21875 -0.875q-0.859375 -0.890625 -0.859375 -2.25l0 -13.828125l-6.25 0l0 -2.890625l6.25 0l0 -8.15625l3.109375 0l0 8.15625l7.6875 0l0 2.890625l-7.6875 0l0 12.875q0 1.203125 1.078125 1.203125l5.640625 0l0 2.875l-6.75 0zm15.839355 0l0 -2.875l7.203125 0l0 -22.25l-6.96875 0l0 -2.875l10.078125 0l0 25.125l7.203125 0l0 2.875l-17.515625 0zm33.308105 0.5625q-2.828125 0 -5.015625 -1.296875q-2.171875 -1.3125 -3.421875 -3.609375q-1.234375 -2.296875 -1.234375 -5.34375l0 -0.953125q0 -2.796875 1.28125 -5.0q1.28125 -2.203125 3.5 -3.484375q2.21875 -1.28125 4.984375 -1.28125q2.4375 0 4.21875 0.890625q1.78125 0.875 2.921875 2.234375q1.140625 1.359375 1.671875 2.90625q0.546875 1.53125 0.546875 2.859375l0 2.5625l-16.0 0q0.109375 2.90625 1.84375 4.734375q1.75 1.8125 4.796875 1.8125q2.828125 0 4.234375 -1.1875q1.40625 -1.203125 1.921875 -2.890625l2.953125 0.796875q-0.828125 2.765625 -3.09375 4.515625q-2.265625 1.734375 -6.109375 1.734375zm-6.46875 -12.40625l12.796875 0q-0.078125 -1.71875 -0.984375 -2.96875q-0.890625 -1.265625 -2.296875 -1.9375q-1.40625 -0.6875 -2.953125 -0.6875q-2.640625 0 -4.453125 1.609375q-1.796875 1.59375 -2.109375 3.984375z" fill-rule="nonzero"/></g></svg>
