<svg version="1.1" viewBox="0.0 0.0 960.0 540.0" fill="none" stroke="none" stroke-linecap="square" stroke-miterlimit="10" xmlns:xlink="http://www.w3.org/1999/xlink" xmlns="http://www.w3.org/2000/svg"><clipPath id="g2d7ced72013_0_8.0"><path d="m0 0l960.0 0l0 540.0l-960.0 0l0 -540.0z" clip-rule="nonzero"/></clipPath><g clip-path="url(#g2d7ced72013_0_8.0)"><path fill="#d0fdf2" d="m0 0l960.0 0l0 540.0l-960.0 0z" fill-rule="evenodd"/><path fill="#000000" fill-opacity="0.0" d="m528.4908 87.64042l397.92126 0l0 392.34647l-397.92126 0z" fill-rule="evenodd"/><path fill="#013a3b" d="m542.29724 92.99542l0 15.125l-1.8125 0l0 -10.828125l-3.921875 0l0 -1.453125l0.0625 0q1.90625 0 2.953125 -0.6875q1.0625 -0.6875 1.328125 -2.15625l1.390625 0zm8.408569 12.765625l0 2.359375l-2.375 0l0 -2.359375l2.375 0z" fill-rule="nonzero"/><path fill="#013a3b" d="m583.27203 92.52667q2.546875 0 4.03125 1.234375q1.484375 1.234375 1.578125 3.59375l-1.90625 0q-0.1875 -1.5625 -1.140625 -2.328125q-0.9375 -0.78125 -2.640625 -0.78125q-1.625 0 -2.53125 0.671875q-0.890625 0.671875 -0.890625 1.921875q0 0.890625 0.765625 1.46875q0.765625 0.5625 4.125 1.234375q2.4375 0.5 3.640625 1.53125q1.21875 1.03125 1.21875 2.875q0 2.125 -1.734375 3.328125q-1.734375 1.203125 -4.21875 1.203125q-2.765625 0 -4.515625 -1.375q-1.75 -1.390625 -1.765625 -4.0l1.90625 0q0.03125 1.75 1.25 2.71875q1.21875 0.953125 3.1875 0.953125q1.84375 0 2.84375 -0.703125q1.015625 -0.71875 1.015625 -2.0625q0 -1.09375 -0.921875 -1.75q-0.921875 -0.65625 -3.359375 -1.125q-3.25 -0.609375 -4.359375 -1.578125q-1.09375 -0.984375 -1.09375 -2.5625q0 -2.0625 1.546875 -3.265625q1.5625 -1.203125 3.96875 -1.203125zm12.991455 4.3125q2.375 0 3.671875 1.71875q1.3125 1.703125 1.3125 4.375l0 0.21875l-8.25 0l0 0.140625q0 1.5625 0.90625 2.53125q0.921875 0.953125 2.53125 0.953125q1.203125 0 1.921875 -0.5625q0.71875 -0.5625 0.9375 -1.59375l1.78125 0q-0.359375 1.828125 -1.609375 2.796875q-1.234375 0.96875 -3.09375 0.96875q-1.734375 0 -2.9375 -0.78125q-1.203125 -0.796875 -1.78125 -2.1875q-0.578125 -1.40625 -0.578125 -2.875q0 -2.4375 1.46875 -4.0625q1.46875 -1.640625 3.71875 -1.640625zm-3.265625 4.703125l6.328125 0q-0.078125 -1.34375 -0.96875 -2.21875q-0.890625 -0.890625 -2.21875 -0.890625q-1.25 0 -2.140625 0.84375q-0.890625 0.84375 -1.0 2.265625zm14.736755 -4.703125q2.015625 0 3.28125 0.96875q1.265625 0.953125 1.46875 2.828125l-1.859375 0q-0.21875 -1.078125 -0.9375 -1.640625q-0.71875 -0.5625 -1.796875 -0.5625q-1.6875 0 -2.5625 1.140625q-0.875 1.125 -0.875 3.171875q0 1.828125 0.859375 2.9375q0.875 1.09375 2.359375 1.09375q1.328125 0 2.09375 -0.703125q0.765625 -0.71875 0.9375 -1.984375l1.84375 0q-0.296875 2.0625 -1.546875 3.1875q-1.25 1.109375 -3.3125 1.109375q-2.40625 0 -3.78125 -1.515625q-1.375 -1.515625 -1.375 -4.125q0 -2.703125 1.390625 -4.296875q1.390625 -1.609375 3.8125 -1.609375zm9.377441 -3.046875l0 3.296875l2.1875 0l0 1.609375l-2.1875 0l0 6.90625q0 0.8125 0.546875 0.859375q0.546875 0.046875 1.140625 0.046875l0.5 0l0 1.609375l-1.5 0q-1.484375 0 -2.0 -0.53125q-0.5 -0.53125 -0.5 -1.78125l0 -7.109375l-1.890625 0l0 -1.609375l1.890625 0l0 -3.296875l1.8125 0zm6.107727 -0.890625l0 2.21875l-1.8125 0l0 -2.21875l1.8125 0zm0 4.1875l0 11.03125l-1.8125 0l0 -11.03125l1.8125 0zm7.5822144 -0.25q2.5 0 3.921875 1.625q1.421875 1.609375 1.421875 4.15625q0 2.578125 -1.453125 4.171875q-1.453125 1.59375 -3.890625 1.59375q-2.390625 0 -3.875 -1.5625q-1.484375 -1.578125 -1.484375 -4.203125q0 -2.625 1.453125 -4.203125q1.453125 -1.578125 3.90625 -1.578125zm-3.4375 5.78125q0 1.890625 0.96875 3.03125q0.96875 1.125 2.46875 1.125q1.484375 0 2.453125 -1.125q0.984375 -1.140625 0.984375 -3.03125q0 -1.890625 -0.96875 -3.03125q-0.96875 -1.15625 -2.484375 -1.15625q-1.46875 0 -2.453125 1.140625q-0.96875 1.125 -0.96875 3.046875zm16.262634 -5.78125q2.0 0 2.890625 1.03125q0.90625 1.015625 0.90625 2.90625l0 7.34375l-1.8125 0l0 -7.53125q0 -0.9375 -0.609375 -1.546875q-0.59375 -0.609375 -1.65625 -0.609375q-1.53125 0 -2.390625 0.953125q-0.859375 0.9375 -0.859375 2.4375l0 6.296875l-1.8125 0l0 -11.03125l1.71875 0l0 1.75l0.03125 0q0.609375 -1.03125 1.484375 -1.515625q0.890625 -0.484375 2.109375 -0.484375zm17.006042 -3.84375q1.28125 0 2.203125 0.421875q0.9375 0.40625 1.578125 1.25q1.265625 1.640625 1.265625 6.03125q0 2.203125 -0.3125 3.6875q-0.296875 1.484375 -0.953125 2.328125q-0.625 0.8125 -1.5625 1.25q-0.9375 0.421875 -2.21875 0.421875q-2.515625 0 -3.765625 -1.6875q-1.265625 -1.6875 -1.265625 -6.0q0 -4.34375 1.265625 -6.015625q1.265625 -1.6875 3.765625 -1.6875zm-3.109375 7.671875q0 1.8125 0.203125 3.015625q0.203125 1.1875 0.59375 1.828125q0.796875 1.265625 2.3125 1.265625q1.6875 0 2.421875 -1.453125q0.359375 -0.734375 0.53125 -1.859375q0.171875 -1.140625 0.171875 -2.734375q0 -0.53125 -0.015625 -1.1875q-0.015625 -0.65625 -0.09375 -1.328125q-0.078125 -0.671875 -0.265625 -1.3125q-0.1875 -0.65625 -0.53125 -1.15625q-0.34375 -0.5 -0.890625 -0.8125q-0.53125 -0.328125 -1.34375 -0.328125q-0.71875 0 -1.296875 0.3125q-0.5625 0.296875 -0.984375 0.921875q-0.8125 1.234375 -0.8125 4.828125zm16.642944 -7.671875l0 15.125l-1.8125 0l0 -10.828125l-3.921875 0l0 -1.453125l0.0625 0q1.90625 0 2.953125 -0.6875q1.0625 -0.6875 1.328125 -2.15625l1.390625 0z" fill-rule="nonzero"/><path fill="#013a3b" d="m540.50037 122.43542q2.09375 0 3.421875 1.1875q1.328125 1.1875 1.328125 3.171875q0 1.5625076 -0.875 2.8281326q-0.875 1.25 -3.71875 2.890625q-1.71875 1.0 -2.453125 1.796875q-0.71875 0.78125 -0.875 1.640625l7.765625 0l0 1.609375l-9.875 0q0.15625 -1.890625 0.96875 -3.296875q0.8125 -1.421875 3.0625 -2.75q2.640625 -1.625 3.34375 -2.53125q0.71875 -0.921875 0.71875 -2.2031326q0 -1.1875 -0.828125 -1.953125q-0.828125 -0.78125 -2.078125 -0.78125q-1.375 0 -2.171875 1.015625q-0.78125 1.015625 -0.78125 2.578125l0 0.15625l-1.8125 0l-0.015625 -0.375q0 -2.25 1.328125 -3.609375q1.34375 -1.375 3.546875 -1.375zm10.205444 12.765633l0 2.359375l-2.375 0l0 -2.359375l2.375 0z" fill-rule="nonzero"/><path fill="#013a3b" d="m583.27203 121.96667q2.546875 0 4.03125 1.234375q1.484375 1.234375 1.578125 3.59375l-1.90625 0q-0.1875 -1.5625 -1.140625 -2.328125q-0.9375 -0.78125 -2.640625 -0.78125q-1.625 0 -2.53125 0.671875q-0.890625 0.671875 -0.890625 1.921875q0 0.890625 0.765625 1.46875q0.765625 0.5625076 4.125 1.2343826q2.4375 0.5 3.640625 1.53125q1.21875 1.03125 1.21875 2.875q0 2.125 -1.734375 3.328125q-1.734375 1.203125 -4.21875 1.203125q-2.765625 0 -4.515625 -1.375q-1.75 -1.390625 -1.765625 -4.0l1.90625 0q0.03125 1.75 1.25 2.71875q1.21875 0.953125 3.1875 0.953125q1.84375 0 2.84375 -0.703125q1.015625 -0.71875 1.015625 -2.0625q0 -1.09375 -0.921875 -1.75q-0.921875 -0.65625 -3.359375 -1.125q-3.25 -0.609375 -4.359375 -1.578125q-1.09375 -0.984375 -1.09375 -2.5625076q0 -2.0625 1.546875 -3.265625q1.5625 -1.203125 3.96875 -1.203125zm12.991455 4.3125q2.375 0 3.671875 1.71875q1.3125 1.7031326 1.3125 4.3750076l0 0.21875l-8.25 0l0 0.140625q0 1.5625 0.90625 2.53125q0.921875 0.953125 2.53125 0.953125q1.203125 0 1.921875 -0.5625q0.71875 -0.5625 0.9375 -1.59375l1.78125 0q-0.359375 1.828125 -1.609375 2.796875q-1.234375 0.96875 -3.09375 0.96875q-1.734375 0 -2.9375 -0.78125q-1.203125 -0.796875 -1.78125 -2.1875q-0.578125 -1.40625 -0.578125 -2.875q0 -2.4375 1.46875 -4.0625076q1.46875 -1.640625 3.71875 -1.640625zm-3.265625 4.7031326l6.328125 0q-0.078125 -1.34375 -0.96875 -2.21875q-0.890625 -0.8906326 -2.21875 -0.8906326q-1.25 0 -2.140625 0.8437576q-0.890625 0.84375 -1.0 2.265625zm14.736755 -4.7031326q2.015625 0 3.28125 0.96875q1.265625 0.9531326 1.46875 2.8281326l-1.859375 0q-0.21875 -1.078125 -0.9375 -1.640625q-0.71875 -0.5625076 -1.796875 -0.5625076q-1.6875 0 -2.5625 1.1406326q-0.875 1.125 -0.875 3.171875q0 1.828125 0.859375 2.9375q0.875 1.09375 2.359375 1.09375q1.328125 0 2.09375 -0.703125q0.765625 -0.71875 0.9375 -1.984375l1.84375 0q-0.296875 2.0625 -1.546875 3.1875q-1.25 1.109375 -3.3125 1.109375q-2.40625 0 -3.78125 -1.515625q-1.375 -1.515625 -1.375 -4.125q0 -2.703125 1.390625 -4.2968826q1.390625 -1.609375 3.8125 -1.609375zm9.377441 -3.046875l0 3.296875l2.1875 0l0 1.6093826l-2.1875 0l0 6.90625q0 0.8125 0.546875 0.859375q0.546875 0.046875 1.140625 0.046875l0.5 0l0 1.609375l-1.5 0q-1.484375 0 -2.0 -0.53125q-0.5 -0.53125 -0.5 -1.78125l0 -7.109375l-1.890625 0l0 -1.6093826l1.890625 0l0 -3.296875l1.8125 0zm6.107727 -0.890625l0 2.21875l-1.8125 0l0 -2.21875l1.8125 0zm0 4.1875l0 11.031258l-1.8125 0l0 -11.031258l1.8125 0zm7.5822144 -0.25q2.5 0 3.921875 1.625q1.421875 1.6093826 1.421875 4.1562576q0 2.578125 -1.453125 4.171875q-1.453125 1.59375 -3.890625 1.59375q-2.390625 0 -3.875 -1.5625q-1.484375 -1.578125 -1.484375 -4.203125q0 -2.625 1.453125 -4.2031326q1.453125 -1.578125 3.90625 -1.578125zm-3.4375 5.7812576q0 1.890625 0.96875 3.03125q0.96875 1.125 2.46875 1.125q1.484375 0 2.453125 -1.125q0.984375 -1.140625 0.984375 -3.03125q0 -1.890625 -0.96875 -3.03125q-0.96875 -1.1562576 -2.484375 -1.1562576q-1.46875 0 -2.453125 1.1406326q-0.96875 1.125 -0.96875 3.046875zm16.262634 -5.7812576q2.0 0 2.890625 1.03125q0.90625 1.0156326 0.90625 2.9062576l0 7.34375l-1.8125 0l0 -7.53125q0 -0.9375 -0.609375 -1.546875q-0.59375 -0.6093826 -1.65625 -0.6093826q-1.53125 0 -2.390625 0.9531326q-0.859375 0.9375 -0.859375 2.4375l0 6.296875l-1.8125 0l0 -11.031258l1.71875 0l0 1.7500076l0.03125 0q0.609375 -1.0312576 1.484375 -1.5156326q0.890625 -0.484375 2.109375 -0.484375zm17.006042 -3.84375q1.28125 0 2.203125 0.421875q0.9375 0.40625 1.578125 1.25q1.265625 1.640625 1.265625 6.0312576q0 2.203125 -0.3125 3.6875q-0.296875 1.484375 -0.953125 2.328125q-0.625 0.8125 -1.5625 1.25q-0.9375 0.421875 -2.21875 0.421875q-2.515625 0 -3.765625 -1.6875q-1.265625 -1.6875 -1.265625 -6.0q0 -4.3437576 1.265625 -6.0156326q1.265625 -1.6875 3.765625 -1.6875zm-3.109375 7.6718826q0 1.8125 0.203125 3.015625q0.203125 1.1875 0.59375 1.828125q0.796875 1.265625 2.3125 1.265625q1.6875 0 2.421875 -1.453125q0.359375 -0.734375 0.53125 -1.859375q0.171875 -1.140625 0.171875 -2.734375q0 -0.53125 -0.015625 -1.1875q-0.015625 -0.65625 -0.09375 -1.3281326q-0.078125 -0.671875 -0.265625 -1.3125q-0.1875 -0.65625 -0.53125 -1.15625q-0.34375 -0.5 -0.890625 -0.8125q-0.53125 -0.328125 -1.34375 -0.328125q-0.71875 0 -1.296875 0.3125q-0.5625 0.296875 -0.984375 0.921875q-0.8125 1.234375 -0.8125 4.8281326zm14.846069 -7.6718826q2.09375 0 3.421875 1.1875q1.328125 1.1875 1.328125 3.171875q0 1.5625076 -0.875 2.8281326q-0.875 1.25 -3.71875 2.890625q-1.71875 1.0 -2.453125 1.796875q-0.71875 0.78125 -0.875 1.640625l7.765625 0l0 1.609375l-9.875 0q0.15625 -1.890625 0.96875 -3.296875q0.8125 -1.421875 3.0625 -2.75q2.640625 -1.625 3.34375 -2.53125q0.71875 -0.921875 0.71875 -2.2031326q0 -1.1875 -0.828125 -1.953125q-0.828125 -0.78125 -2.078125 -0.78125q-1.375 0 -2.171875 1.015625q-0.78125 1.015625 -0.78125 2.578125l0 0.15625l-1.8125 0l-0.015625 -0.375q0 -2.25 1.328125 -3.609375q1.34375 -1.375 3.546875 -1.375z" fill-rule="nonzero"/><path fill="#013a3b" d="m540.3285 151.87543q2.171875 0 3.390625 1.078125q1.21875 1.078125 1.21875 2.96875q0 0.90625 -0.546875 1.71875q-0.53125 0.8125 -1.546875 1.296875l0 0.046875q1.328125 0.296875 2.015625 1.265625q0.703125 0.953125 0.703125 2.390625q0 2.125 -1.453125 3.375q-1.4375 1.25 -3.734375 1.25q-2.28125 0 -3.671875 -1.265625q-1.375 -1.265625 -1.375 -3.609375l0 -0.0625l1.828125 0q0.0625 1.609375 0.921875 2.46875q0.859375 0.859375 2.296875 0.859375q1.40625 0 2.34375 -0.8125q0.9375 -0.828125 0.9375 -2.109375q0 -1.34375 -0.890625 -2.125q-0.890625 -0.78125 -2.40625 -0.78125q-0.21875 0 -0.484375 0.015625q-0.265625 0.015625 -0.53125 0.046875l0 -1.53125q0.234375 0.03125 0.65625 0.03125q1.0625 0 1.6875 -0.34375q0.625 -0.34375 0.96875 -0.859375q0.359375 -0.53125 0.359375 -1.28125q0 -1.125 -0.734375 -1.765625q-0.71875 -0.65625 -1.953125 -0.65625q-1.328125 0 -2.078125 0.875q-0.75 0.859375 -0.78125 2.40625l-1.8125 0q0.109375 -2.359375 1.328125 -3.625q1.21875 -1.265625 3.34375 -1.265625zm10.377319 12.765625l0 2.359375l-2.375 0l0 -2.359375l2.375 0z" fill-rule="nonzero"/><path fill="#013a3b" d="m583.27203 151.40668q2.546875 0 4.03125 1.234375q1.484375 1.234375 1.578125 3.59375l-1.90625 0q-0.1875 -1.5625 -1.140625 -2.328125q-0.9375 -0.78125 -2.640625 -0.78125q-1.625 0 -2.53125 0.671875q-0.890625 0.671875 -0.890625 1.921875q0 0.890625 0.765625 1.46875q0.765625 0.5625 4.125 1.234375q2.4375 0.5 3.640625 1.53125q1.21875 1.03125 1.21875 2.875q0 2.125 -1.734375 3.328125q-1.734375 1.203125 -4.21875 1.203125q-2.765625 0 -4.515625 -1.375q-1.75 -1.390625 -1.765625 -4.0l1.90625 0q0.03125 1.75 1.25 2.71875q1.21875 0.953125 3.1875 0.953125q1.84375 0 2.84375 -0.703125q1.015625 -0.71875 1.015625 -2.0625q0 -1.09375 -0.921875 -1.75q-0.921875 -0.65625 -3.359375 -1.125q-3.25 -0.609375 -4.359375 -1.578125q-1.09375 -0.984375 -1.09375 -2.5625q0 -2.0625 1.546875 -3.265625q1.5625 -1.203125 3.96875 -1.203125zm12.991455 4.3125q2.375 0 3.671875 1.71875q1.3125 1.703125 1.3125 4.375l0 0.21875l-8.25 0l0 0.140625q0 1.5625 0.90625 2.53125q0.921875 0.953125 2.53125 0.953125q1.203125 0 1.921875 -0.5625q0.71875 -0.5625 0.9375 -1.59375l1.78125 0q-0.359375 1.828125 -1.609375 2.796875q-1.234375 0.96875 -3.09375 0.96875q-1.734375 0 -2.9375 -0.78125q-1.203125 -0.796875 -1.78125 -2.1875q-0.578125 -1.40625 -0.578125 -2.875q0 -2.4375 1.46875 -4.0625q1.46875 -1.640625 3.71875 -1.640625zm-3.265625 4.703125l6.328125 0q-0.078125 -1.34375 -0.96875 -2.21875q-0.890625 -0.890625 -2.21875 -0.890625q-1.25 0 -2.140625 0.84375q-0.890625 0.84375 -1.0 2.265625zm14.736755 -4.703125q2.015625 0 3.28125 0.96875q1.265625 0.953125 1.46875 2.828125l-1.859375 0q-0.21875 -1.078125 -0.9375 -1.640625q-0.71875 -0.5625 -1.796875 -0.5625q-1.6875 0 -2.5625 1.140625q-0.875 1.125 -0.875 3.171875q0 1.828125 0.859375 2.9375q0.875 1.09375 2.359375 1.09375q1.328125 0 2.09375 -0.703125q0.765625 -0.71875 0.9375 -1.984375l1.84375 0q-0.296875 2.0625 -1.546875 3.1875q-1.25 1.109375 -3.3125 1.109375q-2.40625 0 -3.78125 -1.515625q-1.375 -1.515625 -1.375 -4.125q0 -2.703125 1.390625 -4.296875q1.390625 -1.609375 3.8125 -1.609375zm9.377441 -3.046875l0 3.296875l2.1875 0l0 1.609375l-2.1875 0l0 6.90625q0 0.8125 0.546875 0.859375q0.546875 0.046875 1.140625 0.046875l0.5 0l0 1.609375l-1.5 0q-1.484375 0 -2.0 -0.53125q-0.5 -0.53125 -0.5 -1.78125l0 -7.109375l-1.890625 0l0 -1.609375l1.890625 0l0 -3.296875l1.8125 0zm6.107727 -0.890625l0 2.21875l-1.8125 0l0 -2.21875l1.8125 0zm0 4.1875l0 11.03125l-1.8125 0l0 -11.03125l1.8125 0zm7.5822144 -0.25q2.5 0 3.921875 1.625q1.421875 1.609375 1.421875 4.15625q0 2.578125 -1.453125 4.171875q-1.453125 1.59375 -3.890625 1.59375q-2.390625 0 -3.875 -1.5625q-1.484375 -1.578125 -1.484375 -4.203125q0 -2.625 1.453125 -4.203125q1.453125 -1.578125 3.90625 -1.578125zm-3.4375 5.78125q0 1.890625 0.96875 3.03125q0.96875 1.125 2.46875 1.125q1.484375 0 2.453125 -1.125q0.984375 -1.140625 0.984375 -3.03125q0 -1.890625 -0.96875 -3.03125q-0.96875 -1.15625 -2.484375 -1.15625q-1.46875 0 -2.453125 1.140625q-0.96875 1.125 -0.96875 3.046875zm16.262634 -5.78125q2.0 0 2.890625 1.03125q0.90625 1.015625 0.90625 2.90625l0 7.34375l-1.8125 0l0 -7.53125q0 -0.9375 -0.609375 -1.546875q-0.59375 -0.609375 -1.65625 -0.609375q-1.53125 0 -2.390625 0.953125q-0.859375 0.9375 -0.859375 2.4375l0 6.296875l-1.8125 0l0 -11.03125l1.71875 0l0 1.75l0.03125 0q0.609375 -1.03125 1.484375 -1.515625q0.890625 -0.484375 2.109375 -0.484375zm17.006042 -3.84375q1.28125 0 2.203125 0.421875q0.9375 0.40625 1.578125 1.25q1.265625 1.640625 1.265625 6.03125q0 2.203125 -0.3125 3.6875q-0.296875 1.484375 -0.953125 2.328125q-0.625 0.8125 -1.5625 1.25q-0.9375 0.421875 -2.21875 0.421875q-2.515625 0 -3.765625 -1.6875q-1.265625 -1.6875 -1.265625 -6.0q0 -4.34375 1.265625 -6.015625q1.265625 -1.6875 3.765625 -1.6875zm-3.109375 7.671875q0 1.8125 0.203125 3.015625q0.203125 1.1875 0.59375 1.828125q0.796875 1.265625 2.3125 1.265625q1.6875 0 2.421875 -1.453125q0.359375 -0.734375 0.53125 -1.859375q0.171875 -1.140625 0.171875 -2.734375q0 -0.53125 -0.015625 -1.1875q-0.015625 -0.65625 -0.09375 -1.328125q-0.078125 -0.671875 -0.265625 -1.3125q-0.1875 -0.65625 -0.53125 -1.15625q-0.34375 -0.5 -0.890625 -0.8125q-0.53125 -0.328125 -1.34375 -0.328125q-0.71875 0 -1.296875 0.3125q-0.5625 0.296875 -0.984375 0.921875q-0.8125 1.234375 -0.8125 4.828125zm14.674194 -7.671875q2.171875 0 3.390625 1.078125q1.21875 1.078125 1.21875 2.96875q0 0.90625 -0.546875 1.71875q-0.53125 0.8125 -1.546875 1.296875l0 0.046875q1.328125 0.296875 2.015625 1.265625q0.703125 0.953125 0.703125 2.390625q0 2.125 -1.453125 3.375q-1.4375 1.25 -3.734375 1.25q-2.28125 0 -3.671875 -1.265625q-1.375 -1.265625 -1.375 -3.609375l0 -0.0625l1.828125 0q0.0625 1.609375 0.921875 2.46875q0.859375 0.859375 2.296875 0.859375q1.40625 0 2.34375 -0.8125q0.9375 -0.828125 0.9375 -2.109375q0 -1.34375 -0.890625 -2.125q-0.890625 -0.78125 -2.40625 -0.78125q-0.21875 0 -0.484375 0.015625q-0.265625 0.015625 -0.53125 0.046875l0 -1.53125q0.234375 0.03125 0.65625 0.03125q1.0625 0 1.6875 -0.34375q0.625 -0.34375 0.96875 -0.859375q0.359375 -0.53125 0.359375 -1.28125q0 -1.125 -0.734375 -1.765625q-0.71875 -0.65625 -1.953125 -0.65625q-1.328125 0 -2.078125 0.875q-0.75 0.859375 -0.78125 2.40625l-1.8125 0q0.109375 -2.359375 1.328125 -3.625q1.21875 -1.265625 3.34375 -1.265625z" fill-rule="nonzero"/><path fill="#013a3b" d="m542.25037 181.50293l1.21875 0l0 10.09375l2.234375 0l0 1.140625l-2.234375 0l0 3.703125l-1.234375 0l0 -3.703125l-6.890625 0l0 -1.3125l6.90625 -9.921875zm-5.6875 10.09375l5.671875 0l0 -8.125l-0.046875 0l-5.625 8.125zm13.861694 2.578125l0 2.265625l-1.78125 0l0 -2.265625l1.78125 0z" fill-rule="nonzero"/><path fill="#013a3b" d="m583.27203 180.84668q2.546875 0 4.03125 1.234375q1.484375 1.234375 1.578125 3.59375l-1.90625 0q-0.1875 -1.5625 -1.140625 -2.328125q-0.9375 -0.78125 -2.640625 -0.78125q-1.625 0 -2.53125 0.671875q-0.890625 0.671875 -0.890625 1.921875q0 0.890625 0.765625 1.46875q0.765625 0.5625 4.125 1.234375q2.4375 0.5 3.640625 1.53125q1.21875 1.03125 1.21875 2.875q0 2.125 -1.734375 3.328125q-1.734375 1.203125 -4.21875 1.203125q-2.765625 0 -4.515625 -1.375q-1.75 -1.390625 -1.765625 -4.0l1.90625 0q0.03125 1.75 1.25 2.71875q1.21875 0.953125 3.1875 0.953125q1.84375 0 2.84375 -0.703125q1.015625 -0.71875 1.015625 -2.0625q0 -1.09375 -0.921875 -1.75q-0.921875 -0.65625 -3.359375 -1.125q-3.25 -0.609375 -4.359375 -1.578125q-1.09375 -0.984375 -1.09375 -2.5625q0 -2.0625 1.546875 -3.265625q1.5625 -1.203125 3.96875 -1.203125zm12.991455 4.3125q2.375 0 3.671875 1.71875q1.3125 1.703125 1.3125 4.375l0 0.21875l-8.25 0l0 0.140625q0 1.5625 0.90625 2.53125q0.921875 0.953125 2.53125 0.953125q1.203125 0 1.921875 -0.5625q0.71875 -0.5625 0.9375 -1.59375l1.78125 0q-0.359375 1.828125 -1.609375 2.796875q-1.234375 0.96875 -3.09375 0.96875q-1.734375 0 -2.9375 -0.78125q-1.203125 -0.796875 -1.78125 -2.1875q-0.578125 -1.40625 -0.578125 -2.875q0 -2.4375 1.46875 -4.0625q1.46875 -1.640625 3.71875 -1.640625zm-3.265625 4.703125l6.328125 0q-0.078125 -1.34375 -0.96875 -2.21875q-0.890625 -0.890625 -2.21875 -0.890625q-1.25 0 -2.140625 0.84375q-0.890625 0.84375 -1.0 2.265625zm14.736755 -4.703125q2.015625 0 3.28125 0.96875q1.265625 0.953125 1.46875 2.828125l-1.859375 0q-0.21875 -1.078125 -0.9375 -1.640625q-0.71875 -0.5625 -1.796875 -0.5625q-1.6875 0 -2.5625 1.140625q-0.875 1.125 -0.875 3.171875q0 1.828125 0.859375 2.9375q0.875 1.09375 2.359375 1.09375q1.328125 0 2.09375 -0.703125q0.765625 -0.71875 0.9375 -1.984375l1.84375 0q-0.296875 2.0625 -1.546875 3.1875q-1.25 1.109375 -3.3125 1.109375q-2.40625 0 -3.78125 -1.515625q-1.375 -1.515625 -1.375 -4.125q0 -2.703125 1.390625 -4.296875q1.390625 -1.609375 3.8125 -1.609375zm9.377441 -3.046875l0 3.296875l2.1875 0l0 1.609375l-2.1875 0l0 6.90625q0 0.8125 0.546875 0.859375q0.546875 0.046875 1.140625 0.046875l0.5 0l0 1.609375l-1.5 0q-1.484375 0 -2.0 -0.53125q-0.5 -0.53125 -0.5 -1.78125l0 -7.109375l-1.890625 0l0 -1.609375l1.890625 0l0 -3.296875l1.8125 0zm6.107727 -0.890625l0 2.21875l-1.8125 0l0 -2.21875l1.8125 0zm0 4.1875l0 11.03125l-1.8125 0l0 -11.03125l1.8125 0zm7.5822144 -0.25q2.5 0 3.921875 1.625q1.421875 1.609375 1.421875 4.15625q0 2.578125 -1.453125 4.171875q-1.453125 1.59375 -3.890625 1.59375q-2.390625 0 -3.875 -1.5625q-1.484375 -1.578125 -1.484375 -4.203125q0 -2.625 1.453125 -4.203125q1.453125 -1.578125 3.90625 -1.578125zm-3.4375 5.78125q0 1.890625 0.96875 3.03125q0.96875 1.125 2.46875 1.125q1.484375 0 2.453125 -1.125q0.984375 -1.140625 0.984375 -3.03125q0 -1.890625 -0.96875 -3.03125q-0.96875 -1.15625 -2.484375 -1.15625q-1.46875 0 -2.453125 1.140625q-0.96875 1.125 -0.96875 3.046875zm16.262634 -5.78125q2.0 0 2.890625 1.03125q0.90625 1.015625 0.90625 2.90625l0 7.34375l-1.8125 0l0 -7.53125q0 -0.9375 -0.609375 -1.546875q-0.59375 -0.609375 -1.65625 -0.609375q-1.53125 0 -2.390625 0.953125q-0.859375 0.9375 -0.859375 2.4375l0 6.296875l-1.8125 0l0 -11.03125l1.71875 0l0 1.75l0.03125 0q0.609375 -1.03125 1.484375 -1.515625q0.890625 -0.484375 2.109375 -0.484375zm17.006042 -3.84375q1.28125 0 2.203125 0.421875q0.9375 0.40625 1.578125 1.25q1.265625 1.640625 1.265625 6.03125q0 2.203125 -0.3125 3.6875q-0.296875 1.484375 -0.953125 2.328125q-0.625 0.8125 -1.5625 1.25q-0.9375 0.421875 -2.21875 0.421875q-2.515625 0 -3.765625 -1.6875q-1.265625 -1.6875 -1.265625 -6.0q0 -4.34375 1.265625 -6.015625q1.265625 -1.6875 3.765625 -1.6875zm-3.109375 7.671875q0 1.8125 0.203125 3.015625q0.203125 1.1875 0.59375 1.828125q0.796875 1.265625 2.3125 1.265625q1.6875 0 2.421875 -1.453125q0.359375 -0.734375 0.53125 -1.859375q0.171875 -1.140625 0.171875 -2.734375q0 -0.53125 -0.015625 -1.1875q-0.015625 -0.65625 -0.09375 -1.328125q-0.078125 -0.671875 -0.265625 -1.3125q-0.1875 -0.65625 -0.53125 -1.15625q-0.34375 -0.5 -0.890625 -0.8125q-0.53125 -0.328125 -1.34375 -0.328125q-0.71875 0 -1.296875 0.3125q-0.5625 0.296875 -0.984375 0.921875q-0.8125 1.234375 -0.8125 4.828125zm17.986694 -7.671875l0 9.984375l2.046875 0l0 1.59375l-2.046875 0l0 3.546875l-1.703125 0l0 -3.546875l-6.640625 0l0 -1.75l6.890625 -9.828125l1.453125 0zm-1.75 2.59375l-5.03125 7.390625l5.078125 0l0 -7.390625l-0.046875 0z" fill-rule="nonzero"/><path fill="#013a3b" d="m544.73474 211.02106l0 1.59375l-6.109375 0l-0.8125 4.34375l0.046875 0.046875q0.484375 -0.515625 1.203125 -0.796875q0.71875 -0.28125 1.625 -0.28125q2.1875 0 3.515625 1.375q1.34375 1.375 1.34375 3.78125q0 2.1875 -1.453125 3.625q-1.453125 1.4375 -3.8125 1.4375q-2.03125 0 -3.40625 -1.171875q-1.359375 -1.171875 -1.421875 -3.140625l0 -0.03125l1.8125 0q0.078125 1.21875 0.96875 1.984375q0.890625 0.75 2.203125 0.75q1.40625 0 2.296875 -0.953125q0.90625 -0.96875 0.90625 -2.625q0 -1.546875 -0.984375 -2.484375q-0.984375 -0.953125 -2.4375 -0.953125q-0.796875 0 -1.5 0.359375q-0.703125 0.359375 -1.3125 1.0625l-1.546875 -0.078125l1.40625 -7.84375l7.46875 0zm5.9710693 12.5l0 2.359375l-2.375 0l0 -2.359375l2.375 0z" fill-rule="nonzero"/><path fill="#013a3b" d="m583.27203 210.28668q2.546875 0 4.03125 1.234375q1.484375 1.234375 1.578125 3.59375l-1.90625 0q-0.1875 -1.5625 -1.140625 -2.328125q-0.9375 -0.78125 -2.640625 -0.78125q-1.625 0 -2.53125 0.671875q-0.890625 0.671875 -0.890625 1.921875q0 0.890625 0.765625 1.46875q0.765625 0.5625 4.125 1.234375q2.4375 0.5 3.640625 1.53125q1.21875 1.03125 1.21875 2.875q0 2.125 -1.734375 3.328125q-1.734375 1.203125 -4.21875 1.203125q-2.765625 0 -4.515625 -1.375q-1.75 -1.390625 -1.765625 -4.0l1.90625 0q0.03125 1.75 1.25 2.71875q1.21875 0.953125 3.1875 0.953125q1.84375 0 2.84375 -0.703125q1.015625 -0.71875 1.015625 -2.0625q0 -1.09375 -0.921875 -1.75q-0.921875 -0.65625 -3.359375 -1.125q-3.25 -0.609375 -4.359375 -1.578125q-1.09375 -0.984375 -1.09375 -2.5625q0 -2.0625 1.546875 -3.265625q1.5625 -1.203125 3.96875 -1.203125zm12.991455 4.3125q2.375 0 3.671875 1.71875q1.3125 1.703125 1.3125 4.375l0 0.21875l-8.25 0l0 0.140625q0 1.5625 0.90625 2.53125q0.921875 0.953125 2.53125 0.953125q1.203125 0 1.921875 -0.5625q0.71875 -0.5625 0.9375 -1.59375l1.78125 0q-0.359375 1.828125 -1.609375 2.796875q-1.234375 0.96875 -3.09375 0.96875q-1.734375 0 -2.9375 -0.78125q-1.203125 -0.796875 -1.78125 -2.1875q-0.578125 -1.40625 -0.578125 -2.875q0 -2.4375 1.46875 -4.0625q1.46875 -1.640625 3.71875 -1.640625zm-3.265625 4.703125l6.328125 0q-0.078125 -1.34375 -0.96875 -2.21875q-0.890625 -0.890625 -2.21875 -0.890625q-1.25 0 -2.140625 0.84375q-0.890625 0.84375 -1.0 2.265625zm14.736755 -4.703125q2.015625 0 3.28125 0.96875q1.265625 0.953125 1.46875 2.828125l-1.859375 0q-0.21875 -1.078125 -0.9375 -1.640625q-0.71875 -0.5625 -1.796875 -0.5625q-1.6875 0 -2.5625 1.140625q-0.875 1.125 -0.875 3.171875q0 1.828125 0.859375 2.9375q0.875 1.09375 2.359375 1.09375q1.328125 0 2.09375 -0.703125q0.765625 -0.71875 0.9375 -1.984375l1.84375 0q-0.296875 2.0625 -1.546875 3.1875q-1.25 1.109375 -3.3125 1.109375q-2.40625 0 -3.78125 -1.515625q-1.375 -1.515625 -1.375 -4.125q0 -2.703125 1.390625 -4.296875q1.390625 -1.609375 3.8125 -1.609375zm9.377441 -3.046875l0 3.296875l2.1875 0l0 1.609375l-2.1875 0l0 6.90625q0 0.8125 0.546875 0.859375q0.546875 0.046875 1.140625 0.046875l0.5 0l0 1.609375l-1.5 0q-1.484375 0 -2.0 -0.53125q-0.5 -0.53125 -0.5 -1.78125l0 -7.109375l-1.890625 0l0 -1.609375l1.890625 0l0 -3.296875l1.8125 0zm6.107727 -0.890625l0 2.21875l-1.8125 0l0 -2.21875l1.8125 0zm0 4.1875l0 11.03125l-1.8125 0l0 -11.03125l1.8125 0zm7.5822144 -0.25q2.5 0 3.921875 1.625q1.421875 1.609375 1.421875 4.15625q0 2.578125 -1.453125 4.171875q-1.453125 1.59375 -3.890625 1.59375q-2.390625 0 -3.875 -1.5625q-1.484375 -1.578125 -1.484375 -4.203125q0 -2.625 1.453125 -4.203125q1.453125 -1.578125 3.90625 -1.578125zm-3.4375 5.78125q0 1.890625 0.96875 3.03125q0.96875 1.125 2.46875 1.125q1.484375 0 2.453125 -1.125q0.984375 -1.140625 0.984375 -3.03125q0 -1.890625 -0.96875 -3.03125q-0.96875 -1.15625 -2.484375 -1.15625q-1.46875 0 -2.453125 1.140625q-0.96875 1.125 -0.96875 3.046875zm16.262634 -5.78125q2.0 0 2.890625 1.03125q0.90625 1.015625 0.90625 2.90625l0 7.34375l-1.8125 0l0 -7.53125q0 -0.9375 -0.609375 -1.546875q-0.59375 -0.609375 -1.65625 -0.609375q-1.53125 0 -2.390625 0.953125q-0.859375 0.9375 -0.859375 2.4375l0 6.296875l-1.8125 0l0 -11.03125l1.71875 0l0 1.75l0.03125 0q0.609375 -1.03125 1.484375 -1.515625q0.890625 -0.484375 2.109375 -0.484375zm17.006042 -3.84375q1.28125 0 2.203125 0.421875q0.9375 0.40625 1.578125 1.25q1.265625 1.640625 1.265625 6.03125q0 2.203125 -0.3125 3.6875q-0.296875 1.484375 -0.953125 2.328125q-0.625 0.8125 -1.5625 1.25q-0.9375 0.421875 -2.21875 0.421875q-2.515625 0 -3.765625 -1.6875q-1.265625 -1.6875 -1.265625 -6.0q0 -4.34375 1.265625 -6.015625q1.265625 -1.6875 3.765625 -1.6875zm-3.109375 7.671875q0 1.8125 0.203125 3.015625q0.203125 1.1875 0.59375 1.828125q0.796875 1.265625 2.3125 1.265625q1.6875 0 2.421875 -1.453125q0.359375 -0.734375 0.53125 -1.859375q0.171875 -1.140625 0.171875 -2.734375q0 -0.53125 -0.015625 -1.1875q-0.015625 -0.65625 -0.09375 -1.328125q-0.078125 -0.671875 -0.265625 -1.3125q-0.1875 -0.65625 -0.53125 -1.15625q-0.34375 -0.5 -0.890625 -0.8125q-0.53125 -0.328125 -1.34375 -0.328125q-0.71875 0 -1.296875 0.3125q-0.5625 0.296875 -0.984375 0.921875q-0.8125 1.234375 -0.8125 4.828125zm19.080444 -7.40625l0 1.59375l-6.109375 0l-0.8125 4.34375l0.046875 0.046875q0.484375 -0.515625 1.203125 -0.796875q0.71875 -0.28125 1.625 -0.28125q2.1875 0 3.515625 1.375q1.34375 1.375 1.34375 3.78125q0 2.1875 -1.453125 3.625q-1.453125 1.4375 -3.8125 1.4375q-2.03125 0 -3.40625 -1.171875q-1.359375 -1.171875 -1.421875 -3.140625l0 -0.03125l1.8125 0q0.078125 1.21875 0.96875 1.984375q0.890625 0.75 2.203125 0.75q1.40625 0 2.296875 -0.953125q0.90625 -0.96875 0.90625 -2.625q0 -1.546875 -0.984375 -2.484375q-0.984375 -0.953125 -2.4375 -0.953125q-0.796875 0 -1.5 0.359375q-0.703125 0.359375 -1.3125 1.0625l-1.546875 -0.078125l1.40625 -7.84375l7.46875 0z" fill-rule="nonzero"/><path fill="#000000" fill-opacity="0.0" d="m84.097115 309.83728l368.09448 0l0 138.96063l-368.09448 0z" fill-rule="evenodd"/><path fill="#013a3b" d="m88.70649 433.4379l0 -8.0625l10.75 0l0 -28.671875l-10.75 0l0 -8.0625l29.953125 0l0 8.0625l-10.75 0l0 28.671875l10.75 0l0 8.0625l-29.953125 0zm39.54293 0l0 -31.75l8.078125 0l0 4.734375l1.140625 0q1.09375 -2.6875 3.515625 -4.15625q2.4375 -1.46875 5.703125 -1.46875q3.078125 0 5.59375 1.3125q2.53125 1.3125 4.03125 4.09375q1.515625 2.78125 1.515625 7.140625l0 20.09375l-8.0625 0l0 -18.046875q0 -3.390625 -1.640625 -5.34375q-1.625 -1.953125 -4.703125 -1.953125q-3.515625 0 -5.3125 2.40625q-1.78125 2.390625 -1.78125 6.421875l0 16.515625l-8.078125 0zm50.88669 0.890625q-3.90625 0 -7.046875 -1.875q-3.125 -1.890625 -4.984375 -5.5q-1.859375 -3.625 -1.859375 -8.8125l0 -1.15625q0 -5.109375 1.953125 -8.71875q1.953125 -3.625 5.1875 -5.546875q3.234375 -1.921875 7.078125 -1.921875q3.828125 0 6.09375 1.4375q2.28125 1.4375 3.5 4.0625l1.15625 0l0 -17.65625l8.0625 0l0 44.796875l-8.0625 0l0 -4.609375l-1.15625 0q-0.96875 2.109375 -3.171875 3.8125q-2.203125 1.6875 -6.75 1.6875zm2.625 -7.671875q3.78125 0 6.109375 -2.390625q2.34375 -2.40625 2.34375 -6.3125l0 -0.765625q0 -3.90625 -2.34375 -6.296875q-2.328125 -2.40625 -6.109375 -2.40625q-3.71875 0 -6.09375 2.375q-2.359375 2.359375 -2.359375 6.328125l0 0.765625q0 3.96875 2.359375 6.34375q2.375 2.359375 6.09375 2.359375zm39.746063 7.671875q-4.734375 0 -8.390625 -2.015625q-3.640625 -2.015625 -5.6875 -5.78125q-2.046875 -3.78125 -2.046875 -9.09375l0 -0.390625q0 -4.859375 2.171875 -8.5q2.171875 -3.65625 5.78125 -5.703125q3.625 -2.046875 8.046875 -2.046875q4.09375 0 7.03125 1.40625q2.953125 1.40625 4.828125 3.65625q1.890625 2.234375 2.8125 4.890625q0.9375 2.65625 0.9375 5.15625l0 4.28125l-23.296875 0q0.125 2.8125 2.359375 4.640625q2.25 1.828125 5.328125 1.828125q3.0 0 4.625 -1.078125q1.640625 -1.09375 2.28125 -2.515625l6.90625 3.84375q-0.703125 1.609375 -2.34375 3.34375q-1.625 1.71875 -4.375 2.90625q-2.75 1.171875 -6.96875 1.171875zm-7.6875 -21.046875l14.984375 0q-0.390625 -2.25 -2.40625 -3.71875q-2.015625 -1.46875 -5.078125 -1.46875q-3.015625 0 -4.96875 1.578125q-1.953125 1.5625 -2.53125 3.609375zm30.730438 20.15625l8.125 -15.6875l0 -1.140625l-7.75 -14.921875l8.96875 0l5.890625 11.65625l1.140625 0l5.890625 -11.65625l8.890625 0l-7.671875 14.921875l0 1.140625l8.125 15.6875l-9.28125 0l-5.953125 -12.421875l-1.140625 0l-5.953125 12.421875l-9.28125 0z" fill-rule="nonzero"/></g></svg>
