<svg version="1.1" viewBox="0.0 0.0 960.0 540.0" fill="none" stroke="none" stroke-linecap="square" stroke-miterlimit="10" xmlns:xlink="http://www.w3.org/1999/xlink" xmlns="http://www.w3.org/2000/svg"><clipPath id="g36cfd3642ec_0_1216.0"><path d="m0 0l960.0 0l0 540.0l-960.0 0l0 -540.0z" clip-rule="nonzero"/></clipPath><g clip-path="url(#g36cfd3642ec_0_1216.0)"><path fill="#013a3b" d="m0 0l960.0 0l0 540.0l-960.0 0z" fill-rule="evenodd"/><path fill="#000000" fill-opacity="0.0" d="m479.9978 319.70013l0 29.35434" fill-rule="evenodd"/><path stroke="#02f4d5" stroke-width="1.0" stroke-linejoin="round" stroke-linecap="butt" stroke-dasharray="4.0,3.0" d="m479.9978 319.70013l0 29.35434" fill-rule="evenodd"/><path fill="#d0fdf2" d="m141.0315 160.18047l0 0c0 -9.797623 7.9425507 -17.740158 17.740173 -17.740158l172.39368 0c4.7049866 0 9.217255 1.8690491 12.544189 5.1959686c3.3269348 3.3269348 5.195984 7.839218 5.195984 12.544189l0 141.77953c0 9.797607 -7.9425354 17.740143 -17.740173 17.740143l-172.39368 0c-9.797623 0 -17.740173 -7.9425354 -17.740173 -17.740143z" fill-rule="evenodd"/><path fill="#013a3b" d="m239.13725 174.9206l0 1.765625l-2.859375 0l0 7.75l-2.078125 0l0 -7.75l-2.859375 0l0 -1.765625l7.796875 0zm3.085373 0l0 1.5625l-1.890625 0l0 -1.5625l1.890625 0zm0 2.625l0 6.890625l-1.890625 0l0 -6.890625l1.890625 0zm3.8892822 -2.0625l0 2.0625l1.375 0l0 1.265625l-1.375 0l0 3.453125q0 0.421875 0.15625 0.59375q0.15625 0.171875 0.640625 0.171875q0.15625 0 0.296875 -0.015625q0.15625 -0.015625 0.28125 -0.046875l0 1.484375q-0.234375 0.03125 -0.53125 0.046875q-0.28125 0.015625 -0.5625 0.015625q-1.21875 0 -1.703125 -0.421875q-0.484375 -0.421875 -0.484375 -1.171875l0 -4.109375l-1.140625 0l0 -1.265625l1.140625 0l0 -2.0625l1.90625 0zm4.2390594 -0.5625l0 9.515625l-1.890625 0l0 -9.515625l1.890625 0zm4.670532 2.4375q1.5312347 0 2.4374847 1.0625q0.921875 1.046875 0.921875 2.671875l-0.015625 0.359375l-4.9687347 0q0.03125 0.890625 0.453125 1.328125q0.4375 0.421875 1.234375 0.421875q0.515625 0 0.93748474 -0.265625q0.4375 -0.265625 0.5625 -0.640625l1.65625 0q-0.375 1.171875 -1.1875 1.75q-0.796875 0.578125 -2.0312347 0.578125q-1.59375 0 -2.5625 -1.0q-0.953125 -1.015625 -0.953125 -2.625q0 -1.546875 0.984375 -2.59375q0.984375 -1.046875 2.53125 -1.046875zm-1.625 2.890625l3.0781097 0q-0.140625 -0.765625 -0.49998474 -1.109375q-0.34375 -0.359375 -1.015625 -0.359375q-0.6875 0 -1.09375 0.390625q-0.40625 0.390625 -0.46875 1.078125z" fill-rule="nonzero"/><path fill="#02f4d5" d="m172.03674 219.35387l0 0c0 -7.645157 6.197632 -13.842789 13.842804 -13.842789l118.17267 0c3.6713257 0 7.192322 1.458435 9.78833 4.0544586c2.5960388 2.5960236 4.054474 6.116989 4.054474 9.78833l0 47.306534c0 7.645172 -6.197632 13.842804 -13.842804 13.842804l-118.17267 0l0 0c-7.645172 0 -13.842804 -6.197632 -13.842804 -13.842804z" fill-rule="evenodd"/><path fill="#000000" fill-opacity="0.0" d="m188.63518 222.80241l112.66142 0l0 40.40944l-112.66142 0z" fill-rule="evenodd"/><path fill="#013a3b" d="m201.44768 238.56151q1.4375 0 2.265625 0.6875q0.84375 0.6875 0.890625 2.015625l-1.078125 0q-0.09375 -0.875 -0.625 -1.3125q-0.53125 -0.4375 -1.5 -0.4375q-0.90625 0 -1.421875 0.375q-0.5 0.375 -0.5 1.078125q0 0.515625 0.421875 0.84375q0.4375 0.3125 2.328125 0.6875q1.375 0.28125 2.046875 0.875q0.6875 0.578125 0.6875 1.609375q0 1.1875 -0.984375 1.875q-0.96875 0.671875 -2.359375 0.671875q-1.5625 0 -2.546875 -0.78125q-0.984375 -0.78125 -0.984375 -2.234375l1.078125 0q0 0.96875 0.6875 1.515625q0.6875 0.546875 1.796875 0.546875q1.046875 0 1.609375 -0.40625q0.5625 -0.40625 0.5625 -1.15625q0 -0.609375 -0.515625 -0.96875q-0.515625 -0.375 -1.890625 -0.640625q-1.828125 -0.34375 -2.453125 -0.890625q-0.625 -0.5625 -0.625 -1.453125q0 -1.15625 0.875 -1.828125q0.890625 -0.671875 2.234375 -0.671875zm5.7441406 2.5625l0 4.234375q0 0.515625 0.34375 0.875q0.34375 0.34375 0.921875 0.34375q0.890625 0 1.359375 -0.53125q0.484375 -0.546875 0.484375 -1.375l0 -3.546875l1.015625 0l0 6.203125l-0.953125 0l0 -0.984375l-0.03125 0q-0.34375 0.59375 -0.859375 0.859375q-0.5 0.265625 -1.15625 0.265625q-1.09375 0 -1.625 -0.546875q-0.515625 -0.5625 -0.515625 -1.65625l0 -4.140625l1.015625 0zm8.720703 -0.140625q1.328125 0 2.09375 0.921875q0.765625 0.90625 0.765625 2.34375q0 1.4375 -0.765625 2.328125q-0.765625 0.890625 -2.0625 0.890625q-0.578125 0 -1.140625 -0.234375q-0.546875 -0.234375 -0.875 -0.734375l-0.015625 0l0 3.203125l-1.03125 0l0 -8.578125l1.03125 0l0 0.84375l0.015625 0q0.25 -0.484375 0.765625 -0.734375q0.515625 -0.25 1.21875 -0.25zm-2.046875 3.234375q0 1.078125 0.515625 1.71875q0.53125 0.640625 1.453125 0.640625q0.875 0 1.359375 -0.625q0.5 -0.640625 0.5 -1.78125q0 -1.0 -0.515625 -1.640625q-0.515625 -0.65625 -1.421875 -0.65625q-0.890625 0 -1.390625 0.65625q-0.5 0.65625 -0.5 1.6875zm9.160156 -3.234375q1.328125 0 2.09375 0.921875q0.765625 0.90625 0.765625 2.34375q0 1.4375 -0.765625 2.328125q-0.765625 0.890625 -2.0625 0.890625q-0.578125 0 -1.140625 -0.234375q-0.546875 -0.234375 -0.875 -0.734375l-0.015625 0l0 3.203125l-1.03125 0l0 -8.578125l1.03125 0l0 0.84375l0.015625 0q0.25 -0.484375 0.765625 -0.734375q0.515625 -0.25 1.21875 -0.25zm-2.046875 3.234375q0 1.078125 0.515625 1.71875q0.53125 0.640625 1.453125 0.640625q0.875 0 1.359375 -0.625q0.5 -0.640625 0.5 -1.78125q0 -1.0 -0.515625 -1.640625q-0.515625 -0.65625 -1.421875 -0.65625q-0.890625 0 -1.390625 0.65625q-0.5 0.65625 -0.5 1.6875zm8.785156 -3.234375q1.40625 0 2.203125 0.90625q0.796875 0.90625 0.796875 2.34375q0 1.453125 -0.828125 2.34375q-0.8125 0.890625 -2.171875 0.890625q-1.359375 0 -2.1875 -0.875q-0.828125 -0.890625 -0.828125 -2.359375q0 -1.484375 0.8125 -2.359375q0.8125 -0.890625 2.203125 -0.890625zm-1.9375 3.25q0 1.0625 0.546875 1.703125q0.546875 0.640625 1.390625 0.640625q0.828125 0 1.375 -0.640625q0.546875 -0.640625 0.546875 -1.703125q0 -1.0625 -0.546875 -1.703125q-0.53125 -0.65625 -1.390625 -0.65625q-0.828125 0 -1.375 0.640625q-0.546875 0.640625 -0.546875 1.71875zm9.234375 -3.265625q0.03125 0 0.0625 0q0.03125 0 0.078125 0.015625l0 1.078125q-1.15625 0 -1.703125 0.609375q-0.546875 0.609375 -0.546875 1.875l0 2.78125l-1.015625 0l0 -6.203125l0.953125 0l0 1.296875l0.03125 0q0.359375 -0.734375 0.875 -1.09375q0.53125 -0.359375 1.265625 -0.359375zm2.3828125 -1.703125l0 1.859375l1.234375 0l0 0.90625l-1.234375 0l0 3.875q0 0.46875 0.296875 0.5q0.3125 0.015625 0.65625 0.015625l0.28125 0l0 0.90625l-0.84375 0q-0.84375 0 -1.125 -0.296875q-0.28125 -0.296875 -0.28125 -1.0l0 -4.0l-1.0625 0l0 -0.90625l1.0625 0l0 -1.859375l1.015625 0zm3.4355469 -0.5l0 1.25l-1.015625 0l0 -1.25l1.015625 0zm0 2.359375l0 6.203125l-1.015625 0l0 -6.203125l1.015625 0zm4.6035156 -0.140625q1.109375 0 1.609375 0.578125q0.515625 0.5625 0.515625 1.640625l0 4.125l-1.015625 0l0 -4.234375q0 -0.53125 -0.34375 -0.875q-0.328125 -0.34375 -0.9375 -0.34375q-0.859375 0 -1.34375 0.53125q-0.484375 0.53125 -0.484375 1.375l0 3.546875l-1.015625 0l0 -6.203125l0.96875 0l0 0.984375l0.015625 0q0.34375 -0.578125 0.828125 -0.84375q0.5 -0.28125 1.203125 -0.28125zm6.189453 0q0.640625 0 1.109375 0.28125q0.484375 0.28125 0.75 0.75l0 0l0 -0.890625l0.96873474 0l0 5.734375q0 1.46875 -0.70310974 2.21875q-0.703125 0.765625 -2.171875 0.765625q-1.0625 0 -1.796875 -0.46875q-0.734375 -0.46875 -0.78125 -1.34375l1.015625 0q0.03125 0.46875 0.515625 0.734375q0.484375 0.265625 1.09375 0.265625q0.90625 0 1.375 -0.59375q0.484375 -0.59375 0.484375 -1.78125l0 -0.390625l-0.015625 0q-0.234375 0.515625 -0.765625 0.828125q-0.515625 0.3125 -1.171875 0.3125q-1.265625 0 -2.015625 -0.875q-0.75 -0.875 -0.75 -2.28125q0 -1.421875 0.75 -2.34375q0.75 -0.921875 2.109375 -0.921875zm-1.78125 3.15625q0 1.09375 0.453125 1.734375q0.46875 0.625 1.296875 0.625q0.84375 0 1.34375 -0.65625q0.5 -0.65625 0.5 -1.75q0 -0.984375 -0.46875 -1.59375q-0.453125 -0.625 -1.3125 -0.625q-0.84375 0 -1.328125 0.625q-0.484375 0.609375 -0.484375 1.640625zm13.287094 -5.578125q1.421875 0 2.375 0.734375q0.953125 0.734375 1.140625 2.046875l-1.125 0q-0.1875 -0.890625 -0.828125 -1.359375q-0.640625 -0.46875 -1.578125 -0.46875q-1.359375 0 -2.140625 0.96875q-0.765625 0.953125 -0.765625 2.5q0 1.640625 0.75 2.625q0.765625 0.96875 2.171875 0.96875q1.046875 0 1.71875 -0.671875q0.671875 -0.671875 0.75 -1.8125l1.140625 0q-0.1875 1.671875 -1.15625 2.5625q-0.96875 0.875 -2.546875 0.875q-1.84375 0 -2.90625 -1.21875q-1.0625 -1.21875 -1.0625 -3.25q0 -2.0 1.09375 -3.25q1.09375 -1.25 2.96875 -1.25zm7.5410156 2.421875q1.40625 0 2.203125 0.90625q0.796875 0.90625 0.796875 2.34375q0 1.453125 -0.828125 2.34375q-0.8125 0.890625 -2.171875 0.890625q-1.359375 0 -2.1875 -0.875q-0.828125 -0.890625 -0.828125 -2.359375q0 -1.484375 0.8125 -2.359375q0.8125 -0.890625 2.203125 -0.890625zm-1.9375 3.25q0 1.0625 0.546875 1.703125q0.546875 0.640625 1.390625 0.640625q0.828125 0 1.375 -0.640625q0.546875 -0.640625 0.546875 -1.703125q0 -1.0625 -0.546875 -1.703125q-0.53125 -0.65625 -1.390625 -0.65625q-0.828125 0 -1.375 0.640625q-0.546875 0.640625 -0.546875 1.71875zm9.203125 -3.25q1.328125 0 2.09375 0.921875q0.765625 0.90625 0.765625 2.34375q0 1.4375 -0.765625 2.328125q-0.765625 0.890625 -2.0625 0.890625q-0.578125 0 -1.140625 -0.234375q-0.546875 -0.234375 -0.875 -0.734375l-0.015625 0l0 3.203125l-1.03125 0l0 -8.578125l1.03125 0l0 0.84375l0.015625 0q0.25 -0.484375 0.765625 -0.734375q0.515625 -0.25 1.21875 -0.25zm-2.046875 3.234375q0 1.078125 0.515625 1.71875q0.53125 0.640625 1.453125 0.640625q0.875 0 1.359375 -0.625q0.5 -0.640625 0.5 -1.78125q0 -1.0 -0.515625 -1.640625q-0.515625 -0.65625 -1.421875 -0.65625q-0.890625 0 -1.390625 0.65625q-0.5 0.65625 -0.5 1.6875zm6.5820312 -3.09375l1.8125 5.078125l0.015625 0l1.75 -5.078125l1.078125 0l-2.640625 6.859375q-0.40625 1.078125 -0.796875 1.453125q-0.375 0.375 -1.0625 0.375q-0.1875 0 -0.359375 -0.03125q-0.171875 -0.015625 -0.34375 -0.078125l0 -0.9375q0.140625 0.046875 0.28125 0.09375q0.15625 0.046875 0.3125 0.046875q0.625 0 0.859375 -0.625q0.25 -0.609375 0.40625 -0.984375l-2.46875 -6.171875l1.15625 0z" fill-rule="nonzero"/><path fill="#beff42" d="m143.39806 400.13098l0 0c0 -12.785156 10.364441 -23.149597 23.149612 -23.149597l626.89764 0c6.1396484 0 12.027832 2.4389648 16.369263 6.780365c4.3413696 4.3414 6.7803345 10.229584 6.7803345 16.369232l0 0l0 0c0 12.785187 -10.364441 23.149628 -23.149597 23.149628l-626.89764 0c-12.7851715 0 -23.149612 -10.364441 -23.149612 -23.149628z" fill-rule="evenodd"/><path fill="#013a3b" d="m430.38968 394.49225q1.75 0 2.765625 0.84375q1.03125 0.84375 1.09375 2.46875l-1.3125 0q-0.125 -1.0625 -0.78125 -1.59375q-0.640625 -0.546875 -1.828125 -0.546875q-1.109375 0 -1.734375 0.46875q-0.609375 0.46875 -0.609375 1.328125q0 0.609375 0.53125 1.0q0.53125 0.390625 2.84375 0.859375q1.671875 0.34375 2.5 1.0625q0.828125 0.703125 0.828125 1.953125q0 1.46875 -1.203125 2.296875q-1.1875 0.828125 -2.890625 0.828125q-1.890625 0 -3.09375 -0.953125q-1.203125 -0.953125 -1.21875 -2.734375l1.3125 0q0.015625 1.1875 0.859375 1.859375q0.84375 0.65625 2.1875 0.65625q1.265625 0 1.953125 -0.484375q0.703125 -0.5 0.703125 -1.421875q0 -0.75 -0.640625 -1.1875q-0.625 -0.453125 -2.3125 -0.78125q-2.21875 -0.421875 -2.984375 -1.09375q-0.765625 -0.671875 -0.765625 -1.765625q0 -1.40625 1.0625 -2.234375q1.078125 -0.828125 2.734375 -0.828125zm8.8714905 2.96875q1.546875 0 2.1875 0.5625q0.65625 0.546875 0.65625 1.46875q0 3.9375 0 4.375q0 0.421875 0.390625 0.421875q0.09375 0 0.1875 -0.015625q0.109375 -0.03125 0.203125 -0.0625l0 0.96875q-0.171875 0.109375 -0.40625 0.15625q-0.21875 0.046875 -0.484375 0.046875q-0.515625 0 -0.796875 -0.28125q-0.265625 -0.296875 -0.265625 -0.890625q-0.5 0.59375 -1.171875 0.890625q-0.671875 0.28125 -1.5 0.28125q-1.171875 0 -1.84375 -0.546875q-0.65625 -0.5625 -0.65625 -1.578125q0 -1.015625 0.640625 -1.609375q0.65625 -0.609375 3.078125 -0.90625q0.8125 -0.109375 1.09375 -0.3125q0.296875 -0.203125 0.296875 -0.625q0 -0.625 -0.40625 -0.9375q-0.40625 -0.3125 -1.28125 -0.3125q-0.921875 0 -1.390625 0.359375q-0.453125 0.34375 -0.5 1.078125l-1.234375 0q0.046875 -1.25 0.875 -1.890625q0.84375 -0.640625 2.328125 -0.640625zm-2.1875 5.703125q0 0.53125 0.390625 0.828125q0.390625 0.296875 1.078125 0.296875q1.046875 0 1.671875 -0.515625q0.640625 -0.53125 0.640625 -1.171875l0 -1.3125q-0.3125 0.234375 -0.8125 0.3125q-0.5 0.078125 -1.328125 0.1875q-0.84375 0.125 -1.25 0.453125q-0.390625 0.328125 -0.390625 0.921875zm10.622009 -5.703125q0.828125 0 1.34375 0.34375q0.53125 0.328125 0.734375 0.9375q0.390625 -0.609375 1.0 -0.9375q0.625 -0.34375 1.375 -0.34375q1.28125 0 1.890625 0.578125q0.625 0.578125 0.625 1.5625l0 5.609375l-1.25 0l0 -5.03125q0 -0.8125 -0.34375 -1.21875q-0.34375 -0.40625 -1.109375 -0.40625q-0.9375 0 -1.46875 0.546875q-0.515625 0.546875 -0.515625 1.34375l0 4.765625l-1.25 0l0 -5.03125q0 -0.8125 -0.34375 -1.21875q-0.34375 -0.40625 -1.078125 -0.40625q-0.59375 0 -1.046875 0.296875q-0.453125 0.28125 -0.71875 0.78125q-0.25 0.484375 -0.25 0.828125l0 4.75l-1.25 0l0 -7.578125l1.171875 0l0 1.109375l0.03125 0q0.421875 -0.640625 1.03125 -0.953125q0.609375 -0.328125 1.421875 -0.328125zm12.580322 0q1.625 0 2.5625 1.125q0.9375 1.109375 0.9375 2.859375q0 1.765625 -0.9375 2.859375q-0.921875 1.078125 -2.53125 1.078125q-0.703125 0 -1.390625 -0.28125q-0.671875 -0.296875 -1.0625 -0.90625l-0.03125 0l0 3.921875l-1.234375 0l0 -10.484375l1.234375 0l0 1.03125l0.03125 0q0.296875 -0.59375 0.921875 -0.890625q0.640625 -0.3125 1.5 -0.3125zm-2.484375 3.953125q0 1.328125 0.625 2.109375q0.640625 0.765625 1.765625 0.765625q1.078125 0 1.671875 -0.765625q0.59375 -0.78125 0.59375 -2.15625q0 -1.234375 -0.625 -2.015625q-0.625 -0.796875 -1.734375 -0.796875q-1.09375 0 -1.703125 0.8125q-0.59375 0.796875 -0.59375 2.046875zm8.750336 -6.671875l0 10.46875l-1.234375 0l0 -10.46875l1.234375 0zm5.099884 2.71875q1.625 0 2.515625 1.171875q0.90625 1.171875 0.90625 3.015625l0 0.15625l-5.671875 0l0 0.078125q0 1.09375 0.625 1.75q0.640625 0.65625 1.734375 0.65625q0.828125 0 1.3125 -0.390625q0.5 -0.390625 0.65625 -1.09375l1.234375 0q-0.25 1.265625 -1.109375 1.921875q-0.84375 0.65625 -2.125 0.65625q-1.203125 0 -2.03125 -0.53125q-0.828125 -0.546875 -1.21875 -1.5q-0.390625 -0.96875 -0.390625 -1.96875q0 -1.6875 1.0 -2.796875q1.015625 -1.125 2.5625 -1.125zm-2.25 3.234375l4.359375 0q-0.0625 -0.921875 -0.671875 -1.53125q-0.609375 -0.609375 -1.53125 -0.609375q-0.859375 0 -1.46875 0.578125q-0.609375 0.578125 -0.6875 1.5625zm14.91275 -5.953125q2.375 0 3.65625 1.265625q1.296875 1.265625 1.296875 3.734375q0 2.75 -1.28125 4.109375q-1.265625 1.359375 -3.671875 1.359375l-3.671875 0l0 -10.46875l3.671875 0zm0.09375 9.296875q1.5625 0 2.5 -1.015625q0.953125 -1.03125 0.953125 -3.09375q0 -2.078125 -0.859375 -3.03125q-0.859375 -0.96875 -2.546875 -0.96875l-2.421875 0l0 8.109375l2.375 0zm7.6632385 -9.296875l0 1.53125l-1.234375 0l0 -1.53125l1.234375 0zm0 2.890625l0 7.578125l-1.234375 0l0 -7.578125l1.234375 0zm5.0374146 -0.171875q1.546875 0 2.1875 0.5625q0.65625 0.546875 0.65625 1.46875q0 3.9375 0 4.375q0 0.421875 0.390625 0.421875q0.09375 0 0.1875 -0.015625q0.109375 -0.03125 0.203125 -0.0625l0 0.96875q-0.171875 0.109375 -0.40625 0.15625q-0.21875 0.046875 -0.484375 0.046875q-0.515625 0 -0.796875 -0.28125q-0.265625 -0.296875 -0.265625 -0.890625q-0.5 0.59375 -1.171875 0.890625q-0.671875 0.28125 -1.5 0.28125q-1.171875 0 -1.84375 -0.546875q-0.65625 -0.5625 -0.65625 -1.578125q0 -1.015625 0.640625 -1.609375q0.65625 -0.609375 3.078125 -0.90625q0.8125 -0.109375 1.09375 -0.3125q0.296875 -0.203125 0.296875 -0.625q0 -0.625 -0.40625 -0.9375q-0.40625 -0.3125 -1.28125 -0.3125q-0.921875 0 -1.390625 0.359375q-0.453125 0.34375 -0.5 1.078125l-1.234375 0q0.046875 -1.25 0.875 -1.890625q0.84375 -0.640625 2.328125 -0.640625zm-2.1875 5.703125q0 0.53125 0.390625 0.828125q0.390625 0.296875 1.078125 0.296875q1.046875 0 1.671875 -0.515625q0.640625 -0.53125 0.640625 -1.171875l0 -1.3125q-0.3125 0.234375 -0.8125 0.3125q-0.5 0.078125 -1.328125 0.1875q-0.84375 0.125 -1.25 0.453125q-0.390625 0.328125 -0.390625 0.921875zm10.043884 -5.703125q0.796875 0 1.375 0.34375q0.578125 0.34375 0.90625 0.921875l0.015625 0l0 -1.09375l1.15625 0l0 7.015625q0 1.78125 -0.859375 2.703125q-0.859375 0.9375 -2.640625 0.9375q-1.3125 0 -2.203125 -0.578125q-0.890625 -0.5625 -0.9375 -1.640625l1.234375 0q0.03125 0.578125 0.625 0.890625q0.59375 0.328125 1.34375 0.328125q1.09375 0 1.6875 -0.734375q0.59375 -0.71875 0.59375 -2.15625l0 -0.46875l-0.03125 0q-0.296875 0.625 -0.9375 1.0q-0.625 0.359375 -1.4375 0.359375q-1.53125 0 -2.453125 -1.046875q-0.921875 -1.0625 -0.921875 -2.78125q0 -1.734375 0.921875 -2.859375q0.921875 -1.140625 2.5625 -1.140625zm-2.171875 3.84375q0 1.359375 0.5625 2.125q0.578125 0.765625 1.578125 0.765625q1.03125 0 1.640625 -0.796875q0.609375 -0.796875 0.609375 -2.125q0 -1.21875 -0.5625 -1.96875q-0.5625 -0.75 -1.59375 -0.75q-1.046875 0 -1.640625 0.75q-0.59375 0.75 -0.59375 2.0zm11.275269 -3.84375q0.046875 0 0.078125 0q0.046875 0 0.09375 0l0 1.3125q-1.390625 0 -2.0625 0.75q-0.671875 0.75 -0.671875 2.296875l0 3.390625l-1.25 0l0 -7.578125l1.171875 0l0 1.59375l0.03125 0q0.4375 -0.90625 1.078125 -1.328125q0.640625 -0.4375 1.53125 -0.4375zm3.8578491 0q1.546875 0 2.1875 0.5625q0.65625 0.546875 0.65625 1.46875q0 3.9375 0 4.375q0 0.421875 0.390625 0.421875q0.09375 0 0.1875 -0.015625q0.109375 -0.03125 0.203125 -0.0625l0 0.96875q-0.171875 0.109375 -0.40625 0.15625q-0.21875 0.046875 -0.484375 0.046875q-0.515625 0 -0.796875 -0.28125q-0.265625 -0.296875 -0.265625 -0.890625q-0.5 0.59375 -1.171875 0.890625q-0.671875 0.28125 -1.5 0.28125q-1.171875 0 -1.84375 -0.546875q-0.65625 -0.5625 -0.65625 -1.578125q0 -1.015625 0.640625 -1.609375q0.65625 -0.609375 3.078125 -0.90625q0.8125 -0.109375 1.09375 -0.3125q0.296875 -0.203125 0.296875 -0.625q0 -0.625 -0.40625 -0.9375q-0.40625 -0.3125 -1.28125 -0.3125q-0.921875 0 -1.390625 0.359375q-0.453125 0.34375 -0.5 1.078125l-1.234375 0q0.046875 -1.25 0.875 -1.890625q0.84375 -0.640625 2.328125 -0.640625zm-2.1875 5.703125q0 0.53125 0.390625 0.828125q0.390625 0.296875 1.078125 0.296875q1.046875 0 1.671875 -0.515625q0.640625 -0.53125 0.640625 -1.171875l0 -1.3125q-0.3125 0.234375 -0.8125 0.3125q-0.5 0.078125 -1.328125 0.1875q-0.84375 0.125 -1.25 0.453125q-0.390625 0.328125 -0.390625 0.921875zm10.622009 -5.703125q0.828125 0 1.34375 0.34375q0.53125 0.328125 0.734375 0.9375q0.390625 -0.609375 1.0 -0.9375q0.625 -0.34375 1.375 -0.34375q1.28125 0 1.890625 0.578125q0.625 0.578125 0.625 1.5625l0 5.609375l-1.25 0l0 -5.03125q0 -0.8125 -0.34375 -1.21875q-0.34375 -0.40625 -1.109375 -0.40625q-0.9375 0 -1.46875 0.546875q-0.515625 0.546875 -0.515625 1.34375l0 4.765625l-1.25 0l0 -5.03125q0 -0.8125 -0.34375 -1.21875q-0.34375 -0.40625 -1.078125 -0.40625q-0.59375 0 -1.046875 0.296875q-0.453125 0.28125 -0.71875 0.78125q-0.25 0.484375 -0.25 0.828125l0 4.75l-1.25 0l0 -7.578125l1.171875 0l0 1.109375l0.03125 0q0.421875 -0.640625 1.03125 -0.953125q0.609375 -0.328125 1.421875 -0.328125z" fill-rule="nonzero"/><path fill="#d0fdf2" d="m376.0608 160.18047l0 0c0 -9.797623 7.9425354 -17.740158 17.740173 -17.740158l172.39368 0c4.704956 0 9.217285 1.8690491 12.544189 5.1959686c3.3269043 3.3269348 5.195984 7.839218 5.195984 12.544189l0 141.77953c0 9.797607 -7.942566 17.740143 -17.740173 17.740143l-172.39368 0c-9.797638 0 -17.740173 -7.9425354 -17.740173 -17.740143z" fill-rule="evenodd"/><path fill="#013a3b" d="m474.16653 174.9206l0 1.765625l-2.859375 0l0 7.75l-2.078125 0l0 -7.75l-2.859375 0l0 -1.765625l7.796875 0zm3.0853882 0l0 1.5625l-1.890625 0l0 -1.5625l1.890625 0zm0 2.625l0 6.890625l-1.890625 0l0 -6.890625l1.890625 0zm3.8892822 -2.0625l0 2.0625l1.375 0l0 1.265625l-1.375 0l0 3.453125q0 0.421875 0.15625 0.59375q0.15625 0.171875 0.640625 0.171875q0.15625 0 0.296875 -0.015625q0.15625 -0.015625 0.28125 -0.046875l0 1.484375q-0.234375 0.03125 -0.53125 0.046875q-0.28125 0.015625 -0.5625 0.015625q-1.21875 0 -1.703125 -0.421875q-0.484375 -0.421875 -0.484375 -1.171875l0 -4.109375l-1.140625 0l0 -1.265625l1.140625 0l0 -2.0625l1.90625 0zm4.239044 -0.5625l0 9.515625l-1.890625 0l0 -9.515625l1.890625 0zm4.670532 2.4375q1.53125 0 2.4375 1.0625q0.921875 1.046875 0.921875 2.671875l-0.015625 0.359375l-4.96875 0q0.03125 0.890625 0.453125 1.328125q0.4375 0.421875 1.234375 0.421875q0.515625 0 0.9375 -0.265625q0.4375 -0.265625 0.5625 -0.640625l1.65625 0q-0.375 1.171875 -1.1875 1.75q-0.796875 0.578125 -2.03125 0.578125q-1.59375 0 -2.5625 -1.0q-0.953125 -1.015625 -0.953125 -2.625q0 -1.546875 0.984375 -2.59375q0.984375 -1.046875 2.53125 -1.046875zm-1.625 2.890625l3.078125 0q-0.140625 -0.765625 -0.5 -1.109375q-0.34375 -0.359375 -1.015625 -0.359375q-0.6875 0 -1.09375 0.390625q-0.40625 0.390625 -0.46875 1.078125z" fill-rule="nonzero"/><path fill="#02f4d5" d="m407.06735 219.35387l0 0c0 -7.645157 6.197632 -13.842789 13.842804 -13.842789l118.17267 0c3.6713257 0 7.192322 1.458435 9.78833 4.0544586c2.5960083 2.5960236 4.0544434 6.116989 4.0544434 9.78833l0 47.306534c0 7.645172 -6.197632 13.842804 -13.842773 13.842804l-118.17267 0l0 0c-7.645172 0 -13.842804 -6.197632 -13.842804 -13.842804z" fill-rule="evenodd"/><path fill="#000000" fill-opacity="0.0" d="m423.66577 222.80241l112.66144 0l0 40.40944l-112.66144 0z" fill-rule="evenodd"/><path fill="#013a3b" d="m436.47827 238.56151q1.4375 0 2.265625 0.6875q0.84375 0.6875 0.890625 2.015625l-1.078125 0q-0.09375 -0.875 -0.625 -1.3125q-0.53125 -0.4375 -1.5 -0.4375q-0.90625 0 -1.421875 0.375q-0.5 0.375 -0.5 1.078125q0 0.515625 0.421875 0.84375q0.4375 0.3125 2.328125 0.6875q1.375 0.28125 2.046875 0.875q0.6875 0.578125 0.6875 1.609375q0 1.1875 -0.984375 1.875q-0.96875 0.671875 -2.359375 0.671875q-1.5625 0 -2.546875 -0.78125q-0.984375 -0.78125 -0.984375 -2.234375l1.078125 0q0 0.96875 0.6875 1.515625q0.6875 0.546875 1.796875 0.546875q1.046875 0 1.609375 -0.40625q0.5625 -0.40625 0.5625 -1.15625q0 -0.609375 -0.515625 -0.96875q-0.515625 -0.375 -1.890625 -0.640625q-1.828125 -0.34375 -2.453125 -0.890625q-0.625 -0.5625 -0.625 -1.453125q0 -1.15625 0.875 -1.828125q0.890625 -0.671875 2.234375 -0.671875zm5.7441406 2.5625l0 4.234375q0 0.515625 0.34375 0.875q0.34375 0.34375 0.921875 0.34375q0.890625 0 1.359375 -0.53125q0.484375 -0.546875 0.484375 -1.375l0 -3.546875l1.015625 0l0 6.203125l-0.953125 0l0 -0.984375l-0.03125 0q-0.34375 0.59375 -0.859375 0.859375q-0.5 0.265625 -1.15625 0.265625q-1.09375 0 -1.625 -0.546875q-0.515625 -0.5625 -0.515625 -1.65625l0 -4.140625l1.015625 0zm8.720703 -0.140625q1.328125 0 2.09375 0.921875q0.765625 0.90625 0.765625 2.34375q0 1.4375 -0.765625 2.328125q-0.765625 0.890625 -2.0625 0.890625q-0.578125 0 -1.140625 -0.234375q-0.546875 -0.234375 -0.875 -0.734375l-0.015625 0l0 3.203125l-1.03125 0l0 -8.578125l1.03125 0l0 0.84375l0.015625 0q0.25 -0.484375 0.765625 -0.734375q0.515625 -0.25 1.21875 -0.25zm-2.046875 3.234375q0 1.078125 0.515625 1.71875q0.53125 0.640625 1.453125 0.640625q0.875 0 1.359375 -0.625q0.5 -0.640625 0.5 -1.78125q0 -1.0 -0.515625 -1.640625q-0.515625 -0.65625 -1.421875 -0.65625q-0.890625 0 -1.390625 0.65625q-0.5 0.65625 -0.5 1.6875zm9.160156 -3.234375q1.328125 0 2.09375 0.921875q0.765625 0.90625 0.765625 2.34375q0 1.4375 -0.765625 2.328125q-0.765625 0.890625 -2.0625 0.890625q-0.578125 0 -1.140625 -0.234375q-0.546875 -0.234375 -0.875 -0.734375l-0.015625 0l0 3.203125l-1.03125 0l0 -8.578125l1.03125 0l0 0.84375l0.015625 0q0.25 -0.484375 0.765625 -0.734375q0.515625 -0.25 1.21875 -0.25zm-2.046875 3.234375q0 1.078125 0.515625 1.71875q0.53125 0.640625 1.453125 0.640625q0.875 0 1.359375 -0.625q0.5 -0.640625 0.5 -1.78125q0 -1.0 -0.515625 -1.640625q-0.515625 -0.65625 -1.421875 -0.65625q-0.890625 0 -1.390625 0.65625q-0.5 0.65625 -0.5 1.6875zm8.785156 -3.234375q1.40625 0 2.203125 0.90625q0.796875 0.90625 0.796875 2.34375q0 1.453125 -0.828125 2.34375q-0.8125 0.890625 -2.171875 0.890625q-1.359375 0 -2.1875 -0.875q-0.828125 -0.890625 -0.828125 -2.359375q0 -1.484375 0.8125 -2.359375q0.8125 -0.890625 2.203125 -0.890625zm-1.9375 3.25q0 1.0625 0.546875 1.703125q0.546875 0.640625 1.390625 0.640625q0.828125 0 1.375 -0.640625q0.546875 -0.640625 0.546875 -1.703125q0 -1.0625 -0.546875 -1.703125q-0.53125 -0.65625 -1.390625 -0.65625q-0.828125 0 -1.375 0.640625q-0.546875 0.640625 -0.546875 1.71875zm9.234375 -3.265625q0.03125 0 0.0625 0q0.03125 0 0.078125 0.015625l0 1.078125q-1.15625 0 -1.703125 0.609375q-0.546875 0.609375 -0.546875 1.875l0 2.78125l-1.015625 0l0 -6.203125l0.953125 0l0 1.296875l0.03125 0q0.359375 -0.734375 0.875 -1.09375q0.53125 -0.359375 1.265625 -0.359375zm2.3828125 -1.703125l0 1.859375l1.234375 0l0 0.90625l-1.234375 0l0 3.875q0 0.46875 0.296875 0.5q0.3125 0.015625 0.65625 0.015625l0.28125 0l0 0.90625l-0.84375 0q-0.84375 0 -1.125 -0.296875q-0.28125 -0.296875 -0.28125 -1.0l0 -4.0l-1.0625 0l0 -0.90625l1.0625 0l0 -1.859375l1.015625 0zm3.4355469 -0.5l0 1.25l-1.015625 0l0 -1.25l1.015625 0zm0 2.359375l0 6.203125l-1.015625 0l0 -6.203125l1.015625 0zm4.6035156 -0.140625q1.109375 0 1.609375 0.578125q0.515625 0.5625 0.515625 1.640625l0 4.125l-1.015625 0l0 -4.234375q0 -0.53125 -0.34375 -0.875q-0.328125 -0.34375 -0.9375 -0.34375q-0.859375 0 -1.34375 0.53125q-0.484375 0.53125 -0.484375 1.375l0 3.546875l-1.015625 0l0 -6.203125l0.96875 0l0 0.984375l0.015625 0q0.34375 -0.578125 0.828125 -0.84375q0.5 -0.28125 1.203125 -0.28125zm6.189453 0q0.640625 0 1.109375 0.28125q0.484375 0.28125 0.75 0.75l0 0l0 -0.890625l0.96875 0l0 5.734375q0 1.46875 -0.703125 2.21875q-0.703125 0.765625 -2.171875 0.765625q-1.0625 0 -1.796875 -0.46875q-0.734375 -0.46875 -0.78125 -1.34375l1.015625 0q0.03125 0.46875 0.515625 0.734375q0.484375 0.265625 1.09375 0.265625q0.90625 0 1.375 -0.59375q0.484375 -0.59375 0.484375 -1.78125l0 -0.390625l-0.015625 0q-0.234375 0.515625 -0.765625 0.828125q-0.515625 0.3125 -1.171875 0.3125q-1.265625 0 -2.015625 -0.875q-0.75 -0.875 -0.75 -2.28125q0 -1.421875 0.75 -2.34375q0.75 -0.921875 2.109375 -0.921875zm-1.78125 3.15625q0 1.09375 0.453125 1.734375q0.46875 0.625 1.296875 0.625q0.84375 0 1.34375 -0.65625q0.5 -0.65625 0.5 -1.75q0 -0.984375 -0.46875 -1.59375q-0.453125 -0.625 -1.3125 -0.625q-0.84375 0 -1.328125 0.625q-0.484375 0.609375 -0.484375 1.640625zm13.287109 -5.578125q1.421875 0 2.375 0.734375q0.953125 0.734375 1.140625 2.046875l-1.125 0q-0.1875 -0.890625 -0.828125 -1.359375q-0.640625 -0.46875 -1.578125 -0.46875q-1.359375 0 -2.140625 0.96875q-0.765625 0.953125 -0.765625 2.5q0 1.640625 0.75 2.625q0.765625 0.96875 2.171875 0.96875q1.046875 0 1.71875 -0.671875q0.671875 -0.671875 0.75 -1.8125l1.140625 0q-0.1875 1.671875 -1.15625 2.5625q-0.96875 0.875 -2.546875 0.875q-1.84375 0 -2.90625 -1.21875q-1.0625 -1.21875 -1.0625 -3.25q0 -2.0 1.09375 -3.25q1.09375 -1.25 2.96875 -1.25zm7.5410156 2.421875q1.40625 0 2.203125 0.90625q0.796875 0.90625 0.796875 2.34375q0 1.453125 -0.828125 2.34375q-0.8125 0.890625 -2.171875 0.890625q-1.359375 0 -2.1875 -0.875q-0.828125 -0.890625 -0.828125 -2.359375q0 -1.484375 0.8125 -2.359375q0.8125 -0.890625 2.203125 -0.890625zm-1.9375 3.25q0 1.0625 0.546875 1.703125q0.546875 0.640625 1.390625 0.640625q0.828125 0 1.375 -0.640625q0.546875 -0.640625 0.546875 -1.703125q0 -1.0625 -0.546875 -1.703125q-0.53125 -0.65625 -1.390625 -0.65625q-0.828125 0 -1.375 0.640625q-0.546875 0.640625 -0.546875 1.71875zm9.203125 -3.25q1.328125 0 2.09375 0.921875q0.765625 0.90625 0.765625 2.34375q0 1.4375 -0.765625 2.328125q-0.765625 0.890625 -2.0625 0.890625q-0.578125 0 -1.140625 -0.234375q-0.546875 -0.234375 -0.875 -0.734375l-0.015625 0l0 3.203125l-1.03125 0l0 -8.578125l1.03125 0l0 0.84375l0.015625 0q0.25 -0.484375 0.765625 -0.734375q0.515625 -0.25 1.21875 -0.25zm-2.046875 3.234375q0 1.078125 0.515625 1.71875q0.53125 0.640625 1.453125 0.640625q0.875 0 1.359375 -0.625q0.5 -0.640625 0.5 -1.78125q0 -1.0 -0.515625 -1.640625q-0.515625 -0.65625 -1.421875 -0.65625q-0.890625 0 -1.390625 0.65625q-0.5 0.65625 -0.5 1.6875zm6.5820312 -3.09375l1.8125 5.078125l0.015625 0l1.75 -5.078125l1.078125 0l-2.640625 6.859375q-0.40625 1.078125 -0.796875 1.453125q-0.375 0.375 -1.0625 0.375q-0.1875 0 -0.359375 -0.03125q-0.171875 -0.015625 -0.34375 -0.078125l0 -0.9375q0.140625 0.046875 0.28125 0.09375q0.15625 0.046875 0.3125 0.046875q0.625 0 0.859375 -0.625q0.25 -0.609375 0.40625 -0.984375l-2.46875 -6.171875l1.15625 0z" fill-rule="nonzero"/><path fill="#d0fdf2" d="m611.0971 160.18047l0 0c0 -9.797623 7.942566 -17.740158 17.740173 -17.740158l172.39368 0c4.705017 0 9.217285 1.8690491 12.544189 5.1959686c3.3269043 3.3269348 5.195984 7.839218 5.195984 12.544189l0 141.77953c0 9.797607 -7.942566 17.740143 -17.740173 17.740143l-172.39368 0c-9.797607 0 -17.740173 -7.9425354 -17.740173 -17.740143z" fill-rule="evenodd"/><path fill="#013a3b" d="m709.2029 174.9206l0 1.765625l-2.859375 0l0 7.75l-2.078125 0l0 -7.75l-2.859375 0l0 -1.765625l7.796875 0zm3.0853882 0l0 1.5625l-1.890625 0l0 -1.5625l1.890625 0zm0 2.625l0 6.890625l-1.890625 0l0 -6.890625l1.890625 0zm3.8892822 -2.0625l0 2.0625l1.375 0l0 1.265625l-1.375 0l0 3.453125q0 0.421875 0.15625 0.59375q0.15625 0.171875 0.640625 0.171875q0.15625 0 0.296875 -0.015625q0.15625 -0.015625 0.28125 -0.046875l0 1.484375q-0.234375 0.03125 -0.53125 0.046875q-0.28125 0.015625 -0.5625 0.015625q-1.21875 0 -1.703125 -0.421875q-0.484375 -0.421875 -0.484375 -1.171875l0 -4.109375l-1.140625 0l0 -1.265625l1.140625 0l0 -2.0625l1.90625 0zm4.2390137 -0.5625l0 9.515625l-1.890625 0l0 -9.515625l1.890625 0zm4.670532 2.4375q1.53125 0 2.4375 1.0625q0.921875 1.046875 0.921875 2.671875l-0.015625 0.359375l-4.96875 0q0.03125 0.890625 0.453125 1.328125q0.4375 0.421875 1.234375 0.421875q0.515625 0 0.9375 -0.265625q0.4375 -0.265625 0.5625 -0.640625l1.65625 0q-0.375 1.171875 -1.1875 1.75q-0.796875 0.578125 -2.03125 0.578125q-1.59375 0 -2.5625 -1.0q-0.953125 -1.015625 -0.953125 -2.625q0 -1.546875 0.984375 -2.59375q0.984375 -1.046875 2.53125 -1.046875zm-1.625 2.890625l3.078125 0q-0.140625 -0.765625 -0.5 -1.109375q-0.34375 -0.359375 -1.015625 -0.359375q-0.6875 0 -1.09375 0.390625q-0.40625 0.390625 -0.46875 1.078125z" fill-rule="nonzero"/><path fill="#02f4d5" d="m642.10236 219.35387l0 0c0 -7.645157 6.197632 -13.842789 13.842773 -13.842789l118.17273 0c3.6713257 0 7.1922607 1.458435 9.78833 4.0544586c2.5960083 2.5960236 4.0544434 6.116989 4.0544434 9.78833l0 47.306534c0 7.645172 -6.197632 13.842804 -13.842773 13.842804l-118.17273 0l0 0c-7.6451416 0 -13.842773 -6.197632 -13.842773 -13.842804z" fill-rule="evenodd"/><path fill="#000000" fill-opacity="0.0" d="m658.7008 222.80241l112.66138 0l0 40.40944l-112.66138 0z" fill-rule="evenodd"/><path fill="#013a3b" d="m671.5133 238.56151q1.4375 0 2.265625 0.6875q0.84375 0.6875 0.890625 2.015625l-1.078125 0q-0.09375 -0.875 -0.625 -1.3125q-0.53125 -0.4375 -1.5 -0.4375q-0.90625 0 -1.421875 0.375q-0.5 0.375 -0.5 1.078125q0 0.515625 0.421875 0.84375q0.4375 0.3125 2.328125 0.6875q1.375 0.28125 2.046875 0.875q0.6875 0.578125 0.6875 1.609375q0 1.1875 -0.984375 1.875q-0.96875 0.671875 -2.359375 0.671875q-1.5625 0 -2.546875 -0.78125q-0.984375 -0.78125 -0.984375 -2.234375l1.078125 0q0 0.96875 0.6875 1.515625q0.6875 0.546875 1.796875 0.546875q1.046875 0 1.609375 -0.40625q0.5625 -0.40625 0.5625 -1.15625q0 -0.609375 -0.515625 -0.96875q-0.515625 -0.375 -1.890625 -0.640625q-1.828125 -0.34375 -2.453125 -0.890625q-0.625 -0.5625 -0.625 -1.453125q0 -1.15625 0.875 -1.828125q0.890625 -0.671875 2.234375 -0.671875zm5.7441406 2.5625l0 4.234375q0 0.515625 0.34375 0.875q0.34375 0.34375 0.921875 0.34375q0.890625 0 1.359375 -0.53125q0.484375 -0.546875 0.484375 -1.375l0 -3.546875l1.015625 0l0 6.203125l-0.953125 0l0 -0.984375l-0.03125 0q-0.34375 0.59375 -0.859375 0.859375q-0.5 0.265625 -1.15625 0.265625q-1.09375 0 -1.625 -0.546875q-0.515625 -0.5625 -0.515625 -1.65625l0 -4.140625l1.015625 0zm8.720703 -0.140625q1.328125 0 2.09375 0.921875q0.765625 0.90625 0.765625 2.34375q0 1.4375 -0.765625 2.328125q-0.765625 0.890625 -2.0625 0.890625q-0.578125 0 -1.140625 -0.234375q-0.546875 -0.234375 -0.875 -0.734375l-0.015625 0l0 3.203125l-1.03125 0l0 -8.578125l1.03125 0l0 0.84375l0.015625 0q0.25 -0.484375 0.765625 -0.734375q0.515625 -0.25 1.21875 -0.25zm-2.046875 3.234375q0 1.078125 0.515625 1.71875q0.53125 0.640625 1.453125 0.640625q0.875 0 1.359375 -0.625q0.5 -0.640625 0.5 -1.78125q0 -1.0 -0.515625 -1.640625q-0.515625 -0.65625 -1.421875 -0.65625q-0.890625 0 -1.390625 0.65625q-0.5 0.65625 -0.5 1.6875zm9.160156 -3.234375q1.328125 0 2.09375 0.921875q0.765625 0.90625 0.765625 2.34375q0 1.4375 -0.765625 2.328125q-0.765625 0.890625 -2.0625 0.890625q-0.578125 0 -1.140625 -0.234375q-0.546875 -0.234375 -0.875 -0.734375l-0.015625 0l0 3.203125l-1.03125 0l0 -8.578125l1.03125 0l0 0.84375l0.015625 0q0.25 -0.484375 0.765625 -0.734375q0.515625 -0.25 1.21875 -0.25zm-2.046875 3.234375q0 1.078125 0.515625 1.71875q0.53125 0.640625 1.453125 0.640625q0.875 0 1.359375 -0.625q0.5 -0.640625 0.5 -1.78125q0 -1.0 -0.515625 -1.640625q-0.515625 -0.65625 -1.421875 -0.65625q-0.890625 0 -1.390625 0.65625q-0.5 0.65625 -0.5 1.6875zm8.785156 -3.234375q1.40625 0 2.203125 0.90625q0.796875 0.90625 0.796875 2.34375q0 1.453125 -0.828125 2.34375q-0.8125 0.890625 -2.171875 0.890625q-1.359375 0 -2.1875 -0.875q-0.828125 -0.890625 -0.828125 -2.359375q0 -1.484375 0.8125 -2.359375q0.8125 -0.890625 2.203125 -0.890625zm-1.9375 3.25q0 1.0625 0.546875 1.703125q0.546875 0.640625 1.390625 0.640625q0.828125 0 1.375 -0.640625q0.546875 -0.640625 0.546875 -1.703125q0 -1.0625 -0.546875 -1.703125q-0.53125 -0.65625 -1.390625 -0.65625q-0.828125 0 -1.375 0.640625q-0.546875 0.640625 -0.546875 1.71875zm9.234375 -3.265625q0.03125 0 0.0625 0q0.03125 0 0.078125 0.015625l0 1.078125q-1.15625 0 -1.703125 0.609375q-0.546875 0.609375 -0.546875 1.875l0 2.78125l-1.015625 0l0 -6.203125l0.953125 0l0 1.296875l0.03125 0q0.359375 -0.734375 0.875 -1.09375q0.53125 -0.359375 1.265625 -0.359375zm2.3828125 -1.703125l0 1.859375l1.234375 0l0 0.90625l-1.234375 0l0 3.875q0 0.46875 0.296875 0.5q0.3125 0.015625 0.65625 0.015625l0.28125 0l0 0.90625l-0.84375 0q-0.84375 0 -1.125 -0.296875q-0.28125 -0.296875 -0.28125 -1.0l0 -4.0l-1.0625 0l0 -0.90625l1.0625 0l0 -1.859375l1.015625 0zm3.4355469 -0.5l0 1.25l-1.015625 0l0 -1.25l1.015625 0zm0 2.359375l0 6.203125l-1.015625 0l0 -6.203125l1.015625 0zm4.6035156 -0.140625q1.109375 0 1.609375 0.578125q0.515625 0.5625 0.515625 1.640625l0 4.125l-1.015625 0l0 -4.234375q0 -0.53125 -0.34375 -0.875q-0.328125 -0.34375 -0.9375 -0.34375q-0.859375 0 -1.34375 0.53125q-0.484375 0.53125 -0.484375 1.375l0 3.546875l-1.015625 0l0 -6.203125l0.96875 0l0 0.984375l0.015625 0q0.34375 -0.578125 0.828125 -0.84375q0.5 -0.28125 1.203125 -0.28125zm6.189453 0q0.640625 0 1.109375 0.28125q0.484375 0.28125 0.75 0.75l0 0l0 -0.890625l0.96875 0l0 5.734375q0 1.46875 -0.703125 2.21875q-0.703125 0.765625 -2.171875 0.765625q-1.0625 0 -1.796875 -0.46875q-0.734375 -0.46875 -0.78125 -1.34375l1.015625 0q0.03125 0.46875 0.515625 0.734375q0.484375 0.265625 1.09375 0.265625q0.90625 0 1.375 -0.59375q0.484375 -0.59375 0.484375 -1.78125l0 -0.390625l-0.015625 0q-0.234375 0.515625 -0.765625 0.828125q-0.515625 0.3125 -1.171875 0.3125q-1.265625 0 -2.015625 -0.875q-0.75 -0.875 -0.75 -2.28125q0 -1.421875 0.75 -2.34375q0.75 -0.921875 2.109375 -0.921875zm-1.78125 3.15625q0 1.09375 0.453125 1.734375q0.46875 0.625 1.296875 0.625q0.84375 0 1.34375 -0.65625q0.5 -0.65625 0.5 -1.75q0 -0.984375 -0.46875 -1.59375q-0.453125 -0.625 -1.3125 -0.625q-0.84375 0 -1.328125 0.625q-0.484375 0.609375 -0.484375 1.640625zm13.287109 -5.578125q1.421875 0 2.375 0.734375q0.953125 0.734375 1.140625 2.046875l-1.125 0q-0.1875 -0.890625 -0.828125 -1.359375q-0.640625 -0.46875 -1.578125 -0.46875q-1.359375 0 -2.140625 0.96875q-0.765625 0.953125 -0.765625 2.5q0 1.640625 0.75 2.625q0.765625 0.96875 2.171875 0.96875q1.046875 0 1.71875 -0.671875q0.671875 -0.671875 0.75 -1.8125l1.140625 0q-0.1875 1.671875 -1.15625 2.5625q-0.96875 0.875 -2.546875 0.875q-1.84375 0 -2.90625 -1.21875q-1.0625 -1.21875 -1.0625 -3.25q0 -2.0 1.09375 -3.25q1.09375 -1.25 2.96875 -1.25zm7.5410156 2.421875q1.40625 0 2.203125 0.90625q0.796875 0.90625 0.796875 2.34375q0 1.453125 -0.828125 2.34375q-0.8125 0.890625 -2.171875 0.890625q-1.359375 0 -2.1875 -0.875q-0.828125 -0.890625 -0.828125 -2.359375q0 -1.484375 0.8125 -2.359375q0.8125 -0.890625 2.203125 -0.890625zm-1.9375 3.25q0 1.0625 0.546875 1.703125q0.546875 0.640625 1.390625 0.640625q0.828125 0 1.375 -0.640625q0.546875 -0.640625 0.546875 -1.703125q0 -1.0625 -0.546875 -1.703125q-0.53125 -0.65625 -1.390625 -0.65625q-0.828125 0 -1.375 0.640625q-0.546875 0.640625 -0.546875 1.71875zm9.203125 -3.25q1.328125 0 2.09375 0.921875q0.765625 0.90625 0.765625 2.34375q0 1.4375 -0.765625 2.328125q-0.765625 0.890625 -2.0625 0.890625q-0.578125 0 -1.140625 -0.234375q-0.546875 -0.234375 -0.875 -0.734375l-0.015625 0l0 3.203125l-1.03125 0l0 -8.578125l1.03125 0l0 0.84375l0.015625 0q0.25 -0.484375 0.765625 -0.734375q0.515625 -0.25 1.21875 -0.25zm-2.046875 3.234375q0 1.078125 0.515625 1.71875q0.53125 0.640625 1.453125 0.640625q0.875 0 1.359375 -0.625q0.5 -0.640625 0.5 -1.78125q0 -1.0 -0.515625 -1.640625q-0.515625 -0.65625 -1.421875 -0.65625q-0.890625 0 -1.390625 0.65625q-0.5 0.65625 -0.5 1.6875zm6.5820312 -3.09375l1.8125 5.078125l0.015625 0l1.75 -5.078125l1.078125 0l-2.640625 6.859375q-0.40625 1.078125 -0.796875 1.453125q-0.375 0.375 -1.0625 0.375q-0.1875 0 -0.359375 -0.03125q-0.171875 -0.015625 -0.34375 -0.078125l0 -0.9375q0.140625 0.046875 0.28125 0.09375q0.15625 0.046875 0.3125 0.046875q0.625 0 0.859375 -0.625q0.25 -0.609375 0.40625 -0.984375l-2.46875 -6.171875l1.15625 0z" fill-rule="nonzero"/><path fill="#000000" fill-opacity="0.0" d="m244.9685 319.70013l0 28.640533l235.02362 0l0 28.650818" fill-rule="evenodd"/><path stroke="#02f4d5" stroke-width="1.0" stroke-linejoin="round" stroke-linecap="butt" stroke-dasharray="4.0,3.0" d="m244.9685 319.70013l0 28.640533l235.02362 0l0 28.650818" fill-rule="evenodd"/><path fill="#000000" fill-opacity="0.0" d="m715.0341 319.70013l0 28.640533l-235.02362 0l0 28.650818" fill-rule="evenodd"/><path stroke="#02f4d5" stroke-width="1.0" stroke-linejoin="round" stroke-linecap="butt" stroke-dasharray="4.0,3.0" d="m715.0341 319.70013l0 28.640533l-235.02362 0l0 28.650818" fill-rule="evenodd"/><path fill="#000000" fill-opacity="0.0" d="m158.55118 52.225723l642.8976 0l0 54.23622l-642.8976 0z" fill-rule="evenodd"/><path fill="#d0fdf2" d="m367.4526 91.03657q-2.546875 0 -4.28125 -0.9375q-1.734375 -0.953125 -2.625 -2.59375q-0.890625 -1.65625 -0.890625 -3.734375l0 -0.84375l2.375 0l0 0.671875q0 2.59375 1.453125 3.921875q1.453125 1.3125 3.96875 1.3125q2.21875 0 3.34375 -0.984375q1.125 -1.0 1.125 -2.59375l0 -0.171875q0 -1.5625 -1.15625 -2.375q-1.140625 -0.828125 -3.734375 -1.203125q-2.984375 -0.421875 -4.765625 -1.6875q-1.765625 -1.265625 -1.765625 -3.828125l0 -0.328125q0 -1.5625 0.828125 -2.734375q0.84375 -1.1875 2.3125 -1.859375q1.484375 -0.6875 3.421875 -0.6875q2.25 0 3.8125 0.828125q1.578125 0.8125 2.40625 2.171875q0.84375 1.34375 0.84375 2.953125l0 1.203125l-2.375 0l0 -1.03125q0 -1.296875 -0.65625 -2.15625q-0.65625 -0.875 -1.734375 -1.3125q-1.078125 -0.453125 -2.328125 -0.453125q-1.078125 0 -2.03125 0.375q-0.953125 0.375 -1.53125 1.078125q-0.578125 0.6875 -0.578125 1.703125l0 0.171875q0 1.640625 1.328125 2.40625q1.34375 0.75 4.0 1.140625q3.125 0.453125 4.59375 1.828125q1.484375 1.359375 1.484375 3.625l0 0.34375q0 2.578125 -1.75 4.1875q-1.734375 1.59375 -5.09375 1.59375zm16.218811 0q-1.84375 0 -3.34375 -0.828125q-1.484375 -0.84375 -2.375 -2.4375q-0.875 -1.609375 -0.875 -3.9375l0 -0.453125q0 -2.296875 0.875 -3.90625q0.890625 -1.625 2.375 -2.46875q1.5 -0.84375 3.28125 -0.84375q1.453125 0 2.625 0.640625q1.1875 0.640625 1.859375 1.96875l0.34375 0l0 -2.203125l2.21875 0l0 11.1875q0 0.84375 0.765625 0.84375l0.703125 0l0 2.046875l-1.5 0q-0.875 0 -1.53125 -0.5625q-0.65625 -0.578125 -0.65625 -1.828125l-0.34375 0q-0.671875 1.390625 -1.890625 2.09375q-1.203125 0.6875 -2.53125 0.6875zm0.21875 -2.09375q2.0 0 3.265625 -1.421875q1.28125 -1.421875 1.28125 -3.75l0 -0.34375q0 -1.5 -0.59375 -2.65625q-0.59375 -1.171875 -1.625 -1.828125q-1.015625 -0.671875 -2.328125 -0.671875q-1.296875 0 -2.328125 0.640625q-1.015625 0.640625 -1.609375 1.796875q-0.59375 1.140625 -0.59375 2.671875l0 0.453125q0 2.390625 1.265625 3.75q1.28125 1.359375 3.265625 1.359375zm10.593842 1.703125l0 -14.078125l2.21875 0l0 1.53125l0.34375 0q0.359375 -1.0 1.0625 -1.46875q0.71875 -0.46875 1.6875 -0.46875q1.015625 0 1.6875 0.546875q0.671875 0.53125 0.921875 1.390625l0.34375 0q0.96875 -1.9375 3.0625 -1.9375q1.59375 0 2.453125 1.015625q0.875 1.0 0.875 2.625l0 10.84375l-2.21875 0l0 -10.109375q0 -0.984375 -0.453125 -1.625q-0.453125 -0.640625 -1.453125 -0.640625q-0.9375 0 -1.515625 0.71875q-0.578125 0.703125 -0.578125 2.109375l0 9.546875l-2.21875 0l0 -10.21875q0 -0.9375 -0.515625 -1.546875q-0.5 -0.609375 -1.359375 -0.609375q-1.015625 0 -1.578125 0.734375q-0.546875 0.734375 -0.546875 1.9375l0 9.703125l-2.21875 0zm17.968811 5.671875l0 -19.75l2.21875 0l0 2.203125l0.34375 0q0.734375 -1.265625 2.03125 -1.9375q1.3125 -0.671875 2.84375 -0.671875q1.734375 0 3.203125 0.84375q1.484375 0.84375 2.375 2.453125q0.90625 1.59375 0.90625 3.859375l0 0.578125q0 2.296875 -0.890625 3.890625q-0.875 1.578125 -2.375 2.421875q-1.484375 0.828125 -3.265625 0.828125q-1.359375 0 -2.734375 -0.625q-1.359375 -0.640625 -2.09375 -1.921875l-0.34375 0l0 7.828125l-2.21875 0zm6.9375 -7.375q2.015625 0 3.359375 -1.359375q1.34375 -1.359375 1.34375 -3.6875l0 -0.578125q0 -1.5 -0.625 -2.625q-0.625 -1.140625 -1.6875 -1.78125q-1.0625 -0.640625 -2.390625 -0.640625q-1.3125 0 -2.375 0.671875q-1.0625 0.65625 -1.703125 1.828125q-0.640625 1.15625 -0.640625 2.65625l0 0.34375q0 1.5625 0.625 2.734375q0.625 1.15625 1.703125 1.796875q1.078125 0.640625 2.390625 0.640625zm10.953217 1.703125l0 -2.046875l5.109375 0l0 -15.78125l-4.9375 0l0 -2.046875l7.15625 0l0 17.828125l5.109375 0l0 2.046875l-12.4375 0zm23.656311 0.390625q-2.015625 0 -3.5625 -0.921875q-1.546875 -0.921875 -2.4375 -2.546875q-0.875 -1.640625 -0.875 -3.796875l0 -0.671875q0 -2.0 0.90625 -3.546875q0.90625 -1.5625 2.484375 -2.46875q1.578125 -0.921875 3.53125 -0.921875q1.734375 0 3.0 0.625q1.265625 0.625 2.0625 1.59375q0.8125 0.96875 1.1875 2.0625q0.390625 1.09375 0.390625 2.03125l0 1.8125l-11.34375 0q0.078125 2.078125 1.3125 3.375q1.234375 1.28125 3.390625 1.28125q2.015625 0 3.0 -0.84375q1.0 -0.859375 1.375 -2.046875l2.109375 0.5625q-0.609375 1.953125 -2.21875 3.1875q-1.59375 1.234375 -4.3125 1.234375zm-4.609375 -8.796875l9.09375 0q-0.0625 -1.21875 -0.703125 -2.109375q-0.640625 -0.890625 -1.640625 -1.375q-0.984375 -0.484375 -2.09375 -0.484375q-1.875 0 -3.15625 1.140625q-1.265625 1.125 -1.5 2.828125zm32.687653 8.40625l0 -2.25l1.703125 0l0 -15.40625l-1.703125 0l0 -2.21875l6.53125 0q3.65625 0 5.375 1.78125q1.71875 1.765625 1.71875 5.609375l0 5.109375q0 3.828125 -1.71875 5.609375q-1.71875 1.765625 -5.375 1.765625l-6.53125 0zm4.078125 -2.21875l2.109375 0q1.734375 0 2.84375 -0.46875q1.125 -0.46875 1.65625 -1.625q0.546875 -1.171875 0.546875 -3.234375l0 -4.78125q0 -2.0625 -0.546875 -3.21875q-0.53125 -1.171875 -1.65625 -1.640625q-1.109375 -0.46875 -2.84375 -0.46875l-2.109375 0l0 15.4375zm20.046967 -14.078125q-0.796875 0 -1.390625 -0.59375q-0.59375 -0.59375 -0.59375 -1.390625q0 -0.828125 0.59375 -1.40625q0.59375 -0.578125 1.390625 -0.578125q0.828125 0 1.40625 0.578125q0.578125 0.578125 0.578125 1.40625q0 0.796875 -0.578125 1.390625q-0.578125 0.59375 -1.40625 0.59375zm-6.015625 16.296875l0 -2.046875l4.9375 0l0 -9.984375l-4.421875 0l0 -2.046875l6.640625 0l0 12.03125l4.59375 0l0 2.046875l-11.75 0zm22.484467 0.390625q-1.84375 0 -3.34375 -0.828125q-1.484375 -0.84375 -2.375 -2.4375q-0.875 -1.609375 -0.875 -3.9375l0 -0.453125q0 -2.296875 0.875 -3.90625q0.890625 -1.625 2.375 -2.46875q1.5 -0.84375 3.28125 -0.84375q1.453125 0 2.625 0.640625q1.1875 0.640625 1.859375 1.96875l0.34375 0l0 -2.203125l2.21875 0l0 11.1875q0 0.84375 0.765625 0.84375l0.703125 0l0 2.046875l-1.5 0q-0.875 0 -1.53125 -0.5625q-0.65625 -0.578125 -0.65625 -1.828125l-0.34375 0q-0.671875 1.390625 -1.890625 2.09375q-1.203125 0.6875 -2.53125 0.6875zm0.21875 -2.09375q2.0 0 3.265625 -1.421875q1.28125 -1.421875 1.28125 -3.75l0 -0.34375q0 -1.5 -0.59375 -2.65625q-0.59375 -1.171875 -1.625 -1.828125q-1.015625 -0.671875 -2.328125 -0.671875q-1.296875 0 -2.328125 0.640625q-1.015625 0.640625 -1.609375 1.796875q-0.59375 1.140625 -0.59375 2.671875l0 0.453125q0 2.390625 1.265625 3.75q1.28125 1.359375 3.265625 1.359375zm13.265686 7.375l0 -2.03125l8.375 0q0.765625 0 0.765625 -0.859375l0 -4.9375l-0.34375 0q-0.671875 1.28125 -1.859375 1.921875q-1.171875 0.625 -2.5625 0.625q-1.875 0 -3.453125 -0.828125q-1.578125 -0.84375 -2.53125 -2.453125q-0.953125 -1.625 -0.953125 -3.921875l0 -0.453125q0 -2.296875 0.96875 -3.90625q0.96875 -1.609375 2.53125 -2.453125q1.5625 -0.859375 3.375 -0.859375q1.53125 0 2.6875 0.671875q1.171875 0.671875 1.796875 1.9375l0.34375 0l0 -2.203125l2.21875 0l0 17.546875q0 0.953125 -0.609375 1.578125q-0.609375 0.625 -1.578125 0.625l-9.171875 0zm4.421875 -7.375q1.34375 0 2.40625 -0.640625q1.0625 -0.640625 1.6875 -1.796875q0.625 -1.171875 0.625 -2.734375l0 -0.34375q0 -1.5 -0.640625 -2.65625q-0.640625 -1.171875 -1.703125 -1.828125q-1.0625 -0.671875 -2.375 -0.671875q-1.328125 0 -2.390625 0.640625q-1.0625 0.640625 -1.6875 1.796875q-0.625 1.140625 -0.625 2.671875l0 0.453125q0 1.5625 0.609375 2.71875q0.609375 1.140625 1.671875 1.765625q1.0625 0.625 2.421875 0.625zm10.250061 1.703125l0 -2.046875l3.25 0l0 -9.984375l-2.90625 0l0 -2.046875l5.109375 0l0 1.875l0.34375 0q0.546875 -1.171875 1.546875 -1.71875q1.015625 -0.5625 2.265625 -0.5625q2.09375 0 3.40625 1.390625q1.328125 1.390625 1.40625 4.0625l-2.328125 0.34375q0 -1.953125 -0.9375 -2.8125q-0.921875 -0.875 -2.296875 -0.875q-1.734375 0 -2.578125 1.265625q-0.828125 1.265625 -0.828125 3.109375l0 5.953125l3.578125 0l0 2.046875l-9.03125 0zm23.968872 0.390625q-1.84375 0 -3.34375 -0.828125q-1.484375 -0.84375 -2.375 -2.4375q-0.875 -1.609375 -0.875 -3.9375l0 -0.453125q0 -2.296875 0.875 -3.90625q0.890625 -1.625 2.375 -2.46875q1.5 -0.84375 3.28125 -0.84375q1.453125 0 2.625 0.640625q1.1875 0.640625 1.859375 1.96875l0.34375 0l0 -2.203125l2.21875 0l0 11.1875q0 0.84375 0.765625 0.84375l0.703125 0l0 2.046875l-1.5 0q-0.875 0 -1.53125 -0.5625q-0.65625 -0.578125 -0.65625 -1.828125l-0.34375 0q-0.671875 1.390625 -1.890625 2.09375q-1.203125 0.6875 -2.53125 0.6875zm0.21875 -2.09375q2.0 0 3.265625 -1.421875q1.28125 -1.421875 1.28125 -3.75l0 -0.34375q0 -1.5 -0.59375 -2.65625q-0.59375 -1.171875 -1.625 -1.828125q-1.015625 -0.671875 -2.328125 -0.671875q-1.296875 0 -2.328125 0.640625q-1.015625 0.640625 -1.609375 1.796875q-0.59375 1.140625 -0.59375 2.671875l0 0.453125q0 2.390625 1.265625 3.75q1.28125 1.359375 3.265625 1.359375zm10.593811 1.703125l0 -14.078125l2.21875 0l0 1.53125l0.34375 0q0.359375 -1.0 1.0625 -1.46875q0.71875 -0.46875 1.6875 -0.46875q1.015625 0 1.6875 0.546875q0.671875 0.53125 0.921875 1.390625l0.34375 0q0.96875 -1.9375 3.0625 -1.9375q1.59375 0 2.453125 1.015625q0.875 1.0 0.875 2.625l0 10.84375l-2.21875 0l0 -10.109375q0 -0.984375 -0.453125 -1.625q-0.453125 -0.640625 -1.453125 -0.640625q-0.9375 0 -1.515625 0.71875q-0.578125 0.703125 -0.578125 2.109375l0 9.546875l-2.21875 0l0 -10.21875q0 -0.9375 -0.515625 -1.546875q-0.5 -0.609375 -1.359375 -0.609375q-1.015625 0 -1.578125 0.734375q-0.546875 0.734375 -0.546875 1.9375l0 9.703125l-2.21875 0z" fill-rule="nonzero"/><path fill="#beff42" d="m143.39806 464.3646l0 0c0 -12.785187 10.364441 -23.149597 23.149612 -23.149597l626.89764 0c6.1396484 0 12.027832 2.4389648 16.369263 6.780365c4.3413696 4.3413696 6.7803345 10.229584 6.7803345 16.369232l0 0l0 0c0 12.785187 -10.364441 23.149597 -23.149597 23.149597l-626.89764 0c-12.7851715 0 -23.149612 -10.36441 -23.149612 -23.149597z" fill-rule="evenodd"/><path fill="#013a3b" d="m430.38968 458.72583q1.75 0 2.765625 0.84375q1.03125 0.84375 1.09375 2.46875l-1.3125 0q-0.125 -1.0625 -0.78125 -1.59375q-0.640625 -0.546875 -1.828125 -0.546875q-1.109375 0 -1.734375 0.46875q-0.609375 0.46875 -0.609375 1.328125q0 0.609375 0.53125 1.0q0.53125 0.390625 2.84375 0.859375q1.671875 0.34375 2.5 1.0625q0.828125 0.703125 0.828125 1.953125q0 1.46875 -1.203125 2.296875q-1.1875 0.828125 -2.890625 0.828125q-1.890625 0 -3.09375 -0.953125q-1.203125 -0.953125 -1.21875 -2.734375l1.3125 0q0.015625 1.1875 0.859375 1.859375q0.84375 0.65625 2.1875 0.65625q1.265625 0 1.953125 -0.484375q0.703125 -0.5 0.703125 -1.421875q0 -0.75 -0.640625 -1.1875q-0.625 -0.453125 -2.3125 -0.78125q-2.21875 -0.421875 -2.984375 -1.09375q-0.765625 -0.671875 -0.765625 -1.765625q0 -1.40625 1.0625 -2.234375q1.078125 -0.828125 2.734375 -0.828125zm8.8714905 2.96875q1.546875 0 2.1875 0.5625q0.65625 0.546875 0.65625 1.46875q0 3.9375 0 4.375q0 0.421875 0.390625 0.421875q0.09375 0 0.1875 -0.015625q0.109375 -0.03125 0.203125 -0.0625l0 0.96875q-0.171875 0.109375 -0.40625 0.15625q-0.21875 0.046875 -0.484375 0.046875q-0.515625 0 -0.796875 -0.28125q-0.265625 -0.296875 -0.265625 -0.890625q-0.5 0.59375 -1.171875 0.890625q-0.671875 0.28125 -1.5 0.28125q-1.171875 0 -1.84375 -0.546875q-0.65625 -0.5625 -0.65625 -1.578125q0 -1.015625 0.640625 -1.609375q0.65625 -0.609375 3.078125 -0.90625q0.8125 -0.109375 1.09375 -0.3125q0.296875 -0.203125 0.296875 -0.625q0 -0.625 -0.40625 -0.9375q-0.40625 -0.3125 -1.28125 -0.3125q-0.921875 0 -1.390625 0.359375q-0.453125 0.34375 -0.5 1.078125l-1.234375 0q0.046875 -1.25 0.875 -1.890625q0.84375 -0.640625 2.328125 -0.640625zm-2.1875 5.703125q0 0.53125 0.390625 0.828125q0.390625 0.296875 1.078125 0.296875q1.046875 0 1.671875 -0.515625q0.640625 -0.53125 0.640625 -1.171875l0 -1.3125q-0.3125 0.234375 -0.8125 0.3125q-0.5 0.078125 -1.328125 0.1875q-0.84375 0.125 -1.25 0.453125q-0.390625 0.328125 -0.390625 0.921875zm10.622009 -5.703125q0.828125 0 1.34375 0.34375q0.53125 0.328125 0.734375 0.9375q0.390625 -0.609375 1.0 -0.9375q0.625 -0.34375 1.375 -0.34375q1.28125 0 1.890625 0.578125q0.625 0.578125 0.625 1.5625l0 5.609375l-1.25 0l0 -5.03125q0 -0.8125 -0.34375 -1.21875q-0.34375 -0.40625 -1.109375 -0.40625q-0.9375 0 -1.46875 0.546875q-0.515625 0.546875 -0.515625 1.34375l0 4.765625l-1.25 0l0 -5.03125q0 -0.8125 -0.34375 -1.21875q-0.34375 -0.40625 -1.078125 -0.40625q-0.59375 0 -1.046875 0.296875q-0.453125 0.28125 -0.71875 0.78125q-0.25 0.484375 -0.25 0.828125l0 4.75l-1.25 0l0 -7.578125l1.171875 0l0 1.109375l0.03125 0q0.421875 -0.640625 1.03125 -0.953125q0.609375 -0.328125 1.421875 -0.328125zm12.580322 0q1.625 0 2.5625 1.125q0.9375 1.109375 0.9375 2.859375q0 1.765625 -0.9375 2.859375q-0.921875 1.078125 -2.53125 1.078125q-0.703125 0 -1.390625 -0.28125q-0.671875 -0.296875 -1.0625 -0.90625l-0.03125 0l0 3.921875l-1.234375 0l0 -10.484375l1.234375 0l0 1.03125l0.03125 0q0.296875 -0.59375 0.921875 -0.890625q0.640625 -0.3125 1.5 -0.3125zm-2.484375 3.953125q0 1.328125 0.625 2.109375q0.640625 0.765625 1.765625 0.765625q1.078125 0 1.671875 -0.765625q0.59375 -0.78125 0.59375 -2.15625q0 -1.234375 -0.625 -2.015625q-0.625 -0.796875 -1.734375 -0.796875q-1.09375 0 -1.703125 0.8125q-0.59375 0.796875 -0.59375 2.046875zm8.750336 -6.671875l0 10.46875l-1.234375 0l0 -10.46875l1.234375 0zm5.099884 2.71875q1.625 0 2.515625 1.171875q0.90625 1.171875 0.90625 3.015625l0 0.15625l-5.671875 0l0 0.078125q0 1.09375 0.625 1.75q0.640625 0.65625 1.734375 0.65625q0.828125 0 1.3125 -0.390625q0.5 -0.390625 0.65625 -1.09375l1.234375 0q-0.25 1.265625 -1.109375 1.921875q-0.84375 0.65625 -2.125 0.65625q-1.203125 0 -2.03125 -0.53125q-0.828125 -0.546875 -1.21875 -1.5q-0.390625 -0.96875 -0.390625 -1.96875q0 -1.6875 1.0 -2.796875q1.015625 -1.125 2.5625 -1.125zm-2.25 3.234375l4.359375 0q-0.0625 -0.921875 -0.671875 -1.53125q-0.609375 -0.609375 -1.53125 -0.609375q-0.859375 0 -1.46875 0.578125q-0.609375 0.578125 -0.6875 1.5625zm14.91275 -5.953125q2.375 0 3.65625 1.265625q1.296875 1.265625 1.296875 3.734375q0 2.75 -1.28125 4.109375q-1.265625 1.359375 -3.671875 1.359375l-3.671875 0l0 -10.46875l3.671875 0zm0.09375 9.296875q1.5625 0 2.5 -1.015625q0.953125 -1.03125 0.953125 -3.09375q0 -2.078125 -0.859375 -3.03125q-0.859375 -0.96875 -2.546875 -0.96875l-2.421875 0l0 8.109375l2.375 0zm7.6632385 -9.296875l0 1.53125l-1.234375 0l0 -1.53125l1.234375 0zm0 2.890625l0 7.578125l-1.234375 0l0 -7.578125l1.234375 0zm5.0374146 -0.171875q1.546875 0 2.1875 0.5625q0.65625 0.546875 0.65625 1.46875q0 3.9375 0 4.375q0 0.421875 0.390625 0.421875q0.09375 0 0.1875 -0.015625q0.109375 -0.03125 0.203125 -0.0625l0 0.96875q-0.171875 0.109375 -0.40625 0.15625q-0.21875 0.046875 -0.484375 0.046875q-0.515625 0 -0.796875 -0.28125q-0.265625 -0.296875 -0.265625 -0.890625q-0.5 0.59375 -1.171875 0.890625q-0.671875 0.28125 -1.5 0.28125q-1.171875 0 -1.84375 -0.546875q-0.65625 -0.5625 -0.65625 -1.578125q0 -1.015625 0.640625 -1.609375q0.65625 -0.609375 3.078125 -0.90625q0.8125 -0.109375 1.09375 -0.3125q0.296875 -0.203125 0.296875 -0.625q0 -0.625 -0.40625 -0.9375q-0.40625 -0.3125 -1.28125 -0.3125q-0.921875 0 -1.390625 0.359375q-0.453125 0.34375 -0.5 1.078125l-1.234375 0q0.046875 -1.25 0.875 -1.890625q0.84375 -0.640625 2.328125 -0.640625zm-2.1875 5.703125q0 0.53125 0.390625 0.828125q0.390625 0.296875 1.078125 0.296875q1.046875 0 1.671875 -0.515625q0.640625 -0.53125 0.640625 -1.171875l0 -1.3125q-0.3125 0.234375 -0.8125 0.3125q-0.5 0.078125 -1.328125 0.1875q-0.84375 0.125 -1.25 0.453125q-0.390625 0.328125 -0.390625 0.921875zm10.043884 -5.703125q0.796875 0 1.375 0.34375q0.578125 0.34375 0.90625 0.921875l0.015625 0l0 -1.09375l1.15625 0l0 7.015625q0 1.78125 -0.859375 2.703125q-0.859375 0.9375 -2.640625 0.9375q-1.3125 0 -2.203125 -0.578125q-0.890625 -0.5625 -0.9375 -1.640625l1.234375 0q0.03125 0.578125 0.625 0.890625q0.59375 0.328125 1.34375 0.328125q1.09375 0 1.6875 -0.734375q0.59375 -0.71875 0.59375 -2.15625l0 -0.46875l-0.03125 0q-0.296875 0.625 -0.9375 1.0q-0.625 0.359375 -1.4375 0.359375q-1.53125 0 -2.453125 -1.046875q-0.921875 -1.0625 -0.921875 -2.78125q0 -1.734375 0.921875 -2.859375q0.921875 -1.140625 2.5625 -1.140625zm-2.171875 3.84375q0 1.359375 0.5625 2.125q0.578125 0.765625 1.578125 0.765625q1.03125 0 1.640625 -0.796875q0.609375 -0.796875 0.609375 -2.125q0 -1.21875 -0.5625 -1.96875q-0.5625 -0.75 -1.59375 -0.75q-1.046875 0 -1.640625 0.75q-0.59375 0.75 -0.59375 2.0zm11.275269 -3.84375q0.046875 0 0.078125 0q0.046875 0 0.09375 0l0 1.3125q-1.390625 0 -2.0625 0.75q-0.671875 0.75 -0.671875 2.296875l0 3.390625l-1.25 0l0 -7.578125l1.171875 0l0 1.59375l0.03125 0q0.4375 -0.90625 1.078125 -1.328125q0.640625 -0.4375 1.53125 -0.4375zm3.8578491 0q1.546875 0 2.1875 0.5625q0.65625 0.546875 0.65625 1.46875q0 3.9375 0 4.375q0 0.421875 0.390625 0.421875q0.09375 0 0.1875 -0.015625q0.109375 -0.03125 0.203125 -0.0625l0 0.96875q-0.171875 0.109375 -0.40625 0.15625q-0.21875 0.046875 -0.484375 0.046875q-0.515625 0 -0.796875 -0.28125q-0.265625 -0.296875 -0.265625 -0.890625q-0.5 0.59375 -1.171875 0.890625q-0.671875 0.28125 -1.5 0.28125q-1.171875 0 -1.84375 -0.546875q-0.65625 -0.5625 -0.65625 -1.578125q0 -1.015625 0.640625 -1.609375q0.65625 -0.609375 3.078125 -0.90625q0.8125 -0.109375 1.09375 -0.3125q0.296875 -0.203125 0.296875 -0.625q0 -0.625 -0.40625 -0.9375q-0.40625 -0.3125 -1.28125 -0.3125q-0.921875 0 -1.390625 0.359375q-0.453125 0.34375 -0.5 1.078125l-1.234375 0q0.046875 -1.25 0.875 -1.890625q0.84375 -0.640625 2.328125 -0.640625zm-2.1875 5.703125q0 0.53125 0.390625 0.828125q0.390625 0.296875 1.078125 0.296875q1.046875 0 1.671875 -0.515625q0.640625 -0.53125 0.640625 -1.171875l0 -1.3125q-0.3125 0.234375 -0.8125 0.3125q-0.5 0.078125 -1.328125 0.1875q-0.84375 0.125 -1.25 0.453125q-0.390625 0.328125 -0.390625 0.921875zm10.622009 -5.703125q0.828125 0 1.34375 0.34375q0.53125 0.328125 0.734375 0.9375q0.390625 -0.609375 1.0 -0.9375q0.625 -0.34375 1.375 -0.34375q1.28125 0 1.890625 0.578125q0.625 0.578125 0.625 1.5625l0 5.609375l-1.25 0l0 -5.03125q0 -0.8125 -0.34375 -1.21875q-0.34375 -0.40625 -1.109375 -0.40625q-0.9375 0 -1.46875 0.546875q-0.515625 0.546875 -0.515625 1.34375l0 4.765625l-1.25 0l0 -5.03125q0 -0.8125 -0.34375 -1.21875q-0.34375 -0.40625 -1.078125 -0.40625q-0.59375 0 -1.046875 0.296875q-0.453125 0.28125 -0.71875 0.78125q-0.25 0.484375 -0.25 0.828125l0 4.75l-1.25 0l0 -7.578125l1.171875 0l0 1.109375l0.03125 0q0.421875 -0.640625 1.03125 -0.953125q0.609375 -0.328125 1.421875 -0.328125z" fill-rule="nonzero"/><path fill="#000000" fill-opacity="0.0" d="m479.9965 423.2806l0 17.921265" fill-rule="evenodd"/><path stroke="#02f4d5" stroke-width="1.0" stroke-linejoin="round" stroke-linecap="butt" stroke-dasharray="4.0,3.0" d="m479.9965 423.2806l0 17.921265" fill-rule="evenodd"/></g></svg>
