<svg version="1.1" viewBox="0.0 0.0 960.0 540.0" fill="none" stroke="none" stroke-linecap="square" stroke-miterlimit="10" xmlns:xlink="http://www.w3.org/1999/xlink" xmlns="http://www.w3.org/2000/svg"><clipPath id="g39d35d6a8c2_0_86.0"><path d="m0 0l960.0 0l0 540.0l-960.0 0l0 -540.0z" clip-rule="nonzero"/></clipPath><g clip-path="url(#g39d35d6a8c2_0_86.0)"><path fill="#ffffff" d="m0 0l960.0 0l0 540.0l-960.0 0z" fill-rule="evenodd"/><path fill="#000000" fill-opacity="0.0" d="m48.0 48.0l472.62994 0l0 29.102364l-472.62994 0z" fill-rule="evenodd"/><path fill="#d0fdf2" d="m61.787403 159.4172l0 0c0 -12.7851715 10.364429 -23.149612 23.149601 -23.149612l99.55906 0l0 0c6.1396637 0 12.027847 2.43898 16.369247 6.780365c4.341385 4.3414 6.780365 10.229584 6.780365 16.369247l0 0l0 0c0 12.7851715 -10.364441 23.149597 -23.149612 23.149597l-99.55906 0c-12.7851715 0 -23.149601 -10.364426 -23.149601 -23.149597z" fill-rule="evenodd"/><path fill="#013a3b" d="m129.71234 154.02846l0 1.1875l-3.5 0l0 9.28125l-1.390625 0l0 -9.28125l-3.484375 0l0 -1.1875l8.375 0zm2.6925812 2.71875q1.625 0 2.515625 1.171875q0.90625 1.171875 0.90625 3.015625l0 0.15625l-5.671875 0l0 0.078125q0 1.09375 0.625 1.75q0.640625 0.65625 1.734375 0.65625q0.828125 0 1.3125 -0.390625q0.5 -0.390625 0.65625 -1.09375l1.234375 0q-0.25 1.265625 -1.109375 1.921875q-0.84375 0.65625 -2.125 0.65625q-1.203125 0 -2.03125 -0.53125q-0.828125 -0.546875 -1.21875 -1.5q-0.390625 -0.96875 -0.390625 -1.96875q0 -1.6875 1.0 -2.796875q1.015625 -1.125 2.5625 -1.125zm-2.25 3.234375l4.359375 0q-0.0625 -0.921875 -0.671875 -1.53125q-0.609375 -0.609375 -1.53125 -0.609375q-0.859375 0 -1.46875 0.578125q-0.609375 0.578125 -0.6875 1.5625zm7.7007904 -3.0625l1.8125 2.640625l0 0l1.890625 -2.640625l1.5 0l-2.609375 3.484375l2.921875 4.09375l-1.59375 0l-2.109375 -3.140625l-2.109375 3.140625l-1.515625 0l2.859375 -3.984375l-2.640625 -3.59375l1.59375 0zm8.327286 -2.265625l0 2.265625l1.5 0l0 1.109375l-1.5 0l0 4.734375q0 0.5625 0.375 0.59375q0.375 0.03125 0.78125 0.03125l0.34375 0l0 1.109375l-1.015625 0q-1.03125 0 -1.390625 -0.359375q-0.34375 -0.375 -0.34375 -1.234375l0 -4.875l-1.296875 0l0 -1.109375l1.296875 0l0 -2.265625l1.25 0z" fill-rule="nonzero"/><path fill="#000000" fill-opacity="0.0" d="m48.0 30.228346l708.0 0l0 25.858267l-708.0 0z" fill-rule="evenodd"/><path fill="#013a3b" d="m49.5625 50.708347l0 -1.6875l1.28125 0l0 -11.578125l-1.28125 0l0 -1.671875l4.90625 0q2.75 0 4.03125 1.34375q1.296875 1.328125 1.296875 4.203125l0 3.84375q0 2.875 -1.296875 4.21875q-1.28125 1.328125 -4.03125 1.328125l-4.90625 0zm3.0625 -1.65625l1.578125 0q1.296875 0 2.140625 -0.359375q0.84375 -0.359375 1.25 -1.21875q0.40625 -0.875 0.40625 -2.4375l0 -3.578125q0 -1.5625 -0.40625 -2.4375q-0.40625 -0.875 -1.25 -1.21875q-0.84375 -0.359375 -2.140625 -0.359375l-1.578125 0l0 11.609375zm15.068497 -10.59375q-0.609375 0 -1.0625 -0.4375q-0.4375 -0.453125 -0.4375 -1.046875q0 -0.625 0.4375 -1.0625q0.453125 -0.4375 1.0625 -0.4375q0.609375 0 1.046875 0.4375q0.4375 0.4375 0.4375 1.0625q0 0.59375 -0.4375 1.046875q-0.4375 0.4375 -1.046875 0.4375zm-4.53125 12.25l0 -1.53125l3.71875 0l0 -7.515625l-3.328125 0l0 -1.53125l4.984375 0l0 9.046875l3.453125 0l0 1.53125l-8.828125 0zm16.896622 0.296875q-1.390625 0 -2.515625 -0.625q-1.109375 -0.625 -1.78125 -1.828125q-0.65625 -1.21875 -0.65625 -2.96875l0 -0.328125q0 -1.734375 0.65625 -2.953125q0.671875 -1.21875 1.78125 -1.84375q1.125 -0.625 2.46875 -0.625q1.09375 0 1.96875 0.484375q0.890625 0.46875 1.40625 1.46875l0.25 0l0 -1.65625l1.671875 0l0 8.40625q0 0.640625 0.5625 0.640625l0.546875 0l0 1.53125l-1.140625 0q-0.65625 0 -1.15625 -0.421875q-0.484375 -0.4375 -0.484375 -1.375l-0.25 0q-0.515625 1.046875 -1.421875 1.578125q-0.90625 0.515625 -1.90625 0.515625zm0.171875 -1.578125q1.484375 0 2.4375 -1.0625q0.96875 -1.0625 0.96875 -2.8125l0 -0.265625q0 -1.125 -0.453125 -2.0q-0.4375 -0.875 -1.203125 -1.375q-0.765625 -0.5 -1.75 -0.5q-0.984375 0 -1.75 0.484375q-0.765625 0.46875 -1.21875 1.34375q-0.453125 0.859375 -0.453125 2.015625l0 0.328125q0 1.796875 0.953125 2.828125q0.96875 1.015625 2.46875 1.015625zm9.959122 5.546875l0 -1.53125l6.296875 0q0.5625 0 0.5625 -0.640625l0 -3.71875l-0.25 0q-0.515625 0.96875 -1.40625 1.453125q-0.875 0.46875 -1.921875 0.46875q-1.40625 0 -2.59375 -0.625q-1.1875 -0.625 -1.90625 -1.84375q-0.703125 -1.21875 -0.703125 -2.953125l0 -0.328125q0 -1.734375 0.71875 -2.9375q0.734375 -1.203125 1.90625 -1.84375q1.171875 -0.640625 2.53125 -0.640625q1.15625 0 2.03125 0.5q0.875 0.5 1.34375 1.453125l0.25 0l0 -1.65625l1.671875 0l0 13.1875q0 0.71875 -0.46875 1.1875q-0.453125 0.46875 -1.171875 0.46875l-6.890625 0zm3.328125 -5.546875q1.0 0 1.796875 -0.46875q0.796875 -0.484375 1.265625 -1.359375q0.46875 -0.875 0.46875 -2.046875l0 -0.265625q0 -1.125 -0.484375 -2.0q-0.46875 -0.875 -1.265625 -1.375q-0.796875 -0.5 -1.78125 -0.5q-1.0 0 -1.8125 0.484375q-0.796875 0.46875 -1.265625 1.34375q-0.46875 0.859375 -0.46875 2.015625l0 0.328125q0 1.171875 0.453125 2.046875q0.46875 0.859375 1.265625 1.328125q0.796875 0.46875 1.828125 0.46875zm7.6934967 1.28125l0 -1.53125l2.4375 0l0 -7.515625l-2.171875 0l0 -1.53125l3.828125 0l0 1.40625l0.265625 0q0.40625 -0.875 1.15625 -1.28125q0.75 -0.421875 1.703125 -0.421875q1.578125 0 2.5625 1.046875q0.984375 1.046875 1.0625 3.046875l-1.75 0.25q0 -1.46875 -0.703125 -2.109375q-0.703125 -0.65625 -1.734375 -0.65625q-1.296875 0 -1.9375 0.953125q-0.625 0.9375 -0.625 2.328125l0 4.484375l2.6875 0l0 1.53125l-6.78125 0zm18.005997 0.296875q-1.390625 0 -2.515625 -0.625q-1.109375 -0.625 -1.78125 -1.828125q-0.65625 -1.21875 -0.65625 -2.96875l0 -0.328125q0 -1.734375 0.65625 -2.953125q0.671875 -1.21875 1.78125 -1.84375q1.125 -0.625 2.46875 -0.625q1.09375 0 1.96875 0.484375q0.890625 0.46875 1.40625 1.46875l0.25 0l0 -1.65625l1.671875 0l0 8.40625q0 0.640625 0.5625 0.640625l0.546875 0l0 1.53125l-1.140625 0q-0.65625 0 -1.15625 -0.421875q-0.484375 -0.4375 -0.484375 -1.375l-0.25 0q-0.515625 1.046875 -1.421875 1.578125q-0.90625 0.515625 -1.90625 0.515625zm0.171875 -1.578125q1.484375 0 2.4375 -1.0625q0.96875 -1.0625 0.96875 -2.8125l0 -0.265625q0 -1.125 -0.453125 -2.0q-0.4375 -0.875 -1.203125 -1.375q-0.765625 -0.5 -1.75 -0.5q-0.984375 0 -1.75 0.484375q-0.765625 0.46875 -1.21875 1.34375q-0.453125 0.859375 -0.453125 2.015625l0 0.328125q0 1.796875 0.953125 2.828125q0.96875 1.015625 2.46875 1.015625zm7.9591217 1.28125l0 -10.578125l1.65625 0l0 1.15625l0.25 0q0.28125 -0.75 0.8125 -1.09375q0.53125 -0.359375 1.265625 -0.359375q0.765625 0 1.265625 0.40625q0.5 0.40625 0.6875 1.046875l0.265625 0q0.71875 -1.453125 2.296875 -1.453125q1.203125 0 1.84375 0.765625q0.65625 0.75 0.65625 1.96875l0 8.140625l-1.671875 0l0 -7.59375q0 -0.75 -0.34375 -1.21875q-0.328125 -0.484375 -1.078125 -0.484375q-0.703125 0 -1.140625 0.53125q-0.4375 0.53125 -0.4375 1.59375l0 7.171875l-1.671875 0l0 -7.671875q0 -0.703125 -0.390625 -1.15625q-0.375 -0.46875 -1.015625 -0.46875q-0.765625 0 -1.1875 0.5625q-0.40625 0.546875 -0.40625 1.4375l0 7.296875l-1.65625 0zm26.293243 0l0 -1.65625l1.28125 0l0 -11.609375l-1.28125 0l0 -1.671875l6.03125 0q2.15625 0 3.28125 1.109375q1.140625 1.109375 1.140625 2.78125l0 0.25q0 1.21875 -0.734375 2.0625q-0.71875 0.828125 -1.78125 1.125l0 0.25q1.0625 0.28125 1.78125 1.140625q0.734375 0.859375 0.734375 2.0625l0 0.25q0 1.6875 -1.140625 2.796875q-1.125 1.109375 -3.28125 1.109375l-6.03125 0zm3.0625 -8.3125l2.90625 0q1.28125 0 2.015625 -0.65625q0.75 -0.671875 0.75 -1.828125l0 -0.125q0 -1.078125 -0.796875 -1.703125q-0.78125 -0.640625 -2.03125 -0.640625l-2.84375 0l0 4.953125zm0 6.65625l2.84375 0q1.25 0 2.03125 -0.625q0.796875 -0.640625 0.796875 -1.75l0 -0.125q0 -1.140625 -0.75 -1.8125q-0.734375 -0.6875 -2.015625 -0.6875l-2.90625 0l0 5.0zm14.459122 1.953125q-1.734375 0 -2.84375 -1.140625q-1.109375 -1.15625 -1.109375 -3.421875l0 -6.3125l1.65625 0l0 6.09375q0 1.671875 0.671875 2.4375q0.6875 0.765625 2.09375 0.765625q1.515625 0 2.375 -1.03125q0.875 -1.03125 0.875 -2.765625l0 -5.5l1.65625 0l0 10.578125l-1.65625 0l0 -1.921875l-0.25 0q-0.515625 1.03125 -1.359375 1.625q-0.828125 0.59375 -2.109375 0.59375zm14.005997 -12.546875q-0.609375 0 -1.0625 -0.4375q-0.4375 -0.453125 -0.4375 -1.046875q0 -0.625 0.4375 -1.0625q0.453125 -0.4375 1.0625 -0.4375q0.609375 0 1.046875 0.4375q0.4375 0.4375 0.4375 1.0625q0 0.59375 -0.4375 1.046875q-0.4375 0.4375 -1.046875 0.4375zm-4.53125 12.25l0 -1.53125l3.71875 0l0 -7.515625l-3.328125 0l0 -1.53125l4.984375 0l0 9.046875l3.453125 0l0 1.53125l-8.828125 0zm12.802872 0l0 -1.53125l3.828125 0l0 -11.859375l-3.703125 0l0 -1.546875l5.375 0l0 13.40625l3.84375 0l0 1.53125l-9.34375 0zm17.521622 0.296875q-1.40625 0 -2.5625 -0.625q-1.140625 -0.625 -1.828125 -1.84375q-0.671875 -1.21875 -0.671875 -2.953125l0 -0.328125q0 -1.734375 0.6875 -2.9375q0.6875 -1.203125 1.828125 -1.84375q1.140625 -0.640625 2.515625 -0.640625q1.078125 0 2.03125 0.484375q0.953125 0.46875 1.46875 1.46875l0.25 0l0 -6.015625l1.65625 0l0 14.9375l-1.65625 0l0 -1.625l-0.25 0q-0.515625 0.984375 -1.515625 1.453125q-0.984375 0.46875 -1.953125 0.46875zm0.171875 -1.578125q1.0 0 1.796875 -0.46875q0.8125 -0.484375 1.28125 -1.359375q0.46875 -0.875 0.46875 -2.046875l0 -0.265625q0 -1.125 -0.484375 -2.0q-0.484375 -0.875 -1.28125 -1.375q-0.796875 -0.5 -1.78125 -0.5q-1.0 0 -1.796875 0.484375q-0.796875 0.46875 -1.265625 1.34375q-0.46875 0.859375 -0.46875 2.015625l0 0.328125q0 1.171875 0.453125 2.046875q0.453125 0.859375 1.265625 1.328125q0.8125 0.46875 1.8125 0.46875zm13.193497 -10.96875q-0.609375 0 -1.0625 -0.4375q-0.4375 -0.453125 -0.4375 -1.046875q0 -0.625 0.4375 -1.0625q0.453125 -0.4375 1.0625 -0.4375q0.609375 0 1.046875 0.4375q0.4375 0.4375 0.4375 1.0625q0 0.59375 -0.4375 1.046875q-0.4375 0.4375 -1.046875 0.4375zm-4.53125 12.25l0 -1.53125l3.71875 0l0 -7.515625l-3.328125 0l0 -1.53125l4.984375 0l0 9.046875l3.453125 0l0 1.53125l-8.828125 0zm12.802872 0l0 -10.578125l1.65625 0l0 1.796875l0.265625 0q0.96875 -2.09375 3.40625 -2.09375q1.828125 0 2.921875 1.140625q1.09375 1.140625 1.09375 3.421875l0 6.3125l-1.671875 0l0 -5.96875q0 -1.671875 -0.75 -2.5q-0.734375 -0.828125 -2.015625 -0.828125q-1.5 0 -2.375 1.03125q-0.875 1.03125 -0.875 2.765625l0 5.5l-1.65625 0zm14.224747 4.265625l0 -1.53125l6.296875 0q0.5625 0 0.5625 -0.640625l0 -3.71875l-0.25 0q-0.515625 0.96875 -1.40625 1.453125q-0.875 0.46875 -1.921875 0.46875q-1.40625 0 -2.59375 -0.625q-1.1875 -0.625 -1.90625 -1.84375q-0.703125 -1.21875 -0.703125 -2.953125l0 -0.328125q0 -1.734375 0.71875 -2.9375q0.734375 -1.203125 1.90625 -1.84375q1.171875 -0.640625 2.53125 -0.640625q1.15625 0 2.03125 0.5q0.875 0.5 1.34375 1.453125l0.25 0l0 -1.65625l1.671875 0l0 13.1875q0 0.71875 -0.46875 1.1875q-0.453125 0.46875 -1.171875 0.46875l-6.890625 0zm3.328125 -5.546875q1.0 0 1.796875 -0.46875q0.796875 -0.484375 1.265625 -1.359375q0.46875 -0.875 0.46875 -2.046875l0 -0.265625q0 -1.125 -0.484375 -2.0q-0.46875 -0.875 -1.265625 -1.375q-0.796875 -0.5 -1.78125 -0.5q-1.0 0 -1.8125 0.484375q-0.796875 0.46875 -1.265625 1.34375q-0.46875 0.859375 -0.46875 2.015625l0 0.328125q0 1.171875 0.453125 2.046875q0.46875 0.859375 1.265625 1.328125q0.796875 0.46875 1.828125 0.46875zm20.965103 1.28125l0 -1.65625l1.28125 0l0 -11.609375l-1.28125 0l0 -1.671875l6.03125 0q2.15625 0 3.28125 1.109375q1.140625 1.109375 1.140625 2.78125l0 0.25q0 1.21875 -0.734375 2.0625q-0.71875 0.828125 -1.78125 1.125l0 0.25q1.0625 0.28125 1.78125 1.140625q0.734375 0.859375 0.734375 2.0625l0 0.25q0 1.6875 -1.140625 2.796875q-1.125 1.109375 -3.28125 1.109375l-6.03125 0zm3.0625 -8.3125l2.90625 0q1.28125 0 2.015625 -0.65625q0.75 -0.671875 0.75 -1.828125l0 -0.125q0 -1.078125 -0.796875 -1.703125q-0.78125 -0.640625 -2.03125 -0.640625l-2.84375 0l0 4.953125zm0 6.65625l2.84375 0q1.25 0 2.03125 -0.625q0.796875 -0.640625 0.796875 -1.75l0 -0.125q0 -1.140625 -0.75 -1.8125q-0.734375 -0.6875 -2.015625 -0.6875l-2.90625 0l0 5.0zm10.631012 1.65625l0 -1.53125l3.828125 0l0 -11.859375l-3.703125 0l0 -1.546875l5.375 0l0 13.40625l3.84375 0l0 1.53125l-9.34375 0zm17.724762 0.296875q-1.40625 0 -2.625 -0.640625q-1.203125 -0.640625 -1.953125 -1.84375q-0.734375 -1.21875 -0.734375 -2.96875l0 -0.265625q0 -1.71875 0.734375 -2.9375q0.75 -1.234375 1.953125 -1.875q1.21875 -0.640625 2.625 -0.640625q1.40625 0 2.609375 0.640625q1.203125 0.640625 1.953125 1.875q0.75 1.21875 0.75 2.9375l0 0.265625q0 1.75 -0.75 2.96875q-0.75 1.203125 -1.953125 1.84375q-1.203125 0.640625 -2.609375 0.640625zm0 -1.578125q1.015625 0 1.828125 -0.46875q0.8125 -0.46875 1.28125 -1.34375q0.484375 -0.875 0.484375 -2.0625l0 -0.265625q0 -1.140625 -0.484375 -2.015625q-0.46875 -0.875 -1.296875 -1.359375q-0.8125 -0.5 -1.8125 -0.5q-1.0 0 -1.828125 0.5q-0.828125 0.484375 -1.3125 1.359375q-0.46875 0.875 -0.46875 2.015625l0 0.265625q0 1.1875 0.46875 2.0625q0.484375 0.875 1.3125 1.34375q0.828125 0.46875 1.828125 0.46875zm13.240356 1.578125q-1.46875 0 -2.71875 -0.625q-1.234375 -0.625 -1.984375 -1.84375q-0.75 -1.21875 -0.75 -2.953125l0 -0.25q0 -1.703125 0.75 -2.9375q0.75 -1.25 1.984375 -1.90625q1.25 -0.65625 2.71875 -0.65625q1.34375 0 2.390625 0.53125q1.0625 0.515625 1.734375 1.4375q0.671875 0.90625 0.859375 2.078125l-1.65625 0.390625q-0.09375 -0.75 -0.5 -1.390625q-0.390625 -0.65625 -1.109375 -1.0625q-0.71875 -0.40625 -1.765625 -0.40625q-1.015625 0 -1.859375 0.5q-0.84375 0.5 -1.34375 1.390625q-0.5 0.875 -0.5 2.03125l0 0.25q0 1.203125 0.5 2.0625q0.5 0.859375 1.34375 1.328125q0.859375 0.453125 1.90625 0.453125q1.046875 0 1.75 -0.40625q0.71875 -0.421875 1.109375 -1.0625q0.40625 -0.65625 0.515625 -1.390625l1.65625 0.390625q-0.21875 1.171875 -0.875 2.09375q-0.65625 0.90625 -1.71875 1.4375q-1.046875 0.515625 -2.4375 0.515625zm9.255981 -0.296875l0 -14.9375l1.65625 0l0 8.75l0.375 0l4.03125 -4.390625l2.046875 0l0 0.125l-4.390625 4.84375l0 0.390625l4.890625 5.09375l0 0.125l-2.046875 0l-4.5 -4.65625l-0.40625 0l0 4.65625l-1.65625 0zm16.834106 0.296875q-1.640625 0 -2.6875 -0.5625q-1.046875 -0.5625 -1.5625 -1.453125q-0.515625 -0.890625 -0.578125 -1.828125l1.578125 -0.375q0.109375 1.21875 0.953125 1.953125q0.84375 0.734375 2.203125 0.734375q1.171875 0 1.890625 -0.453125q0.71875 -0.46875 0.71875 -1.296875q0 -0.890625 -0.703125 -1.28125q-0.703125 -0.390625 -2.28125 -0.484375q-1.8125 -0.140625 -2.8125 -0.875q-0.984375 -0.734375 -0.984375 -2.09375l0 -0.125q0 -1.0 0.546875 -1.671875q0.5625 -0.671875 1.4375 -1.015625q0.875 -0.34375 1.84375 -0.34375q1.40625 0 2.328125 0.484375q0.9375 0.46875 1.421875 1.234375q0.5 0.75 0.609375 1.5625l-1.578125 0.390625q-0.09375 -1.03125 -0.828125 -1.609375q-0.71875 -0.578125 -1.859375 -0.578125q-0.90625 0 -1.609375 0.390625q-0.703125 0.390625 -0.703125 1.15625q0 0.765625 0.65625 1.171875q0.65625 0.40625 2.375 0.53125q1.84375 0.140625 2.8125 0.890625q0.984375 0.734375 0.984375 2.140625l0 0.125q0 1.53125 -1.171875 2.40625q-1.15625 0.875 -3.0 0.875z" fill-rule="nonzero"/><path fill="#013a3b" d="m61.787403 104.30634l0 0c0 -12.7851715 10.364429 -23.149605 23.149601 -23.149605l99.55906 0l0 0c6.1396637 0 12.027847 2.4389648 16.369247 6.7803574c4.341385 4.3414 6.780365 10.229591 6.780365 16.369247l0 0l0 0c0 12.7851715 -10.364441 23.149605 -23.149612 23.149605l-99.55906 0c-12.7851715 0 -23.149601 -10.364433 -23.149601 -23.149605z" fill-rule="evenodd"/><path fill="#d0fdf2" d="m129.71234 98.917595l0 1.1875l-3.5 0l0 9.28125l-1.390625 0l0 -9.28125l-3.484375 0l0 -1.1875l8.375 0zm2.6925812 2.71875q1.625 0 2.515625 1.171875q0.90625 1.171875 0.90625 3.015625l0 0.15625l-5.671875 0l0 0.078125q0 1.09375 0.625 1.75q0.640625 0.65625 1.734375 0.65625q0.828125 0 1.3125 -0.390625q0.5 -0.390625 0.65625 -1.09375l1.234375 0q-0.25 1.265625 -1.109375 1.921875q-0.84375 0.65625 -2.125 0.65625q-1.203125 0 -2.03125 -0.53125q-0.828125 -0.546875 -1.21875 -1.5q-0.390625 -0.96875 -0.390625 -1.96875q0 -1.6875 1.0 -2.796875q1.015625 -1.125 2.5625 -1.125zm-2.25 3.234375l4.359375 0q-0.0625 -0.921875 -0.671875 -1.53125q-0.609375 -0.609375 -1.53125 -0.609375q-0.859375 0 -1.46875 0.578125q-0.609375 0.578125 -0.6875 1.5625zm7.7007904 -3.0625l1.8125 2.640625l0 0l1.890625 -2.640625l1.5 0l-2.609375 3.484375l2.921875 4.09375l-1.59375 0l-2.109375 -3.140625l-2.109375 3.140625l-1.515625 0l2.859375 -3.984375l-2.640625 -3.59375l1.59375 0zm8.327286 -2.265625l0 2.265625l1.5 0l0 1.109375l-1.5 0l0 4.734375q0 0.5625 0.375 0.59375q0.375 0.03125 0.78125 0.03125l0.34375 0l0 1.109375l-1.015625 0q-1.03125 0 -1.390625 -0.359375q-0.34375 -0.375 -0.34375 -1.234375l0 -4.875l-1.296875 0l0 -1.109375l1.296875 0l0 -2.265625l1.25 0z" fill-rule="nonzero"/><path fill="#02f4d5" d="m61.787403 214.52806l0 0c0 -12.7851715 10.364429 -23.149597 23.149601 -23.149597l99.55906 0l0 0c6.1396637 0 12.027847 2.4389648 16.369247 6.780365c4.341385 4.341385 6.780365 10.229584 6.780365 16.369232l0 0l0 0c0 12.7851715 -10.364441 23.149612 -23.149612 23.149612l-99.55906 0c-12.7851715 0 -23.149601 -10.364441 -23.149601 -23.149612z" fill-rule="evenodd"/><path fill="#013a3b" d="m129.71234 209.13931l0 1.1875l-3.5 0l0 9.28125l-1.390625 0l0 -9.28125l-3.484375 0l0 -1.1875l8.375 0zm2.6925812 2.71875q1.625 0 2.515625 1.171875q0.90625 1.171875 0.90625 3.015625l0 0.15625l-5.671875 0l0 0.078125q0 1.09375 0.625 1.75q0.640625 0.65625 1.734375 0.65625q0.828125 0 1.3125 -0.390625q0.5 -0.390625 0.65625 -1.09375l1.234375 0q-0.25 1.265625 -1.109375 1.921875q-0.84375 0.65625 -2.125 0.65625q-1.203125 0 -2.03125 -0.53125q-0.828125 -0.546875 -1.21875 -1.5q-0.390625 -0.96875 -0.390625 -1.96875q0 -1.6875 1.0 -2.796875q1.015625 -1.125 2.5625 -1.125zm-2.25 3.234375l4.359375 0q-0.0625 -0.921875 -0.671875 -1.53125q-0.609375 -0.609375 -1.53125 -0.609375q-0.859375 0 -1.46875 0.578125q-0.609375 0.578125 -0.6875 1.5625zm7.7007904 -3.0625l1.8125 2.640625l0 0l1.890625 -2.640625l1.5 0l-2.609375 3.484375l2.921875 4.09375l-1.59375 0l-2.109375 -3.140625l-2.109375 3.140625l-1.515625 0l2.859375 -3.984375l-2.640625 -3.59375l1.59375 0zm8.327286 -2.265625l0 2.265625l1.5 0l0 1.109375l-1.5 0l0 4.734375q0 0.5625 0.375 0.59375q0.375 0.03125 0.78125 0.03125l0.34375 0l0 1.109375l-1.015625 0q-1.03125 0 -1.390625 -0.359375q-0.34375 -0.375 -0.34375 -1.234375l0 -4.875l-1.296875 0l0 -1.109375l1.296875 0l0 -2.265625l1.25 0z" fill-rule="nonzero"/><path fill="#d0fdf2" d="m61.787403 269.63892l0 0c0 -12.785156 10.364429 -23.149597 23.149601 -23.149597l99.55906 0l0 0c6.1396637 0 12.027847 2.4389648 16.369247 6.780365c4.341385 4.3414 6.780365 10.229584 6.780365 16.369232l0 0l0 0c0 12.785187 -10.364441 23.149628 -23.149612 23.149628l-99.55906 0c-12.7851715 0 -23.149601 -10.364441 -23.149601 -23.149628z" fill-rule="evenodd"/><path stroke="#013a3b" stroke-width="1.0" stroke-linejoin="round" stroke-linecap="butt" stroke-dasharray="4.0,3.0" d="m61.787403 269.63892l0 0c0 -12.785156 10.364429 -23.149597 23.149601 -23.149597l99.55906 0l0 0c6.1396637 0 12.027847 2.4389648 16.369247 6.780365c4.341385 4.3414 6.780365 10.229584 6.780365 16.369232l0 0l0 0c0 12.785187 -10.364441 23.149628 -23.149612 23.149628l-99.55906 0c-12.7851715 0 -23.149601 -10.364441 -23.149601 -23.149628z" fill-rule="evenodd"/><path fill="#013a3b" d="m129.71234 264.25018l0 1.1875l-3.5 0l0 9.28125l-1.390625 0l0 -9.28125l-3.484375 0l0 -1.1875l8.375 0zm2.6925812 2.71875q1.625 0 2.515625 1.171875q0.90625 1.171875 0.90625 3.015625l0 0.15625l-5.671875 0l0 0.078125q0 1.09375 0.625 1.75q0.640625 0.65625 1.734375 0.65625q0.828125 0 1.3125 -0.390625q0.5 -0.390625 0.65625 -1.09375l1.234375 0q-0.25 1.265625 -1.109375 1.921875q-0.84375 0.65625 -2.125 0.65625q-1.203125 0 -2.03125 -0.53125q-0.828125 -0.546875 -1.21875 -1.5q-0.390625 -0.96875 -0.390625 -1.96875q0 -1.6875 1.0 -2.796875q1.015625 -1.125 2.5625 -1.125zm-2.25 3.234375l4.359375 0q-0.0625 -0.921875 -0.671875 -1.53125q-0.609375 -0.609375 -1.53125 -0.609375q-0.859375 0 -1.46875 0.578125q-0.609375 0.578125 -0.6875 1.5625zm7.7007904 -3.0625l1.8125 2.640625l0 0l1.890625 -2.640625l1.5 0l-2.609375 3.484375l2.921875 4.09375l-1.59375 0l-2.109375 -3.140625l-2.109375 3.140625l-1.515625 0l2.859375 -3.984375l-2.640625 -3.59375l1.59375 0zm8.327286 -2.265625l0 2.265625l1.5 0l0 1.109375l-1.5 0l0 4.734375q0 0.5625 0.375 0.59375q0.375 0.03125 0.78125 0.03125l0.34375 0l0 1.109375l-1.015625 0q-1.03125 0 -1.390625 -0.359375q-0.34375 -0.375 -0.34375 -1.234375l0 -4.875l-1.296875 0l0 -1.109375l1.296875 0l0 -2.265625l1.25 0z" fill-rule="nonzero"/><path fill="#d0fdf2" d="m248.17323 100.70307l0 0c0 -10.795143 8.751175 -19.546333 19.54634 -19.546333l168.78134 0c5.1839905 0 10.155701 2.0593414 13.82135 5.724983c3.6656494 3.6656494 5.7249756 8.637337 5.7249756 13.82135l0 156.21442c0 10.795166 -8.75119 19.546356 -19.546326 19.546356l-168.78134 0c-10.795166 0 -19.54634 -8.75119 -19.54634 -19.546356z" fill-rule="evenodd"/><path fill="#013a3b" d="m346.279 114.16604l0 1.765625l-2.859375 0l0 7.75l-2.078125 0l0 -7.75l-2.859375 0l0 -1.765625l7.796875 0zm3.0853577 0l0 1.5625l-1.890625 0l0 -1.5625l1.890625 0zm0 2.625l0 6.890625l-1.890625 0l0 -6.890625l1.890625 0zm3.8892822 -2.0625l0 2.0625l1.375 0l0 1.265625l-1.375 0l0 3.453125q0 0.421875 0.15625 0.59375q0.15625 0.171875 0.640625 0.171875q0.15625 0 0.296875 -0.015625q0.15625 -0.015625 0.28125 -0.046875l0 1.484375q-0.234375 0.03125 -0.53125 0.046875q-0.28125 0.015625 -0.5625 0.015625q-1.21875 0 -1.703125 -0.421875q-0.484375 -0.421875 -0.484375 -1.171875l0 -4.109375l-1.140625 0l0 -1.265625l1.140625 0l0 -2.0625l1.90625 0zm4.2390747 -0.5625l0 9.515625l-1.890625 0l0 -9.515625l1.890625 0zm4.670532 2.4375q1.53125 0 2.4375 1.0625q0.921875 1.046875 0.921875 2.671875l-0.015625 0.359375l-4.96875 0q0.03125 0.890625 0.453125 1.328125q0.4375 0.421875 1.234375 0.421875q0.515625 0 0.9375 -0.265625q0.4375 -0.265625 0.5625 -0.640625l1.65625 0q-0.375 1.171875 -1.1875 1.75q-0.796875 0.578125 -2.03125 0.578125q-1.59375 0 -2.5625 -1.0q-0.953125 -1.015625 -0.953125 -2.625q0 -1.546875 0.984375 -2.59375q0.984375 -1.046875 2.53125 -1.046875zm-1.625 2.890625l3.078125 0q-0.140625 -0.765625 -0.5 -1.109375q-0.34375 -0.359375 -1.015625 -0.359375q-0.6875 0 -1.09375 0.390625q-0.40625 0.390625 -0.46875 1.078125z" fill-rule="nonzero"/><path fill="#000000" fill-opacity="0.0" d="m259.71652 132.98088l184.78741 0l0 48.91339l-184.78741 0z" fill-rule="evenodd"/><path fill="#013a3b" d="m295.7704 144.73526q1.4375 0 2.265625 0.6875q0.84375 0.6875 0.890625 2.015625l-1.078125 0q-0.09375 -0.875 -0.625 -1.3125q-0.53125 -0.4375 -1.5 -0.4375q-0.90625 0 -1.421875 0.375q-0.5 0.375 -0.5 1.078125q0 0.515625 0.421875 0.84375q0.4375 0.3125 2.328125 0.6875q1.375 0.28125 2.046875 0.875q0.6875 0.578125 0.6875 1.609375q0 1.1875 -0.984375 1.875q-0.96875 0.671875 -2.359375 0.671875q-1.5625 0 -2.546875 -0.78125q-0.984375 -0.78125 -0.984375 -2.234375l1.078125 0q0 0.96875 0.6875 1.515625q0.6875 0.546875 1.796875 0.546875q1.046875 0 1.609375 -0.40625q0.5625 -0.40625 0.5625 -1.15625q0 -0.609375 -0.515625 -0.96875q-0.515625 -0.375 -1.890625 -0.640625q-1.828125 -0.34375 -2.453125 -0.890625q-0.625 -0.5625 -0.625 -1.453125q0 -1.15625 0.875 -1.828125q0.890625 -0.671875 2.234375 -0.671875zm5.7441406 2.5625l0 4.234375q0 0.515625 0.34375 0.875q0.34375 0.34375 0.921875 0.34375q0.890625 0 1.359375 -0.53125q0.484375 -0.546875 0.484375 -1.375l0 -3.546875l1.015625 0l0 6.203125l-0.953125 0l0 -0.984375l-0.03125 0q-0.34375 0.59375 -0.859375 0.859375q-0.5 0.265625 -1.15625 0.265625q-1.09375 0 -1.625 -0.546875q-0.515625 -0.5625 -0.515625 -1.65625l0 -4.140625l1.015625 0zm8.720703 -0.140625q1.328125 0 2.09375 0.921875q0.765625 0.90625 0.765625 2.34375q0 1.4375 -0.765625 2.328125q-0.765625 0.890625 -2.0625 0.890625q-0.578125 0 -1.140625 -0.234375q-0.546875 -0.234375 -0.875 -0.734375l-0.015625 0l0 3.203125l-1.03125 0l0 -8.578125l1.03125 0l0 0.84375l0.015625 0q0.25 -0.484375 0.765625 -0.734375q0.515625 -0.25 1.21875 -0.25zm-2.046875 3.234375q0 1.078125 0.515625 1.71875q0.53125 0.640625 1.453125 0.640625q0.875 0 1.359375 -0.625q0.5 -0.640625 0.5 -1.78125q0 -1.0 -0.515625 -1.640625q-0.515625 -0.65625 -1.421875 -0.65625q-0.890625 0 -1.390625 0.65625q-0.5 0.65625 -0.5 1.6875zm9.160156 -3.234375q1.328125 0 2.09375 0.921875q0.765625 0.90625 0.765625 2.34375q0 1.4375 -0.765625 2.328125q-0.765625 0.890625 -2.0625 0.890625q-0.578125 0 -1.140625 -0.234375q-0.546875 -0.234375 -0.875 -0.734375l-0.015625 0l0 3.203125l-1.03125 0l0 -8.578125l1.03125 0l0 0.84375l0.015625 0q0.25 -0.484375 0.765625 -0.734375q0.515625 -0.25 1.21875 -0.25zm-2.046875 3.234375q0 1.078125 0.515625 1.71875q0.53125 0.640625 1.453125 0.640625q0.875 0 1.359375 -0.625q0.5 -0.640625 0.5 -1.78125q0 -1.0 -0.515625 -1.640625q-0.515625 -0.65625 -1.421875 -0.65625q-0.890625 0 -1.390625 0.65625q-0.5 0.65625 -0.5 1.6875zm8.785156 -3.234375q1.40625 0 2.203125 0.90625q0.796875 0.90625 0.796875 2.34375q0 1.453125 -0.828125 2.34375q-0.8125 0.890625 -2.171875 0.890625q-1.359375 0 -2.1875 -0.875q-0.828125 -0.890625 -0.828125 -2.359375q0 -1.484375 0.8125 -2.359375q0.8125 -0.890625 2.203125 -0.890625zm-1.9375 3.25q0 1.0625 0.546875 1.703125q0.546875 0.640625 1.390625 0.640625q0.828125 0 1.375 -0.640625q0.546875 -0.640625 0.546875 -1.703125q0 -1.0625 -0.546875 -1.703125q-0.53125 -0.65625 -1.390625 -0.65625q-0.828125 0 -1.375 0.640625q-0.546875 0.640625 -0.546875 1.71875zm9.234375 -3.265625q0.03125 0 0.0625 0q0.03125 0 0.078125 0.015625l0 1.078125q-1.15625 0 -1.703125 0.609375q-0.546875 0.609375 -0.546875 1.875l0 2.78125l-1.015625 0l0 -6.203125l0.953125 0l0 1.296875l0.03125 0q0.359375 -0.734375 0.875 -1.09375q0.53125 -0.359375 1.265625 -0.359375zm2.3828125 -1.703125l0 1.859375l1.234375 0l0 0.90625l-1.234375 0l0 3.875q0 0.46875 0.296875 0.5q0.3125 0.015625 0.65625 0.015625l0.28125 0l0 0.90625l-0.84375 0q-0.84375 0 -1.125 -0.296875q-0.28125 -0.296875 -0.28125 -1.0l0 -4.0l-1.0625 0l0 -0.90625l1.0625 0l0 -1.859375l1.015625 0zm3.4355469 -0.5l0 1.25l-1.015625 0l0 -1.25l1.015625 0zm0 2.359375l0 6.203125l-1.015625 0l0 -6.203125l1.015625 0zm4.6035156 -0.140625q1.109375 0 1.609375 0.578125q0.515625 0.5625 0.515625 1.640625l0 4.125l-1.015625 0l0 -4.234375q0 -0.53125 -0.34375 -0.875q-0.328125 -0.34375 -0.9375 -0.34375q-0.859375 0 -1.34375 0.53125q-0.484375 0.53125 -0.484375 1.375l0 3.546875l-1.015625 0l0 -6.203125l0.96875 0l0 0.984375l0.015625 0q0.34375 -0.578125 0.828125 -0.84375q0.5 -0.28125 1.203125 -0.28125zm6.189453 0q0.640625 0 1.109375 0.28125q0.484375 0.28125 0.75 0.75l0 0l0 -0.890625l0.96875 0l0 5.734375q0 1.46875 -0.703125 2.21875q-0.703125 0.765625 -2.171875 0.765625q-1.0625 0 -1.796875 -0.46875q-0.734375 -0.46875 -0.78125 -1.34375l1.015625 0q0.03125 0.46875 0.515625 0.734375q0.484375 0.265625 1.09375 0.265625q0.90625 0 1.375 -0.59375q0.484375 -0.59375 0.484375 -1.78125l0 -0.390625l-0.015625 0q-0.234375 0.515625 -0.765625 0.828125q-0.515625 0.3125 -1.171875 0.3125q-1.265625 0 -2.015625 -0.875q-0.75 -0.875 -0.75 -2.28125q0 -1.421875 0.75 -2.34375q0.75 -0.921875 2.109375 -0.921875zm-1.78125 3.15625q0 1.09375 0.453125 1.734375q0.46875 0.625 1.296875 0.625q0.84375 0 1.34375 -0.65625q0.5 -0.65625 0.5 -1.75q0 -0.984375 -0.46875 -1.59375q-0.453125 -0.625 -1.3125 -0.625q-0.84375 0 -1.328125 0.625q-0.484375 0.609375 -0.484375 1.640625zm13.287109 -5.578125q1.421875 0 2.375 0.734375q0.953125 0.734375 1.140625 2.046875l-1.125 0q-0.1875 -0.890625 -0.828125 -1.359375q-0.640625 -0.46875 -1.578125 -0.46875q-1.359375 0 -2.140625 0.96875q-0.765625 0.953125 -0.765625 2.5q0 1.640625 0.75 2.625q0.765625 0.96875 2.171875 0.96875q1.046875 0 1.71875 -0.671875q0.671875 -0.671875 0.75 -1.8125l1.140625 0q-0.1875 1.671875 -1.15625 2.5625q-0.96875 0.875 -2.546875 0.875q-1.84375 0 -2.90625 -1.21875q-1.0625 -1.21875 -1.0625 -3.25q0 -2.0 1.09375 -3.25q1.09375 -1.25 2.96875 -1.25zm7.5410156 2.421875q1.40625 0 2.203125 0.90625q0.796875 0.90625 0.796875 2.34375q0 1.453125 -0.828125 2.34375q-0.8125 0.890625 -2.171875 0.890625q-1.359375 0 -2.1875 -0.875q-0.828125 -0.890625 -0.828125 -2.359375q0 -1.484375 0.8125 -2.359375q0.8125 -0.890625 2.203125 -0.890625zm-1.9375 3.25q0 1.0625 0.546875 1.703125q0.546875 0.640625 1.390625 0.640625q0.828125 0 1.375 -0.640625q0.546875 -0.640625 0.546875 -1.703125q0 -1.0625 -0.546875 -1.703125q-0.53125 -0.65625 -1.390625 -0.65625q-0.828125 0 -1.375 0.640625q-0.546875 0.640625 -0.546875 1.71875zm9.203125 -3.25q1.328125 0 2.09375 0.921875q0.765625 0.90625 0.765625 2.34375q0 1.4375 -0.765625 2.328125q-0.765625 0.890625 -2.0625 0.890625q-0.578125 0 -1.140625 -0.234375q-0.546875 -0.234375 -0.875 -0.734375l-0.015625 0l0 3.203125l-1.03125 0l0 -8.578125l1.03125 0l0 0.84375l0.015625 0q0.25 -0.484375 0.765625 -0.734375q0.515625 -0.25 1.21875 -0.25zm-2.046875 3.234375q0 1.078125 0.515625 1.71875q0.53125 0.640625 1.453125 0.640625q0.875 0 1.359375 -0.625q0.5 -0.640625 0.5 -1.78125q0 -1.0 -0.515625 -1.640625q-0.515625 -0.65625 -1.421875 -0.65625q-0.890625 0 -1.390625 0.65625q-0.5 0.65625 -0.5 1.6875zm6.5820312 -3.09375l1.8125 5.078125l0.015625 0l1.75 -5.078125l1.078125 0l-2.640625 6.859375q-0.40625 1.078125 -0.796875 1.453125q-0.375 0.375 -1.0625 0.375q-0.1875 0 -0.359375 -0.03125q-0.171875 -0.015625 -0.34375 -0.078125l0 -0.9375q0.140625 0.046875 0.28125 0.09375q0.15625 0.046875 0.3125 0.046875q0.625 0 0.859375 -0.625q0.25 -0.609375 0.40625 -0.984375l-2.46875 -6.171875l1.15625 0zm10.162109 -2.359375l0 3.671875l4.515625 0l0 -3.671875l1.140625 0l0 8.5625l-1.140625 0l0 -3.921875l-4.515625 0l0 3.921875l-1.140625 0l0 -8.5625l1.140625 0zm9.931641 2.21875q1.34375 0 2.078125 0.96875q0.734375 0.953125 0.734375 2.453125l0 0.125l-4.640625 0l0 0.078125q0 0.890625 0.515625 1.4375q0.515625 0.53125 1.421875 0.53125q0.671875 0 1.0625 -0.3125q0.40625 -0.328125 0.53125 -0.90625l1.015625 0q-0.203125 1.03125 -0.90625 1.578125q-0.703125 0.53125 -1.75 0.53125q-0.96875 0 -1.65625 -0.4375q-0.671875 -0.4375 -1.0 -1.21875q-0.3125 -0.796875 -0.3125 -1.625q0 -1.375 0.828125 -2.28125q0.828125 -0.921875 2.078125 -0.921875zm-1.828125 2.640625l3.5625 0q-0.046875 -0.75 -0.546875 -1.25q-0.5 -0.5 -1.25 -0.5q-0.703125 0 -1.203125 0.484375q-0.5 0.46875 -0.5625 1.265625zm8.7890625 -2.65625q0.03125 0 0.0625 0q0.03125 0 0.078125 0.015625l0 1.078125q-1.15625 0 -1.703125 0.609375q-0.546875 0.609375 -0.546875 1.875l0 2.78125l-1.015625 0l0 -6.203125l0.953125 0l0 1.296875l0.03125 0q0.359375 -0.734375 0.875 -1.09375q0.53125 -0.359375 1.265625 -0.359375zm3.2636719 0.015625q1.34375 0 2.078125 0.96875q0.734375 0.953125 0.734375 2.453125l0 0.125l-4.640625 0l0 0.078125q0 0.890625 0.515625 1.4375q0.515625 0.53125 1.421875 0.53125q0.671875 0 1.0625 -0.3125q0.40625 -0.328125 0.53125 -0.90625l1.015625 0q-0.203125 1.03125 -0.90625 1.578125q-0.703125 0.53125 -1.75 0.53125q-0.96875 0 -1.65625 -0.4375q-0.671875 -0.4375 -1.0 -1.21875q-0.3125 -0.796875 -0.3125 -1.625q0 -1.375 0.828125 -2.28125q0.828125 -0.921875 2.078125 -0.921875zm-1.828125 2.640625l3.5625 0q-0.046875 -0.75 -0.546875 -1.25q-0.5 -0.5 -1.25 -0.5q-0.703125 0 -1.203125 0.484375q-0.5 0.46875 -0.5625 1.265625z" fill-rule="nonzero"/><path fill="#013a3b" d="m469.2572 100.70307l0 0c0 -10.795143 8.75119 -19.546333 19.546326 -19.546333l168.78137 0c5.18396 0 10.155701 2.0593414 13.82135 5.724983c3.6655884 3.6656494 5.7249756 8.637337 5.7249756 13.82135l0 156.21442c0 10.795166 -8.751221 19.546356 -19.546326 19.546356l-168.78137 0c-10.7951355 0 -19.546326 -8.75119 -19.546326 -19.546356z" fill-rule="evenodd"/><path stroke="#02f4d5" stroke-width="1.0" stroke-linejoin="round" stroke-linecap="butt" d="m469.2572 100.70307l0 0c0 -10.795143 8.75119 -19.546333 19.546326 -19.546333l168.78137 0c5.18396 0 10.155701 2.0593414 13.82135 5.724983c3.6655884 3.6656494 5.7249756 8.637337 5.7249756 13.82135l0 156.21442c0 10.795166 -8.751221 19.546356 -19.546326 19.546356l-168.78137 0c-10.7951355 0 -19.546326 -8.75119 -19.546326 -19.546356z" fill-rule="evenodd"/><path fill="#d0fdf2" d="m567.363 114.16604l0 1.765625l-2.859375 0l0 7.75l-2.078125 0l0 -7.75l-2.859375 0l0 -1.765625l7.796875 0zm3.0853271 0l0 1.5625l-1.890625 0l0 -1.5625l1.890625 0zm0 2.625l0 6.890625l-1.890625 0l0 -6.890625l1.890625 0zm3.8892822 -2.0625l0 2.0625l1.375 0l0 1.265625l-1.375 0l0 3.453125q0 0.421875 0.15625 0.59375q0.15625 0.171875 0.640625 0.171875q0.15625 0 0.296875 -0.015625q0.15625 -0.015625 0.28125 -0.046875l0 1.484375q-0.234375 0.03125 -0.53125 0.046875q-0.28125 0.015625 -0.5625 0.015625q-1.21875 0 -1.703125 -0.421875q-0.484375 -0.421875 -0.484375 -1.171875l0 -4.109375l-1.140625 0l0 -1.265625l1.140625 0l0 -2.0625l1.90625 0zm4.2390747 -0.5625l0 9.515625l-1.890625 0l0 -9.515625l1.890625 0zm4.670532 2.4375q1.53125 0 2.4375 1.0625q0.921875 1.046875 0.921875 2.671875l-0.015625 0.359375l-4.96875 0q0.03125 0.890625 0.453125 1.328125q0.4375 0.421875 1.234375 0.421875q0.515625 0 0.9375 -0.265625q0.4375 -0.265625 0.5625 -0.640625l1.65625 0q-0.375 1.171875 -1.1875 1.75q-0.796875 0.578125 -2.03125 0.578125q-1.59375 0 -2.5625 -1.0q-0.953125 -1.015625 -0.953125 -2.625q0 -1.546875 0.984375 -2.59375q0.984375 -1.046875 2.53125 -1.046875zm-1.625 2.890625l3.078125 0q-0.140625 -0.765625 -0.5 -1.109375q-0.34375 -0.359375 -1.015625 -0.359375q-0.6875 0 -1.09375 0.390625q-0.40625 0.390625 -0.46875 1.078125z" fill-rule="nonzero"/><path fill="#000000" fill-opacity="0.0" d="m480.80084 132.98112l184.78741 0l0 58.992126l-184.78741 0z" fill-rule="evenodd"/><path fill="#d0fdf2" d="m516.8547 144.73549q1.4375 0 2.265625 0.6875q0.84375 0.6875 0.890625 2.015625l-1.078125 0q-0.09375 -0.875 -0.625 -1.3125q-0.53125 -0.4375 -1.5 -0.4375q-0.90625 0 -1.421875 0.375q-0.5 0.375 -0.5 1.078125q0 0.515625 0.421875 0.84375q0.4375 0.3125 2.328125 0.6875q1.375 0.28125 2.046875 0.875q0.6875 0.578125 0.6875 1.609375q0 1.1875 -0.984375 1.875q-0.96875 0.671875 -2.359375 0.671875q-1.5625 0 -2.546875 -0.78125q-0.984375 -0.78125 -0.984375 -2.234375l1.078125 0q0 0.96875 0.6875 1.515625q0.6875 0.546875 1.796875 0.546875q1.046875 0 1.609375 -0.40625q0.5625 -0.40625 0.5625 -1.15625q0 -0.609375 -0.515625 -0.96875q-0.515625 -0.375 -1.890625 -0.640625q-1.828125 -0.34375 -2.453125 -0.890625q-0.625 -0.5625 -0.625 -1.453125q0 -1.15625 0.875 -1.828125q0.890625 -0.671875 2.234375 -0.671875zm5.7441406 2.5625l0 4.234375q0 0.515625 0.34375 0.875q0.34375 0.34375 0.921875 0.34375q0.890625 0 1.359375 -0.53125q0.484375 -0.546875 0.484375 -1.375l0 -3.546875l1.015625 0l0 6.203125l-0.953125 0l0 -0.984375l-0.03125 0q-0.34375 0.59375 -0.859375 0.859375q-0.5 0.265625 -1.15625 0.265625q-1.09375 0 -1.625 -0.546875q-0.515625 -0.5625 -0.515625 -1.65625l0 -4.140625l1.015625 0zm8.720703 -0.140625q1.328125 0 2.09375 0.921875q0.765625 0.90625 0.765625 2.34375q0 1.4375 -0.765625 2.328125q-0.765625 0.890625 -2.0625 0.890625q-0.578125 0 -1.140625 -0.234375q-0.546875 -0.234375 -0.875 -0.734375l-0.015625 0l0 3.203125l-1.03125 0l0 -8.578125l1.03125 0l0 0.84375l0.015625 0q0.25 -0.484375 0.765625 -0.734375q0.515625 -0.25 1.21875 -0.25zm-2.046875 3.234375q0 1.078125 0.515625 1.71875q0.53125 0.640625 1.453125 0.640625q0.875 0 1.359375 -0.625q0.5 -0.640625 0.5 -1.78125q0 -1.0 -0.515625 -1.640625q-0.515625 -0.65625 -1.421875 -0.65625q-0.890625 0 -1.390625 0.65625q-0.5 0.65625 -0.5 1.6875zm9.160156 -3.234375q1.328125 0 2.09375 0.921875q0.765625 0.90625 0.765625 2.34375q0 1.4375 -0.765625 2.328125q-0.765625 0.890625 -2.0625 0.890625q-0.578125 0 -1.140625 -0.234375q-0.546875 -0.234375 -0.875 -0.734375l-0.015625 0l0 3.203125l-1.03125 0l0 -8.578125l1.03125 0l0 0.84375l0.015625 0q0.25 -0.484375 0.765625 -0.734375q0.515625 -0.25 1.21875 -0.25zm-2.046875 3.234375q0 1.078125 0.515625 1.71875q0.53125 0.640625 1.453125 0.640625q0.875 0 1.359375 -0.625q0.5 -0.640625 0.5 -1.78125q0 -1.0 -0.515625 -1.640625q-0.515625 -0.65625 -1.421875 -0.65625q-0.890625 0 -1.390625 0.65625q-0.5 0.65625 -0.5 1.6875zm8.785156 -3.234375q1.40625 0 2.203125 0.90625q0.796875 0.90625 0.796875 2.34375q0 1.453125 -0.828125 2.34375q-0.8125 0.890625 -2.171875 0.890625q-1.359375 0 -2.1875 -0.875q-0.828125 -0.890625 -0.828125 -2.359375q0 -1.484375 0.8125 -2.359375q0.8125 -0.890625 2.203125 -0.890625zm-1.9375 3.25q0 1.0625 0.546875 1.703125q0.546875 0.640625 1.390625 0.640625q0.828125 0 1.375 -0.640625q0.546875 -0.640625 0.546875 -1.703125q0 -1.0625 -0.546875 -1.703125q-0.53125 -0.65625 -1.390625 -0.65625q-0.828125 0 -1.375 0.640625q-0.546875 0.640625 -0.546875 1.71875zm9.234375 -3.265625q0.03125 0 0.0625 0q0.03125 0 0.078125 0.015625l0 1.078125q-1.15625 0 -1.703125 0.609375q-0.546875 0.609375 -0.546875 1.875l0 2.78125l-1.015625 0l0 -6.203125l0.953125 0l0 1.296875l0.03125 0q0.359375 -0.734375 0.875 -1.09375q0.53125 -0.359375 1.265625 -0.359375zm2.3828125 -1.703125l0 1.859375l1.234375 0l0 0.90625l-1.234375 0l0 3.875q0 0.46875 0.296875 0.5q0.3125 0.015625 0.65625 0.015625l0.28125 0l0 0.90625l-0.84375 0q-0.84375 0 -1.125 -0.296875q-0.28125 -0.296875 -0.28125 -1.0l0 -4.0l-1.0625 0l0 -0.90625l1.0625 0l0 -1.859375l1.015625 0zm3.4355469 -0.5l0 1.25l-1.015625 0l0 -1.25l1.015625 0zm0 2.359375l0 6.203125l-1.015625 0l0 -6.203125l1.015625 0zm4.6035156 -0.140625q1.109375 0 1.609375 0.578125q0.515625 0.5625 0.515625 1.640625l0 4.125l-1.015625 0l0 -4.234375q0 -0.53125 -0.34375 -0.875q-0.328125 -0.34375 -0.9375 -0.34375q-0.859375 0 -1.34375 0.53125q-0.484375 0.53125 -0.484375 1.375l0 3.546875l-1.015625 0l0 -6.203125l0.96875 0l0 0.984375l0.015625 0q0.34375 -0.578125 0.828125 -0.84375q0.5 -0.28125 1.203125 -0.28125zm6.189453 0q0.640625 0 1.109375 0.28125q0.484375 0.28125 0.75 0.75l0 0l0 -0.890625l0.96875 0l0 5.734375q0 1.46875 -0.703125 2.21875q-0.703125 0.765625 -2.171875 0.765625q-1.0625 0 -1.796875 -0.46875q-0.734375 -0.46875 -0.78125 -1.34375l1.015625 0q0.03125 0.46875 0.515625 0.734375q0.484375 0.265625 1.09375 0.265625q0.90625 0 1.375 -0.59375q0.484375 -0.59375 0.484375 -1.78125l0 -0.390625l-0.015625 0q-0.234375 0.515625 -0.765625 0.828125q-0.515625 0.3125 -1.171875 0.3125q-1.265625 0 -2.015625 -0.875q-0.75 -0.875 -0.75 -2.28125q0 -1.421875 0.75 -2.34375q0.75 -0.921875 2.109375 -0.921875zm-1.78125 3.15625q0 1.09375 0.453125 1.734375q0.46875 0.625 1.296875 0.625q0.84375 0 1.34375 -0.65625q0.5 -0.65625 0.5 -1.75q0 -0.984375 -0.46875 -1.59375q-0.453125 -0.625 -1.3125 -0.625q-0.84375 0 -1.328125 0.625q-0.484375 0.609375 -0.484375 1.640625zm13.287109 -5.578125q1.421875 0 2.375 0.734375q0.953125 0.734375 1.140625 2.046875l-1.125 0q-0.1875 -0.890625 -0.828125 -1.359375q-0.640625 -0.46875 -1.578125 -0.46875q-1.359375 0 -2.140625 0.96875q-0.765625 0.953125 -0.765625 2.5q0 1.640625 0.75 2.625q0.765625 0.96875 2.171875 0.96875q1.046875 0 1.71875 -0.671875q0.671875 -0.671875 0.75 -1.8125l1.140625 0q-0.1875 1.671875 -1.15625 2.5625q-0.96875 0.875 -2.546875 0.875q-1.84375 0 -2.90625 -1.21875q-1.0625 -1.21875 -1.0625 -3.25q0 -2.0 1.09375 -3.25q1.09375 -1.25 2.96875 -1.25zm7.5410156 2.421875q1.40625 0 2.203125 0.90625q0.796875 0.90625 0.796875 2.34375q0 1.453125 -0.828125 2.34375q-0.8125 0.890625 -2.171875 0.890625q-1.359375 0 -2.1875 -0.875q-0.828125 -0.890625 -0.828125 -2.359375q0 -1.484375 0.8125 -2.359375q0.8125 -0.890625 2.203125 -0.890625zm-1.9375 3.25q0 1.0625 0.546875 1.703125q0.546875 0.640625 1.390625 0.640625q0.828125 0 1.375 -0.640625q0.546875 -0.640625 0.546875 -1.703125q0 -1.0625 -0.546875 -1.703125q-0.53125 -0.65625 -1.390625 -0.65625q-0.828125 0 -1.375 0.640625q-0.546875 0.640625 -0.546875 1.71875zm9.203125 -3.25q1.328125 0 2.09375 0.921875q0.765625 0.90625 0.765625 2.34375q0 1.4375 -0.765625 2.328125q-0.765625 0.890625 -2.0625 0.890625q-0.578125 0 -1.140625 -0.234375q-0.546875 -0.234375 -0.875 -0.734375l-0.015625 0l0 3.203125l-1.03125 0l0 -8.578125l1.03125 0l0 0.84375l0.015625 0q0.25 -0.484375 0.765625 -0.734375q0.515625 -0.25 1.21875 -0.25zm-2.046875 3.234375q0 1.078125 0.515625 1.71875q0.53125 0.640625 1.453125 0.640625q0.875 0 1.359375 -0.625q0.5 -0.640625 0.5 -1.78125q0 -1.0 -0.515625 -1.640625q-0.515625 -0.65625 -1.421875 -0.65625q-0.890625 0 -1.390625 0.65625q-0.5 0.65625 -0.5 1.6875zm6.5820312 -3.09375l1.8125 5.078125l0.015625 0l1.75 -5.078125l1.078125 0l-2.640625 6.859375q-0.40625 1.078125 -0.796875 1.453125q-0.375 0.375 -1.0625 0.375q-0.1875 0 -0.359375 -0.03125q-0.171875 -0.015625 -0.34375 -0.078125l0 -0.9375q0.140625 0.046875 0.28125 0.09375q0.15625 0.046875 0.3125 0.046875q0.625 0 0.859375 -0.625q0.25 -0.609375 0.40625 -0.984375l-2.46875 -6.171875l1.15625 0zm10.162109 -2.359375l0 3.671875l4.515625 0l0 -3.671875l1.140625 0l0 8.5625l-1.140625 0l0 -3.921875l-4.515625 0l0 3.921875l-1.140625 0l0 -8.5625l1.140625 0zm9.931641 2.21875q1.34375 0 2.078125 0.96875q0.734375 0.953125 0.734375 2.453125l0 0.125l-4.640625 0l0 0.078125q0 0.890625 0.515625 1.4375q0.515625 0.53125 1.421875 0.53125q0.671875 0 1.0625 -0.3125q0.40625 -0.328125 0.53125 -0.90625l1.015625 0q-0.203125 1.03125 -0.90625 1.578125q-0.703125 0.53125 -1.75 0.53125q-0.96875 0 -1.65625 -0.4375q-0.671875 -0.4375 -1.0 -1.21875q-0.3125 -0.796875 -0.3125 -1.625q0 -1.375 0.828125 -2.28125q0.828125 -0.921875 2.078125 -0.921875zm-1.828125 2.640625l3.5625 0q-0.046875 -0.75 -0.546875 -1.25q-0.5 -0.5 -1.25 -0.5q-0.703125 0 -1.203125 0.484375q-0.5 0.46875 -0.5625 1.265625zm8.7890625 -2.65625q0.03125 0 0.0625 0q0.03125 0 0.078125 0.015625l0 1.078125q-1.15625 0 -1.703125 0.609375q-0.546875 0.609375 -0.546875 1.875l0 2.78125l-1.015625 0l0 -6.203125l0.953125 0l0 1.296875l0.03125 0q0.359375 -0.734375 0.875 -1.09375q0.53125 -0.359375 1.265625 -0.359375zm3.2636719 0.015625q1.34375 0 2.078125 0.96875q0.734375 0.953125 0.734375 2.453125l0 0.125l-4.640625 0l0 0.078125q0 0.890625 0.515625 1.4375q0.515625 0.53125 1.421875 0.53125q0.671875 0 1.0625 -0.3125q0.40625 -0.328125 0.53125 -0.90625l1.015625 0q-0.203125 1.03125 -0.90625 1.578125q-0.703125 0.53125 -1.75 0.53125q-0.96875 0 -1.65625 -0.4375q-0.671875 -0.4375 -1.0 -1.21875q-0.3125 -0.796875 -0.3125 -1.625q0 -1.375 0.828125 -2.28125q0.828125 -0.921875 2.078125 -0.921875zm-1.828125 2.640625l3.5625 0q-0.046875 -0.75 -0.546875 -1.25q-0.5 -0.5 -1.25 -0.5q-0.703125 0 -1.203125 0.484375q-0.5 0.46875 -0.5625 1.265625z" fill-rule="nonzero"/><path fill="#02f4d5" d="m690.33624 100.70307l0 0c0 -10.795143 8.751221 -19.546333 19.546326 -19.546333l168.78137 0c5.184021 0 10.155701 2.0593414 13.82135 5.724983c3.6656494 3.6656494 5.7249756 8.637337 5.7249756 13.82135l0 156.21442c0 10.795166 -8.751221 19.546356 -19.546326 19.546356l-168.78137 0c-10.795105 0 -19.546326 -8.75119 -19.546326 -19.546356z" fill-rule="evenodd"/><path fill="#013a3b" d="m788.442 114.16604l0 1.765625l-2.859375 0l0 7.75l-2.078125 0l0 -7.75l-2.859375 0l0 -1.765625l7.796875 0zm3.0853882 0l0 1.5625l-1.890625 0l0 -1.5625l1.890625 0zm0 2.625l0 6.890625l-1.890625 0l0 -6.890625l1.890625 0zm3.8892822 -2.0625l0 2.0625l1.375 0l0 1.265625l-1.375 0l0 3.453125q0 0.421875 0.15625 0.59375q0.15625 0.171875 0.640625 0.171875q0.15625 0 0.296875 -0.015625q0.15625 -0.015625 0.28125 -0.046875l0 1.484375q-0.234375 0.03125 -0.53125 0.046875q-0.28125 0.015625 -0.5625 0.015625q-1.21875 0 -1.703125 -0.421875q-0.484375 -0.421875 -0.484375 -1.171875l0 -4.109375l-1.140625 0l0 -1.265625l1.140625 0l0 -2.0625l1.90625 0zm4.2390137 -0.5625l0 9.515625l-1.890625 0l0 -9.515625l1.890625 0zm4.670532 2.4375q1.53125 0 2.4375 1.0625q0.921875 1.046875 0.921875 2.671875l-0.015625 0.359375l-4.96875 0q0.03125 0.890625 0.453125 1.328125q0.4375 0.421875 1.234375 0.421875q0.515625 0 0.9375 -0.265625q0.4375 -0.265625 0.5625 -0.640625l1.65625 0q-0.375 1.171875 -1.1875 1.75q-0.796875 0.578125 -2.03125 0.578125q-1.59375 0 -2.5625 -1.0q-0.953125 -1.015625 -0.953125 -2.625q0 -1.546875 0.984375 -2.59375q0.984375 -1.046875 2.53125 -1.046875zm-1.625 2.890625l3.078125 0q-0.140625 -0.765625 -0.5 -1.109375q-0.34375 -0.359375 -1.015625 -0.359375q-0.6875 0 -1.09375 0.390625q-0.40625 0.390625 -0.46875 1.078125z" fill-rule="nonzero"/><path fill="#000000" fill-opacity="0.0" d="m701.8802 132.98112l184.78741 0l0 58.992126l-184.78741 0z" fill-rule="evenodd"/><path fill="#013a3b" d="m737.9341 144.73549q1.4375 0 2.265625 0.6875q0.84375 0.6875 0.890625 2.015625l-1.078125 0q-0.09375 -0.875 -0.625 -1.3125q-0.53125 -0.4375 -1.5 -0.4375q-0.90625 0 -1.421875 0.375q-0.5 0.375 -0.5 1.078125q0 0.515625 0.421875 0.84375q0.4375 0.3125 2.328125 0.6875q1.375 0.28125 2.046875 0.875q0.6875 0.578125 0.6875 1.609375q0 1.1875 -0.984375 1.875q-0.96875 0.671875 -2.359375 0.671875q-1.5625 0 -2.546875 -0.78125q-0.984375 -0.78125 -0.984375 -2.234375l1.078125 0q0 0.96875 0.6875 1.515625q0.6875 0.546875 1.796875 0.546875q1.046875 0 1.609375 -0.40625q0.5625 -0.40625 0.5625 -1.15625q0 -0.609375 -0.515625 -0.96875q-0.515625 -0.375 -1.890625 -0.640625q-1.828125 -0.34375 -2.453125 -0.890625q-0.625 -0.5625 -0.625 -1.453125q0 -1.15625 0.875 -1.828125q0.890625 -0.671875 2.234375 -0.671875zm5.7441406 2.5625l0 4.234375q0 0.515625 0.34375 0.875q0.34375 0.34375 0.921875 0.34375q0.890625 0 1.359375 -0.53125q0.484375 -0.546875 0.484375 -1.375l0 -3.546875l1.015625 0l0 6.203125l-0.953125 0l0 -0.984375l-0.03125 0q-0.34375 0.59375 -0.859375 0.859375q-0.5 0.265625 -1.15625 0.265625q-1.09375 0 -1.625 -0.546875q-0.515625 -0.5625 -0.515625 -1.65625l0 -4.140625l1.015625 0zm8.720703 -0.140625q1.328125 0 2.09375 0.921875q0.765625 0.90625 0.765625 2.34375q0 1.4375 -0.765625 2.328125q-0.765625 0.890625 -2.0625 0.890625q-0.578125 0 -1.140625 -0.234375q-0.546875 -0.234375 -0.875 -0.734375l-0.015625 0l0 3.203125l-1.03125 0l0 -8.578125l1.03125 0l0 0.84375l0.015625 0q0.25 -0.484375 0.765625 -0.734375q0.515625 -0.25 1.21875 -0.25zm-2.046875 3.234375q0 1.078125 0.515625 1.71875q0.53125 0.640625 1.453125 0.640625q0.875 0 1.359375 -0.625q0.5 -0.640625 0.5 -1.78125q0 -1.0 -0.515625 -1.640625q-0.515625 -0.65625 -1.421875 -0.65625q-0.890625 0 -1.390625 0.65625q-0.5 0.65625 -0.5 1.6875zm9.160156 -3.234375q1.328125 0 2.09375 0.921875q0.765625 0.90625 0.765625 2.34375q0 1.4375 -0.765625 2.328125q-0.765625 0.890625 -2.0625 0.890625q-0.578125 0 -1.140625 -0.234375q-0.546875 -0.234375 -0.875 -0.734375l-0.015625 0l0 3.203125l-1.03125 0l0 -8.578125l1.03125 0l0 0.84375l0.015625 0q0.25 -0.484375 0.765625 -0.734375q0.515625 -0.25 1.21875 -0.25zm-2.046875 3.234375q0 1.078125 0.515625 1.71875q0.53125 0.640625 1.453125 0.640625q0.875 0 1.359375 -0.625q0.5 -0.640625 0.5 -1.78125q0 -1.0 -0.515625 -1.640625q-0.515625 -0.65625 -1.421875 -0.65625q-0.890625 0 -1.390625 0.65625q-0.5 0.65625 -0.5 1.6875zm8.785156 -3.234375q1.40625 0 2.203125 0.90625q0.796875 0.90625 0.796875 2.34375q0 1.453125 -0.828125 2.34375q-0.8125 0.890625 -2.171875 0.890625q-1.359375 0 -2.1875 -0.875q-0.828125 -0.890625 -0.828125 -2.359375q0 -1.484375 0.8125 -2.359375q0.8125 -0.890625 2.203125 -0.890625zm-1.9375 3.25q0 1.0625 0.546875 1.703125q0.546875 0.640625 1.390625 0.640625q0.828125 0 1.375 -0.640625q0.546875 -0.640625 0.546875 -1.703125q0 -1.0625 -0.546875 -1.703125q-0.53125 -0.65625 -1.390625 -0.65625q-0.828125 0 -1.375 0.640625q-0.546875 0.640625 -0.546875 1.71875zm9.234375 -3.265625q0.03125 0 0.0625 0q0.03125 0 0.078125 0.015625l0 1.078125q-1.15625 0 -1.703125 0.609375q-0.546875 0.609375 -0.546875 1.875l0 2.78125l-1.015625 0l0 -6.203125l0.953125 0l0 1.296875l0.03125 0q0.359375 -0.734375 0.875 -1.09375q0.53125 -0.359375 1.265625 -0.359375zm2.3828125 -1.703125l0 1.859375l1.234375 0l0 0.90625l-1.234375 0l0 3.875q0 0.46875 0.296875 0.5q0.3125 0.015625 0.65625 0.015625l0.28125 0l0 0.90625l-0.84375 0q-0.84375 0 -1.125 -0.296875q-0.28125 -0.296875 -0.28125 -1.0l0 -4.0l-1.0625 0l0 -0.90625l1.0625 0l0 -1.859375l1.015625 0zm3.4355469 -0.5l0 1.25l-1.015625 0l0 -1.25l1.015625 0zm0 2.359375l0 6.203125l-1.015625 0l0 -6.203125l1.015625 0zm4.6035156 -0.140625q1.109375 0 1.609375 0.578125q0.515625 0.5625 0.515625 1.640625l0 4.125l-1.015625 0l0 -4.234375q0 -0.53125 -0.34375 -0.875q-0.328125 -0.34375 -0.9375 -0.34375q-0.859375 0 -1.34375 0.53125q-0.484375 0.53125 -0.484375 1.375l0 3.546875l-1.015625 0l0 -6.203125l0.96875 0l0 0.984375l0.015625 0q0.34375 -0.578125 0.828125 -0.84375q0.5 -0.28125 1.203125 -0.28125zm6.189453 0q0.640625 0 1.109375 0.28125q0.484375 0.28125 0.75 0.75l0 0l0 -0.890625l0.96875 0l0 5.734375q0 1.46875 -0.703125 2.21875q-0.703125 0.765625 -2.171875 0.765625q-1.0625 0 -1.796875 -0.46875q-0.734375 -0.46875 -0.78125 -1.34375l1.015625 0q0.03125 0.46875 0.515625 0.734375q0.484375 0.265625 1.09375 0.265625q0.90625 0 1.375 -0.59375q0.484375 -0.59375 0.484375 -1.78125l0 -0.390625l-0.015625 0q-0.234375 0.515625 -0.765625 0.828125q-0.515625 0.3125 -1.171875 0.3125q-1.265625 0 -2.015625 -0.875q-0.75 -0.875 -0.75 -2.28125q0 -1.421875 0.75 -2.34375q0.75 -0.921875 2.109375 -0.921875zm-1.78125 3.15625q0 1.09375 0.453125 1.734375q0.46875 0.625 1.296875 0.625q0.84375 0 1.34375 -0.65625q0.5 -0.65625 0.5 -1.75q0 -0.984375 -0.46875 -1.59375q-0.453125 -0.625 -1.3125 -0.625q-0.84375 0 -1.328125 0.625q-0.484375 0.609375 -0.484375 1.640625zm13.287109 -5.578125q1.421875 0 2.375 0.734375q0.953125 0.734375 1.140625 2.046875l-1.125 0q-0.1875 -0.890625 -0.828125 -1.359375q-0.640625 -0.46875 -1.578125 -0.46875q-1.359375 0 -2.140625 0.96875q-0.765625 0.953125 -0.765625 2.5q0 1.640625 0.75 2.625q0.765625 0.96875 2.171875 0.96875q1.046875 0 1.71875 -0.671875q0.671875 -0.671875 0.75 -1.8125l1.140625 0q-0.1875 1.671875 -1.15625 2.5625q-0.96875 0.875 -2.546875 0.875q-1.84375 0 -2.90625 -1.21875q-1.0625 -1.21875 -1.0625 -3.25q0 -2.0 1.09375 -3.25q1.09375 -1.25 2.96875 -1.25zm7.5410156 2.421875q1.40625 0 2.203125 0.90625q0.796875 0.90625 0.796875 2.34375q0 1.453125 -0.828125 2.34375q-0.8125 0.890625 -2.171875 0.890625q-1.359375 0 -2.1875 -0.875q-0.828125 -0.890625 -0.828125 -2.359375q0 -1.484375 0.8125 -2.359375q0.8125 -0.890625 2.203125 -0.890625zm-1.9375 3.25q0 1.0625 0.546875 1.703125q0.546875 0.640625 1.390625 0.640625q0.828125 0 1.375 -0.640625q0.546875 -0.640625 0.546875 -1.703125q0 -1.0625 -0.546875 -1.703125q-0.53125 -0.65625 -1.390625 -0.65625q-0.828125 0 -1.375 0.640625q-0.546875 0.640625 -0.546875 1.71875zm9.203125 -3.25q1.328125 0 2.09375 0.921875q0.765625 0.90625 0.765625 2.34375q0 1.4375 -0.765625 2.328125q-0.765625 0.890625 -2.0625 0.890625q-0.578125 0 -1.140625 -0.234375q-0.546875 -0.234375 -0.875 -0.734375l-0.015625 0l0 3.203125l-1.03125 0l0 -8.578125l1.03125 0l0 0.84375l0.015625 0q0.25 -0.484375 0.765625 -0.734375q0.515625 -0.25 1.21875 -0.25zm-2.046875 3.234375q0 1.078125 0.515625 1.71875q0.53125 0.640625 1.453125 0.640625q0.875 0 1.359375 -0.625q0.5 -0.640625 0.5 -1.78125q0 -1.0 -0.515625 -1.640625q-0.515625 -0.65625 -1.421875 -0.65625q-0.890625 0 -1.390625 0.65625q-0.5 0.65625 -0.5 1.6875zm6.5820312 -3.09375l1.8125 5.078125l0.015625 0l1.75 -5.078125l1.078125 0l-2.640625 6.859375q-0.40625 1.078125 -0.796875 1.453125q-0.375 0.375 -1.0625 0.375q-0.1875 0 -0.359375 -0.03125q-0.171875 -0.015625 -0.34375 -0.078125l0 -0.9375q0.140625 0.046875 0.28125 0.09375q0.15625 0.046875 0.3125 0.046875q0.625 0 0.859375 -0.625q0.25 -0.609375 0.40625 -0.984375l-2.46875 -6.171875l1.15625 0zm10.162109 -2.359375l0 3.671875l4.515625 0l0 -3.671875l1.140625 0l0 8.5625l-1.140625 0l0 -3.921875l-4.515625 0l0 3.921875l-1.140625 0l0 -8.5625l1.140625 0zm9.931641 2.21875q1.34375 0 2.078125 0.96875q0.734375 0.953125 0.734375 2.453125l0 0.125l-4.640625 0l0 0.078125q0 0.890625 0.515625 1.4375q0.515625 0.53125 1.421875 0.53125q0.671875 0 1.0625 -0.3125q0.40625 -0.328125 0.53125 -0.90625l1.015625 0q-0.203125 1.03125 -0.90625 1.578125q-0.703125 0.53125 -1.75 0.53125q-0.96875 0 -1.65625 -0.4375q-0.671875 -0.4375 -1.0 -1.21875q-0.3125 -0.796875 -0.3125 -1.625q0 -1.375 0.828125 -2.28125q0.828125 -0.921875 2.078125 -0.921875zm-1.828125 2.640625l3.5625 0q-0.046875 -0.75 -0.546875 -1.25q-0.5 -0.5 -1.25 -0.5q-0.703125 0 -1.203125 0.484375q-0.5 0.46875 -0.5625 1.265625zm8.7890625 -2.65625q0.03125 0 0.0625 0q0.03125 0 0.078125 0.015625l0 1.078125q-1.15625 0 -1.703125 0.609375q-0.546875 0.609375 -0.546875 1.875l0 2.78125l-1.015625 0l0 -6.203125l0.953125 0l0 1.296875l0.03125 0q0.359375 -0.734375 0.875 -1.09375q0.53125 -0.359375 1.265625 -0.359375zm3.2636719 0.015625q1.34375 0 2.078125 0.96875q0.734375 0.953125 0.734375 2.453125l0 0.125l-4.640625 0l0 0.078125q0 0.890625 0.515625 1.4375q0.515625 0.53125 1.421875 0.53125q0.671875 0 1.0625 -0.3125q0.40625 -0.328125 0.53125 -0.90625l1.015625 0q-0.203125 1.03125 -0.90625 1.578125q-0.703125 0.53125 -1.75 0.53125q-0.96875 0 -1.65625 -0.4375q-0.671875 -0.4375 -1.0 -1.21875q-0.3125 -0.796875 -0.3125 -1.625q0 -1.375 0.828125 -2.28125q0.828125 -0.921875 2.078125 -0.921875zm-1.828125 2.640625l3.5625 0q-0.046875 -0.75 -0.546875 -1.25q-0.5 -0.5 -1.25 -0.5q-0.703125 0 -1.203125 0.484375q-0.5 0.46875 -0.5625 1.265625z" fill-rule="nonzero"/><path fill="#000000" fill-opacity="0.0" d="m314.605 322.09647l-33.212585 0l0 94.70868l-33.2126 0" fill-rule="evenodd"/><path stroke="#013a3b" stroke-width="1.0" stroke-linejoin="round" stroke-linecap="butt" d="m314.605 322.09647l-33.212585 0l0 94.70868l-33.2126 0" fill-rule="evenodd"/><path fill="#000000" fill-opacity="0.0" d="m360.28293 322.09647l-33.212616 0l0 94.70868l-33.212585 0" fill-rule="evenodd"/><path stroke="#013a3b" stroke-width="1.0" stroke-linejoin="round" stroke-linecap="butt" stroke-dasharray="4.0,3.0" d="m360.28293 322.09647l-33.212616 0l0 94.70868l-33.212585 0" fill-rule="evenodd"/><path fill="#000000" fill-opacity="0.0" d="m482.09 322.09647l-33.212585 0l0 94.70868l-33.212616 0" fill-rule="evenodd"/><path stroke="#02f4d5" stroke-width="1.0" stroke-linejoin="round" stroke-linecap="butt" d="m482.09 322.09647l-33.212585 0l0 94.70868l-33.212616 0" fill-rule="evenodd"/><path fill="#000000" fill-opacity="0.0" d="m527.7679 322.09647l-33.212585 0l0 94.70868l-33.212585 0" fill-rule="evenodd"/><path stroke="#02f4d5" stroke-width="1.0" stroke-linejoin="round" stroke-linecap="butt" stroke-dasharray="4.0,3.0" d="m527.7679 322.09647l-33.212585 0l0 94.70868l-33.212585 0" fill-rule="evenodd"/><path fill="#000000" fill-opacity="0.0" d="m377.3107 323.08292l0 97.700775" fill-rule="evenodd"/><path stroke="#013a3b" stroke-width="1.0" stroke-linejoin="round" stroke-linecap="butt" d="m377.3107 323.08292l0 97.700775" fill-rule="evenodd"/><path fill="#000000" fill-opacity="0.0" d="m394.61337 323.08292l0 97.700775" fill-rule="evenodd"/><path stroke="#013a3b" stroke-width="1.0" stroke-linejoin="round" stroke-linecap="butt" stroke-dasharray="4.0,3.0" d="m394.61337 323.08292l0 97.700775" fill-rule="evenodd"/><path fill="#000000" fill-opacity="0.0" d="m538.5674 323.08292l0 97.700775" fill-rule="evenodd"/><path stroke="#02f4d5" stroke-width="1.0" stroke-linejoin="round" stroke-linecap="butt" d="m538.5674 323.08292l0 97.700775" fill-rule="evenodd"/><path fill="#000000" fill-opacity="0.0" d="m555.87006 323.08292l0 97.700775" fill-rule="evenodd"/><path stroke="#02f4d5" stroke-width="1.0" stroke-linejoin="round" stroke-linecap="butt" stroke-dasharray="4.0,3.0" d="m555.87006 323.08292l0 97.700775" fill-rule="evenodd"/><path fill="#013a3b" d="m61.787403 324.7498l0 0c0 -12.785187 10.364429 -23.149597 23.149601 -23.149597l99.55906 0l0 0c6.1396637 0 12.027847 2.4389648 16.369247 6.780365c4.341385 4.3413696 6.780365 10.229584 6.780365 16.369232l0 0l0 0c0 12.785187 -10.364441 23.149597 -23.149612 23.149597l-99.55906 0c-12.7851715 0 -23.149601 -10.36441 -23.149601 -23.149597z" fill-rule="evenodd"/><path stroke="#02f4d5" stroke-width="1.0" stroke-linejoin="round" stroke-linecap="butt" d="m61.787403 324.7498l0 0c0 -12.785187 10.364429 -23.149597 23.149601 -23.149597l99.55906 0l0 0c6.1396637 0 12.027847 2.4389648 16.369247 6.780365c4.341385 4.3413696 6.780365 10.229584 6.780365 16.369232l0 0l0 0c0 12.785187 -10.364441 23.149597 -23.149612 23.149597l-99.55906 0c-12.7851715 0 -23.149601 -10.36441 -23.149601 -23.149597z" fill-rule="evenodd"/><path fill="#d0fdf2" d="m129.71234 319.36102l0 1.1875l-3.5 0l0 9.28125l-1.390625 0l0 -9.28125l-3.484375 0l0 -1.1875l8.375 0zm2.6925812 2.71875q1.625 0 2.515625 1.171875q0.90625 1.171875 0.90625 3.015625l0 0.15625l-5.671875 0l0 0.078125q0 1.09375 0.625 1.75q0.640625 0.65625 1.734375 0.65625q0.828125 0 1.3125 -0.390625q0.5 -0.390625 0.65625 -1.09375l1.234375 0q-0.25 1.265625 -1.109375 1.921875q-0.84375 0.65625 -2.125 0.65625q-1.203125 0 -2.03125 -0.53125q-0.828125 -0.546875 -1.21875 -1.5q-0.390625 -0.96875 -0.390625 -1.96875q0 -1.6875 1.0 -2.796875q1.015625 -1.125 2.5625 -1.125zm-2.25 3.234375l4.359375 0q-0.0625 -0.921875 -0.671875 -1.53125q-0.609375 -0.609375 -1.53125 -0.609375q-0.859375 0 -1.46875 0.578125q-0.609375 0.578125 -0.6875 1.5625zm7.7007904 -3.0625l1.8125 2.640625l0 0l1.890625 -2.640625l1.5 0l-2.609375 3.484375l2.921875 4.09375l-1.59375 0l-2.109375 -3.140625l-2.109375 3.140625l-1.515625 0l2.859375 -3.984375l-2.640625 -3.59375l1.59375 0zm8.327286 -2.265625l0 2.265625l1.5 0l0 1.109375l-1.5 0l0 4.734375q0 0.5625 0.375 0.59375q0.375 0.03125 0.78125 0.03125l0.34375 0l0 1.109375l-1.015625 0q-1.03125 0 -1.390625 -0.359375q-0.34375 -0.375 -0.34375 -1.234375l0 -4.875l-1.296875 0l0 -1.109375l1.296875 0l0 -2.265625l1.25 0z" fill-rule="nonzero"/><path fill="#013a3b" d="m589.479 304.6644l0 0c0 -7.645172 6.197632 -13.842804 13.842773 -13.842804l118.17267 0c3.6713867 0 7.192322 1.458435 9.788391 4.054474c2.5960083 2.5960083 4.0544434 6.116974 4.0544434 9.78833l0 47.30652c0 7.645172 -6.197632 13.842804 -13.842834 13.842804l-118.17267 0l0 0c-7.6451416 0 -13.842773 -6.197632 -13.842773 -13.842804z" fill-rule="evenodd"/><path stroke="#02f4d5" stroke-width="1.0" stroke-linejoin="round" stroke-linecap="butt" d="m589.479 304.6644l0 0c0 -7.645172 6.197632 -13.842804 13.842773 -13.842804l118.17267 0c3.6713867 0 7.192322 1.458435 9.788391 4.054474c2.5960083 2.5960083 4.0544434 6.116974 4.0544434 9.78833l0 47.30652c0 7.645172 -6.197632 13.842804 -13.842834 13.842804l-118.17267 0l0 0c-7.6451416 0 -13.842773 -6.197632 -13.842773 -13.842804z" fill-rule="evenodd"/><path fill="#000000" fill-opacity="0.0" d="m606.07745 308.11295l112.66138 0l0 40.409424l-112.66138 0z" fill-rule="evenodd"/><path fill="#d0fdf2" d="m618.88995 323.87204q1.4375 0 2.265625 0.6875q0.84375 0.6875 0.890625 2.015625l-1.078125 0q-0.09375 -0.875 -0.625 -1.3125q-0.53125 -0.4375 -1.5 -0.4375q-0.90625 0 -1.421875 0.375q-0.5 0.375 -0.5 1.078125q0 0.515625 0.421875 0.84375q0.4375 0.3125 2.328125 0.6875q1.375 0.28125 2.046875 0.875q0.6875 0.578125 0.6875 1.609375q0 1.1875 -0.984375 1.875q-0.96875 0.671875 -2.359375 0.671875q-1.5625 0 -2.546875 -0.78125q-0.984375 -0.78125 -0.984375 -2.234375l1.078125 0q0 0.96875 0.6875 1.515625q0.6875 0.546875 1.796875 0.546875q1.046875 0 1.609375 -0.40625q0.5625 -0.40625 0.5625 -1.15625q0 -0.609375 -0.515625 -0.96875q-0.515625 -0.375 -1.890625 -0.640625q-1.828125 -0.34375 -2.453125 -0.890625q-0.625 -0.5625 -0.625 -1.453125q0 -1.15625 0.875 -1.828125q0.890625 -0.671875 2.234375 -0.671875zm5.7441406 2.5625l0 4.234375q0 0.515625 0.34375 0.875q0.34375 0.34375 0.921875 0.34375q0.890625 0 1.359375 -0.53125q0.484375 -0.546875 0.484375 -1.375l0 -3.546875l1.015625 0l0 6.203125l-0.953125 0l0 -0.984375l-0.03125 0q-0.34375 0.59375 -0.859375 0.859375q-0.5 0.265625 -1.15625 0.265625q-1.09375 0 -1.625 -0.546875q-0.515625 -0.5625 -0.515625 -1.65625l0 -4.140625l1.015625 0zm8.720703 -0.140625q1.328125 0 2.09375 0.921875q0.765625 0.90625 0.765625 2.34375q0 1.4375 -0.765625 2.328125q-0.765625 0.890625 -2.0625 0.890625q-0.578125 0 -1.140625 -0.234375q-0.546875 -0.234375 -0.875 -0.734375l-0.015625 0l0 3.203125l-1.03125 0l0 -8.578125l1.03125 0l0 0.84375l0.015625 0q0.25 -0.484375 0.765625 -0.734375q0.515625 -0.25 1.21875 -0.25zm-2.046875 3.234375q0 1.078125 0.515625 1.71875q0.53125 0.640625 1.453125 0.640625q0.875 0 1.359375 -0.625q0.5 -0.640625 0.5 -1.78125q0 -1.0 -0.515625 -1.640625q-0.515625 -0.65625 -1.421875 -0.65625q-0.890625 0 -1.390625 0.65625q-0.5 0.65625 -0.5 1.6875zm9.160156 -3.234375q1.328125 0 2.09375 0.921875q0.765625 0.90625 0.765625 2.34375q0 1.4375 -0.765625 2.328125q-0.765625 0.890625 -2.0625 0.890625q-0.578125 0 -1.140625 -0.234375q-0.546875 -0.234375 -0.875 -0.734375l-0.015625 0l0 3.203125l-1.03125 0l0 -8.578125l1.03125 0l0 0.84375l0.015625 0q0.25 -0.484375 0.765625 -0.734375q0.515625 -0.25 1.21875 -0.25zm-2.046875 3.234375q0 1.078125 0.515625 1.71875q0.53125 0.640625 1.453125 0.640625q0.875 0 1.359375 -0.625q0.5 -0.640625 0.5 -1.78125q0 -1.0 -0.515625 -1.640625q-0.515625 -0.65625 -1.421875 -0.65625q-0.890625 0 -1.390625 0.65625q-0.5 0.65625 -0.5 1.6875zm8.785156 -3.234375q1.40625 0 2.203125 0.90625q0.796875 0.90625 0.796875 2.34375q0 1.453125 -0.828125 2.34375q-0.8125 0.890625 -2.171875 0.890625q-1.359375 0 -2.1875 -0.875q-0.828125 -0.890625 -0.828125 -2.359375q0 -1.484375 0.8125 -2.359375q0.8125 -0.890625 2.203125 -0.890625zm-1.9375 3.25q0 1.0625 0.546875 1.703125q0.546875 0.640625 1.390625 0.640625q0.828125 0 1.375 -0.640625q0.546875 -0.640625 0.546875 -1.703125q0 -1.0625 -0.546875 -1.703125q-0.53125 -0.65625 -1.390625 -0.65625q-0.828125 0 -1.375 0.640625q-0.546875 0.640625 -0.546875 1.71875zm9.234375 -3.265625q0.03125 0 0.0625 0q0.03125 0 0.078125 0.015625l0 1.078125q-1.15625 0 -1.703125 0.609375q-0.546875 0.609375 -0.546875 1.875l0 2.78125l-1.015625 0l0 -6.203125l0.953125 0l0 1.296875l0.03125 0q0.359375 -0.734375 0.875 -1.09375q0.53125 -0.359375 1.265625 -0.359375zm2.3828125 -1.703125l0 1.859375l1.234375 0l0 0.90625l-1.234375 0l0 3.875q0 0.46875 0.296875 0.5q0.3125 0.015625 0.65625 0.015625l0.28125 0l0 0.90625l-0.84375 0q-0.84375 0 -1.125 -0.296875q-0.28125 -0.296875 -0.28125 -1.0l0 -4.0l-1.0625 0l0 -0.90625l1.0625 0l0 -1.859375l1.015625 0zm3.4355469 -0.5l0 1.25l-1.015625 0l0 -1.25l1.015625 0zm0 2.359375l0 6.203125l-1.015625 0l0 -6.203125l1.015625 0zm4.6035156 -0.140625q1.109375 0 1.609375 0.578125q0.515625 0.5625 0.515625 1.640625l0 4.125l-1.015625 0l0 -4.234375q0 -0.53125 -0.34375 -0.875q-0.328125 -0.34375 -0.9375 -0.34375q-0.859375 0 -1.34375 0.53125q-0.484375 0.53125 -0.484375 1.375l0 3.546875l-1.015625 0l0 -6.203125l0.96875 0l0 0.984375l0.015625 0q0.34375 -0.578125 0.828125 -0.84375q0.5 -0.28125 1.203125 -0.28125zm6.189453 0q0.640625 0 1.109375 0.28125q0.484375 0.28125 0.75 0.75l0 0l0 -0.890625l0.96875 0l0 5.734375q0 1.46875 -0.703125 2.21875q-0.703125 0.765625 -2.171875 0.765625q-1.0625 0 -1.796875 -0.46875q-0.734375 -0.46875 -0.78125 -1.34375l1.015625 0q0.03125 0.46875 0.515625 0.734375q0.484375 0.265625 1.09375 0.265625q0.90625 0 1.375 -0.59375q0.484375 -0.59375 0.484375 -1.78125l0 -0.390625l-0.015625 0q-0.234375 0.515625 -0.765625 0.828125q-0.515625 0.3125 -1.171875 0.3125q-1.265625 0 -2.015625 -0.875q-0.75 -0.875 -0.75 -2.28125q0 -1.421875 0.75 -2.34375q0.75 -0.921875 2.109375 -0.921875zm-1.78125 3.15625q0 1.09375 0.453125 1.734375q0.46875 0.625 1.296875 0.625q0.84375 0 1.34375 -0.65625q0.5 -0.65625 0.5 -1.75q0 -0.984375 -0.46875 -1.59375q-0.453125 -0.625 -1.3125 -0.625q-0.84375 0 -1.328125 0.625q-0.484375 0.609375 -0.484375 1.640625zm13.287109 -5.578125q1.421875 0 2.375 0.734375q0.953125 0.734375 1.140625 2.046875l-1.125 0q-0.1875 -0.890625 -0.828125 -1.359375q-0.640625 -0.46875 -1.578125 -0.46875q-1.359375 0 -2.140625 0.96875q-0.765625 0.953125 -0.765625 2.5q0 1.640625 0.75 2.625q0.765625 0.96875 2.171875 0.96875q1.046875 0 1.71875 -0.671875q0.671875 -0.671875 0.75 -1.8125l1.140625 0q-0.1875 1.671875 -1.15625 2.5625q-0.96875 0.875 -2.546875 0.875q-1.84375 0 -2.90625 -1.21875q-1.0625 -1.21875 -1.0625 -3.25q0 -2.0 1.09375 -3.25q1.09375 -1.25 2.96875 -1.25zm7.5410156 2.421875q1.40625 0 2.203125 0.90625q0.796875 0.90625 0.796875 2.34375q0 1.453125 -0.828125 2.34375q-0.8125 0.890625 -2.171875 0.890625q-1.359375 0 -2.1875 -0.875q-0.828125 -0.890625 -0.828125 -2.359375q0 -1.484375 0.8125 -2.359375q0.8125 -0.890625 2.203125 -0.890625zm-1.9375 3.25q0 1.0625 0.546875 1.703125q0.546875 0.640625 1.390625 0.640625q0.828125 0 1.375 -0.640625q0.546875 -0.640625 0.546875 -1.703125q0 -1.0625 -0.546875 -1.703125q-0.53125 -0.65625 -1.390625 -0.65625q-0.828125 0 -1.375 0.640625q-0.546875 0.640625 -0.546875 1.71875zm9.203125 -3.25q1.328125 0 2.09375 0.921875q0.765625 0.90625 0.765625 2.34375q0 1.4375 -0.765625 2.328125q-0.765625 0.890625 -2.0625 0.890625q-0.578125 0 -1.140625 -0.234375q-0.546875 -0.234375 -0.875 -0.734375l-0.015625 0l0 3.203125l-1.03125 0l0 -8.578125l1.03125 0l0 0.84375l0.015625 0q0.25 -0.484375 0.765625 -0.734375q0.515625 -0.25 1.21875 -0.25zm-2.046875 3.234375q0 1.078125 0.515625 1.71875q0.53125 0.640625 1.453125 0.640625q0.875 0 1.359375 -0.625q0.5 -0.640625 0.5 -1.78125q0 -1.0 -0.515625 -1.640625q-0.515625 -0.65625 -1.421875 -0.65625q-0.890625 0 -1.390625 0.65625q-0.5 0.65625 -0.5 1.6875zm6.5820312 -3.09375l1.8125 5.078125l0.015625 0l1.75 -5.078125l1.078125 0l-2.640625 6.859375q-0.40625 1.078125 -0.796875 1.453125q-0.375 0.375 -1.0625 0.375q-0.1875 0 -0.359375 -0.03125q-0.171875 -0.015625 -0.34375 -0.078125l0 -0.9375q0.140625 0.046875 0.28125 0.09375q0.15625 0.046875 0.3125 0.046875q0.625 0 0.859375 -0.625q0.25 -0.609375 0.40625 -0.984375l-2.46875 -6.171875l1.15625 0z" fill-rule="nonzero"/><path fill="#d0fdf2" d="m752.353 304.6644l0 0c0 -7.645172 6.197632 -13.842804 13.842773 -13.842804l118.17267 0c3.6713867 0 7.192322 1.458435 9.78833 4.054474c2.5960693 2.5960083 4.0545044 6.116974 4.0545044 9.78833l0 47.30652c0 7.645172 -6.197632 13.842804 -13.842834 13.842804l-118.17267 0l0 0c-7.6451416 0 -13.842773 -6.197632 -13.842773 -13.842804z" fill-rule="evenodd"/><path fill="#000000" fill-opacity="0.0" d="m768.9514 308.11295l112.66144 0l0 40.409424l-112.66144 0z" fill-rule="evenodd"/><path fill="#013a3b" d="m781.7639 323.87204q1.4375 0 2.265625 0.6875q0.84375 0.6875 0.890625 2.015625l-1.078125 0q-0.09375 -0.875 -0.625 -1.3125q-0.53125 -0.4375 -1.5 -0.4375q-0.90625 0 -1.421875 0.375q-0.5 0.375 -0.5 1.078125q0 0.515625 0.421875 0.84375q0.4375 0.3125 2.328125 0.6875q1.375 0.28125 2.046875 0.875q0.6875 0.578125 0.6875 1.609375q0 1.1875 -0.984375 1.875q-0.96875 0.671875 -2.359375 0.671875q-1.5625 0 -2.546875 -0.78125q-0.984375 -0.78125 -0.984375 -2.234375l1.078125 0q0 0.96875 0.6875 1.515625q0.6875 0.546875 1.796875 0.546875q1.046875 0 1.609375 -0.40625q0.5625 -0.40625 0.5625 -1.15625q0 -0.609375 -0.515625 -0.96875q-0.515625 -0.375 -1.890625 -0.640625q-1.828125 -0.34375 -2.453125 -0.890625q-0.625 -0.5625 -0.625 -1.453125q0 -1.15625 0.875 -1.828125q0.890625 -0.671875 2.234375 -0.671875zm5.7441406 2.5625l0 4.234375q0 0.515625 0.34375 0.875q0.34375 0.34375 0.921875 0.34375q0.890625 0 1.359375 -0.53125q0.484375 -0.546875 0.484375 -1.375l0 -3.546875l1.015625 0l0 6.203125l-0.953125 0l0 -0.984375l-0.03125 0q-0.34375 0.59375 -0.859375 0.859375q-0.5 0.265625 -1.15625 0.265625q-1.09375 0 -1.625 -0.546875q-0.515625 -0.5625 -0.515625 -1.65625l0 -4.140625l1.015625 0zm8.720703 -0.140625q1.328125 0 2.09375 0.921875q0.765625 0.90625 0.765625 2.34375q0 1.4375 -0.765625 2.328125q-0.765625 0.890625 -2.0625 0.890625q-0.578125 0 -1.140625 -0.234375q-0.546875 -0.234375 -0.875 -0.734375l-0.015625 0l0 3.203125l-1.03125 0l0 -8.578125l1.03125 0l0 0.84375l0.015625 0q0.25 -0.484375 0.765625 -0.734375q0.515625 -0.25 1.21875 -0.25zm-2.046875 3.234375q0 1.078125 0.515625 1.71875q0.53125 0.640625 1.453125 0.640625q0.875 0 1.359375 -0.625q0.5 -0.640625 0.5 -1.78125q0 -1.0 -0.515625 -1.640625q-0.515625 -0.65625 -1.421875 -0.65625q-0.890625 0 -1.390625 0.65625q-0.5 0.65625 -0.5 1.6875zm9.160156 -3.234375q1.328125 0 2.09375 0.921875q0.765625 0.90625 0.765625 2.34375q0 1.4375 -0.765625 2.328125q-0.765625 0.890625 -2.0625 0.890625q-0.578125 0 -1.140625 -0.234375q-0.546875 -0.234375 -0.875 -0.734375l-0.015625 0l0 3.203125l-1.03125 0l0 -8.578125l1.03125 0l0 0.84375l0.015625 0q0.25 -0.484375 0.765625 -0.734375q0.515625 -0.25 1.21875 -0.25zm-2.046875 3.234375q0 1.078125 0.515625 1.71875q0.53125 0.640625 1.453125 0.640625q0.875 0 1.359375 -0.625q0.5 -0.640625 0.5 -1.78125q0 -1.0 -0.515625 -1.640625q-0.515625 -0.65625 -1.421875 -0.65625q-0.890625 0 -1.390625 0.65625q-0.5 0.65625 -0.5 1.6875zm8.785156 -3.234375q1.40625 0 2.203125 0.90625q0.796875 0.90625 0.796875 2.34375q0 1.453125 -0.828125 2.34375q-0.8125 0.890625 -2.171875 0.890625q-1.359375 0 -2.1875 -0.875q-0.828125 -0.890625 -0.828125 -2.359375q0 -1.484375 0.8125 -2.359375q0.8125 -0.890625 2.203125 -0.890625zm-1.9375 3.25q0 1.0625 0.546875 1.703125q0.546875 0.640625 1.390625 0.640625q0.828125 0 1.375 -0.640625q0.546875 -0.640625 0.546875 -1.703125q0 -1.0625 -0.546875 -1.703125q-0.53125 -0.65625 -1.390625 -0.65625q-0.828125 0 -1.375 0.640625q-0.546875 0.640625 -0.546875 1.71875zm9.234375 -3.265625q0.03125 0 0.0625 0q0.03125 0 0.078125 0.015625l0 1.078125q-1.15625 0 -1.703125 0.609375q-0.546875 0.609375 -0.546875 1.875l0 2.78125l-1.015625 0l0 -6.203125l0.953125 0l0 1.296875l0.03125 0q0.359375 -0.734375 0.875 -1.09375q0.53125 -0.359375 1.265625 -0.359375zm2.3828125 -1.703125l0 1.859375l1.234375 0l0 0.90625l-1.234375 0l0 3.875q0 0.46875 0.296875 0.5q0.3125 0.015625 0.65625 0.015625l0.28125 0l0 0.90625l-0.84375 0q-0.84375 0 -1.125 -0.296875q-0.28125 -0.296875 -0.28125 -1.0l0 -4.0l-1.0625 0l0 -0.90625l1.0625 0l0 -1.859375l1.015625 0zm3.4355469 -0.5l0 1.25l-1.015625 0l0 -1.25l1.015625 0zm0 2.359375l0 6.203125l-1.015625 0l0 -6.203125l1.015625 0zm4.6035156 -0.140625q1.109375 0 1.609375 0.578125q0.515625 0.5625 0.515625 1.640625l0 4.125l-1.015625 0l0 -4.234375q0 -0.53125 -0.34375 -0.875q-0.328125 -0.34375 -0.9375 -0.34375q-0.859375 0 -1.34375 0.53125q-0.484375 0.53125 -0.484375 1.375l0 3.546875l-1.015625 0l0 -6.203125l0.96875 0l0 0.984375l0.015625 0q0.34375 -0.578125 0.828125 -0.84375q0.5 -0.28125 1.203125 -0.28125zm6.189453 0q0.640625 0 1.109375 0.28125q0.484375 0.28125 0.75 0.75l0 0l0 -0.890625l0.96875 0l0 5.734375q0 1.46875 -0.703125 2.21875q-0.703125 0.765625 -2.171875 0.765625q-1.0625 0 -1.796875 -0.46875q-0.734375 -0.46875 -0.78125 -1.34375l1.015625 0q0.03125 0.46875 0.515625 0.734375q0.484375 0.265625 1.09375 0.265625q0.90625 0 1.375 -0.59375q0.484375 -0.59375 0.484375 -1.78125l0 -0.390625l-0.015625 0q-0.234375 0.515625 -0.765625 0.828125q-0.515625 0.3125 -1.171875 0.3125q-1.265625 0 -2.015625 -0.875q-0.75 -0.875 -0.75 -2.28125q0 -1.421875 0.75 -2.34375q0.75 -0.921875 2.109375 -0.921875zm-1.78125 3.15625q0 1.09375 0.453125 1.734375q0.46875 0.625 1.296875 0.625q0.84375 0 1.34375 -0.65625q0.5 -0.65625 0.5 -1.75q0 -0.984375 -0.46875 -1.59375q-0.453125 -0.625 -1.3125 -0.625q-0.84375 0 -1.328125 0.625q-0.484375 0.609375 -0.484375 1.640625zm13.287109 -5.578125q1.421875 0 2.375 0.734375q0.953125 0.734375 1.140625 2.046875l-1.125 0q-0.1875 -0.890625 -0.828125 -1.359375q-0.640625 -0.46875 -1.578125 -0.46875q-1.359375 0 -2.140625 0.96875q-0.765625 0.953125 -0.765625 2.5q0 1.640625 0.75 2.625q0.765625 0.96875 2.171875 0.96875q1.046875 0 1.71875 -0.671875q0.671875 -0.671875 0.75 -1.8125l1.140625 0q-0.1875 1.671875 -1.15625 2.5625q-0.96875 0.875 -2.546875 0.875q-1.84375 0 -2.90625 -1.21875q-1.0625 -1.21875 -1.0625 -3.25q0 -2.0 1.09375 -3.25q1.09375 -1.25 2.96875 -1.25zm7.5410156 2.421875q1.40625 0 2.203125 0.90625q0.796875 0.90625 0.796875 2.34375q0 1.453125 -0.828125 2.34375q-0.8125 0.890625 -2.171875 0.890625q-1.359375 0 -2.1875 -0.875q-0.828125 -0.890625 -0.828125 -2.359375q0 -1.484375 0.8125 -2.359375q0.8125 -0.890625 2.203125 -0.890625zm-1.9375 3.25q0 1.0625 0.546875 1.703125q0.546875 0.640625 1.390625 0.640625q0.828125 0 1.375 -0.640625q0.546875 -0.640625 0.546875 -1.703125q0 -1.0625 -0.546875 -1.703125q-0.53125 -0.65625 -1.390625 -0.65625q-0.828125 0 -1.375 0.640625q-0.546875 0.640625 -0.546875 1.71875zm9.203125 -3.25q1.328125 0 2.09375 0.921875q0.765625 0.90625 0.765625 2.34375q0 1.4375 -0.765625 2.328125q-0.765625 0.890625 -2.0625 0.890625q-0.578125 0 -1.140625 -0.234375q-0.546875 -0.234375 -0.875 -0.734375l-0.015625 0l0 3.203125l-1.03125 0l0 -8.578125l1.03125 0l0 0.84375l0.015625 0q0.25 -0.484375 0.765625 -0.734375q0.515625 -0.25 1.21875 -0.25zm-2.046875 3.234375q0 1.078125 0.515625 1.71875q0.53125 0.640625 1.453125 0.640625q0.875 0 1.359375 -0.625q0.5 -0.640625 0.5 -1.78125q0 -1.0 -0.515625 -1.640625q-0.515625 -0.65625 -1.421875 -0.65625q-0.890625 0 -1.390625 0.65625q-0.5 0.65625 -0.5 1.6875zm6.5820312 -3.09375l1.8125 5.078125l0.015625 0l1.75 -5.078125l1.078125 0l-2.640625 6.859375q-0.40625 1.078125 -0.796875 1.453125q-0.375 0.375 -1.0625 0.375q-0.1875 0 -0.359375 -0.03125q-0.171875 -0.015625 -0.34375 -0.078125l0 -0.9375q0.140625 0.046875 0.28125 0.09375q0.15625 0.046875 0.3125 0.046875q0.625 0 0.859375 -0.625q0.25 -0.609375 0.40625 -0.984375l-2.46875 -6.171875l1.15625 0z" fill-rule="nonzero"/><path fill="#02f4d5" d="m589.479 390.89273l0 0c0 -7.645172 6.197632 -13.842804 13.842773 -13.842804l118.17267 0c3.6713867 0 7.192322 1.458435 9.788391 4.054474c2.5960083 2.5960388 4.0544434 6.1170044 4.0544434 9.78833l0 47.30655c0 7.6451416 -6.197632 13.842773 -13.842834 13.842773l-118.17267 0l0 0c-7.6451416 0 -13.842773 -6.197632 -13.842773 -13.842773z" fill-rule="evenodd"/><path fill="#000000" fill-opacity="0.0" d="m606.07745 394.34128l112.66138 0l0 40.409454l-112.66138 0z" fill-rule="evenodd"/><path fill="#013a3b" d="m618.88995 410.10037q1.4375 0 2.265625 0.6875q0.84375 0.6875 0.890625 2.015625l-1.078125 0q-0.09375 -0.875 -0.625 -1.3125q-0.53125 -0.4375 -1.5 -0.4375q-0.90625 0 -1.421875 0.375q-0.5 0.375 -0.5 1.078125q0 0.515625 0.421875 0.84375q0.4375 0.3125 2.328125 0.6875q1.375 0.28125 2.046875 0.875q0.6875 0.578125 0.6875 1.609375q0 1.1875 -0.984375 1.875q-0.96875 0.671875 -2.359375 0.671875q-1.5625 0 -2.546875 -0.78125q-0.984375 -0.78125 -0.984375 -2.234375l1.078125 0q0 0.96875 0.6875 1.515625q0.6875 0.546875 1.796875 0.546875q1.046875 0 1.609375 -0.40625q0.5625 -0.40625 0.5625 -1.15625q0 -0.609375 -0.515625 -0.96875q-0.515625 -0.375 -1.890625 -0.640625q-1.828125 -0.34375 -2.453125 -0.890625q-0.625 -0.5625 -0.625 -1.453125q0 -1.15625 0.875 -1.828125q0.890625 -0.671875 2.234375 -0.671875zm5.7441406 2.5625l0 4.234375q0 0.515625 0.34375 0.875q0.34375 0.34375 0.921875 0.34375q0.890625 0 1.359375 -0.53125q0.484375 -0.546875 0.484375 -1.375l0 -3.546875l1.015625 0l0 6.203125l-0.953125 0l0 -0.984375l-0.03125 0q-0.34375 0.59375 -0.859375 0.859375q-0.5 0.265625 -1.15625 0.265625q-1.09375 0 -1.625 -0.546875q-0.515625 -0.5625 -0.515625 -1.65625l0 -4.140625l1.015625 0zm8.720703 -0.140625q1.328125 0 2.09375 0.921875q0.765625 0.90625 0.765625 2.34375q0 1.4375 -0.765625 2.328125q-0.765625 0.890625 -2.0625 0.890625q-0.578125 0 -1.140625 -0.234375q-0.546875 -0.234375 -0.875 -0.734375l-0.015625 0l0 3.203125l-1.03125 0l0 -8.578125l1.03125 0l0 0.84375l0.015625 0q0.25 -0.484375 0.765625 -0.734375q0.515625 -0.25 1.21875 -0.25zm-2.046875 3.234375q0 1.078125 0.515625 1.71875q0.53125 0.640625 1.453125 0.640625q0.875 0 1.359375 -0.625q0.5 -0.640625 0.5 -1.78125q0 -1.0 -0.515625 -1.640625q-0.515625 -0.65625 -1.421875 -0.65625q-0.890625 0 -1.390625 0.65625q-0.5 0.65625 -0.5 1.6875zm9.160156 -3.234375q1.328125 0 2.09375 0.921875q0.765625 0.90625 0.765625 2.34375q0 1.4375 -0.765625 2.328125q-0.765625 0.890625 -2.0625 0.890625q-0.578125 0 -1.140625 -0.234375q-0.546875 -0.234375 -0.875 -0.734375l-0.015625 0l0 3.203125l-1.03125 0l0 -8.578125l1.03125 0l0 0.84375l0.015625 0q0.25 -0.484375 0.765625 -0.734375q0.515625 -0.25 1.21875 -0.25zm-2.046875 3.234375q0 1.078125 0.515625 1.71875q0.53125 0.640625 1.453125 0.640625q0.875 0 1.359375 -0.625q0.5 -0.640625 0.5 -1.78125q0 -1.0 -0.515625 -1.640625q-0.515625 -0.65625 -1.421875 -0.65625q-0.890625 0 -1.390625 0.65625q-0.5 0.65625 -0.5 1.6875zm8.785156 -3.234375q1.40625 0 2.203125 0.90625q0.796875 0.90625 0.796875 2.34375q0 1.453125 -0.828125 2.34375q-0.8125 0.890625 -2.171875 0.890625q-1.359375 0 -2.1875 -0.875q-0.828125 -0.890625 -0.828125 -2.359375q0 -1.484375 0.8125 -2.359375q0.8125 -0.890625 2.203125 -0.890625zm-1.9375 3.25q0 1.0625 0.546875 1.703125q0.546875 0.640625 1.390625 0.640625q0.828125 0 1.375 -0.640625q0.546875 -0.640625 0.546875 -1.703125q0 -1.0625 -0.546875 -1.703125q-0.53125 -0.65625 -1.390625 -0.65625q-0.828125 0 -1.375 0.640625q-0.546875 0.640625 -0.546875 1.71875zm9.234375 -3.265625q0.03125 0 0.0625 0q0.03125 0 0.078125 0.015625l0 1.078125q-1.15625 0 -1.703125 0.609375q-0.546875 0.609375 -0.546875 1.875l0 2.78125l-1.015625 0l0 -6.203125l0.953125 0l0 1.296875l0.03125 0q0.359375 -0.734375 0.875 -1.09375q0.53125 -0.359375 1.265625 -0.359375zm2.3828125 -1.703125l0 1.859375l1.234375 0l0 0.90625l-1.234375 0l0 3.875q0 0.46875 0.296875 0.5q0.3125 0.015625 0.65625 0.015625l0.28125 0l0 0.90625l-0.84375 0q-0.84375 0 -1.125 -0.296875q-0.28125 -0.296875 -0.28125 -1.0l0 -4.0l-1.0625 0l0 -0.90625l1.0625 0l0 -1.859375l1.015625 0zm3.4355469 -0.5l0 1.25l-1.015625 0l0 -1.25l1.015625 0zm0 2.359375l0 6.203125l-1.015625 0l0 -6.203125l1.015625 0zm4.6035156 -0.140625q1.109375 0 1.609375 0.578125q0.515625 0.5625 0.515625 1.640625l0 4.125l-1.015625 0l0 -4.234375q0 -0.53125 -0.34375 -0.875q-0.328125 -0.34375 -0.9375 -0.34375q-0.859375 0 -1.34375 0.53125q-0.484375 0.53125 -0.484375 1.375l0 3.546875l-1.015625 0l0 -6.203125l0.96875 0l0 0.984375l0.015625 0q0.34375 -0.578125 0.828125 -0.84375q0.5 -0.28125 1.203125 -0.28125zm6.189453 0q0.640625 0 1.109375 0.28125q0.484375 0.28125 0.75 0.75l0 0l0 -0.890625l0.96875 0l0 5.734375q0 1.46875 -0.703125 2.21875q-0.703125 0.765625 -2.171875 0.765625q-1.0625 0 -1.796875 -0.46875q-0.734375 -0.46875 -0.78125 -1.34375l1.015625 0q0.03125 0.46875 0.515625 0.734375q0.484375 0.265625 1.09375 0.265625q0.90625 0 1.375 -0.59375q0.484375 -0.59375 0.484375 -1.78125l0 -0.390625l-0.015625 0q-0.234375 0.515625 -0.765625 0.828125q-0.515625 0.3125 -1.171875 0.3125q-1.265625 0 -2.015625 -0.875q-0.75 -0.875 -0.75 -2.28125q0 -1.421875 0.75 -2.34375q0.75 -0.921875 2.109375 -0.921875zm-1.78125 3.15625q0 1.09375 0.453125 1.734375q0.46875 0.625 1.296875 0.625q0.84375 0 1.34375 -0.65625q0.5 -0.65625 0.5 -1.75q0 -0.984375 -0.46875 -1.59375q-0.453125 -0.625 -1.3125 -0.625q-0.84375 0 -1.328125 0.625q-0.484375 0.609375 -0.484375 1.640625zm13.287109 -5.578125q1.421875 0 2.375 0.734375q0.953125 0.734375 1.140625 2.046875l-1.125 0q-0.1875 -0.890625 -0.828125 -1.359375q-0.640625 -0.46875 -1.578125 -0.46875q-1.359375 0 -2.140625 0.96875q-0.765625 0.953125 -0.765625 2.5q0 1.640625 0.75 2.625q0.765625 0.96875 2.171875 0.96875q1.046875 0 1.71875 -0.671875q0.671875 -0.671875 0.75 -1.8125l1.140625 0q-0.1875 1.671875 -1.15625 2.5625q-0.96875 0.875 -2.546875 0.875q-1.84375 0 -2.90625 -1.21875q-1.0625 -1.21875 -1.0625 -3.25q0 -2.0 1.09375 -3.25q1.09375 -1.25 2.96875 -1.25zm7.5410156 2.421875q1.40625 0 2.203125 0.90625q0.796875 0.90625 0.796875 2.34375q0 1.453125 -0.828125 2.34375q-0.8125 0.890625 -2.171875 0.890625q-1.359375 0 -2.1875 -0.875q-0.828125 -0.890625 -0.828125 -2.359375q0 -1.484375 0.8125 -2.359375q0.8125 -0.890625 2.203125 -0.890625zm-1.9375 3.25q0 1.0625 0.546875 1.703125q0.546875 0.640625 1.390625 0.640625q0.828125 0 1.375 -0.640625q0.546875 -0.640625 0.546875 -1.703125q0 -1.0625 -0.546875 -1.703125q-0.53125 -0.65625 -1.390625 -0.65625q-0.828125 0 -1.375 0.640625q-0.546875 0.640625 -0.546875 1.71875zm9.203125 -3.25q1.328125 0 2.09375 0.921875q0.765625 0.90625 0.765625 2.34375q0 1.4375 -0.765625 2.328125q-0.765625 0.890625 -2.0625 0.890625q-0.578125 0 -1.140625 -0.234375q-0.546875 -0.234375 -0.875 -0.734375l-0.015625 0l0 3.203125l-1.03125 0l0 -8.578125l1.03125 0l0 0.84375l0.015625 0q0.25 -0.484375 0.765625 -0.734375q0.515625 -0.25 1.21875 -0.25zm-2.046875 3.234375q0 1.078125 0.515625 1.71875q0.53125 0.640625 1.453125 0.640625q0.875 0 1.359375 -0.625q0.5 -0.640625 0.5 -1.78125q0 -1.0 -0.515625 -1.640625q-0.515625 -0.65625 -1.421875 -0.65625q-0.890625 0 -1.390625 0.65625q-0.5 0.65625 -0.5 1.6875zm6.5820312 -3.09375l1.8125 5.078125l0.015625 0l1.75 -5.078125l1.078125 0l-2.640625 6.859375q-0.40625 1.078125 -0.796875 1.453125q-0.375 0.375 -1.0625 0.375q-0.1875 0 -0.359375 -0.03125q-0.171875 -0.015625 -0.34375 -0.078125l0 -0.9375q0.140625 0.046875 0.28125 0.09375q0.15625 0.046875 0.3125 0.046875q0.625 0 0.859375 -0.625q0.25 -0.609375 0.40625 -0.984375l-2.46875 -6.171875l1.15625 0z" fill-rule="nonzero"/><path fill="#d0fdf2" d="m752.353 390.89273l0 0c0 -7.645172 6.197632 -13.842804 13.842773 -13.842804l118.17267 0c3.6713867 0 7.192322 1.458435 9.78833 4.054474c2.5960693 2.5960388 4.0545044 6.1170044 4.0545044 9.78833l0 47.30655c0 7.6451416 -6.197632 13.842773 -13.842834 13.842773l-118.17267 0l0 0c-7.6451416 0 -13.842773 -6.197632 -13.842773 -13.842773z" fill-rule="evenodd"/><path stroke="#013a3b" stroke-width="1.0" stroke-linejoin="round" stroke-linecap="butt" stroke-dasharray="4.0,3.0" d="m752.353 390.89273l0 0c0 -7.645172 6.197632 -13.842804 13.842773 -13.842804l118.17267 0c3.6713867 0 7.192322 1.458435 9.78833 4.054474c2.5960693 2.5960388 4.0545044 6.1170044 4.0545044 9.78833l0 47.30655c0 7.6451416 -6.197632 13.842773 -13.842834 13.842773l-118.17267 0l0 0c-7.6451416 0 -13.842773 -6.197632 -13.842773 -13.842773z" fill-rule="evenodd"/><path fill="#000000" fill-opacity="0.0" d="m768.9514 394.34128l112.66144 0l0 40.409454l-112.66144 0z" fill-rule="evenodd"/><path fill="#013a3b" d="m781.7639 410.10037q1.4375 0 2.265625 0.6875q0.84375 0.6875 0.890625 2.015625l-1.078125 0q-0.09375 -0.875 -0.625 -1.3125q-0.53125 -0.4375 -1.5 -0.4375q-0.90625 0 -1.421875 0.375q-0.5 0.375 -0.5 1.078125q0 0.515625 0.421875 0.84375q0.4375 0.3125 2.328125 0.6875q1.375 0.28125 2.046875 0.875q0.6875 0.578125 0.6875 1.609375q0 1.1875 -0.984375 1.875q-0.96875 0.671875 -2.359375 0.671875q-1.5625 0 -2.546875 -0.78125q-0.984375 -0.78125 -0.984375 -2.234375l1.078125 0q0 0.96875 0.6875 1.515625q0.6875 0.546875 1.796875 0.546875q1.046875 0 1.609375 -0.40625q0.5625 -0.40625 0.5625 -1.15625q0 -0.609375 -0.515625 -0.96875q-0.515625 -0.375 -1.890625 -0.640625q-1.828125 -0.34375 -2.453125 -0.890625q-0.625 -0.5625 -0.625 -1.453125q0 -1.15625 0.875 -1.828125q0.890625 -0.671875 2.234375 -0.671875zm5.7441406 2.5625l0 4.234375q0 0.515625 0.34375 0.875q0.34375 0.34375 0.921875 0.34375q0.890625 0 1.359375 -0.53125q0.484375 -0.546875 0.484375 -1.375l0 -3.546875l1.015625 0l0 6.203125l-0.953125 0l0 -0.984375l-0.03125 0q-0.34375 0.59375 -0.859375 0.859375q-0.5 0.265625 -1.15625 0.265625q-1.09375 0 -1.625 -0.546875q-0.515625 -0.5625 -0.515625 -1.65625l0 -4.140625l1.015625 0zm8.720703 -0.140625q1.328125 0 2.09375 0.921875q0.765625 0.90625 0.765625 2.34375q0 1.4375 -0.765625 2.328125q-0.765625 0.890625 -2.0625 0.890625q-0.578125 0 -1.140625 -0.234375q-0.546875 -0.234375 -0.875 -0.734375l-0.015625 0l0 3.203125l-1.03125 0l0 -8.578125l1.03125 0l0 0.84375l0.015625 0q0.25 -0.484375 0.765625 -0.734375q0.515625 -0.25 1.21875 -0.25zm-2.046875 3.234375q0 1.078125 0.515625 1.71875q0.53125 0.640625 1.453125 0.640625q0.875 0 1.359375 -0.625q0.5 -0.640625 0.5 -1.78125q0 -1.0 -0.515625 -1.640625q-0.515625 -0.65625 -1.421875 -0.65625q-0.890625 0 -1.390625 0.65625q-0.5 0.65625 -0.5 1.6875zm9.160156 -3.234375q1.328125 0 2.09375 0.921875q0.765625 0.90625 0.765625 2.34375q0 1.4375 -0.765625 2.328125q-0.765625 0.890625 -2.0625 0.890625q-0.578125 0 -1.140625 -0.234375q-0.546875 -0.234375 -0.875 -0.734375l-0.015625 0l0 3.203125l-1.03125 0l0 -8.578125l1.03125 0l0 0.84375l0.015625 0q0.25 -0.484375 0.765625 -0.734375q0.515625 -0.25 1.21875 -0.25zm-2.046875 3.234375q0 1.078125 0.515625 1.71875q0.53125 0.640625 1.453125 0.640625q0.875 0 1.359375 -0.625q0.5 -0.640625 0.5 -1.78125q0 -1.0 -0.515625 -1.640625q-0.515625 -0.65625 -1.421875 -0.65625q-0.890625 0 -1.390625 0.65625q-0.5 0.65625 -0.5 1.6875zm8.785156 -3.234375q1.40625 0 2.203125 0.90625q0.796875 0.90625 0.796875 2.34375q0 1.453125 -0.828125 2.34375q-0.8125 0.890625 -2.171875 0.890625q-1.359375 0 -2.1875 -0.875q-0.828125 -0.890625 -0.828125 -2.359375q0 -1.484375 0.8125 -2.359375q0.8125 -0.890625 2.203125 -0.890625zm-1.9375 3.25q0 1.0625 0.546875 1.703125q0.546875 0.640625 1.390625 0.640625q0.828125 0 1.375 -0.640625q0.546875 -0.640625 0.546875 -1.703125q0 -1.0625 -0.546875 -1.703125q-0.53125 -0.65625 -1.390625 -0.65625q-0.828125 0 -1.375 0.640625q-0.546875 0.640625 -0.546875 1.71875zm9.234375 -3.265625q0.03125 0 0.0625 0q0.03125 0 0.078125 0.015625l0 1.078125q-1.15625 0 -1.703125 0.609375q-0.546875 0.609375 -0.546875 1.875l0 2.78125l-1.015625 0l0 -6.203125l0.953125 0l0 1.296875l0.03125 0q0.359375 -0.734375 0.875 -1.09375q0.53125 -0.359375 1.265625 -0.359375zm2.3828125 -1.703125l0 1.859375l1.234375 0l0 0.90625l-1.234375 0l0 3.875q0 0.46875 0.296875 0.5q0.3125 0.015625 0.65625 0.015625l0.28125 0l0 0.90625l-0.84375 0q-0.84375 0 -1.125 -0.296875q-0.28125 -0.296875 -0.28125 -1.0l0 -4.0l-1.0625 0l0 -0.90625l1.0625 0l0 -1.859375l1.015625 0zm3.4355469 -0.5l0 1.25l-1.015625 0l0 -1.25l1.015625 0zm0 2.359375l0 6.203125l-1.015625 0l0 -6.203125l1.015625 0zm4.6035156 -0.140625q1.109375 0 1.609375 0.578125q0.515625 0.5625 0.515625 1.640625l0 4.125l-1.015625 0l0 -4.234375q0 -0.53125 -0.34375 -0.875q-0.328125 -0.34375 -0.9375 -0.34375q-0.859375 0 -1.34375 0.53125q-0.484375 0.53125 -0.484375 1.375l0 3.546875l-1.015625 0l0 -6.203125l0.96875 0l0 0.984375l0.015625 0q0.34375 -0.578125 0.828125 -0.84375q0.5 -0.28125 1.203125 -0.28125zm6.189453 0q0.640625 0 1.109375 0.28125q0.484375 0.28125 0.75 0.75l0 0l0 -0.890625l0.96875 0l0 5.734375q0 1.46875 -0.703125 2.21875q-0.703125 0.765625 -2.171875 0.765625q-1.0625 0 -1.796875 -0.46875q-0.734375 -0.46875 -0.78125 -1.34375l1.015625 0q0.03125 0.46875 0.515625 0.734375q0.484375 0.265625 1.09375 0.265625q0.90625 0 1.375 -0.59375q0.484375 -0.59375 0.484375 -1.78125l0 -0.390625l-0.015625 0q-0.234375 0.515625 -0.765625 0.828125q-0.515625 0.3125 -1.171875 0.3125q-1.265625 0 -2.015625 -0.875q-0.75 -0.875 -0.75 -2.28125q0 -1.421875 0.75 -2.34375q0.75 -0.921875 2.109375 -0.921875zm-1.78125 3.15625q0 1.09375 0.453125 1.734375q0.46875 0.625 1.296875 0.625q0.84375 0 1.34375 -0.65625q0.5 -0.65625 0.5 -1.75q0 -0.984375 -0.46875 -1.59375q-0.453125 -0.625 -1.3125 -0.625q-0.84375 0 -1.328125 0.625q-0.484375 0.609375 -0.484375 1.640625zm13.287109 -5.578125q1.421875 0 2.375 0.734375q0.953125 0.734375 1.140625 2.046875l-1.125 0q-0.1875 -0.890625 -0.828125 -1.359375q-0.640625 -0.46875 -1.578125 -0.46875q-1.359375 0 -2.140625 0.96875q-0.765625 0.953125 -0.765625 2.5q0 1.640625 0.75 2.625q0.765625 0.96875 2.171875 0.96875q1.046875 0 1.71875 -0.671875q0.671875 -0.671875 0.75 -1.8125l1.140625 0q-0.1875 1.671875 -1.15625 2.5625q-0.96875 0.875 -2.546875 0.875q-1.84375 0 -2.90625 -1.21875q-1.0625 -1.21875 -1.0625 -3.25q0 -2.0 1.09375 -3.25q1.09375 -1.25 2.96875 -1.25zm7.5410156 2.421875q1.40625 0 2.203125 0.90625q0.796875 0.90625 0.796875 2.34375q0 1.453125 -0.828125 2.34375q-0.8125 0.890625 -2.171875 0.890625q-1.359375 0 -2.1875 -0.875q-0.828125 -0.890625 -0.828125 -2.359375q0 -1.484375 0.8125 -2.359375q0.8125 -0.890625 2.203125 -0.890625zm-1.9375 3.25q0 1.0625 0.546875 1.703125q0.546875 0.640625 1.390625 0.640625q0.828125 0 1.375 -0.640625q0.546875 -0.640625 0.546875 -1.703125q0 -1.0625 -0.546875 -1.703125q-0.53125 -0.65625 -1.390625 -0.65625q-0.828125 0 -1.375 0.640625q-0.546875 0.640625 -0.546875 1.71875zm9.203125 -3.25q1.328125 0 2.09375 0.921875q0.765625 0.90625 0.765625 2.34375q0 1.4375 -0.765625 2.328125q-0.765625 0.890625 -2.0625 0.890625q-0.578125 0 -1.140625 -0.234375q-0.546875 -0.234375 -0.875 -0.734375l-0.015625 0l0 3.203125l-1.03125 0l0 -8.578125l1.03125 0l0 0.84375l0.015625 0q0.25 -0.484375 0.765625 -0.734375q0.515625 -0.25 1.21875 -0.25zm-2.046875 3.234375q0 1.078125 0.515625 1.71875q0.53125 0.640625 1.453125 0.640625q0.875 0 1.359375 -0.625q0.5 -0.640625 0.5 -1.78125q0 -1.0 -0.515625 -1.640625q-0.515625 -0.65625 -1.421875 -0.65625q-0.890625 0 -1.390625 0.65625q-0.5 0.65625 -0.5 1.6875zm6.5820312 -3.09375l1.8125 5.078125l0.015625 0l1.75 -5.078125l1.078125 0l-2.640625 6.859375q-0.40625 1.078125 -0.796875 1.453125q-0.375 0.375 -1.0625 0.375q-0.1875 0 -0.359375 -0.03125q-0.171875 -0.015625 -0.34375 -0.078125l0 -0.9375q0.140625 0.046875 0.28125 0.09375q0.15625 0.046875 0.3125 0.046875q0.625 0 0.859375 -0.625q0.25 -0.609375 0.40625 -0.984375l-2.46875 -6.171875l1.15625 0z" fill-rule="nonzero"/><path fill="#beff42" d="m61.787403 379.86066l0 0c0 -12.785187 10.364429 -23.149628 23.149601 -23.149628l99.55906 0l0 0c6.1396637 0 12.027847 2.4389954 16.369247 6.780365c4.341385 4.3414 6.780365 10.229584 6.780365 16.369263l0 0l0 0c0 12.785156 -10.364441 23.149597 -23.149612 23.149597l-99.55906 0c-12.7851715 0 -23.149601 -10.364441 -23.149601 -23.149597z" fill-rule="evenodd"/><path fill="#013a3b" d="m129.71234 374.4719l0 1.1875l-3.5 0l0 9.28125l-1.390625 0l0 -9.28125l-3.484375 0l0 -1.1875l8.375 0zm2.6925812 2.71875q1.625 0 2.515625 1.171875q0.90625 1.171875 0.90625 3.015625l0 0.15625l-5.671875 0l0 0.078125q0 1.09375 0.625 1.75q0.640625 0.65625 1.734375 0.65625q0.828125 0 1.3125 -0.390625q0.5 -0.390625 0.65625 -1.09375l1.234375 0q-0.25 1.265625 -1.109375 1.921875q-0.84375 0.65625 -2.125 0.65625q-1.203125 0 -2.03125 -0.53125q-0.828125 -0.546875 -1.21875 -1.5q-0.390625 -0.96875 -0.390625 -1.96875q0 -1.6875 1.0 -2.796875q1.015625 -1.125 2.5625 -1.125zm-2.25 3.234375l4.359375 0q-0.0625 -0.921875 -0.671875 -1.53125q-0.609375 -0.609375 -1.53125 -0.609375q-0.859375 0 -1.46875 0.578125q-0.609375 0.578125 -0.6875 1.5625zm7.7007904 -3.0625l1.8125 2.640625l0 0l1.890625 -2.640625l1.5 0l-2.609375 3.484375l2.921875 4.09375l-1.59375 0l-2.109375 -3.140625l-2.109375 3.140625l-1.515625 0l2.859375 -3.984375l-2.640625 -3.59375l1.59375 0zm8.327286 -2.265625l0 2.265625l1.5 0l0 1.109375l-1.5 0l0 4.734375q0 0.5625 0.375 0.59375q0.375 0.03125 0.78125 0.03125l0.34375 0l0 1.109375l-1.015625 0q-1.03125 0 -1.390625 -0.359375q-0.34375 -0.375 -0.34375 -1.234375l0 -4.875l-1.296875 0l0 -1.109375l1.296875 0l0 -2.265625l1.25 0z" fill-rule="nonzero"/><path fill="#e854af" d="m61.787403 434.9715l0 0c0 -12.785156 10.364429 -23.149597 23.149601 -23.149597l99.55906 0l0 0c6.1396637 0 12.027847 2.4389648 16.369247 6.780365c4.341385 4.3414 6.780365 10.229584 6.780365 16.369232l0 0l0 0c0 12.785187 -10.364441 23.149628 -23.149612 23.149628l-99.55906 0c-12.7851715 0 -23.149601 -10.364441 -23.149601 -23.149628z" fill-rule="evenodd"/><path fill="#340625" d="m129.71234 429.58276l0 1.1875l-3.5 0l0 9.28125l-1.390625 0l0 -9.28125l-3.484375 0l0 -1.1875l8.375 0zm2.6925812 2.71875q1.625 0 2.515625 1.171875q0.90625 1.171875 0.90625 3.015625l0 0.15625l-5.671875 0l0 0.078125q0 1.09375 0.625 1.75q0.640625 0.65625 1.734375 0.65625q0.828125 0 1.3125 -0.390625q0.5 -0.390625 0.65625 -1.09375l1.234375 0q-0.25 1.265625 -1.109375 1.921875q-0.84375 0.65625 -2.125 0.65625q-1.203125 0 -2.03125 -0.53125q-0.828125 -0.546875 -1.21875 -1.5q-0.390625 -0.96875 -0.390625 -1.96875q0 -1.6875 1.0 -2.796875q1.015625 -1.125 2.5625 -1.125zm-2.25 3.234375l4.359375 0q-0.0625 -0.921875 -0.671875 -1.53125q-0.609375 -0.609375 -1.53125 -0.609375q-0.859375 0 -1.46875 0.578125q-0.609375 0.578125 -0.6875 1.5625zm7.7007904 -3.0625l1.8125 2.640625l0 0l1.890625 -2.640625l1.5 0l-2.609375 3.484375l2.921875 4.09375l-1.59375 0l-2.109375 -3.140625l-2.109375 3.140625l-1.515625 0l2.859375 -3.984375l-2.640625 -3.59375l1.59375 0zm8.327286 -2.265625l0 2.265625l1.5 0l0 1.109375l-1.5 0l0 4.734375q0 0.5625 0.375 0.59375q0.375 0.03125 0.78125 0.03125l0.34375 0l0 1.109375l-1.015625 0q-1.03125 0 -1.390625 -0.359375q-0.34375 -0.375 -0.34375 -1.234375l0 -4.875l-1.296875 0l0 -1.109375l1.296875 0l0 -2.265625l1.25 0z" fill-rule="nonzero"/><path fill="#da9df9" d="m61.787403 490.08237l0 0c0 -12.785156 10.364429 -23.149597 23.149601 -23.149597l99.55906 0l0 0c6.1396637 0 12.027847 2.4389648 16.369247 6.780365c4.341385 4.3414 6.780365 10.229584 6.780365 16.369232l0 0l0 0c0 12.785187 -10.364441 23.149628 -23.149612 23.149628l-99.55906 0c-12.7851715 0 -23.149601 -10.364441 -23.149601 -23.149628z" fill-rule="evenodd"/><path fill="#460963" d="m129.71234 484.69363l0 1.1875l-3.5 0l0 9.28125l-1.390625 0l0 -9.28125l-3.484375 0l0 -1.1875l8.375 0zm2.6925812 2.71875q1.625 0 2.515625 1.171875q0.90625 1.171875 0.90625 3.015625l0 0.15625l-5.671875 0l0 0.078125q0 1.09375 0.625 1.75q0.640625 0.65625 1.734375 0.65625q0.828125 0 1.3125 -0.390625q0.5 -0.390625 0.65625 -1.09375l1.234375 0q-0.25 1.265625 -1.109375 1.921875q-0.84375 0.65625 -2.125 0.65625q-1.203125 0 -2.03125 -0.53125q-0.828125 -0.546875 -1.21875 -1.5q-0.390625 -0.96875 -0.390625 -1.96875q0 -1.6875 1.0 -2.796875q1.015625 -1.125 2.5625 -1.125zm-2.25 3.234375l4.359375 0q-0.0625 -0.921875 -0.671875 -1.53125q-0.609375 -0.609375 -1.53125 -0.609375q-0.859375 0 -1.46875 0.578125q-0.609375 0.578125 -0.6875 1.5625zm7.7007904 -3.0625l1.8125 2.640625l0 0l1.890625 -2.640625l1.5 0l-2.609375 3.484375l2.921875 4.09375l-1.59375 0l-2.109375 -3.140625l-2.109375 3.140625l-1.515625 0l2.859375 -3.984375l-2.640625 -3.59375l1.59375 0zm8.327286 -2.265625l0 2.265625l1.5 0l0 1.109375l-1.5 0l0 4.734375q0 0.5625 0.375 0.59375q0.375 0.03125 0.78125 0.03125l0.34375 0l0 1.109375l-1.015625 0q-1.03125 0 -1.390625 -0.359375q-0.34375 -0.375 -0.34375 -1.234375l0 -4.875l-1.296875 0l0 -1.109375l1.296875 0l0 -2.265625l1.25 0z" fill-rule="nonzero"/></g></svg>
