<svg version="1.1" viewBox="0.0 0.0 960.0 540.0" fill="none" stroke="none" stroke-linecap="square" stroke-miterlimit="10" xmlns:xlink="http://www.w3.org/1999/xlink" xmlns="http://www.w3.org/2000/svg"><clipPath id="g39d35d6a8c2_0_63.0"><path d="m0 0l960.0 0l0 540.0l-960.0 0l0 -540.0z" clip-rule="nonzero"/></clipPath><g clip-path="url(#g39d35d6a8c2_0_63.0)"><path fill="#013a3b" d="m0 0l960.0 0l0 540.0l-960.0 0z" fill-rule="evenodd"/><path fill="#000000" fill-opacity="0.0" d="m94.68767 195.03223l0 0c0 -6.179901 5.009804 -11.189713 11.189705 -11.189713l131.22687 0c2.9676971 0 5.813843 1.1789246 7.912323 3.2773895c2.0984802 2.0984802 3.2773895 4.944626 3.2773895 7.912323l0 44.32924c0 6.1799164 -5.009796 11.189713 -11.189713 11.189713l-131.22687 0c-6.179901 0 -11.189705 -5.009796 -11.189705 -11.189713z" fill-rule="evenodd"/><path stroke="#02f4d5" stroke-width="1.0" stroke-linejoin="round" stroke-linecap="butt" d="m94.68767 195.03223l0 0c0 -6.179901 5.009804 -11.189713 11.189705 -11.189713l131.22687 0c2.9676971 0 5.813843 1.1789246 7.912323 3.2773895c2.0984802 2.0984802 3.2773895 4.944626 3.2773895 7.912323l0 44.32924c0 6.1799164 -5.009796 11.189713 -11.189713 11.189713l-131.22687 0c-6.179901 0 -11.189705 -5.009796 -11.189705 -11.189713z" fill-rule="evenodd"/><path fill="#d0fdf2" d="m138.62465 204.48123l0 1.0625l-5.3125 0l0 3.03125l4.953125 0l0 1.0625l-4.953125 0l0 3.296875l5.359375 0l0 1.0625l-6.609375 0l0 -9.515625l6.5625 0zm7.5476074 0l0 9.515625l-1.140625 0l0 -0.9375l-0.03125 0q-0.265625 0.546875 -0.84375 0.828125q-0.578125 0.265625 -1.34375 0.265625q-1.453125 0 -2.3125 -1.0q-0.859375 -1.0 -0.859375 -2.625q0 -1.59375 0.828125 -2.578125q0.84375 -1.0 2.3125 -1.0q0.671875 0 1.28125 0.28125q0.609375 0.265625 0.9375 0.796875l0.03125 0l0 -3.546875l1.140625 0zm-5.34375 6.125q0 1.109375 0.578125 1.828125q0.578125 0.71875 1.5625 0.71875q1.0 0 1.546875 -0.71875q0.5625 -0.71875 0.5625 -1.875q0 -1.171875 -0.578125 -1.890625q-0.5625 -0.71875 -1.609375 -0.71875q-0.984375 0 -1.53125 0.71875q-0.53125 0.703125 -0.53125 1.9375zm9.947433 -3.65625q1.484375 0 2.296875 1.078125q0.828125 1.0625 0.828125 2.734375l0 0.125l-5.171875 0l0 0.09375q0 0.984375 0.578125 1.578125q0.578125 0.59375 1.578125 0.59375q0.75 0 1.1875 -0.34375q0.453125 -0.359375 0.59375 -1.0l1.125 0q-0.234375 1.140625 -1.015625 1.75q-0.765625 0.59375 -1.9375 0.59375q-1.078125 0 -1.828125 -0.484375q-0.75 -0.484375 -1.109375 -1.359375q-0.359375 -0.890625 -0.359375 -1.796875q0 -1.53125 0.90625 -2.546875q0.921875 -1.015625 2.328125 -1.015625zm-2.046875 2.9375l3.96875 0q-0.0625 -0.84375 -0.625 -1.390625q-0.546875 -0.546875 -1.375 -0.546875q-0.78125 0 -1.34375 0.53125q-0.546875 0.515625 -0.625 1.40625zm9.768036 -2.9375q0.046875 0 0.078125 0q0.03125 0 0.078125 0l0 1.203125q-1.28125 0 -1.890625 0.671875q-0.59375 0.671875 -0.59375 2.09375l0 3.078125l-1.140625 0l0 -6.890625l1.0625 0l0 1.453125l0.03125 0q0.390625 -0.828125 0.96875 -1.21875q0.59375 -0.390625 1.40625 -0.390625zm3.5099792 0q1.40625 0 1.984375 0.5q0.59375 0.5 0.59375 1.34375q0 3.578125 0 3.96875q0 0.390625 0.359375 0.390625q0.078125 0 0.171875 -0.015625q0.09375 -0.015625 0.171875 -0.046875l0 0.875q-0.15625 0.09375 -0.359375 0.140625q-0.203125 0.046875 -0.4375 0.046875q-0.46875 0 -0.71875 -0.25q-0.25 -0.265625 -0.25 -0.8125q-0.453125 0.53125 -1.0625 0.796875q-0.609375 0.265625 -1.359375 0.265625q-1.078125 0 -1.6875 -0.5q-0.59375 -0.5 -0.59375 -1.421875q0 -0.9375 0.59375 -1.46875q0.59375 -0.546875 2.78125 -0.828125q0.734375 -0.09375 1.0 -0.28125q0.265625 -0.1875 0.265625 -0.5625q0 -0.578125 -0.375 -0.859375q-0.359375 -0.28125 -1.15625 -0.28125q-0.84375 0 -1.265625 0.3125q-0.421875 0.3125 -0.453125 0.984375l-1.125 0q0.046875 -1.140625 0.796875 -1.71875q0.765625 -0.578125 2.125 -0.578125zm-2.0 5.1875q0 0.484375 0.34375 0.75q0.359375 0.265625 1.0 0.265625q0.953125 0 1.515625 -0.46875q0.578125 -0.484375 0.578125 -1.0625l0 -1.1875q-0.28125 0.203125 -0.734375 0.28125q-0.453125 0.0625 -1.21875 0.171875q-0.75 0.109375 -1.125 0.40625q-0.359375 0.296875 -0.359375 0.84375zm14.455399 -7.65625q1.3125 0 2.078125 0.71875q0.78125 0.703125 0.78125 2.09375q0 1.40625 -0.78125 2.109375q-0.765625 0.703125 -1.984375 0.703125l-3.0625 0l0 3.890625l-1.25 0l0 -9.515625l4.21875 0zm-0.34375 4.5625q0.90625 0 1.421875 -0.421875q0.515625 -0.4375 0.515625 -1.328125q0 -0.875 -0.515625 -1.3125q-0.5 -0.4375 -1.5 -0.4375l-2.546875 0l0 3.5l2.625 0zm7.728409 -2.09375q0.046875 0 0.078125 0q0.03125 0 0.078125 0l0 1.203125q-1.28125 0 -1.890625 0.671875q-0.59375 0.671875 -0.59375 2.09375l0 3.078125l-1.140625 0l0 -6.890625l1.0625 0l0 1.453125l0.03125 0q0.390625 -0.828125 0.96875 -1.21875q0.59375 -0.390625 1.40625 -0.390625zm3.7443542 0q1.5625 0 2.453125 1.015625q0.890625 1.0 0.890625 2.59375q0 1.609375 -0.921875 2.609375q-0.90625 0.984375 -2.421875 0.984375q-1.5 0 -2.421875 -0.96875q-0.921875 -0.984375 -0.921875 -2.625q0 -1.640625 0.90625 -2.625q0.90625 -0.984375 2.4375 -0.984375zm-2.15625 3.609375q0 1.1875 0.609375 1.890625q0.609375 0.703125 1.546875 0.703125q0.921875 0 1.53125 -0.703125q0.609375 -0.71875 0.609375 -1.890625q0 -1.171875 -0.609375 -1.890625q-0.59375 -0.71875 -1.546875 -0.71875q-0.90625 0 -1.53125 0.703125q-0.609375 0.703125 -0.609375 1.90625zm8.403259 -5.515625l0 2.0625l1.375 0l0 1.0l-1.375 0l0 4.3125q0 0.515625 0.34375 0.546875q0.34375 0.03125 0.71875 0.03125l0.3125 0l0 1.0l-0.9375 0q-0.921875 0 -1.25 -0.328125q-0.3125 -0.328125 -0.3125 -1.109375l0 -4.453125l-1.1875 0l0 -1.0l1.1875 0l0 -2.0625l1.125 0zm5.3316956 1.90625q1.484375 0 2.296875 1.078125q0.828125 1.0625 0.828125 2.734375l0 0.125l-5.171875 0l0 0.09375q0 0.984375 0.578125 1.578125q0.578125 0.59375 1.578125 0.59375q0.75 0 1.1875 -0.34375q0.453125 -0.359375 0.59375 -1.0l1.125 0q-0.234375 1.140625 -1.015625 1.75q-0.765625 0.59375 -1.9375 0.59375q-1.078125 0 -1.828125 -0.484375q-0.75 -0.484375 -1.109375 -1.359375q-0.359375 -0.890625 -0.359375 -1.796875q0 -1.53125 0.90625 -2.546875q0.921875 -1.015625 2.328125 -1.015625zm-2.046875 2.9375l3.96875 0q-0.0625 -0.84375 -0.625 -1.390625q-0.546875 -0.546875 -1.375 -0.546875q-0.78125 0 -1.34375 0.53125q-0.546875 0.515625 -0.625 1.40625zm9.221161 -2.9375q1.25 0 2.03125 0.609375q0.796875 0.59375 0.9375 1.765625l-1.171875 0q-0.140625 -0.671875 -0.59375 -1.015625q-0.4375 -0.359375 -1.109375 -0.359375q-1.0625 0 -1.609375 0.703125q-0.546875 0.703125 -0.546875 1.984375q0 1.140625 0.546875 1.828125q0.546875 0.6875 1.46875 0.6875q0.828125 0 1.296875 -0.4375q0.484375 -0.453125 0.59375 -1.234375l1.15625 0q-0.1875 1.28125 -0.96875 1.984375q-0.78125 0.6875 -2.0625 0.6875q-1.5 0 -2.359375 -0.9375q-0.859375 -0.953125 -0.859375 -2.578125q0 -1.6875 0.859375 -2.6875q0.875 -1.0 2.390625 -1.0zm5.846161 -1.90625l0 2.0625l1.375 0l0 1.0l-1.375 0l0 4.3125q0 0.515625 0.34375 0.546875q0.34375 0.03125 0.71875 0.03125l0.3125 0l0 1.0l-0.9375 0q-0.921875 0 -1.25 -0.328125q-0.3125 -0.328125 -0.3125 -1.109375l0 -4.453125l-1.1875 0l0 -1.0l1.1875 0l0 -2.0625l1.125 0z" fill-rule="nonzero"/><path fill="#d0fdf2" d="m139.75482 220.48123l0 4.75l4.828125 -4.75l1.640625 0l-4.015625 3.84375l4.171875 5.671875l-1.59375 0l-3.4375 -4.8125l-1.59375 1.484375l0 3.328125l-1.25 0l0 -9.515625l1.25 0zm8.41449 2.625l0 4.703125q0 0.578125 0.375 0.96875q0.375 0.375 1.03125 0.375q0.96875 0 1.5 -0.59375q0.53125 -0.59375 0.53125 -1.515625l0 -3.9375l1.140625 0l0 6.890625l-1.0625 0l0 -1.09375l-0.03125 0q-0.375 0.65625 -0.953125 0.953125q-0.5625 0.296875 -1.296875 0.296875q-1.203125 0 -1.78125 -0.609375q-0.578125 -0.625 -0.578125 -1.84375l0 -4.59375l1.125 0zm7.4593506 -2.625l0 3.5625l0.015625 0q0.265625 -0.53125 0.828125 -0.8125q0.578125 -0.28125 1.375 -0.28125q1.484375 0 2.328125 1.015625q0.84375 1.015625 0.84375 2.609375q0 1.59375 -0.84375 2.59375q-0.84375 0.984375 -2.296875 0.984375q-0.640625 0 -1.265625 -0.265625q-0.609375 -0.265625 -0.96875 -0.8125l-0.015625 0l0 0.921875l-1.140625 0l0 -9.515625l1.140625 0zm-0.046875 6.0625q0 1.203125 0.578125 1.90625q0.578125 0.703125 1.59375 0.703125q0.984375 0 1.515625 -0.703125q0.546875 -0.703125 0.546875 -1.953125q0 -1.109375 -0.578125 -1.828125q-0.5625 -0.71875 -1.5625 -0.71875q-1.0 0 -1.546875 0.734375q-0.546875 0.71875 -0.546875 1.859375zm9.634933 -3.59375q1.484375 0 2.296875 1.078125q0.828125 1.0625 0.828125 2.734375l0 0.125l-5.171875 0l0 0.09375q0 0.984375 0.578125 1.578125q0.578125 0.59375 1.578125 0.59375q0.75 0 1.1875 -0.34375q0.453125 -0.359375 0.59375 -1.0l1.125 0q-0.234375 1.140625 -1.015625 1.75q-0.765625 0.59375 -1.9375 0.59375q-1.078125 0 -1.828125 -0.484375q-0.75 -0.484375 -1.109375 -1.359375q-0.359375 -0.890625 -0.359375 -1.796875q0 -1.53125 0.90625 -2.546875q0.921875 -1.015625 2.328125 -1.015625zm-2.046875 2.9375l3.96875 0q-0.0625 -0.84375 -0.625 -1.390625q-0.546875 -0.546875 -1.375 -0.546875q-0.78125 0 -1.34375 0.53125q-0.546875 0.515625 -0.625 1.40625zm9.768036 -2.9375q0.046875 0 0.078125 0q0.03125 0 0.078125 0l0 1.203125q-1.28125 0 -1.890625 0.671875q-0.59375 0.671875 -0.59375 2.09375l0 3.078125l-1.140625 0l0 -6.890625l1.0625 0l0 1.453125l0.03125 0q0.390625 -0.828125 0.96875 -1.21875q0.59375 -0.390625 1.40625 -0.390625zm4.3446198 0q1.25 0 1.8125 0.640625q0.5625 0.640625 0.5625 1.8125l0 4.59375l-1.140625 0l0 -4.703125q0 -0.59375 -0.375 -0.96875q-0.375 -0.375 -1.03125 -0.375q-0.953125 0 -1.5 0.59375q-0.53125 0.578125 -0.53125 1.515625l0 3.9375l-1.125 0l0 -6.890625l1.0625 0l0 1.09375l0.03125 0q0.375 -0.640625 0.921875 -0.9375q0.546875 -0.3125 1.3125 -0.3125zm6.9437256 0q1.484375 0 2.296875 1.078125q0.828125 1.0625 0.828125 2.734375l0 0.125l-5.171875 0l0 0.09375q0 0.984375 0.578125 1.578125q0.578125 0.59375 1.578125 0.59375q0.75 0 1.1875 -0.34375q0.453125 -0.359375 0.59375 -1.0l1.125 0q-0.234375 1.140625 -1.015625 1.75q-0.765625 0.59375 -1.9375 0.59375q-1.078125 0 -1.828125 -0.484375q-0.75 -0.484375 -1.109375 -1.359375q-0.359375 -0.890625 -0.359375 -1.796875q0 -1.53125 0.90625 -2.546875q0.921875 -1.015625 2.328125 -1.015625zm-2.046875 2.9375l3.96875 0q-0.0625 -0.84375 -0.625 -1.390625q-0.546875 -0.546875 -1.375 -0.546875q-0.78125 0 -1.34375 0.53125q-0.546875 0.515625 -0.625 1.40625zm7.908661 -4.84375l0 2.0625l1.375 0l0 1.0l-1.375 0l0 4.3125q0 0.515625 0.34375 0.546875q0.34375 0.03125 0.71875 0.03125l0.3125 0l0 1.0l-0.9375 0q-0.921875 0 -1.25 -0.328125q-0.3125 -0.328125 -0.3125 -1.109375l0 -4.453125l-1.1875 0l0 -1.0l1.1875 0l0 -2.0625l1.125 0zm5.3316956 1.90625q1.484375 0 2.296875 1.078125q0.828125 1.0625 0.828125 2.734375l0 0.125l-5.171875 0l0 0.09375q0 0.984375 0.578125 1.578125q0.578125 0.59375 1.578125 0.59375q0.75 0 1.1875 -0.34375q0.453125 -0.359375 0.59375 -1.0l1.125 0q-0.234375 1.140625 -1.015625 1.75q-0.765625 0.59375 -1.9375 0.59375q-1.078125 0 -1.828125 -0.484375q-0.75 -0.484375 -1.109375 -1.359375q-0.359375 -0.890625 -0.359375 -1.796875q0 -1.53125 0.90625 -2.546875q0.921875 -1.015625 2.328125 -1.015625zm-2.046875 2.9375l3.96875 0q-0.0625 -0.84375 -0.625 -1.390625q-0.546875 -0.546875 -1.375 -0.546875q-0.78125 0 -1.34375 0.53125q-0.546875 0.515625 -0.625 1.40625zm8.627411 -2.9375q1.390625 0 2.0625 0.546875q0.6875 0.53125 0.75 1.609375l-1.125 0l0 -0.015625q-0.046875 -0.546875 -0.484375 -0.84375q-0.4375 -0.296875 -1.109375 -0.296875q-0.6875 0 -1.09375 0.234375q-0.390625 0.21875 -0.390625 0.640625q0 0.375 0.34375 0.625q0.359375 0.234375 1.0625 0.375l1.0625 0.25q1.0 0.21875 1.515625 0.6875q0.53125 0.453125 0.53125 1.21875q0 1.015625 -0.796875 1.59375q-0.78125 0.578125 -2.140625 0.578125q-1.3125 0 -2.09375 -0.578125q-0.765625 -0.59375 -0.828125 -1.75l1.140625 0q0.015625 0.640625 0.5 0.984375q0.5 0.34375 1.34375 0.34375q0.828125 0 1.25 -0.25q0.421875 -0.265625 0.421875 -0.78125q0 -0.453125 -0.421875 -0.71875q-0.421875 -0.28125 -1.71875 -0.53125q-1.296875 -0.265625 -1.828125 -0.71875q-0.53125 -0.46875 -0.53125 -1.25q0 -0.90625 0.734375 -1.421875q0.734375 -0.53125 1.84375 -0.53125z" fill-rule="nonzero"/><path fill="#000000" fill-opacity="0.0" d="m171.49081 312.85303l0 -62.299225" fill-rule="evenodd"/><path stroke="#02f4d5" stroke-width="1.0" stroke-linejoin="round" stroke-linecap="butt" stroke-dasharray="4.0,3.0" d="m171.49081 312.85303l0 -62.299225" fill-rule="evenodd"/><path fill="#000000" fill-opacity="0.0" d="m118.90902 386.62543l0 0c0 -6.1799316 5.009804 -11.189728 11.189705 -11.189728l131.22687 0c2.9677124 0 5.813843 1.1789246 7.912323 3.2774048c2.0984802 2.0984802 3.2774048 4.9446106 3.2774048 7.912323l0 44.329224c0 6.179901 -5.009796 11.189728 -11.189728 11.189728l-131.22687 0c-6.179901 0 -11.189705 -5.0098267 -11.189705 -11.189728z" fill-rule="evenodd"/><path stroke="#02f4d5" stroke-width="1.0" stroke-linejoin="round" stroke-linecap="butt" d="m118.90902 386.62543l0 0c0 -6.1799316 5.009804 -11.189728 11.189705 -11.189728l131.22687 0c2.9677124 0 5.813843 1.1789246 7.912323 3.2774048c2.0984802 2.0984802 3.2774048 4.9446106 3.2774048 7.912323l0 44.329224c0 6.179901 -5.009796 11.189728 -11.189728 11.189728l-131.22687 0c-6.179901 0 -11.189705 -5.0098267 -11.189705 -11.189728z" fill-rule="evenodd"/><path fill="#d0fdf2" d="m162.84601 396.0744l0 1.0625l-5.3125 0l0 3.03125l4.953125 0l0 1.0625l-4.953125 0l0 3.296875l5.359375 0l0 1.0625l-6.609375 0l0 -9.515625l6.5625 0zm7.5476074 0l0 9.515625l-1.140625 0l0 -0.9375l-0.03125 0q-0.265625 0.546875 -0.84375 0.828125q-0.578125 0.265625 -1.34375 0.265625q-1.453125 0 -2.3125 -1.0q-0.859375 -1.0 -0.859375 -2.625q0 -1.59375 0.828125 -2.578125q0.84375 -1.0 2.3125 -1.0q0.671875 0 1.28125 0.28125q0.609375 0.265625 0.9375 0.796875l0.03125 0l0 -3.546875l1.140625 0zm-5.34375 6.125q0 1.109375 0.578125 1.828125q0.578125 0.71875 1.5625 0.71875q1.0 0 1.546875 -0.71875q0.5625 -0.71875 0.5625 -1.875q0 -1.171875 -0.578125 -1.890625q-0.5625 -0.71875 -1.609375 -0.71875q-0.984375 0 -1.53125 0.71875q-0.53125 0.703125 -0.53125 1.9375zm9.947433 -3.65625q1.484375 0 2.296875 1.078125q0.828125 1.0625 0.828125 2.734375l0 0.125l-5.171875 0l0 0.09375q0 0.984375 0.578125 1.578125q0.578125 0.59375 1.578125 0.59375q0.75 0 1.1875 -0.34375q0.453125 -0.359375 0.59375 -1.0l1.125 0q-0.234375 1.140625 -1.015625 1.75q-0.765625 0.59375 -1.9375 0.59375q-1.078125 0 -1.828125 -0.484375q-0.75 -0.484375 -1.109375 -1.359375q-0.359375 -0.890625 -0.359375 -1.796875q0 -1.53125 0.90625 -2.546875q0.921875 -1.015625 2.328125 -1.015625zm-2.046875 2.9375l3.96875 0q-0.0625 -0.84375 -0.625 -1.390625q-0.546875 -0.546875 -1.375 -0.546875q-0.78125 0 -1.34375 0.53125q-0.546875 0.515625 -0.625 1.40625zm9.768036 -2.9375q0.046875 0 0.078125 0q0.03125 0 0.078125 0l0 1.203125q-1.28125 0 -1.890625 0.671875q-0.59375 0.671875 -0.59375 2.09375l0 3.078125l-1.140625 0l0 -6.890625l1.0625 0l0 1.453125l0.03125 0q0.390625 -0.828125 0.96875 -1.21875q0.59375 -0.390625 1.40625 -0.390625zm3.5099792 0q1.40625 0 1.984375 0.5q0.59375 0.5 0.59375 1.34375q0 3.578125 0 3.96875q0 0.390625 0.359375 0.390625q0.078125 0 0.171875 -0.015625q0.09375 -0.015625 0.171875 -0.046875l0 0.875q-0.15625 0.09375 -0.359375 0.140625q-0.203125 0.046875 -0.4375 0.046875q-0.46875 0 -0.71875 -0.25q-0.25 -0.265625 -0.25 -0.8125q-0.453125 0.53125 -1.0625 0.796875q-0.609375 0.265625 -1.359375 0.265625q-1.078125 0 -1.6875 -0.5q-0.59375 -0.5 -0.59375 -1.421875q0 -0.9375 0.59375 -1.46875q0.59375 -0.546875 2.78125 -0.828125q0.734375 -0.09375 1.0 -0.28125q0.265625 -0.1875 0.265625 -0.5625q0 -0.578125 -0.375 -0.859375q-0.359375 -0.28125 -1.15625 -0.28125q-0.84375 0 -1.265625 0.3125q-0.421875 0.3125 -0.453125 0.984375l-1.125 0q0.046875 -1.140625 0.796875 -1.71875q0.765625 -0.578125 2.125 -0.578125zm-2.0 5.1875q0 0.484375 0.34375 0.75q0.359375 0.265625 1.0 0.265625q0.953125 0 1.515625 -0.46875q0.578125 -0.484375 0.578125 -1.0625l0 -1.1875q-0.28125 0.203125 -0.734375 0.28125q-0.453125 0.0625 -1.21875 0.171875q-0.75 0.109375 -1.125 0.40625q-0.359375 0.296875 -0.359375 0.84375zm14.455399 -7.65625q1.3125 0 2.078125 0.71875q0.78125 0.703125 0.78125 2.09375q0 1.40625 -0.78125 2.109375q-0.765625 0.703125 -1.984375 0.703125l-3.0625 0l0 3.890625l-1.25 0l0 -9.515625l4.21875 0zm-0.34375 4.5625q0.90625 0 1.421875 -0.421875q0.515625 -0.4375 0.515625 -1.328125q0 -0.875 -0.515625 -1.3125q-0.5 -0.4375 -1.5 -0.4375l-2.546875 0l0 3.5l2.625 0zm7.728409 -2.09375q0.046875 0 0.078125 0q0.03125 0 0.078125 0l0 1.203125q-1.28125 0 -1.890625 0.671875q-0.59375 0.671875 -0.59375 2.09375l0 3.078125l-1.140625 0l0 -6.890625l1.0625 0l0 1.453125l0.03125 0q0.390625 -0.828125 0.96875 -1.21875q0.59375 -0.390625 1.40625 -0.390625zm3.7443542 0q1.5625 0 2.453125 1.015625q0.890625 1.0 0.890625 2.59375q0 1.609375 -0.921875 2.609375q-0.90625 0.984375 -2.421875 0.984375q-1.5 0 -2.421875 -0.96875q-0.921875 -0.984375 -0.921875 -2.625q0 -1.640625 0.90625 -2.625q0.90625 -0.984375 2.4375 -0.984375zm-2.15625 3.609375q0 1.1875 0.609375 1.890625q0.609375 0.703125 1.546875 0.703125q0.921875 0 1.53125 -0.703125q0.609375 -0.71875 0.609375 -1.890625q0 -1.171875 -0.609375 -1.890625q-0.59375 -0.71875 -1.546875 -0.71875q-0.90625 0 -1.53125 0.703125q-0.609375 0.703125 -0.609375 1.90625zm8.403259 -5.515625l0 2.0625l1.375 0l0 1.0l-1.375 0l0 4.3125q0 0.515625 0.34375 0.546875q0.34375 0.03125 0.71875 0.03125l0.3125 0l0 1.0l-0.9375 0q-0.921875 0 -1.25 -0.328125q-0.3125 -0.328125 -0.3125 -1.109375l0 -4.453125l-1.1875 0l0 -1.0l1.1875 0l0 -2.0625l1.125 0zm5.3316956 1.90625q1.484375 0 2.296875 1.078125q0.828125 1.0625 0.828125 2.734375l0 0.125l-5.171875 0l0 0.09375q0 0.984375 0.578125 1.578125q0.578125 0.59375 1.578125 0.59375q0.75 0 1.1875 -0.34375q0.453125 -0.359375 0.59375 -1.0l1.125 0q-0.234375 1.140625 -1.015625 1.75q-0.765625 0.59375 -1.9375 0.59375q-1.078125 0 -1.828125 -0.484375q-0.75 -0.484375 -1.109375 -1.359375q-0.359375 -0.890625 -0.359375 -1.796875q0 -1.53125 0.90625 -2.546875q0.921875 -1.015625 2.328125 -1.015625zm-2.046875 2.9375l3.96875 0q-0.0625 -0.84375 -0.625 -1.390625q-0.546875 -0.546875 -1.375 -0.546875q-0.78125 0 -1.34375 0.53125q-0.546875 0.515625 -0.625 1.40625zm9.221161 -2.9375q1.25 0 2.03125 0.609375q0.796875 0.59375 0.9375 1.765625l-1.171875 0q-0.140625 -0.671875 -0.59375 -1.015625q-0.4375 -0.359375 -1.109375 -0.359375q-1.0625 0 -1.609375 0.703125q-0.546875 0.703125 -0.546875 1.984375q0 1.140625 0.546875 1.828125q0.546875 0.6875 1.46875 0.6875q0.828125 0 1.296875 -0.4375q0.484375 -0.453125 0.59375 -1.234375l1.15625 0q-0.1875 1.28125 -0.96875 1.984375q-0.78125 0.6875 -2.0625 0.6875q-1.5 0 -2.359375 -0.9375q-0.859375 -0.953125 -0.859375 -2.578125q0 -1.6875 0.859375 -2.6875q0.875 -1.0 2.390625 -1.0zm5.846161 -1.90625l0 2.0625l1.375 0l0 1.0l-1.375 0l0 4.3125q0 0.515625 0.34375 0.546875q0.34375 0.03125 0.71875 0.03125l0.3125 0l0 1.0l-0.9375 0q-0.921875 0 -1.25 -0.328125q-0.3125 -0.328125 -0.3125 -1.109375l0 -4.453125l-1.1875 0l0 -1.0l1.1875 0l0 -2.0625l1.125 0z" fill-rule="nonzero"/><path fill="#d0fdf2" d="m172.61311 412.0744l3.703125 9.515625l-1.390625 0l-1.03125 -2.859375l-4.03125 0l-1.078125 2.859375l-1.296875 0l3.71875 -9.515625l1.40625 0zm-0.75 1.140625l-1.59375 4.4375l3.21875 0l-1.578125 -4.4375l-0.046875 0zm6.714081 -1.140625l0 9.515625l-1.265625 0l0 -9.515625l1.265625 0zm8.558411 0q0.984375 0 1.640625 0.53125q0.65625 0.53125 0.65625 1.421875q0 0.703125 -0.453125 1.328125q-0.453125 0.625 -1.328125 1.125l1.71875 2.09375q0.125 -0.34375 0.203125 -0.703125q0.078125 -0.375 0.109375 -0.765625l1.078125 0q-0.09375 0.8125 -0.21875 1.234375q-0.109375 0.40625 -0.4375 1.109375l1.859375 2.140625l-1.46875 0l-1.015625 -1.171875q-0.421875 0.625 -1.15625 0.984375q-0.71875 0.34375 -1.546875 0.34375q-1.4375 0 -2.203125 -0.734375q-0.765625 -0.75 -0.765625 -1.875q0 -0.875 0.515625 -1.5625q0.515625 -0.6875 1.71875 -1.296875l-0.453125 -0.609375q-0.296875 -0.40625 -0.453125 -0.78125q-0.15625 -0.390625 -0.15625 -0.859375q0 -0.8125 0.59375 -1.375q0.59375 -0.578125 1.5625 -0.578125zm-1.015625 2.0q0 0.3125 0.171875 0.65625q0.1875 0.328125 0.734375 1.015625q0.75 -0.46875 1.015625 -0.84375q0.265625 -0.390625 0.265625 -0.8125q0 -0.421875 -0.3125 -0.71875q-0.296875 -0.296875 -0.796875 -0.296875q-0.421875 0 -0.75 0.28125q-0.328125 0.265625 -0.328125 0.71875zm-1.109375 5.0625q0 0.6875 0.546875 1.15625q0.546875 0.453125 1.265625 0.453125q0.625 0 1.140625 -0.296875q0.515625 -0.296875 0.890625 -0.828125l-2.203125 -2.625q-0.890625 0.484375 -1.265625 0.984375q-0.375 0.484375 -0.375 1.15625zm15.566895 -7.296875q1.6875 0 2.765625 0.8125q1.078125 0.8125 1.328125 2.34375l-1.265625 0q-0.1875 -1.0 -0.9375 -1.53125q-0.734375 -0.546875 -1.890625 -0.546875q-1.53125 0 -2.40625 1.125q-0.859375 1.125 -0.859375 2.90625q0 1.640625 0.890625 2.71875q0.90625 1.078125 2.375 1.078125q1.359375 0 2.203125 -0.8125q0.84375 -0.828125 0.84375 -2.140625l0 -0.140625l-3.046875 0l0 -1.078125l4.171875 0l0 5.015625l-0.78125 0l-0.34375 -1.1875q-0.515625 0.6875 -1.328125 1.0625q-0.796875 0.359375 -1.71875 0.359375q-1.953125 0 -3.25 -1.390625q-1.28125 -1.40625 -1.28125 -3.421875q0 -2.25 1.21875 -3.703125q1.21875 -1.46875 3.3125 -1.46875zm10.269485 0.234375q1.3125 0 2.078125 0.71875q0.78125 0.703125 0.78125 2.09375q0 1.40625 -0.78125 2.109375q-0.765625 0.703125 -1.984375 0.703125l-3.0625 0l0 3.890625l-1.25 0l0 -9.515625l4.21875 0zm-0.34375 4.5625q0.90625 0 1.421875 -0.421875q0.515625 -0.4375 0.515625 -1.328125q0 -0.875 -0.515625 -1.3125q-0.5 -0.4375 -1.5 -0.4375l-2.546875 0l0 3.5l2.625 0zm5.964081 -4.5625l0 6.125q0 1.171875 0.65625 1.859375q0.671875 0.6875 1.984375 0.6875q1.234375 0 1.859375 -0.6875q0.625 -0.6875 0.625 -1.859375l0 -6.125l1.265625 0l0 6.140625q0 1.6875 -0.953125 2.65625q-0.9375 0.953125 -2.796875 0.953125q-1.9375 0 -2.921875 -0.9375q-0.984375 -0.9375 -0.984375 -2.671875l0 -6.140625l1.265625 0z" fill-rule="nonzero"/><path fill="#000000" fill-opacity="0.0" d="m195.71217 312.85303l0 62.299194" fill-rule="evenodd"/><path stroke="#02f4d5" stroke-width="1.0" stroke-linejoin="round" stroke-linecap="butt" stroke-dasharray="4.0,3.0" d="m195.71217 312.85303l0 62.299194" fill-rule="evenodd"/><path fill="#000000" fill-opacity="0.0" d="m393.91864 195.03223l0 0c0 -6.179901 5.009796 -11.189713 11.189697 -11.189713l131.22687 0c2.9677124 0 5.813843 1.1789246 7.9123535 3.2773895c2.0984497 2.0984802 3.2774048 4.944626 3.2774048 7.912323l0 44.32924c0 6.1799164 -5.0098267 11.189713 -11.189758 11.189713l-131.22687 0c-6.179901 0 -11.189697 -5.009796 -11.189697 -11.189713z" fill-rule="evenodd"/><path stroke="#02f4d5" stroke-width="1.0" stroke-linejoin="round" stroke-linecap="butt" d="m393.91864 195.03223l0 0c0 -6.179901 5.009796 -11.189713 11.189697 -11.189713l131.22687 0c2.9677124 0 5.813843 1.1789246 7.9123535 3.2773895c2.0984497 2.0984802 3.2774048 4.944626 3.2774048 7.912323l0 44.32924c0 6.1799164 -5.0098267 11.189713 -11.189758 11.189713l-131.22687 0c-6.179901 0 -11.189697 -5.009796 -11.189697 -11.189713z" fill-rule="evenodd"/><path fill="#d0fdf2" d="m417.29718 204.48123l0 1.0625l-5.3125 0l0 3.03125l4.953125 0l0 1.0625l-4.953125 0l0 3.296875l5.359375 0l0 1.0625l-6.609375 0l0 -9.515625l6.5625 0zm7.5476074 0l0 9.515625l-1.140625 0l0 -0.9375l-0.03125 0q-0.265625 0.546875 -0.84375 0.828125q-0.578125 0.265625 -1.34375 0.265625q-1.453125 0 -2.3125 -1.0q-0.859375 -1.0 -0.859375 -2.625q0 -1.59375 0.828125 -2.578125q0.84375 -1.0 2.3125 -1.0q0.671875 0 1.28125 0.28125q0.609375 0.265625 0.9375 0.796875l0.03125 0l0 -3.546875l1.140625 0zm-5.34375 6.125q0 1.109375 0.578125 1.828125q0.578125 0.71875 1.5625 0.71875q1.0 0 1.546875 -0.71875q0.5625 -0.71875 0.5625 -1.875q0 -1.171875 -0.578125 -1.890625q-0.5625 -0.71875 -1.609375 -0.71875q-0.984375 0 -1.53125 0.71875q-0.53125 0.703125 -0.53125 1.9375zm9.947449 -3.65625q1.484375 0 2.296875 1.078125q0.828125 1.0625 0.828125 2.734375l0 0.125l-5.171875 0l0 0.09375q0 0.984375 0.578125 1.578125q0.578125 0.59375 1.578125 0.59375q0.75 0 1.1875 -0.34375q0.453125 -0.359375 0.59375 -1.0l1.125 0q-0.234375 1.140625 -1.015625 1.75q-0.765625 0.59375 -1.9375 0.59375q-1.078125 0 -1.828125 -0.484375q-0.75 -0.484375 -1.109375 -1.359375q-0.359375 -0.890625 -0.359375 -1.796875q0 -1.53125 0.90625 -2.546875q0.921875 -1.015625 2.328125 -1.015625zm-2.046875 2.9375l3.96875 0q-0.0625 -0.84375 -0.625 -1.390625q-0.546875 -0.546875 -1.375 -0.546875q-0.78125 0 -1.34375 0.53125q-0.546875 0.515625 -0.625 1.40625zm9.768036 -2.9375q0.046875 0 0.078125 0q0.03125 0 0.078125 0l0 1.203125q-1.28125 0 -1.890625 0.671875q-0.59375 0.671875 -0.59375 2.09375l0 3.078125l-1.140625 0l0 -6.890625l1.0625 0l0 1.453125l0.03125 0q0.390625 -0.828125 0.96875 -1.21875q0.59375 -0.390625 1.40625 -0.390625zm3.5099792 0q1.40625 0 1.984375 0.5q0.59375 0.5 0.59375 1.34375q0 3.578125 0 3.96875q0 0.390625 0.359375 0.390625q0.078125 0 0.171875 -0.015625q0.09375 -0.015625 0.171875 -0.046875l0 0.875q-0.15625 0.09375 -0.359375 0.140625q-0.203125 0.046875 -0.4375 0.046875q-0.46875 0 -0.71875 -0.25q-0.25 -0.265625 -0.25 -0.8125q-0.453125 0.53125 -1.0625 0.796875q-0.609375 0.265625 -1.359375 0.265625q-1.078125 0 -1.6875 -0.5q-0.59375 -0.5 -0.59375 -1.421875q0 -0.9375 0.59375 -1.46875q0.59375 -0.546875 2.78125 -0.828125q0.734375 -0.09375 1.0 -0.28125q0.265625 -0.1875 0.265625 -0.5625q0 -0.578125 -0.375 -0.859375q-0.359375 -0.28125 -1.15625 -0.28125q-0.84375 0 -1.265625 0.3125q-0.421875 0.3125 -0.453125 0.984375l-1.125 0q0.046875 -1.140625 0.796875 -1.71875q0.765625 -0.578125 2.125 -0.578125zm-2.0 5.1875q0 0.484375 0.34375 0.75q0.359375 0.265625 1.0 0.265625q0.953125 0 1.515625 -0.46875q0.578125 -0.484375 0.578125 -1.0625l0 -1.1875q-0.28125 0.203125 -0.734375 0.28125q-0.453125 0.0625 -1.21875 0.171875q-0.75 0.109375 -1.125 0.40625q-0.359375 0.296875 -0.359375 0.84375zm14.455383 -7.65625q1.3125 0 2.078125 0.71875q0.78125 0.703125 0.78125 2.09375q0 1.40625 -0.78125 2.109375q-0.765625 0.703125 -1.984375 0.703125l-3.0625 0l0 3.890625l-1.25 0l0 -9.515625l4.21875 0zm-0.34375 4.5625q0.90625 0 1.421875 -0.421875q0.515625 -0.4375 0.515625 -1.328125q0 -0.875 -0.515625 -1.3125q-0.5 -0.4375 -1.5 -0.4375l-2.546875 0l0 3.5l2.625 0zm7.728424 -2.09375q0.046875 0 0.078125 0q0.03125 0 0.078125 0l0 1.203125q-1.28125 0 -1.890625 0.671875q-0.59375 0.671875 -0.59375 2.09375l0 3.078125l-1.140625 0l0 -6.890625l1.0625 0l0 1.453125l0.03125 0q0.390625 -0.828125 0.96875 -1.21875q0.59375 -0.390625 1.40625 -0.390625zm3.7443542 0q1.5625 0 2.453125 1.015625q0.890625 1.0 0.890625 2.59375q0 1.609375 -0.921875 2.609375q-0.90625 0.984375 -2.421875 0.984375q-1.5 0 -2.421875 -0.96875q-0.921875 -0.984375 -0.921875 -2.625q0 -1.640625 0.90625 -2.625q0.90625 -0.984375 2.4375 -0.984375zm-2.15625 3.609375q0 1.1875 0.609375 1.890625q0.609375 0.703125 1.546875 0.703125q0.921875 0 1.53125 -0.703125q0.609375 -0.71875 0.609375 -1.890625q0 -1.171875 -0.609375 -1.890625q-0.59375 -0.71875 -1.546875 -0.71875q-0.90625 0 -1.53125 0.703125q-0.609375 0.703125 -0.609375 1.90625zm8.403259 -5.515625l0 2.0625l1.375 0l0 1.0l-1.375 0l0 4.3125q0 0.515625 0.34375 0.546875q0.34375 0.03125 0.71875 0.03125l0.3125 0l0 1.0l-0.9375 0q-0.921875 0 -1.25 -0.328125q-0.3125 -0.328125 -0.3125 -1.109375l0 -4.453125l-1.1875 0l0 -1.0l1.1875 0l0 -2.0625l1.125 0zm5.3316956 1.90625q1.484375 0 2.296875 1.078125q0.828125 1.0625 0.828125 2.734375l0 0.125l-5.171875 0l0 0.09375q0 0.984375 0.578125 1.578125q0.578125 0.59375 1.578125 0.59375q0.75 0 1.1875 -0.34375q0.453125 -0.359375 0.59375 -1.0l1.125 0q-0.234375 1.140625 -1.015625 1.75q-0.765625 0.59375 -1.9375 0.59375q-1.078125 0 -1.828125 -0.484375q-0.75 -0.484375 -1.109375 -1.359375q-0.359375 -0.890625 -0.359375 -1.796875q0 -1.53125 0.90625 -2.546875q0.921875 -1.015625 2.328125 -1.015625zm-2.046875 2.9375l3.96875 0q-0.0625 -0.84375 -0.625 -1.390625q-0.546875 -0.546875 -1.375 -0.546875q-0.78125 0 -1.34375 0.53125q-0.546875 0.515625 -0.625 1.40625zm9.221161 -2.9375q1.25 0 2.03125 0.609375q0.796875 0.59375 0.9375 1.765625l-1.171875 0q-0.140625 -0.671875 -0.59375 -1.015625q-0.4375 -0.359375 -1.109375 -0.359375q-1.0625 0 -1.609375 0.703125q-0.546875 0.703125 -0.546875 1.984375q0 1.140625 0.546875 1.828125q0.546875 0.6875 1.46875 0.6875q0.828125 0 1.296875 -0.4375q0.484375 -0.453125 0.59375 -1.234375l1.15625 0q-0.1875 1.28125 -0.96875 1.984375q-0.78125 0.6875 -2.0625 0.6875q-1.5 0 -2.359375 -0.9375q-0.859375 -0.953125 -0.859375 -2.578125q0 -1.6875 0.859375 -2.6875q0.875 -1.0 2.390625 -1.0zm5.846161 -1.90625l0 2.0625l1.375 0l0 1.0l-1.375 0l0 4.3125q0 0.515625 0.34375 0.546875q0.34375 0.03125 0.71875 0.03125l0.3125 0l0 1.0l-0.9375 0q-0.921875 0 -1.25 -0.328125q-0.3125 -0.328125 -0.3125 -1.109375l0 -4.453125l-1.1875 0l0 -1.0l1.1875 0l0 -2.0625l1.125 0zm6.8380737 -0.5625l2.71875 8.25l0.03125 0l2.75 -8.25l1.3125 0l-3.390625 9.515625l-1.4375 0l-3.359375 -9.515625l1.375 0zm8.906982 0l0 1.390625l-1.125 0l0 -1.390625l1.125 0zm0 2.625l0 6.890625l-1.125 0l0 -6.890625l1.125 0zm5.195465 -0.15625q0.046875 0 0.078125 0q0.03125 0 0.078125 0l0 1.203125q-1.28125 0 -1.890625 0.671875q-0.59375 0.671875 -0.59375 2.09375l0 3.078125l-1.140625 0l0 -6.890625l1.0625 0l0 1.453125l0.03125 0q0.390625 -0.828125 0.96875 -1.21875q0.59375 -0.390625 1.40625 -0.390625zm2.644104 -1.90625l0 2.0625l1.375 0l0 1.0l-1.375 0l0 4.3125q0 0.515625 0.34375 0.546875q0.34375 0.03125 0.71875 0.03125l0.3125 0l0 1.0l-0.9375 0q-0.921875 0 -1.25 -0.328125q-0.3125 -0.328125 -0.3125 -1.109375l0 -4.453125l-1.1875 0l0 -1.0l1.1875 0l0 -2.0625l1.125 0zm3.7600708 2.0625l0 4.703125q0 0.578125 0.375 0.96875q0.375 0.375 1.03125 0.375q0.96875 0 1.5 -0.59375q0.53125 -0.59375 0.53125 -1.515625l0 -3.9375l1.140625 0l0 6.890625l-1.0625 0l0 -1.09375l-0.03125 0q-0.375 0.65625 -0.953125 0.953125q-0.5625 0.296875 -1.296875 0.296875q-1.203125 0 -1.78125 -0.609375q-0.578125 -0.625 -0.578125 -1.84375l0 -4.59375l1.125 0zm9.099976 -0.15625q1.40625 0 1.984375 0.5q0.59375 0.5 0.59375 1.34375q0 3.578125 0 3.96875q0 0.390625 0.359375 0.390625q0.078125 0 0.171875 -0.015625q0.09375 -0.015625 0.171875 -0.046875l0 0.875q-0.15625 0.09375 -0.359375 0.140625q-0.203125 0.046875 -0.4375 0.046875q-0.46875 0 -0.71875 -0.25q-0.25 -0.265625 -0.25 -0.8125q-0.453125 0.53125 -1.0625 0.796875q-0.609375 0.265625 -1.359375 0.265625q-1.078125 0 -1.6875 -0.5q-0.59375 -0.5 -0.59375 -1.421875q0 -0.9375 0.59375 -1.46875q0.59375 -0.546875 2.78125 -0.828125q0.734375 -0.09375 1.0 -0.28125q0.265625 -0.1875 0.265625 -0.5625q0 -0.578125 -0.375 -0.859375q-0.359375 -0.28125 -1.15625 -0.28125q-0.84375 0 -1.265625 0.3125q-0.421875 0.3125 -0.453125 0.984375l-1.125 0q0.046875 -1.140625 0.796875 -1.71875q0.765625 -0.578125 2.125 -0.578125zm-2.0 5.1875q0 0.484375 0.34375 0.75q0.359375 0.265625 1.0 0.265625q0.953125 0 1.515625 -0.46875q0.578125 -0.484375 0.578125 -1.0625l0 -1.1875q-0.28125 0.203125 -0.734375 0.28125q-0.453125 0.0625 -1.21875 0.171875q-0.75 0.109375 -1.125 0.40625q-0.359375 0.296875 -0.359375 0.84375zm7.5336914 -7.65625l0 9.515625l-1.125 0l0 -9.515625l1.125 0z" fill-rule="nonzero"/><path fill="#d0fdf2" d="m444.75058 220.48123l3.0 8.0l3.015625 -8.0l1.734375 0l0 9.515625l-1.203125 0l0 -7.921875l-0.03125 0l-2.96875 7.921875l-1.078125 0l-2.96875 -7.921875l-0.03125 0l0 7.921875l-1.203125 0l0 -9.515625l1.734375 0zm12.485046 2.46875q1.40625 0 1.984375 0.5q0.59375 0.5 0.59375 1.34375q0 3.578125 0 3.96875q0 0.390625 0.359375 0.390625q0.078125 0 0.171875 -0.015625q0.09375 -0.015625 0.171875 -0.046875l0 0.875q-0.15625 0.09375 -0.359375 0.140625q-0.203125 0.046875 -0.4375 0.046875q-0.46875 0 -0.71875 -0.25q-0.25 -0.265625 -0.25 -0.8125q-0.453125 0.53125 -1.0625 0.796875q-0.609375 0.265625 -1.359375 0.265625q-1.078125 0 -1.6875 -0.5q-0.59375 -0.5 -0.59375 -1.421875q0 -0.9375 0.59375 -1.46875q0.59375 -0.546875 2.78125 -0.828125q0.734375 -0.09375 1.0 -0.28125q0.265625 -0.1875 0.265625 -0.5625q0 -0.578125 -0.375 -0.859375q-0.359375 -0.28125 -1.15625 -0.28125q-0.84375 0 -1.265625 0.3125q-0.421875 0.3125 -0.453125 0.984375l-1.125 0q0.046875 -1.140625 0.796875 -1.71875q0.765625 -0.578125 2.125 -0.578125zm-2.0 5.1875q0 0.484375 0.34375 0.75q0.359375 0.265625 1.0 0.265625q0.953125 0 1.515625 -0.46875q0.578125 -0.484375 0.578125 -1.0625l0 -1.1875q-0.28125 0.203125 -0.734375 0.28125q-0.453125 0.0625 -1.21875 0.171875q-0.75 0.109375 -1.125 0.40625q-0.359375 0.296875 -0.359375 0.84375zm9.221161 -5.1875q1.25 0 2.03125 0.609375q0.796875 0.59375 0.9375 1.765625l-1.171875 0q-0.140625 -0.671875 -0.59375 -1.015625q-0.4375 -0.359375 -1.109375 -0.359375q-1.0625 0 -1.609375 0.703125q-0.546875 0.703125 -0.546875 1.984375q0 1.140625 0.546875 1.828125q0.546875 0.6875 1.46875 0.6875q0.828125 0 1.296875 -0.4375q0.484375 -0.453125 0.59375 -1.234375l1.15625 0q-0.1875 1.28125 -0.96875 1.984375q-0.78125 0.6875 -2.0625 0.6875q-1.5 0 -2.359375 -0.9375q-0.859375 -0.953125 -0.859375 -2.578125q0 -1.6875 0.859375 -2.6875q0.875 -1.0 2.390625 -1.0zm5.408661 -2.46875l0 3.640625l0.03125 0q0.25 -0.5625 0.828125 -0.859375q0.59375 -0.3125 1.34375 -0.3125q1.25 0 1.8125 0.640625q0.5625 0.640625 0.5625 1.8125l0 4.59375l-1.140625 0l0 -4.703125q0 -0.59375 -0.375 -0.96875q-0.375 -0.375 -1.03125 -0.375q-0.953125 0 -1.5 0.59375q-0.53125 0.578125 -0.53125 1.515625l0 3.9375l-1.125 0l0 -9.515625l1.125 0zm7.4749756 0l0 1.390625l-1.125 0l0 -1.390625l1.125 0zm0 2.625l0 6.890625l-1.125 0l0 -6.890625l1.125 0zm5.101715 -0.15625q1.25 0 1.8125 0.640625q0.5625 0.640625 0.5625 1.8125l0 4.59375l-1.140625 0l0 -4.703125q0 -0.59375 -0.375 -0.96875q-0.375 -0.375 -1.03125 -0.375q-0.953125 0 -1.5 0.59375q-0.53125 0.578125 -0.53125 1.515625l0 3.9375l-1.125 0l0 -6.890625l1.0625 0l0 1.09375l0.03125 0q0.375 -0.640625 0.921875 -0.9375q0.546875 -0.3125 1.3125 -0.3125zm6.9437256 0q1.484375 0 2.296875 1.078125q0.828125 1.0625 0.828125 2.734375l0 0.125l-5.171875 0l0 0.09375q0 0.984375 0.578125 1.578125q0.578125 0.59375 1.578125 0.59375q0.75 0 1.1875 -0.34375q0.453125 -0.359375 0.59375 -1.0l1.125 0q-0.234375 1.140625 -1.015625 1.75q-0.765625 0.59375 -1.9375 0.59375q-1.078125 0 -1.828125 -0.484375q-0.75 -0.484375 -1.109375 -1.359375q-0.359375 -0.890625 -0.359375 -1.796875q0 -1.53125 0.90625 -2.546875q0.921875 -1.015625 2.328125 -1.015625zm-2.046875 2.9375l3.96875 0q-0.0625 -0.84375 -0.625 -1.390625q-0.546875 -0.546875 -1.375 -0.546875q-0.78125 0 -1.34375 0.53125q-0.546875 0.515625 -0.625 1.40625zm8.627411 -2.9375q1.390625 0 2.0625 0.546875q0.6875 0.53125 0.75 1.609375l-1.125 0l0 -0.015625q-0.046875 -0.546875 -0.484375 -0.84375q-0.4375 -0.296875 -1.109375 -0.296875q-0.6875 0 -1.09375 0.234375q-0.390625 0.21875 -0.390625 0.640625q0 0.375 0.34375 0.625q0.359375 0.234375 1.0625 0.375l1.0625 0.25q1.0 0.21875 1.515625 0.6875q0.53125 0.453125 0.53125 1.21875q0 1.015625 -0.796875 1.59375q-0.78125 0.578125 -2.140625 0.578125q-1.3125 0 -2.09375 -0.578125q-0.765625 -0.59375 -0.828125 -1.75l1.140625 0q0.015625 0.640625 0.5 0.984375q0.5 0.34375 1.34375 0.34375q0.828125 0 1.25 -0.25q0.421875 -0.265625 0.421875 -0.78125q0 -0.453125 -0.421875 -0.71875q-0.421875 -0.28125 -1.71875 -0.53125q-1.296875 -0.265625 -1.828125 -0.71875q-0.53125 -0.46875 -0.53125 -1.25q0 -0.90625 0.734375 -1.421875q0.734375 -0.53125 1.84375 -0.53125z" fill-rule="nonzero"/><path fill="#000000" fill-opacity="0.0" d="m468.937 312.85303l0 -62.299225" fill-rule="evenodd"/><path stroke="#02f4d5" stroke-width="1.0" stroke-linejoin="round" stroke-linecap="butt" stroke-dasharray="4.0,3.0" d="m468.937 312.85303l0 -62.299225" fill-rule="evenodd"/><path fill="#000000" fill-opacity="0.0" d="m678.6352 195.03223l0 0c0 -6.179901 5.0097656 -11.189713 11.189697 -11.189713l150.40796 0c2.9677124 0 5.813843 1.1789246 7.9123535 3.2773895c2.0984497 2.0984802 3.2773438 4.944626 3.2773438 7.912323l0 44.32924c0 6.1799164 -5.0097656 11.189713 -11.189697 11.189713l-150.40796 0l0 0c-6.1799316 0 -11.189697 -5.009796 -11.189697 -11.189713z" fill-rule="evenodd"/><path stroke="#02f4d5" stroke-width="1.0" stroke-linejoin="round" stroke-linecap="butt" d="m678.6352 195.03223l0 0c0 -6.179901 5.0097656 -11.189713 11.189697 -11.189713l150.40796 0c2.9677124 0 5.813843 1.1789246 7.9123535 3.2773895c2.0984497 2.0984802 3.2773438 4.944626 3.2773438 7.912323l0 44.32924c0 6.1799164 -5.0097656 11.189713 -11.189697 11.189713l-150.40796 0l0 0c-6.1799316 0 -11.189697 -5.009796 -11.189697 -11.189713z" fill-rule="evenodd"/><path fill="#d0fdf2" d="m732.40015 204.48123l0 1.0625l-5.3125 0l0 3.03125l4.953125 0l0 1.0625l-4.953125 0l0 3.296875l5.359375 0l0 1.0625l-6.609375 0l0 -9.515625l6.5625 0zm7.5476074 0l0 9.515625l-1.140625 0l0 -0.9375l-0.03125 0q-0.265625 0.546875 -0.84375 0.828125q-0.578125 0.265625 -1.34375 0.265625q-1.453125 0 -2.3125 -1.0q-0.859375 -1.0 -0.859375 -2.625q0 -1.59375 0.828125 -2.578125q0.84375 -1.0 2.3125 -1.0q0.671875 0 1.28125 0.28125q0.609375 0.265625 0.9375 0.796875l0.03125 0l0 -3.546875l1.140625 0zm-5.34375 6.125q0 1.109375 0.578125 1.828125q0.578125 0.71875 1.5625 0.71875q1.0 0 1.546875 -0.71875q0.5625 -0.71875 0.5625 -1.875q0 -1.171875 -0.578125 -1.890625q-0.5625 -0.71875 -1.609375 -0.71875q-0.984375 0 -1.53125 0.71875q-0.53125 0.703125 -0.53125 1.9375zm9.947449 -3.65625q1.484375 0 2.296875 1.078125q0.828125 1.0625 0.828125 2.734375l0 0.125l-5.171875 0l0 0.09375q0 0.984375 0.578125 1.578125q0.578125 0.59375 1.578125 0.59375q0.75 0 1.1875 -0.34375q0.453125 -0.359375 0.59375 -1.0l1.125 0q-0.234375 1.140625 -1.015625 1.75q-0.765625 0.59375 -1.9375 0.59375q-1.078125 0 -1.828125 -0.484375q-0.75 -0.484375 -1.109375 -1.359375q-0.359375 -0.890625 -0.359375 -1.796875q0 -1.53125 0.90625 -2.546875q0.921875 -1.015625 2.328125 -1.015625zm-2.046875 2.9375l3.96875 0q-0.0625 -0.84375 -0.625 -1.390625q-0.546875 -0.546875 -1.375 -0.546875q-0.78125 0 -1.34375 0.53125q-0.546875 0.515625 -0.625 1.40625zm9.768005 -2.9375q0.046875 0 0.078125 0q0.03125 0 0.078125 0l0 1.203125q-1.28125 0 -1.890625 0.671875q-0.59375 0.671875 -0.59375 2.09375l0 3.078125l-1.140625 0l0 -6.890625l1.0625 0l0 1.453125l0.03125 0q0.390625 -0.828125 0.96875 -1.21875q0.59375 -0.390625 1.40625 -0.390625zm3.5100098 0q1.40625 0 1.984375 0.5q0.59375 0.5 0.59375 1.34375q0 3.578125 0 3.96875q0 0.390625 0.359375 0.390625q0.078125 0 0.171875 -0.015625q0.09375 -0.015625 0.171875 -0.046875l0 0.875q-0.15625 0.09375 -0.359375 0.140625q-0.203125 0.046875 -0.4375 0.046875q-0.46875 0 -0.71875 -0.25q-0.25 -0.265625 -0.25 -0.8125q-0.453125 0.53125 -1.0625 0.796875q-0.609375 0.265625 -1.359375 0.265625q-1.078125 0 -1.6875 -0.5q-0.59375 -0.5 -0.59375 -1.421875q0 -0.9375 0.59375 -1.46875q0.59375 -0.546875 2.78125 -0.828125q0.734375 -0.09375 1.0 -0.28125q0.265625 -0.1875 0.265625 -0.5625q0 -0.578125 -0.375 -0.859375q-0.359375 -0.28125 -1.15625 -0.28125q-0.84375 0 -1.265625 0.3125q-0.421875 0.3125 -0.453125 0.984375l-1.125 0q0.046875 -1.140625 0.796875 -1.71875q0.765625 -0.578125 2.125 -0.578125zm-2.0 5.1875q0 0.484375 0.34375 0.75q0.359375 0.265625 1.0 0.265625q0.953125 0 1.515625 -0.46875q0.578125 -0.484375 0.578125 -1.0625l0 -1.1875q-0.28125 0.203125 -0.734375 0.28125q-0.453125 0.0625 -1.21875 0.171875q-0.75 0.109375 -1.125 0.40625q-0.359375 0.296875 -0.359375 0.84375zm14.267883 -7.890625q1.578125 0 2.640625 0.828125q1.0625 0.8125 1.28125 2.265625l-1.265625 0q-0.21875 -0.96875 -0.921875 -1.484375q-0.703125 -0.53125 -1.75 -0.53125q-1.515625 0 -2.375 1.0625q-0.84375 1.0625 -0.84375 2.78125q0 1.828125 0.828125 2.90625q0.84375 1.078125 2.40625 1.078125q1.15625 0 1.90625 -0.734375q0.75 -0.734375 0.84375 -2.0l1.265625 0q-0.203125 1.84375 -1.28125 2.828125q-1.078125 0.984375 -2.84375 0.984375q-2.046875 0 -3.21875 -1.359375q-1.171875 -1.359375 -1.171875 -3.609375q0 -2.21875 1.203125 -3.609375q1.21875 -1.40625 3.296875 -1.40625zm6.593872 0.234375l0 9.515625l-1.125 0l0 -9.515625l1.125 0zm2.8986206 2.625l0 4.703125q0 0.578125 0.375 0.96875q0.375 0.375 1.03125 0.375q0.96875 0 1.5 -0.59375q0.53125 -0.59375 0.53125 -1.515625l0 -3.9375l1.140625 0l0 6.890625l-1.0625 0l0 -1.09375l-0.03125 0q-0.375 0.65625 -0.953125 0.953125q-0.5625 0.296875 -1.296875 0.296875q-1.203125 0 -1.78125 -0.609375q-0.578125 -0.625 -0.578125 -1.84375l0 -4.59375l1.125 0zm8.568726 -0.15625q1.390625 0 2.0625 0.546875q0.6875 0.53125 0.75 1.609375l-1.125 0l0 -0.015625q-0.046875 -0.546875 -0.484375 -0.84375q-0.4375 -0.296875 -1.109375 -0.296875q-0.6875 0 -1.09375 0.234375q-0.390625 0.21875 -0.390625 0.640625q0 0.375 0.34375 0.625q0.359375 0.234375 1.0625 0.375l1.0625 0.25q1.0 0.21875 1.515625 0.6875q0.53125 0.453125 0.53125 1.21875q0 1.015625 -0.796875 1.59375q-0.78125 0.578125 -2.140625 0.578125q-1.3125 0 -2.09375 -0.578125q-0.765625 -0.59375 -0.828125 -1.75l1.140625 0q0.015625 0.640625 0.5 0.984375q0.5 0.34375 1.34375 0.34375q0.828125 0 1.25 -0.25q0.421875 -0.265625 0.421875 -0.78125q0 -0.453125 -0.421875 -0.71875q-0.421875 -0.28125 -1.71875 -0.53125q-1.296875 -0.265625 -1.828125 -0.71875q-0.53125 -0.46875 -0.53125 -1.25q0 -0.90625 0.734375 -1.421875q0.734375 -0.53125 1.84375 -0.53125zm5.9453125 -1.90625l0 2.0625l1.375 0l0 1.0l-1.375 0l0 4.3125q0 0.515625 0.34375 0.546875q0.34375 0.03125 0.71875 0.03125l0.3125 0l0 1.0l-0.9375 0q-0.921875 0 -1.25 -0.328125q-0.3125 -0.328125 -0.3125 -1.109375l0 -4.453125l-1.1875 0l0 -1.0l1.1875 0l0 -2.0625l1.125 0zm5.331665 1.90625q1.484375 0 2.296875 1.078125q0.828125 1.0625 0.828125 2.734375l0 0.125l-5.171875 0l0 0.09375q0 0.984375 0.578125 1.578125q0.578125 0.59375 1.578125 0.59375q0.75 0 1.1875 -0.34375q0.453125 -0.359375 0.59375 -1.0l1.125 0q-0.234375 1.140625 -1.015625 1.75q-0.765625 0.59375 -1.9375 0.59375q-1.078125 0 -1.828125 -0.484375q-0.75 -0.484375 -1.109375 -1.359375q-0.359375 -0.890625 -0.359375 -1.796875q0 -1.53125 0.90625 -2.546875q0.921875 -1.015625 2.328125 -1.015625zm-2.046875 2.9375l3.96875 0q-0.0625 -0.84375 -0.625 -1.390625q-0.546875 -0.546875 -1.375 -0.546875q-0.78125 0 -1.34375 0.53125q-0.546875 0.515625 -0.625 1.40625zm9.768066 -2.9375q0.046875 0 0.078125 0q0.03125 0 0.078125 0l0 1.203125q-1.28125 0 -1.890625 0.671875q-0.59375 0.671875 -0.59375 2.09375l0 3.078125l-1.140625 0l0 -6.890625l1.0625 0l0 1.453125l0.03125 0q0.390625 -0.828125 0.96875 -1.21875q0.59375 -0.390625 1.40625 -0.390625z" fill-rule="nonzero"/><path fill="#d0fdf2" d="m705.3609 220.24686q1.390625 0 2.40625 0.65625q1.03125 0.640625 1.59375 1.796875q0.5625 1.15625 0.5625 2.546875q0 1.390625 -0.5625 2.546875q-0.546875 1.15625 -1.59375 1.796875q-1.03125 0.640625 -2.40625 0.640625q-1.375 0 -2.40625 -0.640625q-1.03125 -0.640625 -1.59375 -1.796875q-0.5625 -1.15625 -0.5625 -2.546875q0 -2.171875 1.234375 -3.578125q1.25 -1.421875 3.328125 -1.421875zm-3.296875 5.0q0 1.046875 0.390625 1.96875q0.390625 0.921875 1.140625 1.4375q0.75 0.5 1.765625 0.5q1.53125 0 2.40625 -1.09375q0.890625 -1.109375 0.890625 -2.8125q0 -1.703125 -0.875 -2.8125q-0.875 -1.109375 -2.4375 -1.109375q-1.53125 0 -2.40625 1.125q-0.875 1.109375 -0.875 2.796875zm12.548157 -2.296875q1.25 0 1.8125 0.640625q0.5625 0.640625 0.5625 1.8125l0 4.59375l-1.140625 0l0 -4.703125q0 -0.59375 -0.375 -0.96875q-0.375 -0.375 -1.03125 -0.375q-0.953125 0 -1.5 0.59375q-0.53125 0.578125 -0.53125 1.515625l0 3.9375l-1.125 0l0 -6.890625l1.0625 0l0 1.09375l0.03125 0q0.375 -0.640625 0.921875 -0.9375q0.546875 -0.3125 1.3125 -0.3125zm7.7406006 2.8125l0 1.0625l-3.859375 0l0 -1.0625l3.859375 0zm5.9367676 -5.28125q1.3125 0 2.078125 0.71875q0.78125 0.703125 0.78125 2.09375q0 1.40625 -0.78125 2.109375q-0.765625 0.703125 -1.984375 0.703125l-3.0625 0l0 3.890625l-1.25 0l0 -9.515625l4.21875 0zm-0.34375 4.5625q0.90625 0 1.421875 -0.421875q0.515625 -0.4375 0.515625 -1.328125q0 -0.875 -0.515625 -1.3125q-0.5 -0.4375 -1.5 -0.4375l-2.546875 0l0 3.5l2.625 0zm7.7283936 -2.09375q0.046875 0 0.078125 0q0.03125 0 0.078125 0l0 1.203125q-1.28125 0 -1.890625 0.671875q-0.59375 0.671875 -0.59375 2.09375l0 3.078125l-1.140625 0l0 -6.890625l1.0625 0l0 1.453125l0.03125 0q0.390625 -0.828125 0.96875 -1.21875q0.59375 -0.390625 1.40625 -0.390625zm3.6350098 0q1.484375 0 2.296875 1.078125q0.828125 1.0625 0.828125 2.734375l0 0.125l-5.171875 0l0 0.09375q0 0.984375 0.578125 1.578125q0.578125 0.59375 1.578125 0.59375q0.75 0 1.1875 -0.34375q0.453125 -0.359375 0.59375 -1.0l1.125 0q-0.234375 1.140625 -1.015625 1.75q-0.765625 0.59375 -1.9375 0.59375q-1.078125 0 -1.828125 -0.484375q-0.75 -0.484375 -1.109375 -1.359375q-0.359375 -0.890625 -0.359375 -1.796875q0 -1.53125 0.90625 -2.546875q0.921875 -1.015625 2.328125 -1.015625zm-2.046875 2.9375l3.96875 0q-0.0625 -0.84375 -0.625 -1.390625q-0.546875 -0.546875 -1.375 -0.546875q-0.78125 0 -1.34375 0.53125q-0.546875 0.515625 -0.625 1.40625zm9.65863 -2.9375q0.75 0 1.234375 0.3125q0.484375 0.296875 0.65625 0.859375q0.359375 -0.5625 0.921875 -0.859375q0.5625 -0.3125 1.25 -0.3125q1.15625 0 1.71875 0.53125q0.5625 0.515625 0.5625 1.421875l0 5.09375l-1.125 0l0 -4.5625q0 -0.75 -0.328125 -1.109375q-0.3125 -0.375 -1.015625 -0.375q-0.84375 0 -1.328125 0.5q-0.46875 0.484375 -0.46875 1.21875l0 4.328125l-1.140625 0l0 -4.5625q0 -0.75 -0.3125 -1.109375q-0.3125 -0.375 -0.96875 -0.375q-0.546875 0 -0.96875 0.265625q-0.40625 0.25 -0.640625 0.703125q-0.234375 0.453125 -0.234375 0.765625l0 4.3125l-1.125 0l0 -6.890625l1.0625 0l0 1.015625l0.03125 0q0.390625 -0.59375 0.9375 -0.875q0.546875 -0.296875 1.28125 -0.296875zm9.244263 -2.46875l0 1.390625l-1.125 0l0 -1.390625l1.125 0zm0 2.625l0 6.890625l-1.125 0l0 -6.890625l1.125 0zm4.0548706 -0.15625q1.390625 0 2.0625 0.546875q0.6875 0.53125 0.75 1.609375l-1.125 0l0 -0.015625q-0.046875 -0.546875 -0.484375 -0.84375q-0.4375 -0.296875 -1.109375 -0.296875q-0.6875 0 -1.09375 0.234375q-0.390625 0.21875 -0.390625 0.640625q0 0.375 0.34375 0.625q0.359375 0.234375 1.0625 0.375l1.0625 0.25q1.0 0.21875 1.515625 0.6875q0.53125 0.453125 0.53125 1.21875q0 1.015625 -0.796875 1.59375q-0.78125 0.578125 -2.140625 0.578125q-1.3125 0 -2.09375 -0.578125q-0.765625 -0.59375 -0.828125 -1.75l1.140625 0q0.015625 0.640625 0.5 0.984375q0.5 0.34375 1.34375 0.34375q0.828125 0 1.25 -0.25q0.421875 -0.265625 0.421875 -0.78125q0 -0.453125 -0.421875 -0.71875q-0.421875 -0.28125 -1.71875 -0.53125q-1.296875 -0.265625 -1.828125 -0.71875q-0.53125 -0.46875 -0.53125 -1.25q0 -0.90625 0.734375 -1.421875q0.734375 -0.53125 1.84375 -0.53125zm7.2421875 0q1.484375 0 2.296875 1.078125q0.828125 1.0625 0.828125 2.734375l0 0.125l-5.171875 0l0 0.09375q0 0.984375 0.578125 1.578125q0.578125 0.59375 1.578125 0.59375q0.75 0 1.1875 -0.34375q0.453125 -0.359375 0.59375 -1.0l1.125 0q-0.234375 1.140625 -1.015625 1.75q-0.765625 0.59375 -1.9375 0.59375q-1.078125 0 -1.828125 -0.484375q-0.75 -0.484375 -1.109375 -1.359375q-0.359375 -0.890625 -0.359375 -1.796875q0 -1.53125 0.90625 -2.546875q0.921875 -1.015625 2.328125 -1.015625zm-2.046875 2.9375l3.96875 0q-0.0625 -0.84375 -0.625 -1.390625q-0.546875 -0.546875 -1.375 -0.546875q-0.78125 0 -1.34375 0.53125q-0.546875 0.515625 -0.625 1.40625zm14.267883 -5.640625q1.578125 0 2.640625 0.828125q1.0625 0.8125 1.28125 2.265625l-1.265625 0q-0.21875 -0.96875 -0.921875 -1.484375q-0.703125 -0.53125 -1.75 -0.53125q-1.515625 0 -2.375 1.0625q-0.84375 1.0625 -0.84375 2.78125q0 1.828125 0.828125 2.90625q0.84375 1.078125 2.40625 1.078125q1.15625 0 1.90625 -0.734375q0.75 -0.734375 0.84375 -2.0l1.265625 0q-0.203125 1.84375 -1.28125 2.828125q-1.078125 0.984375 -2.84375 0.984375q-2.046875 0 -3.21875 -1.359375q-1.171875 -1.359375 -1.171875 -3.609375q0 -2.21875 1.203125 -3.609375q1.21875 -1.40625 3.296875 -1.40625zm8.375122 2.703125q1.5625 0 2.453125 1.015625q0.890625 1.0 0.890625 2.59375q0 1.609375 -0.921875 2.609375q-0.90625 0.984375 -2.421875 0.984375q-1.5 0 -2.421875 -0.96875q-0.921875 -0.984375 -0.921875 -2.625q0 -1.640625 0.90625 -2.625q0.90625 -0.984375 2.4375 -0.984375zm-2.15625 3.609375q0 1.1875 0.609375 1.890625q0.609375 0.703125 1.546875 0.703125q0.921875 0 1.53125 -0.703125q0.609375 -0.71875 0.609375 -1.890625q0 -1.171875 -0.609375 -1.890625q-0.59375 -0.71875 -1.546875 -0.71875q-0.90625 0 -1.53125 0.703125q-0.609375 0.703125 -0.609375 1.90625zm10.153259 -3.609375q0.75 0 1.234375 0.3125q0.484375 0.296875 0.65625 0.859375q0.359375 -0.5625 0.921875 -0.859375q0.5625 -0.3125 1.25 -0.3125q1.15625 0 1.71875 0.53125q0.5625 0.515625 0.5625 1.421875l0 5.09375l-1.125 0l0 -4.5625q0 -0.75 -0.328125 -1.109375q-0.3125 -0.375 -1.015625 -0.375q-0.84375 0 -1.328125 0.5q-0.46875 0.484375 -0.46875 1.21875l0 4.328125l-1.140625 0l0 -4.5625q0 -0.75 -0.3125 -1.109375q-0.3125 -0.375 -0.96875 -0.375q-0.546875 0 -0.96875 0.265625q-0.40625 0.25 -0.640625 0.703125q-0.234375 0.453125 -0.234375 0.765625l0 4.3125l-1.125 0l0 -6.890625l1.0625 0l0 1.015625l0.03125 0q0.390625 -0.59375 0.9375 -0.875q0.546875 -0.296875 1.28125 -0.296875zm11.447388 0q1.484375 0 2.328125 1.015625q0.84375 1.015625 0.84375 2.609375q0 1.59375 -0.84375 2.59375q-0.84375 0.984375 -2.296875 0.984375q-0.640625 0 -1.265625 -0.265625q-0.609375 -0.265625 -0.96875 -0.8125l-0.015625 0l0 3.5625l-1.140625 0l0 -9.53125l1.140625 0l0 0.9375l0.015625 0q0.265625 -0.53125 0.84375 -0.8125q0.578125 -0.28125 1.359375 -0.28125zm-2.265625 3.59375q0 1.203125 0.578125 1.90625q0.578125 0.703125 1.59375 0.703125q0.984375 0 1.515625 -0.703125q0.546875 -0.703125 0.546875 -1.953125q0 -1.109375 -0.578125 -1.828125q-0.5625 -0.71875 -1.5625 -0.71875q-1.0 0 -1.546875 0.734375q-0.546875 0.71875 -0.546875 1.859375zm7.9005737 -3.4375l0 4.703125q0 0.578125 0.375 0.96875q0.375 0.375 1.03125 0.375q0.96875 0 1.5 -0.59375q0.53125 -0.59375 0.53125 -1.515625l0 -3.9375l1.140625 0l0 6.890625l-1.0625 0l0 -1.09375l-0.03125 0q-0.375 0.65625 -0.953125 0.953125q-0.5625 0.296875 -1.296875 0.296875q-1.203125 0 -1.78125 -0.609375q-0.578125 -0.625 -0.578125 -1.84375l0 -4.59375l1.125 0zm7.8499756 -2.0625l0 2.0625l1.375 0l0 1.0l-1.375 0l0 4.3125q0 0.515625 0.34375 0.546875q0.34375 0.03125 0.71875 0.03125l0.3125 0l0 1.0l-0.9375 0q-0.921875 0 -1.25 -0.328125q-0.3125 -0.328125 -0.3125 -1.109375l0 -4.453125l-1.1875 0l0 -1.0l1.1875 0l0 -2.0625l1.125 0zm5.331726 1.90625q1.484375 0 2.296875 1.078125q0.828125 1.0625 0.828125 2.734375l0 0.125l-5.171875 0l0 0.09375q0 0.984375 0.578125 1.578125q0.578125 0.59375 1.578125 0.59375q0.75 0 1.1875 -0.34375q0.453125 -0.359375 0.59375 -1.0l1.125 0q-0.234375 1.140625 -1.015625 1.75q-0.765625 0.59375 -1.9375 0.59375q-1.078125 0 -1.828125 -0.484375q-0.75 -0.484375 -1.109375 -1.359375q-0.359375 -0.890625 -0.359375 -1.796875q0 -1.53125 0.90625 -2.546875q0.921875 -1.015625 2.328125 -1.015625zm-2.046875 2.9375l3.96875 0q-0.0625 -0.84375 -0.625 -1.390625q-0.546875 -0.546875 -1.375 -0.546875q-0.78125 0 -1.34375 0.53125q-0.546875 0.515625 -0.625 1.40625z" fill-rule="nonzero"/><path fill="#000000" fill-opacity="0.0" d="m790.16797 312.85303l0 62.299194" fill-rule="evenodd"/><path stroke="#02f4d5" stroke-width="1.0" stroke-linejoin="round" stroke-linecap="butt" stroke-dasharray="4.0,3.0" d="m790.16797 312.85303l0 62.299194" fill-rule="evenodd"/><path fill="#000000" fill-opacity="0.0" d="m765.0289 312.85303l0 -62.299225" fill-rule="evenodd"/><path stroke="#02f4d5" stroke-width="1.0" stroke-linejoin="round" stroke-linecap="butt" stroke-dasharray="4.0,3.0" d="m765.0289 312.85303l0 -62.299225" fill-rule="evenodd"/><path fill="#000000" fill-opacity="0.0" d="m703.77423 386.62543l0 0c0 -6.1799316 5.0098267 -11.189728 11.189758 -11.189728l150.40796 0c2.9677124 0 5.813843 1.1789246 7.9122925 3.2774048c2.0985107 2.0984802 3.2774048 4.9446106 3.2774048 7.912323l0 44.329224c0 6.179901 -5.0097656 11.189728 -11.189697 11.189728l-150.40796 0l0 0c-6.1799316 0 -11.189758 -5.0098267 -11.189758 -11.189728z" fill-rule="evenodd"/><path stroke="#02f4d5" stroke-width="1.0" stroke-linejoin="round" stroke-linecap="butt" d="m703.77423 386.62543l0 0c0 -6.1799316 5.0098267 -11.189728 11.189758 -11.189728l150.40796 0c2.9677124 0 5.813843 1.1789246 7.9122925 3.2774048c2.0985107 2.0984802 3.2774048 4.9446106 3.2774048 7.912323l0 44.329224c0 6.179901 -5.0097656 11.189728 -11.189697 11.189728l-150.40796 0l0 0c-6.1799316 0 -11.189758 -5.0098267 -11.189758 -11.189728z" fill-rule="evenodd"/><path fill="#d0fdf2" d="m757.53925 396.0744l0 1.0625l-5.3125 0l0 3.03125l4.953125 0l0 1.0625l-4.953125 0l0 3.296875l5.359375 0l0 1.0625l-6.609375 0l0 -9.515625l6.5625 0zm7.5476074 0l0 9.515625l-1.140625 0l0 -0.9375l-0.03125 0q-0.265625 0.546875 -0.84375 0.828125q-0.578125 0.265625 -1.34375 0.265625q-1.453125 0 -2.3125 -1.0q-0.859375 -1.0 -0.859375 -2.625q0 -1.59375 0.828125 -2.578125q0.84375 -1.0 2.3125 -1.0q0.671875 0 1.28125 0.28125q0.609375 0.265625 0.9375 0.796875l0.03125 0l0 -3.546875l1.140625 0zm-5.34375 6.125q0 1.109375 0.578125 1.828125q0.578125 0.71875 1.5625 0.71875q1.0 0 1.546875 -0.71875q0.5625 -0.71875 0.5625 -1.875q0 -1.171875 -0.578125 -1.890625q-0.5625 -0.71875 -1.609375 -0.71875q-0.984375 0 -1.53125 0.71875q-0.53125 0.703125 -0.53125 1.9375zm9.947388 -3.65625q1.484375 0 2.296875 1.078125q0.828125 1.0625 0.828125 2.734375l0 0.125l-5.171875 0l0 0.09375q0 0.984375 0.578125 1.578125q0.578125 0.59375 1.578125 0.59375q0.75 0 1.1875 -0.34375q0.453125 -0.359375 0.59375 -1.0l1.125 0q-0.234375 1.140625 -1.015625 1.75q-0.765625 0.59375 -1.9375 0.59375q-1.078125 0 -1.828125 -0.484375q-0.75 -0.484375 -1.109375 -1.359375q-0.359375 -0.890625 -0.359375 -1.796875q0 -1.53125 0.90625 -2.546875q0.921875 -1.015625 2.328125 -1.015625zm-2.046875 2.9375l3.96875 0q-0.0625 -0.84375 -0.625 -1.390625q-0.546875 -0.546875 -1.375 -0.546875q-0.78125 0 -1.34375 0.53125q-0.546875 0.515625 -0.625 1.40625zm9.768066 -2.9375q0.046875 0 0.078125 0q0.03125 0 0.078125 0l0 1.203125q-1.28125 0 -1.890625 0.671875q-0.59375 0.671875 -0.59375 2.09375l0 3.078125l-1.140625 0l0 -6.890625l1.0625 0l0 1.453125l0.03125 0q0.390625 -0.828125 0.96875 -1.21875q0.59375 -0.390625 1.40625 -0.390625zm3.5099487 0q1.40625 0 1.984375 0.5q0.59375 0.5 0.59375 1.34375q0 3.578125 0 3.96875q0 0.390625 0.359375 0.390625q0.078125 0 0.171875 -0.015625q0.09375 -0.015625 0.171875 -0.046875l0 0.875q-0.15625 0.09375 -0.359375 0.140625q-0.203125 0.046875 -0.4375 0.046875q-0.46875 0 -0.71875 -0.25q-0.25 -0.265625 -0.25 -0.8125q-0.453125 0.53125 -1.0625 0.796875q-0.609375 0.265625 -1.359375 0.265625q-1.078125 0 -1.6875 -0.5q-0.59375 -0.5 -0.59375 -1.421875q0 -0.9375 0.59375 -1.46875q0.59375 -0.546875 2.78125 -0.828125q0.734375 -0.09375 1.0 -0.28125q0.265625 -0.1875 0.265625 -0.5625q0 -0.578125 -0.375 -0.859375q-0.359375 -0.28125 -1.15625 -0.28125q-0.84375 0 -1.265625 0.3125q-0.421875 0.3125 -0.453125 0.984375l-1.125 0q0.046875 -1.140625 0.796875 -1.71875q0.765625 -0.578125 2.125 -0.578125zm-2.0 5.1875q0 0.484375 0.34375 0.75q0.359375 0.265625 1.0 0.265625q0.953125 0 1.515625 -0.46875q0.578125 -0.484375 0.578125 -1.0625l0 -1.1875q-0.28125 0.203125 -0.734375 0.28125q-0.453125 0.0625 -1.21875 0.171875q-0.75 0.109375 -1.125 0.40625q-0.359375 0.296875 -0.359375 0.84375zm14.267944 -7.890625q1.578125 0 2.640625 0.828125q1.0625 0.8125 1.28125 2.265625l-1.265625 0q-0.21875 -0.96875 -0.921875 -1.484375q-0.703125 -0.53125 -1.75 -0.53125q-1.515625 0 -2.375 1.0625q-0.84375 1.0625 -0.84375 2.78125q0 1.828125 0.828125 2.90625q0.84375 1.078125 2.40625 1.078125q1.15625 0 1.90625 -0.734375q0.75 -0.734375 0.84375 -2.0l1.265625 0q-0.203125 1.84375 -1.28125 2.828125q-1.078125 0.984375 -2.84375 0.984375q-2.046875 0 -3.21875 -1.359375q-1.171875 -1.359375 -1.171875 -3.609375q0 -2.21875 1.203125 -3.609375q1.21875 -1.40625 3.296875 -1.40625zm6.593872 0.234375l0 9.515625l-1.125 0l0 -9.515625l1.125 0zm2.8986206 2.625l0 4.703125q0 0.578125 0.375 0.96875q0.375 0.375 1.03125 0.375q0.96875 0 1.5 -0.59375q0.53125 -0.59375 0.53125 -1.515625l0 -3.9375l1.140625 0l0 6.890625l-1.0625 0l0 -1.09375l-0.03125 0q-0.375 0.65625 -0.953125 0.953125q-0.5625 0.296875 -1.296875 0.296875q-1.203125 0 -1.78125 -0.609375q-0.578125 -0.625 -0.578125 -1.84375l0 -4.59375l1.125 0zm8.568726 -0.15625q1.390625 0 2.0625 0.546875q0.6875 0.53125 0.75 1.609375l-1.125 0l0 -0.015625q-0.046875 -0.546875 -0.484375 -0.84375q-0.4375 -0.296875 -1.109375 -0.296875q-0.6875 0 -1.09375 0.234375q-0.390625 0.21875 -0.390625 0.640625q0 0.375 0.34375 0.625q0.359375 0.234375 1.0625 0.375l1.0625 0.25q1.0 0.21875 1.515625 0.6875q0.53125 0.453125 0.53125 1.21875q0 1.015625 -0.796875 1.59375q-0.78125 0.578125 -2.140625 0.578125q-1.3125 0 -2.09375 -0.578125q-0.765625 -0.59375 -0.828125 -1.75l1.140625 0q0.015625 0.640625 0.5 0.984375q0.5 0.34375 1.34375 0.34375q0.828125 0 1.25 -0.25q0.421875 -0.265625 0.421875 -0.78125q0 -0.453125 -0.421875 -0.71875q-0.421875 -0.28125 -1.71875 -0.53125q-1.296875 -0.265625 -1.828125 -0.71875q-0.53125 -0.46875 -0.53125 -1.25q0 -0.90625 0.734375 -1.421875q0.734375 -0.53125 1.84375 -0.53125zm5.9453125 -1.90625l0 2.0625l1.375 0l0 1.0l-1.375 0l0 4.3125q0 0.515625 0.34375 0.546875q0.34375 0.03125 0.71875 0.03125l0.3125 0l0 1.0l-0.9375 0q-0.921875 0 -1.25 -0.328125q-0.3125 -0.328125 -0.3125 -1.109375l0 -4.453125l-1.1875 0l0 -1.0l1.1875 0l0 -2.0625l1.125 0zm5.331665 1.90625q1.484375 0 2.296875 1.078125q0.828125 1.0625 0.828125 2.734375l0 0.125l-5.171875 0l0 0.09375q0 0.984375 0.578125 1.578125q0.578125 0.59375 1.578125 0.59375q0.75 0 1.1875 -0.34375q0.453125 -0.359375 0.59375 -1.0l1.125 0q-0.234375 1.140625 -1.015625 1.75q-0.765625 0.59375 -1.9375 0.59375q-1.078125 0 -1.828125 -0.484375q-0.75 -0.484375 -1.109375 -1.359375q-0.359375 -0.890625 -0.359375 -1.796875q0 -1.53125 0.90625 -2.546875q0.921875 -1.015625 2.328125 -1.015625zm-2.046875 2.9375l3.96875 0q-0.0625 -0.84375 -0.625 -1.390625q-0.546875 -0.546875 -1.375 -0.546875q-0.78125 0 -1.34375 0.53125q-0.546875 0.515625 -0.625 1.40625zm9.768066 -2.9375q0.046875 0 0.078125 0q0.03125 0 0.078125 0l0 1.203125q-1.28125 0 -1.890625 0.671875q-0.59375 0.671875 -0.59375 2.09375l0 3.078125l-1.140625 0l0 -6.890625l1.0625 0l0 1.453125l0.03125 0q0.390625 -0.828125 0.96875 -1.21875q0.59375 -0.390625 1.40625 -0.390625z" fill-rule="nonzero"/><path fill="#d0fdf2" d="m742.7812 412.0744l0 9.515625l-1.265625 0l0 -9.515625l1.265625 0zm5.2772827 2.46875q1.25 0 1.8125 0.640625q0.5625 0.640625 0.5625 1.8125l0 4.59375l-1.140625 0l0 -4.703125q0 -0.59375 -0.375 -0.96875q-0.375 -0.375 -1.03125 -0.375q-0.953125 0 -1.5 0.59375q-0.53125 0.578125 -0.53125 1.515625l0 3.9375l-1.125 0l0 -6.890625l1.0625 0l0 1.09375l0.03125 0q0.375 -0.640625 0.921875 -0.9375q0.546875 -0.3125 1.3125 -0.3125zm6.4437256 -2.578125q0.140625 0 0.359375 0.03125q0.234375 0.03125 0.375 0.078125l0 0.984375q-0.125 -0.046875 -0.3125 -0.0625q-0.1875 -0.03125 -0.328125 -0.03125q-0.46875 0 -0.671875 0.203125q-0.1875 0.1875 -0.1875 0.546875l0 0.984375l1.328125 0l0 1.0l-1.328125 0l0 5.890625l-1.125 0l0 -5.890625l-1.171875 0l0 -1.0l1.171875 0l0 -1.078125q0 -0.765625 0.46875 -1.203125q0.484375 -0.453125 1.421875 -0.453125zm4.4437866 2.578125q1.484375 0 2.296875 1.078125q0.828125 1.0625 0.828125 2.734375l0 0.125l-5.171875 0l0 0.09375q0 0.984375 0.578125 1.578125q0.578125 0.59375 1.578125 0.59375q0.75 0 1.1875 -0.34375q0.453125 -0.359375 0.59375 -1.0l1.125 0q-0.234375 1.140625 -1.015625 1.75q-0.765625 0.59375 -1.9375 0.59375q-1.078125 0 -1.828125 -0.484375q-0.75 -0.484375 -1.109375 -1.359375q-0.359375 -0.890625 -0.359375 -1.796875q0 -1.53125 0.90625 -2.546875q0.921875 -1.015625 2.328125 -1.015625zm-2.046875 2.9375l3.96875 0q-0.0625 -0.84375 -0.625 -1.390625q-0.546875 -0.546875 -1.375 -0.546875q-0.78125 0 -1.34375 0.53125q-0.546875 0.515625 -0.625 1.40625zm9.768005 -2.9375q0.046875 0 0.078125 0q0.03125 0 0.078125 0l0 1.203125q-1.28125 0 -1.890625 0.671875q-0.59375 0.671875 -0.59375 2.09375l0 3.078125l-1.140625 0l0 -6.890625l1.0625 0l0 1.453125l0.03125 0q0.390625 -0.828125 0.96875 -1.21875q0.59375 -0.390625 1.40625 -0.390625zm3.6350098 0q1.484375 0 2.296875 1.078125q0.828125 1.0625 0.828125 2.734375l0 0.125l-5.171875 0l0 0.09375q0 0.984375 0.578125 1.578125q0.578125 0.59375 1.578125 0.59375q0.75 0 1.1875 -0.34375q0.453125 -0.359375 0.59375 -1.0l1.125 0q-0.234375 1.140625 -1.015625 1.75q-0.765625 0.59375 -1.9375 0.59375q-1.078125 0 -1.828125 -0.484375q-0.75 -0.484375 -1.109375 -1.359375q-0.359375 -0.890625 -0.359375 -1.796875q0 -1.53125 0.90625 -2.546875q0.921875 -1.015625 2.328125 -1.015625zm-2.046875 2.9375l3.96875 0q-0.0625 -0.84375 -0.625 -1.390625q-0.546875 -0.546875 -1.375 -0.546875q-0.78125 0 -1.34375 0.53125q-0.546875 0.515625 -0.625 1.40625zm9.674255 -2.9375q1.25 0 1.8125 0.640625q0.5625 0.640625 0.5625 1.8125l0 4.59375l-1.140625 0l0 -4.703125q0 -0.59375 -0.375 -0.96875q-0.375 -0.375 -1.03125 -0.375q-0.953125 0 -1.5 0.59375q-0.53125 0.578125 -0.53125 1.515625l0 3.9375l-1.125 0l0 -6.890625l1.0625 0l0 1.09375l0.03125 0q0.375 -0.640625 0.921875 -0.9375q0.546875 -0.3125 1.3125 -0.3125zm6.9593506 0q1.25 0 2.03125 0.609375q0.796875 0.59375 0.9375 1.765625l-1.171875 0q-0.140625 -0.671875 -0.59375 -1.015625q-0.4375 -0.359375 -1.109375 -0.359375q-1.0625 0 -1.609375 0.703125q-0.546875 0.703125 -0.546875 1.984375q0 1.140625 0.546875 1.828125q0.546875 0.6875 1.46875 0.6875q0.828125 0 1.296875 -0.4375q0.484375 -0.453125 0.59375 -1.234375l1.15625 0q-0.1875 1.28125 -0.96875 1.984375q-0.78125 0.6875 -2.0625 0.6875q-1.5 0 -2.359375 -0.9375q-0.859375 -0.953125 -0.859375 -2.578125q0 -1.6875 0.859375 -2.6875q0.875 -1.0 2.390625 -1.0zm7.1430664 0q1.484375 0 2.296875 1.078125q0.828125 1.0625 0.828125 2.734375l0 0.125l-5.171875 0l0 0.09375q0 0.984375 0.578125 1.578125q0.578125 0.59375 1.578125 0.59375q0.75 0 1.1875 -0.34375q0.453125 -0.359375 0.59375 -1.0l1.125 0q-0.234375 1.140625 -1.015625 1.75q-0.765625 0.59375 -1.9375 0.59375q-1.078125 0 -1.828125 -0.484375q-0.75 -0.484375 -1.109375 -1.359375q-0.359375 -0.890625 -0.359375 -1.796875q0 -1.53125 0.90625 -2.546875q0.921875 -1.015625 2.328125 -1.015625zm-2.046875 2.9375l3.96875 0q-0.0625 -0.84375 -0.625 -1.390625q-0.546875 -0.546875 -1.375 -0.546875q-0.78125 0 -1.34375 0.53125q-0.546875 0.515625 -0.625 1.40625zm16.799133 -5.40625l0 1.0625l-5.3125 0l0 3.03125l4.953125 0l0 1.0625l-4.953125 0l0 3.296875l5.359375 0l0 1.0625l-6.609375 0l0 -9.515625l6.5625 0zm4.7194824 2.46875q1.25 0 1.8125 0.640625q0.5625 0.640625 0.5625 1.8125l0 4.59375l-1.140625 0l0 -4.703125q0 -0.59375 -0.375 -0.96875q-0.375 -0.375 -1.03125 -0.375q-0.953125 0 -1.5 0.59375q-0.53125 0.578125 -0.53125 1.515625l0 3.9375l-1.125 0l0 -6.890625l1.0625 0l0 1.09375l0.03125 0q0.375 -0.640625 0.921875 -0.9375q0.546875 -0.3125 1.3125 -0.3125zm6.8812256 0q0.71875 0 1.25 0.3125q0.53125 0.3125 0.8125 0.828125l0.015625 0l0 -0.984375l1.0625 0l0 6.375q0 1.625 -0.78125 2.46875q-0.78125 0.84375 -2.40625 0.84375q-1.1875 0 -2.0 -0.53125q-0.8125 -0.515625 -0.859375 -1.484375l1.125 0q0.03125 0.515625 0.5625 0.8125q0.546875 0.296875 1.21875 0.296875q1.015625 0 1.546875 -0.671875q0.53125 -0.65625 0.53125 -1.953125l0 -0.4375l-0.03125 0q-0.265625 0.578125 -0.84375 0.921875q-0.578125 0.328125 -1.3125 0.328125q-1.390625 0 -2.234375 -0.953125q-0.828125 -0.96875 -0.828125 -2.53125q0 -1.578125 0.828125 -2.609375q0.84375 -1.03125 2.34375 -1.03125zm-1.984375 3.5q0 1.234375 0.515625 1.9375q0.515625 0.6875 1.4375 0.6875q0.9375 0 1.484375 -0.71875q0.5625 -0.734375 0.5625 -1.9375q0 -1.109375 -0.515625 -1.78125q-0.515625 -0.6875 -1.453125 -0.6875q-0.953125 0 -1.5 0.6875q-0.53125 0.671875 -0.53125 1.8125zm8.028259 -5.96875l0 1.390625l-1.125 0l0 -1.390625l1.125 0zm0 2.625l0 6.890625l-1.125 0l0 -6.890625l1.125 0zm5.1016846 -0.15625q1.25 0 1.8125 0.640625q0.5625 0.640625 0.5625 1.8125l0 4.59375l-1.140625 0l0 -4.703125q0 -0.59375 -0.375 -0.96875q-0.375 -0.375 -1.03125 -0.375q-0.953125 0 -1.5 0.59375q-0.53125 0.578125 -0.53125 1.515625l0 3.9375l-1.125 0l0 -6.890625l1.0625 0l0 1.09375l0.03125 0q0.375 -0.640625 0.921875 -0.9375q0.546875 -0.3125 1.3125 -0.3125zm6.9437866 0q1.484375 0 2.296875 1.078125q0.828125 1.0625 0.828125 2.734375l0 0.125l-5.171936 0l0 0.09375q0 0.984375 0.578125 1.578125q0.57818604 0.59375 1.578186 0.59375q0.75 0 1.1875 -0.34375q0.453125 -0.359375 0.59375 -1.0l1.125 0q-0.234375 1.140625 -1.015625 1.75q-0.765625 0.59375 -1.9375 0.59375q-1.078125 0 -1.828186 -0.484375q-0.75 -0.484375 -1.109375 -1.359375q-0.359375 -0.890625 -0.359375 -1.796875q0 -1.53125 0.90625 -2.546875q0.92193604 -1.015625 2.328186 -1.015625zm-2.046936 2.9375l3.968811 0q-0.0625 -0.84375 -0.625 -1.390625q-0.546875 -0.546875 -1.375 -0.546875q-0.78125 0 -1.34375 0.53125q-0.54693604 0.515625 -0.62506104 1.40625z" fill-rule="nonzero"/><path fill="#000000" fill-opacity="0.0" d="m409.91864 386.62543l0 0c0 -6.1799316 5.009796 -11.189728 11.189697 -11.189728l150.40796 0c2.9677124 0 5.813843 1.1789246 7.9123535 3.2774048c2.0984497 2.0984802 3.2774048 4.9446106 3.2774048 7.912323l0 44.329224c0 6.179901 -5.0098267 11.189728 -11.189758 11.189728l-150.40796 0l0 0c-6.179901 0 -11.189697 -5.0098267 -11.189697 -11.189728z" fill-rule="evenodd"/><path stroke="#02f4d5" stroke-width="1.0" stroke-linejoin="round" stroke-linecap="butt" d="m409.91864 386.62543l0 0c0 -6.1799316 5.009796 -11.189728 11.189697 -11.189728l150.40796 0c2.9677124 0 5.813843 1.1789246 7.9123535 3.2774048c2.0984497 2.0984802 3.2774048 4.9446106 3.2774048 7.912323l0 44.329224c0 6.179901 -5.0098267 11.189728 -11.189758 11.189728l-150.40796 0l0 0c-6.179901 0 -11.189697 -5.0098267 -11.189697 -11.189728z" fill-rule="evenodd"/><path fill="#d0fdf2" d="m469.64804 396.0744l0 1.0625l-5.3125 0l0 3.03125l4.953125 0l0 1.0625l-4.953125 0l0 3.296875l5.359375 0l0 1.0625l-6.609375 0l0 -9.515625l6.5625 0zm7.5476074 0l0 9.515625l-1.140625 0l0 -0.9375l-0.03125 0q-0.265625 0.546875 -0.84375 0.828125q-0.578125 0.265625 -1.34375 0.265625q-1.453125 0 -2.3125 -1.0q-0.859375 -1.0 -0.859375 -2.625q0 -1.59375 0.828125 -2.578125q0.84375 -1.0 2.3125 -1.0q0.671875 0 1.28125 0.28125q0.609375 0.265625 0.9375 0.796875l0.03125 0l0 -3.546875l1.140625 0zm-5.34375 6.125q0 1.109375 0.578125 1.828125q0.578125 0.71875 1.5625 0.71875q1.0 0 1.546875 -0.71875q0.5625 -0.71875 0.5625 -1.875q0 -1.171875 -0.578125 -1.890625q-0.5625 -0.71875 -1.609375 -0.71875q-0.984375 0 -1.53125 0.71875q-0.53125 0.703125 -0.53125 1.9375zm9.947418 -3.65625q1.484375 0 2.296875 1.078125q0.828125 1.0625 0.828125 2.734375l0 0.125l-5.171875 0l0 0.09375q0 0.984375 0.578125 1.578125q0.578125 0.59375 1.578125 0.59375q0.75 0 1.1875 -0.34375q0.453125 -0.359375 0.59375 -1.0l1.125 0q-0.234375 1.140625 -1.015625 1.75q-0.765625 0.59375 -1.9375 0.59375q-1.078125 0 -1.828125 -0.484375q-0.75 -0.484375 -1.109375 -1.359375q-0.359375 -0.890625 -0.359375 -1.796875q0 -1.53125 0.90625 -2.546875q0.921875 -1.015625 2.328125 -1.015625zm-2.046875 2.9375l3.96875 0q-0.0625 -0.84375 -0.625 -1.390625q-0.546875 -0.546875 -1.375 -0.546875q-0.78125 0 -1.34375 0.53125q-0.546875 0.515625 -0.625 1.40625zm9.768036 -2.9375q0.046875 0 0.078125 0q0.03125 0 0.078125 0l0 1.203125q-1.28125 0 -1.890625 0.671875q-0.59375 0.671875 -0.59375 2.09375l0 3.078125l-1.140625 0l0 -6.890625l1.0625 0l0 1.453125l0.03125 0q0.390625 -0.828125 0.96875 -1.21875q0.59375 -0.390625 1.40625 -0.390625zm3.5099792 0q1.40625 0 1.984375 0.5q0.59375 0.5 0.59375 1.34375q0 3.578125 0 3.96875q0 0.390625 0.359375 0.390625q0.078125 0 0.171875 -0.015625q0.09375 -0.015625 0.171875 -0.046875l0 0.875q-0.15625 0.09375 -0.359375 0.140625q-0.203125 0.046875 -0.4375 0.046875q-0.46875 0 -0.71875 -0.25q-0.25 -0.265625 -0.25 -0.8125q-0.453125 0.53125 -1.0625 0.796875q-0.609375 0.265625 -1.359375 0.265625q-1.078125 0 -1.6875 -0.5q-0.59375 -0.5 -0.59375 -1.421875q0 -0.9375 0.59375 -1.46875q0.59375 -0.546875 2.78125 -0.828125q0.734375 -0.09375 1.0 -0.28125q0.265625 -0.1875 0.265625 -0.5625q0 -0.578125 -0.375 -0.859375q-0.359375 -0.28125 -1.15625 -0.28125q-0.84375 0 -1.265625 0.3125q-0.421875 0.3125 -0.453125 0.984375l-1.125 0q0.046875 -1.140625 0.796875 -1.71875q0.765625 -0.578125 2.125 -0.578125zm-2.0 5.1875q0 0.484375 0.34375 0.75q0.359375 0.265625 1.0 0.265625q0.953125 0 1.515625 -0.46875q0.578125 -0.484375 0.578125 -1.0625l0 -1.1875q-0.28125 0.203125 -0.734375 0.28125q-0.453125 0.0625 -1.21875 0.171875q-0.75 0.109375 -1.125 0.40625q-0.359375 0.296875 -0.359375 0.84375zm14.299164 -7.65625q1.75 0 2.375 0.71875q0.640625 0.703125 0.640625 1.609375q0 0.75 -0.375 1.3125q-0.359375 0.546875 -1.03125 0.828125l0 0.015625q0.875 0.203125 1.34375 0.8125q0.46875 0.609375 0.46875 1.484375q0 1.171875 -0.8125 1.953125q-0.8125 0.78125 -2.03125 0.78125l-4.640625 0l0 -9.515625l4.0625 0zm-0.203125 4.09375q0.9375 0 1.4375 -0.359375q0.515625 -0.359375 0.515625 -1.15625q0 -0.765625 -0.421875 -1.140625q-0.421875 -0.375 -1.53125 -0.375l-2.609375 0l0 3.03125l2.609375 0zm0.625 4.359375q0.765625 0 1.25 -0.453125q0.484375 -0.46875 0.484375 -1.25q0 -0.8125 -0.546875 -1.203125q-0.546875 -0.390625 -1.578125 -0.390625l-2.84375 0l0 3.296875l3.234375 0zm5.583679 -5.828125l0 4.703125q0 0.578125 0.375 0.96875q0.37496948 0.375 1.0312195 0.375q0.96875 0 1.5 -0.59375q0.53125 -0.59375 0.53125 -1.515625l0 -3.9375l1.140625 0l0 6.890625l-1.0625 0l0 -1.09375l-0.03125 0q-0.375 0.65625 -0.953125 0.953125q-0.5625 0.296875 -1.296875 0.296875q-1.2030945 0 -1.7812195 -0.609375q-0.578125 -0.625 -0.578125 -1.84375l0 -4.59375l1.125 0zm7.474945 -2.625l0 1.390625l-1.125 0l0 -1.390625l1.125 0zm0 2.625l0 6.890625l-1.125 0l0 -6.890625l1.125 0zm2.9611206 -2.625l0 9.515625l-1.125 0l0 -9.515625l1.125 0zm7.9298096 0l0 9.515625l-1.140625 0l0 -0.9375l-0.03125 0q-0.265625 0.546875 -0.84375 0.828125q-0.578125 0.265625 -1.34375 0.265625q-1.453125 0 -2.3125 -1.0q-0.859375 -1.0 -0.859375 -2.625q0 -1.59375 0.828125 -2.578125q0.84375 -1.0 2.3125 -1.0q0.671875 0 1.28125 0.28125q0.609375 0.265625 0.9375 0.796875l0.03125 0l0 -3.546875l1.140625 0zm-5.34375 6.125q0 1.109375 0.578125 1.828125q0.578125 0.71875 1.5625 0.71875q1.0 0 1.546875 -0.71875q0.5625 -0.71875 0.5625 -1.875q0 -1.171875 -0.578125 -1.890625q-0.5625 -0.71875 -1.609375 -0.71875q-0.984375 0 -1.53125 0.71875q-0.53125 0.703125 -0.53125 1.9375z" fill-rule="nonzero"/><path fill="#d0fdf2" d="m431.0965 412.0744l0 4.09375l5.015625 0l0 -4.09375l1.265625 0l0 9.515625l-1.265625 0l0 -4.359375l-5.015625 0l0 4.359375l-1.25 0l0 -9.515625l1.25 0zm11.047028 2.46875q1.484375 0 2.296875 1.078125q0.828125 1.0625 0.828125 2.734375l0 0.125l-5.171875 0l0 0.09375q0 0.984375 0.578125 1.578125q0.578125 0.59375 1.578125 0.59375q0.75 0 1.1875 -0.34375q0.453125 -0.359375 0.59375 -1.0l1.125 0q-0.234375 1.140625 -1.015625 1.75q-0.765625 0.59375 -1.9375 0.59375q-1.078125 0 -1.828125 -0.484375q-0.75 -0.484375 -1.109375 -1.359375q-0.359375 -0.890625 -0.359375 -1.796875q0 -1.53125 0.90625 -2.546875q0.921875 -1.015625 2.328125 -1.015625zm-2.046875 2.9375l3.96875 0q-0.0625 -0.84375 -0.625 -1.390625q-0.546875 -0.546875 -1.375 -0.546875q-0.78125 0 -1.34375 0.53125q-0.546875 0.515625 -0.625 1.40625zm9.768036 -2.9375q0.046875 0 0.078125 0q0.03125 0 0.078125 0l0 1.203125q-1.28125 0 -1.890625 0.671875q-0.59375 0.671875 -0.59375 2.09375l0 3.078125l-1.140625 0l0 -6.890625l1.0625 0l0 1.453125l0.03125 0q0.390625 -0.828125 0.96875 -1.21875q0.59375 -0.390625 1.40625 -0.390625zm4.3289795 0q0.75 0 1.234375 0.3125q0.484375 0.296875 0.65625 0.859375q0.359375 -0.5625 0.921875 -0.859375q0.5625 -0.3125 1.25 -0.3125q1.15625 0 1.71875 0.53125q0.5625 0.515625 0.5625 1.421875l0 5.09375l-1.125 0l0 -4.5625q0 -0.75 -0.328125 -1.109375q-0.3125 -0.375 -1.015625 -0.375q-0.84375 0 -1.328125 0.5q-0.46875 0.484375 -0.46875 1.21875l0 4.328125l-1.140625 0l0 -4.5625q0 -0.75 -0.3125 -1.109375q-0.3125 -0.375 -0.96875 -0.375q-0.546875 0 -0.96875 0.265625q-0.40625 0.25 -0.640625 0.703125q-0.234375 0.453125 -0.234375 0.765625l0 4.3125l-1.125 0l0 -6.890625l1.0625 0l0 1.015625l0.03125 0q0.390625 -0.59375 0.9375 -0.875q0.546875 -0.296875 1.28125 -0.296875zm10.916138 0q1.484375 0 2.296875 1.078125q0.828125 1.0625 0.828125 2.734375l0 0.125l-5.171875 0l0 0.09375q0 0.984375 0.578125 1.578125q0.578125 0.59375 1.578125 0.59375q0.75 0 1.1875 -0.34375q0.453125 -0.359375 0.59375 -1.0l1.125 0q-0.234375 1.140625 -1.015625 1.75q-0.765625 0.59375 -1.9375 0.59375q-1.078125 0 -1.828125 -0.484375q-0.75 -0.484375 -1.109375 -1.359375q-0.359375 -0.890625 -0.359375 -1.796875q0 -1.53125 0.90625 -2.546875q0.921875 -1.015625 2.328125 -1.015625zm-2.046875 2.9375l3.96875 0q-0.0625 -0.84375 -0.625 -1.390625q-0.546875 -0.546875 -1.375 -0.546875q-0.78125 0 -1.34375 0.53125q-0.546875 0.515625 -0.625 1.40625zm7.908661 -4.84375l0 2.0625l1.375 0l0 1.0l-1.375 0l0 4.3125q0 0.515625 0.34375 0.546875q0.34375 0.03125 0.71875 0.03125l0.3125 0l0 1.0l-0.9375 0q-0.921875 0 -1.25 -0.328125q-0.3125 -0.328125 -0.3125 -1.109375l0 -4.453125l-1.1875 0l0 -1.0l1.1875 0l0 -2.0625l1.125 0zm3.8226013 -0.5625l0 1.390625l-1.125 0l0 -1.390625l1.125 0zm0 2.625l0 6.890625l-1.125 0l0 -6.890625l1.125 0zm4.64859 -0.15625q1.25 0 2.03125 0.609375q0.796875 0.59375 0.9375 1.765625l-1.171875 0q-0.140625 -0.671875 -0.59375 -1.015625q-0.4375 -0.359375 -1.109375 -0.359375q-1.0625 0 -1.609375 0.703125q-0.546875 0.703125 -0.546875 1.984375q0 1.140625 0.546875 1.828125q0.546875 0.6875 1.46875 0.6875q0.828125 0 1.296875 -0.4375q0.484375 -0.453125 0.59375 -1.234375l1.15625 0q-0.1875 1.28125 -0.96875 1.984375q-0.78125 0.6875 -2.0625 0.6875q-1.5 0 -2.359375 -0.9375q-0.859375 -0.953125 -0.859375 -2.578125q0 -1.6875 0.859375 -2.6875q0.875 -1.0 2.390625 -1.0zm12.205383 -2.703125q1.578125 0 2.640625 0.828125q1.0625 0.8125 1.28125 2.265625l-1.265625 0q-0.21875 -0.96875 -0.921875 -1.484375q-0.703125 -0.53125 -1.75 -0.53125q-1.515625 0 -2.375 1.0625q-0.84375 1.0625 -0.84375 2.78125q0 1.828125 0.828125 2.90625q0.84375 1.078125 2.40625 1.078125q1.15625 0 1.90625 -0.734375q0.75 -0.734375 0.84375 -2.0l1.265625 0q-0.203125 1.84375 -1.28125 2.828125q-1.078125 0.984375 -2.84375 0.984375q-2.046875 0 -3.21875 -1.359375q-1.171875 -1.359375 -1.171875 -3.609375q0 -2.21875 1.203125 -3.609375q1.21875 -1.40625 3.296875 -1.40625zm6.9064026 0.234375l0 9.515625l-1.265625 0l0 -9.515625l1.265625 0zm5.761688 -0.234375l-3.9375 9.984375l-0.96875 0l3.9375 -9.984375l0.96875 0zm4.8446045 0q1.578125 0 2.640625 0.828125q1.0625305 0.8125 1.2812805 2.265625l-1.2656555 0q-0.21875 -0.96875 -0.921875 -1.484375q-0.703125 -0.53125 -1.75 -0.53125q-1.515625 0 -2.375 1.0625q-0.84375 1.0625 -0.84375 2.78125q0 1.828125 0.828125 2.90625q0.84375 1.078125 2.40625 1.078125q1.15625 0 1.90625 -0.734375q0.75 -0.734375 0.84375 -2.0l1.2656555 0q-0.203125 1.84375 -1.2812805 2.828125q-1.078125 0.984375 -2.84375 0.984375q-2.046875 0 -3.21875 -1.359375q-1.171875 -1.359375 -1.171875 -3.609375q0 -2.21875 1.203125 -3.609375q1.21875 -1.40625 3.296875 -1.40625zm8.922028 0.234375q2.171875 0 3.328125 1.15625q1.171875 1.140625 1.171875 3.375q0 2.515625 -1.15625 3.75q-1.15625 1.234375 -3.34375 1.234375l-3.328125 0l0 -9.515625l3.328125 0zm0.078125 8.453125q1.4375 0 2.296875 -0.921875q0.859375 -0.9375 0.859375 -2.828125q0 -1.890625 -0.78125 -2.765625q-0.78125 -0.875 -2.328125 -0.875l-2.203125 0l0 7.390625l2.15625 0zm13.743591 -8.453125q1.75 0 2.375 0.71875q0.640625 0.703125 0.640625 1.609375q0 0.75 -0.375 1.3125q-0.359375 0.546875 -1.03125 0.828125l0 0.015625q0.875 0.203125 1.34375 0.8125q0.46875 0.609375 0.46875 1.484375q0 1.171875 -0.8125 1.953125q-0.8125 0.78125 -2.03125 0.78125l-4.640625 0l0 -9.515625l4.0625 0zm-0.203125 4.09375q0.9375 0 1.4375 -0.359375q0.515625 -0.359375 0.515625 -1.15625q0 -0.765625 -0.421875 -1.140625q-0.421875 -0.375 -1.53125 -0.375l-2.609375 0l0 3.03125l2.609375 0zm0.625 4.359375q0.765625 0 1.25 -0.453125q0.484375 -0.46875 0.484375 -1.25q0 -0.8125 -0.546875 -1.203125q-0.546875 -0.390625 -1.578125 -0.390625l-2.84375 0l0 3.296875l3.234375 0zm5.583679 -5.828125l0 4.703125q0 0.578125 0.375 0.96875q0.375 0.375 1.03125 0.375q0.96875 0 1.5 -0.59375q0.53125 -0.59375 0.53125 -1.515625l0 -3.9375l1.140625 0l0 6.890625l-1.0625 0l0 -1.09375l-0.03125 0q-0.375 0.65625 -0.953125 0.953125q-0.5625 0.296875 -1.296875 0.296875q-1.203125 0 -1.78125 -0.609375q-0.578125 -0.625 -0.578125 -1.84375l0 -4.59375l1.125 0zm7.4749756 -2.625l0 1.390625l-1.125 0l0 -1.390625l1.125 0zm0 2.625l0 6.890625l-1.125 0l0 -6.890625l1.125 0zm2.9611206 -2.625l0 9.515625l-1.125 0l0 -9.515625l1.125 0zm7.9298096 0l0 9.515625l-1.140625 0l0 -0.9375l-0.03125 0q-0.265625 0.546875 -0.84375 0.828125q-0.578125 0.265625 -1.34375 0.265625q-1.453125 0 -2.3125 -1.0q-0.859375 -1.0 -0.859375 -2.625q0 -1.59375 0.828125 -2.578125q0.84375 -1.0 2.3125 -1.0q0.671875 0 1.28125 0.28125q0.609375 0.265625 0.9375 0.796875l0.03125 0l0 -3.546875l1.140625 0zm-5.34375 6.125q0 1.109375 0.578125 1.828125q0.578125 0.71875 1.5625 0.71875q1.0 0 1.546875 -0.71875q0.5625 -0.71875 0.5625 -1.875q0 -1.171875 -0.578125 -1.890625q-0.5625 -0.71875 -1.609375 -0.71875q-0.984375 0 -1.53125 0.71875q-0.53125 0.703125 -0.53125 1.9375zm9.369324 -3.65625q1.390625 0 2.0625 0.546875q0.6875 0.53125 0.75 1.609375l-1.125 0l0 -0.015625q-0.046875 -0.546875 -0.484375 -0.84375q-0.4375 -0.296875 -1.109375 -0.296875q-0.6875 0 -1.09375 0.234375q-0.390625 0.21875 -0.390625 0.640625q0 0.375 0.34375 0.625q0.359375 0.234375 1.0625 0.375l1.0625 0.25q1.0 0.21875 1.515625 0.6875q0.53125 0.453125 0.53125 1.21875q0 1.015625 -0.796875 1.59375q-0.78125 0.578125 -2.140625 0.578125q-1.3125 0 -2.09375 -0.578125q-0.765625 -0.59375 -0.828125 -1.75l1.140625 0q0.015625 0.640625 0.5 0.984375q0.5 0.34375 1.34375 0.34375q0.828125 0 1.25 -0.25q0.421875 -0.265625 0.421875 -0.78125q0 -0.453125 -0.421875 -0.71875q-0.421875 -0.28125 -1.71875 -0.53125q-1.296875 -0.265625 -1.828125 -0.71875q-0.53125 -0.46875 -0.53125 -1.25q0 -0.90625 0.734375 -1.421875q0.734375 -0.53125 1.84375 -0.53125z" fill-rule="nonzero"/><path fill="#000000" fill-opacity="0.0" d="m496.31235 312.85303l0 62.299194" fill-rule="evenodd"/><path stroke="#02f4d5" stroke-width="1.0" stroke-linejoin="round" stroke-linecap="butt" stroke-dasharray="4.0,3.0" d="m496.31235 312.85303l0 62.299194" fill-rule="evenodd"/><path fill="#000000" fill-opacity="0.0" d="m51.27559 313.35696l857.44885 0" fill-rule="evenodd"/><path stroke="#02f4d5" stroke-width="1.0" stroke-linejoin="round" stroke-linecap="butt" stroke-dasharray="4.0,3.0" d="m51.27559 313.35696l857.44885 0" fill-rule="evenodd"/><path fill="#000000" fill-opacity="0.0" d="m52.183727 274.96194l95.08661 0l0 38.393707l-95.08661 0z" fill-rule="evenodd"/><path fill="#d0fdf2" d="m68.240524 298.9588l0 -9.328125l3.328125 0q0.953125 0 1.578125 0.359375q0.640625 0.34375 0.953125 0.921875q0.3125 0.5625 0.3125 1.25l0 0.40625q0 0.671875 -0.328125 1.265625q-0.3125 0.578125 -0.953125 0.9375q-0.625 0.34375 -1.5625 0.34375l-2.21875 0l0 3.84375l-1.109375 0zm1.109375 -4.875l2.078125 0q1.875 0 1.875 -1.609375l0 -0.234375q0 -0.703125 -0.46875 -1.140625q-0.453125 -0.4375 -1.40625 -0.4375l-2.078125 0l0 3.421875zm7.063034 4.875l0 -9.328125l1.046875 0l0 3.921875l0.15625 0q0.3125 -0.640625 0.859375 -1.015625q0.546875 -0.375 1.359375 -0.375q1.078125 0 1.75 0.71875q0.671875 0.703125 0.671875 2.140625l0 3.9375l-1.046875 0l0 -3.734375q0 -1.03125 -0.46875 -1.546875q-0.453125 -0.53125 -1.265625 -0.53125q-0.921875 0 -1.46875 0.65625q-0.546875 0.640625 -0.546875 1.71875l0 3.4375l-1.046875 0zm10.719284 0.1875q-0.859375 0 -1.5625 -0.390625q-0.703125 -0.390625 -1.125 -1.140625q-0.40625 -0.765625 -0.40625 -1.859375l0 -0.203125q0 -1.078125 0.40625 -1.84375q0.421875 -0.765625 1.125 -1.15625q0.703125 -0.390625 1.53125 -0.390625q0.6875 0 1.234375 0.296875q0.5625 0.296875 0.875 0.921875l0.15625 0l0 -1.03125l1.046875 0l0 5.25q0 0.40625 0.359375 0.40625l0.328125 0l0 0.953125l-0.703125 0q-0.40625 0 -0.71875 -0.265625q-0.3125 -0.265625 -0.3125 -0.859375l-0.15625 0q-0.3125 0.65625 -0.890625 0.984375q-0.5625 0.328125 -1.1875 0.328125zm0.109375 -0.984375q0.9375 0 1.53125 -0.65625q0.59375 -0.671875 0.59375 -1.765625l0 -0.171875q0 -0.703125 -0.28125 -1.25q-0.28125 -0.546875 -0.765625 -0.859375q-0.46875 -0.3125 -1.078125 -0.3125q-0.609375 0 -1.09375 0.296875q-0.484375 0.296875 -0.765625 0.84375q-0.28125 0.546875 -0.28125 1.265625l0 0.203125q0 1.125 0.59375 1.765625q0.609375 0.640625 1.546875 0.640625zm8.516159 0.984375q-1.03125 0 -1.6875 -0.34375q-0.640625 -0.359375 -0.96875 -0.90625q-0.3125 -0.5625 -0.359375 -1.15625l0.984375 -0.234375q0.0625 0.765625 0.59375 1.234375q0.53125 0.453125 1.375 0.453125q0.734375 0 1.171875 -0.28125q0.453125 -0.296875 0.453125 -0.8125q0 -0.5625 -0.4375 -0.796875q-0.4375 -0.25 -1.421875 -0.3125q-1.125 -0.078125 -1.75 -0.53125q-0.625 -0.46875 -0.625 -1.328125l0 -0.078125q0 -0.625 0.34375 -1.046875q0.359375 -0.421875 0.90625 -0.625q0.546875 -0.21875 1.15625 -0.21875q0.875 0 1.453125 0.296875q0.578125 0.296875 0.890625 0.78125q0.3125 0.46875 0.375 0.96875l-0.984375 0.25q-0.0625 -0.640625 -0.515625 -1.0q-0.453125 -0.359375 -1.171875 -0.359375q-0.5625 0 -1.0 0.234375q-0.4375 0.234375 -0.4375 0.71875q0 0.484375 0.40625 0.734375q0.40625 0.25 1.484375 0.328125q1.15625 0.09375 1.765625 0.5625q0.609375 0.453125 0.609375 1.328125l0 0.09375q0 0.953125 -0.734375 1.5q-0.71875 0.546875 -1.875 0.546875zm8.078659 0q-0.953125 0 -1.6875 -0.4375q-0.71875 -0.4375 -1.140625 -1.203125q-0.40625 -0.765625 -0.40625 -1.765625l0 -0.328125q0 -0.9375 0.421875 -1.65625q0.4375 -0.734375 1.171875 -1.15625q0.75 -0.4375 1.65625 -0.4375q0.8125 0 1.40625 0.296875q0.59375 0.296875 0.96875 0.75q0.390625 0.453125 0.5625 0.96875q0.1875 0.5 0.1875 0.9375l0 0.859375l-5.328125 0q0.03125 0.96875 0.609375 1.578125q0.59375 0.609375 1.59375 0.609375q0.953125 0 1.421875 -0.390625q0.46875 -0.40625 0.640625 -0.96875l0.984375 0.265625q-0.28125 0.921875 -1.03125 1.5q-0.75 0.578125 -2.03125 0.578125zm-2.15625 -4.125l4.25 0q-0.015625 -0.578125 -0.328125 -1.0q-0.296875 -0.421875 -0.765625 -0.640625q-0.453125 -0.234375 -0.984375 -0.234375q-0.875 0 -1.484375 0.53125q-0.59375 0.53125 -0.6875 1.34375zm18.43856 4.125q-1.53125 0 -2.40625 -0.96875q-0.875 -0.984375 -0.875 -2.84375l0 -2.078125q0 -1.796875 0.875 -2.796875q0.875 -1.015625 2.40625 -1.015625q1.546875 0 2.40625 1.015625q0.875 1.0 0.875 2.796875l0 2.078125q0 1.859375 -0.875 2.84375q-0.859375 0.96875 -2.40625 0.96875zm0 -1.015625q1.078125 0 1.609375 -0.75q0.546875 -0.765625 0.546875 -2.125l0 -1.921875q0 -1.28125 -0.546875 -2.078125q-0.53125 -0.796875 -1.609375 -0.796875q-1.078125 0 -1.625 0.796875q-0.53125 0.796875 -0.53125 2.078125l0 1.921875q0 1.359375 0.53125 2.125q0.546875 0.75 1.625 0.75zm0 -2.984375q-0.328125 0 -0.59375 -0.25q-0.265625 -0.265625 -0.265625 -0.609375q0 -0.34375 0.265625 -0.59375q0.265625 -0.25 0.59375 -0.25q0.34375 0 0.59375 0.25q0.265625 0.25 0.265625 0.59375q0 0.34375 -0.265625 0.609375q-0.25 0.25 -0.59375 0.25zm5.031784 3.8125l0 -1.046875l2.625 0l0 -7.796875l-0.15625 0l-1.53125 3.515625l-1.109375 0l0 -0.078125l1.75 -3.921875l2.1718826 0l0 8.28125l2.640625 0l0 1.046875l-6.3906326 0z" fill-rule="nonzero"/><path fill="#000000" fill-opacity="0.0" d="m353.81366 274.96326l95.08664 0l0 38.393707l-95.08664 0z" fill-rule="evenodd"/><path fill="#d0fdf2" d="m369.87045 298.9601l0 -9.328125l3.328125 0q0.953125 0 1.578125 0.359375q0.640625 0.34375 0.953125 0.921875q0.3125 0.5625 0.3125 1.25l0 0.40625q0 0.671875 -0.328125 1.265625q-0.3125 0.578125 -0.953125 0.9375q-0.625 0.34375 -1.5625 0.34375l-2.21875 0l0 3.84375l-1.109375 0zm1.109375 -4.875l2.078125 0q1.875 0 1.875 -1.609375l0 -0.234375q0 -0.703125 -0.46875 -1.140625q-0.453125 -0.4375 -1.40625 -0.4375l-2.078125 0l0 3.421875zm7.0630493 4.875l0 -9.328125l1.046875 0l0 3.921875l0.15625 0q0.3125 -0.640625 0.859375 -1.015625q0.546875 -0.375 1.359375 -0.375q1.078125 0 1.75 0.71875q0.671875 0.703125 0.671875 2.140625l0 3.9375l-1.046875 0l0 -3.734375q0 -1.03125 -0.46875 -1.546875q-0.453125 -0.53125 -1.265625 -0.53125q-0.921875 0 -1.46875 0.65625q-0.546875 0.640625 -0.546875 1.71875l0 3.4375l-1.046875 0zm10.719269 0.1875q-0.859375 0 -1.5625 -0.390625q-0.703125 -0.390625 -1.125 -1.140625q-0.40625 -0.765625 -0.40625 -1.859375l0 -0.203125q0 -1.078125 0.40625 -1.84375q0.421875 -0.765625 1.125 -1.15625q0.703125 -0.390625 1.53125 -0.390625q0.6875 0 1.234375 0.296875q0.5625 0.296875 0.875 0.921875l0.15625 0l0 -1.03125l1.046875 0l0 5.25q0 0.40625 0.359375 0.40625l0.328125 0l0 0.953125l-0.703125 0q-0.40625 0 -0.71875 -0.265625q-0.3125 -0.265625 -0.3125 -0.859375l-0.15625 0q-0.3125 0.65625 -0.890625 0.984375q-0.5625 0.328125 -1.1875 0.328125zm0.109375 -0.984375q0.9375 0 1.53125 -0.65625q0.59375 -0.671875 0.59375 -1.765625l0 -0.171875q0 -0.703125 -0.28125 -1.25q-0.28125 -0.546875 -0.765625 -0.859375q-0.46875 -0.3125 -1.078125 -0.3125q-0.609375 0 -1.09375 0.296875q-0.484375 0.296875 -0.765625 0.84375q-0.28125 0.546875 -0.28125 1.265625l0 0.203125q0 1.125 0.59375 1.765625q0.609375 0.640625 1.546875 0.640625zm8.516174 0.984375q-1.03125 0 -1.6875 -0.34375q-0.640625 -0.359375 -0.96875 -0.90625q-0.3125 -0.5625 -0.359375 -1.15625l0.984375 -0.234375q0.0625 0.765625 0.59375 1.234375q0.53125 0.453125 1.375 0.453125q0.734375 0 1.171875 -0.28125q0.453125 -0.296875 0.453125 -0.8125q0 -0.5625 -0.4375 -0.796875q-0.4375 -0.25 -1.421875 -0.3125q-1.125 -0.078125 -1.75 -0.53125q-0.625 -0.46875 -0.625 -1.328125l0 -0.078125q0 -0.625 0.34375 -1.046875q0.359375 -0.421875 0.90625 -0.625q0.546875 -0.21875 1.15625 -0.21875q0.875 0 1.453125 0.296875q0.578125 0.296875 0.890625 0.78125q0.3125 0.46875 0.375 0.96875l-0.984375 0.25q-0.0625 -0.640625 -0.515625 -1.0q-0.453125 -0.359375 -1.171875 -0.359375q-0.5625 0 -1.0 0.234375q-0.4375 0.234375 -0.4375 0.71875q0 0.484375 0.40625 0.734375q0.40625 0.25 1.484375 0.328125q1.15625 0.09375 1.765625 0.5625q0.609375 0.453125 0.609375 1.328125l0 0.09375q0 0.953125 -0.734375 1.5q-0.71875 0.546875 -1.875 0.546875zm8.078644 0q-0.953125 0 -1.6875 -0.4375q-0.71875 -0.4375 -1.140625 -1.203125q-0.40625 -0.765625 -0.40625 -1.765625l0 -0.328125q0 -0.9375 0.421875 -1.65625q0.4375 -0.734375 1.171875 -1.15625q0.75 -0.4375 1.65625 -0.4375q0.8125 0 1.40625 0.296875q0.59375 0.296875 0.96875 0.75q0.390625 0.453125 0.5625 0.96875q0.1875 0.5 0.1875 0.9375l0 0.859375l-5.328125 0q0.03125 0.96875 0.609375 1.578125q0.59375 0.609375 1.59375 0.609375q0.953125 0 1.421875 -0.390625q0.46875 -0.40625 0.640625 -0.96875l0.984375 0.265625q-0.28125 0.921875 -1.03125 1.5q-0.75 0.578125 -2.03125 0.578125zm-2.15625 -4.125l4.25 0q-0.015625 -0.578125 -0.328125 -1.0q-0.296875 -0.421875 -0.765625 -0.640625q-0.453125 -0.234375 -0.984375 -0.234375q-0.875 0 -1.484375 0.53125q-0.59375 0.53125 -0.6875 1.34375zm18.438568 4.125q-1.53125 0 -2.40625 -0.96875q-0.875 -0.984375 -0.875 -2.84375l0 -2.078125q0 -1.796875 0.875 -2.796875q0.875 -1.015625 2.40625 -1.015625q1.546875 0 2.40625 1.015625q0.875 1.0 0.875 2.796875l0 2.078125q0 1.859375 -0.875 2.84375q-0.859375 0.96875 -2.40625 0.96875zm0 -1.015625q1.078125 0 1.609375 -0.75q0.546875 -0.765625 0.546875 -2.125l0 -1.921875q0 -1.28125 -0.546875 -2.078125q-0.53125 -0.796875 -1.609375 -0.796875q-1.078125 0 -1.625 0.796875q-0.53125 0.796875 -0.53125 2.078125l0 1.921875q0 1.359375 0.53125 2.125q0.546875 0.75 1.625 0.75zm0 -2.984375q-0.328125 0 -0.59375 -0.25q-0.265625 -0.265625 -0.265625 -0.609375q0 -0.34375 0.265625 -0.59375q0.265625 -0.25 0.59375 -0.25q0.34375 0 0.59375 0.25q0.265625 0.25 0.265625 0.59375q0 0.34375 -0.265625 0.609375q-0.25 0.25 -0.59375 0.25zm5.0161743 3.8125l0 -1.59375q0 -0.859375 0.359375 -1.421875q0.375 -0.5625 1.046875 -0.90625q0.6875 -0.359375 1.625 -0.5625q1.1875 -0.265625 1.703125 -0.765625q0.53125 -0.5 0.53125 -1.203125l0 -0.078125q0 -0.484375 -0.21875 -0.921875q-0.203125 -0.453125 -0.671875 -0.734375q-0.453125 -0.296875 -1.1875 -0.296875q-1.0 0 -1.578125 0.640625q-0.578125 0.625 -0.578125 1.65625l0 0.59375l-1.109375 0l0 -0.671875q0 -0.859375 0.359375 -1.59375q0.375 -0.734375 1.109375 -1.1875q0.734375 -0.46875 1.796875 -0.46875q1.09375 0 1.796875 0.421875q0.703125 0.421875 1.046875 1.078125q0.359375 0.640625 0.359375 1.359375l0 0.25q0 1.046875 -0.671875 1.8125q-0.65625 0.75 -2.125 1.078125q-1.265625 0.28125 -1.875 0.75q-0.609375 0.453125 -0.609375 1.328125l0 0.390625l5.203125 0l0 1.046875l-6.3125 0z" fill-rule="nonzero"/><path fill="#000000" fill-opacity="0.0" d="m644.80316 274.96326l95.08661 0l0 38.393707l-95.08661 0z" fill-rule="evenodd"/><path fill="#d0fdf2" d="m660.8599 298.9601l0 -9.328125l3.328125 0q0.953125 0 1.578125 0.359375q0.640625 0.34375 0.953125 0.921875q0.3125 0.5625 0.3125 1.25l0 0.40625q0 0.671875 -0.328125 1.265625q-0.3125 0.578125 -0.953125 0.9375q-0.625 0.34375 -1.5625 0.34375l-2.21875 0l0 3.84375l-1.109375 0zm1.109375 -4.875l2.078125 0q1.875 0 1.875 -1.609375l0 -0.234375q0 -0.703125 -0.46875 -1.140625q-0.453125 -0.4375 -1.40625 -0.4375l-2.078125 0l0 3.421875zm7.0630493 4.875l0 -9.328125l1.046875 0l0 3.921875l0.15625 0q0.3125 -0.640625 0.859375 -1.015625q0.546875 -0.375 1.359375 -0.375q1.078125 0 1.75 0.71875q0.671875 0.703125 0.671875 2.140625l0 3.9375l-1.046875 0l0 -3.734375q0 -1.03125 -0.46875 -1.546875q-0.453125 -0.53125 -1.265625 -0.53125q-0.921875 0 -1.46875 0.65625q-0.546875 0.640625 -0.546875 1.71875l0 3.4375l-1.046875 0zm10.719299 0.1875q-0.859375 0 -1.5625 -0.390625q-0.703125 -0.390625 -1.125 -1.140625q-0.40625 -0.765625 -0.40625 -1.859375l0 -0.203125q0 -1.078125 0.40625 -1.84375q0.421875 -0.765625 1.125 -1.15625q0.703125 -0.390625 1.53125 -0.390625q0.6875 0 1.234375 0.296875q0.5625 0.296875 0.875 0.921875l0.15625 0l0 -1.03125l1.046875 0l0 5.25q0 0.40625 0.359375 0.40625l0.328125 0l0 0.953125l-0.703125 0q-0.40625 0 -0.71875 -0.265625q-0.3125 -0.265625 -0.3125 -0.859375l-0.15625 0q-0.3125 0.65625 -0.890625 0.984375q-0.5625 0.328125 -1.1875 0.328125zm0.109375 -0.984375q0.9375 0 1.53125 -0.65625q0.59375 -0.671875 0.59375 -1.765625l0 -0.171875q0 -0.703125 -0.28125 -1.25q-0.28125 -0.546875 -0.765625 -0.859375q-0.46875 -0.3125 -1.078125 -0.3125q-0.609375 0 -1.09375 0.296875q-0.484375 0.296875 -0.765625 0.84375q-0.28125 0.546875 -0.28125 1.265625l0 0.203125q0 1.125 0.59375 1.765625q0.609375 0.640625 1.546875 0.640625zm8.516174 0.984375q-1.03125 0 -1.6875 -0.34375q-0.640625 -0.359375 -0.96875 -0.90625q-0.3125 -0.5625 -0.359375 -1.15625l0.984375 -0.234375q0.0625 0.765625 0.59375 1.234375q0.53125 0.453125 1.375 0.453125q0.734375 0 1.171875 -0.28125q0.453125 -0.296875 0.453125 -0.8125q0 -0.5625 -0.4375 -0.796875q-0.4375 -0.25 -1.421875 -0.3125q-1.125 -0.078125 -1.75 -0.53125q-0.625 -0.46875 -0.625 -1.328125l0 -0.078125q0 -0.625 0.34375 -1.046875q0.359375 -0.421875 0.90625 -0.625q0.546875 -0.21875 1.15625 -0.21875q0.875 0 1.453125 0.296875q0.578125 0.296875 0.890625 0.78125q0.3125 0.46875 0.375 0.96875l-0.984375 0.25q-0.0625 -0.640625 -0.515625 -1.0q-0.453125 -0.359375 -1.171875 -0.359375q-0.5625 0 -1.0 0.234375q-0.4375 0.234375 -0.4375 0.71875q0 0.484375 0.40625 0.734375q0.40625 0.25 1.484375 0.328125q1.15625 0.09375 1.765625 0.5625q0.609375 0.453125 0.609375 1.328125l0 0.09375q0 0.953125 -0.734375 1.5q-0.71875 0.546875 -1.875 0.546875zm8.078613 0q-0.953125 0 -1.6875 -0.4375q-0.71875 -0.4375 -1.140625 -1.203125q-0.40625 -0.765625 -0.40625 -1.765625l0 -0.328125q0 -0.9375 0.421875 -1.65625q0.4375 -0.734375 1.171875 -1.15625q0.75 -0.4375 1.65625 -0.4375q0.8125 0 1.40625 0.296875q0.59375 0.296875 0.96875 0.75q0.390625 0.453125 0.5625 0.96875q0.1875 0.5 0.1875 0.9375l0 0.859375l-5.328125 0q0.03125 0.96875 0.609375 1.578125q0.59375 0.609375 1.59375 0.609375q0.953125 0 1.421875 -0.390625q0.46875 -0.40625 0.640625 -0.96875l0.984375 0.265625q-0.28125 0.921875 -1.03125 1.5q-0.75 0.578125 -2.03125 0.578125zm-2.15625 -4.125l4.25 0q-0.015625 -0.578125 -0.328125 -1.0q-0.296875 -0.421875 -0.765625 -0.640625q-0.453125 -0.234375 -0.984375 -0.234375q-0.875 0 -1.484375 0.53125q-0.59375 0.53125 -0.6875 1.34375zm18.438599 4.125q-1.53125 0 -2.40625 -0.96875q-0.875 -0.984375 -0.875 -2.84375l0 -2.078125q0 -1.796875 0.875 -2.796875q0.875 -1.015625 2.40625 -1.015625q1.546875 0 2.40625 1.015625q0.875 1.0 0.875 2.796875l0 2.078125q0 1.859375 -0.875 2.84375q-0.859375 0.96875 -2.40625 0.96875zm0 -1.015625q1.078125 0 1.609375 -0.75q0.546875 -0.765625 0.546875 -2.125l0 -1.921875q0 -1.28125 -0.546875 -2.078125q-0.53125 -0.796875 -1.609375 -0.796875q-1.078125 0 -1.625 0.796875q-0.53125 0.796875 -0.53125 2.078125l0 1.921875q0 1.359375 0.53125 2.125q0.546875 0.75 1.625 0.75zm0 -2.984375q-0.328125 0 -0.59375 -0.25q-0.265625 -0.265625 -0.265625 -0.609375q0 -0.34375 0.265625 -0.59375q0.265625 -0.25 0.59375 -0.25q0.34375 0 0.59375 0.25q0.265625 0.25 0.265625 0.59375q0 0.34375 -0.265625 0.609375q-0.25 0.25 -0.59375 0.25zm8.297424 4.0q-1.046875 0 -1.8125 -0.421875q-0.75 -0.421875 -1.15625 -1.109375q-0.40625 -0.703125 -0.40625 -1.5625l0 -0.71875l1.109375 0l0 0.640625q0 1.0 0.640625 1.5625q0.640625 0.5625 1.609375 0.5625q0.578125 0 1.046875 -0.25q0.484375 -0.265625 0.75 -0.6875q0.28125 -0.4375 0.28125 -0.96875l0 -0.09375q0 -0.828125 -0.53125 -1.296875q-0.53125 -0.484375 -1.34375 -0.484375l-1.25 0l0 -1.546875l3.046875 -1.9375l0 -0.171875l-5.28125 0l0 -1.03125l6.234375 0l0 1.703125l-3.03125 1.953125l0 0.15625l0.53125 0q0.703125 0 1.328125 0.3125q0.625 0.296875 1.015625 0.875q0.390625 0.578125 0.390625 1.4375l0 0.234375q0 0.796875 -0.40625 1.453125q-0.40625 0.640625 -1.140625 1.015625q-0.71875 0.375 -1.625 0.375z" fill-rule="nonzero"/><path fill="#000000" fill-opacity="0.0" d="m48.0 60.121212l708.0 0l0 48.47244l-708.0 0z" fill-rule="evenodd"/><path fill="#d0fdf2" d="m60.796875 99.08371q-3.59375 0 -6.046875 -1.34375q-2.4375 -1.34375 -3.703125 -3.65625q-1.25 -2.328125 -1.25 -5.25l0 -1.1875l3.359375 0l0 0.953125q0 3.640625 2.03125 5.5q2.046875 1.859375 5.609375 1.859375q3.125 0 4.703125 -1.390625q1.578125 -1.40625 1.578125 -3.640625l0 -0.25q0 -2.203125 -1.625 -3.359375q-1.609375 -1.15625 -5.25 -1.671875q-4.203125 -0.609375 -6.703125 -2.390625q-2.5 -1.78125 -2.5 -5.375l0 -0.484375q0 -2.1875 1.171875 -3.84375q1.1875 -1.671875 3.265625 -2.625q2.078125 -0.96875 4.796875 -0.96875q3.171875 0 5.390625 1.171875q2.21875 1.15625 3.390625 3.0625q1.1875 1.890625 1.1875 4.171875l0 1.671875l-3.359375 0l0 -1.4375q0 -1.84375 -0.921875 -3.0625q-0.921875 -1.21875 -2.453125 -1.828125q-1.515625 -0.625 -3.265625 -0.625q-1.515625 0 -2.859375 0.515625q-1.34375 0.515625 -2.171875 1.5q-0.8125 0.984375 -0.8125 2.421875l0 0.234375q0 2.328125 1.875 3.390625q1.890625 1.0625 5.640625 1.609375q4.40625 0.640625 6.484375 2.5625q2.078125 1.921875 2.078125 5.125l0 0.484375q0 3.640625 -2.46875 5.90625q-2.453125 2.25 -7.171875 2.25zm22.839355 0q-2.59375 0 -4.703125 -1.171875q-2.09375 -1.1875 -3.34375 -3.4375q-1.234375 -2.265625 -1.234375 -5.546875l0 -0.640625q0 -3.25 1.234375 -5.53125q1.25 -2.28125 3.34375 -3.453125q2.109375 -1.1875 4.625 -1.1875q2.046875 0 3.703125 0.90625q1.65625 0.90625 2.625 2.78125l0.46875 0l0 -3.125l3.125 0l0 15.765625q0 1.203125 1.078125 1.203125l1.0 0l0 2.875l-2.125 0q-1.234375 0 -2.15625 -0.796875q-0.921875 -0.796875 -0.921875 -2.5625l-0.46875 0q-0.96875 1.953125 -2.671875 2.9375q-1.6875 0.984375 -3.578125 0.984375zm0.328125 -2.96875q2.796875 0 4.59375 -2.0q1.796875 -2.0 1.796875 -5.28125l0 -0.46875q0 -2.125 -0.84375 -3.765625q-0.828125 -1.640625 -2.28125 -2.578125q-1.4375 -0.9375 -3.265625 -0.9375q-1.84375 0 -3.28125 0.90625q-1.4375 0.890625 -2.28125 2.515625q-0.84375 1.609375 -0.84375 3.78125l0 0.640625q0 3.359375 1.796875 5.28125q1.8125 1.90625 4.609375 1.90625zm14.91748 2.40625l0 -19.84375l3.125 0l0 2.15625l0.46875 0q0.53125 -1.390625 1.53125 -2.046875q1.0 -0.671875 2.359375 -0.671875q1.4375 0 2.375 0.765625q0.9375 0.765625 1.296875 1.953125l0.484375 0q1.359375 -2.71875 4.3125 -2.71875q2.25 0 3.46875 1.421875q1.21875 1.421875 1.21875 3.703125l0 15.28125l-3.125 0l0 -14.234375q0 -1.40625 -0.640625 -2.296875q-0.640625 -0.90625 -2.03125 -0.90625q-1.328125 0 -2.15625 1.0q-0.8125 1.0 -0.8125 3.0l0 13.4375l-3.109375 0l0 -14.40625q0 -1.3125 -0.734375 -2.171875q-0.71875 -0.859375 -1.90625 -0.859375q-1.453125 0 -2.234375 1.046875q-0.765625 1.03125 -0.765625 2.703125l0 13.6875l-3.125 0zm25.32373 8.0l0 -27.84375l3.109375 0l0 3.125l0.484375 0q1.046875 -1.796875 2.875 -2.734375q1.84375 -0.953125 4.0 -0.953125q2.453125 0 4.53125 1.1875q2.078125 1.171875 3.328125 3.4375q1.265625 2.265625 1.265625 5.46875l0 0.796875q0 3.234375 -1.25 5.484375q-1.234375 2.234375 -3.328125 3.421875q-2.09375 1.171875 -4.625 1.171875q-1.921875 0 -3.84375 -0.890625q-1.90625 -0.90625 -2.953125 -2.71875l-0.484375 0l0 11.046875l-3.109375 0zm9.75 -10.40625q2.84375 0 4.734375 -1.90625q1.90625 -1.921875 1.90625 -5.203125l0 -0.796875q0 -2.125 -0.875 -3.71875q-0.875 -1.609375 -2.375 -2.5q-1.5 -0.90625 -3.390625 -0.90625q-1.828125 0 -3.328125 0.9375q-1.5 0.9375 -2.40625 2.578125q-0.90625 1.640625 -0.90625 3.765625l0 0.46875q0 2.203125 0.875 3.84375q0.890625 1.640625 2.40625 2.546875q1.53125 0.890625 3.359375 0.890625zm15.44873 2.40625l0 -2.875l7.203125 0l0 -22.25l-6.96875 0l0 -2.875l10.078125 0l0 25.125l7.203125 0l0 2.875l-17.515625 0zm33.308105 0.5625q-2.828125 0 -5.015625 -1.296875q-2.171875 -1.3125 -3.421875 -3.609375q-1.234375 -2.296875 -1.234375 -5.34375l0 -0.953125q0 -2.796875 1.28125 -5.0q1.28125 -2.203125 3.5 -3.484375q2.21875 -1.28125 4.984375 -1.28125q2.4375 0 4.21875 0.890625q1.78125 0.875 2.921875 2.234375q1.140625 1.359375 1.671875 2.90625q0.546875 1.53125 0.546875 2.859375l0 2.5625l-16.0 0q0.109375 2.90625 1.84375 4.734375q1.75 1.8125 4.796875 1.8125q2.828125 0 4.234375 -1.1875q1.40625 -1.203125 1.921875 -2.890625l2.953125 0.796875q-0.828125 2.765625 -3.09375 4.515625q-2.265625 1.734375 -6.109375 1.734375zm-6.46875 -12.40625l12.796875 0q-0.078125 -1.71875 -0.984375 -2.96875q-0.890625 -1.265625 -2.296875 -1.9375q-1.40625 -0.6875 -2.953125 -0.6875q-2.640625 0 -4.453125 1.609375q-1.796875 1.59375 -2.109375 3.984375zm53.67871 11.84375l0 -24.875l-8.15625 0l0 -3.125l19.671875 0l0 3.125l-8.15625 0l0 24.875l-3.359375 0zm26.35498 -22.953125q-1.125 0 -1.96875 -0.84375q-0.828125 -0.84375 -0.828125 -1.96875q0 -1.15625 0.828125 -1.96875q0.84375 -0.828125 1.96875 -0.828125q1.15625 0 1.96875 0.828125q0.828125 0.8125 0.828125 1.96875q0 1.125 -0.828125 1.96875q-0.8125 0.84375 -1.96875 0.84375zm-8.484375 22.953125l0 -2.875l6.96875 0l0 -14.078125l-6.234375 0l0 -2.890625l9.359375 0l0 16.96875l6.46875 0l0 2.875l-16.5625 0zm32.651855 0q-1.359375 0 -2.21875 -0.875q-0.859375 -0.890625 -0.859375 -2.25l0 -13.828125l-6.25 0l0 -2.890625l6.25 0l0 -8.15625l3.109375 0l0 8.15625l7.6875 0l0 2.890625l-7.6875 0l0 12.875q0 1.203125 1.078125 1.203125l5.640625 0l0 2.875l-6.75 0zm15.839355 0l0 -2.875l7.203125 0l0 -22.25l-6.96875 0l0 -2.875l10.078125 0l0 25.125l7.203125 0l0 2.875l-17.515625 0zm33.308105 0.5625q-2.828125 0 -5.015625 -1.296875q-2.171875 -1.3125 -3.421875 -3.609375q-1.234375 -2.296875 -1.234375 -5.34375l0 -0.953125q0 -2.796875 1.28125 -5.0q1.28125 -2.203125 3.5 -3.484375q2.21875 -1.28125 4.984375 -1.28125q2.4375 0 4.21875 0.890625q1.78125 0.875 2.921875 2.234375q1.140625 1.359375 1.671875 2.90625q0.546875 1.53125 0.546875 2.859375l0 2.5625l-16.0 0q0.109375 2.90625 1.84375 4.734375q1.75 1.8125 4.796875 1.8125q2.828125 0 4.234375 -1.1875q1.40625 -1.203125 1.921875 -2.890625l2.953125 0.796875q-0.828125 2.765625 -3.09375 4.515625q-2.265625 1.734375 -6.109375 1.734375zm-6.46875 -12.40625l12.796875 0q-0.078125 -1.71875 -0.984375 -2.96875q-0.890625 -1.265625 -2.296875 -1.9375q-1.40625 -0.6875 -2.953125 -0.6875q-2.640625 0 -4.453125 1.609375q-1.796875 1.59375 -2.109375 3.984375z" fill-rule="nonzero"/></g></svg>
