<svg version="1.1" viewBox="0.0 0.0 960.0 540.0" fill="none" stroke="none" stroke-linecap="square" stroke-miterlimit="10" xmlns:xlink="http://www.w3.org/1999/xlink" xmlns="http://www.w3.org/2000/svg"><clipPath id="g36cfd3642ec_0_59.0"><path d="m0 0l960.0 0l0 540.0l-960.0 0l0 -540.0z" clip-rule="nonzero"/></clipPath><g clip-path="url(#g36cfd3642ec_0_59.0)"><path fill="#013a3b" d="m0 0l960.0 0l0 540.0l-960.0 0z" fill-rule="evenodd"/><path fill="#000000" fill-opacity="0.0" d="m100.137794 140.99344l564.18896 0l0 91.87401l-564.18896 0z" fill-rule="evenodd"/><path fill="#d0fdf2" d="m116.825294 180.71344l0 -7.875l-0.96875 0l-6.4375 -14.53125l4.609375 0l4.609375 10.6875l0.578125 0l4.609375 -10.6875l4.6093826 0l-6.4375076 14.53125l-0.953125 0l0 7.875l-4.21875 0zm21.693428 0.453125q-2.1875 0 -4.078125 -0.953125q-1.875 -0.96875 -3.03125 -2.796875q-1.15625 -1.828125 -1.15625 -4.453125l0 -0.375q0 -2.59375 1.15625 -4.4375q1.15625 -1.84375 3.03125 -2.796875q1.890625 -0.953125 4.078125 -0.953125q2.171875 0 4.0625 0.953125q1.890625 0.953125 3.03125 2.796875q1.15625 1.84375 1.15625 4.4375l0 0.375q0 2.625 -1.15625 4.453125q-1.140625 1.828125 -3.03125 2.796875q-1.890625 0.953125 -4.0625 0.953125zm0 -3.84375q1.75 0 2.984375 -1.125q1.234375 -1.140625 1.234375 -3.09375l0 -0.640625q0 -1.984375 -1.234375 -3.109375q-1.234375 -1.125 -2.984375 -1.125q-1.765625 0 -3.0 1.125q-1.234375 1.125 -1.234375 3.109375l0 0.640625q0 1.953125 1.234375 3.09375q1.234375 1.125 3.0 1.125zm17.91217 3.84375q-1.5625 0 -2.84375 -0.6875q-1.28125 -0.6875 -2.03125 -2.109375q-0.75 -1.4375 -0.75 -3.609375l0 -9.921875l4.03125 0l0 9.09375q0 1.65625 0.8125 2.625q0.8125 0.953125 2.390625 0.953125q1.8125 0 2.65625 -1.15625q0.859375 -1.171875 0.859375 -3.1875l0 -8.328125l4.03125 0l0 15.875l-4.03125 0l0 -2.296875l-0.578125 0q-1.0625 2.75 -4.546875 2.75zm12.802795 -0.453125l0 -3.84375l3.265625 0l0 -8.1875l-2.875 0l0 -3.84375l6.71875 0l0 2.3125l0.578125 0q0.4375 -1.3125 1.515625 -2.03125q1.09375 -0.71875 2.578125 -0.71875q2.359375 0 3.796875 1.484375q1.453125 1.484375 1.453125 4.53125l0 0.703125l-4.171875 0.375l0 -0.4375q0 -1.3125 -0.671875 -2.09375q-0.671875 -0.796875 -2.015625 -0.796875q-1.34375 0 -2.109375 0.9375q-0.765625 0.921875 -0.765625 2.65625l0 5.109375l3.640625 0l0 3.84375l-10.9375 0zm47.996216 0.453125q-2.453125 0 -3.984375 -0.796875q-1.515625 -0.8125 -2.296875 -1.953125q-0.78125 -1.15625 -1.015625 -2.25l3.71875 -1.21875q0.25 1.0 1.078125 1.78125q0.84375 0.78125 2.5 0.78125q1.515625 0 2.0625 -0.453125q0.5625 -0.46875 0.5625 -1.015625q0 -0.640625 -0.671875 -1.109375q-0.671875 -0.484375 -2.6875 -0.65625q-2.65625 -0.21875 -4.265625 -1.40625q-1.59375 -1.1875 -1.59375 -3.421875l0 -0.1875q0 -1.578125 0.859375 -2.65625q0.875 -1.09375 2.25 -1.640625q1.375 -0.5625 2.90625 -0.5625q2.015625 0 3.328125 0.625q1.3125 0.609375 2.0625 1.546875q0.765625 0.921875 1.078125 1.859375l-3.640625 1.46875q-0.296875 -0.875 -1.0 -1.359375q-0.703125 -0.5 -1.828125 -0.5q-0.984375 0 -1.515625 0.375q-0.53125 0.359375 -0.53125 0.90625q0 0.765625 0.796875 1.09375q0.8125 0.3125 2.921875 0.5625q2.4375 0.265625 3.96875 1.46875q1.53125 1.1875 1.53125 3.34375l0 0.1875q0 2.328125 -1.734375 3.765625q-1.71875 1.421875 -4.859375 1.421875zm19.365295 0q-2.375 0 -4.203125 -1.0q-1.8125 -1.015625 -2.84375 -2.90625q-1.015625 -1.890625 -1.015625 -4.546875l0 -0.1875q0 -2.4375 1.078125 -4.25q1.09375 -1.828125 2.90625 -2.84375q1.8125 -1.03125 4.015625 -1.03125q2.046875 0 3.515625 0.703125q1.46875 0.703125 2.40625 1.828125q0.953125 1.109375 1.421875 2.4375q0.46875 1.328125 0.46875 2.578125l0 2.140625l-11.65625 0q0.0625 1.40625 1.1875 2.328125q1.125 0.90625 2.65625 0.90625q1.5 0 2.3125 -0.546875q0.828125 -0.546875 1.140625 -1.25l3.453125 1.921875q-0.34375 0.796875 -1.171875 1.671875q-0.8125 0.859375 -2.1875 1.453125q-1.375 0.59375 -3.484375 0.59375zm-3.84375 -10.53125l7.484375 0q-0.1875 -1.125 -1.203125 -1.859375q-1.0 -0.734375 -2.53125 -0.734375q-1.5 0 -2.484375 0.78125q-0.96875 0.78125 -1.265625 1.8125zm23.45903 10.53125q-2.3437347 0 -4.2343597 -0.9375q-1.875 -0.953125 -2.984375 -2.765625q-1.109375 -1.8125 -1.109375 -4.359375l0 -0.390625q0 -2.5625 1.125 -4.421875q1.125 -1.875 3.015625 -2.875q1.890625 -1.015625 4.1874847 -1.015625q3.328125 0 5.40625 1.734375q2.078125 1.71875 2.59375 4.53125l-3.96875 1.015625q-0.1875 -1.40625 -1.21875 -2.421875q-1.015625 -1.03125 -2.875 -1.03125q-1.7343597 0 -2.9843597 1.21875q-1.234375 1.21875 -1.234375 3.359375l0 0.1875q0 2.15625 1.234375 3.25q1.25 1.078125 2.9843597 1.078125q1.859375 0 2.828125 -0.921875q0.984375 -0.9375 1.265625 -2.5l3.96875 0.984375q-0.515625 2.8125 -2.5625 4.546875q-2.046875 1.734375 -5.4375 1.734375zm17.72467 0q-1.5625 0 -2.84375 -0.6875q-1.28125 -0.6875 -2.03125 -2.109375q-0.75 -1.4375 -0.75 -3.609375l0 -9.921875l4.03125 0l0 9.09375q0 1.65625 0.8125 2.625q0.8125 0.953125 2.390625 0.953125q1.8125 0 2.65625 -1.15625q0.859375 -1.171875 0.859375 -3.1875l0 -8.328125l4.03125 0l0 15.875l-4.03125 0l0 -2.296875l-0.578125 0q-1.0625 2.75 -4.546875 2.75zm12.802795 -0.453125l0 -3.84375l3.265625 0l0 -8.1875l-2.875 0l0 -3.84375l6.71875 0l0 2.3125l0.578125 0q0.4375 -1.3125 1.515625 -2.03125q1.09375 -0.71875 2.578125 -0.71875q2.359375 0 3.796875 1.484375q1.453125 1.484375 1.453125 4.53125l0 0.703125l-4.171875 0.375l0 -0.4375q0 -1.3125 -0.671875 -2.09375q-0.671875 -0.796875 -2.015625 -0.796875q-1.34375 0 -2.109375 0.9375q-0.765625 0.921875 -0.765625 2.65625l0 5.109375l3.640625 0l0 3.84375l-10.9375 0zm28.38092 -17.53125q-1.25 0 -2.140625 -0.875q-0.890625 -0.890625 -0.890625 -2.171875q0 -1.28125 0.890625 -2.15625q0.890625 -0.875 2.140625 -0.875q1.25 0 2.140625 0.875q0.90625 0.875 0.90625 2.15625q0 1.28125 -0.90625 2.171875q-0.890625 0.875 -2.140625 0.875zm-7.359375 17.53125l0 -3.84375l5.375 0l0 -8.1875l-4.984375 0l0 -3.84375l9.015625 0l0 12.03125l4.609375 0l0 3.84375l-14.015625 0zm26.021545 0q-1.09375 0 -1.78125 -0.703125q-0.6875 -0.703125 -0.6875 -1.796875l0 -9.53125l-4.703125 0l0 -3.84375l4.703125 0l0 -6.53125l4.03125 0l0 6.53125l5.734375 0l0 3.84375l-5.734375 0l0 7.234375q0 0.953125 0.859375 0.953125l4.296875 0l0 3.84375l-6.71875 0zm15.740295 6.40625l0 -3.84375l7.015625 0q0.859375 0 0.859375 -0.96875l0 -3.890625l-0.578125 0q-1.0625 2.75 -4.546875 2.75q-1.5625 0 -2.84375 -0.6875q-1.28125 -0.6875 -2.03125 -2.109375q-0.75 -1.4375 -0.75 -3.609375l0 -9.921875l4.03125 0l0 9.09375q0 1.65625 0.8125 2.625q0.8125 0.953125 2.390625 0.953125q1.8125 0 2.65625 -1.15625q0.859375 -1.171875 0.859375 -3.1875l0 -8.328125l4.03125 0l0 19.78125q0 1.078125 -0.6875 1.78125q-0.6875 0.71875 -1.78125 0.71875l-9.4375 0zm43.01184 -6.40625q-1.09375 0 -1.78125 -0.703125q-0.6875 -0.703125 -0.6875 -1.796875l0 -9.53125l-4.703125 0l0 -3.84375l4.703125 0l0 -6.53125l4.03125 0l0 6.53125l5.734375 0l0 3.84375l-5.734375 0l0 7.234375q0 0.953125 0.859375 0.953125l4.296875 0l0 3.84375l-6.71875 0zm20.31842 0.453125q-2.375 0 -4.203125 -1.0q-1.8125 -1.015625 -2.84375 -2.90625q-1.015625 -1.890625 -1.015625 -4.546875l0 -0.1875q0 -2.4375 1.078125 -4.25q1.09375 -1.828125 2.90625 -2.84375q1.8125 -1.03125 4.015625 -1.03125q2.046875 0 3.515625 0.703125q1.46875 0.703125 2.40625 1.828125q0.953125 1.109375 1.421875 2.4375q0.46875 1.328125 0.46875 2.578125l0 2.140625l-11.65625 0q0.0625 1.40625 1.1875 2.328125q1.125 0.90625 2.65625 0.90625q1.5 0 2.3125 -0.546875q0.828125 -0.546875 1.140625 -1.25l3.453125 1.921875q-0.34375 0.796875 -1.171875 1.671875q-0.8125 0.859375 -2.1875 1.453125q-1.375 0.59375 -3.484375 0.59375zm-3.84375 -10.53125l7.484375 0q-0.1875 -1.125 -1.203125 -1.859375q-1.0 -0.734375 -2.53125 -0.734375q-1.5 0 -2.484375 0.78125q-0.96875 0.78125 -1.265625 1.8125zm21.75592 10.53125q-1.875 0 -3.484375 -0.953125q-1.59375 -0.96875 -2.5625 -2.796875q-0.953125 -1.828125 -0.953125 -4.390625l0 -0.5q0 -2.53125 0.921875 -4.359375q0.9375 -1.828125 2.484375 -2.796875q1.546875 -0.96875 3.40625 -0.96875q1.703125 0 2.734375 0.578125q1.046875 0.5625 1.65625 1.78125l0.578125 0l0 -1.921875l4.03125 0l0 11.078125q0 0.953125 0.859375 0.953125l0.609375 0l0 3.84375l-2.75 0q-1.09375 0 -1.78125 -0.65625q-0.6875 -0.65625 -0.6875 -1.640625l-0.578125 0q-0.609375 1.46875 -1.78125 2.109375q-1.15625 0.640625 -2.703125 0.640625zm0.90625 -3.84375q1.75 0 2.8125 -1.171875q1.0625 -1.171875 1.0625 -3.1875l0 -0.375q0 -2.015625 -1.0625 -3.1875q-1.0625 -1.171875 -2.8125 -1.171875q-1.765625 0 -2.828125 1.171875q-1.046875 1.171875 -1.046875 3.1875l0 0.375q0 2.015625 1.046875 3.1875q1.0625 1.171875 2.828125 1.171875zm11.552795 3.390625l0 -15.875l4.03125 0l0 1.53125l0.578125 0q0.1875 -0.859375 0.890625 -1.40625q0.703125 -0.5625 1.796875 -0.5625q1.046875 0 1.796875 0.5625q0.765625 0.546875 0.984375 1.40625l0.578125 0q0.25 -0.859375 1.078125 -1.40625q0.84375 -0.5625 2.015625 -0.5625q1.609375 0 2.5625 1.078125q0.96875 1.0625 0.96875 2.953125l0 12.28125l-4.03125 0l0 -11.140625q0 -0.671875 -0.34375 -1.0q-0.328125 -0.34375 -0.875 -0.34375q-0.609375 0 -1.0 0.390625q-0.375 0.375 -0.375 1.15625l0 10.9375l-4.03125 0l0 -11.140625q0 -0.671875 -0.375 -1.0q-0.359375 -0.34375 -0.875 -0.34375q-0.578125 0 -0.96875 0.390625q-0.375 0.375 -0.375 1.15625l0 10.9375l-4.03125 0zm28.59967 0.453125q-2.453125 0 -3.984375 -0.796875q-1.515625 -0.8125 -2.296875 -1.953125q-0.78125 -1.15625 -1.015625 -2.25l3.71875 -1.21875q0.25 1.0 1.078125 1.78125q0.84375 0.78125 2.5 0.78125q1.515625 0 2.0625 -0.453125q0.5625 -0.46875 0.5625 -1.015625q0 -0.640625 -0.671875 -1.109375q-0.671875 -0.484375 -2.6875 -0.65625q-2.65625 -0.21875 -4.265625 -1.40625q-1.59375 -1.1875 -1.59375 -3.421875l0 -0.1875q0 -1.578125 0.859375 -2.65625q0.875 -1.09375 2.25 -1.640625q1.375 -0.5625 2.90625 -0.5625q2.015625 0 3.328125 0.625q1.3125 0.609375 2.0625 1.546875q0.765625 0.921875 1.078125 1.859375l-3.640625 1.46875q-0.296875 -0.875 -1.0 -1.359375q-0.703125 -0.5 -1.828125 -0.5q-0.984375 0 -1.515625 0.375q-0.53125 0.359375 -0.53125 0.90625q0 0.765625 0.796875 1.09375q0.8125 0.3125 2.921875 0.5625q2.4375 0.265625 3.96875 1.46875q1.53125 1.1875 1.53125 3.34375l0 0.1875q0 2.328125 -1.734375 3.765625q-1.71875 1.421875 -4.859375 1.421875z" fill-rule="nonzero"/><path fill="#d0fdf2" d="m117.419044 219.56656q-1.875 0 -3.484375 -0.953125q-1.59375 -0.96875 -2.5625 -2.796875q-0.953125 -1.828125 -0.953125 -4.390625l0 -0.5q0 -2.53125 0.921875 -4.359375q0.9375 -1.828125 2.484375 -2.796875q1.546875 -0.96875 3.40625 -0.96875q1.703125 0 2.734375 0.578125q1.046875 0.5625 1.65625 1.78125l0.578125 0l0 -1.921875l4.03125 0l0 11.078125q0 0.953125 0.859375 0.953125l0.609375 0l0 3.84375l-2.75 0q-1.09375 0 -1.78125 -0.65625q-0.6875 -0.65625 -0.6875 -1.640625l-0.578125 0q-0.609375 1.46875 -1.78125 2.109375q-1.15625 0.640625 -2.703125 0.640625zm0.90625 -3.84375q1.75 0 2.8125 -1.171875q1.0625 -1.171875 1.0625 -3.1875l0 -0.375q0 -2.015625 -1.0625 -3.1875q-1.0625 -1.171875 -2.8125 -1.171875q-1.765625 0 -2.828125 1.171875q-1.046875 1.171875 -1.046875 3.1875l0 0.375q0 2.015625 1.046875 3.1875q1.0625 1.171875 2.828125 1.171875zm11.740303 3.390625l0 -3.84375l3.265625 0l0 -8.1875l-2.875 0l0 -3.84375l6.71875 0l0 2.3125l0.578125 0q0.4375 -1.3125 1.515625 -2.03125q1.09375 -0.71875 2.578125 -0.71875q2.359375 0 3.796875 1.484375q1.453125 1.484375 1.453125 4.53125l0 0.703125l-4.171875 0.375l0 -0.4375q0 -1.3125 -0.671875 -2.09375q-0.671875 -0.796875 -2.015625 -0.796875q-1.34375 0 -2.109375 0.9375q-0.765625 0.921875 -0.765625 2.65625l0 5.109375l3.640625 0l0 3.84375l-10.9375 0zm28.19342 0.453125q-2.375 0 -4.203125 -1.0q-1.8125 -1.015625 -2.84375 -2.90625q-1.015625 -1.890625 -1.015625 -4.546875l0 -0.1875q0 -2.4375 1.078125 -4.25q1.09375 -1.828125 2.90625 -2.84375q1.8125 -1.03125 4.015625 -1.03125q2.046875 0 3.515625 0.703125q1.46875 0.703125 2.40625 1.828125q0.953125 1.109375 1.421875 2.4375q0.46875 1.328125 0.46875 2.578125l0 2.140625l-11.65625 0q0.0625 1.40625 1.1875 2.328125q1.125 0.90625 2.65625 0.90625q1.5 0 2.3125 -0.546875q0.828125 -0.546875 1.140625 -1.25l3.453125 1.921875q-0.34375 0.796875 -1.171875 1.671875q-0.8125 0.859375 -2.1875 1.453125q-1.375 0.59375 -3.484375 0.59375zm-3.84375 -10.53125l7.484375 0q-0.1875 -1.125 -1.203125 -1.859375q-1.0 -0.734375 -2.53125 -0.734375q-1.5 0 -2.484375 0.78125q-0.96875 0.78125 -1.265625 1.8125zm41.41809 10.53125q-1.953125 0 -3.53125 -0.9375q-1.5625 -0.953125 -2.5 -2.765625q-0.921875 -1.8125 -0.921875 -4.390625l0 -0.578125q0 -2.5625 0.96875 -4.375q0.984375 -1.8125 2.59375 -2.765625q1.625 -0.953125 3.546875 -0.953125q1.921875 0 3.046875 0.71875q1.140625 0.71875 1.75 2.03125l0.578125 0l0 -8.84375l4.03125 0l0 22.40625l-4.03125 0l0 -2.296875l-0.578125 0q-0.484375 1.046875 -1.59375 1.90625q-1.09375 0.84375 -3.359375 0.84375zm1.296875 -3.84375q1.890625 0 3.0625 -1.203125q1.171875 -1.203125 1.171875 -3.15625l0 -0.375q0 -1.953125 -1.171875 -3.15625q-1.171875 -1.203125 -3.0625 -1.203125q-1.84375 0 -3.03125 1.1875q-1.1875 1.1875 -1.1875 3.171875l0 0.375q0 1.984375 1.1875 3.171875q1.1875 1.1875 3.03125 1.1875zm11.271545 3.390625l0 -3.84375l3.265625 0l0 -8.1875l-2.875 0l0 -3.84375l6.71875 0l0 2.3125l0.578125 0q0.4375 -1.3125 1.515625 -2.03125q1.09375 -0.71875 2.578125 -0.71875q2.359375 0 3.796875 1.484375q1.453125 1.484375 1.453125 4.53125l0 0.703125l-4.171875 0.375l0 -0.4375q0 -1.3125 -0.671875 -2.09375q-0.671875 -0.796875 -2.015625 -0.796875q-1.34375 0 -2.109375 0.9375q-0.765625 0.921875 -0.765625 2.65625l0 5.109375l3.640625 0l0 3.84375l-10.9375 0zm28.03717 0.453125q-2.1875 0 -4.078125 -0.953125q-1.875 -0.96875 -3.03125 -2.796875q-1.15625 -1.828125 -1.15625 -4.453125l0 -0.375q0 -2.59375 1.15625 -4.4375q1.15625 -1.84375 3.03125 -2.796875q1.890625 -0.953125 4.078125 -0.953125q2.171875 0 4.0625 0.953125q1.890625 0.953125 3.03125 2.796875q1.15625 1.84375 1.15625 4.4375l0 0.375q0 2.625 -1.15625 4.453125q-1.140625 1.828125 -3.03125 2.796875q-1.890625 0.953125 -4.0625 0.953125zm0 -3.84375q1.75 0 2.984375 -1.125q1.234375 -1.140625 1.234375 -3.09375l0 -0.640625q0 -1.984375 -1.234375 -3.109375q-1.234375 -1.125 -2.984375 -1.125q-1.765625 0 -3.0 1.125q-1.234375 1.125 -1.234375 3.109375l0 0.640625q0 1.953125 1.234375 3.09375q1.234375 1.125 3.0 1.125zm11.31842 3.390625l-1.046875 -15.875l3.703125 0l0.703125 12.03125l0 1.921875l0.765625 0l0 -1.921875l0.8125 -12.03125l6.6562347 0l0.796875 12.03125l0 1.921875l0.765625 0l0 -1.921875l0.703125 -12.03125l3.71875 0l-1.0625 15.875l-6.96875 0l-0.90625 -12.03125l0 -1.921875l-0.76560974 0l0 1.921875l-0.890625 12.03125l-6.984375 0zm20.55278 0l0 -15.875l4.03125 0l0 2.375l0.578125 0q0.53125 -1.34375 1.75 -2.078125q1.21875 -0.734375 2.859375 -0.734375q1.53125 0 2.796875 0.65625q1.265625 0.640625 2.015625 2.046875q0.75 1.390625 0.75 3.5625l0 10.046875l-4.03125 0l0 -9.03125q0 -1.6875 -0.828125 -2.65625q-0.8125 -0.984375 -2.34375 -0.984375q-1.765625 0 -2.65625 1.203125q-0.890625 1.203125 -0.890625 3.21875l0 8.25l-4.03125 0zm27.22467 -17.53125q-1.25 0 -2.140625 -0.875q-0.890625 -0.890625 -0.890625 -2.171875q0 -1.28125 0.890625 -2.15625q0.890625 -0.875 2.140625 -0.875q1.25 0 2.140625 0.875q0.90625 0.875 0.90625 2.15625q0 1.28125 -0.90625 2.171875q-0.890625 0.875 -2.140625 0.875zm-7.359375 17.53125l0 -3.84375l5.375 0l0 -8.1875l-4.984375 0l0 -3.84375l9.015625 0l0 12.03125l4.609375 0l0 3.84375l-14.015625 0zm19.302795 0l0 -15.875l4.03125 0l0 2.375l0.578125 0q0.53125 -1.34375 1.75 -2.078125q1.21875 -0.734375 2.859375 -0.734375q1.53125 0 2.796875 0.65625q1.265625 0.640625 2.015625 2.046875q0.75 1.390625 0.75 3.5625l0 10.046875l-4.03125 0l0 -9.03125q0 -1.6875 -0.828125 -2.65625q-0.8125 -0.984375 -2.34375 -0.984375q-1.765625 0 -2.65625 1.203125q-0.890625 1.203125 -0.890625 3.21875l0 8.25l-4.03125 0zm21.78717 6.40625l0 -3.84375l8.25 0q0.875 0 0.875 -0.96875l0 -3.890625l-0.578125 0q-0.484375 1.046875 -1.59375 1.90625q-1.09375 0.84375 -3.375 0.84375q-1.9375 0 -3.515625 -0.9375q-1.5625 -0.953125 -2.5 -2.765625q-0.921875 -1.8125 -0.921875 -4.390625l0 -0.578125q0 -2.5625 0.96875 -4.375q0.984375 -1.8125 2.59375 -2.765625q1.625 -0.953125 3.546875 -0.953125q1.921875 0 3.046875 0.71875q1.140625 0.71875 1.75 2.03125l0.578125 0l0 -2.3125l4.03125 0l0 19.78125q0 1.078125 -0.6875 1.78125q-0.6875 0.71875 -1.78125 0.71875l-10.6875 0zm4.890625 -9.796875q1.890625 0 3.0625 -1.203125q1.171875 -1.203125 1.171875 -3.15625l0 -0.375q0 -1.953125 -1.171875 -3.15625q-1.171875 -1.203125 -3.0625 -1.203125q-1.84375 0 -3.03125 1.1875q-1.1875 1.1875 -1.1875 3.171875l0 0.375q0 1.984375 1.1875 3.171875q1.1875 1.1875 3.03125 1.1875zm17.927795 7.578125l0 -2.484375l1.53125 0q0.875 0 0.875 -0.96875l0 -0.375q-0.234375 0.09375 -0.546875 0.09375q-1.25 0 -2.15625 -0.890625q-0.890625 -0.90625 -0.890625 -2.15625q0 -1.25 0.890625 -2.125q0.90625 -0.875 2.15625 -0.875q1.25 0 2.140625 0.875q0.890625 0.875 0.890625 2.125l0 3.90625q0 1.21875 -0.8125 2.046875q-0.8125 0.828125 -2.03125 0.828125l-2.046875 0z" fill-rule="nonzero"/><path fill="#02f4d5" d="m385.81442 219.11343l0 -15.875l4.03125 0l0 2.375l0.578125 0q0.53125 -1.34375 1.75 -2.078125q1.21875 -0.734375 2.859375 -0.734375q1.53125 0 2.796875 0.65625q1.265625 0.640625 2.015625 2.046875q0.75 1.390625 0.75 3.5625l0 10.046875l-4.03125 0l0 -9.03125q0 -1.6875 -0.828125 -2.65625q-0.8125 -0.984375 -2.34375 -0.984375q-1.765625 0 -2.65625 1.203125q-0.890625 1.203125 -0.890625 3.21875l0 8.25l-4.03125 0zm26.88092 0.453125q-2.1875 0 -4.078125 -0.953125q-1.875 -0.96875 -3.03125 -2.796875q-1.15625 -1.828125 -1.15625 -4.453125l0 -0.375q0 -2.59375 1.15625 -4.4375q1.15625 -1.84375 3.03125 -2.796875q1.890625 -0.953125 4.078125 -0.953125q2.171875 0 4.0625 0.953125q1.890625 0.953125 3.03125 2.796875q1.15625 1.84375 1.15625 4.4375l0 0.375q0 2.625 -1.15625 4.453125q-1.140625 1.828125 -3.03125 2.796875q-1.890625 0.953125 -4.0625 0.953125zm0 -3.84375q1.75 0 2.984375 -1.125q1.234375 -1.140625 1.234375 -3.09375l0 -0.640625q0 -1.984375 -1.234375 -3.109375q-1.234375 -1.125 -2.984375 -1.125q-1.765625 0 -3.0 1.125q-1.234375 1.125 -1.234375 3.109375l0 0.640625q0 1.953125 1.234375 3.09375q1.234375 1.125 3.0 1.125zm19.00592 3.390625q-1.09375 0 -1.78125 -0.703125q-0.6875 -0.703125 -0.6875 -1.796875l0 -9.53125l-4.703125 0l0 -3.84375l4.703125 0l0 -6.53125l4.03125 0l0 6.53125l5.734375 0l0 3.84375l-5.734375 0l0 7.234375q0 0.953125 0.859375 0.953125l4.296875 0l0 3.84375l-6.71875 0zm40.121216 0.453125q-2.453125 0 -3.984375 -0.796875q-1.515625 -0.8125 -2.296875 -1.953125q-0.78125 -1.15625 -1.015625 -2.25l3.71875 -1.21875q0.25 1.0 1.078125 1.78125q0.84375 0.78125 2.5 0.78125q1.515625 0 2.0625 -0.453125q0.5625 -0.46875 0.5625 -1.015625q0 -0.640625 -0.671875 -1.109375q-0.671875 -0.484375 -2.6875 -0.65625q-2.65625 -0.21875 -4.265625 -1.40625q-1.59375 -1.1875 -1.59375 -3.421875l0 -0.1875q0 -1.578125 0.859375 -2.65625q0.875 -1.09375 2.25 -1.640625q1.375 -0.5625 2.90625 -0.5625q2.015625 0 3.328125 0.625q1.3125 0.609375 2.0625 1.546875q0.765625 0.921875 1.078125 1.859375l-3.640625 1.46875q-0.296875 -0.875 -1.0 -1.359375q-0.703125 -0.5 -1.828125 -0.5q-0.984375 0 -1.515625 0.375q-0.53125 0.359375 -0.53125 0.90625q0 0.765625 0.796875 1.09375q0.8125 0.3125 2.921875 0.5625q2.4375 0.265625 3.96875 1.46875q1.53125 1.1875 1.53125 3.34375l0 0.1875q0 2.328125 -1.734375 3.765625q-1.71875 1.421875 -4.859375 1.421875zm19.365295 0q-2.375 0 -4.203125 -1.0q-1.8125 -1.015625 -2.84375 -2.90625q-1.015625 -1.890625 -1.015625 -4.546875l0 -0.1875q0 -2.4375 1.078125 -4.25q1.09375 -1.828125 2.90625 -2.84375q1.8125 -1.03125 4.015625 -1.03125q2.046875 0 3.515625 0.703125q1.46875 0.703125 2.40625 1.828125q0.953125 1.109375 1.421875 2.4375q0.46875 1.328125 0.46875 2.578125l0 2.140625l-11.65625 0q0.0625 1.40625 1.1875 2.328125q1.125 0.90625 2.65625 0.90625q1.5 0 2.3125 -0.546875q0.828125 -0.546875 1.140625 -1.25l3.453125 1.921875q-0.34375 0.796875 -1.171875 1.671875q-0.8125 0.859375 -2.1875 1.453125q-1.375 0.59375 -3.484375 0.59375zm-3.84375 -10.53125l7.484375 0q-0.1875 -1.125 -1.203125 -1.859375q-1.0 -0.734375 -2.53125 -0.734375q-1.5 0 -2.484375 0.78125q-0.96875 0.78125 -1.265625 1.8125zm23.459045 10.53125q-2.34375 0 -4.234375 -0.9375q-1.875 -0.953125 -2.984375 -2.765625q-1.109375 -1.8125 -1.109375 -4.359375l0 -0.390625q0 -2.5625 1.125 -4.421875q1.125 -1.875 3.015625 -2.875q1.890625 -1.015625 4.1875 -1.015625q3.3281555 0 5.4062805 1.734375q2.078125 1.71875 2.59375 4.53125l-3.96875 1.015625q-0.1875 -1.40625 -1.21875 -2.421875q-1.015625 -1.03125 -2.8750305 -1.03125q-1.734375 0 -2.984375 1.21875q-1.234375 1.21875 -1.234375 3.359375l0 0.1875q0 2.15625 1.234375 3.25q1.25 1.078125 2.984375 1.078125q1.8594055 0 2.8281555 -0.921875q0.984375 -0.9375 1.265625 -2.5l3.96875 0.984375q-0.515625 2.8125 -2.5625 4.546875q-2.046875 1.734375 -5.4375305 1.734375zm17.7247 0q-1.5625 0 -2.84375 -0.6875q-1.28125 -0.6875 -2.03125 -2.109375q-0.75 -1.4375 -0.75 -3.609375l0 -9.921875l4.03125 0l0 9.09375q0 1.65625 0.8125 2.625q0.8125 0.953125 2.390625 0.953125q1.8125 0 2.65625 -1.15625q0.859375 -1.171875 0.859375 -3.1875l0 -8.328125l4.03125 0l0 15.875l-4.03125 0l0 -2.296875l-0.578125 0q-1.0625 2.75 -4.546875 2.75zm12.802795 -0.453125l0 -3.84375l3.265625 0l0 -8.1875l-2.875 0l0 -3.84375l6.71875 0l0 2.3125l0.578125 0q0.4375 -1.3125 1.515625 -2.03125q1.09375 -0.71875 2.578125 -0.71875q2.359375 0 3.796875 1.484375q1.453125 1.484375 1.453125 4.53125l0 0.703125l-4.171875 0.375l0 -0.4375q0 -1.3125 -0.671875 -2.09375q-0.671875 -0.796875 -2.015625 -0.796875q-1.34375 0 -2.109375 0.9375q-0.765625 0.921875 -0.765625 2.65625l0 5.109375l3.640625 0l0 3.84375l-10.9375 0zm28.38092 -17.53125q-1.25 0 -2.140625 -0.875q-0.890625 -0.890625 -0.890625 -2.171875q0 -1.28125 0.890625 -2.15625q0.890625 -0.875 2.140625 -0.875q1.25 0 2.140625 0.875q0.90625 0.875 0.90625 2.15625q0 1.28125 -0.90625 2.171875q-0.890625 0.875 -2.140625 0.875zm-7.359375 17.53125l0 -3.84375l5.375 0l0 -8.1875l-4.984375 0l0 -3.84375l9.015625 0l0 12.03125l4.609375 0l0 3.84375l-14.015625 0zm19.302795 0l0 -15.875l4.03125 0l0 2.375l0.578125 0q0.53125 -1.34375 1.75 -2.078125q1.21875 -0.734375 2.859375 -0.734375q1.53125 0 2.796875 0.65625q1.265625 0.640625 2.015625 2.046875q0.75 1.390625 0.75 3.5625l0 10.046875l-4.03125 0l0 -9.03125q0 -1.6875 -0.828125 -2.65625q-0.8125 -0.984375 -2.34375 -0.984375q-1.765625 0 -2.65625 1.203125q-0.890625 1.203125 -0.890625 3.21875l0 8.25l-4.03125 0zm21.78717 6.40625l0 -3.84375l8.25 0q0.875 0 0.875 -0.96875l0 -3.890625l-0.578125 0q-0.484375 1.046875 -1.59375 1.90625q-1.09375 0.84375 -3.375 0.84375q-1.9375 0 -3.515625 -0.9375q-1.5625 -0.953125 -2.5 -2.765625q-0.921875 -1.8125 -0.921875 -4.390625l0 -0.578125q0 -2.5625 0.96875 -4.375q0.984375 -1.8125 2.59375 -2.765625q1.625 -0.953125 3.546875 -0.953125q1.921875 0 3.046875 0.71875q1.140625 0.71875 1.75 2.03125l0.578125 0l0 -2.3125l4.03125 0l0 19.78125q0 1.078125 -0.6875 1.78125q-0.6875 0.71875 -1.78125 0.71875l-10.6875 0zm4.890625 -9.796875q1.890625 0 3.0625 -1.203125q1.171875 -1.203125 1.171875 -3.15625l0 -0.375q0 -1.953125 -1.171875 -3.15625q-1.171875 -1.203125 -3.0625 -1.203125q-1.84375 0 -3.03125 1.1875q-1.1875 1.1875 -1.1875 3.171875l0 0.375q0 1.984375 1.1875 3.171875q1.1875 1.1875 3.03125 1.1875zm19.78717 3.84375q-1.25 0 -2.15625 -0.875q-0.890625 -0.890625 -0.890625 -2.171875q0 -1.28125 0.890625 -2.15625q0.90625 -0.875 2.15625 -0.875q1.25 0 2.140625 0.875q0.890625 0.875 0.890625 2.15625q0 1.28125 -0.890625 2.171875q-0.890625 0.875 -2.140625 0.875z" fill-rule="nonzero"/><path fill="#000000" fill-opacity="0.0" d="m307.83023 261.6719l552.0315 0l0 96.944885l-552.0315 0z" fill-rule="evenodd"/><path fill="#d0fdf2" d="m324.51773 301.3919l0 -7.875l-0.96875 0l-6.4375 -14.53125l4.609375 0l4.609375 10.6875l0.578125 0l4.609375 -10.6875l4.609375 0l-6.4375 14.53125l-0.953125 0l0 7.875l-4.21875 0zm21.69342 0.453125q-2.1875 0 -4.078125 -0.953125q-1.875 -0.96875 -3.03125 -2.796875q-1.15625 -1.828125 -1.15625 -4.453125l0 -0.375q0 -2.59375 1.15625 -4.4375q1.15625 -1.84375 3.03125 -2.796875q1.890625 -0.953125 4.078125 -0.953125q2.171875 0 4.0625 0.953125q1.890625 0.953125 3.03125 2.796875q1.15625 1.84375 1.15625 4.4375l0 0.375q0 2.625 -1.15625 4.453125q-1.140625 1.828125 -3.03125 2.796875q-1.890625 0.953125 -4.0625 0.953125zm0 -3.84375q1.75 0 2.984375 -1.125q1.234375 -1.140625 1.234375 -3.09375l0 -0.640625q0 -1.984375 -1.234375 -3.109375q-1.234375 -1.125 -2.984375 -1.125q-1.765625 0 -3.0 1.125q-1.234375 1.125 -1.234375 3.109375l0 0.640625q0 1.953125 1.234375 3.09375q1.234375 1.125 3.0 1.125zm17.91217 3.84375q-1.5625 0 -2.84375 -0.6875q-1.28125 -0.6875 -2.03125 -2.109375q-0.75 -1.4375 -0.75 -3.609375l0 -9.921875l4.03125 0l0 9.09375q0 1.65625 0.8125 2.625q0.8125 0.953125 2.390625 0.953125q1.8125 0 2.65625 -1.15625q0.859375 -1.171875 0.859375 -3.1875l0 -8.328125l4.03125 0l0 15.875l-4.03125 0l0 -2.296875l-0.578125 0q-1.0625 2.75 -4.546875 2.75zm12.802795 -0.453125l0 -3.84375l3.265625 0l0 -8.1875l-2.875 0l0 -3.84375l6.71875 0l0 2.3125l0.578125 0q0.4375 -1.3125 1.515625 -2.03125q1.09375 -0.71875 2.578125 -0.71875q2.359375 0 3.796875 1.484375q1.453125 1.484375 1.453125 4.53125l0 0.703125l-4.171875 0.375l0 -0.4375q0 -1.3125 -0.671875 -2.09375q-0.671875 -0.796875 -2.015625 -0.796875q-1.34375 0 -2.109375 0.9375q-0.765625 0.921875 -0.765625 2.65625l0 5.109375l3.640625 0l0 3.84375l-10.9375 0zm46.183716 0.453125q-1.953125 0 -3.53125 -0.9375q-1.5625 -0.953125 -2.5 -2.765625q-0.921875 -1.8125 -0.921875 -4.390625l0 -0.578125q0 -2.5625 0.96875 -4.375q0.984375 -1.8125 2.59375 -2.765625q1.625 -0.953125 3.546875 -0.953125q1.921875 0 3.046875 0.71875q1.140625 0.71875 1.75 2.03125l0.578125 0l0 -8.84375l4.03125 0l0 22.40625l-4.03125 0l0 -2.296875l-0.578125 0q-0.484375 1.046875 -1.59375 1.90625q-1.09375 0.84375 -3.359375 0.84375zm1.296875 -3.84375q1.890625 0 3.0625 -1.203125q1.171875 -1.203125 1.171875 -3.15625l0 -0.375q0 -1.953125 -1.171875 -3.15625q-1.171875 -1.203125 -3.0625 -1.203125q-1.84375 0 -3.03125 1.1875q-1.1875 1.1875 -1.1875 3.171875l0 0.375q0 1.984375 1.1875 3.171875q1.1875 1.1875 3.03125 1.1875zm19.88092 3.84375q-2.375 0 -4.203125 -1.0q-1.8125 -1.015625 -2.84375 -2.90625q-1.015625 -1.890625 -1.015625 -4.546875l0 -0.1875q0 -2.4375 1.078125 -4.25q1.09375 -1.828125 2.90625 -2.84375q1.8125 -1.03125 4.015625 -1.03125q2.046875 0 3.515625 0.703125q1.46875 0.703125 2.40625 1.828125q0.953125 1.109375 1.421875 2.4375q0.46875 1.328125 0.46875 2.578125l0 2.140625l-11.65625 0q0.0625 1.40625 1.1875 2.328125q1.125 0.90625 2.65625 0.90625q1.5 0 2.3125 -0.546875q0.828125 -0.546875 1.140625 -1.25l3.453125 1.921875q-0.34375 0.796875 -1.171875 1.671875q-0.8125 0.859375 -2.1875 1.453125q-1.375 0.59375 -3.484375 0.59375zm-3.84375 -10.53125l7.484375 0q-0.1875 -1.125 -1.203125 -1.859375q-1.0 -0.734375 -2.53125 -0.734375q-1.5 0 -2.484375 0.78125q-0.96875 0.78125 -1.265625 1.8125zm19.396545 10.078125l-4.546875 -15.875l4.359375 0l3.734375 13.953125l0.578125 0l3.75 -13.953125l4.34375 0l-4.546875 15.875l-7.671875 0zm23.615295 0.453125q-2.375 0 -4.203125 -1.0q-1.8125 -1.015625 -2.84375 -2.90625q-1.015625 -1.890625 -1.015625 -4.546875l0 -0.1875q0 -2.4375 1.078125 -4.25q1.09375 -1.828125 2.90625 -2.84375q1.8125 -1.03125 4.015625 -1.03125q2.046875 0 3.515625 0.703125q1.46875 0.703125 2.40625 1.828125q0.953125 1.109375 1.421875 2.4375q0.46875 1.328125 0.46875 2.578125l0 2.140625l-11.65625 0q0.0625 1.40625 1.1875 2.328125q1.125 0.90625 2.65625 0.90625q1.5 0 2.3125 -0.546875q0.828125 -0.546875 1.140625 -1.25l3.453125 1.921875q-0.34375 0.796875 -1.171875 1.671875q-0.8125 0.859375 -2.1875 1.453125q-1.375 0.59375 -3.484375 0.59375zm-3.84375 -10.53125l7.484375 0q-0.1875 -1.125 -1.203125 -1.859375q-1.0 -0.734375 -2.53125 -0.734375q-1.5 0 -2.484375 0.78125q-0.96875 0.78125 -1.265625 1.8125zm15.88092 10.078125l0 -3.84375l5.5625 0l0 -14.71875l-5.375 0l0 -3.84375l9.40625 0l0 18.5625l5.1875 0l0 3.84375l-14.78125 0zm26.9747 0.453125q-2.1875 0 -4.078125 -0.953125q-1.875 -0.96875 -3.03125 -2.796875q-1.15625 -1.828125 -1.15625 -4.453125l0 -0.375q0 -2.59375 1.15625 -4.4375q1.15625 -1.84375 3.03125 -2.796875q1.890625 -0.953125 4.078125 -0.953125q2.171875 0 4.0625 0.953125q1.890625 0.953125 3.03125 2.796875q1.15625 1.84375 1.15625 4.4375l0 0.375q0 2.625 -1.15625 4.453125q-1.140625 1.828125 -3.03125 2.796875q-1.890625 0.953125 -4.0625 0.953125zm0 -3.84375q1.75 0 2.984375 -1.125q1.234375 -1.140625 1.234375 -3.09375l0 -0.640625q0 -1.984375 -1.234375 -3.109375q-1.234375 -1.125 -2.984375 -1.125q-1.765625 0 -3.0 1.125q-1.234375 1.125 -1.234375 3.109375l0 0.640625q0 1.953125 1.234375 3.09375q1.234375 1.125 3.0 1.125zm11.44342 9.796875l0 -22.28125l4.046875 0l0 2.3125l0.5625 0q0.640625 -1.3125 1.875 -2.03125q1.234375 -0.71875 3.09375 -0.71875q1.890625 0 3.453125 0.953125q1.5625 0.953125 2.515625 2.765625q0.96875 1.8125 0.96875 4.375l0 0.578125q0 2.578125 -0.9375 4.390625q-0.921875 1.8125 -2.484375 2.765625q-1.5625 0.9375 -3.515625 0.9375q-2.140625 0 -3.28125 -0.84375q-1.140625 -0.859375 -1.6875 -1.90625l-0.5625 0l0 8.703125l-4.046875 0zm8.265625 -9.796875q1.890625 0 3.046875 -1.1875q1.171875 -1.1875 1.171875 -3.171875l0 -0.375q0 -1.984375 -1.171875 -3.171875q-1.15625 -1.1875 -3.046875 -1.1875q-1.859375 0 -3.046875 1.203125q-1.171875 1.203125 -1.171875 3.15625l0 0.375q0 1.953125 1.171875 3.15625q1.1875 1.203125 3.046875 1.203125zm10.81842 3.390625l0 -15.875l4.03125 0l0 1.53125l0.578125 0q0.1875 -0.859375 0.890625 -1.40625q0.703125 -0.5625 1.796875 -0.5625q1.046875 0 1.796875 0.5625q0.765625 0.546875 0.984375 1.40625l0.578125 0q0.25 -0.859375 1.078125 -1.40625q0.84375 -0.5625 2.015625 -0.5625q1.609375 0 2.5625 1.078125q0.96875 1.0625 0.96875 2.953125l0 12.28125l-4.03125 0l0 -11.140625q0 -0.671875 -0.34375 -1.0q-0.328125 -0.34375 -0.875 -0.34375q-0.609375 0 -1.0 0.390625q-0.375 0.375 -0.375 1.15625l0 10.9375l-4.03125 0l0 -11.140625q0 -0.671875 -0.375 -1.0q-0.359375 -0.34375 -0.875 -0.34375q-0.578125 0 -0.96875 0.390625q-0.375 0.375 -0.375 1.15625l0 10.9375l-4.03125 0zm28.38092 0.453125q-2.375 0 -4.203125 -1.0q-1.8125 -1.015625 -2.84375 -2.90625q-1.015625 -1.890625 -1.015625 -4.546875l0 -0.1875q0 -2.4375 1.078125 -4.25q1.09375 -1.828125 2.90625 -2.84375q1.8125 -1.03125 4.015625 -1.03125q2.046875 0 3.515625 0.703125q1.46875 0.703125 2.40625 1.828125q0.953125 1.109375 1.421875 2.4375q0.46875 1.328125 0.46875 2.578125l0 2.140625l-11.65625 0q0.0625 1.40625 1.1875 2.328125q1.125 0.90625 2.65625 0.90625q1.5 0 2.3125 -0.546875q0.828125 -0.546875 1.140625 -1.25l3.453125 1.921875q-0.34375 0.796875 -1.171875 1.671875q-0.8125 0.859375 -2.1875 1.453125q-1.375 0.59375 -3.484375 0.59375zm-3.84375 -10.53125l7.484375 0q-0.1875 -1.125 -1.203125 -1.859375q-1.0 -0.734375 -2.53125 -0.734375q-1.5 0 -2.484375 0.78125q-0.96875 0.78125 -1.265625 1.8125zm15.97467 10.078125l0 -15.875l4.03125 0l0 2.375l0.578125 0q0.53125 -1.34375 1.75 -2.078125q1.21875 -0.734375 2.859375 -0.734375q1.53125 0 2.796875 0.65625q1.265625 0.640625 2.015625 2.046875q0.75 1.390625 0.75 3.5625l0 10.046875l-4.03125 0l0 -9.03125q0 -1.6875 -0.828125 -2.65625q-0.8125 -0.984375 -2.34375 -0.984375q-1.765625 0 -2.65625 1.203125q-0.890625 1.203125 -0.890625 3.21875l0 8.25l-4.03125 0zm26.302795 0q-1.09375 0 -1.78125 -0.703125q-0.6875 -0.703125 -0.6875 -1.796875l0 -9.53125l-4.703125 0l0 -3.84375l4.703125 0l0 -6.53125l4.03125 0l0 6.53125l5.734375 0l0 3.84375l-5.734375 0l0 7.234375q0 0.953125 0.859375 0.953125l4.296875 0l0 3.84375l-6.71875 0zm39.16809 0q-1.09375 0 -1.78125 -0.703125q-0.6875 -0.703125 -0.6875 -1.796875l0 -9.53125l-4.703125 0l0 -3.84375l4.703125 0l0 -6.53125l4.03125 0l0 6.53125l5.734375 0l0 3.84375l-5.734375 0l0 7.234375q0 0.953125 0.859375 0.953125l4.296875 0l0 3.84375l-6.71875 0zm20.31842 0.453125q-2.375 0 -4.203125 -1.0q-1.8125 -1.015625 -2.84375 -2.90625q-1.015625 -1.890625 -1.015625 -4.546875l0 -0.1875q0 -2.4375 1.078125 -4.25q1.09375 -1.828125 2.90625 -2.84375q1.8125 -1.03125 4.015625 -1.03125q2.046875 0 3.515625 0.703125q1.46875 0.703125 2.40625 1.828125q0.953125 1.109375 1.421875 2.4375q0.46875 1.328125 0.46875 2.578125l0 2.140625l-11.65625 0q0.0625 1.40625 1.1875 2.328125q1.125 0.90625 2.65625 0.90625q1.5 0 2.3125 -0.546875q0.828125 -0.546875 1.140625 -1.25l3.453125 1.921875q-0.34375 0.796875 -1.171875 1.671875q-0.8125 0.859375 -2.1875 1.453125q-1.375 0.59375 -3.484375 0.59375zm-3.84375 -10.53125l7.484375 0q-0.1875 -1.125 -1.203125 -1.859375q-1.0 -0.734375 -2.53125 -0.734375q-1.5 0 -2.484375 0.78125q-0.96875 0.78125 -1.265625 1.8125zm21.75592 10.53125q-1.875 0 -3.484375 -0.953125q-1.59375 -0.96875 -2.5625 -2.796875q-0.953125 -1.828125 -0.953125 -4.390625l0 -0.5q0 -2.53125 0.921875 -4.359375q0.9375 -1.828125 2.484375 -2.796875q1.546875 -0.96875 3.40625 -0.96875q1.703125 0 2.734375 0.578125q1.046875 0.5625 1.65625 1.78125l0.578125 0l0 -1.921875l4.03125 0l0 11.078125q0 0.953125 0.859375 0.953125l0.609375 0l0 3.84375l-2.75 0q-1.09375 0 -1.78125 -0.65625q-0.6875 -0.65625 -0.6875 -1.640625l-0.578125 0q-0.609375 1.46875 -1.78125 2.109375q-1.15625 0.640625 -2.703125 0.640625zm0.90625 -3.84375q1.75 0 2.8125 -1.171875q1.0625 -1.171875 1.0625 -3.1875l0 -0.375q0 -2.015625 -1.0625 -3.1875q-1.0625 -1.171875 -2.8125 -1.171875q-1.765625 0 -2.828125 1.171875q-1.046875 1.171875 -1.046875 3.1875l0 0.375q0 2.015625 1.046875 3.1875q1.0625 1.171875 2.828125 1.171875zm11.552795 3.390625l0 -15.875l4.03125 0l0 1.53125l0.578125 0q0.1875 -0.859375 0.890625 -1.40625q0.703125 -0.5625 1.796875 -0.5625q1.046875 0 1.796875 0.5625q0.765625 0.546875 0.984375 1.40625l0.578125 0q0.25 -0.859375 1.078125 -1.40625q0.84375 -0.5625 2.015625 -0.5625q1.609375 0 2.5625 1.078125q0.96875 1.0625 0.96875 2.953125l0 12.28125l-4.03125 0l0 -11.140625q0 -0.671875 -0.34375 -1.0q-0.328125 -0.34375 -0.875 -0.34375q-0.609375 0 -1.0 0.390625q-0.375 0.375 -0.375 1.15625l0 10.9375l-4.03125 0l0 -11.140625q0 -0.671875 -0.375 -1.0q-0.359375 -0.34375 -0.875 -0.34375q-0.578125 0 -0.96875 0.390625q-0.375 0.375 -0.375 1.15625l0 10.9375l-4.03125 0zm28.59967 0.453125q-2.453125 0 -3.984375 -0.796875q-1.515625 -0.8125 -2.296875 -1.953125q-0.78125 -1.15625 -1.015625 -2.25l3.71875 -1.21875q0.25 1.0 1.078125 1.78125q0.84375 0.78125 2.5 0.78125q1.515625 0 2.0625 -0.453125q0.5625 -0.46875 0.5625 -1.015625q0 -0.640625 -0.671875 -1.109375q-0.671875 -0.484375 -2.6875 -0.65625q-2.65625 -0.21875 -4.265625 -1.40625q-1.59375 -1.1875 -1.59375 -3.421875l0 -0.1875q0 -1.578125 0.859375 -2.65625q0.875 -1.09375 2.25 -1.640625q1.375 -0.5625 2.90625 -0.5625q2.015625 0 3.328125 0.625q1.3125 0.609375 2.0625 1.546875q0.765625 0.921875 1.078125 1.859375l-3.640625 1.46875q-0.296875 -0.875 -1.0 -1.359375q-0.703125 -0.5 -1.828125 -0.5q-0.984375 0 -1.515625 0.375q-0.53125 0.359375 -0.53125 0.90625q0 0.765625 0.796875 1.09375q0.8125 0.3125 2.921875 0.5625q2.4375 0.265625 3.96875 1.46875q1.53125 1.1875 1.53125 3.34375l0 0.1875q0 2.328125 -1.734375 3.765625q-1.71875 1.421875 -4.859375 1.421875z" fill-rule="nonzero"/><path fill="#d0fdf2" d="m325.11148 340.24506q-1.875 0 -3.484375 -0.953125q-1.59375 -0.96875 -2.5625 -2.796875q-0.953125 -1.828125 -0.953125 -4.390625l0 -0.5q0 -2.53125 0.921875 -4.359375q0.9375 -1.828125 2.484375 -2.796875q1.546875 -0.96875 3.40625 -0.96875q1.703125 0 2.734375 0.578125q1.046875 0.5625 1.65625 1.78125l0.578125 0l0 -1.921875l4.03125 0l0 11.078125q0 0.953125 0.859375 0.953125l0.609375 0l0 3.84375l-2.75 0q-1.09375 0 -1.78125 -0.65625q-0.6875 -0.65625 -0.6875 -1.640625l-0.578125 0q-0.609375 1.46875 -1.78125 2.109375q-1.15625 0.640625 -2.703125 0.640625zm0.90625 -3.84375q1.75 0 2.8125 -1.171875q1.0625 -1.171875 1.0625 -3.1875l0 -0.375q0 -2.015625 -1.0625 -3.1875q-1.0625 -1.171875 -2.8125 -1.171875q-1.765625 0 -2.828125 1.171875q-1.046875 1.171875 -1.046875 3.1875l0 0.375q0 2.015625 1.046875 3.1875q1.0625 1.171875 2.828125 1.171875zm11.740295 3.390625l0 -3.84375l3.265625 0l0 -8.1875l-2.875 0l0 -3.84375l6.71875 0l0 2.3125l0.578125 0q0.4375 -1.3125 1.515625 -2.03125q1.09375 -0.71875 2.578125 -0.71875q2.359375 0 3.796875 1.484375q1.453125 1.484375 1.453125 4.53125l0 0.703125l-4.171875 0.375l0 -0.4375q0 -1.3125 -0.671875 -2.09375q-0.671875 -0.796875 -2.015625 -0.796875q-1.34375 0 -2.109375 0.9375q-0.765625 0.921875 -0.765625 2.65625l0 5.109375l3.640625 0l0 3.84375l-10.9375 0zm28.19342 0.453125q-2.375 0 -4.203125 -1.0q-1.8125 -1.015625 -2.84375 -2.90625q-1.015625 -1.890625 -1.015625 -4.546875l0 -0.1875q0 -2.4375 1.078125 -4.25q1.09375 -1.828125 2.90625 -2.84375q1.8125 -1.03125 4.015625 -1.03125q2.046875 0 3.515625 0.703125q1.46875 0.703125 2.40625 1.828125q0.953125 1.109375 1.421875 2.4375q0.46875 1.328125 0.46875 2.578125l0 2.140625l-11.65625 0q0.0625 1.40625 1.1875 2.328125q1.125 0.90625 2.65625 0.90625q1.5 0 2.3125 -0.546875q0.828125 -0.546875 1.140625 -1.25l3.453125 1.921875q-0.34375 0.796875 -1.171875 1.671875q-0.8125 0.859375 -2.1875 1.453125q-1.375 0.59375 -3.484375 0.59375zm-3.84375 -10.53125l7.484375 0q-0.1875 -1.125 -1.203125 -1.859375q-1.0 -0.734375 -2.53125 -0.734375q-1.5 0 -2.484375 0.78125q-0.96875 0.78125 -1.265625 1.8125zm43.23059 10.53125q-2.453125 0 -3.984375 -0.796875q-1.515625 -0.8125 -2.296875 -1.953125q-0.78125 -1.15625 -1.015625 -2.25l3.71875 -1.21875q0.25 1.0 1.078125 1.78125q0.84375 0.78125 2.5 0.78125q1.515625 0 2.0625 -0.453125q0.5625 -0.46875 0.5625 -1.015625q0 -0.640625 -0.671875 -1.109375q-0.671875 -0.484375 -2.6875 -0.65625q-2.65625 -0.21875 -4.265625 -1.40625q-1.59375 -1.1875 -1.59375 -3.421875l0 -0.1875q0 -1.578125 0.859375 -2.65625q0.875 -1.09375 2.25 -1.640625q1.375 -0.5625 2.90625 -0.5625q2.015625 0 3.328125 0.625q1.3125 0.609375 2.0625 1.546875q0.765625 0.921875 1.078125 1.859375l-3.640625 1.46875q-0.296875 -0.875 -1.0 -1.359375q-0.703125 -0.5 -1.828125 -0.5q-0.984375 0 -1.515625 0.375q-0.53125 0.359375 -0.53125 0.90625q0 0.765625 0.796875 1.09375q0.8125 0.3125 2.921875 0.5625q2.4375 0.265625 3.96875 1.46875q1.53125 1.1875 1.53125 3.34375l0 0.1875q0 2.328125 -1.734375 3.765625q-1.71875 1.421875 -4.859375 1.421875zm19.365295 0q-2.375 0 -4.203125 -1.0q-1.8125 -1.015625 -2.84375 -2.90625q-1.015625 -1.890625 -1.015625 -4.546875l0 -0.1875q0 -2.4375 1.078125 -4.25q1.09375 -1.828125 2.90625 -2.84375q1.8125 -1.03125 4.015625 -1.03125q2.046875 0 3.515625 0.703125q1.46875 0.703125 2.40625 1.828125q0.953125 1.109375 1.421875 2.4375q0.46875 1.328125 0.46875 2.578125l0 2.140625l-11.65625 0q0.0625 1.40625 1.1875 2.328125q1.125 0.90625 2.65625 0.90625q1.5 0 2.3125 -0.546875q0.828125 -0.546875 1.140625 -1.25l3.453125 1.921875q-0.34375 0.796875 -1.171875 1.671875q-0.8125 0.859375 -2.1875 1.453125q-1.375 0.59375 -3.484375 0.59375zm-3.84375 -10.53125l7.484375 0q-0.1875 -1.125 -1.203125 -1.859375q-1.0 -0.734375 -2.53125 -0.734375q-1.5 0 -2.484375 0.78125q-0.96875 0.78125 -1.265625 1.8125zm23.459045 10.53125q-2.34375 0 -4.234375 -0.9375q-1.875 -0.953125 -2.984375 -2.765625q-1.109375 -1.8125 -1.109375 -4.359375l0 -0.390625q0 -2.5625 1.125 -4.421875q1.125 -1.875 3.015625 -2.875q1.890625 -1.015625 4.1875 -1.015625q3.328125 0 5.40625 1.734375q2.078125 1.71875 2.59375 4.53125l-3.96875 1.015625q-0.1875 -1.40625 -1.21875 -2.421875q-1.015625 -1.03125 -2.875 -1.03125q-1.734375 0 -2.984375 1.21875q-1.234375 1.21875 -1.234375 3.359375l0 0.1875q0 2.15625 1.234375 3.25q1.25 1.078125 2.984375 1.078125q1.859375 0 2.828125 -0.921875q0.984375 -0.9375 1.265625 -2.5l3.96875 0.984375q-0.515625 2.8125 -2.5625 4.546875q-2.046875 1.734375 -5.4375 1.734375zm17.72467 0q-1.5625 0 -2.84375 -0.6875q-1.28125 -0.6875 -2.03125 -2.109375q-0.75 -1.4375 -0.75 -3.609375l0 -9.921875l4.03125 0l0 9.09375q0 1.65625 0.8125 2.625q0.8125 0.953125 2.390625 0.953125q1.8125 0 2.65625 -1.15625q0.859375 -1.171875 0.859375 -3.1875l0 -8.328125l4.03125 0l0 15.875l-4.03125 0l0 -2.296875l-0.578125 0q-1.0625 2.75 -4.546875 2.75zm12.802795 -0.453125l0 -3.84375l3.265625 0l0 -8.1875l-2.875 0l0 -3.84375l6.71875 0l0 2.3125l0.578125 0q0.4375 -1.3125 1.515625 -2.03125q1.09375 -0.71875 2.578125 -0.71875q2.359375 0 3.796875 1.484375q1.453125 1.484375 1.453125 4.53125l0 0.703125l-4.171875 0.375l0 -0.4375q0 -1.3125 -0.671875 -2.09375q-0.671875 -0.796875 -2.015625 -0.796875q-1.34375 0 -2.109375 0.9375q-0.765625 0.921875 -0.765625 2.65625l0 5.109375l3.640625 0l0 3.84375l-10.9375 0zm28.38092 -17.53125q-1.25 0 -2.140625 -0.875q-0.890625 -0.890625 -0.890625 -2.171875q0 -1.28125 0.890625 -2.15625q0.890625 -0.875 2.140625 -0.875q1.25 0 2.140625 0.875q0.90625 0.875 0.90625 2.15625q0 1.28125 -0.90625 2.171875q-0.890625 0.875 -2.140625 0.875zm-7.359375 17.53125l0 -3.84375l5.375 0l0 -8.1875l-4.984375 0l0 -3.84375l9.015625 0l0 12.03125l4.609375 0l0 3.84375l-14.015625 0zm19.302826 0l0 -15.875l4.03125 0l0 2.375l0.578125 0q0.53125 -1.34375 1.75 -2.078125q1.21875 -0.734375 2.859375 -0.734375q1.53125 0 2.796875 0.65625q1.265625 0.640625 2.015625 2.046875q0.75 1.390625 0.75 3.5625l0 10.046875l-4.03125 0l0 -9.03125q0 -1.6875 -0.828125 -2.65625q-0.8125 -0.984375 -2.34375 -0.984375q-1.765625 0 -2.65625 1.203125q-0.890625 1.203125 -0.890625 3.21875l0 8.25l-4.03125 0zm21.78717 6.40625l0 -3.84375l8.25 0q0.875 0 0.875 -0.96875l0 -3.890625l-0.578125 0q-0.484375 1.046875 -1.59375 1.90625q-1.09375 0.84375 -3.375 0.84375q-1.9375 0 -3.515625 -0.9375q-1.5625 -0.953125 -2.5 -2.765625q-0.921875 -1.8125 -0.921875 -4.390625l0 -0.578125q0 -2.5625 0.96875 -4.375q0.984375 -1.8125 2.59375 -2.765625q1.625 -0.953125 3.546875 -0.953125q1.921875 0 3.046875 0.71875q1.140625 0.71875 1.75 2.03125l0.578125 0l0 -2.3125l4.03125 0l0 19.78125q0 1.078125 -0.6875 1.78125q-0.6875 0.71875 -1.78125 0.71875l-10.6875 0zm4.890625 -9.796875q1.890625 0 3.0625 -1.203125q1.171875 -1.203125 1.171875 -3.15625l0 -0.375q0 -1.953125 -1.171875 -3.15625q-1.171875 -1.203125 -3.0625 -1.203125q-1.84375 0 -3.03125 1.1875q-1.1875 1.1875 -1.1875 3.171875l0 0.375q0 1.984375 1.1875 3.171875q1.1875 1.1875 3.03125 1.1875zm17.927795 7.578125l0 -2.484375l1.53125 0q0.875 0 0.875 -0.96875l0 -0.375q-0.234375 0.09375 -0.546875 0.09375q-1.25 0 -2.15625 -0.890625q-0.890625 -0.90625 -0.890625 -2.15625q0 -1.25 0.890625 -2.125q0.90625 -0.875 2.15625 -0.875q1.25 0 2.140625 0.875q0.890625 0.875 0.890625 2.125l0 3.90625q0 1.21875 -0.8125 2.046875q-0.8125 0.828125 -2.03125 0.828125l-2.046875 0z" fill-rule="nonzero"/><path fill="#02f4d5" d="m593.5069 339.79193l0 -15.875l4.03125 0l0 2.375l0.578125 0q0.53125 -1.34375 1.75 -2.078125q1.21875 -0.734375 2.859375 -0.734375q1.53125 0 2.796875 0.65625q1.265625 0.640625 2.015625 2.046875q0.75 1.390625 0.75 3.5625l0 10.046875l-4.03125 0l0 -9.03125q0 -1.6875 -0.828125 -2.65625q-0.8125 -0.984375 -2.34375 -0.984375q-1.765625 0 -2.65625 1.203125q-0.890625 1.203125 -0.890625 3.21875l0 8.25l-4.03125 0zm26.88092 0.453125q-2.1875 0 -4.078125 -0.953125q-1.875 -0.96875 -3.03125 -2.796875q-1.15625 -1.828125 -1.15625 -4.453125l0 -0.375q0 -2.59375 1.15625 -4.4375q1.15625 -1.84375 3.03125 -2.796875q1.890625 -0.953125 4.078125 -0.953125q2.171875 0 4.0625 0.953125q1.890625 0.953125 3.03125 2.796875q1.15625 1.84375 1.15625 4.4375l0 0.375q0 2.625 -1.15625 4.453125q-1.140625 1.828125 -3.03125 2.796875q-1.890625 0.953125 -4.0625 0.953125zm0 -3.84375q1.75 0 2.984375 -1.125q1.234375 -1.140625 1.234375 -3.09375l0 -0.640625q0 -1.984375 -1.234375 -3.109375q-1.234375 -1.125 -2.984375 -1.125q-1.765625 0 -3.0 1.125q-1.234375 1.125 -1.234375 3.109375l0 0.640625q0 1.953125 1.234375 3.09375q1.234375 1.125 3.0 1.125zm19.00592 3.390625q-1.09375 0 -1.78125 -0.703125q-0.6875 -0.703125 -0.6875 -1.796875l0 -9.53125l-4.703125 0l0 -3.84375l4.703125 0l0 -6.53125l4.03125 0l0 6.53125l5.734375 0l0 3.84375l-5.734375 0l0 7.234375q0 0.953125 0.859375 0.953125l4.296875 0l0 3.84375l-6.71875 0zm41.339966 0.453125q-2.140625 0 -3.28125 -0.84375q-1.140625 -0.859375 -1.671875 -1.90625l-0.578125 0l0 2.296875l-4.03125 0l0 -22.40625l4.03125 0l0 8.84375l0.578125 0q0.640625 -1.3125 1.859375 -2.03125q1.234375 -0.71875 3.09375 -0.71875q1.890625 0 3.453125 0.953125q1.578125 0.953125 2.53125 2.765625q0.96875 1.8125 0.96875 4.375l0 0.578125q0 2.578125 -0.9375 4.390625q-0.921875 1.8125 -2.5 2.765625q-1.5625 0.9375 -3.515625 0.9375zm-1.3125 -3.84375q1.890625 0 3.046875 -1.1875q1.171875 -1.1875 1.171875 -3.171875l0 -0.375q0 -1.984375 -1.171875 -3.171875q-1.15625 -1.1875 -3.046875 -1.1875q-1.859375 0 -3.046875 1.203125q-1.171875 1.203125 -1.171875 3.15625l0 0.375q0 1.953125 1.171875 3.15625q1.1875 1.203125 3.046875 1.203125zm17.63092 3.84375q-1.5625 0 -2.84375 -0.6875q-1.28125 -0.6875 -2.03125 -2.109375q-0.75 -1.4375 -0.75 -3.609375l0 -9.921875l4.03125 0l0 9.09375q0 1.65625 0.8125 2.625q0.8125 0.953125 2.390625 0.953125q1.8125 0 2.65625 -1.15625q0.859375 -1.171875 0.859375 -3.1875l0 -8.328125l4.03125 0l0 15.875l-4.03125 0l0 -2.296875l-0.578125 0q-1.0625 2.75 -4.546875 2.75zm21.59967 -17.984375q-1.25 0 -2.140625 -0.875q-0.890625 -0.890625 -0.890625 -2.171875q0 -1.28125 0.890625 -2.15625q0.890625 -0.875 2.140625 -0.875q1.25 0 2.140625 0.875q0.90625 0.875 0.90625 2.15625q0 1.28125 -0.90625 2.171875q-0.890625 0.875 -2.140625 0.875zm-7.359375 17.53125l0 -3.84375l5.375 0l0 -8.1875l-4.984375 0l0 -3.84375l9.015625 0l0 12.03125l4.609375 0l0 3.84375l-14.015625 0zm19.209045 0l0 -3.84375l5.5625 0l0 -14.71875l-5.375 0l0 -3.84375l9.40625 0l0 18.5625l5.1875 0l0 3.84375l-14.78125 0zm25.53717 0.453125q-1.953125 0 -3.53125 -0.9375q-1.5625 -0.953125 -2.5 -2.765625q-0.921875 -1.8125 -0.921875 -4.390625l0 -0.578125q0 -2.5625 0.96875 -4.375q0.984375 -1.8125 2.59375 -2.765625q1.625 -0.953125 3.546875 -0.953125q1.921875 0 3.046875 0.71875q1.140625 0.71875 1.75 2.03125l0.578125 0l0 -8.84375l4.03125 0l0 22.40625l-4.03125 0l0 -2.296875l-0.578125 0q-0.484375 1.046875 -1.59375 1.90625q-1.09375 0.84375 -3.359375 0.84375zm1.296875 -3.84375q1.890625 0 3.0625 -1.203125q1.171875 -1.203125 1.171875 -3.15625l0 -0.375q0 -1.953125 -1.171875 -3.15625q-1.171875 -1.203125 -3.0625 -1.203125q-1.84375 0 -3.03125 1.1875q-1.1875 1.1875 -1.1875 3.171875l0 0.375q0 1.984375 1.1875 3.171875q1.1875 1.1875 3.03125 1.1875zm20.06842 -14.140625q-1.25 0 -2.140625 -0.875q-0.890625 -0.890625 -0.890625 -2.171875q0 -1.28125 0.890625 -2.15625q0.890625 -0.875 2.140625 -0.875q1.25 0 2.140625 0.875q0.90625 0.875 0.90625 2.15625q0 1.28125 -0.90625 2.171875q-0.890625 0.875 -2.140625 0.875zm-7.359375 17.53125l0 -3.84375l5.375 0l0 -8.1875l-4.984375 0l0 -3.84375l9.015625 0l0 12.03125l4.609375 0l0 3.84375l-14.015625 0zm19.302795 0l0 -15.875l4.03125 0l0 2.375l0.578125 0q0.53125 -1.34375 1.75 -2.078125q1.21875 -0.734375 2.859375 -0.734375q1.53125 0 2.796875 0.65625q1.265625 0.640625 2.015625 2.046875q0.75 1.390625 0.75 3.5625l0 10.046875l-4.03125 0l0 -9.03125q0 -1.6875 -0.828125 -2.65625q-0.8125 -0.984375 -2.34375 -0.984375q-1.765625 0 -2.65625 1.203125q-0.890625 1.203125 -0.890625 3.21875l0 8.25l-4.03125 0zm21.78717 6.40625l0 -3.84375l8.25 0q0.875 0 0.875 -0.96875l0 -3.890625l-0.578125 0q-0.484375 1.046875 -1.59375 1.90625q-1.09375 0.84375 -3.375 0.84375q-1.9375 0 -3.515625 -0.9375q-1.5625 -0.953125 -2.5 -2.765625q-0.921875 -1.8125 -0.921875 -4.390625l0 -0.578125q0 -2.5625 0.96875 -4.375q0.984375 -1.8125 2.59375 -2.765625q1.625 -0.953125 3.546875 -0.953125q1.921875 0 3.046875 0.71875q1.140625 0.71875 1.75 2.03125l0.578125 0l0 -2.3125l4.03125 0l0 19.78125q0 1.078125 -0.6875 1.78125q-0.6875 0.71875 -1.78125 0.71875l-10.6875 0zm4.890625 -9.796875q1.890625 0 3.0625 -1.203125q1.171875 -1.203125 1.171875 -3.15625l0 -0.375q0 -1.953125 -1.171875 -3.15625q-1.171875 -1.203125 -3.0625 -1.203125q-1.84375 0 -3.03125 1.1875q-1.1875 1.1875 -1.1875 3.171875l0 0.375q0 1.984375 1.1875 3.171875q1.1875 1.1875 3.03125 1.1875zm19.78717 3.84375q-1.25 0 -2.15625 -0.875q-0.890625 -0.890625 -0.890625 -2.171875q0 -1.28125 0.890625 -2.15625q0.90625 -0.875 2.15625 -0.875q1.25 0 2.140625 0.875q0.890625 0.875 0.890625 2.15625q0 1.28125 -0.890625 2.171875q-0.890625 0.875 -2.140625 0.875z" fill-rule="nonzero"/></g></svg>
