<svg version="1.1" viewBox="0.0 0.0 960.0 540.0" fill="none" stroke="none" stroke-linecap="square" stroke-miterlimit="10" xmlns:xlink="http://www.w3.org/1999/xlink" xmlns="http://www.w3.org/2000/svg"><clipPath id="g36cfd3642ec_0_231.0"><path d="m0 0l960.0 0l0 540.0l-960.0 0l0 -540.0z" clip-rule="nonzero"/></clipPath><g clip-path="url(#g36cfd3642ec_0_231.0)"><path fill="#d0fdf2" d="m0 0l960.0 0l0 540.0l-960.0 0z" fill-rule="evenodd"/><path fill="#013a3b" d="m114.65879 195.60194l0 0c0 -8.725174 7.0731506 -15.798325 15.798332 -15.798325l197.03326 0c4.189972 0 8.2083435 1.6644592 11.171112 4.627228c2.962738 2.9627533 4.627228 6.981125 4.627228 11.171097l0 249.6632c0 8.725159 -7.0731506 15.798309 -15.79834 15.798309l-197.03326 0c-8.725182 0 -15.798332 -7.0731506 -15.798332 -15.798309z" fill-rule="evenodd"/><path fill="#000000" fill-opacity="0.0" d="m146.25029 257.33054l165.4803 0l0 22.614166l-165.4803 0z" fill-rule="evenodd"/><path fill="#d0fdf2" d="m152.21904 275.51614q-1.671875 0 -2.8125 -0.625q-1.140625 -0.625 -1.734375 -1.703125q-0.578125 -1.09375 -0.578125 -2.453125l0 -0.5625l1.5625 0l0 0.453125q0 1.703125 0.953125 2.578125q0.953125 0.859375 2.609375 0.859375q1.453125 0 2.1875 -0.65625q0.75 -0.65625 0.75 -1.703125l0 -0.109375q0 -1.03125 -0.765625 -1.5625q-0.75 -0.546875 -2.453125 -0.78125q-1.953125 -0.28125 -3.125 -1.109375q-1.15625 -0.84375 -1.15625 -2.515625l0 -0.21875q0 -1.03125 0.546875 -1.796875q0.546875 -0.78125 1.515625 -1.234375q0.96875 -0.453125 2.234375 -0.453125q1.484375 0 2.515625 0.546875q1.03125 0.546875 1.578125 1.4375q0.5625 0.875 0.5625 1.9375l0 0.78125l-1.578125 0l0 -0.671875q0 -0.859375 -0.4375 -1.421875q-0.421875 -0.5625 -1.125 -0.84375q-0.703125 -0.296875 -1.53125 -0.296875q-0.703125 0 -1.328125 0.25q-0.625 0.234375 -1.015625 0.6875q-0.375 0.453125 -0.375 1.125l0 0.109375q0 1.09375 0.875 1.59375q0.875 0.484375 2.625 0.75q2.0625 0.296875 3.03125 1.1875q0.96875 0.890625 0.96875 2.390625l0 0.21875q0 1.703125 -1.15625 2.765625q-1.140625 1.046875 -3.34375 1.046875zm10.652008 0q-1.203125 0 -2.1875 -0.546875q-0.984375 -0.5625 -1.5625 -1.609375q-0.578125 -1.0625 -0.578125 -2.59375l0 -0.296875q0 -1.5 0.578125 -2.5625q0.578125 -1.0625 1.5625 -1.609375q0.984375 -0.5625 2.15625 -0.5625q0.953125 0 1.71875 0.421875q0.78125 0.421875 1.21875 1.296875l0.234375 0l0 -1.453125l1.453125 0l0 7.34375q0 0.5625 0.5 0.5625l0.46875 0l0 1.34375l-0.984375 0q-0.578125 0 -1.015625 -0.375q-0.421875 -0.375 -0.421875 -1.1875l-0.234375 0q-0.4375 0.90625 -1.234375 1.375q-0.796875 0.453125 -1.671875 0.453125zm0.15625 -1.390625q1.296875 0 2.140625 -0.921875q0.84375 -0.9375 0.84375 -2.46875l0 -0.21875q0 -1.0 -0.390625 -1.75q-0.390625 -0.765625 -1.0625 -1.203125q-0.671875 -0.453125 -1.53125 -0.453125q-0.859375 0 -1.53125 0.421875q-0.671875 0.421875 -1.0625 1.1875q-0.390625 0.75 -0.390625 1.75l0 0.296875q0 1.578125 0.828125 2.46875q0.84375 0.890625 2.15625 0.890625zm6.948883 1.125l0 -9.25l1.453125 0l0 1.0l0.234375 0q0.234375 -0.65625 0.703125 -0.953125q0.46875 -0.3125 1.109375 -0.3125q0.671875 0 1.109375 0.359375q0.4375 0.34375 0.59375 0.90625l0.234375 0q0.625 -1.265625 2.015625 -1.265625q1.046875 0 1.609375 0.671875q0.5625 0.65625 0.5625 1.71875l0 7.125l-1.453125 0l0 -6.640625q0 -0.65625 -0.296875 -1.078125q-0.296875 -0.421875 -0.953125 -0.421875q-0.609375 0 -1.0 0.46875q-0.375 0.46875 -0.375 1.40625l0 6.265625l-1.453125 0l0 -6.71875q0 -0.609375 -0.34375 -1.015625q-0.328125 -0.40625 -0.890625 -0.40625q-0.671875 0 -1.046875 0.5q-0.359375 0.484375 -0.359375 1.265625l0 6.375l-1.453125 0zm11.808258 3.734375l0 -12.984375l1.46875 0l0 1.453125l0.21875 0q0.484375 -0.84375 1.34375 -1.28125q0.859375 -0.4375 1.859375 -0.4375q1.140625 0 2.109375 0.5625q0.96875 0.546875 1.546875 1.59375q0.59375 1.046875 0.59375 2.546875l0 0.375q0 1.515625 -0.578125 2.5625q-0.578125 1.03125 -1.5625 1.59375q-0.96875 0.546875 -2.140625 0.546875q-0.890625 0 -1.796875 -0.421875q-0.890625 -0.421875 -1.375 -1.265625l-0.21875 0l0 5.15625l-1.46875 0zm4.5625 -4.859375q1.3125 0 2.203125 -0.890625q0.890625 -0.890625 0.890625 -2.421875l0 -0.375q0 -0.984375 -0.421875 -1.734375q-0.40625 -0.75 -1.109375 -1.171875q-0.6875 -0.421875 -1.5625 -0.421875q-0.859375 0 -1.5625 0.453125q-0.703125 0.4375 -1.125 1.203125q-0.40625 0.75 -0.40625 1.75l0 0.21875q0 1.03125 0.40625 1.796875q0.40625 0.765625 1.109375 1.1875q0.71875 0.40625 1.578125 0.40625zm7.198883 1.125l0 -1.34375l3.359375 0l0 -10.375l-3.25 0l0 -1.34375l4.703125 0l0 11.71875l3.359375 0l0 1.34375l-8.171875 0zm15.542633 0.265625q-1.328125 0 -2.34375 -0.609375q-1.015625 -0.609375 -1.59375 -1.671875q-0.578125 -1.078125 -0.578125 -2.5l0 -0.453125q0 -1.296875 0.59375 -2.328125q0.59375 -1.03125 1.625 -1.625q1.046875 -0.59375 2.328125 -0.59375q1.140625 0 1.96875 0.421875q0.828125 0.40625 1.359375 1.046875q0.53125 0.625 0.78125 1.34375q0.265625 0.71875 0.265625 1.328125l0 1.203125l-7.46875 0q0.0625 1.359375 0.859375 2.203125q0.8125 0.84375 2.234375 0.84375q1.328125 0 1.96875 -0.546875q0.65625 -0.5625 0.90625 -1.34375l1.375 0.359375q-0.390625 1.296875 -1.453125 2.109375q-1.046875 0.8125 -2.828125 0.8125zm-3.03125 -5.78125l5.96875 0q-0.03125 -0.8125 -0.453125 -1.390625q-0.421875 -0.59375 -1.078125 -0.90625q-0.640625 -0.328125 -1.375 -0.328125q-1.234375 0 -2.078125 0.75q-0.828125 0.75 -0.984375 1.875zm25.038391 5.515625l0 -11.609375l-3.796875 0l0 -1.453125l9.171875 0l0 1.453125l-3.796875 0l0 11.609375l-1.578125 0zm12.292633 -10.703125q-0.515625 0 -0.90625 -0.390625q-0.390625 -0.40625 -0.390625 -0.921875q0 -0.546875 0.390625 -0.921875q0.390625 -0.390625 0.90625 -0.390625q0.546875 0 0.921875 0.390625q0.390625 0.375 0.390625 0.921875q0 0.515625 -0.390625 0.921875q-0.375 0.390625 -0.921875 0.390625zm-3.953125 10.703125l0 -1.34375l3.25 0l0 -6.5625l-2.90625 0l0 -1.34375l4.359375 0l0 7.90625l3.03125 0l0 1.34375l-7.734375 0zm15.230133 0q-0.640625 0 -1.046875 -0.40625q-0.390625 -0.421875 -0.390625 -1.046875l0 -6.453125l-2.90625 0l0 -1.34375l2.90625 0l0 -3.8125l1.453125 0l0 3.8125l3.5781097 0l0 1.34375l-3.5781097 0l0 6.0q0 0.5625 0.5 0.5625l2.6406097 0l0 1.34375l-3.1562347 0zm7.386368 0l0 -1.34375l3.359375 0l0 -10.375l-3.25 0l0 -1.34375l4.703125 0l0 11.71875l3.359375 0l0 1.34375l-8.171875 0zm15.542633 0.265625q-1.328125 0 -2.34375 -0.609375q-1.015625 -0.609375 -1.59375 -1.671875q-0.578125 -1.078125 -0.578125 -2.5l0 -0.453125q0 -1.296875 0.59375 -2.328125q0.59375 -1.03125 1.625 -1.625q1.046875 -0.59375 2.328125 -0.59375q1.140625 0 1.96875 0.421875q0.828125 0.40625 1.359375 1.046875q0.53125 0.625 0.78125 1.34375q0.265625 0.71875 0.265625 1.328125l0 1.203125l-7.46875 0q0.0625 1.359375 0.859375 2.203125q0.8125 0.84375 2.234375 0.84375q1.328125 0 1.96875 -0.546875q0.65625 -0.5625 0.90625 -1.34375l1.375 0.359375q-0.390625 1.296875 -1.453125 2.109375q-1.046875 0.8125 -2.828125 0.8125zm-3.03125 -5.78125l5.96875 0q-0.03125 -0.8125 -0.453125 -1.390625q-0.421875 -0.59375 -1.078125 -0.90625q-0.640625 -0.328125 -1.375 -0.328125q-1.234375 0 -2.078125 0.75q-0.828125 0.75 -0.984375 1.875z" fill-rule="nonzero"/><path fill="#000000" fill-opacity="0.0" d="m143.32024 333.9029l171.30708 0l0 68.09448l-171.30708 0z" fill-rule="evenodd"/><path fill="#d0fdf2" d="m154.03699 339.5667q0.65625 0 1.28125 0.34375q0.640625 0.328125 0.984375 0.96875q0.359375 0.625 0.359375 1.3125q0 1.078125 -0.78125 1.859375q-0.765625 0.765625 -1.84375 0.765625q-1.09375 0 -1.859375 -0.765625q-0.765625 -0.78125 -0.765625 -1.859375q0 -0.6875 0.34375 -1.3125q0.359375 -0.640625 0.984375 -0.96875q0.640625 -0.34375 1.296875 -0.34375z" fill-rule="nonzero"/><path fill="#d0fdf2" d="m174.22961 336.91046l0 7.734375l4.609375 0l0 0.984375l-5.765625 0l0 -8.71875l1.15625 0zm6.552429 0l0 1.28125l-1.03125 0l0 -1.28125l1.03125 0zm0 2.40625l0 6.3125l-1.03125 0l0 -6.3125l1.03125 0zm3.7111511 -0.140625q1.28125 0 1.890625 0.5q0.625 0.484375 0.6875 1.46875l-1.03125 0l0 -0.015625q-0.046875 -0.5 -0.453125 -0.765625q-0.390625 -0.28125 -1.015625 -0.28125q-0.625 0 -0.984375 0.21875q-0.359375 0.203125 -0.359375 0.59375q0 0.34375 0.3125 0.5625q0.328125 0.21875 0.96875 0.359375l0.96875 0.21875q0.921875 0.203125 1.390625 0.625q0.484375 0.421875 0.484375 1.125q0 0.9375 -0.71875 1.46875q-0.71875 0.53125 -1.96875 0.53125q-1.203125 0 -1.921875 -0.546875q-0.703125 -0.546875 -0.75 -1.59375l1.046875 0q0.015625 0.578125 0.453125 0.90625q0.453125 0.3125 1.234375 0.3125q0.75 0 1.140625 -0.234375q0.390625 -0.25 0.390625 -0.703125q0 -0.4375 -0.390625 -0.671875q-0.390625 -0.25 -1.578125 -0.484375q-1.1875 -0.234375 -1.671875 -0.65625q-0.484375 -0.4375 -0.484375 -1.140625q0 -0.828125 0.671875 -1.3125q0.671875 -0.484375 1.6875 -0.484375zm5.4453125 -1.75l0 1.890625l1.265625 0l0 0.921875l-1.265625 0l0 3.953125q0 0.46875 0.3125 0.5q0.3125 0.015625 0.65625 0.015625l0.296875 0l0 0.921875l-0.859375 0q-0.859375 0 -1.15625 -0.296875q-0.28125 -0.3125 -0.28125 -1.03125l0 -4.0625l-1.078125 0l0 -0.921875l1.078125 0l0 -1.890625l1.03125 0zm6.8899536 -0.515625l0 1.28125l-1.03125 0l0 -1.28125l1.03125 0zm0 2.40625l0 6.3125l-1.03125 0l0 -6.3125l1.03125 0zm3.0549011 -1.890625l0 1.890625l1.265625 0l0 0.921875l-1.265625 0l0 3.953125q0 0.46875 0.3125 0.5q0.3125 0.015625 0.65625 0.015625l0.296875 0l0 0.921875l-0.859375 0q-0.859375 0 -1.15625 -0.296875q-0.28125 -0.3125 -0.28125 -1.03125l0 -4.0625l-1.078125 0l0 -0.921875l1.078125 0l0 -1.890625l1.03125 0zm4.881668 1.75q1.359375 0 2.109375 0.984375q0.75 0.96875 0.75 2.5l0 0.125l-4.734375 0l0 0.078125q0 0.90625 0.53125 1.453125q0.53125 0.546875 1.4375 0.546875q0.6875 0 1.09375 -0.3125q0.421875 -0.328125 0.546875 -0.921875l1.015625 0q-0.203125 1.046875 -0.921875 1.609375q-0.703125 0.546875 -1.765625 0.546875q-1.0 0 -1.6875 -0.453125q-0.6875 -0.453125 -1.015625 -1.25q-0.328125 -0.8125 -0.328125 -1.640625q0 -1.40625 0.84375 -2.328125q0.84375 -0.9375 2.125 -0.9375zm-1.875 2.6875l3.625 0q-0.046875 -0.765625 -0.5625 -1.265625q-0.5 -0.515625 -1.265625 -0.515625q-0.71875 0 -1.21875 0.484375q-0.5 0.484375 -0.578125 1.296875zm8.835663 -2.6875q0.703125 0 1.140625 0.28125q0.4375 0.28125 0.59375 0.796875q0.328125 -0.515625 0.84375 -0.796875q0.515625 -0.28125 1.140625 -0.28125q1.078125 0 1.578125 0.484375q0.515625 0.484375 0.515625 1.296875l0 4.671875l-1.03125 0l0 -4.1875q0 -0.671875 -0.296875 -1.015625q-0.28125 -0.34375 -0.921875 -0.34375q-0.78125 0 -1.21875 0.453125q-0.4375 0.453125 -0.4375 1.125l0 3.96875l-1.03125 0l0 -4.1875q0 -0.671875 -0.296875 -1.015625q-0.28125 -0.34375 -0.890625 -0.34375q-0.484375 0 -0.875 0.25q-0.375 0.234375 -0.59375 0.65625q-0.21875 0.40625 -0.21875 0.6875l0 3.953125l-1.03125 0l0 -6.3125l0.96875 0l0 0.9375l0.03125 0q0.359375 -0.546875 0.859375 -0.8125q0.515625 -0.265625 1.171875 -0.265625zm13.378159 -2.203125q0.734375 0 1.265625 0.234375q0.53125 0.234375 0.890625 0.71875q0.734375 0.9375 0.734375 3.453125q0 1.265625 -0.1875 2.125q-0.171875 0.84375 -0.546875 1.328125q-0.34375 0.453125 -0.890625 0.703125q-0.53125 0.25 -1.265625 0.25q-1.4375 0 -2.15625 -0.96875q-0.71875 -0.96875 -0.71875 -3.4375q0 -2.484375 0.71875 -3.4375q0.71875 -0.96875 2.15625 -0.96875zm-1.78125 4.390625q0 1.046875 0.109375 1.734375q0.125 0.671875 0.34375 1.046875q0.453125 0.71875 1.328125 0.71875q0.96875 0 1.375 -0.828125q0.21875 -0.421875 0.3125 -1.0625q0.09375 -0.65625 0.09375 -1.5625q0 -0.3125 -0.015625 -0.6875q0 -0.375 -0.046875 -0.75q-0.046875 -0.390625 -0.15625 -0.765625q-0.09375 -0.375 -0.296875 -0.65625q-0.203125 -0.296875 -0.515625 -0.46875q-0.296875 -0.1875 -0.765625 -0.1875q-0.40625 0 -0.734375 0.171875q-0.328125 0.171875 -0.5625 0.53125q-0.46875 0.703125 -0.46875 2.765625zm9.521179 -4.390625l0 8.65625l-1.03125 0l0 -6.203125l-2.25 0l0 -0.828125l0.03125 0q1.09375 0 1.6875 -0.390625q0.609375 -0.390625 0.765625 -1.234375l0.796875 0z" fill-rule="nonzero"/><path fill="#d0fdf2" d="m154.03699 357.15768q0.65625 0 1.28125 0.34375q0.640625 0.328125 0.984375 0.96875q0.359375 0.625 0.359375 1.3125q0 1.078125 -0.78125 1.859375q-0.765625 0.765625 -1.84375 0.765625q-1.09375 0 -1.859375 -0.765625q-0.765625 -0.78125 -0.765625 -1.859375q0 -0.6875 0.34375 -1.3125q0.359375 -0.640625 0.984375 -0.96875q0.640625 -0.34375 1.296875 -0.34375z" fill-rule="nonzero"/><path fill="#d0fdf2" d="m174.22961 354.50143l0 7.734375l4.609375 0l0 0.984375l-5.765625 0l0 -8.71875l1.15625 0zm6.552429 0l0 1.28125l-1.03125 0l0 -1.28125l1.03125 0zm0 2.40625l0 6.3125l-1.03125 0l0 -6.3125l1.03125 0zm3.7111511 -0.140625q1.28125 0 1.890625 0.5q0.625 0.484375 0.6875 1.46875l-1.03125 0l0 -0.015625q-0.046875 -0.5 -0.453125 -0.765625q-0.390625 -0.28125 -1.015625 -0.28125q-0.625 0 -0.984375 0.21875q-0.359375 0.203125 -0.359375 0.59375q0 0.34375 0.3125 0.5625q0.328125 0.21875 0.96875 0.359375l0.96875 0.21875q0.921875 0.203125 1.390625 0.625q0.484375 0.421875 0.484375 1.125q0 0.9375 -0.71875 1.46875q-0.71875 0.53125 -1.96875 0.53125q-1.203125 0 -1.921875 -0.546875q-0.703125 -0.546875 -0.75 -1.59375l1.046875 0q0.015625 0.578125 0.453125 0.90625q0.453125 0.3125 1.234375 0.3125q0.75 0 1.140625 -0.234375q0.390625 -0.25 0.390625 -0.703125q0 -0.4375 -0.390625 -0.671875q-0.390625 -0.25 -1.578125 -0.484375q-1.1875 -0.234375 -1.671875 -0.65625q-0.484375 -0.4375 -0.484375 -1.140625q0 -0.828125 0.671875 -1.3125q0.671875 -0.484375 1.6875 -0.484375zm5.4453125 -1.75l0 1.890625l1.265625 0l0 0.921875l-1.265625 0l0 3.953125q0 0.46875 0.3125 0.5q0.3125 0.015625 0.65625 0.015625l0.296875 0l0 0.921875l-0.859375 0q-0.859375 0 -1.15625 -0.296875q-0.28125 -0.3125 -0.28125 -1.03125l0 -4.0625l-1.078125 0l0 -0.921875l1.078125 0l0 -1.890625l1.03125 0zm6.8899536 -0.515625l0 1.28125l-1.03125 0l0 -1.28125l1.03125 0zm0 2.40625l0 6.3125l-1.03125 0l0 -6.3125l1.03125 0zm3.0549011 -1.890625l0 1.890625l1.265625 0l0 0.921875l-1.265625 0l0 3.953125q0 0.46875 0.3125 0.5q0.3125 0.015625 0.65625 0.015625l0.296875 0l0 0.921875l-0.859375 0q-0.859375 0 -1.15625 -0.296875q-0.28125 -0.3125 -0.28125 -1.03125l0 -4.0625l-1.078125 0l0 -0.921875l1.078125 0l0 -1.890625l1.03125 0zm4.881668 1.75q1.359375 0 2.109375 0.984375q0.75 0.96875 0.75 2.5l0 0.125l-4.734375 0l0 0.078125q0 0.90625 0.53125 1.453125q0.53125 0.546875 1.4375 0.546875q0.6875 0 1.09375 -0.3125q0.421875 -0.328125 0.546875 -0.921875l1.015625 0q-0.203125 1.046875 -0.921875 1.609375q-0.703125 0.546875 -1.765625 0.546875q-1.0 0 -1.6875 -0.453125q-0.6875 -0.453125 -1.015625 -1.25q-0.328125 -0.8125 -0.328125 -1.640625q0 -1.40625 0.84375 -2.328125q0.84375 -0.9375 2.125 -0.9375zm-1.875 2.6875l3.625 0q-0.046875 -0.765625 -0.5625 -1.265625q-0.5 -0.515625 -1.265625 -0.515625q-0.71875 0 -1.21875 0.484375q-0.5 0.484375 -0.578125 1.296875zm8.835663 -2.6875q0.703125 0 1.140625 0.28125q0.4375 0.28125 0.59375 0.796875q0.328125 -0.515625 0.84375 -0.796875q0.515625 -0.28125 1.140625 -0.28125q1.078125 0 1.578125 0.484375q0.515625 0.484375 0.515625 1.296875l0 4.671875l-1.03125 0l0 -4.1875q0 -0.671875 -0.296875 -1.015625q-0.28125 -0.34375 -0.921875 -0.34375q-0.78125 0 -1.21875 0.453125q-0.4375 0.453125 -0.4375 1.125l0 3.96875l-1.03125 0l0 -4.1875q0 -0.671875 -0.296875 -1.015625q-0.28125 -0.34375 -0.890625 -0.34375q-0.484375 0 -0.875 0.25q-0.375 0.234375 -0.59375 0.65625q-0.21875 0.40625 -0.21875 0.6875l0 3.953125l-1.03125 0l0 -6.3125l0.96875 0l0 0.9375l0.03125 0q0.359375 -0.546875 0.859375 -0.8125q0.515625 -0.265625 1.171875 -0.265625zm13.378159 -2.203125q0.734375 0 1.265625 0.234375q0.53125 0.234375 0.890625 0.71875q0.734375 0.9375 0.734375 3.453125q0 1.265625 -0.1875 2.125q-0.171875 0.84375 -0.546875 1.328125q-0.34375 0.453125 -0.890625 0.703125q-0.53125 0.25 -1.265625 0.25q-1.4375 0 -2.15625 -0.96875q-0.71875 -0.96875 -0.71875 -3.4375q0 -2.484375 0.71875 -3.4375q0.71875 -0.96875 2.15625 -0.96875zm-1.78125 4.390625q0 1.046875 0.109375 1.734375q0.125 0.671875 0.34375 1.046875q0.453125 0.71875 1.328125 0.71875q0.96875 0 1.375 -0.828125q0.21875 -0.421875 0.3125 -1.0625q0.09375 -0.65625 0.09375 -1.5625q0 -0.3125 -0.015625 -0.6875q0 -0.375 -0.046875 -0.75q-0.046875 -0.390625 -0.15625 -0.765625q-0.09375 -0.375 -0.296875 -0.65625q-0.203125 -0.296875 -0.515625 -0.46875q-0.296875 -0.1875 -0.765625 -0.1875q-0.40625 0 -0.734375 0.171875q-0.328125 0.171875 -0.5625 0.53125q-0.46875 0.703125 -0.46875 2.765625zm8.489929 -4.390625q1.203125 0 1.953125 0.6875q0.765625 0.671875 0.765625 1.8125q0 0.890625 -0.5 1.609375q-0.5 0.71875 -2.125 1.65625q-0.984375 0.578125 -1.40625 1.03125q-0.40625 0.453125 -0.5 0.9375l4.4375 0l0 0.921875l-5.640625 0q0.078125 -1.078125 0.546875 -1.890625q0.46875 -0.8125 1.75 -1.578125q1.515625 -0.921875 1.921875 -1.4375q0.40625 -0.53125 0.40625 -1.265625q0 -0.671875 -0.484375 -1.109375q-0.46875 -0.453125 -1.171875 -0.453125q-0.78125 0 -1.234375 0.578125q-0.453125 0.578125 -0.453125 1.484375l0 0.078125l-1.046875 0l0 -0.203125q0 -1.296875 0.765625 -2.078125q0.765625 -0.78125 2.015625 -0.78125z" fill-rule="nonzero"/><path fill="#d0fdf2" d="m154.03699 374.74866q0.65625 0 1.28125 0.34375q0.640625 0.328125 0.984375 0.96875q0.359375 0.625 0.359375 1.3125q0 1.078125 -0.78125 1.859375q-0.765625 0.765625 -1.84375 0.765625q-1.09375 0 -1.859375 -0.765625q-0.765625 -0.78125 -0.765625 -1.859375q0 -0.6875 0.34375 -1.3125q0.359375 -0.640625 0.984375 -0.96875q0.640625 -0.34375 1.296875 -0.34375z" fill-rule="nonzero"/><path fill="#d0fdf2" d="m174.22961 372.0924l0 7.734375l4.609375 0l0 0.984375l-5.765625 0l0 -8.71875l1.15625 0zm6.552429 0l0 1.28125l-1.03125 0l0 -1.28125l1.03125 0zm0 2.40625l0 6.3125l-1.03125 0l0 -6.3125l1.03125 0zm3.7111511 -0.140625q1.28125 0 1.890625 0.5q0.625 0.484375 0.6875 1.46875l-1.03125 0l0 -0.015625q-0.046875 -0.5 -0.453125 -0.765625q-0.390625 -0.28125 -1.015625 -0.28125q-0.625 0 -0.984375 0.21875q-0.359375 0.203125 -0.359375 0.59375q0 0.34375 0.3125 0.5625q0.328125 0.21875 0.96875 0.359375l0.96875 0.21875q0.921875 0.203125 1.390625 0.625q0.484375 0.421875 0.484375 1.125q0 0.9375 -0.71875 1.46875q-0.71875 0.53125 -1.96875 0.53125q-1.203125 0 -1.921875 -0.546875q-0.703125 -0.546875 -0.75 -1.59375l1.046875 0q0.015625 0.578125 0.453125 0.90625q0.453125 0.3125 1.234375 0.3125q0.75 0 1.140625 -0.234375q0.390625 -0.25 0.390625 -0.703125q0 -0.4375 -0.390625 -0.671875q-0.390625 -0.25 -1.578125 -0.484375q-1.1875 -0.234375 -1.671875 -0.65625q-0.484375 -0.4375 -0.484375 -1.140625q0 -0.828125 0.671875 -1.3125q0.671875 -0.484375 1.6875 -0.484375zm5.4453125 -1.75l0 1.890625l1.265625 0l0 0.921875l-1.265625 0l0 3.953125q0 0.46875 0.3125 0.5q0.3125 0.015625 0.65625 0.015625l0.296875 0l0 0.921875l-0.859375 0q-0.859375 0 -1.15625 -0.296875q-0.28125 -0.3125 -0.28125 -1.03125l0 -4.0625l-1.078125 0l0 -0.921875l1.078125 0l0 -1.890625l1.03125 0zm6.8899536 -0.515625l0 1.28125l-1.03125 0l0 -1.28125l1.03125 0zm0 2.40625l0 6.3125l-1.03125 0l0 -6.3125l1.03125 0zm3.0549011 -1.890625l0 1.890625l1.265625 0l0 0.921875l-1.265625 0l0 3.953125q0 0.46875 0.3125 0.5q0.3125 0.015625 0.65625 0.015625l0.296875 0l0 0.921875l-0.859375 0q-0.859375 0 -1.15625 -0.296875q-0.28125 -0.3125 -0.28125 -1.03125l0 -4.0625l-1.078125 0l0 -0.921875l1.078125 0l0 -1.890625l1.03125 0zm4.881668 1.75q1.359375 0 2.109375 0.984375q0.75 0.96875 0.75 2.5l0 0.125l-4.734375 0l0 0.078125q0 0.90625 0.53125 1.453125q0.53125 0.546875 1.4375 0.546875q0.6875 0 1.09375 -0.3125q0.421875 -0.328125 0.546875 -0.921875l1.015625 0q-0.203125 1.046875 -0.921875 1.609375q-0.703125 0.546875 -1.765625 0.546875q-1.0 0 -1.6875 -0.453125q-0.6875 -0.453125 -1.015625 -1.25q-0.328125 -0.8125 -0.328125 -1.640625q0 -1.40625 0.84375 -2.328125q0.84375 -0.9375 2.125 -0.9375zm-1.875 2.6875l3.625 0q-0.046875 -0.765625 -0.5625 -1.265625q-0.5 -0.515625 -1.265625 -0.515625q-0.71875 0 -1.21875 0.484375q-0.5 0.484375 -0.578125 1.296875zm8.835663 -2.6875q0.703125 0 1.140625 0.28125q0.4375 0.28125 0.59375 0.796875q0.328125 -0.515625 0.84375 -0.796875q0.515625 -0.28125 1.140625 -0.28125q1.078125 0 1.578125 0.484375q0.515625 0.484375 0.515625 1.296875l0 4.671875l-1.03125 0l0 -4.1875q0 -0.671875 -0.296875 -1.015625q-0.28125 -0.34375 -0.921875 -0.34375q-0.78125 0 -1.21875 0.453125q-0.4375 0.453125 -0.4375 1.125l0 3.96875l-1.03125 0l0 -4.1875q0 -0.671875 -0.296875 -1.015625q-0.28125 -0.34375 -0.890625 -0.34375q-0.484375 0 -0.875 0.25q-0.375 0.234375 -0.59375 0.65625q-0.21875 0.40625 -0.21875 0.6875l0 3.953125l-1.03125 0l0 -6.3125l0.96875 0l0 0.9375l0.03125 0q0.359375 -0.546875 0.859375 -0.8125q0.515625 -0.265625 1.171875 -0.265625zm13.378159 -2.203125q0.734375 0 1.265625 0.234375q0.53125 0.234375 0.890625 0.71875q0.734375 0.9375 0.734375 3.453125q0 1.265625 -0.1875 2.125q-0.171875 0.84375 -0.546875 1.328125q-0.34375 0.453125 -0.890625 0.703125q-0.53125 0.25 -1.265625 0.25q-1.4375 0 -2.15625 -0.96875q-0.71875 -0.96875 -0.71875 -3.4375q0 -2.484375 0.71875 -3.4375q0.71875 -0.96875 2.15625 -0.96875zm-1.78125 4.390625q0 1.046875 0.109375 1.734375q0.125 0.671875 0.34375 1.046875q0.453125 0.71875 1.328125 0.71875q0.96875 0 1.375 -0.828125q0.21875 -0.421875 0.3125 -1.0625q0.09375 -0.65625 0.09375 -1.5625q0 -0.3125 -0.015625 -0.6875q0 -0.375 -0.046875 -0.75q-0.046875 -0.390625 -0.15625 -0.765625q-0.09375 -0.375 -0.296875 -0.65625q-0.203125 -0.296875 -0.515625 -0.46875q-0.296875 -0.1875 -0.765625 -0.1875q-0.40625 0 -0.734375 0.171875q-0.328125 0.171875 -0.5625 0.53125q-0.46875 0.703125 -0.46875 2.765625zm8.396179 -4.390625q1.25 0 1.9375 0.625q0.6875 0.609375 0.6875 1.6875q0 0.53125 -0.3125 1.0q-0.296875 0.453125 -0.875 0.734375l0 0.015625q0.765625 0.171875 1.15625 0.734375q0.40625 0.546875 0.40625 1.375q0 1.203125 -0.828125 1.921875q-0.828125 0.71875 -2.15625 0.71875q-1.296875 0 -2.09375 -0.71875q-0.78125 -0.734375 -0.78125 -2.078125l0 -0.03125l1.046875 0q0.03125 0.921875 0.515625 1.421875q0.5 0.484375 1.3125 0.484375q0.8125 0 1.34375 -0.46875q0.546875 -0.46875 0.546875 -1.203125q0 -0.765625 -0.515625 -1.203125q-0.5 -0.453125 -1.375 -0.453125q-0.125 0 -0.28125 0.015625q-0.140625 0 -0.296875 0.015625l0 -0.875q0.125 0.015625 0.375 0.015625q0.609375 0 0.953125 -0.1875q0.359375 -0.203125 0.5625 -0.5q0.203125 -0.3125 0.203125 -0.734375q0 -0.640625 -0.421875 -1.015625q-0.40625 -0.375 -1.109375 -0.375q-0.765625 0 -1.203125 0.5q-0.421875 0.484375 -0.4375 1.375l-1.03125 0q0.0625 -1.34375 0.75 -2.0625q0.703125 -0.734375 1.921875 -0.734375z" fill-rule="nonzero"/><path fill="#d0fdf2" d="m154.03699 392.33963q0.65625 0 1.28125 0.34375q0.640625 0.328125 0.984375 0.96875q0.359375 0.625 0.359375 1.3125q0 1.078125 -0.78125 1.859375q-0.765625 0.765625 -1.84375 0.765625q-1.09375 0 -1.859375 -0.765625q-0.765625 -0.78125 -0.765625 -1.859375q0 -0.6875 0.34375 -1.3125q0.359375 -0.640625 0.984375 -0.96875q0.640625 -0.34375 1.296875 -0.34375z" fill-rule="nonzero"/><path fill="#d0fdf2" d="m174.22961 389.68338l0 7.734375l4.609375 0l0 0.984375l-5.765625 0l0 -8.71875l1.15625 0zm6.552429 0l0 1.28125l-1.03125 0l0 -1.28125l1.03125 0zm0 2.40625l0 6.3125l-1.03125 0l0 -6.3125l1.03125 0zm3.7111511 -0.140625q1.28125 0 1.890625 0.5q0.625 0.484375 0.6875 1.46875l-1.03125 0l0 -0.015625q-0.046875 -0.5 -0.453125 -0.765625q-0.390625 -0.28125 -1.015625 -0.28125q-0.625 0 -0.984375 0.21875q-0.359375 0.203125 -0.359375 0.59375q0 0.34375 0.3125 0.5625q0.328125 0.21875 0.96875 0.359375l0.96875 0.21875q0.921875 0.203125 1.390625 0.625q0.484375 0.421875 0.484375 1.125q0 0.9375 -0.71875 1.46875q-0.71875 0.53125 -1.96875 0.53125q-1.203125 0 -1.921875 -0.546875q-0.703125 -0.546875 -0.75 -1.59375l1.046875 0q0.015625 0.578125 0.453125 0.90625q0.453125 0.3125 1.234375 0.3125q0.75 0 1.140625 -0.234375q0.390625 -0.25 0.390625 -0.703125q0 -0.4375 -0.390625 -0.671875q-0.390625 -0.25 -1.578125 -0.484375q-1.1875 -0.234375 -1.671875 -0.65625q-0.484375 -0.4375 -0.484375 -1.140625q0 -0.828125 0.671875 -1.3125q0.671875 -0.484375 1.6875 -0.484375zm5.4453125 -1.75l0 1.890625l1.265625 0l0 0.921875l-1.265625 0l0 3.953125q0 0.46875 0.3125 0.5q0.3125 0.015625 0.65625 0.015625l0.296875 0l0 0.921875l-0.859375 0q-0.859375 0 -1.15625 -0.296875q-0.28125 -0.3125 -0.28125 -1.03125l0 -4.0625l-1.078125 0l0 -0.921875l1.078125 0l0 -1.890625l1.03125 0zm6.8899536 -0.515625l0 1.28125l-1.03125 0l0 -1.28125l1.03125 0zm0 2.40625l0 6.3125l-1.03125 0l0 -6.3125l1.03125 0zm3.0549011 -1.890625l0 1.890625l1.265625 0l0 0.921875l-1.265625 0l0 3.953125q0 0.46875 0.3125 0.5q0.3125 0.015625 0.65625 0.015625l0.296875 0l0 0.921875l-0.859375 0q-0.859375 0 -1.15625 -0.296875q-0.28125 -0.3125 -0.28125 -1.03125l0 -4.0625l-1.078125 0l0 -0.921875l1.078125 0l0 -1.890625l1.03125 0zm4.881668 1.75q1.359375 0 2.109375 0.984375q0.75 0.96875 0.75 2.5l0 0.125l-4.734375 0l0 0.078125q0 0.90625 0.53125 1.453125q0.53125 0.546875 1.4375 0.546875q0.6875 0 1.09375 -0.3125q0.421875 -0.328125 0.546875 -0.921875l1.015625 0q-0.203125 1.046875 -0.921875 1.609375q-0.703125 0.546875 -1.765625 0.546875q-1.0 0 -1.6875 -0.453125q-0.6875 -0.453125 -1.015625 -1.25q-0.328125 -0.8125 -0.328125 -1.640625q0 -1.40625 0.84375 -2.328125q0.84375 -0.9375 2.125 -0.9375zm-1.875 2.6875l3.625 0q-0.046875 -0.765625 -0.5625 -1.265625q-0.5 -0.515625 -1.265625 -0.515625q-0.71875 0 -1.21875 0.484375q-0.5 0.484375 -0.578125 1.296875zm8.835663 -2.6875q0.703125 0 1.140625 0.28125q0.4375 0.28125 0.59375 0.796875q0.328125 -0.515625 0.84375 -0.796875q0.515625 -0.28125 1.140625 -0.28125q1.078125 0 1.578125 0.484375q0.515625 0.484375 0.515625 1.296875l0 4.671875l-1.03125 0l0 -4.1875q0 -0.671875 -0.296875 -1.015625q-0.28125 -0.34375 -0.921875 -0.34375q-0.78125 0 -1.21875 0.453125q-0.4375 0.453125 -0.4375 1.125l0 3.96875l-1.03125 0l0 -4.1875q0 -0.671875 -0.296875 -1.015625q-0.28125 -0.34375 -0.890625 -0.34375q-0.484375 0 -0.875 0.25q-0.375 0.234375 -0.59375 0.65625q-0.21875 0.40625 -0.21875 0.6875l0 3.953125l-1.03125 0l0 -6.3125l0.96875 0l0 0.9375l0.03125 0q0.359375 -0.546875 0.859375 -0.8125q0.515625 -0.265625 1.171875 -0.265625zm13.378159 -2.203125q0.734375 0 1.265625 0.234375q0.53125 0.234375 0.890625 0.71875q0.734375 0.9375 0.734375 3.453125q0 1.265625 -0.1875 2.125q-0.171875 0.84375 -0.546875 1.328125q-0.34375 0.453125 -0.890625 0.703125q-0.53125 0.25 -1.265625 0.25q-1.4375 0 -2.15625 -0.96875q-0.71875 -0.96875 -0.71875 -3.4375q0 -2.484375 0.71875 -3.4375q0.71875 -0.96875 2.15625 -0.96875zm-1.78125 4.390625q0 1.046875 0.109375 1.734375q0.125 0.671875 0.34375 1.046875q0.453125 0.71875 1.328125 0.71875q0.96875 0 1.375 -0.828125q0.21875 -0.421875 0.3125 -1.0625q0.09375 -0.65625 0.09375 -1.5625q0 -0.3125 -0.015625 -0.6875q0 -0.375 -0.046875 -0.75q-0.046875 -0.390625 -0.15625 -0.765625q-0.09375 -0.375 -0.296875 -0.65625q-0.203125 -0.296875 -0.515625 -0.46875q-0.296875 -0.1875 -0.765625 -0.1875q-0.40625 0 -0.734375 0.171875q-0.328125 0.171875 -0.5625 0.53125q-0.46875 0.703125 -0.46875 2.765625zm10.286804 -4.390625l0 5.71875l1.171875 0l0 0.90625l-1.171875 0l0 2.03125l-0.96875 0l0 -2.03125l-3.796875 0l0 -1.0l3.9375 -5.625l0.828125 0zm-1.0 1.484375l-2.875 4.234375l2.90625 0l0 -4.234375l-0.03125 0z" fill-rule="nonzero"/><path fill="#000000" fill-opacity="0.0" d="m146.25029 207.0697l165.4803 0l0 43.622055l-165.4803 0z" fill-rule="evenodd"/><path fill="#ffffff" d="m158.48466 242.19182q-4.59375 0 -7.21875 -2.9375q-2.609375 -2.9375 -2.609375 -8.5l0 -6.25q0 -5.390625 2.609375 -8.40625q2.625 -3.03125 7.21875 -3.03125q4.640625 0 7.234375 3.03125q2.609375 3.015625 2.609375 8.40625l0 6.25q0 5.5625 -2.609375 8.5q-2.59375 2.9375 -7.234375 2.9375zm0 -3.046875q3.25 0 4.859375 -2.28125q1.625 -2.28125 1.625 -6.359375l0 -5.75q0 -3.84375 -1.625 -6.234375q-1.609375 -2.40625 -4.859375 -2.40625q-3.234375 0 -4.859375 2.40625q-1.609375 2.390625 -1.609375 6.234375l0 5.75q0 4.078125 1.609375 6.359375q1.625 2.28125 4.859375 2.28125zm0 -8.953125q-1.0 0 -1.78125 -0.78125q-0.765625 -0.78125 -0.765625 -1.78125q0 -1.046875 0.765625 -1.796875q0.78125 -0.765625 1.78125 -0.765625q1.046875 0 1.796875 0.765625q0.765625 0.75 0.765625 1.796875q0 1.0 -0.765625 1.78125q-0.75 0.78125 -1.796875 0.78125zm15.089355 11.4375l0 -3.125l7.921875 0l0 -23.390625l-0.484375 0l-4.59375 10.515625l-3.328125 0l0 -0.234375l5.234375 -11.765625l6.53125 0l0 24.875l7.921875 0l0 3.125l-19.203125 0z" fill-rule="nonzero"/><path fill="#013a3b" d="m365.6824 195.60194l0 0c0 -8.725174 7.0731506 -15.798325 15.79834 -15.798325l197.0333 0c4.1899414 0 8.208313 1.6644592 11.171082 4.627228c2.9627686 2.9627533 4.6271973 6.981125 4.6271973 11.171097l0 249.6632c0 8.725159 -7.07312 15.798309 -15.798279 15.798309l-197.0333 0c-8.725189 0 -15.79834 -7.0731506 -15.79834 -15.798309z" fill-rule="evenodd"/><path fill="#000000" fill-opacity="0.0" d="m394.36124 257.33054l171.3071 0l0 22.614166l-171.3071 0z" fill-rule="evenodd"/><path fill="#d0fdf2" d="m400.33 275.51614q-1.671875 0 -2.8125 -0.625q-1.140625 -0.625 -1.734375 -1.703125q-0.578125 -1.09375 -0.578125 -2.453125l0 -0.5625l1.5625 0l0 0.453125q0 1.703125 0.953125 2.578125q0.953125 0.859375 2.609375 0.859375q1.453125 0 2.1875 -0.65625q0.75 -0.65625 0.75 -1.703125l0 -0.109375q0 -1.03125 -0.765625 -1.5625q-0.75 -0.546875 -2.453125 -0.78125q-1.953125 -0.28125 -3.125 -1.109375q-1.15625 -0.84375 -1.15625 -2.515625l0 -0.21875q0 -1.03125 0.546875 -1.796875q0.546875 -0.78125 1.515625 -1.234375q0.96875 -0.453125 2.234375 -0.453125q1.484375 0 2.515625 0.546875q1.03125 0.546875 1.578125 1.4375q0.5625 0.875 0.5625 1.9375l0 0.78125l-1.578125 0l0 -0.671875q0 -0.859375 -0.4375 -1.421875q-0.421875 -0.5625 -1.125 -0.84375q-0.703125 -0.296875 -1.53125 -0.296875q-0.703125 0 -1.328125 0.25q-0.625 0.234375 -1.015625 0.6875q-0.375 0.453125 -0.375 1.125l0 0.109375q0 1.09375 0.875 1.59375q0.875 0.484375 2.625 0.75q2.0625 0.296875 3.03125 1.1875q0.96875 0.890625 0.96875 2.390625l0 0.21875q0 1.703125 -1.15625 2.765625q-1.140625 1.046875 -3.34375 1.046875zm10.652008 0q-1.203125 0 -2.1875 -0.546875q-0.984375 -0.5625 -1.5625 -1.609375q-0.578125 -1.0625 -0.578125 -2.59375l0 -0.296875q0 -1.5 0.578125 -2.5625q0.578125 -1.0625 1.5625 -1.609375q0.984375 -0.5625 2.15625 -0.5625q0.953125 0 1.71875 0.421875q0.78125 0.421875 1.21875 1.296875l0.234375 0l0 -1.453125l1.453125 0l0 7.34375q0 0.5625 0.5 0.5625l0.46875 0l0 1.34375l-0.984375 0q-0.578125 0 -1.015625 -0.375q-0.421875 -0.375 -0.421875 -1.1875l-0.234375 0q-0.4375 0.90625 -1.234375 1.375q-0.796875 0.453125 -1.671875 0.453125zm0.15625 -1.390625q1.296875 0 2.140625 -0.921875q0.84375 -0.9375 0.84375 -2.46875l0 -0.21875q0 -1.0 -0.390625 -1.75q-0.390625 -0.765625 -1.0625 -1.203125q-0.671875 -0.453125 -1.53125 -0.453125q-0.859375 0 -1.53125 0.421875q-0.671875 0.421875 -1.0625 1.1875q-0.390625 0.75 -0.390625 1.75l0 0.296875q0 1.578125 0.828125 2.46875q0.84375 0.890625 2.15625 0.890625zm6.948883 1.125l0 -9.25l1.453125 0l0 1.0l0.234375 0q0.234375 -0.65625 0.703125 -0.953125q0.46875 -0.3125 1.109375 -0.3125q0.671875 0 1.109375 0.359375q0.4375 0.34375 0.59375 0.90625l0.234375 0q0.625 -1.265625 2.015625 -1.265625q1.046875 0 1.609375 0.671875q0.5625 0.65625 0.5625 1.71875l0 7.125l-1.453125 0l0 -6.640625q0 -0.65625 -0.296875 -1.078125q-0.296875 -0.421875 -0.953125 -0.421875q-0.609375 0 -1.0 0.46875q-0.375 0.46875 -0.375 1.40625l0 6.265625l-1.453125 0l0 -6.71875q0 -0.609375 -0.34375 -1.015625q-0.328125 -0.40625 -0.890625 -0.40625q-0.671875 0 -1.046875 0.5q-0.359375 0.484375 -0.359375 1.265625l0 6.375l-1.453125 0zm11.808258 3.734375l0 -12.984375l1.46875 0l0 1.453125l0.21875 0q0.484375 -0.84375 1.34375 -1.28125q0.859375 -0.4375 1.859375 -0.4375q1.140625 0 2.109375 0.5625q0.96875 0.546875 1.546875 1.59375q0.59375 1.046875 0.59375 2.546875l0 0.375q0 1.515625 -0.578125 2.5625q-0.578125 1.03125 -1.5625 1.59375q-0.96875 0.546875 -2.140625 0.546875q-0.890625 0 -1.796875 -0.421875q-0.890625 -0.421875 -1.375 -1.265625l-0.21875 0l0 5.15625l-1.46875 0zm4.5625 -4.859375q1.3125 0 2.203125 -0.890625q0.890625 -0.890625 0.890625 -2.421875l0 -0.375q0 -0.984375 -0.421875 -1.734375q-0.40625 -0.75 -1.109375 -1.171875q-0.6875 -0.421875 -1.5625 -0.421875q-0.859375 0 -1.5625 0.453125q-0.703125 0.4375 -1.125 1.203125q-0.40625 0.75 -0.40625 1.75l0 0.21875q0 1.03125 0.40625 1.796875q0.40625 0.765625 1.109375 1.1875q0.71875 0.40625 1.578125 0.40625zm7.198883 1.125l0 -1.34375l3.359375 0l0 -10.375l-3.25 0l0 -1.34375l4.703125 0l0 11.71875l3.359375 0l0 1.34375l-8.171875 0zm15.542633 0.265625q-1.328125 0 -2.34375 -0.609375q-1.015625 -0.609375 -1.59375 -1.671875q-0.578125 -1.078125 -0.578125 -2.5l0 -0.453125q0 -1.296875 0.59375 -2.328125q0.59375 -1.03125 1.625 -1.625q1.046875 -0.59375 2.328125 -0.59375q1.140625 0 1.96875 0.421875q0.828125 0.40625 1.359375 1.046875q0.53125 0.625 0.78125 1.34375q0.265625 0.71875 0.265625 1.328125l0 1.203125l-7.46875 0q0.0625 1.359375 0.859375 2.203125q0.8125 0.84375 2.234375 0.84375q1.328125 0 1.96875 -0.546875q0.65625 -0.5625 0.90625 -1.34375l1.375 0.359375q-0.390625 1.296875 -1.453125 2.109375q-1.046875 0.8125 -2.828125 0.8125zm-3.03125 -5.78125l5.96875 0q-0.03125 -0.8125 -0.453125 -1.390625q-0.421875 -0.59375 -1.078125 -0.90625q-0.640625 -0.328125 -1.375 -0.328125q-1.234375 0 -2.078125 0.75q-0.828125 0.75 -0.984375 1.875zm25.038391 5.515625l0 -11.609375l-3.796875 0l0 -1.453125l9.171875 0l0 1.453125l-3.796875 0l0 11.609375l-1.578125 0zm12.292633 -10.703125q-0.515625 0 -0.90625 -0.390625q-0.390625 -0.40625 -0.390625 -0.921875q0 -0.546875 0.390625 -0.921875q0.390625 -0.390625 0.90625 -0.390625q0.546875 0 0.921875 0.390625q0.390625 0.375 0.390625 0.921875q0 0.515625 -0.390625 0.921875q-0.375 0.390625 -0.921875 0.390625zm-3.953125 10.703125l0 -1.34375l3.25 0l0 -6.5625l-2.90625 0l0 -1.34375l4.359375 0l0 7.90625l3.03125 0l0 1.34375l-7.734375 0zm15.230133 0q-0.640625 0 -1.046875 -0.40625q-0.390625 -0.421875 -0.390625 -1.046875l0 -6.453125l-2.90625 0l0 -1.34375l2.90625 0l0 -3.8125l1.453125 0l0 3.8125l3.578125 0l0 1.34375l-3.578125 0l0 6.0q0 0.5625 0.5 0.5625l2.640625 0l0 1.34375l-3.15625 0zm7.386383 0l0 -1.34375l3.3594055 0l0 -10.375l-3.2500305 0l0 -1.34375l4.7031555 0l0 11.71875l3.359375 0l0 1.34375l-8.1719055 0zm15.542633 0.265625q-1.328125 0 -2.34375 -0.609375q-1.015625 -0.609375 -1.59375 -1.671875q-0.578125 -1.078125 -0.578125 -2.5l0 -0.453125q0 -1.296875 0.59375 -2.328125q0.59375 -1.03125 1.625 -1.625q1.046875 -0.59375 2.328125 -0.59375q1.140625 0 1.96875 0.421875q0.828125 0.40625 1.359375 1.046875q0.53125 0.625 0.78125 1.34375q0.265625 0.71875 0.265625 1.328125l0 1.203125l-7.46875 0q0.0625 1.359375 0.859375 2.203125q0.8125 0.84375 2.234375 0.84375q1.328125 0 1.96875 -0.546875q0.65625 -0.5625 0.90625 -1.34375l1.375 0.359375q-0.390625 1.296875 -1.453125 2.109375q-1.046875 0.8125 -2.828125 0.8125zm-3.03125 -5.78125l5.96875 0q-0.03125 -0.8125 -0.453125 -1.390625q-0.421875 -0.59375 -1.078125 -0.90625q-0.640625 -0.328125 -1.375 -0.328125q-1.234375 0 -2.078125 0.75q-0.828125 0.75 -0.984375 1.875z" fill-rule="nonzero"/><path fill="#000000" fill-opacity="0.0" d="m394.34406 333.90225l171.30707 0l0 68.09448l-171.30707 0z" fill-rule="evenodd"/><path fill="#d0fdf2" d="m405.06082 339.56607q0.65625 0 1.28125 0.34375q0.640625 0.328125 0.984375 0.96875q0.359375 0.625 0.359375 1.3125q0 1.078125 -0.78125 1.859375q-0.765625 0.765625 -1.84375 0.765625q-1.09375 0 -1.859375 -0.765625q-0.765625 -0.78125 -0.765625 -1.859375q0 -0.6875 0.34375 -1.3125q0.359375 -0.640625 0.984375 -0.96875q0.640625 -0.34375 1.296875 -0.34375z" fill-rule="nonzero"/><path fill="#d0fdf2" d="m425.25342 336.90982l0 7.734375l4.609375 0l0 0.984375l-5.765625 0l0 -8.71875l1.15625 0zm6.552429 0l0 1.28125l-1.03125 0l0 -1.28125l1.03125 0zm0 2.40625l0 6.3125l-1.03125 0l0 -6.3125l1.03125 0zm3.7111511 -0.140625q1.28125 0 1.890625 0.5q0.625 0.484375 0.6875 1.46875l-1.03125 0l0 -0.015625q-0.046875 -0.5 -0.453125 -0.765625q-0.390625 -0.28125 -1.015625 -0.28125q-0.625 0 -0.984375 0.21875q-0.359375 0.203125 -0.359375 0.59375q0 0.34375 0.3125 0.5625q0.328125 0.21875 0.96875 0.359375l0.96875 0.21875q0.921875 0.203125 1.390625 0.625q0.484375 0.421875 0.484375 1.125q0 0.9375 -0.71875 1.46875q-0.71875 0.53125 -1.96875 0.53125q-1.203125 0 -1.921875 -0.546875q-0.703125 -0.546875 -0.75 -1.59375l1.046875 0q0.015625 0.578125 0.453125 0.90625q0.453125 0.3125 1.234375 0.3125q0.75 0 1.140625 -0.234375q0.390625 -0.25 0.390625 -0.703125q0 -0.4375 -0.390625 -0.671875q-0.390625 -0.25 -1.578125 -0.484375q-1.1875 -0.234375 -1.671875 -0.65625q-0.484375 -0.4375 -0.484375 -1.140625q0 -0.828125 0.671875 -1.3125q0.671875 -0.484375 1.6875 -0.484375zm5.4453125 -1.75l0 1.890625l1.265625 0l0 0.921875l-1.265625 0l0 3.953125q0 0.46875 0.3125 0.5q0.3125 0.015625 0.65625 0.015625l0.296875 0l0 0.921875l-0.859375 0q-0.859375 0 -1.15625 -0.296875q-0.28125 -0.3125 -0.28125 -1.03125l0 -4.0625l-1.078125 0l0 -0.921875l1.078125 0l0 -1.890625l1.03125 0zm6.8899536 -0.515625l0 1.28125l-1.03125 0l0 -1.28125l1.03125 0zm0 2.40625l0 6.3125l-1.03125 0l0 -6.3125l1.03125 0zm3.0549011 -1.890625l0 1.890625l1.265625 0l0 0.921875l-1.265625 0l0 3.953125q0 0.46875 0.3125 0.5q0.3125 0.015625 0.65625 0.015625l0.296875 0l0 0.921875l-0.859375 0q-0.859375 0 -1.15625 -0.296875q-0.28125 -0.3125 -0.28125 -1.03125l0 -4.0625l-1.078125 0l0 -0.921875l1.078125 0l0 -1.890625l1.03125 0zm4.8816833 1.75q1.359375 0 2.109375 0.984375q0.75 0.96875 0.75 2.5l0 0.125l-4.734375 0l0 0.078125q0 0.90625 0.53125 1.453125q0.53125 0.546875 1.4375 0.546875q0.6875 0 1.09375 -0.3125q0.421875 -0.328125 0.546875 -0.921875l1.015625 0q-0.203125 1.046875 -0.921875 1.609375q-0.703125 0.546875 -1.765625 0.546875q-1.0 0 -1.6875 -0.453125q-0.6875 -0.453125 -1.015625 -1.25q-0.328125 -0.8125 -0.328125 -1.640625q0 -1.40625 0.84375 -2.328125q0.84375 -0.9375 2.125 -0.9375zm-1.875 2.6875l3.625 0q-0.046875 -0.765625 -0.5625 -1.265625q-0.5 -0.515625 -1.265625 -0.515625q-0.71875 0 -1.21875 0.484375q-0.5 0.484375 -0.578125 1.296875zm8.835663 -2.6875q0.703125 0 1.140625 0.28125q0.4375 0.28125 0.59375 0.796875q0.328125 -0.515625 0.84375 -0.796875q0.515625 -0.28125 1.140625 -0.28125q1.078125 0 1.578125 0.484375q0.515625 0.484375 0.515625 1.296875l0 4.671875l-1.03125 0l0 -4.1875q0 -0.671875 -0.296875 -1.015625q-0.28125 -0.34375 -0.921875 -0.34375q-0.78125 0 -1.21875 0.453125q-0.4375 0.453125 -0.4375 1.125l0 3.96875l-1.03125 0l0 -4.1875q0 -0.671875 -0.296875 -1.015625q-0.28125 -0.34375 -0.890625 -0.34375q-0.484375 0 -0.875 0.25q-0.375 0.234375 -0.59375 0.65625q-0.21875 0.40625 -0.21875 0.6875l0 3.953125l-1.03125 0l0 -6.3125l0.96875 0l0 0.9375l0.03125 0q0.359375 -0.546875 0.859375 -0.8125q0.515625 -0.265625 1.171875 -0.265625zm13.378143 -2.203125q0.734375 0 1.265625 0.234375q0.53125 0.234375 0.890625 0.71875q0.734375 0.9375 0.734375 3.453125q0 1.265625 -0.1875 2.125q-0.171875 0.84375 -0.546875 1.328125q-0.34375 0.453125 -0.890625 0.703125q-0.53125 0.25 -1.265625 0.25q-1.4375 0 -2.15625 -0.96875q-0.71875 -0.96875 -0.71875 -3.4375q0 -2.484375 0.71875 -3.4375q0.71875 -0.96875 2.15625 -0.96875zm-1.78125 4.390625q0 1.046875 0.109375 1.734375q0.125 0.671875 0.34375 1.046875q0.453125 0.71875 1.328125 0.71875q0.96875 0 1.375 -0.828125q0.21875 -0.421875 0.3125 -1.0625q0.09375 -0.65625 0.09375 -1.5625q0 -0.3125 -0.015625 -0.6875q0 -0.375 -0.046875 -0.75q-0.046875 -0.390625 -0.15625 -0.765625q-0.09375 -0.375 -0.296875 -0.65625q-0.203125 -0.296875 -0.515625 -0.46875q-0.296875 -0.1875 -0.765625 -0.1875q-0.40625 0 -0.734375 0.171875q-0.328125 0.171875 -0.5625 0.53125q-0.46875 0.703125 -0.46875 2.765625zm9.521179 -4.390625l0 8.65625l-1.03125 0l0 -6.203125l-2.25 0l0 -0.828125l0.03125 0q1.09375 0 1.6875 -0.390625q0.609375 -0.390625 0.765625 -1.234375l0.796875 0z" fill-rule="nonzero"/><path fill="#d0fdf2" d="m405.06082 357.15704q0.65625 0 1.28125 0.34375q0.640625 0.328125 0.984375 0.96875q0.359375 0.625 0.359375 1.3125q0 1.078125 -0.78125 1.859375q-0.765625 0.765625 -1.84375 0.765625q-1.09375 0 -1.859375 -0.765625q-0.765625 -0.78125 -0.765625 -1.859375q0 -0.6875 0.34375 -1.3125q0.359375 -0.640625 0.984375 -0.96875q0.640625 -0.34375 1.296875 -0.34375z" fill-rule="nonzero"/><path fill="#d0fdf2" d="m425.25342 354.5008l0 7.734375l4.609375 0l0 0.984375l-5.765625 0l0 -8.71875l1.15625 0zm6.552429 0l0 1.28125l-1.03125 0l0 -1.28125l1.03125 0zm0 2.40625l0 6.3125l-1.03125 0l0 -6.3125l1.03125 0zm3.7111511 -0.140625q1.28125 0 1.890625 0.5q0.625 0.484375 0.6875 1.46875l-1.03125 0l0 -0.015625q-0.046875 -0.5 -0.453125 -0.765625q-0.390625 -0.28125 -1.015625 -0.28125q-0.625 0 -0.984375 0.21875q-0.359375 0.203125 -0.359375 0.59375q0 0.34375 0.3125 0.5625q0.328125 0.21875 0.96875 0.359375l0.96875 0.21875q0.921875 0.203125 1.390625 0.625q0.484375 0.421875 0.484375 1.125q0 0.9375 -0.71875 1.46875q-0.71875 0.53125 -1.96875 0.53125q-1.203125 0 -1.921875 -0.546875q-0.703125 -0.546875 -0.75 -1.59375l1.046875 0q0.015625 0.578125 0.453125 0.90625q0.453125 0.3125 1.234375 0.3125q0.75 0 1.140625 -0.234375q0.390625 -0.25 0.390625 -0.703125q0 -0.4375 -0.390625 -0.671875q-0.390625 -0.25 -1.578125 -0.484375q-1.1875 -0.234375 -1.671875 -0.65625q-0.484375 -0.4375 -0.484375 -1.140625q0 -0.828125 0.671875 -1.3125q0.671875 -0.484375 1.6875 -0.484375zm5.4453125 -1.75l0 1.890625l1.265625 0l0 0.921875l-1.265625 0l0 3.953125q0 0.46875 0.3125 0.5q0.3125 0.015625 0.65625 0.015625l0.296875 0l0 0.921875l-0.859375 0q-0.859375 0 -1.15625 -0.296875q-0.28125 -0.3125 -0.28125 -1.03125l0 -4.0625l-1.078125 0l0 -0.921875l1.078125 0l0 -1.890625l1.03125 0zm6.8899536 -0.515625l0 1.28125l-1.03125 0l0 -1.28125l1.03125 0zm0 2.40625l0 6.3125l-1.03125 0l0 -6.3125l1.03125 0zm3.0549011 -1.890625l0 1.890625l1.265625 0l0 0.921875l-1.265625 0l0 3.953125q0 0.46875 0.3125 0.5q0.3125 0.015625 0.65625 0.015625l0.296875 0l0 0.921875l-0.859375 0q-0.859375 0 -1.15625 -0.296875q-0.28125 -0.3125 -0.28125 -1.03125l0 -4.0625l-1.078125 0l0 -0.921875l1.078125 0l0 -1.890625l1.03125 0zm4.8816833 1.75q1.359375 0 2.109375 0.984375q0.75 0.96875 0.75 2.5l0 0.125l-4.734375 0l0 0.078125q0 0.90625 0.53125 1.453125q0.53125 0.546875 1.4375 0.546875q0.6875 0 1.09375 -0.3125q0.421875 -0.328125 0.546875 -0.921875l1.015625 0q-0.203125 1.046875 -0.921875 1.609375q-0.703125 0.546875 -1.765625 0.546875q-1.0 0 -1.6875 -0.453125q-0.6875 -0.453125 -1.015625 -1.25q-0.328125 -0.8125 -0.328125 -1.640625q0 -1.40625 0.84375 -2.328125q0.84375 -0.9375 2.125 -0.9375zm-1.875 2.6875l3.625 0q-0.046875 -0.765625 -0.5625 -1.265625q-0.5 -0.515625 -1.265625 -0.515625q-0.71875 0 -1.21875 0.484375q-0.5 0.484375 -0.578125 1.296875zm8.835663 -2.6875q0.703125 0 1.140625 0.28125q0.4375 0.28125 0.59375 0.796875q0.328125 -0.515625 0.84375 -0.796875q0.515625 -0.28125 1.140625 -0.28125q1.078125 0 1.578125 0.484375q0.515625 0.484375 0.515625 1.296875l0 4.671875l-1.03125 0l0 -4.1875q0 -0.671875 -0.296875 -1.015625q-0.28125 -0.34375 -0.921875 -0.34375q-0.78125 0 -1.21875 0.453125q-0.4375 0.453125 -0.4375 1.125l0 3.96875l-1.03125 0l0 -4.1875q0 -0.671875 -0.296875 -1.015625q-0.28125 -0.34375 -0.890625 -0.34375q-0.484375 0 -0.875 0.25q-0.375 0.234375 -0.59375 0.65625q-0.21875 0.40625 -0.21875 0.6875l0 3.953125l-1.03125 0l0 -6.3125l0.96875 0l0 0.9375l0.03125 0q0.359375 -0.546875 0.859375 -0.8125q0.515625 -0.265625 1.171875 -0.265625zm13.378143 -2.203125q0.734375 0 1.265625 0.234375q0.53125 0.234375 0.890625 0.71875q0.734375 0.9375 0.734375 3.453125q0 1.265625 -0.1875 2.125q-0.171875 0.84375 -0.546875 1.328125q-0.34375 0.453125 -0.890625 0.703125q-0.53125 0.25 -1.265625 0.25q-1.4375 0 -2.15625 -0.96875q-0.71875 -0.96875 -0.71875 -3.4375q0 -2.484375 0.71875 -3.4375q0.71875 -0.96875 2.15625 -0.96875zm-1.78125 4.390625q0 1.046875 0.109375 1.734375q0.125 0.671875 0.34375 1.046875q0.453125 0.71875 1.328125 0.71875q0.96875 0 1.375 -0.828125q0.21875 -0.421875 0.3125 -1.0625q0.09375 -0.65625 0.09375 -1.5625q0 -0.3125 -0.015625 -0.6875q0 -0.375 -0.046875 -0.75q-0.046875 -0.390625 -0.15625 -0.765625q-0.09375 -0.375 -0.296875 -0.65625q-0.203125 -0.296875 -0.515625 -0.46875q-0.296875 -0.1875 -0.765625 -0.1875q-0.40625 0 -0.734375 0.171875q-0.328125 0.171875 -0.5625 0.53125q-0.46875 0.703125 -0.46875 2.765625zm8.489929 -4.390625q1.203125 0 1.953125 0.6875q0.765625 0.671875 0.765625 1.8125q0 0.890625 -0.5 1.609375q-0.5 0.71875 -2.125 1.65625q-0.984375 0.578125 -1.40625 1.03125q-0.40625 0.453125 -0.5 0.9375l4.4375 0l0 0.921875l-5.640625 0q0.078125 -1.078125 0.546875 -1.890625q0.46875 -0.8125 1.75 -1.578125q1.515625 -0.921875 1.921875 -1.4375q0.40625 -0.53125 0.40625 -1.265625q0 -0.671875 -0.484375 -1.109375q-0.46875 -0.453125 -1.171875 -0.453125q-0.78125 0 -1.234375 0.578125q-0.453125 0.578125 -0.453125 1.484375l0 0.078125l-1.046875 0l0 -0.203125q0 -1.296875 0.765625 -2.078125q0.765625 -0.78125 2.015625 -0.78125z" fill-rule="nonzero"/><path fill="#d0fdf2" d="m405.06082 374.74802q0.65625 0 1.28125 0.34375q0.640625 0.328125 0.984375 0.96875q0.359375 0.625 0.359375 1.3125q0 1.078125 -0.78125 1.859375q-0.765625 0.765625 -1.84375 0.765625q-1.09375 0 -1.859375 -0.765625q-0.765625 -0.78125 -0.765625 -1.859375q0 -0.6875 0.34375 -1.3125q0.359375 -0.640625 0.984375 -0.96875q0.640625 -0.34375 1.296875 -0.34375z" fill-rule="nonzero"/><path fill="#d0fdf2" d="m425.25342 372.09177l0 7.734375l4.609375 0l0 0.984375l-5.765625 0l0 -8.71875l1.15625 0zm6.552429 0l0 1.28125l-1.03125 0l0 -1.28125l1.03125 0zm0 2.40625l0 6.3125l-1.03125 0l0 -6.3125l1.03125 0zm3.7111511 -0.140625q1.28125 0 1.890625 0.5q0.625 0.484375 0.6875 1.46875l-1.03125 0l0 -0.015625q-0.046875 -0.5 -0.453125 -0.765625q-0.390625 -0.28125 -1.015625 -0.28125q-0.625 0 -0.984375 0.21875q-0.359375 0.203125 -0.359375 0.59375q0 0.34375 0.3125 0.5625q0.328125 0.21875 0.96875 0.359375l0.96875 0.21875q0.921875 0.203125 1.390625 0.625q0.484375 0.421875 0.484375 1.125q0 0.9375 -0.71875 1.46875q-0.71875 0.53125 -1.96875 0.53125q-1.203125 0 -1.921875 -0.546875q-0.703125 -0.546875 -0.75 -1.59375l1.046875 0q0.015625 0.578125 0.453125 0.90625q0.453125 0.3125 1.234375 0.3125q0.75 0 1.140625 -0.234375q0.390625 -0.25 0.390625 -0.703125q0 -0.4375 -0.390625 -0.671875q-0.390625 -0.25 -1.578125 -0.484375q-1.1875 -0.234375 -1.671875 -0.65625q-0.484375 -0.4375 -0.484375 -1.140625q0 -0.828125 0.671875 -1.3125q0.671875 -0.484375 1.6875 -0.484375zm5.4453125 -1.75l0 1.890625l1.265625 0l0 0.921875l-1.265625 0l0 3.953125q0 0.46875 0.3125 0.5q0.3125 0.015625 0.65625 0.015625l0.296875 0l0 0.921875l-0.859375 0q-0.859375 0 -1.15625 -0.296875q-0.28125 -0.3125 -0.28125 -1.03125l0 -4.0625l-1.078125 0l0 -0.921875l1.078125 0l0 -1.890625l1.03125 0zm6.8899536 -0.515625l0 1.28125l-1.03125 0l0 -1.28125l1.03125 0zm0 2.40625l0 6.3125l-1.03125 0l0 -6.3125l1.03125 0zm3.0549011 -1.890625l0 1.890625l1.265625 0l0 0.921875l-1.265625 0l0 3.953125q0 0.46875 0.3125 0.5q0.3125 0.015625 0.65625 0.015625l0.296875 0l0 0.921875l-0.859375 0q-0.859375 0 -1.15625 -0.296875q-0.28125 -0.3125 -0.28125 -1.03125l0 -4.0625l-1.078125 0l0 -0.921875l1.078125 0l0 -1.890625l1.03125 0zm4.8816833 1.75q1.359375 0 2.109375 0.984375q0.75 0.96875 0.75 2.5l0 0.125l-4.734375 0l0 0.078125q0 0.90625 0.53125 1.453125q0.53125 0.546875 1.4375 0.546875q0.6875 0 1.09375 -0.3125q0.421875 -0.328125 0.546875 -0.921875l1.015625 0q-0.203125 1.046875 -0.921875 1.609375q-0.703125 0.546875 -1.765625 0.546875q-1.0 0 -1.6875 -0.453125q-0.6875 -0.453125 -1.015625 -1.25q-0.328125 -0.8125 -0.328125 -1.640625q0 -1.40625 0.84375 -2.328125q0.84375 -0.9375 2.125 -0.9375zm-1.875 2.6875l3.625 0q-0.046875 -0.765625 -0.5625 -1.265625q-0.5 -0.515625 -1.265625 -0.515625q-0.71875 0 -1.21875 0.484375q-0.5 0.484375 -0.578125 1.296875zm8.835663 -2.6875q0.703125 0 1.140625 0.28125q0.4375 0.28125 0.59375 0.796875q0.328125 -0.515625 0.84375 -0.796875q0.515625 -0.28125 1.140625 -0.28125q1.078125 0 1.578125 0.484375q0.515625 0.484375 0.515625 1.296875l0 4.671875l-1.03125 0l0 -4.1875q0 -0.671875 -0.296875 -1.015625q-0.28125 -0.34375 -0.921875 -0.34375q-0.78125 0 -1.21875 0.453125q-0.4375 0.453125 -0.4375 1.125l0 3.96875l-1.03125 0l0 -4.1875q0 -0.671875 -0.296875 -1.015625q-0.28125 -0.34375 -0.890625 -0.34375q-0.484375 0 -0.875 0.25q-0.375 0.234375 -0.59375 0.65625q-0.21875 0.40625 -0.21875 0.6875l0 3.953125l-1.03125 0l0 -6.3125l0.96875 0l0 0.9375l0.03125 0q0.359375 -0.546875 0.859375 -0.8125q0.515625 -0.265625 1.171875 -0.265625zm13.378143 -2.203125q0.734375 0 1.265625 0.234375q0.53125 0.234375 0.890625 0.71875q0.734375 0.9375 0.734375 3.453125q0 1.265625 -0.1875 2.125q-0.171875 0.84375 -0.546875 1.328125q-0.34375 0.453125 -0.890625 0.703125q-0.53125 0.25 -1.265625 0.25q-1.4375 0 -2.15625 -0.96875q-0.71875 -0.96875 -0.71875 -3.4375q0 -2.484375 0.71875 -3.4375q0.71875 -0.96875 2.15625 -0.96875zm-1.78125 4.390625q0 1.046875 0.109375 1.734375q0.125 0.671875 0.34375 1.046875q0.453125 0.71875 1.328125 0.71875q0.96875 0 1.375 -0.828125q0.21875 -0.421875 0.3125 -1.0625q0.09375 -0.65625 0.09375 -1.5625q0 -0.3125 -0.015625 -0.6875q0 -0.375 -0.046875 -0.75q-0.046875 -0.390625 -0.15625 -0.765625q-0.09375 -0.375 -0.296875 -0.65625q-0.203125 -0.296875 -0.515625 -0.46875q-0.296875 -0.1875 -0.765625 -0.1875q-0.40625 0 -0.734375 0.171875q-0.328125 0.171875 -0.5625 0.53125q-0.46875 0.703125 -0.46875 2.765625zm8.396179 -4.390625q1.25 0 1.9375 0.625q0.6875 0.609375 0.6875 1.6875q0 0.53125 -0.3125 1.0q-0.296875 0.453125 -0.875 0.734375l0 0.015625q0.765625 0.171875 1.15625 0.734375q0.40625 0.546875 0.40625 1.375q0 1.203125 -0.828125 1.921875q-0.828125 0.71875 -2.15625 0.71875q-1.296875 0 -2.09375 -0.71875q-0.78125 -0.734375 -0.78125 -2.078125l0 -0.03125l1.046875 0q0.03125 0.921875 0.515625 1.421875q0.5 0.484375 1.3125 0.484375q0.8125 0 1.34375 -0.46875q0.546875 -0.46875 0.546875 -1.203125q0 -0.765625 -0.515625 -1.203125q-0.5 -0.453125 -1.375 -0.453125q-0.125 0 -0.28125 0.015625q-0.140625 0 -0.296875 0.015625l0 -0.875q0.125 0.015625 0.375 0.015625q0.609375 0 0.953125 -0.1875q0.359375 -0.203125 0.5625 -0.5q0.203125 -0.3125 0.203125 -0.734375q0 -0.640625 -0.421875 -1.015625q-0.40625 -0.375 -1.109375 -0.375q-0.765625 0 -1.203125 0.5q-0.421875 0.484375 -0.4375 1.375l-1.03125 0q0.0625 -1.34375 0.75 -2.0625q0.703125 -0.734375 1.921875 -0.734375z" fill-rule="nonzero"/><path fill="#d0fdf2" d="m405.06082 392.339q0.65625 0 1.28125 0.34375q0.640625 0.328125 0.984375 0.96875q0.359375 0.625 0.359375 1.3125q0 1.078125 -0.78125 1.859375q-0.765625 0.765625 -1.84375 0.765625q-1.09375 0 -1.859375 -0.765625q-0.765625 -0.78125 -0.765625 -1.859375q0 -0.6875 0.34375 -1.3125q0.359375 -0.640625 0.984375 -0.96875q0.640625 -0.34375 1.296875 -0.34375z" fill-rule="nonzero"/><path fill="#d0fdf2" d="m425.25342 389.68274l0 7.734375l4.609375 0l0 0.984375l-5.765625 0l0 -8.71875l1.15625 0zm6.552429 0l0 1.28125l-1.03125 0l0 -1.28125l1.03125 0zm0 2.40625l0 6.3125l-1.03125 0l0 -6.3125l1.03125 0zm3.7111511 -0.140625q1.28125 0 1.890625 0.5q0.625 0.484375 0.6875 1.46875l-1.03125 0l0 -0.015625q-0.046875 -0.5 -0.453125 -0.765625q-0.390625 -0.28125 -1.015625 -0.28125q-0.625 0 -0.984375 0.21875q-0.359375 0.203125 -0.359375 0.59375q0 0.34375 0.3125 0.5625q0.328125 0.21875 0.96875 0.359375l0.96875 0.21875q0.921875 0.203125 1.390625 0.625q0.484375 0.421875 0.484375 1.125q0 0.9375 -0.71875 1.46875q-0.71875 0.53125 -1.96875 0.53125q-1.203125 0 -1.921875 -0.546875q-0.703125 -0.546875 -0.75 -1.59375l1.046875 0q0.015625 0.578125 0.453125 0.90625q0.453125 0.3125 1.234375 0.3125q0.75 0 1.140625 -0.234375q0.390625 -0.25 0.390625 -0.703125q0 -0.4375 -0.390625 -0.671875q-0.390625 -0.25 -1.578125 -0.484375q-1.1875 -0.234375 -1.671875 -0.65625q-0.484375 -0.4375 -0.484375 -1.140625q0 -0.828125 0.671875 -1.3125q0.671875 -0.484375 1.6875 -0.484375zm5.4453125 -1.75l0 1.890625l1.265625 0l0 0.921875l-1.265625 0l0 3.953125q0 0.46875 0.3125 0.5q0.3125 0.015625 0.65625 0.015625l0.296875 0l0 0.921875l-0.859375 0q-0.859375 0 -1.15625 -0.296875q-0.28125 -0.3125 -0.28125 -1.03125l0 -4.0625l-1.078125 0l0 -0.921875l1.078125 0l0 -1.890625l1.03125 0zm6.8899536 -0.515625l0 1.28125l-1.03125 0l0 -1.28125l1.03125 0zm0 2.40625l0 6.3125l-1.03125 0l0 -6.3125l1.03125 0zm3.0549011 -1.890625l0 1.890625l1.265625 0l0 0.921875l-1.265625 0l0 3.953125q0 0.46875 0.3125 0.5q0.3125 0.015625 0.65625 0.015625l0.296875 0l0 0.921875l-0.859375 0q-0.859375 0 -1.15625 -0.296875q-0.28125 -0.3125 -0.28125 -1.03125l0 -4.0625l-1.078125 0l0 -0.921875l1.078125 0l0 -1.890625l1.03125 0zm4.8816833 1.75q1.359375 0 2.109375 0.984375q0.75 0.96875 0.75 2.5l0 0.125l-4.734375 0l0 0.078125q0 0.90625 0.53125 1.453125q0.53125 0.546875 1.4375 0.546875q0.6875 0 1.09375 -0.3125q0.421875 -0.328125 0.546875 -0.921875l1.015625 0q-0.203125 1.046875 -0.921875 1.609375q-0.703125 0.546875 -1.765625 0.546875q-1.0 0 -1.6875 -0.453125q-0.6875 -0.453125 -1.015625 -1.25q-0.328125 -0.8125 -0.328125 -1.640625q0 -1.40625 0.84375 -2.328125q0.84375 -0.9375 2.125 -0.9375zm-1.875 2.6875l3.625 0q-0.046875 -0.765625 -0.5625 -1.265625q-0.5 -0.515625 -1.265625 -0.515625q-0.71875 0 -1.21875 0.484375q-0.5 0.484375 -0.578125 1.296875zm8.835663 -2.6875q0.703125 0 1.140625 0.28125q0.4375 0.28125 0.59375 0.796875q0.328125 -0.515625 0.84375 -0.796875q0.515625 -0.28125 1.140625 -0.28125q1.078125 0 1.578125 0.484375q0.515625 0.484375 0.515625 1.296875l0 4.671875l-1.03125 0l0 -4.1875q0 -0.671875 -0.296875 -1.015625q-0.28125 -0.34375 -0.921875 -0.34375q-0.78125 0 -1.21875 0.453125q-0.4375 0.453125 -0.4375 1.125l0 3.96875l-1.03125 0l0 -4.1875q0 -0.671875 -0.296875 -1.015625q-0.28125 -0.34375 -0.890625 -0.34375q-0.484375 0 -0.875 0.25q-0.375 0.234375 -0.59375 0.65625q-0.21875 0.40625 -0.21875 0.6875l0 3.953125l-1.03125 0l0 -6.3125l0.96875 0l0 0.9375l0.03125 0q0.359375 -0.546875 0.859375 -0.8125q0.515625 -0.265625 1.171875 -0.265625zm13.378143 -2.203125q0.734375 0 1.265625 0.234375q0.53125 0.234375 0.890625 0.71875q0.734375 0.9375 0.734375 3.453125q0 1.265625 -0.1875 2.125q-0.171875 0.84375 -0.546875 1.328125q-0.34375 0.453125 -0.890625 0.703125q-0.53125 0.25 -1.265625 0.25q-1.4375 0 -2.15625 -0.96875q-0.71875 -0.96875 -0.71875 -3.4375q0 -2.484375 0.71875 -3.4375q0.71875 -0.96875 2.15625 -0.96875zm-1.78125 4.390625q0 1.046875 0.109375 1.734375q0.125 0.671875 0.34375 1.046875q0.453125 0.71875 1.328125 0.71875q0.96875 0 1.375 -0.828125q0.21875 -0.421875 0.3125 -1.0625q0.09375 -0.65625 0.09375 -1.5625q0 -0.3125 -0.015625 -0.6875q0 -0.375 -0.046875 -0.75q-0.046875 -0.390625 -0.15625 -0.765625q-0.09375 -0.375 -0.296875 -0.65625q-0.203125 -0.296875 -0.515625 -0.46875q-0.296875 -0.1875 -0.765625 -0.1875q-0.40625 0 -0.734375 0.171875q-0.328125 0.171875 -0.5625 0.53125q-0.46875 0.703125 -0.46875 2.765625zm10.286804 -4.390625l0 5.71875l1.171875 0l0 0.90625l-1.171875 0l0 2.03125l-0.96875 0l0 -2.03125l-3.796875 0l0 -1.0l3.9375 -5.625l0.828125 0zm-1.0 1.484375l-2.875 4.234375l2.90625 0l0 -4.234375l-0.03125 0z" fill-rule="nonzero"/><path fill="#000000" fill-opacity="0.0" d="m394.36124 207.0697l171.3071 0l0 43.622055l-171.3071 0z" fill-rule="evenodd"/><path fill="#ffffff" d="m406.5956 242.19182q-4.59375 0 -7.21875 -2.9375q-2.609375 -2.9375 -2.609375 -8.5l0 -6.25q0 -5.390625 2.609375 -8.40625q2.625 -3.03125 7.21875 -3.03125q4.640625 0 7.234375 3.03125q2.609375 3.015625 2.609375 8.40625l0 6.25q0 5.5625 -2.609375 8.5q-2.59375 2.9375 -7.234375 2.9375zm0 -3.046875q3.25 0 4.859375 -2.28125q1.625 -2.28125 1.625 -6.359375l0 -5.75q0 -3.84375 -1.625 -6.234375q-1.609375 -2.40625 -4.859375 -2.40625q-3.234375 0 -4.859375 2.40625q-1.609375 2.390625 -1.609375 6.234375l0 5.75q0 4.078125 1.609375 6.359375q1.625 2.28125 4.859375 2.28125zm0 -8.953125q-1.0 0 -1.78125 -0.78125q-0.765625 -0.78125 -0.765625 -1.78125q0 -1.046875 0.765625 -1.796875q0.78125 -0.765625 1.78125 -0.765625q1.046875 0 1.796875 0.765625q0.765625 0.75 0.765625 1.796875q0 1.0 -0.765625 1.78125q-0.75 0.78125 -1.796875 0.78125zm15.04248 11.4375l0 -4.796875q0 -2.5625 1.125 -4.234375q1.125 -1.6875 3.15625 -2.75q2.046875 -1.0625 4.84375 -1.65625q3.5625 -0.796875 5.140625 -2.296875q1.578125 -1.5 1.578125 -3.625l0 -0.234375q0 -1.453125 -0.640625 -2.78125q-0.640625 -1.34375 -2.03125 -2.203125q-1.375 -0.859375 -3.5625 -0.859375q-3.046875 0 -4.765625 1.875q-1.71875 1.875 -1.71875 5.0l0 1.765625l-3.359375 0l0 -2.0q0 -2.5625 1.109375 -4.78125q1.125 -2.21875 3.328125 -3.59375q2.203125 -1.390625 5.40625 -1.390625q3.234375 0 5.34375 1.265625q2.125 1.25 3.1875 3.21875q1.0625 1.953125 1.0625 4.125l0 0.71875q0 3.15625 -2.0 5.4375q-2.0 2.28125 -6.40625 3.234375q-3.796875 0.84375 -5.625 2.234375q-1.8125 1.375 -1.8125 4.015625l0 1.1875l15.609375 0l0 3.125l-18.96875 0z" fill-rule="nonzero"/><path fill="#013a3b" d="m616.70605 195.60194l0 0c0 -8.725174 7.07312 -15.798325 15.79834 -15.798325l197.03326 0c4.1899414 0 8.208313 1.6644592 11.171082 4.627228c2.9627686 2.9627533 4.6271973 6.981125 4.6271973 11.171097l0 249.6632c0 8.725159 -7.07312 15.798309 -15.798279 15.798309l-197.03326 0c-8.72522 0 -15.79834 -7.0731506 -15.79834 -15.798309z" fill-rule="evenodd"/><path fill="#000000" fill-opacity="0.0" d="m638.58606 257.33054l184.91339 0l0 22.614166l-184.91339 0z" fill-rule="evenodd"/><path fill="#d0fdf2" d="m644.5548 275.51614q-1.671875 0 -2.8125 -0.625q-1.140625 -0.625 -1.734375 -1.703125q-0.578125 -1.09375 -0.578125 -2.453125l0 -0.5625l1.5625 0l0 0.453125q0 1.703125 0.953125 2.578125q0.953125 0.859375 2.609375 0.859375q1.453125 0 2.1875 -0.65625q0.75 -0.65625 0.75 -1.703125l0 -0.109375q0 -1.03125 -0.765625 -1.5625q-0.75 -0.546875 -2.453125 -0.78125q-1.953125 -0.28125 -3.125 -1.109375q-1.15625 -0.84375 -1.15625 -2.515625l0 -0.21875q0 -1.03125 0.546875 -1.796875q0.546875 -0.78125 1.515625 -1.234375q0.96875 -0.453125 2.234375 -0.453125q1.484375 0 2.515625 0.546875q1.03125 0.546875 1.578125 1.4375q0.5625 0.875 0.5625 1.9375l0 0.78125l-1.578125 0l0 -0.671875q0 -0.859375 -0.4375 -1.421875q-0.421875 -0.5625 -1.125 -0.84375q-0.703125 -0.296875 -1.53125 -0.296875q-0.703125 0 -1.328125 0.25q-0.625 0.234375 -1.015625 0.6875q-0.375 0.453125 -0.375 1.125l0 0.109375q0 1.09375 0.875 1.59375q0.875 0.484375 2.625 0.75q2.0625 0.296875 3.03125 1.1875q0.96875 0.890625 0.96875 2.390625l0 0.21875q0 1.703125 -1.15625 2.765625q-1.140625 1.046875 -3.34375 1.046875zm10.651978 0q-1.203125 0 -2.1875 -0.546875q-0.984375 -0.5625 -1.5625 -1.609375q-0.578125 -1.0625 -0.578125 -2.59375l0 -0.296875q0 -1.5 0.578125 -2.5625q0.578125 -1.0625 1.5625 -1.609375q0.984375 -0.5625 2.15625 -0.5625q0.953125 0 1.71875 0.421875q0.78125 0.421875 1.21875 1.296875l0.234375 0l0 -1.453125l1.453125 0l0 7.34375q0 0.5625 0.5 0.5625l0.46875 0l0 1.34375l-0.984375 0q-0.578125 0 -1.015625 -0.375q-0.421875 -0.375 -0.421875 -1.1875l-0.234375 0q-0.4375 0.90625 -1.234375 1.375q-0.796875 0.453125 -1.671875 0.453125zm0.15625 -1.390625q1.296875 0 2.140625 -0.921875q0.84375 -0.9375 0.84375 -2.46875l0 -0.21875q0 -1.0 -0.390625 -1.75q-0.390625 -0.765625 -1.0625 -1.203125q-0.671875 -0.453125 -1.53125 -0.453125q-0.859375 0 -1.53125 0.421875q-0.671875 0.421875 -1.0625 1.1875q-0.390625 0.75 -0.390625 1.75l0 0.296875q0 1.578125 0.828125 2.46875q0.84375 0.890625 2.15625 0.890625zm6.9489136 1.125l0 -9.25l1.453125 0l0 1.0l0.234375 0q0.234375 -0.65625 0.703125 -0.953125q0.46875 -0.3125 1.109375 -0.3125q0.671875 0 1.109375 0.359375q0.4375 0.34375 0.59375 0.90625l0.234375 0q0.625 -1.265625 2.015625 -1.265625q1.046875 0 1.609375 0.671875q0.5625 0.65625 0.5625 1.71875l0 7.125l-1.453125 0l0 -6.640625q0 -0.65625 -0.296875 -1.078125q-0.296875 -0.421875 -0.953125 -0.421875q-0.609375 0 -1.0 0.46875q-0.375 0.46875 -0.375 1.40625l0 6.265625l-1.453125 0l0 -6.71875q0 -0.609375 -0.34375 -1.015625q-0.328125 -0.40625 -0.890625 -0.40625q-0.671875 0 -1.046875 0.5q-0.359375 0.484375 -0.359375 1.265625l0 6.375l-1.453125 0zm11.808228 3.734375l0 -12.984375l1.46875 0l0 1.453125l0.21875 0q0.484375 -0.84375 1.34375 -1.28125q0.859375 -0.4375 1.859375 -0.4375q1.140625 0 2.109375 0.5625q0.96875 0.546875 1.546875 1.59375q0.59375 1.046875 0.59375 2.546875l0 0.375q0 1.515625 -0.578125 2.5625q-0.578125 1.03125 -1.5625 1.59375q-0.96875 0.546875 -2.140625 0.546875q-0.890625 0 -1.796875 -0.421875q-0.890625 -0.421875 -1.375 -1.265625l-0.21875 0l0 5.15625l-1.46875 0zm4.5625 -4.859375q1.3125 0 2.203125 -0.890625q0.890625 -0.890625 0.890625 -2.421875l0 -0.375q0 -0.984375 -0.421875 -1.734375q-0.40625 -0.75 -1.109375 -1.171875q-0.6875 -0.421875 -1.5625 -0.421875q-0.859375 0 -1.5625 0.453125q-0.703125 0.4375 -1.125 1.203125q-0.40625 0.75 -0.40625 1.75l0 0.21875q0 1.03125 0.40625 1.796875q0.40625 0.765625 1.109375 1.1875q0.71875 0.40625 1.578125 0.40625zm7.1989136 1.125l0 -1.34375l3.359375 0l0 -10.375l-3.25 0l0 -1.34375l4.703125 0l0 11.71875l3.359375 0l0 1.34375l-8.171875 0zm15.542603 0.265625q-1.328125 0 -2.34375 -0.609375q-1.015625 -0.609375 -1.59375 -1.671875q-0.578125 -1.078125 -0.578125 -2.5l0 -0.453125q0 -1.296875 0.59375 -2.328125q0.59375 -1.03125 1.625 -1.625q1.046875 -0.59375 2.328125 -0.59375q1.140625 0 1.96875 0.421875q0.828125 0.40625 1.359375 1.046875q0.53125 0.625 0.78125 1.34375q0.265625 0.71875 0.265625 1.328125l0 1.203125l-7.46875 0q0.0625 1.359375 0.859375 2.203125q0.8125 0.84375 2.234375 0.84375q1.328125 0 1.96875 -0.546875q0.65625 -0.5625 0.90625 -1.34375l1.375 0.359375q-0.390625 1.296875 -1.453125 2.109375q-1.046875 0.8125 -2.828125 0.8125zm-3.03125 -5.78125l5.96875 0q-0.03125 -0.8125 -0.453125 -1.390625q-0.421875 -0.59375 -1.078125 -0.90625q-0.640625 -0.328125 -1.375 -0.328125q-1.234375 0 -2.078125 0.75q-0.828125 0.75 -0.984375 1.875zm25.038391 5.515625l0 -11.609375l-3.796875 0l0 -1.453125l9.171875 0l0 1.453125l-3.796875 0l0 11.609375l-1.578125 0zm12.292664 -10.703125q-0.515625 0 -0.90625 -0.390625q-0.390625 -0.40625 -0.390625 -0.921875q0 -0.546875 0.390625 -0.921875q0.390625 -0.390625 0.90625 -0.390625q0.546875 0 0.921875 0.390625q0.390625 0.375 0.390625 0.921875q0 0.515625 -0.390625 0.921875q-0.375 0.390625 -0.921875 0.390625zm-3.953125 10.703125l0 -1.34375l3.25 0l0 -6.5625l-2.90625 0l0 -1.34375l4.359375 0l0 7.90625l3.03125 0l0 1.34375l-7.734375 0zm15.230103 0q-0.640625 0 -1.046875 -0.40625q-0.390625 -0.421875 -0.390625 -1.046875l0 -6.453125l-2.90625 0l0 -1.34375l2.90625 0l0 -3.8125l1.453125 0l0 3.8125l3.578125 0l0 1.34375l-3.578125 0l0 6.0q0 0.5625 0.5 0.5625l2.640625 0l0 1.34375l-3.15625 0zm7.3864136 0l0 -1.34375l3.359375 0l0 -10.375l-3.25 0l0 -1.34375l4.703125 0l0 11.71875l3.359375 0l0 1.34375l-8.171875 0zm15.542603 0.265625q-1.328125 0 -2.34375 -0.609375q-1.015625 -0.609375 -1.59375 -1.671875q-0.578125 -1.078125 -0.578125 -2.5l0 -0.453125q0 -1.296875 0.59375 -2.328125q0.59375 -1.03125 1.625 -1.625q1.046875 -0.59375 2.328125 -0.59375q1.140625 0 1.96875 0.421875q0.828125 0.40625 1.359375 1.046875q0.53125 0.625 0.78125 1.34375q0.265625 0.71875 0.265625 1.328125l0 1.203125l-7.46875 0q0.0625 1.359375 0.859375 2.203125q0.8125 0.84375 2.234375 0.84375q1.328125 0 1.96875 -0.546875q0.65625 -0.5625 0.90625 -1.34375l1.375 0.359375q-0.390625 1.296875 -1.453125 2.109375q-1.046875 0.8125 -2.828125 0.8125zm-3.03125 -5.78125l5.96875 0q-0.03125 -0.8125 -0.453125 -1.390625q-0.421875 -0.59375 -1.078125 -0.90625q-0.640625 -0.328125 -1.375 -0.328125q-1.234375 0 -2.078125 0.75q-0.828125 0.75 -0.984375 1.875z" fill-rule="nonzero"/><path fill="#000000" fill-opacity="0.0" d="m638.5643 333.9029l184.91339 0l0 68.09448l-184.91339 0z" fill-rule="evenodd"/><path fill="#d0fdf2" d="m649.28107 339.5667q0.65625 0 1.28125 0.34375q0.640625 0.328125 0.984375 0.96875q0.359375 0.625 0.359375 1.3125q0 1.078125 -0.78125 1.859375q-0.765625 0.765625 -1.84375 0.765625q-1.09375 0 -1.859375 -0.765625q-0.765625 -0.78125 -0.765625 -1.859375q0 -0.6875 0.34375 -1.3125q0.359375 -0.640625 0.984375 -0.96875q0.640625 -0.34375 1.296875 -0.34375z" fill-rule="nonzero"/><path fill="#d0fdf2" d="m669.4737 336.91046l0 7.734375l4.609375 0l0 0.984375l-5.765625 0l0 -8.71875l1.15625 0zm6.552429 0l0 1.28125l-1.03125 0l0 -1.28125l1.03125 0zm0 2.40625l0 6.3125l-1.03125 0l0 -6.3125l1.03125 0zm3.7111206 -0.140625q1.28125 0 1.890625 0.5q0.625 0.484375 0.6875 1.46875l-1.03125 0l0 -0.015625q-0.046875 -0.5 -0.453125 -0.765625q-0.390625 -0.28125 -1.015625 -0.28125q-0.625 0 -0.984375 0.21875q-0.359375 0.203125 -0.359375 0.59375q0 0.34375 0.3125 0.5625q0.328125 0.21875 0.96875 0.359375l0.96875 0.21875q0.921875 0.203125 1.390625 0.625q0.484375 0.421875 0.484375 1.125q0 0.9375 -0.71875 1.46875q-0.71875 0.53125 -1.96875 0.53125q-1.203125 0 -1.921875 -0.546875q-0.703125 -0.546875 -0.75 -1.59375l1.046875 0q0.015625 0.578125 0.453125 0.90625q0.453125 0.3125 1.234375 0.3125q0.75 0 1.140625 -0.234375q0.390625 -0.25 0.390625 -0.703125q0 -0.4375 -0.390625 -0.671875q-0.390625 -0.25 -1.578125 -0.484375q-1.1875 -0.234375 -1.671875 -0.65625q-0.484375 -0.4375 -0.484375 -1.140625q0 -0.828125 0.671875 -1.3125q0.671875 -0.484375 1.6875 -0.484375zm5.4453125 -1.75l0 1.890625l1.265625 0l0 0.921875l-1.265625 0l0 3.953125q0 0.46875 0.3125 0.5q0.3125 0.015625 0.65625 0.015625l0.296875 0l0 0.921875l-0.859375 0q-0.859375 0 -1.15625 -0.296875q-0.28125 -0.3125 -0.28125 -1.03125l0 -4.0625l-1.078125 0l0 -0.921875l1.078125 0l0 -1.890625l1.03125 0zm6.8899536 -0.515625l0 1.28125l-1.03125 0l0 -1.28125l1.03125 0zm0 2.40625l0 6.3125l-1.03125 0l0 -6.3125l1.03125 0zm3.0549316 -1.890625l0 1.890625l1.265625 0l0 0.921875l-1.265625 0l0 3.953125q0 0.46875 0.3125 0.5q0.3125 0.015625 0.65625 0.015625l0.296875 0l0 0.921875l-0.859375 0q-0.859375 0 -1.15625 -0.296875q-0.28125 -0.3125 -0.28125 -1.03125l0 -4.0625l-1.078125 0l0 -0.921875l1.078125 0l0 -1.890625l1.03125 0zm4.881653 1.75q1.359375 0 2.109375 0.984375q0.75 0.96875 0.75 2.5l0 0.125l-4.734375 0l0 0.078125q0 0.90625 0.53125 1.453125q0.53125 0.546875 1.4375 0.546875q0.6875 0 1.09375 -0.3125q0.421875 -0.328125 0.546875 -0.921875l1.015625 0q-0.203125 1.046875 -0.921875 1.609375q-0.703125 0.546875 -1.765625 0.546875q-1.0 0 -1.6875 -0.453125q-0.6875 -0.453125 -1.015625 -1.25q-0.328125 -0.8125 -0.328125 -1.640625q0 -1.40625 0.84375 -2.328125q0.84375 -0.9375 2.125 -0.9375zm-1.875 2.6875l3.625 0q-0.046875 -0.765625 -0.5625 -1.265625q-0.5 -0.515625 -1.265625 -0.515625q-0.71875 0 -1.21875 0.484375q-0.5 0.484375 -0.578125 1.296875zm8.835632 -2.6875q0.703125 0 1.140625 0.28125q0.4375 0.28125 0.59375 0.796875q0.328125 -0.515625 0.84375 -0.796875q0.515625 -0.28125 1.140625 -0.28125q1.078125 0 1.578125 0.484375q0.515625 0.484375 0.515625 1.296875l0 4.671875l-1.03125 0l0 -4.1875q0 -0.671875 -0.296875 -1.015625q-0.28125 -0.34375 -0.921875 -0.34375q-0.78125 0 -1.21875 0.453125q-0.4375 0.453125 -0.4375 1.125l0 3.96875l-1.03125 0l0 -4.1875q0 -0.671875 -0.296875 -1.015625q-0.28125 -0.34375 -0.890625 -0.34375q-0.484375 0 -0.875 0.25q-0.375 0.234375 -0.59375 0.65625q-0.21875 0.40625 -0.21875 0.6875l0 3.953125l-1.03125 0l0 -6.3125l0.96875 0l0 0.9375l0.03125 0q0.359375 -0.546875 0.859375 -0.8125q0.515625 -0.265625 1.171875 -0.265625zm13.378174 -2.203125q0.734375 0 1.265625 0.234375q0.53125 0.234375 0.890625 0.71875q0.734375 0.9375 0.734375 3.453125q0 1.265625 -0.1875 2.125q-0.171875 0.84375 -0.546875 1.328125q-0.34375 0.453125 -0.890625 0.703125q-0.53125 0.25 -1.265625 0.25q-1.4375 0 -2.15625 -0.96875q-0.71875 -0.96875 -0.71875 -3.4375q0 -2.484375 0.71875 -3.4375q0.71875 -0.96875 2.15625 -0.96875zm-1.78125 4.390625q0 1.046875 0.109375 1.734375q0.125 0.671875 0.34375 1.046875q0.453125 0.71875 1.328125 0.71875q0.96875 0 1.375 -0.828125q0.21875 -0.421875 0.3125 -1.0625q0.09375 -0.65625 0.09375 -1.5625q0 -0.3125 -0.015625 -0.6875q0 -0.375 -0.046875 -0.75q-0.046875 -0.390625 -0.15625 -0.765625q-0.09375 -0.375 -0.296875 -0.65625q-0.203125 -0.296875 -0.515625 -0.46875q-0.296875 -0.1875 -0.765625 -0.1875q-0.40625 0 -0.734375 0.171875q-0.328125 0.171875 -0.5625 0.53125q-0.46875 0.703125 -0.46875 2.765625zm9.521179 -4.390625l0 8.65625l-1.03125 0l0 -6.203125l-2.25 0l0 -0.828125l0.03125 0q1.09375 0 1.6875 -0.390625q0.609375 -0.390625 0.765625 -1.234375l0.796875 0z" fill-rule="nonzero"/><path fill="#d0fdf2" d="m649.28107 357.15768q0.65625 0 1.28125 0.34375q0.640625 0.328125 0.984375 0.96875q0.359375 0.625 0.359375 1.3125q0 1.078125 -0.78125 1.859375q-0.765625 0.765625 -1.84375 0.765625q-1.09375 0 -1.859375 -0.765625q-0.765625 -0.78125 -0.765625 -1.859375q0 -0.6875 0.34375 -1.3125q0.359375 -0.640625 0.984375 -0.96875q0.640625 -0.34375 1.296875 -0.34375z" fill-rule="nonzero"/><path fill="#d0fdf2" d="m669.4737 354.50143l0 7.734375l4.609375 0l0 0.984375l-5.765625 0l0 -8.71875l1.15625 0zm6.552429 0l0 1.28125l-1.03125 0l0 -1.28125l1.03125 0zm0 2.40625l0 6.3125l-1.03125 0l0 -6.3125l1.03125 0zm3.7111206 -0.140625q1.28125 0 1.890625 0.5q0.625 0.484375 0.6875 1.46875l-1.03125 0l0 -0.015625q-0.046875 -0.5 -0.453125 -0.765625q-0.390625 -0.28125 -1.015625 -0.28125q-0.625 0 -0.984375 0.21875q-0.359375 0.203125 -0.359375 0.59375q0 0.34375 0.3125 0.5625q0.328125 0.21875 0.96875 0.359375l0.96875 0.21875q0.921875 0.203125 1.390625 0.625q0.484375 0.421875 0.484375 1.125q0 0.9375 -0.71875 1.46875q-0.71875 0.53125 -1.96875 0.53125q-1.203125 0 -1.921875 -0.546875q-0.703125 -0.546875 -0.75 -1.59375l1.046875 0q0.015625 0.578125 0.453125 0.90625q0.453125 0.3125 1.234375 0.3125q0.75 0 1.140625 -0.234375q0.390625 -0.25 0.390625 -0.703125q0 -0.4375 -0.390625 -0.671875q-0.390625 -0.25 -1.578125 -0.484375q-1.1875 -0.234375 -1.671875 -0.65625q-0.484375 -0.4375 -0.484375 -1.140625q0 -0.828125 0.671875 -1.3125q0.671875 -0.484375 1.6875 -0.484375zm5.4453125 -1.75l0 1.890625l1.265625 0l0 0.921875l-1.265625 0l0 3.953125q0 0.46875 0.3125 0.5q0.3125 0.015625 0.65625 0.015625l0.296875 0l0 0.921875l-0.859375 0q-0.859375 0 -1.15625 -0.296875q-0.28125 -0.3125 -0.28125 -1.03125l0 -4.0625l-1.078125 0l0 -0.921875l1.078125 0l0 -1.890625l1.03125 0zm6.8899536 -0.515625l0 1.28125l-1.03125 0l0 -1.28125l1.03125 0zm0 2.40625l0 6.3125l-1.03125 0l0 -6.3125l1.03125 0zm3.0549316 -1.890625l0 1.890625l1.265625 0l0 0.921875l-1.265625 0l0 3.953125q0 0.46875 0.3125 0.5q0.3125 0.015625 0.65625 0.015625l0.296875 0l0 0.921875l-0.859375 0q-0.859375 0 -1.15625 -0.296875q-0.28125 -0.3125 -0.28125 -1.03125l0 -4.0625l-1.078125 0l0 -0.921875l1.078125 0l0 -1.890625l1.03125 0zm4.881653 1.75q1.359375 0 2.109375 0.984375q0.75 0.96875 0.75 2.5l0 0.125l-4.734375 0l0 0.078125q0 0.90625 0.53125 1.453125q0.53125 0.546875 1.4375 0.546875q0.6875 0 1.09375 -0.3125q0.421875 -0.328125 0.546875 -0.921875l1.015625 0q-0.203125 1.046875 -0.921875 1.609375q-0.703125 0.546875 -1.765625 0.546875q-1.0 0 -1.6875 -0.453125q-0.6875 -0.453125 -1.015625 -1.25q-0.328125 -0.8125 -0.328125 -1.640625q0 -1.40625 0.84375 -2.328125q0.84375 -0.9375 2.125 -0.9375zm-1.875 2.6875l3.625 0q-0.046875 -0.765625 -0.5625 -1.265625q-0.5 -0.515625 -1.265625 -0.515625q-0.71875 0 -1.21875 0.484375q-0.5 0.484375 -0.578125 1.296875zm8.835632 -2.6875q0.703125 0 1.140625 0.28125q0.4375 0.28125 0.59375 0.796875q0.328125 -0.515625 0.84375 -0.796875q0.515625 -0.28125 1.140625 -0.28125q1.078125 0 1.578125 0.484375q0.515625 0.484375 0.515625 1.296875l0 4.671875l-1.03125 0l0 -4.1875q0 -0.671875 -0.296875 -1.015625q-0.28125 -0.34375 -0.921875 -0.34375q-0.78125 0 -1.21875 0.453125q-0.4375 0.453125 -0.4375 1.125l0 3.96875l-1.03125 0l0 -4.1875q0 -0.671875 -0.296875 -1.015625q-0.28125 -0.34375 -0.890625 -0.34375q-0.484375 0 -0.875 0.25q-0.375 0.234375 -0.59375 0.65625q-0.21875 0.40625 -0.21875 0.6875l0 3.953125l-1.03125 0l0 -6.3125l0.96875 0l0 0.9375l0.03125 0q0.359375 -0.546875 0.859375 -0.8125q0.515625 -0.265625 1.171875 -0.265625zm13.378174 -2.203125q0.734375 0 1.265625 0.234375q0.53125 0.234375 0.890625 0.71875q0.734375 0.9375 0.734375 3.453125q0 1.265625 -0.1875 2.125q-0.171875 0.84375 -0.546875 1.328125q-0.34375 0.453125 -0.890625 0.703125q-0.53125 0.25 -1.265625 0.25q-1.4375 0 -2.15625 -0.96875q-0.71875 -0.96875 -0.71875 -3.4375q0 -2.484375 0.71875 -3.4375q0.71875 -0.96875 2.15625 -0.96875zm-1.78125 4.390625q0 1.046875 0.109375 1.734375q0.125 0.671875 0.34375 1.046875q0.453125 0.71875 1.328125 0.71875q0.96875 0 1.375 -0.828125q0.21875 -0.421875 0.3125 -1.0625q0.09375 -0.65625 0.09375 -1.5625q0 -0.3125 -0.015625 -0.6875q0 -0.375 -0.046875 -0.75q-0.046875 -0.390625 -0.15625 -0.765625q-0.09375 -0.375 -0.296875 -0.65625q-0.203125 -0.296875 -0.515625 -0.46875q-0.296875 -0.1875 -0.765625 -0.1875q-0.40625 0 -0.734375 0.171875q-0.328125 0.171875 -0.5625 0.53125q-0.46875 0.703125 -0.46875 2.765625zm8.489929 -4.390625q1.203125 0 1.953125 0.6875q0.765625 0.671875 0.765625 1.8125q0 0.890625 -0.5 1.609375q-0.5 0.71875 -2.125 1.65625q-0.984375 0.578125 -1.40625 1.03125q-0.40625 0.453125 -0.5 0.9375l4.4375 0l0 0.921875l-5.640625 0q0.078125 -1.078125 0.546875 -1.890625q0.46875 -0.8125 1.75 -1.578125q1.515625 -0.921875 1.921875 -1.4375q0.40625 -0.53125 0.40625 -1.265625q0 -0.671875 -0.484375 -1.109375q-0.46875 -0.453125 -1.171875 -0.453125q-0.78125 0 -1.234375 0.578125q-0.453125 0.578125 -0.453125 1.484375l0 0.078125l-1.046875 0l0 -0.203125q0 -1.296875 0.765625 -2.078125q0.765625 -0.78125 2.015625 -0.78125z" fill-rule="nonzero"/><path fill="#d0fdf2" d="m649.28107 374.74866q0.65625 0 1.28125 0.34375q0.640625 0.328125 0.984375 0.96875q0.359375 0.625 0.359375 1.3125q0 1.078125 -0.78125 1.859375q-0.765625 0.765625 -1.84375 0.765625q-1.09375 0 -1.859375 -0.765625q-0.765625 -0.78125 -0.765625 -1.859375q0 -0.6875 0.34375 -1.3125q0.359375 -0.640625 0.984375 -0.96875q0.640625 -0.34375 1.296875 -0.34375z" fill-rule="nonzero"/><path fill="#d0fdf2" d="m669.4737 372.0924l0 7.734375l4.609375 0l0 0.984375l-5.765625 0l0 -8.71875l1.15625 0zm6.552429 0l0 1.28125l-1.03125 0l0 -1.28125l1.03125 0zm0 2.40625l0 6.3125l-1.03125 0l0 -6.3125l1.03125 0zm3.7111206 -0.140625q1.28125 0 1.890625 0.5q0.625 0.484375 0.6875 1.46875l-1.03125 0l0 -0.015625q-0.046875 -0.5 -0.453125 -0.765625q-0.390625 -0.28125 -1.015625 -0.28125q-0.625 0 -0.984375 0.21875q-0.359375 0.203125 -0.359375 0.59375q0 0.34375 0.3125 0.5625q0.328125 0.21875 0.96875 0.359375l0.96875 0.21875q0.921875 0.203125 1.390625 0.625q0.484375 0.421875 0.484375 1.125q0 0.9375 -0.71875 1.46875q-0.71875 0.53125 -1.96875 0.53125q-1.203125 0 -1.921875 -0.546875q-0.703125 -0.546875 -0.75 -1.59375l1.046875 0q0.015625 0.578125 0.453125 0.90625q0.453125 0.3125 1.234375 0.3125q0.75 0 1.140625 -0.234375q0.390625 -0.25 0.390625 -0.703125q0 -0.4375 -0.390625 -0.671875q-0.390625 -0.25 -1.578125 -0.484375q-1.1875 -0.234375 -1.671875 -0.65625q-0.484375 -0.4375 -0.484375 -1.140625q0 -0.828125 0.671875 -1.3125q0.671875 -0.484375 1.6875 -0.484375zm5.4453125 -1.75l0 1.890625l1.265625 0l0 0.921875l-1.265625 0l0 3.953125q0 0.46875 0.3125 0.5q0.3125 0.015625 0.65625 0.015625l0.296875 0l0 0.921875l-0.859375 0q-0.859375 0 -1.15625 -0.296875q-0.28125 -0.3125 -0.28125 -1.03125l0 -4.0625l-1.078125 0l0 -0.921875l1.078125 0l0 -1.890625l1.03125 0zm6.8899536 -0.515625l0 1.28125l-1.03125 0l0 -1.28125l1.03125 0zm0 2.40625l0 6.3125l-1.03125 0l0 -6.3125l1.03125 0zm3.0549316 -1.890625l0 1.890625l1.265625 0l0 0.921875l-1.265625 0l0 3.953125q0 0.46875 0.3125 0.5q0.3125 0.015625 0.65625 0.015625l0.296875 0l0 0.921875l-0.859375 0q-0.859375 0 -1.15625 -0.296875q-0.28125 -0.3125 -0.28125 -1.03125l0 -4.0625l-1.078125 0l0 -0.921875l1.078125 0l0 -1.890625l1.03125 0zm4.881653 1.75q1.359375 0 2.109375 0.984375q0.75 0.96875 0.75 2.5l0 0.125l-4.734375 0l0 0.078125q0 0.90625 0.53125 1.453125q0.53125 0.546875 1.4375 0.546875q0.6875 0 1.09375 -0.3125q0.421875 -0.328125 0.546875 -0.921875l1.015625 0q-0.203125 1.046875 -0.921875 1.609375q-0.703125 0.546875 -1.765625 0.546875q-1.0 0 -1.6875 -0.453125q-0.6875 -0.453125 -1.015625 -1.25q-0.328125 -0.8125 -0.328125 -1.640625q0 -1.40625 0.84375 -2.328125q0.84375 -0.9375 2.125 -0.9375zm-1.875 2.6875l3.625 0q-0.046875 -0.765625 -0.5625 -1.265625q-0.5 -0.515625 -1.265625 -0.515625q-0.71875 0 -1.21875 0.484375q-0.5 0.484375 -0.578125 1.296875zm8.835632 -2.6875q0.703125 0 1.140625 0.28125q0.4375 0.28125 0.59375 0.796875q0.328125 -0.515625 0.84375 -0.796875q0.515625 -0.28125 1.140625 -0.28125q1.078125 0 1.578125 0.484375q0.515625 0.484375 0.515625 1.296875l0 4.671875l-1.03125 0l0 -4.1875q0 -0.671875 -0.296875 -1.015625q-0.28125 -0.34375 -0.921875 -0.34375q-0.78125 0 -1.21875 0.453125q-0.4375 0.453125 -0.4375 1.125l0 3.96875l-1.03125 0l0 -4.1875q0 -0.671875 -0.296875 -1.015625q-0.28125 -0.34375 -0.890625 -0.34375q-0.484375 0 -0.875 0.25q-0.375 0.234375 -0.59375 0.65625q-0.21875 0.40625 -0.21875 0.6875l0 3.953125l-1.03125 0l0 -6.3125l0.96875 0l0 0.9375l0.03125 0q0.359375 -0.546875 0.859375 -0.8125q0.515625 -0.265625 1.171875 -0.265625zm13.378174 -2.203125q0.734375 0 1.265625 0.234375q0.53125 0.234375 0.890625 0.71875q0.734375 0.9375 0.734375 3.453125q0 1.265625 -0.1875 2.125q-0.171875 0.84375 -0.546875 1.328125q-0.34375 0.453125 -0.890625 0.703125q-0.53125 0.25 -1.265625 0.25q-1.4375 0 -2.15625 -0.96875q-0.71875 -0.96875 -0.71875 -3.4375q0 -2.484375 0.71875 -3.4375q0.71875 -0.96875 2.15625 -0.96875zm-1.78125 4.390625q0 1.046875 0.109375 1.734375q0.125 0.671875 0.34375 1.046875q0.453125 0.71875 1.328125 0.71875q0.96875 0 1.375 -0.828125q0.21875 -0.421875 0.3125 -1.0625q0.09375 -0.65625 0.09375 -1.5625q0 -0.3125 -0.015625 -0.6875q0 -0.375 -0.046875 -0.75q-0.046875 -0.390625 -0.15625 -0.765625q-0.09375 -0.375 -0.296875 -0.65625q-0.203125 -0.296875 -0.515625 -0.46875q-0.296875 -0.1875 -0.765625 -0.1875q-0.40625 0 -0.734375 0.171875q-0.328125 0.171875 -0.5625 0.53125q-0.46875 0.703125 -0.46875 2.765625zm8.396179 -4.390625q1.25 0 1.9375 0.625q0.6875 0.609375 0.6875 1.6875q0 0.53125 -0.3125 1.0q-0.296875 0.453125 -0.875 0.734375l0 0.015625q0.765625 0.171875 1.15625 0.734375q0.40625 0.546875 0.40625 1.375q0 1.203125 -0.828125 1.921875q-0.828125 0.71875 -2.15625 0.71875q-1.296875 0 -2.09375 -0.71875q-0.78125 -0.734375 -0.78125 -2.078125l0 -0.03125l1.046875 0q0.03125 0.921875 0.515625 1.421875q0.5 0.484375 1.3125 0.484375q0.8125 0 1.34375 -0.46875q0.546875 -0.46875 0.546875 -1.203125q0 -0.765625 -0.515625 -1.203125q-0.5 -0.453125 -1.375 -0.453125q-0.125 0 -0.28125 0.015625q-0.140625 0 -0.296875 0.015625l0 -0.875q0.125 0.015625 0.375 0.015625q0.609375 0 0.953125 -0.1875q0.359375 -0.203125 0.5625 -0.5q0.203125 -0.3125 0.203125 -0.734375q0 -0.640625 -0.421875 -1.015625q-0.40625 -0.375 -1.109375 -0.375q-0.765625 0 -1.203125 0.5q-0.421875 0.484375 -0.4375 1.375l-1.03125 0q0.0625 -1.34375 0.75 -2.0625q0.703125 -0.734375 1.921875 -0.734375z" fill-rule="nonzero"/><path fill="#d0fdf2" d="m649.28107 392.33963q0.65625 0 1.28125 0.34375q0.640625 0.328125 0.984375 0.96875q0.359375 0.625 0.359375 1.3125q0 1.078125 -0.78125 1.859375q-0.765625 0.765625 -1.84375 0.765625q-1.09375 0 -1.859375 -0.765625q-0.765625 -0.78125 -0.765625 -1.859375q0 -0.6875 0.34375 -1.3125q0.359375 -0.640625 0.984375 -0.96875q0.640625 -0.34375 1.296875 -0.34375z" fill-rule="nonzero"/><path fill="#d0fdf2" d="m669.4737 389.68338l0 7.734375l4.609375 0l0 0.984375l-5.765625 0l0 -8.71875l1.15625 0zm6.552429 0l0 1.28125l-1.03125 0l0 -1.28125l1.03125 0zm0 2.40625l0 6.3125l-1.03125 0l0 -6.3125l1.03125 0zm3.7111206 -0.140625q1.28125 0 1.890625 0.5q0.625 0.484375 0.6875 1.46875l-1.03125 0l0 -0.015625q-0.046875 -0.5 -0.453125 -0.765625q-0.390625 -0.28125 -1.015625 -0.28125q-0.625 0 -0.984375 0.21875q-0.359375 0.203125 -0.359375 0.59375q0 0.34375 0.3125 0.5625q0.328125 0.21875 0.96875 0.359375l0.96875 0.21875q0.921875 0.203125 1.390625 0.625q0.484375 0.421875 0.484375 1.125q0 0.9375 -0.71875 1.46875q-0.71875 0.53125 -1.96875 0.53125q-1.203125 0 -1.921875 -0.546875q-0.703125 -0.546875 -0.75 -1.59375l1.046875 0q0.015625 0.578125 0.453125 0.90625q0.453125 0.3125 1.234375 0.3125q0.75 0 1.140625 -0.234375q0.390625 -0.25 0.390625 -0.703125q0 -0.4375 -0.390625 -0.671875q-0.390625 -0.25 -1.578125 -0.484375q-1.1875 -0.234375 -1.671875 -0.65625q-0.484375 -0.4375 -0.484375 -1.140625q0 -0.828125 0.671875 -1.3125q0.671875 -0.484375 1.6875 -0.484375zm5.4453125 -1.75l0 1.890625l1.265625 0l0 0.921875l-1.265625 0l0 3.953125q0 0.46875 0.3125 0.5q0.3125 0.015625 0.65625 0.015625l0.296875 0l0 0.921875l-0.859375 0q-0.859375 0 -1.15625 -0.296875q-0.28125 -0.3125 -0.28125 -1.03125l0 -4.0625l-1.078125 0l0 -0.921875l1.078125 0l0 -1.890625l1.03125 0zm6.8899536 -0.515625l0 1.28125l-1.03125 0l0 -1.28125l1.03125 0zm0 2.40625l0 6.3125l-1.03125 0l0 -6.3125l1.03125 0zm3.0549316 -1.890625l0 1.890625l1.265625 0l0 0.921875l-1.265625 0l0 3.953125q0 0.46875 0.3125 0.5q0.3125 0.015625 0.65625 0.015625l0.296875 0l0 0.921875l-0.859375 0q-0.859375 0 -1.15625 -0.296875q-0.28125 -0.3125 -0.28125 -1.03125l0 -4.0625l-1.078125 0l0 -0.921875l1.078125 0l0 -1.890625l1.03125 0zm4.881653 1.75q1.359375 0 2.109375 0.984375q0.75 0.96875 0.75 2.5l0 0.125l-4.734375 0l0 0.078125q0 0.90625 0.53125 1.453125q0.53125 0.546875 1.4375 0.546875q0.6875 0 1.09375 -0.3125q0.421875 -0.328125 0.546875 -0.921875l1.015625 0q-0.203125 1.046875 -0.921875 1.609375q-0.703125 0.546875 -1.765625 0.546875q-1.0 0 -1.6875 -0.453125q-0.6875 -0.453125 -1.015625 -1.25q-0.328125 -0.8125 -0.328125 -1.640625q0 -1.40625 0.84375 -2.328125q0.84375 -0.9375 2.125 -0.9375zm-1.875 2.6875l3.625 0q-0.046875 -0.765625 -0.5625 -1.265625q-0.5 -0.515625 -1.265625 -0.515625q-0.71875 0 -1.21875 0.484375q-0.5 0.484375 -0.578125 1.296875zm8.835632 -2.6875q0.703125 0 1.140625 0.28125q0.4375 0.28125 0.59375 0.796875q0.328125 -0.515625 0.84375 -0.796875q0.515625 -0.28125 1.140625 -0.28125q1.078125 0 1.578125 0.484375q0.515625 0.484375 0.515625 1.296875l0 4.671875l-1.03125 0l0 -4.1875q0 -0.671875 -0.296875 -1.015625q-0.28125 -0.34375 -0.921875 -0.34375q-0.78125 0 -1.21875 0.453125q-0.4375 0.453125 -0.4375 1.125l0 3.96875l-1.03125 0l0 -4.1875q0 -0.671875 -0.296875 -1.015625q-0.28125 -0.34375 -0.890625 -0.34375q-0.484375 0 -0.875 0.25q-0.375 0.234375 -0.59375 0.65625q-0.21875 0.40625 -0.21875 0.6875l0 3.953125l-1.03125 0l0 -6.3125l0.96875 0l0 0.9375l0.03125 0q0.359375 -0.546875 0.859375 -0.8125q0.515625 -0.265625 1.171875 -0.265625zm13.378174 -2.203125q0.734375 0 1.265625 0.234375q0.53125 0.234375 0.890625 0.71875q0.734375 0.9375 0.734375 3.453125q0 1.265625 -0.1875 2.125q-0.171875 0.84375 -0.546875 1.328125q-0.34375 0.453125 -0.890625 0.703125q-0.53125 0.25 -1.265625 0.25q-1.4375 0 -2.15625 -0.96875q-0.71875 -0.96875 -0.71875 -3.4375q0 -2.484375 0.71875 -3.4375q0.71875 -0.96875 2.15625 -0.96875zm-1.78125 4.390625q0 1.046875 0.109375 1.734375q0.125 0.671875 0.34375 1.046875q0.453125 0.71875 1.328125 0.71875q0.96875 0 1.375 -0.828125q0.21875 -0.421875 0.3125 -1.0625q0.09375 -0.65625 0.09375 -1.5625q0 -0.3125 -0.015625 -0.6875q0 -0.375 -0.046875 -0.75q-0.046875 -0.390625 -0.15625 -0.765625q-0.09375 -0.375 -0.296875 -0.65625q-0.203125 -0.296875 -0.515625 -0.46875q-0.296875 -0.1875 -0.765625 -0.1875q-0.40625 0 -0.734375 0.171875q-0.328125 0.171875 -0.5625 0.53125q-0.46875 0.703125 -0.46875 2.765625zm10.286804 -4.390625l0 5.71875l1.171875 0l0 0.90625l-1.171875 0l0 2.03125l-0.96875 0l0 -2.03125l-3.796875 0l0 -1.0l3.9375 -5.625l0.828125 0zm-1.0 1.484375l-2.875 4.234375l2.90625 0l0 -4.234375l-0.03125 0z" fill-rule="nonzero"/><path fill="#000000" fill-opacity="0.0" d="m638.58606 207.06966l184.91339 0l0 43.622055l-184.91339 0z" fill-rule="evenodd"/><path fill="#ffffff" d="m650.82043 242.19177q-4.59375 0 -7.21875 -2.9375q-2.609375 -2.9375 -2.609375 -8.5l0 -6.25q0 -5.390625 2.609375 -8.40625q2.625 -3.03125 7.21875 -3.03125q4.640625 0 7.234375 3.03125q2.609375 3.015625 2.609375 8.40625l0 6.25q0 5.5625 -2.609375 8.5q-2.59375 2.9375 -7.234375 2.9375zm0 -3.046875q3.25 0 4.859375 -2.28125q1.625 -2.28125 1.625 -6.359375l0 -5.75q0 -3.84375 -1.625 -6.234375q-1.609375 -2.40625 -4.859375 -2.40625q-3.234375 0 -4.859375 2.40625q-1.609375 2.390625 -1.609375 6.234375l0 5.75q0 4.078125 1.609375 6.359375q1.625 2.28125 4.859375 2.28125zm0 -8.953125q-1.0 0 -1.78125 -0.78125q-0.765625 -0.78125 -0.765625 -1.78125q0 -1.046875 0.765625 -1.796875q0.78125 -0.765625 1.78125 -0.765625q1.046875 0 1.796875 0.765625q0.765625 0.75 0.765625 1.796875q0 1.0 -0.765625 1.78125q-0.75 0.78125 -1.796875 0.78125zm24.933105 12.0q-3.171875 0 -5.453125 -1.25q-2.28125 -1.265625 -3.5 -3.359375q-1.21875 -2.109375 -1.21875 -4.671875l0 -2.15625l3.359375 0l0 1.921875q0 3.0 1.921875 4.703125q1.921875 1.6875 4.796875 1.6875q1.765625 0 3.1875 -0.78125q1.421875 -0.78125 2.234375 -2.078125q0.828125 -1.296875 0.828125 -2.890625l0 -0.25q0 -2.515625 -1.609375 -3.9375q-1.59375 -1.421875 -4.0 -1.421875l-3.75 0l0 -4.640625l9.109375 -5.84375l0 -0.46875l-15.828125 0l0 -3.125l18.71875 0l0 5.125l-9.125 5.828125l0 0.484375l1.59375 0q2.125 0 4.0 0.921875q1.890625 0.921875 3.0625 2.671875q1.1875 1.734375 1.1875 4.28125l0 0.734375q0 2.390625 -1.25 4.328125q-1.234375 1.9375 -3.390625 3.0625q-2.15625 1.125 -4.875 1.125z" fill-rule="nonzero"/><path fill="#000000" fill-opacity="0.0" d="m897.09357 473.4817l8.0 0l0 14.551178l-8.0 0z" fill-rule="evenodd"/><path fill="#d0fdf2" d="m898.4429 478.72043q0.046875 -1.296875 0.84375 -1.984375q0.796875 -0.703125 2.140625 -0.703125q0.90625 0 1.546875 0.3125q0.640625 0.3125 0.96875 0.859375q0.328125 0.53125 0.328125 1.203125q0 0.796875 -0.390625 1.296875q-0.390625 0.5 -0.921875 0.671875l0 0.046875q0.6875 0.234375 1.078125 0.765625q0.390625 0.53125 0.390625 1.359375q0 0.734375 -0.34375 1.3125q-0.328125 0.5625 -0.984375 0.890625q-0.65625 0.328125 -1.5625 0.328125q-1.4375 0 -2.296875 -0.703125q-0.859375 -0.71875 -0.90625 -2.140625l2.0 0q0.015625 0.515625 0.296875 0.828125q0.28125 0.3125 0.84375 0.3125q0.46875 0 0.71875 -0.265625q0.265625 -0.28125 0.265625 -0.71875q0 -0.578125 -0.375 -0.828125q-0.359375 -0.265625 -1.171875 -0.265625l-0.375 0l0 -1.671875l0.375 0q0.625 0 1.0 -0.203125q0.375 -0.21875 0.375 -0.765625q0 -0.421875 -0.25 -0.65625q-0.234375 -0.25 -0.65625 -0.25q-0.453125 0 -0.671875 0.28125q-0.21875 0.265625 -0.265625 0.6875l-2.0 0z" fill-rule="nonzero"/><path fill="#000000" fill-opacity="0.0" d="m69.362206 109.7233l450.33072 0l0 42.015747l-450.33072 0z" fill-rule="evenodd"/><path fill="#013a3b" d="m83.455956 122.38017q1.90625 0 3.015625 0.921875q1.125 0.921875 1.1875 2.703125l-1.4375 0q-0.125 -1.171875 -0.84375 -1.75q-0.703125 -0.59375 -1.984375 -0.59375q-1.21875 0 -1.890625 0.515625q-0.671875 0.5 -0.671875 1.4375q0 0.671875 0.5625 1.109375q0.578125 0.421875 3.109375 0.921875q1.828125 0.375 2.734375 1.15625q0.90625 0.765625 0.90625 2.140625q0 1.59375 -1.3125 2.515625q-1.296875 0.90625 -3.15625 0.90625q-2.078125 0 -3.390625 -1.046875q-1.3125 -1.046875 -1.328125 -3.0l1.4375 0q0.015625 1.3125 0.9375 2.03125q0.921875 0.71875 2.390625 0.71875q1.390625 0 2.140625 -0.53125q0.765625 -0.53125 0.765625 -1.546875q0 -0.8125 -0.703125 -1.296875q-0.6875 -0.5 -2.515625 -0.84375q-2.4375 -0.46875 -3.265625 -1.1875q-0.828125 -0.734375 -0.828125 -1.9375q0 -1.53125 1.15625 -2.4375q1.171875 -0.90625 2.984375 -0.90625zm9.6796875 3.234375q1.6875 0 2.390625 0.609375q0.71875 0.59375 0.71875 1.609375q0 4.296875 0 4.765625q0 0.46875 0.421875 0.46875q0.09375 0 0.203125 -0.015625q0.109375 -0.03125 0.21875 -0.0625l0 1.0625q-0.1875 0.109375 -0.4375 0.171875q-0.25 0.0625 -0.53125 0.0625q-0.5625 0 -0.859375 -0.3125q-0.296875 -0.328125 -0.296875 -0.984375q-0.546875 0.640625 -1.28125 0.96875q-0.734375 0.328125 -1.640625 0.328125q-1.28125 0 -2.015625 -0.609375q-0.71875 -0.609375 -0.71875 -1.71875q0 -1.125 0.703125 -1.765625q0.71875 -0.65625 3.359375 -0.984375q0.890625 -0.125 1.203125 -0.34375q0.3125 -0.234375 0.3125 -0.6875q0 -0.6875 -0.4375 -1.015625q-0.4375 -0.34375 -1.40625 -0.34375q-1.0 0 -1.515625 0.390625q-0.5 0.375 -0.53125 1.171875l-1.359375 0q0.0625 -1.375 0.96875 -2.0625q0.90625 -0.703125 2.53125 -0.703125zm-2.390625 6.234375q0 0.578125 0.421875 0.90625q0.421875 0.3125 1.1875 0.3125q1.140625 0 1.828125 -0.5625q0.6875 -0.578125 0.6875 -1.28125l0 -1.421875q-0.34375 0.25 -0.890625 0.34375q-0.546875 0.078125 -1.453125 0.203125q-0.90625 0.125 -1.34375 0.484375q-0.4375 0.359375 -0.4375 1.015625zm11.59375 -6.234375q0.90625 0 1.46875 0.375q0.578125 0.359375 0.796875 1.03125q0.421875 -0.65625 1.09375 -1.03125q0.6875 -0.375 1.515625 -0.375q1.390625 0 2.0625 0.640625q0.671875 0.625 0.671875 1.703125l0 6.125l-1.359375 0l0 -5.484375q0 -0.890625 -0.375 -1.328125q-0.375 -0.453125 -1.21875 -0.453125q-1.015625 0 -1.59375 0.59375q-0.5625 0.59375 -0.5625 1.46875l0 5.203125l-1.375 0l0 -5.484375q0 -0.890625 -0.375 -1.328125q-0.375 -0.453125 -1.171875 -0.453125q-0.640625 0 -1.140625 0.3125q-0.5 0.3125 -0.78125 0.859375q-0.28125 0.53125 -0.28125 0.90625l0 5.1875l-1.359375 0l0 -8.28125l1.28125 0l0 1.21875l0.03125 0q0.46875 -0.703125 1.125 -1.046875q0.671875 -0.359375 1.546875 -0.359375zm13.7421875 0q1.765625 0 2.78125 1.21875q1.03125 1.21875 1.03125 3.140625q0 1.921875 -1.015625 3.125q-1.015625 1.1875 -2.765625 1.1875q-0.765625 0 -1.515625 -0.328125q-0.734375 -0.328125 -1.15625 -0.984375l-0.03125 0l0 4.28125l-1.359375 0l0 -11.453125l1.359375 0l0 1.125l0.03125 0q0.3125 -0.640625 1.0 -0.96875q0.703125 -0.34375 1.640625 -0.34375zm-2.71875 4.328125q0 1.4375 0.6875 2.28125q0.703125 0.84375 1.921875 0.84375q1.171875 0 1.8125 -0.84375q0.65625 -0.84375 0.65625 -2.34375q0 -1.34375 -0.6875 -2.203125q-0.671875 -0.859375 -1.875 -0.859375q-1.203125 0 -1.859375 0.875q-0.65625 0.875 -0.65625 2.25zm9.5625 -7.28125l0 11.421875l-1.359375 0l0 -11.421875l1.359375 0zm5.55468 2.953125q1.78125 0 2.765625 1.28125q0.984375 1.28125 0.984375 3.296875l0 0.15625l-6.2031174 0l0 0.109375q0 1.171875 0.6875 1.890625q0.6875 0.71875 1.8906174 0.71875q0.90625 0 1.4375 -0.421875q0.546875 -0.421875 0.703125 -1.1875l1.34375 0q-0.265625 1.375 -1.203125 2.109375q-0.921875 0.71875 -2.328125 0.71875q-1.2968674 0 -2.2031174 -0.59375q-0.90625 -0.59375 -1.34375 -1.640625q-0.421875 -1.0625 -0.421875 -2.15625q0 -1.828125 1.09375 -3.046875q1.109375 -1.234375 2.7968674 -1.234375zm-2.4531174 3.53125l4.7499924 0q-0.0625 -1.0 -0.734375 -1.65625q-0.65625 -0.671875 -1.65625 -0.671875q-0.9374924 0 -1.6093674 0.640625q-0.65625 0.625 -0.75 1.6875zm16.11718 -6.765625q1.90625 0 3.015625 0.921875q1.125 0.921875 1.1875 2.703125l-1.4375 0q-0.125 -1.171875 -0.84375 -1.75q-0.703125 -0.59375 -1.984375 -0.59375q-1.21875 0 -1.890625 0.515625q-0.671875 0.5 -0.671875 1.4375q0 0.671875 0.5625 1.109375q0.578125 0.421875 3.109375 0.921875q1.828125 0.375 2.734375 1.15625q0.90625 0.765625 0.90625 2.140625q0 1.59375 -1.3125 2.515625q-1.296875 0.90625 -3.15625 0.90625q-2.078125 0 -3.390625 -1.046875q-1.3125 -1.046875 -1.328125 -3.0l1.4375 0q0.015625 1.3125 0.9375 2.03125q0.921875 0.71875 2.390625 0.71875q1.390625 0 2.140625 -0.53125q0.765625 -0.53125 0.765625 -1.546875q0 -0.8125 -0.703125 -1.296875q-0.6875 -0.5 -2.515625 -0.84375q-2.4375 -0.46875 -3.265625 -1.1875q-0.828125 -0.734375 -0.828125 -1.9375q0 -1.53125 1.15625 -2.4375q1.171875 -0.90625 2.984375 -0.90625zm7.6640625 3.421875l0 5.640625q0 0.703125 0.4375 1.171875q0.453125 0.453125 1.25 0.453125q1.171875 0 1.796875 -0.703125q0.640625 -0.71875 0.640625 -1.828125l0 -4.734375l1.359375 0l0 8.28125l-1.28125 0l0 -1.3125l-0.03125 0q-0.453125 0.78125 -1.140625 1.15625q-0.671875 0.359375 -1.546875 0.359375q-1.453125 0 -2.15625 -0.75q-0.6875 -0.75 -0.6875 -2.21875l0 -5.515625l1.359375 0zm8.9453125 -3.140625l0 4.265625l0.03125 0q0.3125 -0.640625 1.0 -0.96875q0.6875 -0.34375 1.640625 -0.34375q1.765625 0 2.78125 1.21875q1.03125 1.21875 1.03125 3.140625q0 1.921875 -1.015625 3.125q-1.015625 1.1875 -2.765625 1.1875q-0.765625 0 -1.515625 -0.328125q-0.734375 -0.328125 -1.15625 -0.984375l-0.03125 0l0 1.109375l-1.359375 0l0 -11.421875l1.359375 0zm-0.046875 7.28125q0 1.4375 0.6875 2.28125q0.703125 0.84375 1.921875 0.84375q1.171875 0 1.8125 -0.84375q0.65625 -0.84375 0.65625 -2.34375q0 -1.34375 -0.6875 -2.203125q-0.671875 -0.859375 -1.875 -0.859375q-1.203125 0 -1.859375 0.875q-0.65625 0.875 -0.65625 2.25zm9.484375 -7.28125l0 4.359375l0.03125 0q0.296875 -0.65625 1.0 -1.03125q0.71875 -0.375 1.609375 -0.375q1.5 0 2.171875 0.765625q0.671875 0.765625 0.671875 2.1875l0 5.515625l-1.359375 0l0 -5.65625q0 -0.703125 -0.453125 -1.15625q-0.4375 -0.453125 -1.234375 -0.453125q-1.15625 0 -1.796875 0.703125q-0.640625 0.703125 -0.640625 1.828125l0 4.734375l-1.359375 0l0 -11.421875l1.359375 0zm10.9765625 2.953125q1.78125 0 2.765625 1.28125q0.984375 1.28125 0.984375 3.296875l0 0.15625l-6.203125 0l0 0.109375q0 1.171875 0.6875 1.890625q0.6875 0.71875 1.890625 0.71875q0.90625 0 1.4375 -0.421875q0.546875 -0.421875 0.703125 -1.1875l1.34375 0q-0.265625 1.375 -1.203125 2.109375q-0.921875 0.71875 -2.328125 0.71875q-1.296875 0 -2.203125 -0.59375q-0.90625 -0.59375 -1.34375 -1.640625q-0.421875 -1.0625 -0.421875 -2.15625q0 -1.828125 1.09375 -3.046875q1.109375 -1.234375 2.796875 -1.234375zm-2.453125 3.53125l4.75 0q-0.0625 -1.0 -0.734375 -1.65625q-0.65625 -0.671875 -1.65625 -0.671875q-0.9375 0 -1.609375 0.640625q-0.65625 0.625 -0.75 1.6875zm10.984375 -3.53125q1.6875 0 2.390625 0.609375q0.71875 0.59375 0.71875 1.609375q0 4.296875 0 4.765625q0 0.46875 0.421875 0.46875q0.09375 0 0.203125 -0.015625q0.109375 -0.03125 0.21875 -0.0625l0 1.0625q-0.1875 0.109375 -0.4375 0.171875q-0.25 0.0625 -0.53125 0.0625q-0.5625 0 -0.859375 -0.3125q-0.296875 -0.328125 -0.296875 -0.984375q-0.546875 0.640625 -1.28125 0.96875q-0.734375 0.328125 -1.640625 0.328125q-1.28125 0 -2.015625 -0.609375q-0.71875 -0.609375 -0.71875 -1.71875q0 -1.125 0.703125 -1.765625q0.71875 -0.65625 3.359375 -0.984375q0.890625 -0.125 1.203125 -0.34375q0.3125 -0.234375 0.3125 -0.6875q0 -0.6875 -0.4375 -1.015625q-0.4375 -0.34375 -1.40625 -0.34375q-1.0 0 -1.515625 0.390625q-0.5 0.375 -0.53125 1.171875l-1.359375 0q0.0625 -1.375 0.96875 -2.0625q0.90625 -0.703125 2.53125 -0.703125zm-2.390625 6.234375q0 0.578125 0.421875 0.90625q0.421875 0.3125 1.1875 0.3125q1.140625 0 1.828125 -0.5625q0.6875 -0.578125 0.6875 -1.28125l0 -1.421875q-0.34375 0.25 -0.890625 0.34375q-0.546875 0.078125 -1.453125 0.203125q-0.90625 0.125 -1.34375 0.484375q-0.4375 0.359375 -0.4375 1.015625zm15.0 -9.1875l0 11.421875l-1.359375 0l0 -1.125l-0.03125 0q-0.328125 0.640625 -1.03125 0.984375q-0.6875 0.34375 -1.609375 0.34375q-1.734375 0 -2.78125 -1.203125q-1.03125 -1.21875 -1.03125 -3.15625q0 -1.921875 1.0 -3.109375q1.015625 -1.203125 2.765625 -1.203125q0.8125 0 1.546875 0.328125q0.734375 0.328125 1.140625 0.96875l0.03125 0l0 -4.25l1.359375 0zm-6.40625 7.34375q0 1.34375 0.6875 2.203125q0.703125 0.859375 1.875 0.859375q1.203125 0 1.859375 -0.859375q0.671875 -0.859375 0.671875 -2.25q0 -1.421875 -0.6875 -2.28125q-0.671875 -0.859375 -1.9375 -0.859375q-1.171875 0 -1.828125 0.859375q-0.640625 0.84375 -0.640625 2.328125z" fill-rule="nonzero"/><path fill="#000000" fill-opacity="0.0" d="m64.423935 41.63939l543.0236 0l0 79.338585l-543.0236 0z" fill-rule="evenodd"/><path fill="#013a3b" d="m86.22081 102.940475q-3.59375 0 -6.046875 -1.34375q-2.4375 -1.34375 -3.703125 -3.65625q-1.25 -2.328125 -1.25 -5.25l0 -1.1875l3.359375 0l0 0.953125q0 3.640625 2.03125 5.5q2.046875 1.859375 5.609375 1.859375q3.125 0 4.703125 -1.390625q1.578125 -1.40625 1.578125 -3.640625l0 -0.25q0 -2.203125 -1.625 -3.359375q-1.609375 -1.15625 -5.25 -1.671875q-4.203125 -0.609375 -6.703125 -2.390625q-2.5 -1.78125 -2.5 -5.375l0 -0.484375q0 -2.1875 1.171875 -3.84375q1.1875 -1.671875 3.265625 -2.625q2.078125 -0.96875 4.796875 -0.96875q3.171875 0 5.390625 1.171875q2.21875 1.15625 3.390625 3.0625q1.1875 1.890625 1.1875 4.171875l0 1.671875l-3.359375 0l0 -1.4375q0 -1.84375 -0.921875 -3.0625q-0.921875 -1.21875 -2.453125 -1.828125q-1.515625 -0.625 -3.265625 -0.625q-1.515625 0 -2.859375 0.515625q-1.34375 0.515625 -2.171875 1.5q-0.8125 0.984375 -0.8125 2.421875l0 0.234375q0 2.328125 1.875 3.390625q1.890625 1.0625 5.640625 1.609375q4.40625 0.640625 6.484375 2.5625q2.078125 1.921875 2.078125 5.125l0 0.484375q0 3.640625 -2.46875 5.90625q-2.453125 2.25 -7.171875 2.25zm22.839355 0q-2.59375 0 -4.703125 -1.171875q-2.09375 -1.1875 -3.34375 -3.4375q-1.234375 -2.265625 -1.234375 -5.546875l0 -0.640625q0 -3.25 1.234375 -5.53125q1.25 -2.28125 3.34375 -3.453125q2.109375 -1.1875 4.625 -1.1875q2.046875 0 3.703125 0.90625q1.65625 0.90625 2.625 2.78125l0.46875 0l0 -3.125l3.125 0l0 15.765625q0 1.203125 1.078125 1.203125l1.0 0l0 2.875l-2.125 0q-1.234375 0 -2.15625 -0.796875q-0.921875 -0.796875 -0.921875 -2.5625l-0.46875 0q-0.96875 1.953125 -2.671875 2.9375q-1.6875 0.984375 -3.578125 0.984375zm0.328125 -2.96875q2.796875 0 4.59375 -2.0q1.796875 -2.0 1.796875 -5.28125l0 -0.46875q0 -2.125 -0.84375 -3.765625q-0.828125 -1.640625 -2.28125 -2.578125q-1.4375 -0.9375 -3.265625 -0.9375q-1.84375 0 -3.28125 0.90625q-1.4375 0.890625 -2.28125 2.515625q-0.84375 1.609375 -0.84375 3.78125l0 0.640625q0 3.359375 1.796875 5.28125q1.8125 1.90625 4.609375 1.90625zm14.91748 2.40625l0 -19.84375l3.125 0l0 2.15625l0.46875 0q0.53125 -1.390625 1.53125 -2.046875q1.0 -0.671875 2.359375 -0.671875q1.4375 0 2.375 0.765625q0.9375 0.765625 1.296875 1.953125l0.484375 0q1.359375 -2.71875 4.3125 -2.71875q2.25 0 3.46875 1.421875q1.21875 1.421875 1.21875 3.703125l0 15.28125l-3.125 0l0 -14.234375q0 -1.40625 -0.640625 -2.296875q-0.640625 -0.90625 -2.03125 -0.90625q-1.328125 0 -2.15625 1.0q-0.8125 1.0 -0.8125 3.0l0 13.4375l-3.109375 0l0 -14.40625q0 -1.3125 -0.734375 -2.171875q-0.71875 -0.859375 -1.90625 -0.859375q-1.453125 0 -2.234375 1.046875q-0.765625 1.03125 -0.765625 2.703125l0 13.6875l-3.125 0zm25.32373 8.0l0 -27.84375l3.109375 0l0 3.125l0.484375 0q1.046875 -1.796875 2.875 -2.734375q1.84375 -0.953125 4.0 -0.953125q2.453125 0 4.53125 1.1875q2.078125 1.171875 3.328125 3.4375q1.265625 2.265625 1.265625 5.46875l0 0.796875q0 3.234375 -1.25 5.484375q-1.234375 2.234375 -3.328125 3.421875q-2.09375 1.171875 -4.625 1.171875q-1.921875 0 -3.84375 -0.890625q-1.90625 -0.90625 -2.953125 -2.71875l-0.484375 0l0 11.046875l-3.109375 0zm9.75 -10.40625q2.84375 0 4.734375 -1.90625q1.90625 -1.921875 1.90625 -5.203125l0 -0.796875q0 -2.125 -0.875 -3.71875q-0.875 -1.609375 -2.375 -2.5q-1.5 -0.90625 -3.390625 -0.90625q-1.828125 0 -3.328125 0.9375q-1.5 0.9375 -2.40625 2.578125q-0.90625 1.640625 -0.90625 3.765625l0 0.46875q0 2.203125 0.875 3.84375q0.890625 1.640625 2.40625 2.546875q1.53125 0.890625 3.359375 0.890625zm15.44873 2.40625l0 -2.875l7.203125 0l0 -22.25l-6.96875 0l0 -2.875l10.078125 0l0 25.125l7.203125 0l0 2.875l-17.515625 0zm33.308105 0.5625q-2.828125 0 -5.015625 -1.296875q-2.171875 -1.3125 -3.421875 -3.609375q-1.234375 -2.296875 -1.234375 -5.34375l0 -0.953125q0 -2.796875 1.28125 -5.0q1.28125 -2.203125 3.5 -3.484375q2.21875 -1.28125 4.984375 -1.28125q2.4375 0 4.21875 0.890625q1.78125 0.875 2.921875 2.234375q1.140625 1.359375 1.671875 2.90625q0.546875 1.53125 0.546875 2.859375l0 2.5625l-16.0 0q0.109375 2.90625 1.84375 4.734375q1.75 1.8125 4.796875 1.8125q2.828125 0 4.234375 -1.1875q1.40625 -1.203125 1.921875 -2.890625l2.953125 0.796875q-0.828125 2.765625 -3.09375 4.515625q-2.265625 1.734375 -6.109375 1.734375zm-6.46875 -12.40625l12.796875 0q-0.078125 -1.71875 -0.984375 -2.96875q-0.890625 -1.265625 -2.296875 -1.9375q-1.40625 -0.6875 -2.953125 -0.6875q-2.640625 0 -4.453125 1.609375q-1.796875 1.59375 -2.109375 3.984375zm53.67871 11.84375l0 -24.875l-8.15625 0l0 -3.125l19.67186 0l0 3.125l-8.15625 0l0 24.875l-3.3593597 0zm26.354965 -22.953125q-1.125 0 -1.96875 -0.84375q-0.828125 -0.84375 -0.828125 -1.96875q0 -1.15625 0.828125 -1.96875q0.84375 -0.828125 1.96875 -0.828125q1.15625 0 1.96875 0.828125q0.828125 0.8125 0.828125 1.96875q0 1.125 -0.828125 1.96875q-0.8125 0.84375 -1.96875 0.84375zm-8.484375 22.953125l0 -2.875l6.96875 0l0 -14.078125l-6.234375 0l0 -2.890625l9.359375 0l0 16.96875l6.46875 0l0 2.875l-16.5625 0zm32.651855 0q-1.359375 0 -2.21875 -0.875q-0.859375 -0.890625 -0.859375 -2.25l0 -13.828125l-6.25 0l0 -2.890625l6.25 0l0 -8.15625l3.109375 0l0 8.15625l7.6875 0l0 2.890625l-7.6875 0l0 12.875q0 1.203125 1.078125 1.203125l5.640625 0l0 2.875l-6.75 0zm15.839355 0l0 -2.875l7.203125 0l0 -22.25l-6.96875 0l0 -2.875l10.078125 0l0 25.125l7.203125 0l0 2.875l-17.515625 0zm33.308105 0.5625q-2.828125 0 -5.015625 -1.296875q-2.171875 -1.3125 -3.421875 -3.609375q-1.234375 -2.296875 -1.234375 -5.34375l0 -0.953125q0 -2.796875 1.28125 -5.0q1.28125 -2.203125 3.5 -3.484375q2.21875 -1.28125 4.984375 -1.28125q2.4375 0 4.21875 0.890625q1.78125 0.875 2.921875 2.234375q1.140625 1.359375 1.671875 2.90625q0.546875 1.53125 0.546875 2.859375l0 2.5625l-16.0 0q0.109375 2.90625 1.84375 4.734375q1.75 1.8125 4.796875 1.8125q2.828125 0 4.234375 -1.1875q1.40625 -1.203125 1.921875 -2.890625l2.953125 0.796875q-0.828125 2.765625 -3.09375 4.515625q-2.265625 1.734375 -6.109375 1.734375zm-6.46875 -12.40625l12.796875 0q-0.078125 -1.71875 -0.984375 -2.96875q-0.890625 -1.265625 -2.296875 -1.9375q-1.40625 -0.6875 -2.953125 -0.6875q-2.640625 0 -4.453125 1.609375q-1.796875 1.59375 -2.109375 3.984375z" fill-rule="nonzero"/></g></svg>
