<svg version="1.1" viewBox="0.0 0.0 960.0 540.0" fill="none" stroke="none" stroke-linecap="square" stroke-miterlimit="10" xmlns:xlink="http://www.w3.org/1999/xlink" xmlns="http://www.w3.org/2000/svg"><clipPath id="g2d7ced72013_0_195.0"><path d="m0 0l960.0 0l0 540.0l-960.0 0l0 -540.0z" clip-rule="nonzero"/></clipPath><g clip-path="url(#g2d7ced72013_0_195.0)"><path fill="#013a3b" d="m0 0l960.0 0l0 540.0l-960.0 0z" fill-rule="evenodd"/><path fill="#000000" fill-opacity="0.0" d="m574.33594 412.38846l352.9449 0l0 94.897644l-352.9449 0z" fill-rule="evenodd"/><path fill="#d0fdf2" d="m865.2679 457.77048l0 1.765625l-5.015625 0l0 2.03125l4.609375 0l0 1.625l-4.609375 0l0 2.34375l5.125 0l0 1.75l-7.21875 0l0 -9.515625l7.109375 0zm5.2922363 2.4375q0.765625 0 1.265625 0.296875q0.515625 0.296875 0.75 0.859375q0.390625 -0.5625 0.921875 -0.859375q0.53125 -0.296875 1.171875 -0.296875q1.25 0 1.875 0.640625q0.625 0.640625 0.625 1.765625l0 4.671875l-1.890625 0l0 -3.984375q0 -0.9375 -0.28125 -1.265625q-0.265625 -0.328125 -0.875 -0.328125q-0.640625 0 -0.953125 0.4375q-0.3125 0.421875 -0.3125 1.25l0 3.890625l-1.890625 0l0 -4.25q0 -0.671875 -0.265625 -1.0q-0.265625 -0.328125 -0.875 -0.328125q-0.546875 0 -0.921875 0.421875q-0.359375 0.40625 -0.359375 1.109375l0 4.046875l-1.890625 0l0 -6.890625l1.78125 0l0 0.9375l0.015625 0q0.40625 -0.5625 0.9375 -0.84375q0.53125 -0.28125 1.171875 -0.28125zm10.0564575 -2.4375l0 1.5625l-1.890625 0l0 -1.5625l1.890625 0zm0 2.625l0 6.890625l-1.890625 0l0 -6.890625l1.890625 0zm3.4361572 -2.625l0 9.515625l-1.890625 0l0 -9.515625l1.890625 0zm2.7174072 2.625l1.546875 4.71875l0.03125 0l1.5 -4.71875l1.96875 0l-2.9375 7.890625q-0.25 0.6875 -0.796875 1.046875q-0.53125 0.375 -1.390625 0.375q-0.421875 0 -0.703125 -0.015625q-0.28125 -0.015625 -0.578125 -0.046875l0 -1.5625q0.34375 0.046875 0.5625 0.046875q0.21875 0.015625 0.421875 0.015625q0.40625 0 0.625 -0.25q0.21875 -0.234375 0.21875 -0.609375q0 -0.09375 -0.015625 -0.1875q0 -0.09375 -0.0625 -0.234375l-2.421875 -6.46875l2.03125 0zm11.68335 -2.625l0 7.765625l4.640625 0l0 1.75l-6.734375 0l0 -9.515625l2.09375 0zm8.706543 2.4375q1.625 0 2.59375 1.0q0.984375 1.0 0.984375 2.640625q0 1.640625 -0.984375 2.640625q-0.984375 0.984375 -2.59375 0.984375q-1.59375 0 -2.578125 -0.984375q-0.984375 -1.0 -0.984375 -2.640625q0 -1.625 0.96875 -2.625q0.96875 -1.015625 2.59375 -1.015625zm-1.65625 3.640625q0 1.09375 0.4375 1.65625q0.453125 0.546875 1.21875 0.546875q0.8125 0 1.25 -0.578125q0.4375 -0.578125 0.4375 -1.625q0 -1.03125 -0.421875 -1.625q-0.421875 -0.59375 -1.28125 -0.59375q-0.75 0 -1.203125 0.5625q-0.4375 0.546875 -0.4375 1.65625zm10.406982 -3.640625q1.328125 0 1.921875 0.671875q0.59375 0.671875 0.59375 2.09375l0 4.3125l-1.890625 0l0 -3.953125q0 -0.796875 -0.28125 -1.203125q-0.28125 -0.421875 -0.9375 -0.421875q-0.78125 0 -1.125 0.46875q-0.34375 0.46875 -0.34375 1.4375l0 3.671875l-1.890625 0l0 -6.890625l1.796875 0l0 0.96875l0.046875 0q0.34375 -0.5625 0.890625 -0.859375q0.5625 -0.296875 1.21875 -0.296875zm6.6974487 0q0.75 0 1.234375 0.28125q0.5 0.28125 0.8125 0.828125l0.03125 0l0 -0.921875l1.796875 0l0 6.5q0 1.390625 -0.890625 2.1875q-0.875 0.8125 -2.671875 0.8125q-1.21875 0 -2.09375 -0.59375q-0.875 -0.578125 -0.953125 -1.625l1.875 0q0.125 0.5 0.484375 0.71875q0.375 0.234375 0.921875 0.234375q0.734375 0 1.125 -0.4375q0.40625 -0.4375 0.40625 -1.21875l0 -0.953125l-0.03125 0q-0.28125 0.5 -0.828125 0.78125q-0.53125 0.28125 -1.234375 0.28125q-1.390625 0 -2.171875 -0.921875q-0.78125 -0.921875 -0.78125 -2.53125q0 -1.46875 0.8125 -2.4375q0.8125 -0.984375 2.15625 -0.984375zm-1.0625 3.390625q0 0.96875 0.390625 1.515625q0.40625 0.546875 1.140625 0.546875q0.734375 0 1.171875 -0.546875q0.4375 -0.546875 0.4375 -1.375q0 -1.0 -0.421875 -1.546875q-0.40625 -0.5625 -1.203125 -0.5625q-0.703125 0 -1.109375 0.546875q-0.40625 0.53125 -0.40625 1.421875z" fill-rule="nonzero"/><path fill="#d0fdf2" d="m820.28033 475.9361q1.578125 0 2.640625 0.828125q1.0625 0.8125 1.28125 2.265625l-1.265625 0q-0.21875 -0.96875 -0.921875 -1.484375q-0.703125 -0.53125 -1.75 -0.53125q-1.515625 0 -2.375 1.0625q-0.84375 1.0625 -0.84375 2.78125q0 1.828125 0.828125 2.90625q0.84375 1.078125 2.40625 1.078125q1.15625 0 1.90625 -0.734375q0.75 -0.734375 0.84375 -2.0l1.265625 0q-0.203125 1.84375 -1.28125 2.828125q-1.078125 0.984375 -2.84375 0.984375q-2.046875 0 -3.21875 -1.359375q-1.171875 -1.359375 -1.171875 -3.609375q0 -2.21875 1.203125 -3.609375q1.21875 -1.40625 3.296875 -1.40625zm12.156372 0.234375l0 1.0625l-5.3125 0l0 3.03125l4.953125 0l0 1.0625l-4.953125 0l0 3.296875l5.359375 0l0 1.0625l-6.609375 0l0 -9.515625l6.5625 0zm5.5944824 -0.234375q1.390625 0 2.40625 0.65625q1.03125 0.640625 1.59375 1.796875q0.5625 1.15625 0.5625 2.546875q0 1.390625 -0.5625 2.546875q-0.546875 1.15625 -1.59375 1.796875q-1.03125 0.640625 -2.40625 0.640625q-1.375 0 -2.40625 -0.640625q-1.03125 -0.640625 -1.59375 -1.796875q-0.5625 -1.15625 -0.5625 -2.546875q0 -2.171875 1.234375 -3.578125q1.25 -1.421875 3.328125 -1.421875zm-3.296875 5.0q0 1.046875 0.390625 1.96875q0.390625 0.921875 1.140625 1.4375q0.75 0.5 1.765625 0.5q1.53125 0 2.40625 -1.09375q0.890625 -1.109375 0.890625 -2.8125q0 -1.703125 -0.875 -2.8125q-0.875 -1.109375 -2.4375 -1.109375q-1.53125 0 -2.40625 1.125q-0.875 1.109375 -0.875 2.796875zm15.829224 -4.765625q0.984375 0 1.640625 0.53125q0.65625 0.53125 0.65625 1.421875q0 0.703125 -0.453125 1.328125q-0.453125 0.625 -1.328125 1.125l1.71875 2.09375q0.125 -0.34375 0.203125 -0.703125q0.078125 -0.375 0.109375 -0.765625l1.078125 0q-0.09375 0.8125 -0.21875 1.234375q-0.109375 0.40625 -0.4375 1.109375l1.859375 2.140625l-1.46875 0l-1.015625 -1.171875q-0.421875 0.625 -1.15625 0.984375q-0.71875 0.34375 -1.546875 0.34375q-1.4375 0 -2.203125 -0.734375q-0.765625 -0.75 -0.765625 -1.875q0 -0.875 0.515625 -1.5625q0.515625 -0.6875 1.71875 -1.296875l-0.453125 -0.609375q-0.296875 -0.40625 -0.453125 -0.78125q-0.15625 -0.390625 -0.15625 -0.859375q0 -0.8125 0.59375 -1.375q0.59375 -0.578125 1.5625 -0.578125zm-1.015625 2.0q0 0.3125 0.171875 0.65625q0.1875 0.328125 0.734375 1.015625q0.75 -0.46875 1.015625 -0.84375q0.265625 -0.390625 0.265625 -0.8125q0 -0.421875 -0.3125 -0.71875q-0.296875 -0.296875 -0.796875 -0.296875q-0.421875 0 -0.75 0.28125q-0.328125 0.265625 -0.328125 0.71875zm-1.109375 5.0625q0 0.6875 0.546875 1.15625q0.546875 0.453125 1.265625 0.453125q0.625 0 1.140625 -0.296875q0.515625 -0.296875 0.890625 -0.828125l-2.203125 -2.625q-0.890625 0.484375 -1.265625 0.984375q-0.375 0.484375 -0.375 1.15625zm15.535645 -7.296875q1.578125 0 2.640625 0.828125q1.0625 0.8125 1.28125 2.265625l-1.265625 0q-0.21875 -0.96875 -0.921875 -1.484375q-0.703125 -0.53125 -1.75 -0.53125q-1.515625 0 -2.375 1.0625q-0.84375 1.0625 -0.84375 2.78125q0 1.828125 0.828125 2.90625q0.84375 1.078125 2.40625 1.078125q1.15625 0 1.90625 -0.734375q0.75 -0.734375 0.84375 -2.0l1.265625 0q-0.203125 1.84375 -1.28125 2.828125q-1.078125 0.984375 -2.84375 0.984375q-2.046875 0 -3.21875 -1.359375q-1.171875 -1.359375 -1.171875 -3.609375q0 -2.21875 1.203125 -3.609375q1.21875 -1.40625 3.296875 -1.40625zm8.375183 2.703125q1.5625 0 2.453125 1.015625q0.890625 1.0 0.890625 2.59375q0 1.609375 -0.921875 2.609375q-0.90625 0.984375 -2.421875 0.984375q-1.5 0 -2.421875 -0.96875q-0.921875 -0.984375 -0.921875 -2.625q0 -1.640625 0.90625 -2.625q0.90625 -0.984375 2.4375 -0.984375zm-2.15625 3.609375q0 1.1875 0.609375 1.890625q0.609375 0.703125 1.546875 0.703125q0.921875 0 1.53125 -0.703125q0.609375 -0.71875 0.609375 -1.890625q0 -1.171875 -0.609375 -1.890625q-0.59375 -0.71875 -1.546875 -0.71875q-0.90625 0 -1.53125 0.703125q-0.609375 0.703125 -0.609375 1.90625zm10.497009 -0.796875l0 1.0625l-3.859375 0l0 -1.0625l3.859375 0zm3.8898926 -5.390625q0.140625 0 0.359375 0.03125q0.234375 0.03125 0.375 0.078125l0 0.984375q-0.125 -0.046875 -0.3125 -0.0625q-0.1875 -0.03125 -0.328125 -0.03125q-0.46875 0 -0.671875 0.203125q-0.1875 0.1875 -0.1875 0.546875l0 0.984375l1.328125 0l0 1.0l-1.328125 0l0 5.890625l-1.125 0l0 -5.890625l-1.171875 0l0 -1.0l1.171875 0l0 -1.078125q0 -0.765625 0.46875 -1.203125q0.484375 -0.453125 1.421875 -0.453125zm4.5531616 2.578125q1.5625 0 2.453125 1.015625q0.890625 1.0 0.890625 2.59375q0 1.609375 -0.921875 2.609375q-0.90625 0.984375 -2.421875 0.984375q-1.5 0 -2.421875 -0.96875q-0.921875 -0.984375 -0.921875 -2.625q0 -1.640625 0.90625 -2.625q0.90625 -0.984375 2.4375 -0.984375zm-2.15625 3.609375q0 1.1875 0.609375 1.890625q0.609375 0.703125 1.546875 0.703125q0.921875 0 1.53125 -0.703125q0.609375 -0.71875 0.609375 -1.890625q0 -1.171875 -0.609375 -1.890625q-0.59375 -0.71875 -1.546875 -0.71875q-0.90625 0 -1.53125 0.703125q-0.609375 0.703125 -0.609375 1.90625zm7.9657593 -3.453125l0 4.703125q0 0.578125 0.375 0.96875q0.375 0.375 1.03125 0.375q0.96875 0 1.5 -0.59375q0.53125 -0.59375 0.53125 -1.515625l0 -3.9375l1.140625 0l0 6.890625l-1.0625 0l0 -1.09375l-0.03125 0q-0.375 0.65625 -0.953125 0.953125q-0.5625 0.296875 -1.296875 0.296875q-1.203125 0 -1.78125 -0.609375q-0.578125 -0.625 -0.578125 -1.84375l0 -4.59375l1.125 0zm9.615601 -0.15625q1.25 0 1.8125 0.640625q0.5625 0.640625 0.5625 1.8125l0 4.59375l-1.140625 0l0 -4.703125q0 -0.59375 -0.375 -0.96875q-0.375 -0.375 -1.03125 -0.375q-0.953125 0 -1.5 0.59375q-0.53125 0.578125 -0.53125 1.515625l0 3.9375l-1.125 0l0 -6.890625l1.0625 0l0 1.09375l0.03125 0q0.375 -0.640625 0.921875 -0.9375q0.546875 -0.3125 1.3125 -0.3125zm10.240601 -2.46875l0 9.515625l-1.140625 0l0 -0.9375l-0.03125 0q-0.265625 0.546875 -0.84375 0.828125q-0.578125 0.265625 -1.34375 0.265625q-1.453125 0 -2.3125 -1.0q-0.859375 -1.0 -0.859375 -2.625q0 -1.59375 0.828125 -2.578125q0.84375 -1.0 2.3125 -1.0q0.671875 0 1.28125 0.28125q0.609375 0.265625 0.9375 0.796875l0.03125 0l0 -3.546875l1.140625 0zm-5.34375 6.125q0 1.109375 0.578125 1.828125q0.578125 0.71875 1.5625 0.71875q1.0 0 1.546875 -0.71875q0.5625 -0.71875 0.5625 -1.875q0 -1.171875 -0.578125 -1.890625q-0.5625 -0.71875 -1.609375 -0.71875q-0.984375 0 -1.53125 0.71875q-0.53125 0.703125 -0.53125 1.9375zm9.947388 -3.65625q1.484375 0 2.296875 1.078125q0.828125 1.0625 0.828125 2.734375l0 0.125l-5.171875 0l0 0.09375q0 0.984375 0.578125 1.578125q0.578125 0.59375 1.578125 0.59375q0.75 0 1.1875 -0.34375q0.453125 -0.359375 0.59375 -1.0l1.125 0q-0.234375 1.140625 -1.015625 1.75q-0.765625 0.59375 -1.9375 0.59375q-1.078125 0 -1.828125 -0.484375q-0.75 -0.484375 -1.109375 -1.359375q-0.359375 -0.890625 -0.359375 -1.796875q0 -1.53125 0.90625 -2.546875q0.921875 -1.015625 2.328125 -1.015625zm-2.046875 2.9375l3.96875 0q-0.0625 -0.84375 -0.625 -1.390625q-0.546875 -0.546875 -1.375 -0.546875q-0.78125 0 -1.34375 0.53125q-0.546875 0.515625 -0.625 1.40625zm9.768066 -2.9375q0.046875 0 0.078125 0q0.03125 0 0.078125 0l0 1.203125q-1.28125 0 -1.890625 0.671875q-0.59375 0.671875 -0.59375 2.09375l0 3.078125l-1.140625 0l0 -6.890625l1.0625 0l0 1.453125l0.03125 0q0.390625 -0.828125 0.96875 -1.21875q0.59375 -0.390625 1.40625 -0.390625z" fill-rule="nonzero"/><path fill="#d0fdf2" d="m830.30334 497.0392q1.484375 0 2.296875 1.078125q0.828125 1.0625 0.828125 2.734375l0 0.125l-5.171875 0l0 0.09375q0 0.984375 0.578125 1.578125q0.578125 0.59375 1.578125 0.59375q0.75 0 1.1875 -0.34375q0.453125 -0.359375 0.59375 -1.0l1.125 0q-0.234375 1.140625 -1.015625 1.75q-0.765625 0.59375 -1.9375 0.59375q-1.078125 0 -1.828125 -0.484375q-0.75 -0.484375 -1.109375 -1.359375q-0.359375 -0.890625 -0.359375 -1.796875q0 -1.53125 0.90625 -2.546875q0.921875 -1.015625 2.328125 -1.015625zm-2.046875 2.9375l3.96875 0q-0.0625 -0.84375 -0.625 -1.390625q-0.546875 -0.546875 -1.375 -0.546875q-0.78125 0 -1.34375 0.53125q-0.546875 0.515625 -0.625 1.40625zm9.658691 -2.9375q0.75 0 1.234375 0.3125q0.484375 0.296875 0.65625 0.859375q0.359375 -0.5625 0.921875 -0.859375q0.5625 -0.3125 1.25 -0.3125q1.15625 0 1.71875 0.53125q0.5625 0.515625 0.5625 1.421875l0 5.09375l-1.125 0l0 -4.5625q0 -0.75 -0.328125 -1.109375q-0.3125 -0.375 -1.015625 -0.375q-0.84375 0 -1.328125 0.5q-0.46875 0.484375 -0.46875 1.21875l0 4.328125l-1.140625 0l0 -4.5625q0 -0.75 -0.3125 -1.109375q-0.3125 -0.375 -0.96875 -0.375q-0.546875 0 -0.96875 0.265625q-0.40625 0.25 -0.640625 0.703125q-0.234375 0.453125 -0.234375 0.765625l0 4.3125l-1.125 0l0 -6.890625l1.0625 0l0 1.015625l0.03125 0q0.390625 -0.59375 0.9375 -0.875q0.546875 -0.296875 1.28125 -0.296875zm9.244263 -2.46875l0 1.390625l-1.125 0l0 -1.390625l1.125 0zm0 2.625l0 6.890625l-1.125 0l0 -6.890625l1.125 0zm2.9610596 -2.625l0 9.515625l-1.125 0l0 -9.515625l1.125 0zm2.3048706 2.625l2.0 5.640625l0.03125 0l1.9375 -5.640625l1.203125 0l-2.9375 7.625q-0.453125 1.1875 -0.890625 1.609375q-0.421875 0.421875 -1.171875 0.421875q-0.203125 0 -0.40625 -0.03125q-0.1875 -0.03125 -0.375 -0.09375l0 -1.046875q0.15625 0.0625 0.3125 0.109375q0.171875 0.046875 0.34375 0.046875q0.6875 0 0.953125 -0.6875q0.28125 -0.6875 0.453125 -1.09375l-2.734375 -6.859375l1.28125 0zm10.7734375 -2.859375q1.890625 0 3.203125 1.1875q1.328125 1.171875 1.328125 2.921875q0 1.046875 -0.484375 1.953125q-0.484375 0.890625 -1.234375 1.40625q-0.75 0.515625 -1.390625 0.515625q-0.375 0 -0.609375 -0.234375q-0.21875 -0.234375 -0.25 -0.640625l-0.03125 0q-0.390625 0.4375 -0.828125 0.671875q-0.421875 0.21875 -0.828125 0.21875q-0.828125 0 -1.375 -0.59375q-0.53125 -0.609375 -0.53125 -1.515625q0 -1.484375 0.90625 -2.625q0.921875 -1.15625 2.21875 -1.15625q0.53125 0 0.90625 0.28125q0.390625 0.28125 0.59375 0.8125l0.3125 -0.84375l0.828125 0l-1.109375 3.765625q-0.109375 0.34375 -0.140625 0.46875q-0.015625 0.125 -0.015625 0.234375q0 0.203125 0.078125 0.3125q0.078125 0.109375 0.234375 0.109375q0.609375 0 1.21875 -1.0q0.625 -1.015625 0.625 -2.078125q0 -1.46875 -1.0625 -2.4375q-1.046875 -0.984375 -2.546875 -0.984375q-1.671875 0 -2.859375 1.28125q-1.1875 1.265625 -1.1875 2.984375q0 1.734375 1.203125 2.984375q1.21875 1.25 2.90625 1.25q0.9375 0 1.828125 -0.4375q0.90625 -0.4375 1.484375 -1.1875l0.84375 0q-0.640625 1.09375 -1.765625 1.734375q-1.125 0.625 -2.40625 0.625q-1.359375 0 -2.53125 -0.65625q-1.15625 -0.671875 -1.8125 -1.828125q-0.65625 -1.171875 -0.65625 -2.546875q0 -2.03125 1.453125 -3.484375q1.46875 -1.46875 3.484375 -1.46875zm-2.03125 5.8125q0 0.53125 0.3125 0.90625q0.3125 0.375 0.828125 0.375q0.8125 0 1.4375 -0.953125q0.625 -0.96875 0.625 -1.875q0 -0.46875 -0.328125 -0.859375q-0.3125 -0.390625 -0.765625 -0.390625q-0.828125 0 -1.46875 0.921875q-0.640625 0.90625 -0.640625 1.875zm10.909851 -3.109375q1.484375 0 2.296875 1.078125q0.828125 1.0625 0.828125 2.734375l0 0.125l-5.171875 0l0 0.09375q0 0.984375 0.578125 1.578125q0.578125 0.59375 1.578125 0.59375q0.75 0 1.1875 -0.34375q0.453125 -0.359375 0.59375 -1.0l1.125 0q-0.234375 1.140625 -1.015625 1.75q-0.765625 0.59375 -1.9375 0.59375q-1.078125 0 -1.828125 -0.484375q-0.75 -0.484375 -1.109375 -1.359375q-0.359375 -0.890625 -0.359375 -1.796875q0 -1.53125 0.90625 -2.546875q0.921875 -1.015625 2.328125 -1.015625zm-2.046875 2.9375l3.96875 0q-0.0625 -0.84375 -0.625 -1.390625q-0.546875 -0.546875 -1.375 -0.546875q-0.78125 0 -1.34375 0.53125q-0.546875 0.515625 -0.625 1.40625zm12.502441 -5.40625l0 9.515625l-1.140625 0l0 -0.9375l-0.03125 0q-0.265625 0.546875 -0.84375 0.828125q-0.578125 0.265625 -1.34375 0.265625q-1.453125 0 -2.3125 -1.0q-0.859375 -1.0 -0.859375 -2.625q0 -1.59375 0.828125 -2.578125q0.84375 -1.0 2.3125 -1.0q0.671875 0 1.28125 0.28125q0.609375 0.265625 0.9375 0.796875l0.03125 0l0 -3.546875l1.140625 0zm-5.34375 6.125q0 1.109375 0.578125 1.828125q0.578125 0.71875 1.5625 0.71875q1.0 0 1.546875 -0.71875q0.5625 -0.71875 0.5625 -1.875q0 -1.171875 -0.578125 -1.890625q-0.5625 -0.71875 -1.609375 -0.71875q-0.984375 0 -1.53125 0.71875q-0.53125 0.703125 -0.53125 1.9375zm9.947449 -3.65625q1.484375 0 2.296875 1.078125q0.828125 1.0625 0.828125 2.734375l0 0.125l-5.171875 0l0 0.09375q0 0.984375 0.578125 1.578125q0.578125 0.59375 1.578125 0.59375q0.75 0 1.1875 -0.34375q0.453125 -0.359375 0.59375 -1.0l1.125 0q-0.234375 1.140625 -1.015625 1.75q-0.765625 0.59375 -1.9375 0.59375q-1.078125 0 -1.828125 -0.484375q-0.75 -0.484375 -1.109375 -1.359375q-0.359375 -0.890625 -0.359375 -1.796875q0 -1.53125 0.90625 -2.546875q0.921875 -1.015625 2.328125 -1.015625zm-2.046875 2.9375l3.96875 0q-0.0625 -0.84375 -0.625 -1.390625q-0.546875 -0.546875 -1.375 -0.546875q-0.78125 0 -1.34375 0.53125q-0.546875 0.515625 -0.625 1.40625zm9.768005 -2.9375q0.046875 0 0.078125 0q0.03125 0 0.078125 0l0 1.203125q-1.28125 0 -1.890625 0.671875q-0.59375 0.671875 -0.59375 2.09375l0 3.078125l-1.140625 0l0 -6.890625l1.0625 0l0 1.453125l0.03125 0q0.390625 -0.828125 0.96875 -1.21875q0.59375 -0.390625 1.40625 -0.390625zm3.5100098 0q1.40625 0 1.984375 0.5q0.59375 0.5 0.59375 1.34375q0 3.578125 0 3.96875q0 0.390625 0.359375 0.390625q0.078125 0 0.171875 -0.015625q0.09375 -0.015625 0.171875 -0.046875l0 0.875q-0.15625 0.09375 -0.359375 0.140625q-0.203125 0.046875 -0.4375 0.046875q-0.46875 0 -0.71875 -0.25q-0.25 -0.265625 -0.25 -0.8125q-0.453125 0.53125 -1.0625 0.796875q-0.609375 0.265625 -1.359375 0.265625q-1.078125 0 -1.6875 -0.5q-0.59375 -0.5 -0.59375 -1.421875q0 -0.9375 0.59375 -1.46875q0.59375 -0.546875 2.78125 -0.828125q0.734375 -0.09375 1.0 -0.28125q0.265625 -0.1875 0.265625 -0.5625q0 -0.578125 -0.375 -0.859375q-0.359375 -0.28125 -1.15625 -0.28125q-0.84375 0 -1.265625 0.3125q-0.421875 0.3125 -0.453125 0.984375l-1.125 0q0.046875 -1.140625 0.796875 -1.71875q0.765625 -0.578125 2.125 -0.578125zm-2.0 5.1875q0 0.484375 0.34375 0.75q0.359375 0.265625 1.0 0.265625q0.953125 0 1.515625 -0.46875q0.578125 -0.484375 0.578125 -1.0625l0 -1.1875q-0.28125 0.203125 -0.734375 0.28125q-0.453125 0.0625 -1.21875 0.171875q-0.75 0.109375 -1.125 0.40625q-0.359375 0.296875 -0.359375 0.84375zm8.06488 0.375l0 1.484375l-1.46875 0l0 -1.484375l1.46875 0zm8.140503 -8.03125l0 9.515625l-1.140625 0l0 -0.9375l-0.03125 0q-0.265625 0.546875 -0.84375 0.828125q-0.578125 0.265625 -1.34375 0.265625q-1.453125 0 -2.3125 -1.0q-0.859375 -1.0 -0.859375 -2.625q0 -1.59375 0.828125 -2.578125q0.84375 -1.0 2.3125 -1.0q0.671875 0 1.28125 0.28125q0.609375 0.265625 0.9375 0.796875l0.03125 0l0 -3.546875l1.140625 0zm-5.34375 6.125q0 1.109375 0.578125 1.828125q0.578125 0.71875 1.5625 0.71875q1.0 0 1.546875 -0.71875q0.5625 -0.71875 0.5625 -1.875q0 -1.171875 -0.578125 -1.890625q-0.5625 -0.71875 -1.609375 -0.71875q-0.984375 0 -1.53125 0.71875q-0.53125 0.703125 -0.53125 1.9375zm9.947449 -3.65625q1.484375 0 2.296875 1.078125q0.828125 1.0625 0.828125 2.734375l0 0.125l-5.171875 0l0 0.09375q0 0.984375 0.578125 1.578125q0.578125 0.59375 1.578125 0.59375q0.75 0 1.1875 -0.34375q0.453125 -0.359375 0.59375 -1.0l1.125 0q-0.234375 1.140625 -1.015625 1.75q-0.765625 0.59375 -1.9375 0.59375q-1.078125 0 -1.828125 -0.484375q-0.75 -0.484375 -1.109375 -1.359375q-0.359375 -0.890625 -0.359375 -1.796875q0 -1.53125 0.90625 -2.546875q0.921875 -1.015625 2.328125 -1.015625zm-2.046875 2.9375l3.96875 0q-0.0625 -0.84375 -0.625 -1.390625q-0.546875 -0.546875 -1.375 -0.546875q-0.78125 0 -1.34375 0.53125q-0.546875 0.515625 -0.625 1.40625zm6.9398804 -2.78125l1.9375 5.75l0.015625 0l1.890625 -5.75l1.171875 0l-2.515625 6.890625l-1.203125 0l-2.5625 -6.890625l1.265625 0z" fill-rule="nonzero"/><path fill="#000000" fill-opacity="0.0" d="m83.381355 162.75328l792.126 0l0 215.49605l-792.126 0z" fill-rule="evenodd"/><path fill="#02f4d5" d="m111.58448 350.04935l0 -45.921875l-14.890625 0l0 -10.078125l40.328117 0l0 10.078125l-14.874992 0l0 45.921875l-10.5625 0zm36.16308 0l0 -56.0l10.078125 0l0 22.71875l1.4375 0q1.515625 -3.59375 4.46875 -5.546875q2.96875 -1.96875 7.296875 -1.96875q5.90625 0 9.78125 3.84375q3.890625 3.828125 3.890625 12.0l0 24.953125l-10.078125 0l0 -22.5625q0 -4.234375 -2.046875 -6.671875q-2.03125 -2.453125 -5.875 -2.453125q-4.40625 0 -6.640625 3.0q-2.234375 3.0 -2.234375 8.046875l0 20.640625l-10.078125 0zm63.27246 1.125q-4.71875 0 -8.71875 -2.40625q-4.0 -2.40625 -6.40625 -6.953125q-2.390625 -4.5625 -2.390625 -10.96875l0 -1.28125q0 -6.3125 2.3125 -10.875q2.328125 -4.5625 6.203125 -7.0q3.875 -2.4375 8.515625 -2.4375q4.25 0 6.84375 1.4375q2.609375 1.4375 4.125 4.484375l1.4375 0l0 -4.8125l10.078125 0l0 27.6875q0 2.40625 2.15625 2.40625l1.53125 0l0 9.59375l-6.890625 0q-2.71875 0 -4.4375 -1.640625q-1.71875 -1.640625 -1.71875 -4.125l-1.4375 0q-1.515625 3.6875 -4.4375 5.296875q-2.921875 1.59375 -6.765625 1.59375zm2.234375 -9.609375q4.40625 0 7.046875 -2.90625q2.640625 -2.921875 2.640625 -7.96875l0 -0.953125q0 -5.046875 -2.640625 -7.96875q-2.640625 -2.921875 -7.046875 -2.921875q-4.390625 0 -7.03125 2.921875q-2.640625 2.921875 -2.640625 7.96875l0 0.953125q0 5.046875 2.640625 7.96875q2.640625 2.90625 7.03125 2.90625zm32.24121 8.484375l0 -39.6875l10.078125 0l0 5.921875l1.453125 0q1.359375 -3.359375 4.390625 -5.1875q3.046875 -1.84375 7.125 -1.84375q3.84375 0 7.0 1.640625q3.15625 1.640625 5.03125 5.125q1.890625 3.46875 1.890625 8.90625l0 25.125l-10.078125 0l0 -22.5625q0 -4.234375 -2.046875 -6.671875q-2.03125 -2.453125 -5.875 -2.453125q-4.40625 0 -6.65625 3.0q-2.234375 3.0 -2.234375 8.046875l0 20.640625l-10.078125 0zm52.163086 0l0 -56.0l10.078125 0l0 30.875l1.921875 0l10.5625 -14.5625l11.046875 0l0 0.484375l-12.8125 18.15625l0 1.453125l14.078125 19.109375l0 0.484375l-11.515625 0l-11.359375 -15.515625l-1.921875 0l0 15.515625l-10.078125 0zm107.68555 0l0 -19.6875l-2.40625 0l-16.078125 -36.3125l11.515625 0l11.53125 26.71875l1.4375 0l11.515625 -26.71875l11.515625 0l-16.078125 36.3125l-2.390625 0l0 19.6875l-10.5625 0zm54.24121 1.125q-5.4375 0 -10.171875 -2.40625q-4.71875 -2.40625 -7.59375 -6.953125q-2.875 -4.5625 -2.875 -11.125l0 -0.953125q0 -6.484375 2.875 -11.078125q2.875 -4.609375 7.59375 -7.0q4.734375 -2.40625 10.171875 -2.40625q5.4375 0 10.15625 2.40625q4.71875 2.390625 7.59375 7.0q2.890625 4.59375 2.890625 11.078125l0 0.953125q0 6.5625 -2.890625 11.125q-2.875 4.546875 -7.59375 6.953125q-4.71875 2.40625 -10.15625 2.40625zm0 -9.609375q4.390625 0 7.46875 -2.828125q3.09375 -2.84375 3.09375 -7.734375l0 -1.59375q0 -4.953125 -3.09375 -7.75q-3.078125 -2.8125 -7.46875 -2.8125q-4.40625 0 -7.484375 2.8125q-3.078125 2.796875 -3.078125 7.75l0 1.59375q0 4.890625 3.078125 7.734375q3.078125 2.828125 7.484375 2.828125zm44.788086 9.609375q-3.90625 0 -7.109375 -1.71875q-3.203125 -1.71875 -5.09375 -5.28125q-1.875 -3.5625 -1.875 -9.0l0 -24.8125l10.078125 0l0 22.734375q0 4.15625 2.046875 6.5625q2.046875 2.390625 5.953125 2.390625q4.5625 0 6.6875 -2.921875q2.125 -2.921875 2.125 -7.953125l0 -20.8125l10.078125 0l0 39.6875l-10.078125 0l0 -5.765625l-1.4375 0q-2.640625 6.890625 -11.375 6.890625z" fill-rule="nonzero"/></g></svg>
