<?xml version="1.0" encoding="utf-8"?>
<!-- Generator: Adobe Illustrator 21.0.2, SVG Export Plug-In . SVG Version: 6.00 Build 0)  -->
<svg version="1.1" id="Layer_1" xmlns="http://www.w3.org/2000/svg" xmlns:xlink="http://www.w3.org/1999/xlink" x="0px" y="0px"
	 viewBox="0 0 296 346" style="enable-background:new 0 0 296 346;" xml:space="preserve">
<style type="text/css">
	.st0{fill:#1B1C29;}
</style>
<title>JS-FULL-LOGO-POSITIVE</title>
<path class="st0" d="M256,10.8l-157,157c-5,5-5,13.2,0,18.2c5,5,13.2,5,18.2,0l157-157c5-5,5-13.2,0-18.2
	C269.2,5.7,261,5.7,256,10.8L256,10.8z"/>
<path class="st0" d="M246,95.6L170.6,171c-5,5-5,13.2,0,18.2s13.2,5,18.2,0l75.3-75.3c5-5,5-13.2,0-18.2
	C259.2,90.6,251,90.6,246,95.6L246,95.6L246,95.6z"/>
<path class="st0" d="M104.9,118.2c3.4,0,6.7-1.4,9.1-3.8l75.3-75.3c5-5,5-13.2,0-18.2c-5-5-13.2-5-18.2,0L95.8,96.2
	c-5,5-5,13.2,0,18.2C98.2,116.8,101.5,118.2,104.9,118.2z"/>
<path class="st0" d="M228.1,188.4l-33.3,33.3c-5,5-5,13.2,0,18.2s13.2,5,18.2,0l33.3-33.3c5-5,5-13.2,0-18.2
	C241.3,183.3,233.1,183.3,228.1,188.4L228.1,188.4z"/>
<path class="st0" d="M96.7,38.7c-5-5-13.2-5-18.2,0c0,0,0,0,0,0L45.2,72c-5,5-5,13.2,0,18.2c5,5,13.2,5,18.2,0L96.7,57
	C101.7,51.9,101.7,43.8,96.7,38.7C96.7,38.7,96.7,38.7,96.7,38.7z"/>
<g>
	<path class="st0" d="M128.1,301.4c-5.6-1.4-7-2.1-7-4.3v-0.1c0-1.6,1.4-2.8,4.2-2.8c2.7,0,5.6,1.2,8.4,3.2l3.7-5.4
		c-3.4-2.7-7.7-4.2-12.1-4.1c-6.6,0-11.4,3.9-11.4,9.8v0.1c0,6.4,4.2,8.3,10.8,9.9c5.4,1.4,6.5,2.3,6.5,4.1v0.1
		c0,1.9-1.8,3.1-4.7,3.1c-3.7,0-6.8-1.5-9.7-3.9l-4.2,5.1c3.8,3.4,8.7,5.2,13.8,5.2c7,0,11.9-3.6,11.9-10.1v-0.1
		C138.4,305.5,134.7,303.2,128.1,301.4z"/>
	<path class="st0" d="M29.8,309.3c0,3.8-1.7,5.4-4.4,5.4c-2.3,0-4.1-1.2-5.9-3.2l-4.5,5c2.6,3.2,6.5,5,10.6,4.9
		c6.9,0,11.5-3.8,11.5-11.7v-21.2h-7.3V309.3z"/>
	<polygon class="st0" points="55.3,307.7 70.6,307.7 70.6,301.4 55.3,301.4 55.3,294.8 72.6,294.8 72.6,288.4 48.2,288.4 
		48.2,320.9 72.9,320.9 72.9,314.5 55.3,314.5 	"/>
	<polygon class="st0" points="81.4,295 91.3,295 91.3,320.9 98.4,320.9 98.4,295 108.3,295 108.3,288.4 81.4,288.4 	"/>
	<polygon class="st0" points="170.5,288.4 143.6,288.4 143.6,295 153.4,295 153.4,320.9 160.6,320.9 160.6,295 170.5,295 	"/>
	<path class="st0" d="M226,314.9c-5.6,0-9.4-4.6-9.4-10.2v-0.1c0-5.6,3.9-10.1,9.4-10.1c3.2,0,5.8,1.4,8.3,3.7l4.5-5.2
		c-3-3-6.7-5-12.8-5c-10,0-16.9,7.6-16.9,16.8v0.1c0,9.3,7.1,16.7,16.7,16.7c6.3,0,10-2.2,13.3-5.8l-4.5-4.6
		C232,313.4,229.7,314.9,226,314.9z"/>
	<polygon class="st0" points="272.9,288.4 265,288.4 253.4,304.6 265,320.9 272.9,320.9 261.4,304.6 	"/>
	<rect x="245.8" y="288.4" class="st0" width="7.1" height="32.5"/>
	<path class="st0" d="M184.2,288.6l-13.8,32.3h7.2l2.7-6.7h13.9l2.8,6.7h7.4l-13.8-32.3H184.2z M182.8,308.3l4.6-11.3l4.6,11.3
		H182.8z"/>
</g>
</svg>
