<svg xmlns="http://www.w3.org/2000/svg" viewBox="0 0 1200 580" font-family="sans-serif">
  <!-- Background -->
  <rect width="1200" height="580" fill="#d0fdf2"/>

  <!-- Title -->
  <text x="600" y="38" text-anchor="middle" font-size="22" font-weight="bold" fill="#013a3b">
    Tenant Data Isolation Patterns
  </text>

  <!-- Column dividers -->
  <line x1="400" y1="55" x2="400" y2="560" stroke="#013a3b" stroke-width="1.5" stroke-dasharray="6,4"/>
  <line x1="800" y1="55" x2="800" y2="560" stroke="#013a3b" stroke-width="1.5" stroke-dasharray="6,4"/>

  <!-- ══════════════════════════════════════════ -->
  <!-- COLUMN 1: Database-per-Tenant             -->
  <!-- ══════════════════════════════════════════ -->
  <rect x="20" y="55" width="360" height="44" rx="6" fill="#013a3b"/>
  <text x="200" y="82" text-anchor="middle" font-size="16" font-weight="bold" fill="#d0fdf2">Database-per-Tenant</text>

  <!-- DB A (cylinder) -->
  <ellipse cx="200" cy="155" rx="70" ry="18" fill="#02f4d5" stroke="#013a3b" stroke-width="2"/>
  <rect x="130" y="155" width="140" height="70" fill="#02f4d5" stroke="#013a3b" stroke-width="2"/>
  <ellipse cx="200" cy="225" rx="70" ry="18" fill="#02f4d5" stroke="#013a3b" stroke-width="2"/>
  <text x="200" y="196" text-anchor="middle" font-size="13" font-weight="bold" fill="#013a3b">Database A</text>
  <text x="200" y="243" text-anchor="middle" font-size="12" fill="#013a3b" font-weight="bold">Tenant A only</text>

  <!-- DB B (cylinder) -->
  <ellipse cx="200" cy="305" rx="70" ry="18" fill="#02f4d5" stroke="#013a3b" stroke-width="2"/>
  <rect x="130" y="305" width="140" height="70" fill="#02f4d5" stroke="#013a3b" stroke-width="2"/>
  <ellipse cx="200" cy="375" rx="70" ry="18" fill="#02f4d5" stroke="#013a3b" stroke-width="2"/>
  <text x="200" y="346" text-anchor="middle" font-size="13" font-weight="bold" fill="#013a3b">Database B</text>
  <text x="200" y="393" text-anchor="middle" font-size="12" fill="#013a3b" font-weight="bold">Tenant B only</text>

  <!-- DB C (cylinder) -->
  <ellipse cx="200" cy="450" rx="70" ry="18" fill="#02f4d5" stroke="#013a3b" stroke-width="2"/>
  <rect x="130" y="450" width="140" height="70" fill="#02f4d5" stroke="#013a3b" stroke-width="2"/>
  <ellipse cx="200" cy="520" rx="70" ry="18" fill="#02f4d5" stroke="#013a3b" stroke-width="2"/>
  <text x="200" y="491" text-anchor="middle" font-size="13" font-weight="bold" fill="#013a3b">Database C</text>
  <text x="200" y="538" text-anchor="middle" font-size="12" fill="#013a3b" font-weight="bold">Tenant C only</text>

  <!-- Tags for column 1 -->
  <rect x="50" y="110" width="140" height="22" rx="4" fill="#013a3b" opacity="0.12"/>
  <text x="120" y="125" text-anchor="middle" font-size="10" fill="#013a3b">Strongest isolation</text>
  <rect x="50" y="135" width="140" height="22" rx="4" fill="#013a3b" opacity="0.12"/>
  <text x="120" y="150" text-anchor="middle" font-size="10" fill="#013a3b">Highest cost</text>

  <!-- ══════════════════════════════════════════ -->
  <!-- COLUMN 2: Schema-per-Tenant               -->
  <!-- ══════════════════════════════════════════ -->
  <rect x="420" y="55" width="360" height="44" rx="6" fill="#013a3b"/>
  <text x="600" y="82" text-anchor="middle" font-size="16" font-weight="bold" fill="#d0fdf2">Schema-per-Tenant</text>

  <!-- Single large DB cylinder -->
  <ellipse cx="600" cy="155" rx="100" ry="22" fill="#c8fff5" stroke="#013a3b" stroke-width="2"/>
  <rect x="500" y="155" width="200" height="340" fill="#c8fff5" stroke="#013a3b" stroke-width="2"/>
  <ellipse cx="600" cy="495" rx="100" ry="22" fill="#c8fff5" stroke="#013a3b" stroke-width="2"/>

  <!-- Schema sections inside -->
  <rect x="510" y="185" width="180" height="72" rx="4" fill="#02f4d5" stroke="#013a3b" stroke-width="1.5"/>
  <text x="600" y="218" text-anchor="middle" font-size="13" font-weight="bold" fill="#013a3b">Schema A</text>
  <text x="600" y="238" text-anchor="middle" font-size="11" fill="#013a3b">Tables for Tenant A</text>

  <rect x="510" y="267" width="180" height="72" rx="4" fill="#02f4d5" stroke="#013a3b" stroke-width="1.5"/>
  <text x="600" y="300" text-anchor="middle" font-size="13" font-weight="bold" fill="#013a3b">Schema B</text>
  <text x="600" y="320" text-anchor="middle" font-size="11" fill="#013a3b">Tables for Tenant B</text>

  <rect x="510" y="349" width="180" height="72" rx="4" fill="#02f4d5" stroke="#013a3b" stroke-width="1.5"/>
  <text x="600" y="382" text-anchor="middle" font-size="13" font-weight="bold" fill="#013a3b">Schema C</text>
  <text x="600" y="402" text-anchor="middle" font-size="11" fill="#013a3b">Tables for Tenant C</text>

  <!-- Shared DB label -->
  <text x="600" y="465" text-anchor="middle" font-size="12" fill="#013a3b">Shared Database</text>
  <text x="600" y="482" text-anchor="middle" font-size="10" fill="#013a3b">one instance</text>

  <!-- Tags for column 2 -->
  <rect x="440" y="110" width="150" height="22" rx="4" fill="#013a3b" opacity="0.12"/>
  <text x="515" y="125" text-anchor="middle" font-size="10" fill="#013a3b">Moderate isolation</text>
  <rect x="440" y="135" width="150" height="22" rx="4" fill="#013a3b" opacity="0.12"/>
  <text x="515" y="150" text-anchor="middle" font-size="10" fill="#013a3b">Shared infrastructure</text>

  <!-- ══════════════════════════════════════════ -->
  <!-- COLUMN 3: Row-Level Security              -->
  <!-- ══════════════════════════════════════════ -->
  <rect x="820" y="55" width="360" height="44" rx="6" fill="#013a3b"/>
  <text x="1000" y="82" text-anchor="middle" font-size="16" font-weight="bold" fill="#d0fdf2">Row-Level Security</text>

  <!-- Single DB cylinder (shared schema) -->
  <ellipse cx="1000" cy="155" rx="100" ry="22" fill="#c8fff5" stroke="#013a3b" stroke-width="2"/>
  <rect x="900" y="155" width="200" height="340" fill="#c8fff5" stroke="#013a3b" stroke-width="2"/>
  <ellipse cx="1000" cy="495" rx="100" ry="22" fill="#c8fff5" stroke="#013a3b" stroke-width="2"/>

  <!-- Rows inside DB (alternating by tenant colour) -->
  <!-- Header row -->
  <rect x="910" y="178" width="180" height="26" rx="2" fill="#013a3b" opacity="0.6"/>
  <text x="960" y="196" text-anchor="middle" font-size="10" fill="#d0fdf2">tenant_id</text>
  <text x="1040" y="196" text-anchor="middle" font-size="10" fill="#d0fdf2">data</text>
  <!-- Tenant A rows -->
  <rect x="910" y="208" width="180" height="24" rx="2" fill="#02f4d5" opacity="0.7"/>
  <text x="960" y="224" text-anchor="middle" font-size="10" fill="#013a3b">A</text>
  <text x="1040" y="224" text-anchor="middle" font-size="10" fill="#013a3b">record...</text>
  <rect x="910" y="235" width="180" height="24" rx="2" fill="#02f4d5" opacity="0.7"/>
  <text x="960" y="251" text-anchor="middle" font-size="10" fill="#013a3b">A</text>
  <text x="1040" y="251" text-anchor="middle" font-size="10" fill="#013a3b">record...</text>
  <!-- Tenant B rows -->
  <rect x="910" y="262" width="180" height="24" rx="2" fill="#013a3b" opacity="0.2"/>
  <text x="960" y="278" text-anchor="middle" font-size="10" fill="#013a3b">B</text>
  <text x="1040" y="278" text-anchor="middle" font-size="10" fill="#013a3b">record...</text>
  <rect x="910" y="289" width="180" height="24" rx="2" fill="#013a3b" opacity="0.2"/>
  <text x="960" y="305" text-anchor="middle" font-size="10" fill="#013a3b">B</text>
  <text x="1040" y="305" text-anchor="middle" font-size="10" fill="#013a3b">record...</text>
  <!-- Tenant C rows -->
  <rect x="910" y="316" width="180" height="24" rx="2" fill="#02f4d5" opacity="0.4"/>
  <text x="960" y="332" text-anchor="middle" font-size="10" fill="#013a3b">C</text>
  <text x="1040" y="332" text-anchor="middle" font-size="10" fill="#013a3b">record...</text>
  <rect x="910" y="343" width="180" height="24" rx="2" fill="#02f4d5" opacity="0.4"/>
  <text x="960" y="359" text-anchor="middle" font-size="10" fill="#013a3b">C</text>
  <text x="1040" y="359" text-anchor="middle" font-size="10" fill="#013a3b">record...</text>
  <!-- More rows -->
  <rect x="910" y="370" width="180" height="24" rx="2" fill="#013a3b" opacity="0.2"/>
  <text x="960" y="386" text-anchor="middle" font-size="10" fill="#013a3b">B</text>
  <text x="1040" y="386" text-anchor="middle" font-size="10" fill="#013a3b">record...</text>
  <rect x="910" y="397" width="180" height="24" rx="2" fill="#02f4d5" opacity="0.7"/>
  <text x="960" y="413" text-anchor="middle" font-size="10" fill="#013a3b">A</text>
  <text x="1040" y="413" text-anchor="middle" font-size="10" fill="#013a3b">record...</text>
  <rect x="910" y="424" width="180" height="24" rx="2" fill="#02f4d5" opacity="0.4"/>
  <text x="960" y="440" text-anchor="middle" font-size="10" fill="#013a3b">C</text>
  <text x="1040" y="440" text-anchor="middle" font-size="10" fill="#013a3b">record...</text>

  <!-- Shared DB label -->
  <text x="1000" y="465" text-anchor="middle" font-size="12" fill="#013a3b">Shared DB + Schema</text>
  <text x="1000" y="482" text-anchor="middle" font-size="10" fill="#013a3b">policy filters rows</text>

  <!-- Tags for column 3 -->
  <rect x="840" y="110" width="150" height="22" rx="4" fill="#013a3b" opacity="0.12"/>
  <text x="915" y="125" text-anchor="middle" font-size="10" fill="#013a3b">Weakest isolation</text>
  <rect x="840" y="135" width="150" height="22" rx="4" fill="#013a3b" opacity="0.12"/>
  <text x="915" y="150" text-anchor="middle" font-size="10" fill="#013a3b">Lowest cost</text>

  <!-- ── Bottom note ── -->
  <rect x="10" y="548" width="1180" height="26" rx="6" fill="#013a3b"/>
  <text x="600" y="566" text-anchor="middle" font-size="12" font-weight="bold" fill="#d0fdf2">
    Edera provides container-layer isolation — complementing all three data isolation strategies
  </text>
</svg>
