<svg xmlns="http://www.w3.org/2000/svg" viewBox="0 0 1200 580" font-family="sans-serif">
  <!-- Background -->
  <rect width="1200" height="580" fill="#d0fdf2"/>

  <!-- Title -->
  <text x="600" y="38" text-anchor="middle" font-size="22" font-weight="bold" fill="#013a3b">
    Deployment Topology
  </text>

  <!-- ── Layer 1: External Traffic (top) ── -->
  <rect x="380" y="55" width="440" height="50" rx="8" fill="#013a3b"/>
  <text x="600" y="85" text-anchor="middle" font-size="15" font-weight="bold" fill="#d0fdf2">
    Tenant Requests (Internet)
  </text>

  <!-- Arrow down -->
  <line x1="600" y1="105" x2="600" y2="128" stroke="#013a3b" stroke-width="2"/>
  <polygon points="592,126 608,126 600,140" fill="#013a3b"/>

  <!-- ── Layer 2: Ingress / Load Balancer ── -->
  <rect x="280" y="140" width="640" height="46" rx="8" fill="#013a3b" opacity="0.75"/>
  <text x="600" y="168" text-anchor="middle" font-size="14" font-weight="bold" fill="#d0fdf2">
    Kubernetes Ingress / Load Balancer
  </text>

  <!-- Arrows down to three nodes -->
  <line x1="360" y1="186" x2="260" y2="218" stroke="#013a3b" stroke-width="2"/>
  <polygon points="252,214 266,224 258,230" fill="#013a3b"/>
  <line x1="600" y1="186" x2="600" y2="218" stroke="#013a3b" stroke-width="2"/>
  <polygon points="592,216 608,216 600,230" fill="#013a3b"/>
  <line x1="840" y1="186" x2="940" y2="218" stroke="#013a3b" stroke-width="2"/>
  <polygon points="932,214 946,224 938,230" fill="#013a3b"/>

  <!-- ── Worker Node Column A ── -->
  <rect x="30" y="230" width="360" height="310" rx="10" fill="white" stroke="#013a3b" stroke-width="2"/>
  <!-- Node header -->
  <rect x="30" y="230" width="360" height="36" rx="10" fill="#013a3b"/>
  <rect x="30" y="248" width="360" height="18" fill="#013a3b"/>
  <text x="210" y="253" text-anchor="middle" font-size="14" font-weight="bold" fill="#d0fdf2">Worker Node 1</text>
  <!-- Edera hypervisor -->
  <rect x="42" y="274" width="336" height="24" rx="4" fill="#02f4d5"/>
  <text x="210" y="290" text-anchor="middle" font-size="12" font-weight="bold" fill="#013a3b">Edera Hypervisor</text>
  <!-- Zone 1A -->
  <rect x="50" y="306" width="148" height="210" rx="6" fill="#c8fff5" stroke="#02f4d5" stroke-width="2"/>
  <rect x="50" y="306" width="148" height="28" rx="6" fill="#013a3b"/>
  <rect x="50" y="322" width="148" height="12" fill="#013a3b"/>
  <text x="124" y="324" text-anchor="middle" font-size="12" font-weight="bold" fill="#02f4d5">Zone A</text>
  <rect x="62" y="344" width="124" height="36" rx="4" fill="#013a3b"/>
  <text x="124" y="366" text-anchor="middle" font-size="11" fill="#d0fdf2">Container</text>
  <text x="124" y="402" text-anchor="middle" font-size="12" font-weight="bold" fill="#013a3b">Tenant A</text>
  <rect x="62" y="418" width="124" height="20" rx="3" fill="#013a3b" opacity="0.15" stroke="#013a3b" stroke-width="1"/>
  <text x="124" y="432" text-anchor="middle" font-size="10" fill="#013a3b">Dedicated Kernel</text>
  <!-- Zone 1B -->
  <rect x="212" y="306" width="148" height="210" rx="6" fill="#c8fff5" stroke="#02f4d5" stroke-width="2"/>
  <rect x="212" y="306" width="148" height="28" rx="6" fill="#013a3b"/>
  <rect x="212" y="322" width="148" height="12" fill="#013a3b"/>
  <text x="286" y="324" text-anchor="middle" font-size="12" font-weight="bold" fill="#02f4d5">Zone B</text>
  <rect x="224" y="344" width="124" height="36" rx="4" fill="#013a3b"/>
  <text x="286" y="366" text-anchor="middle" font-size="11" fill="#d0fdf2">Container</text>
  <text x="286" y="402" text-anchor="middle" font-size="12" font-weight="bold" fill="#013a3b">Tenant B</text>
  <rect x="224" y="418" width="124" height="20" rx="3" fill="#013a3b" opacity="0.15" stroke="#013a3b" stroke-width="1"/>
  <text x="286" y="432" text-anchor="middle" font-size="10" fill="#013a3b">Dedicated Kernel</text>

  <!-- ── Worker Node Column B ── -->
  <rect x="420" y="230" width="360" height="310" rx="10" fill="white" stroke="#013a3b" stroke-width="2"/>
  <rect x="420" y="230" width="360" height="36" rx="10" fill="#013a3b"/>
  <rect x="420" y="248" width="360" height="18" fill="#013a3b"/>
  <text x="600" y="253" text-anchor="middle" font-size="14" font-weight="bold" fill="#d0fdf2">Worker Node 2</text>
  <rect x="432" y="274" width="336" height="24" rx="4" fill="#02f4d5"/>
  <text x="600" y="290" text-anchor="middle" font-size="12" font-weight="bold" fill="#013a3b">Edera Hypervisor</text>
  <!-- Zone 2A -->
  <rect x="440" y="306" width="148" height="210" rx="6" fill="#c8fff5" stroke="#02f4d5" stroke-width="2"/>
  <rect x="440" y="306" width="148" height="28" rx="6" fill="#013a3b"/>
  <rect x="440" y="322" width="148" height="12" fill="#013a3b"/>
  <text x="514" y="324" text-anchor="middle" font-size="12" font-weight="bold" fill="#02f4d5">Zone C</text>
  <rect x="452" y="344" width="124" height="36" rx="4" fill="#013a3b"/>
  <text x="514" y="366" text-anchor="middle" font-size="11" fill="#d0fdf2">Container</text>
  <text x="514" y="402" text-anchor="middle" font-size="12" font-weight="bold" fill="#013a3b">Tenant C</text>
  <rect x="452" y="418" width="124" height="20" rx="3" fill="#013a3b" opacity="0.15" stroke="#013a3b" stroke-width="1"/>
  <text x="514" y="432" text-anchor="middle" font-size="10" fill="#013a3b">Dedicated Kernel</text>
  <!-- Zone 2B -->
  <rect x="602" y="306" width="148" height="210" rx="6" fill="#c8fff5" stroke="#02f4d5" stroke-width="2"/>
  <rect x="602" y="306" width="148" height="28" rx="6" fill="#013a3b"/>
  <rect x="602" y="322" width="148" height="12" fill="#013a3b"/>
  <text x="676" y="324" text-anchor="middle" font-size="12" font-weight="bold" fill="#02f4d5">Zone D</text>
  <rect x="614" y="344" width="124" height="36" rx="4" fill="#013a3b"/>
  <text x="676" y="366" text-anchor="middle" font-size="11" fill="#d0fdf2">Container</text>
  <text x="676" y="402" text-anchor="middle" font-size="12" font-weight="bold" fill="#013a3b">Tenant D</text>
  <rect x="614" y="418" width="124" height="20" rx="3" fill="#013a3b" opacity="0.15" stroke="#013a3b" stroke-width="1"/>
  <text x="676" y="432" text-anchor="middle" font-size="10" fill="#013a3b">Dedicated Kernel</text>

  <!-- ── Worker Node Column C ── -->
  <rect x="810" y="230" width="360" height="310" rx="10" fill="white" stroke="#013a3b" stroke-width="2"/>
  <rect x="810" y="230" width="360" height="36" rx="10" fill="#013a3b"/>
  <rect x="810" y="248" width="360" height="18" fill="#013a3b"/>
  <text x="990" y="253" text-anchor="middle" font-size="14" font-weight="bold" fill="#d0fdf2">Worker Node 3</text>
  <rect x="822" y="274" width="336" height="24" rx="4" fill="#02f4d5"/>
  <text x="990" y="290" text-anchor="middle" font-size="12" font-weight="bold" fill="#013a3b">Edera Hypervisor</text>
  <!-- Zone 3A -->
  <rect x="830" y="306" width="148" height="210" rx="6" fill="#c8fff5" stroke="#02f4d5" stroke-width="2"/>
  <rect x="830" y="306" width="148" height="28" rx="6" fill="#013a3b"/>
  <rect x="830" y="322" width="148" height="12" fill="#013a3b"/>
  <text x="904" y="324" text-anchor="middle" font-size="12" font-weight="bold" fill="#02f4d5">Zone E</text>
  <rect x="842" y="344" width="124" height="36" rx="4" fill="#013a3b"/>
  <text x="904" y="366" text-anchor="middle" font-size="11" fill="#d0fdf2">Container</text>
  <text x="904" y="402" text-anchor="middle" font-size="12" font-weight="bold" fill="#013a3b">Tenant E</text>
  <rect x="842" y="418" width="124" height="20" rx="3" fill="#013a3b" opacity="0.15" stroke="#013a3b" stroke-width="1"/>
  <text x="904" y="432" text-anchor="middle" font-size="10" fill="#013a3b">Dedicated Kernel</text>
  <!-- Zone 3B -->
  <rect x="992" y="306" width="148" height="210" rx="6" fill="#c8fff5" stroke="#02f4d5" stroke-width="2"/>
  <rect x="992" y="306" width="148" height="28" rx="6" fill="#013a3b"/>
  <rect x="992" y="322" width="148" height="12" fill="#013a3b"/>
  <text x="1066" y="324" text-anchor="middle" font-size="12" font-weight="bold" fill="#02f4d5">Zone F</text>
  <rect x="1004" y="344" width="124" height="36" rx="4" fill="#013a3b"/>
  <text x="1066" y="366" text-anchor="middle" font-size="11" fill="#d0fdf2">Container</text>
  <text x="1066" y="402" text-anchor="middle" font-size="12" font-weight="bold" fill="#013a3b">Tenant F</text>
  <rect x="1004" y="418" width="124" height="20" rx="3" fill="#013a3b" opacity="0.15" stroke="#013a3b" stroke-width="1"/>
  <text x="1066" y="432" text-anchor="middle" font-size="10" fill="#013a3b">Dedicated Kernel</text>

  <!-- ── Cloud / Infrastructure bar (bottom) ── -->
  <rect x="10" y="548" width="1180" height="26" rx="6" fill="#013a3b" opacity="0.75"/>
  <text x="600" y="565" text-anchor="middle" font-size="12" font-weight="bold" fill="#d0fdf2">
    Cloud Infrastructure (VMs / Bare Metal)  ·  Nodes scale horizontally as tenants grow
  </text>
</svg>
