<svg xmlns="http://www.w3.org/2000/svg" viewBox="0 0 1200 580" font-family="sans-serif">
  <!-- Background -->
  <rect width="1200" height="580" fill="#d0fdf2"/>

  <!-- Kubernetes Cluster outer border -->
  <rect x="10" y="10" width="1180" height="510" rx="12" fill="white"
        stroke="#013a3b" stroke-width="3" stroke-dasharray="10,5"/>
  <rect x="10" y="10" width="260" height="30" rx="6" fill="#013a3b"/>
  <text x="140" y="30" text-anchor="middle" font-size="16" font-weight="bold"
        fill="#d0fdf2">Kubernetes Cluster</text>

  <!-- ── Control Plane ── -->
  <rect x="25" y="50" width="175" height="455" rx="8" fill="#013a3b"/>
  <text x="112" y="80" text-anchor="middle" font-size="15" font-weight="bold"
        fill="#d0fdf2">Control Plane</text>
  <!-- K8s wheel icon (simplified) -->
  <circle cx="112" cy="140" r="38" fill="none" stroke="#02f4d5" stroke-width="3"/>
  <circle cx="112" cy="140" r="10" fill="#02f4d5"/>
  <line x1="112" y1="102" x2="112" y2="130" stroke="#02f4d5" stroke-width="3"/>
  <line x1="112" y1="150" x2="112" y2="178" stroke="#02f4d5" stroke-width="3"/>
  <line x1="74" y1="140" x2="102" y2="140" stroke="#02f4d5" stroke-width="3"/>
  <line x1="122" y1="140" x2="150" y2="140" stroke="#02f4d5" stroke-width="3"/>
  <line x1="84" y1="112" x2="104" y2="130" stroke="#02f4d5" stroke-width="3"/>
  <line x1="120" y1="150" x2="140" y2="168" stroke="#02f4d5" stroke-width="3"/>
  <line x1="140" y1="112" x2="120" y2="130" stroke="#02f4d5" stroke-width="3"/>
  <line x1="104" y1="150" x2="84" y2="168" stroke="#02f4d5" stroke-width="3"/>

  <text x="112" y="210" text-anchor="middle" font-size="12" fill="#d0fdf2">API Server</text>
  <text x="112" y="232" text-anchor="middle" font-size="12" fill="#d0fdf2">Scheduler</text>
  <text x="112" y="254" text-anchor="middle" font-size="12" fill="#d0fdf2">Controller Mgr</text>
  <text x="112" y="276" text-anchor="middle" font-size="12" fill="#d0fdf2">etcd</text>

  <!-- Connection line from control plane to worker nodes -->
  <line x1="200" y1="275" x2="225" y2="275" stroke="#02f4d5" stroke-width="2" stroke-dasharray="5,3"/>

  <!-- ── Worker Node 1 ── -->
  <rect x="220" y="50" width="460" height="455" rx="8" fill="white" stroke="#013a3b" stroke-width="2"/>
  <!-- Node header -->
  <rect x="220" y="50" width="460" height="38" rx="8" fill="#013a3b"/>
  <rect x="220" y="70" width="460" height="18" fill="#013a3b"/>
  <text x="450" y="74" text-anchor="middle" font-size="15" font-weight="bold" fill="#d0fdf2">Worker Node 1</text>

  <!-- Edera Hypervisor bar Node 1 -->
  <rect x="232" y="98" width="436" height="26" rx="4" fill="#02f4d5"/>
  <text x="450" y="115" text-anchor="middle" font-size="13" font-weight="bold"
        fill="#013a3b">Edera Hypervisor (Type-1)</text>

  <!-- Zone A -->
  <rect x="240" y="132" width="200" height="195" rx="6" fill="#c8fff5" stroke="#02f4d5" stroke-width="2"/>
  <rect x="240" y="132" width="200" height="30" rx="6" fill="#013a3b"/>
  <rect x="240" y="150" width="200" height="12" fill="#013a3b"/>
  <text x="340" y="152" text-anchor="middle" font-size="13" font-weight="bold" fill="#02f4d5">Zone A</text>
  <!-- Container box -->
  <rect x="258" y="172" width="164" height="52" rx="4" fill="#013a3b"/>
  <text x="340" y="200" text-anchor="middle" font-size="12" fill="#d0fdf2">Container</text>
  <text x="340" y="216" text-anchor="middle" font-size="10" fill="#d0fdf2">app workload</text>
  <!-- Kernel label -->
  <rect x="258" y="233" width="164" height="26" rx="4" fill="#013a3b" opacity="0.15" stroke="#013a3b" stroke-width="1"/>
  <text x="340" y="249" text-anchor="middle" font-size="11" fill="#013a3b">Linux Kernel (dedicated)</text>
  <text x="340" y="315" text-anchor="middle" font-size="13" font-weight="bold" fill="#013a3b">Tenant A</text>

  <!-- Zone B -->
  <rect x="458" y="132" width="200" height="195" rx="6" fill="#c8fff5" stroke="#02f4d5" stroke-width="2"/>
  <rect x="458" y="132" width="200" height="30" rx="6" fill="#013a3b"/>
  <rect x="458" y="150" width="200" height="12" fill="#013a3b"/>
  <text x="558" y="152" text-anchor="middle" font-size="13" font-weight="bold" fill="#02f4d5">Zone B</text>
  <rect x="476" y="172" width="164" height="52" rx="4" fill="#013a3b"/>
  <text x="558" y="200" text-anchor="middle" font-size="12" fill="#d0fdf2">Container</text>
  <text x="558" y="216" text-anchor="middle" font-size="10" fill="#d0fdf2">app workload</text>
  <rect x="476" y="233" width="164" height="26" rx="4" fill="#013a3b" opacity="0.15" stroke="#013a3b" stroke-width="1"/>
  <text x="558" y="249" text-anchor="middle" font-size="11" fill="#013a3b">Linux Kernel (dedicated)</text>
  <text x="558" y="315" text-anchor="middle" font-size="13" font-weight="bold" fill="#013a3b">Tenant B</text>

  <!-- Isolation arrow Node 1 -->
  <line x1="452" y1="220" x2="452" y2="330" stroke="#013a3b" stroke-width="1.5" stroke-dasharray="4,3"/>
  <text x="340" y="360" text-anchor="middle" font-size="10" fill="#013a3b" font-style="italic">no shared kernel</text>
  <text x="558" y="360" text-anchor="middle" font-size="10" fill="#013a3b" font-style="italic">no shared kernel</text>

  <!-- Host OS Node 1 -->
  <rect x="232" y="380" width="436" height="28" rx="4" fill="#013a3b" opacity="0.55"/>
  <text x="450" y="399" text-anchor="middle" font-size="12" fill="#d0fdf2">Host OS (Linux) · kubelet · CRI</text>

  <!-- Connection line between nodes -->
  <line x1="680" y1="275" x2="710" y2="275" stroke="#02f4d5" stroke-width="2" stroke-dasharray="5,3"/>

  <!-- ── Worker Node 2 ── -->
  <rect x="710" y="50" width="460" height="455" rx="8" fill="white" stroke="#013a3b" stroke-width="2"/>
  <rect x="710" y="50" width="460" height="38" rx="8" fill="#013a3b"/>
  <rect x="710" y="70" width="460" height="18" fill="#013a3b"/>
  <text x="940" y="74" text-anchor="middle" font-size="15" font-weight="bold" fill="#d0fdf2">Worker Node 2</text>

  <!-- Edera Hypervisor bar Node 2 -->
  <rect x="722" y="98" width="436" height="26" rx="4" fill="#02f4d5"/>
  <text x="940" y="115" text-anchor="middle" font-size="13" font-weight="bold"
        fill="#013a3b">Edera Hypervisor (Type-1)</text>

  <!-- Zone C -->
  <rect x="730" y="132" width="200" height="195" rx="6" fill="#c8fff5" stroke="#02f4d5" stroke-width="2"/>
  <rect x="730" y="132" width="200" height="30" rx="6" fill="#013a3b"/>
  <rect x="730" y="150" width="200" height="12" fill="#013a3b"/>
  <text x="830" y="152" text-anchor="middle" font-size="13" font-weight="bold" fill="#02f4d5">Zone C</text>
  <rect x="748" y="172" width="164" height="52" rx="4" fill="#013a3b"/>
  <text x="830" y="200" text-anchor="middle" font-size="12" fill="#d0fdf2">Container</text>
  <text x="830" y="216" text-anchor="middle" font-size="10" fill="#d0fdf2">app workload</text>
  <rect x="748" y="233" width="164" height="26" rx="4" fill="#013a3b" opacity="0.15" stroke="#013a3b" stroke-width="1"/>
  <text x="830" y="249" text-anchor="middle" font-size="11" fill="#013a3b">Linux Kernel (dedicated)</text>
  <text x="830" y="315" text-anchor="middle" font-size="13" font-weight="bold" fill="#013a3b">Tenant C</text>

  <!-- Zone D -->
  <rect x="948" y="132" width="200" height="195" rx="6" fill="#c8fff5" stroke="#02f4d5" stroke-width="2"/>
  <rect x="948" y="132" width="200" height="30" rx="6" fill="#013a3b"/>
  <rect x="948" y="150" width="200" height="12" fill="#013a3b"/>
  <text x="1048" y="152" text-anchor="middle" font-size="13" font-weight="bold" fill="#02f4d5">Zone D</text>
  <rect x="966" y="172" width="164" height="52" rx="4" fill="#013a3b"/>
  <text x="1048" y="200" text-anchor="middle" font-size="12" fill="#d0fdf2">Container</text>
  <text x="1048" y="216" text-anchor="middle" font-size="10" fill="#d0fdf2">app workload</text>
  <rect x="966" y="233" width="164" height="26" rx="4" fill="#013a3b" opacity="0.15" stroke="#013a3b" stroke-width="1"/>
  <text x="1048" y="249" text-anchor="middle" font-size="11" fill="#013a3b">Linux Kernel (dedicated)</text>
  <text x="1048" y="315" text-anchor="middle" font-size="13" font-weight="bold" fill="#013a3b">Tenant D</text>

  <!-- Isolation arrow Node 2 -->
  <line x1="942" y1="220" x2="942" y2="330" stroke="#013a3b" stroke-width="1.5" stroke-dasharray="4,3"/>
  <text x="830" y="360" text-anchor="middle" font-size="10" fill="#013a3b" font-style="italic">no shared kernel</text>
  <text x="1048" y="360" text-anchor="middle" font-size="10" fill="#013a3b" font-style="italic">no shared kernel</text>

  <!-- Host OS Node 2 -->
  <rect x="722" y="380" width="436" height="28" rx="4" fill="#013a3b" opacity="0.55"/>
  <text x="940" y="399" text-anchor="middle" font-size="12" fill="#d0fdf2">Host OS (Linux) · kubelet · CRI</text>

  <!-- ── Footer caption ── -->
  <text x="600" y="545" text-anchor="middle" font-size="14" fill="#013a3b">
    Each Edera Zone has its own Linux kernel — tenants are fully isolated from each other
  </text>

  <!-- Legend -->
  <rect x="20" y="530" width="14" height="14" rx="2" fill="#c8fff5" stroke="#02f4d5" stroke-width="1.5"/>
  <text x="40" y="542" font-size="11" fill="#013a3b">Edera Zone (isolated lightweight VM)</text>
  <rect x="250" y="530" width="14" height="14" rx="2" fill="#02f4d5"/>
  <text x="270" y="542" font-size="11" fill="#013a3b">Edera Hypervisor</text>
  <rect x="400" y="530" width="14" height="14" rx="2" fill="#013a3b"/>
  <text x="420" y="542" font-size="11" fill="#013a3b">Kubernetes / Host OS</text>
</svg>
